<svg xmlns="http://www.w3.org/2000/svg" width="2763" height="1426" viewBox="-20.0 -20.0 2763.0 1426.0"><rect x="-20.0" y="-20.0" width="2763.0" height="1426.0" fill="#ffffff"/><g font-family="Inter, Arial, sans-serif" font-size="14"><g data-dediren-edge-id="data-database-composes-runs"><marker id="marker-start-data-database-composes-runs" data-dediren-edge-marker-start="filled_diamond" markerWidth="10" markerHeight="10" refX="5" refY="5" orient="auto"><path d="M 1 5 L 5 1 L 9 5 L 5 9 Z" fill="#000000" stroke="#000000" stroke-width="1"/></marker><path d="M 954.0 683.0 L 954.0 907.0" fill="none" stroke="#000000" stroke-width="1.25" stroke-linecap="round" stroke-linejoin="round" marker-start="url(#marker-start-data-database-composes-runs)"/><text x="948.0" y="795.0" text-anchor="end" fill="none" font-size="15.4" font-weight="600" stroke="#ffffff" stroke-width="2">container</text><text x="948.0" y="795.0" text-anchor="end" fill="#000000" font-size="15.4" font-weight="600">container</text></g><g data-dediren-edge-id="data-database-composes-raiders"><marker id="marker-start-data-database-composes-raiders" data-dediren-edge-marker-start="filled_diamond" markerWidth="10" markerHeight="10" refX="5" refY="5" orient="auto"><path d="M 1 5 L 5 1 L 9 5 L 5 9 Z" fill="#000000" stroke="#000000" stroke-width="1"/></marker><path d="M 954.0 683.0 L 954.0 739.0 Q 954.0 747.0 962.0 747.0 L 1628.0 747.0 Q 1636.0 747.0 1636.0 755.0 L 1636.0 907.0" fill="none" stroke="#000000" stroke-width="1.25" stroke-linecap="round" stroke-linejoin="round" marker-start="url(#marker-start-data-database-composes-raiders)"/><text x="1295.0" y="765.0" text-anchor="middle" fill="none" font-size="15.4" font-weight="600" stroke="#ffffff" stroke-width="2">container</text><text x="1295.0" y="765.0" text-anchor="middle" fill="#000000" font-size="15.4" font-weight="600">container</text></g><g data-dediren-edge-id="data-database-composes-guilds"><marker id="marker-start-data-database-composes-guilds" data-dediren-edge-marker-start="filled_diamond" markerWidth="10" markerHeight="10" refX="5" refY="5" orient="auto"><path d="M 1 5 L 5 1 L 9 5 L 5 9 Z" fill="#000000" stroke="#000000" stroke-width="1"/></marker><path d="M 954.0 683.0 L 954.0 739.0 Q 954.0 747.0 962.0 747.0 L 1282.0 747.0 Q 1290.0 747.0 1290.0 755.0 L 1290.0 907.0" fill="none" stroke="#000000" stroke-width="1.25" stroke-linecap="round" stroke-linejoin="round" marker-start="url(#marker-start-data-database-composes-guilds)"/><text x="1122.0" y="765.0" text-anchor="middle" fill="none" font-size="15.4" font-weight="600" stroke="#ffffff" stroke-width="2">container</text><text x="1122.0" y="765.0" text-anchor="middle" fill="#000000" font-size="15.4" font-weight="600">container</text></g><g data-dediren-edge-id="data-database-composes-idempotency"><marker id="marker-start-data-database-composes-idempotency" data-dediren-edge-marker-start="filled_diamond" markerWidth="10" markerHeight="10" refX="5" refY="5" orient="auto"><path d="M 1 5 L 5 1 L 9 5 L 5 9 Z" fill="#000000" stroke="#000000" stroke-width="1"/></marker><path d="M 954.0 683.0 L 954.0 739.0 Q 954.0 747.0 946.0 747.0 L 626.0 747.0 Q 618.0 747.0 618.0 755.0 L 618.0 907.0" fill="none" stroke="#000000" stroke-width="1.25" stroke-linecap="round" stroke-linejoin="round" marker-start="url(#marker-start-data-database-composes-idempotency)"/><text x="786.0" y="765.0" text-anchor="middle" fill="none" font-size="15.4" font-weight="600" stroke="#ffffff" stroke-width="2">container</text><text x="786.0" y="765.0" text-anchor="middle" fill="#000000" font-size="15.4" font-weight="600">container</text></g><g data-dediren-edge-id="data-identity-reads-cosmos"><marker id="marker-end-data-identity-reads-cosmos" data-dediren-edge-marker-end="open_arrow" markerWidth="10" markerHeight="10" refX="5" refY="5" orient="auto"><path d="M 1 1 L 9 5 L 1 9" fill="none" stroke="#000000" stroke-width="1.5"/></marker><path d="M 954.0 273.0 L 954.0 561.0" fill="none" stroke="#000000" stroke-width="1.25" stroke-linecap="round" stroke-linejoin="round" stroke-dasharray="8 5" marker-end="url(#marker-end-data-identity-reads-cosmos)"/><text x="948.0" y="417.0" text-anchor="end" fill="none" font-size="15.4" font-weight="600" stroke="#ffffff" stroke-width="2">Data Contributor</text><text x="948.0" y="417.0" text-anchor="end" fill="#000000" font-size="15.4" font-weight="600">Data Contributor</text></g><g data-dediren-edge-id="data-identity-reads-blobs"><marker id="marker-end-data-identity-reads-blobs" data-dediren-edge-marker-end="open_arrow" markerWidth="10" markerHeight="10" refX="5" refY="5" orient="auto"><path d="M 1 1 L 9 5 L 1 9" fill="none" stroke="#000000" stroke-width="1.5"/></marker><path d="M 954.0 273.0 L 954.0 393.0 Q 954.0 401.0 962.0 401.0 L 1256.8 401.0 Q 1264.8 401.0 1264.8 409.0 L 1264.8 561.0" fill="none" stroke="#000000" stroke-width="1.25" stroke-linecap="round" stroke-linejoin="round" stroke-dasharray="8 5" marker-end="url(#marker-end-data-identity-reads-blobs)"/><text x="1109.4" y="419.0" text-anchor="middle" fill="none" font-size="15.4" font-weight="600" stroke="#ffffff" stroke-width="2">Blob roles</text><text x="1109.4" y="419.0" text-anchor="middle" fill="#000000" font-size="15.4" font-weight="600">Blob roles</text></g><g data-dediren-edge-id="data-identity-reads-media-cache"><marker id="marker-end-data-identity-reads-media-cache" data-dediren-edge-marker-end="open_arrow" markerWidth="10" markerHeight="10" refX="5" refY="5" orient="auto"><path d="M 1 1 L 9 5 L 1 9" fill="none" stroke="#000000" stroke-width="1.5"/></marker><path d="M 954.0 273.0 L 954.0 393.0 Q 954.0 401.0 962.0 401.0 L 2038.5 401.0 Q 2046.5 401.0 2046.5 409.0 L 2046.5 561.0" fill="none" stroke="#000000" stroke-width="1.25" stroke-linecap="round" stroke-linejoin="round" stroke-dasharray="8 5" marker-end="url(#marker-end-data-identity-reads-media-cache)"/><text x="1500.3" y="419.0" text-anchor="middle" fill="none" font-size="15.4" font-weight="600" stroke="#ffffff" stroke-width="2">Blob roles</text><text x="1500.3" y="419.0" text-anchor="middle" fill="#000000" font-size="15.4" font-weight="600">Blob roles</text></g><g data-dediren-edge-id="data-identity-uses-key-vault"><marker id="marker-end-data-identity-uses-key-vault" data-dediren-edge-marker-end="open_arrow" markerWidth="10" markerHeight="10" refX="5" refY="5" orient="auto"><path d="M 1 1 L 9 5 L 1 9" fill="none" stroke="#000000" stroke-width="1.5"/></marker><path d="M 954.0 273.0 L 954.0 393.0 Q 954.0 401.0 946.0 401.0 L 240.0 401.0 Q 232.0 401.0 232.0 409.0 L 232.0 561.0" fill="none" stroke="#000000" stroke-width="1.25" stroke-linecap="round" stroke-linejoin="round" stroke-dasharray="8 5" marker-end="url(#marker-end-data-identity-uses-key-vault)"/><text x="593.0" y="419.0" text-anchor="middle" fill="none" font-size="15.4" font-weight="600" stroke="#ffffff" stroke-width="2">Secrets User</text><text x="593.0" y="419.0" text-anchor="middle" fill="#000000" font-size="15.4" font-weight="600">Secrets User</text></g><g data-dediren-edge-id="data-key-vault-composes-key"><marker id="marker-start-data-key-vault-composes-key" data-dediren-edge-marker-start="filled_diamond" markerWidth="10" markerHeight="10" refX="5" refY="5" orient="auto"><path d="M 1 5 L 5 1 L 9 5 L 5 9 Z" fill="#000000" stroke="#000000" stroke-width="1"/></marker><path d="M 232.0 683.0 L 232.0 907.0" fill="none" stroke="#000000" stroke-width="1.25" stroke-linecap="round" stroke-linejoin="round" marker-start="url(#marker-start-data-key-vault-composes-key)"/><text x="226.0" y="795.0" text-anchor="end" fill="none" font-size="15.4" font-weight="600" stroke="#ffffff" stroke-width="2">key</text><text x="226.0" y="795.0" text-anchor="end" fill="#000000" font-size="15.4" font-weight="600">key</text></g><g data-dediren-edge-id="data-key-wraps-ring"><marker id="marker-end-data-key-wraps-ring" data-dediren-edge-marker-end="open_arrow" markerWidth="10" markerHeight="10" refX="5" refY="5" orient="auto"><path d="M 1 1 L 9 5 L 1 9" fill="none" stroke="#000000" stroke-width="1.5"/></marker><path d="M 232.0 1029.0 L 232.0 1253.0" fill="none" stroke="#000000" stroke-width="1.25" stroke-linecap="round" stroke-linejoin="round" stroke-dasharray="8 5" marker-end="url(#marker-end-data-key-wraps-ring)"/><text x="226.0" y="1141.0" text-anchor="end" fill="none" font-size="15.4" font-weight="600" stroke="#ffffff" stroke-width="2">wraps</text><text x="226.0" y="1141.0" text-anchor="end" fill="#000000" font-size="15.4" font-weight="600">wraps</text></g><g data-dediren-edge-id="data-storage-holds-reference"><marker id="marker-start-data-storage-holds-reference" data-dediren-edge-marker-start="filled_diamond" markerWidth="10" markerHeight="10" refX="5" refY="5" orient="auto"><path d="M 1 5 L 5 1 L 9 5 L 5 9 Z" fill="#000000" stroke="#000000" stroke-width="1"/></marker><g data-dediren-line-jump-masks="data-storage-holds-reference"><path d="M 1355.2 395.0 Q 1361.2 401.0 1355.2 407.0" fill="none" stroke="#ffffff" stroke-width="6"/></g><path d="M 1830.0 273.0 L 1830.0 329.0 Q 1830.0 337.0 1822.0 337.0 L 1363.2 337.0 Q 1355.2 337.0 1355.2 345.0 L 1355.2 395.0 Q 1361.2 401.0 1355.2 407.0 L 1355.2 561.0" fill="none" stroke="#000000" stroke-width="1.25" stroke-linecap="round" stroke-linejoin="round" marker-start="url(#marker-start-data-storage-holds-reference)"/><text x="1592.6" y="355.0" text-anchor="middle" fill="none" font-size="15.4" font-weight="600" stroke="#ffffff" stroke-width="2">blob container</text><text x="1592.6" y="355.0" text-anchor="middle" fill="#000000" font-size="15.4" font-weight="600">blob container</text></g><g data-dediren-edge-id="data-storage-holds-media-cache"><marker id="marker-start-data-storage-holds-media-cache" data-dediren-edge-marker-start="filled_diamond" markerWidth="10" markerHeight="10" refX="5" refY="5" orient="auto"><path d="M 1 5 L 5 1 L 9 5 L 5 9 Z" fill="#000000" stroke="#000000" stroke-width="1"/></marker><path d="M 1830.0 273.0 L 1830.0 329.0 Q 1830.0 337.0 1838.0 337.0 L 2175.5 337.0 Q 2183.5 337.0 2183.5 345.0 L 2183.5 561.0" fill="none" stroke="#000000" stroke-width="1.25" stroke-linecap="round" stroke-linejoin="round" marker-start="url(#marker-start-data-storage-holds-media-cache)"/><text x="2006.8" y="355.0" text-anchor="middle" fill="none" font-size="15.4" font-weight="600" stroke="#ffffff" stroke-width="2">blob prefix</text><text x="2006.8" y="355.0" text-anchor="middle" fill="#000000" font-size="15.4" font-weight="600">blob prefix</text></g><g data-dediren-edge-id="data-storage-holds-key-ring"><marker id="marker-start-data-storage-holds-key-ring" data-dediren-edge-marker-start="filled_diamond" markerWidth="10" markerHeight="10" refX="5" refY="5" orient="auto"><path d="M 1 5 L 5 1 L 9 5 L 5 9 Z" fill="#000000" stroke="#000000" stroke-width="1"/></marker><g data-dediren-line-jump-masks="data-storage-holds-key-ring"><path d="M 1830.0 395.0 Q 1836.0 401.0 1830.0 407.0" fill="none" stroke="#ffffff" stroke-width="6"/></g><path d="M 1830.0 273.0 L 1830.0 395.0 Q 1836.0 401.0 1830.0 407.0 L 1830.0 465.0 L 1830.0 622.0 L 1830.0 968.0 L 1830.0 1125.0 L 1830.0 1181.0 Q 1830.0 1189.0 1822.0 1189.0 L 323.7 1189.0 Q 315.7 1189.0 315.7 1197.0 L 315.7 1253.0" fill="none" stroke="#000000" stroke-width="1.25" stroke-linecap="round" stroke-linejoin="round" marker-start="url(#marker-start-data-storage-holds-key-ring)"/><text x="1072.8" y="1207.0" text-anchor="middle" fill="none" font-size="15.4" font-weight="600" stroke="#ffffff" stroke-width="2">blob container</text><text x="1072.8" y="1207.0" text-anchor="middle" fill="#000000" font-size="15.4" font-weight="600">blob container</text></g><g data-dediren-edge-id="data-storage-holds-deployments"><marker id="marker-start-data-storage-holds-deployments" data-dediren-edge-marker-start="filled_diamond" markerWidth="10" markerHeight="10" refX="5" refY="5" orient="auto"><path d="M 1 5 L 5 1 L 9 5 L 5 9 Z" fill="#000000" stroke="#000000" stroke-width="1"/></marker><path d="M 1830.0 273.0 L 1830.0 329.0 Q 1830.0 337.0 1838.0 337.0 L 2563.0 337.0 Q 2571.0 337.0 2571.0 345.0 L 2571.0 561.0" fill="none" stroke="#000000" stroke-width="1.25" stroke-linecap="round" stroke-linejoin="round" marker-start="url(#marker-start-data-storage-holds-deployments)"/><text x="2200.5" y="355.0" text-anchor="middle" fill="none" font-size="15.4" font-weight="600" stroke="#ffffff" stroke-width="2">blob container</text><text x="2200.5" y="355.0" text-anchor="middle" fill="#000000" font-size="15.4" font-weight="600">blob container</text></g><g data-dediren-node-id="interface-managed-identity"><rect data-dediren-node-shape="uml_interface" x="784.0" y="152.0" width="340.0" height="120.0" rx="0" fill="#ffffff" stroke="#000000" stroke-width="1.25"/><g data-dediren-node-decorator="uml_interface"><line x1="784.0" y1="190.0" x2="1124.0" y2="190.0" stroke="#000000" stroke-width="1.25"/><line x1="784.0" y1="190.0" x2="1124.0" y2="190.0" stroke="#000000" stroke-width="1.25"/><text x="954.0" y="167.0" text-anchor="middle" fill="#000000" font-size="12">&#171;interface&#187;</text><text x="954.0" y="182.0" text-anchor="middle" fill="#000000" font-size="12">Managed identity</text><text x="792.0" y="205.0" fill="#000000" font-size="12">+ request Azure token() : Access token</text></g></g><g data-dediren-node-id="interface-cosmos-data-plane"><rect data-dediren-node-shape="uml_interface" x="12.0" y="12.0" width="320.0" height="120.0" rx="0" fill="#ffffff" stroke="#000000" stroke-width="1.25"/><g data-dediren-node-decorator="uml_interface"><line x1="12.0" y1="50.0" x2="332.0" y2="50.0" stroke="#000000" stroke-width="1.25"/><line x1="12.0" y1="50.0" x2="332.0" y2="50.0" stroke="#000000" stroke-width="1.25"/><text x="172.0" y="27.0" text-anchor="middle" fill="#000000" font-size="12">&#171;interface&#187;</text><text x="172.0" y="42.0" text-anchor="middle" fill="#000000" font-size="12">Cosmos DB data plane</text><text x="20.0" y="65.0" fill="#000000" font-size="12">+ read/write documents() : Documents</text></g></g><g data-dediren-node-id="interface-storage-data-plane"><rect data-dediren-node-shape="uml_interface" x="1670.0" y="152.0" width="320.0" height="120.0" rx="0" fill="#ffffff" stroke="#000000" stroke-width="1.25"/><g data-dediren-node-decorator="uml_interface"><line x1="1670.0" y1="190.0" x2="1990.0" y2="190.0" stroke="#000000" stroke-width="1.25"/><line x1="1670.0" y1="190.0" x2="1990.0" y2="190.0" stroke="#000000" stroke-width="1.25"/><text x="1830.0" y="167.0" text-anchor="middle" fill="#000000" font-size="12">&#171;interface&#187;</text><text x="1830.0" y="182.0" text-anchor="middle" fill="#000000" font-size="12">Blob storage data plane</text><text x="1678.0" y="205.0" fill="#000000" font-size="12">+ read/write blobs() : Blob content</text></g></g><g data-dediren-node-id="interface-key-vault-secrets"><rect data-dediren-node-shape="uml_interface" x="12.0" y="562.0" width="440.0" height="120.0" rx="0" fill="#ffffff" stroke="#000000" stroke-width="1.25"/><g data-dediren-node-decorator="uml_interface"><line x1="12.0" y1="600.0" x2="452.0" y2="600.0" stroke="#000000" stroke-width="1.25"/><line x1="12.0" y1="600.0" x2="452.0" y2="600.0" stroke="#000000" stroke-width="1.25"/><text x="232.0" y="577.0" text-anchor="middle" fill="#000000" font-size="12">&#171;interface&#187;</text><text x="232.0" y="592.0" text-anchor="middle" fill="#000000" font-size="12">Key Vault secrets and keys</text><text x="20.0" y="615.0" fill="#000000" font-size="12">+ unwrap keys and read refs() : Secret/key material</text></g></g><g data-dediren-node-id="datatype-cosmos-database"><rect data-dediren-node-shape="uml_data_type" x="844.0" y="562.0" width="220.0" height="120.0" rx="0" fill="#ffffff" stroke="#000000" stroke-width="1.25"/><g data-dediren-node-decorator="uml_data_type"><line x1="844.0" y1="600.0" x2="1064.0" y2="600.0" stroke="#000000" stroke-width="1.25"/><text x="954.0" y="577.0" text-anchor="middle" fill="#000000" font-size="12">&#171;dataType&#187;</text><text x="954.0" y="592.0" text-anchor="middle" fill="#000000" font-size="12">Cosmos SQL database</text><text x="852.0" y="615.0" fill="#000000" font-size="12">+ DatabaseName : String</text></g></g><g data-dediren-node-id="datatype-runs-container"><rect data-dediren-node-shape="uml_data_type" x="834.0" y="908.0" width="240.0" height="120.0" rx="0" fill="#ffffff" stroke="#000000" stroke-width="1.25"/><g data-dediren-node-decorator="uml_data_type"><line x1="834.0" y1="946.0" x2="1074.0" y2="946.0" stroke="#000000" stroke-width="1.25"/><text x="954.0" y="923.0" text-anchor="middle" fill="#000000" font-size="12">&#171;dataType&#187;</text><text x="954.0" y="938.0" text-anchor="middle" fill="#000000" font-size="12">runs container</text><text x="842.0" y="961.0" fill="#000000" font-size="12">+ RunDocument : Document</text></g></g><g data-dediren-node-id="datatype-raiders-container"><rect data-dediren-node-shape="uml_data_type" x="1506.0" y="908.0" width="260.0" height="120.0" rx="0" fill="#ffffff" stroke="#000000" stroke-width="1.25"/><g data-dediren-node-decorator="uml_data_type"><line x1="1506.0" y1="946.0" x2="1766.0" y2="946.0" stroke="#000000" stroke-width="1.25"/><text x="1636.0" y="923.0" text-anchor="middle" fill="#000000" font-size="12">&#171;dataType&#187;</text><text x="1636.0" y="938.0" text-anchor="middle" fill="#000000" font-size="12">raiders container</text><text x="1514.0" y="961.0" fill="#000000" font-size="12">+ RaiderDocument : Document</text></g></g><g data-dediren-node-id="datatype-guilds-container"><rect data-dediren-node-shape="uml_data_type" x="1170.0" y="908.0" width="240.0" height="120.0" rx="0" fill="#ffffff" stroke="#000000" stroke-width="1.25"/><g data-dediren-node-decorator="uml_data_type"><line x1="1170.0" y1="946.0" x2="1410.0" y2="946.0" stroke="#000000" stroke-width="1.25"/><text x="1290.0" y="923.0" text-anchor="middle" fill="#000000" font-size="12">&#171;dataType&#187;</text><text x="1290.0" y="938.0" text-anchor="middle" fill="#000000" font-size="12">guilds container</text><text x="1178.0" y="961.0" fill="#000000" font-size="12">+ GuildDocument : Document</text></g></g><g data-dediren-node-id="datatype-idempotency-container"><rect data-dediren-node-shape="uml_data_type" x="498.0" y="908.0" width="240.0" height="120.0" rx="0" fill="#ffffff" stroke="#000000" stroke-width="1.25"/><g data-dediren-node-decorator="uml_data_type"><line x1="498.0" y1="946.0" x2="738.0" y2="946.0" stroke="#000000" stroke-width="1.25"/><text x="618.0" y="923.0" text-anchor="middle" fill="#000000" font-size="12">&#171;dataType&#187;</text><text x="618.0" y="938.0" text-anchor="middle" fill="#000000" font-size="12">idempotency container</text><text x="506.0" y="961.0" fill="#000000" font-size="12">+ ReplayRecord : Document</text></g></g><g data-dediren-node-id="datatype-wow-reference-blobs"><rect data-dediren-node-shape="uml_data_type" x="1160.0" y="562.0" width="300.0" height="120.0" rx="0" fill="#ffffff" stroke="#000000" stroke-width="1.25"/><g data-dediren-node-decorator="uml_data_type"><line x1="1160.0" y1="600.0" x2="1460.0" y2="600.0" stroke="#000000" stroke-width="1.25"/><text x="1310.0" y="577.0" text-anchor="middle" fill="#000000" font-size="12">&#171;dataType&#187;</text><text x="1310.0" y="592.0" text-anchor="middle" fill="#000000" font-size="12">wow reference blobs</text><text x="1168.0" y="615.0" fill="#000000" font-size="12">+ reference/{kind}/ : Blob prefix</text></g></g><g data-dediren-node-id="datatype-wow-media-cache-blobs"><rect data-dediren-node-shape="uml_data_type" x="1895.0" y="562.0" width="440.0" height="120.0" rx="0" fill="#ffffff" stroke="#000000" stroke-width="1.25"/><g data-dediren-node-decorator="uml_data_type"><line x1="1895.0" y1="600.0" x2="2335.0" y2="600.0" stroke="#000000" stroke-width="1.25"/><text x="2115.0" y="577.0" text-anchor="middle" fill="#000000" font-size="12">&#171;dataType&#187;</text><text x="2115.0" y="592.0" text-anchor="middle" fill="#000000" font-size="12">wow media-cache blobs</text><text x="1903.0" y="615.0" fill="#000000" font-size="12">+ media-cache/render/{sha256}.{ext} : Blob prefix</text><text x="1903.0" y="629.0" fill="#000000" font-size="12">+ ContentType : image/*</text></g></g><g data-dediren-node-id="datatype-data-protection-key-ring"><rect data-dediren-node-shape="uml_data_type" x="133.8" y="1254.0" width="280.0" height="120.0" rx="0" fill="#ffffff" stroke="#000000" stroke-width="1.25"/><g data-dediren-node-decorator="uml_data_type"><line x1="133.8" y1="1292.0" x2="413.8" y2="1292.0" stroke="#000000" stroke-width="1.25"/><text x="273.8" y="1269.0" text-anchor="middle" fill="#000000" font-size="12">&#171;dataType&#187;</text><text x="273.8" y="1284.0" text-anchor="middle" fill="#000000" font-size="12">data-protection key ring blob</text><text x="141.8" y="1307.0" fill="#000000" font-size="12">- key ring : Blob</text></g></g><g data-dediren-node-id="datatype-deployments-container"><rect data-dediren-node-shape="uml_data_type" x="2431.0" y="562.0" width="280.0" height="120.0" rx="0" fill="#ffffff" stroke="#000000" stroke-width="1.25"/><g data-dediren-node-decorator="uml_data_type"><line x1="2431.0" y1="600.0" x2="2711.0" y2="600.0" stroke="#000000" stroke-width="1.25"/><text x="2571.0" y="577.0" text-anchor="middle" fill="#000000" font-size="12">&#171;dataType&#187;</text><text x="2571.0" y="592.0" text-anchor="middle" fill="#000000" font-size="12">deployments blob container</text><text x="2439.0" y="615.0" fill="#000000" font-size="12">- deployment artifacts : Blob</text></g></g><g data-dediren-node-id="datatype-data-protection-key"><rect data-dediren-node-shape="uml_data_type" x="62.0" y="908.0" width="340.0" height="120.0" rx="0" fill="#ffffff" stroke="#000000" stroke-width="1.25"/><g data-dediren-node-decorator="uml_data_type"><line x1="62.0" y1="946.0" x2="402.0" y2="946.0" stroke="#000000" stroke-width="1.25"/><text x="232.0" y="923.0" text-anchor="middle" fill="#000000" font-size="12">&#171;dataType&#187;</text><text x="232.0" y="938.0" text-anchor="middle" fill="#000000" font-size="12">Data Protection key</text><text x="70.0" y="961.0" fill="#000000" font-size="12">- versionless key URI : Key Vault key</text></g></g></g></svg>
