<svg xmlns="http://www.w3.org/2000/svg" width="2888" height="1490" viewBox="-20.0 -20.0 2888.0 1490.0"><rect x="-20.0" y="-20.0" width="2888.0" height="1490.0" fill="#ffffff"/><style>g.dediren-edge-highlighted &gt; path{stroke:#1f6feb;stroke-width:3;}</style><g font-family="Inter, Arial, sans-serif" font-size="14"><g data-dediren-edge-id="data-database-composes-runs" data-dediren-edge-source="datatype-cosmos-database" data-dediren-edge-target="datatype-runs-container"><marker id="marker-start-data-database-composes-runs" data-dediren-edge-marker-start="filled_diamond" markerWidth="10" markerHeight="10" refX="5" refY="5" orient="auto"><path d="M 1 5 L 5 1 L 9 5 L 5 9 Z" fill="#000000" stroke="#000000" stroke-width="1"/></marker><path d="M 1214.0 715.0 L 1214.0 971.0" fill="none" stroke="#000000" stroke-width="1.25" stroke-linecap="round" stroke-linejoin="round" marker-start="url(#marker-start-data-database-composes-runs)"/><text x="1208.0" y="843.0" text-anchor="end" fill="none" font-size="15.4" font-weight="600" stroke="#ffffff" stroke-width="2">container</text><text x="1208.0" y="843.0" text-anchor="end" fill="#000000" font-size="15.4" font-weight="600">container</text></g><g data-dediren-edge-id="data-database-composes-raiders" data-dediren-edge-source="datatype-cosmos-database" data-dediren-edge-target="datatype-raiders-container"><marker id="marker-start-data-database-composes-raiders" data-dediren-edge-marker-start="filled_diamond" markerWidth="10" markerHeight="10" refX="5" refY="5" orient="auto"><path d="M 1 5 L 5 1 L 9 5 L 5 9 Z" fill="#000000" stroke="#000000" stroke-width="1"/></marker><path d="M 1214.0 715.0 L 1214.0 771.0 Q 1214.0 779.0 1222.0 779.0 L 1552.0 779.0 Q 1560.0 779.0 1560.0 787.0 L 1560.0 971.0" fill="none" stroke="#000000" stroke-width="1.25" stroke-linecap="round" stroke-linejoin="round" marker-start="url(#marker-start-data-database-composes-raiders)"/><text x="1387.0" y="797.0" text-anchor="middle" fill="none" font-size="15.4" font-weight="600" stroke="#ffffff" stroke-width="2">container</text><text x="1387.0" y="797.0" text-anchor="middle" fill="#000000" font-size="15.4" font-weight="600">container</text></g><g data-dediren-edge-id="data-database-composes-guilds" data-dediren-edge-source="datatype-cosmos-database" data-dediren-edge-target="datatype-guilds-container"><marker id="marker-start-data-database-composes-guilds" data-dediren-edge-marker-start="filled_diamond" markerWidth="10" markerHeight="10" refX="5" refY="5" orient="auto"><path d="M 1 5 L 5 1 L 9 5 L 5 9 Z" fill="#000000" stroke="#000000" stroke-width="1"/></marker><path d="M 1214.0 715.0 L 1214.0 771.0 Q 1214.0 779.0 1222.0 779.0 L 1898.0 779.0 Q 1906.0 779.0 1906.0 787.0 L 1906.0 971.0" fill="none" stroke="#000000" stroke-width="1.25" stroke-linecap="round" stroke-linejoin="round" marker-start="url(#marker-start-data-database-composes-guilds)"/><text x="1560.0" y="797.0" text-anchor="middle" fill="none" font-size="15.4" font-weight="600" stroke="#ffffff" stroke-width="2">container</text><text x="1560.0" y="797.0" text-anchor="middle" fill="#000000" font-size="15.4" font-weight="600">container</text></g><g data-dediren-edge-id="data-database-composes-idempotency" data-dediren-edge-source="datatype-cosmos-database" data-dediren-edge-target="datatype-idempotency-container"><marker id="marker-start-data-database-composes-idempotency" data-dediren-edge-marker-start="filled_diamond" markerWidth="10" markerHeight="10" refX="5" refY="5" orient="auto"><path d="M 1 5 L 5 1 L 9 5 L 5 9 Z" fill="#000000" stroke="#000000" stroke-width="1"/></marker><path d="M 1214.0 715.0 L 1214.0 771.0 Q 1214.0 779.0 1222.0 779.0 L 2234.0 779.0 Q 2242.0 779.0 2242.0 787.0 L 2242.0 971.0" fill="none" stroke="#000000" stroke-width="1.25" stroke-linecap="round" stroke-linejoin="round" marker-start="url(#marker-start-data-database-composes-idempotency)"/><text x="1728.0" y="797.0" text-anchor="middle" fill="none" font-size="15.4" font-weight="600" stroke="#ffffff" stroke-width="2">container</text><text x="1728.0" y="797.0" text-anchor="middle" fill="#000000" font-size="15.4" font-weight="600">container</text></g><g data-dediren-edge-id="data-identity-reads-cosmos" data-dediren-edge-source="interface-managed-identity" data-dediren-edge-target="datatype-cosmos-database"><marker id="marker-end-data-identity-reads-cosmos" data-dediren-edge-marker-end="open_arrow" markerWidth="10" markerHeight="10" refX="5" refY="5" orient="auto"><path d="M 1 1 L 9 5 L 1 9" fill="none" stroke="#000000" stroke-width="1.5"/></marker><path d="M 192.0 273.0 L 192.0 329.0 Q 192.0 337.0 200.0 337.0 L 1206.0 337.0 Q 1214.0 337.0 1214.0 345.0 L 1214.0 593.0" fill="none" stroke="#000000" stroke-width="1.25" stroke-linecap="round" stroke-linejoin="round" stroke-dasharray="8 5" marker-end="url(#marker-end-data-identity-reads-cosmos)"/><text x="703.0" y="355.0" text-anchor="middle" fill="none" font-size="15.4" font-weight="600" stroke="#ffffff" stroke-width="2">Data Contributor</text><text x="703.0" y="355.0" text-anchor="middle" fill="#000000" font-size="15.4" font-weight="600">Data Contributor</text></g><g data-dediren-edge-id="data-identity-reads-blobs" data-dediren-edge-source="interface-managed-identity" data-dediren-edge-target="datatype-wow-reference-blobs"><marker id="marker-end-data-identity-reads-blobs" data-dediren-edge-marker-end="open_arrow" markerWidth="10" markerHeight="10" refX="5" refY="5" orient="auto"><path d="M 1 1 L 9 5 L 1 9" fill="none" stroke="#000000" stroke-width="1.5"/></marker><path d="M 192.0 273.0 L 192.0 329.0 Q 192.0 337.0 200.0 337.0 L 1516.8 337.0 Q 1524.8 337.0 1524.8 345.0 L 1524.8 593.0" fill="none" stroke="#000000" stroke-width="1.25" stroke-linecap="round" stroke-linejoin="round" stroke-dasharray="8 5" marker-end="url(#marker-end-data-identity-reads-blobs)"/><text x="858.4" y="355.0" text-anchor="middle" fill="none" font-size="15.4" font-weight="600" stroke="#ffffff" stroke-width="2">Blob roles</text><text x="858.4" y="355.0" text-anchor="middle" fill="#000000" font-size="15.4" font-weight="600">Blob roles</text></g><g data-dediren-edge-id="data-identity-reads-media-cache" data-dediren-edge-source="interface-managed-identity" data-dediren-edge-target="datatype-wow-media-cache-blobs"><marker id="marker-end-data-identity-reads-media-cache" data-dediren-edge-marker-end="open_arrow" markerWidth="10" markerHeight="10" refX="5" refY="5" orient="auto"><path d="M 1 1 L 9 5 L 1 9" fill="none" stroke="#000000" stroke-width="1.5"/></marker><path d="M 192.0 273.0 L 192.0 329.0 Q 192.0 337.0 200.0 337.0 L 1959.5 337.0 Q 1967.5 337.0 1967.5 345.0 L 1967.5 593.0" fill="none" stroke="#000000" stroke-width="1.25" stroke-linecap="round" stroke-linejoin="round" stroke-dasharray="8 5" marker-end="url(#marker-end-data-identity-reads-media-cache)"/><text x="1079.8" y="355.0" text-anchor="middle" fill="none" font-size="15.4" font-weight="600" stroke="#ffffff" stroke-width="2">Blob roles</text><text x="1079.8" y="355.0" text-anchor="middle" fill="#000000" font-size="15.4" font-weight="600">Blob roles</text></g><g data-dediren-edge-id="data-identity-uses-key-vault" data-dediren-edge-source="interface-managed-identity" data-dediren-edge-target="interface-key-vault-secrets"><marker id="marker-end-data-identity-uses-key-vault" data-dediren-edge-marker-end="open_arrow" markerWidth="10" markerHeight="10" refX="5" refY="5" orient="auto"><path d="M 1 1 L 9 5 L 1 9" fill="none" stroke="#000000" stroke-width="1.5"/></marker><path d="M 192.0 273.0 L 192.0 329.0 Q 192.0 337.0 200.0 337.0 L 680.0 337.0 Q 688.0 337.0 688.0 345.0 L 688.0 593.0" fill="none" stroke="#000000" stroke-width="1.25" stroke-linecap="round" stroke-linejoin="round" stroke-dasharray="8 5" marker-end="url(#marker-end-data-identity-uses-key-vault)"/><text x="440.0" y="355.0" text-anchor="middle" fill="none" font-size="15.4" font-weight="600" stroke="#ffffff" stroke-width="2">Secrets User</text><text x="440.0" y="355.0" text-anchor="middle" fill="#000000" font-size="15.4" font-weight="600">Secrets User</text></g><g data-dediren-edge-id="data-key-vault-composes-key" data-dediren-edge-source="interface-key-vault-secrets" data-dediren-edge-target="datatype-data-protection-key"><marker id="marker-start-data-key-vault-composes-key" data-dediren-edge-marker-start="filled_diamond" markerWidth="10" markerHeight="10" refX="5" refY="5" orient="auto"><path d="M 1 5 L 5 1 L 9 5 L 5 9 Z" fill="#000000" stroke="#000000" stroke-width="1"/></marker><path d="M 688.0 715.0 L 688.0 971.0" fill="none" stroke="#000000" stroke-width="1.25" stroke-linecap="round" stroke-linejoin="round" marker-start="url(#marker-start-data-key-vault-composes-key)"/><text x="682.0" y="843.0" text-anchor="end" fill="none" font-size="15.4" font-weight="600" stroke="#ffffff" stroke-width="2">key</text><text x="682.0" y="843.0" text-anchor="end" fill="#000000" font-size="15.4" font-weight="600">key</text></g><g data-dediren-edge-id="data-key-wraps-ring" data-dediren-edge-source="datatype-data-protection-key" data-dediren-edge-target="datatype-data-protection-key-ring"><marker id="marker-end-data-key-wraps-ring" data-dediren-edge-marker-end="open_arrow" markerWidth="10" markerHeight="10" refX="5" refY="5" orient="auto"><path d="M 1 1 L 9 5 L 1 9" fill="none" stroke="#000000" stroke-width="1.5"/></marker><path d="M 739.8 1093.0 L 739.8 1245.0 Q 739.8 1253.0 747.8 1253.0 L 2625.3 1253.0 Q 2633.3 1253.0 2633.3 1261.0 L 2633.3 1317.0" fill="none" stroke="#000000" stroke-width="1.25" stroke-linecap="round" stroke-linejoin="round" stroke-dasharray="8 5" marker-end="url(#marker-end-data-key-wraps-ring)"/><text x="1686.5" y="1271.0" text-anchor="middle" fill="none" font-size="15.4" font-weight="600" stroke="#ffffff" stroke-width="2">wraps</text><text x="1686.5" y="1271.0" text-anchor="middle" fill="#000000" font-size="15.4" font-weight="600">wraps</text></g><g data-dediren-edge-id="data-storage-holds-reference" data-dediren-edge-source="interface-storage-data-plane" data-dediren-edge-target="datatype-wow-reference-blobs"><marker id="marker-start-data-storage-holds-reference" data-dediren-edge-marker-start="filled_diamond" markerWidth="10" markerHeight="10" refX="5" refY="5" orient="auto"><path d="M 1 5 L 5 1 L 9 5 L 5 9 Z" fill="#000000" stroke="#000000" stroke-width="1"/></marker><g data-dediren-line-jump-masks="data-storage-holds-reference"><path d="M 1615.2 331.0 Q 1621.2 337.0 1615.2 343.0" fill="none" stroke="#ffffff" stroke-width="6"/></g><path d="M 1615.2 273.0 L 1615.2 331.0 Q 1621.2 337.0 1615.2 343.0 L 1615.2 593.0" fill="none" stroke="#000000" stroke-width="1.25" stroke-linecap="round" stroke-linejoin="round" marker-start="url(#marker-start-data-storage-holds-reference)"/><text x="1609.2" y="433.0" text-anchor="end" fill="none" font-size="15.4" font-weight="600" stroke="#ffffff" stroke-width="2">blob prefix</text><text x="1609.2" y="433.0" text-anchor="end" fill="#000000" font-size="15.4" font-weight="600">blob prefix</text></g><g data-dediren-edge-id="data-storage-holds-media-cache" data-dediren-edge-source="interface-storage-data-plane" data-dediren-edge-target="datatype-wow-media-cache-blobs"><marker id="marker-start-data-storage-holds-media-cache" data-dediren-edge-marker-start="filled_diamond" markerWidth="10" markerHeight="10" refX="5" refY="5" orient="auto"><path d="M 1 5 L 5 1 L 9 5 L 5 9 Z" fill="#000000" stroke="#000000" stroke-width="1"/></marker><g data-dediren-line-jump-masks="data-storage-holds-media-cache"><path d="M 1615.2 331.0 Q 1621.2 337.0 1615.2 343.0" fill="none" stroke="#ffffff" stroke-width="6"/><path d="M 1961.5 401.0 Q 1967.5 395.0 1973.5 401.0" fill="none" stroke="#ffffff" stroke-width="6"/></g><path d="M 1615.2 273.0 L 1615.2 331.0 Q 1621.2 337.0 1615.2 343.0 L 1615.2 393.0 Q 1615.2 401.0 1623.2 401.0 L 1961.5 401.0 Q 1967.5 395.0 1973.5 401.0 L 2027.5 401.0 Q 2035.5 401.0 2035.5 409.0 L 2035.5 521.0 Q 2035.5 529.0 2043.5 529.0 L 2096.5 529.0 Q 2104.5 529.0 2104.5 537.0 L 2104.5 593.0" fill="none" stroke="#000000" stroke-width="1.25" stroke-linecap="round" stroke-linejoin="round" marker-start="url(#marker-start-data-storage-holds-media-cache)"/><text x="2070.0" y="547.0" text-anchor="middle" fill="none" font-size="15.4" font-weight="600" stroke="#ffffff" stroke-width="2">blob prefix</text><text x="2070.0" y="547.0" text-anchor="middle" fill="#000000" font-size="15.4" font-weight="600">blob prefix</text></g><g data-dediren-edge-id="data-storage-holds-key-ring" data-dediren-edge-source="interface-storage-data-plane" data-dediren-edge-target="datatype-data-protection-key-ring"><marker id="marker-start-data-storage-holds-key-ring" data-dediren-edge-marker-start="filled_diamond" markerWidth="10" markerHeight="10" refX="5" refY="5" orient="auto"><path d="M 1 5 L 5 1 L 9 5 L 5 9 Z" fill="#000000" stroke="#000000" stroke-width="1"/></marker><g data-dediren-line-jump-masks="data-storage-holds-key-ring"><path d="M 1615.2 331.0 Q 1621.2 337.0 1615.2 343.0" fill="none" stroke="#ffffff" stroke-width="6"/><path d="M 1961.5 401.0 Q 1967.5 395.0 1973.5 401.0" fill="none" stroke="#ffffff" stroke-width="6"/></g><path d="M 1615.2 273.0 L 1615.2 331.0 Q 1621.2 337.0 1615.2 343.0 L 1615.2 393.0 Q 1615.2 401.0 1623.2 401.0 L 1961.5 401.0 Q 1967.5 395.0 1973.5 401.0 L 2688.0 401.0 Q 2696.0 401.0 2696.0 409.0 L 2696.0 465.0 L 2696.0 654.0 L 2696.0 1032.0 L 2696.0 1189.0 L 2696.0 1317.0" fill="none" stroke="#000000" stroke-width="1.25" stroke-linecap="round" stroke-linejoin="round" marker-start="url(#marker-start-data-storage-holds-key-ring)"/><text x="2155.6" y="419.0" text-anchor="middle" fill="none" font-size="15.4" font-weight="600" stroke="#ffffff" stroke-width="2">blob container</text><text x="2155.6" y="419.0" text-anchor="middle" fill="#000000" font-size="15.4" font-weight="600">blob container</text></g><g data-dediren-edge-id="data-storage-holds-deployments" data-dediren-edge-source="interface-storage-data-plane" data-dediren-edge-target="datatype-deployments-container"><marker id="marker-start-data-storage-holds-deployments" data-dediren-edge-marker-start="filled_diamond" markerWidth="10" markerHeight="10" refX="5" refY="5" orient="auto"><path d="M 1 5 L 5 1 L 9 5 L 5 9 Z" fill="#000000" stroke="#000000" stroke-width="1"/></marker><g data-dediren-line-jump-masks="data-storage-holds-deployments"><path d="M 1615.2 331.0 Q 1621.2 337.0 1615.2 343.0" fill="none" stroke="#ffffff" stroke-width="6"/><path d="M 1961.5 401.0 Q 1967.5 395.0 1973.5 401.0" fill="none" stroke="#ffffff" stroke-width="6"/></g><path d="M 1615.2 273.0 L 1615.2 331.0 Q 1621.2 337.0 1615.2 343.0 L 1615.2 393.0 Q 1615.2 401.0 1623.2 401.0 L 1961.5 401.0 Q 1967.5 395.0 1973.5 401.0 L 2484.0 401.0 Q 2492.0 401.0 2492.0 409.0 L 2492.0 593.0" fill="none" stroke="#000000" stroke-width="1.25" stroke-linecap="round" stroke-linejoin="round" marker-start="url(#marker-start-data-storage-holds-deployments)"/><text x="2474.0" y="419.0" text-anchor="middle" fill="none" font-size="15.4" font-weight="600" stroke="#ffffff" stroke-width="2">blob container</text><text x="2474.0" y="419.0" text-anchor="middle" fill="#000000" font-size="15.4" font-weight="600">blob container</text></g><g data-dediren-edge-id="data-identity-publishes-telemetry" data-dediren-edge-source="interface-managed-identity" data-dediren-edge-target="interface-telemetry-ingestion"><marker id="marker-end-data-identity-publishes-telemetry" data-dediren-edge-marker-end="open_arrow" markerWidth="10" markerHeight="10" refX="5" refY="5" orient="auto"><path d="M 1 1 L 9 5 L 1 9" fill="none" stroke="#000000" stroke-width="1.5"/></marker><path d="M 192.0 273.0 L 192.0 593.0" fill="none" stroke="#000000" stroke-width="1.25" stroke-linecap="round" stroke-linejoin="round" stroke-dasharray="8 5" marker-end="url(#marker-end-data-identity-publishes-telemetry)"/><text x="186.0" y="433.0" text-anchor="end" fill="none" font-size="15.4" font-weight="600" stroke="#ffffff" stroke-width="2">Metrics Publisher</text><text x="186.0" y="433.0" text-anchor="end" fill="#000000" font-size="15.4" font-weight="600">Metrics Publisher</text></g><g data-dediren-edge-id="data-identity-crypto-key" data-dediren-edge-source="interface-managed-identity" data-dediren-edge-target="datatype-data-protection-key"><marker id="marker-end-data-identity-crypto-key" data-dediren-edge-marker-end="open_arrow" markerWidth="10" markerHeight="10" refX="5" refY="5" orient="auto"><path d="M 1 1 L 9 5 L 1 9" fill="none" stroke="#000000" stroke-width="1.5"/></marker><path d="M 192.0 273.0 L 192.0 329.0 Q 192.0 337.0 200.0 337.0 L 999.0 337.0 Q 1007.0 337.0 1007.0 345.0 L 1007.0 465.0 L 1007.0 843.0 L 1007.0 899.0 Q 1007.0 907.0 999.0 907.0 L 799.7 907.0 Q 791.7 907.0 791.7 915.0 L 791.7 971.0" fill="none" stroke="#000000" stroke-width="1.25" stroke-linecap="round" stroke-linejoin="round" stroke-dasharray="8 5" marker-end="url(#marker-end-data-identity-crypto-key)"/><text x="899.3" y="925.0" text-anchor="middle" fill="none" font-size="15.4" font-weight="600" stroke="#ffffff" stroke-width="2">Crypto User</text><text x="899.3" y="925.0" text-anchor="middle" fill="#000000" font-size="15.4" font-weight="600">Crypto User</text></g><g data-dediren-edge-id="data-identity-writes-key-ring" data-dediren-edge-source="interface-managed-identity" data-dediren-edge-target="datatype-data-protection-key-ring"><marker id="marker-end-data-identity-writes-key-ring" data-dediren-edge-marker-end="open_arrow" markerWidth="10" markerHeight="10" refX="5" refY="5" orient="auto"><path d="M 1 1 L 9 5 L 1 9" fill="none" stroke="#000000" stroke-width="1.5"/></marker><g data-dediren-line-jump-masks="data-identity-writes-key-ring"><path d="M 1609.2 337.0 Q 1615.2 331.0 1621.2 337.0" fill="none" stroke="#ffffff" stroke-width="6"/></g><path d="M 192.0 273.0 L 192.0 329.0 Q 192.0 337.0 200.0 337.0 L 1609.2 337.0 Q 1615.2 331.0 1621.2 337.0 L 2756.0 337.0 Q 2764.0 337.0 2764.0 345.0 L 2764.0 465.0 L 2764.0 654.0 L 2764.0 1032.0 L 2764.0 1189.0 L 2764.0 1250.4 Q 2764.0 1253.0 2761.4 1253.0 L 2761.4 1253.0 Q 2758.8 1253.0 2758.8 1255.6 L 2758.8 1317.0" fill="none" stroke="#000000" stroke-width="1.25" stroke-linecap="round" stroke-linejoin="round" stroke-dasharray="8 5" marker-end="url(#marker-end-data-identity-writes-key-ring)"/><text x="2761.4" y="1271.0" text-anchor="middle" fill="none" font-size="15.4" font-weight="600" stroke="#ffffff" stroke-width="2">Blob Contributor</text><text x="2761.4" y="1271.0" text-anchor="middle" fill="#000000" font-size="15.4" font-weight="600">Blob Contributor</text></g><g data-dediren-node-id="datatype-cosmos-database"><rect data-dediren-node-shape="uml_data_type" x="1104.0" y="594.0" width="220.0" height="120.0" rx="0" fill="#ffffff" stroke="#000000" stroke-width="1.25"/><g data-dediren-node-decorator="uml_data_type"><line x1="1104.0" y1="632.0" x2="1324.0" y2="632.0" stroke="#000000" stroke-width="1.25"/><text x="1214.0" y="609.0" text-anchor="middle" fill="#000000" font-size="12">&#171;dataType&#187;</text><text x="1214.0" y="624.0" text-anchor="middle" fill="#000000" font-size="12">Cosmos SQL database</text><text x="1112.0" y="647.0" fill="#000000" font-size="12">+ DatabaseName : String</text></g></g><g data-dediren-node-id="datatype-data-protection-key"><rect data-dediren-node-shape="uml_data_type" x="569.8" y="972.0" width="340.0" height="120.0" rx="0" fill="#ffffff" stroke="#000000" stroke-width="1.25"/><g data-dediren-node-decorator="uml_data_type"><line x1="569.8" y1="1010.0" x2="909.8" y2="1010.0" stroke="#000000" stroke-width="1.25"/><text x="739.8" y="987.0" text-anchor="middle" fill="#000000" font-size="12">&#171;dataType&#187;</text><text x="739.8" y="1002.0" text-anchor="middle" fill="#000000" font-size="12">Data Protection key</text><text x="577.8" y="1025.0" fill="#000000" font-size="12">- versionless key URI : Key Vault key</text></g></g><g data-dediren-node-id="datatype-data-protection-key-ring"><rect data-dediren-node-shape="uml_data_type" x="2556.0" y="1318.0" width="280.0" height="120.0" rx="0" fill="#ffffff" stroke="#000000" stroke-width="1.25"/><g data-dediren-node-decorator="uml_data_type"><line x1="2556.0" y1="1356.0" x2="2836.0" y2="1356.0" stroke="#000000" stroke-width="1.25"/><text x="2696.0" y="1333.0" text-anchor="middle" fill="#000000" font-size="12">&#171;dataType&#187;</text><text x="2696.0" y="1348.0" text-anchor="middle" fill="#000000" font-size="12">data-protection key ring blob</text><text x="2564.0" y="1371.0" fill="#000000" font-size="12">- key ring : Blob</text></g></g><g data-dediren-node-id="datatype-deployments-container"><rect data-dediren-node-shape="uml_data_type" x="2352.0" y="594.0" width="280.0" height="120.0" rx="0" fill="#ffffff" stroke="#000000" stroke-width="1.25"/><g data-dediren-node-decorator="uml_data_type"><line x1="2352.0" y1="632.0" x2="2632.0" y2="632.0" stroke="#000000" stroke-width="1.25"/><text x="2492.0" y="609.0" text-anchor="middle" fill="#000000" font-size="12">&#171;dataType&#187;</text><text x="2492.0" y="624.0" text-anchor="middle" fill="#000000" font-size="12">deployments blob container</text><text x="2360.0" y="647.0" fill="#000000" font-size="12">- deployment artifacts : Blob</text></g></g><g data-dediren-node-id="datatype-guilds-container"><rect data-dediren-node-shape="uml_data_type" x="1786.0" y="972.0" width="240.0" height="120.0" rx="0" fill="#ffffff" stroke="#000000" stroke-width="1.25"/><g data-dediren-node-decorator="uml_data_type"><line x1="1786.0" y1="1010.0" x2="2026.0" y2="1010.0" stroke="#000000" stroke-width="1.25"/><text x="1906.0" y="987.0" text-anchor="middle" fill="#000000" font-size="12">&#171;dataType&#187;</text><text x="1906.0" y="1002.0" text-anchor="middle" fill="#000000" font-size="12">guilds container</text><text x="1794.0" y="1025.0" fill="#000000" font-size="12">+ GuildDocument : Document</text></g></g><g data-dediren-node-id="datatype-idempotency-container"><rect data-dediren-node-shape="uml_data_type" x="2122.0" y="972.0" width="240.0" height="120.0" rx="0" fill="#ffffff" stroke="#000000" stroke-width="1.25"/><g data-dediren-node-decorator="uml_data_type"><line x1="2122.0" y1="1010.0" x2="2362.0" y2="1010.0" stroke="#000000" stroke-width="1.25"/><text x="2242.0" y="987.0" text-anchor="middle" fill="#000000" font-size="12">&#171;dataType&#187;</text><text x="2242.0" y="1002.0" text-anchor="middle" fill="#000000" font-size="12">idempotency container</text><text x="2130.0" y="1025.0" fill="#000000" font-size="12">+ ReplayRecord : Document</text></g></g><g data-dediren-node-id="datatype-raiders-container"><rect data-dediren-node-shape="uml_data_type" x="1430.0" y="972.0" width="260.0" height="120.0" rx="0" fill="#ffffff" stroke="#000000" stroke-width="1.25"/><g data-dediren-node-decorator="uml_data_type"><line x1="1430.0" y1="1010.0" x2="1690.0" y2="1010.0" stroke="#000000" stroke-width="1.25"/><text x="1560.0" y="987.0" text-anchor="middle" fill="#000000" font-size="12">&#171;dataType&#187;</text><text x="1560.0" y="1002.0" text-anchor="middle" fill="#000000" font-size="12">raiders container</text><text x="1438.0" y="1025.0" fill="#000000" font-size="12">+ RaiderDocument : Document</text></g></g><g data-dediren-node-id="datatype-runs-container"><rect data-dediren-node-shape="uml_data_type" x="1094.0" y="972.0" width="240.0" height="120.0" rx="0" fill="#ffffff" stroke="#000000" stroke-width="1.25"/><g data-dediren-node-decorator="uml_data_type"><line x1="1094.0" y1="1010.0" x2="1334.0" y2="1010.0" stroke="#000000" stroke-width="1.25"/><text x="1214.0" y="987.0" text-anchor="middle" fill="#000000" font-size="12">&#171;dataType&#187;</text><text x="1214.0" y="1002.0" text-anchor="middle" fill="#000000" font-size="12">runs container</text><text x="1102.0" y="1025.0" fill="#000000" font-size="12">+ RunDocument : Document</text></g></g><g data-dediren-node-id="datatype-wow-media-cache-blobs"><rect data-dediren-node-shape="uml_data_type" x="1816.0" y="594.0" width="440.0" height="120.0" rx="0" fill="#ffffff" stroke="#000000" stroke-width="1.25"/><g data-dediren-node-decorator="uml_data_type"><line x1="1816.0" y1="632.0" x2="2256.0" y2="632.0" stroke="#000000" stroke-width="1.25"/><text x="2036.0" y="609.0" text-anchor="middle" fill="#000000" font-size="12">&#171;dataType&#187;</text><text x="2036.0" y="624.0" text-anchor="middle" fill="#000000" font-size="12">wow media-cache blobs</text><text x="1824.0" y="647.0" fill="#000000" font-size="12">+ media-cache/render/{sha256}.{ext} : Blob prefix</text><text x="1824.0" y="661.0" fill="#000000" font-size="12">+ ContentType : image/*</text></g></g><g data-dediren-node-id="datatype-wow-reference-blobs"><rect data-dediren-node-shape="uml_data_type" x="1420.0" y="594.0" width="300.0" height="120.0" rx="0" fill="#ffffff" stroke="#000000" stroke-width="1.25"/><g data-dediren-node-decorator="uml_data_type"><line x1="1420.0" y1="632.0" x2="1720.0" y2="632.0" stroke="#000000" stroke-width="1.25"/><text x="1570.0" y="609.0" text-anchor="middle" fill="#000000" font-size="12">&#171;dataType&#187;</text><text x="1570.0" y="624.0" text-anchor="middle" fill="#000000" font-size="12">wow reference blobs</text><text x="1428.0" y="647.0" fill="#000000" font-size="12">+ reference/{kind}/ : Blob prefix</text></g></g><g data-dediren-node-id="interface-cosmos-data-plane"><rect data-dediren-node-shape="uml_interface" x="12.0" y="12.0" width="320.0" height="120.0" rx="0" fill="#ffffff" stroke="#000000" stroke-width="1.25"/><g data-dediren-node-decorator="uml_interface"><line x1="12.0" y1="50.0" x2="332.0" y2="50.0" stroke="#000000" stroke-width="1.25"/><line x1="12.0" y1="50.0" x2="332.0" y2="50.0" stroke="#000000" stroke-width="1.25"/><text x="172.0" y="27.0" text-anchor="middle" fill="#000000" font-size="12">&#171;interface&#187;</text><text x="172.0" y="42.0" text-anchor="middle" fill="#000000" font-size="12">Cosmos DB data plane</text><text x="20.0" y="65.0" fill="#000000" font-size="12">+ read/write documents() : Documents</text></g></g><g data-dediren-node-id="interface-key-vault-secrets"><rect data-dediren-node-shape="uml_interface" x="468.0" y="594.0" width="440.0" height="120.0" rx="0" fill="#ffffff" stroke="#000000" stroke-width="1.25"/><g data-dediren-node-decorator="uml_interface"><line x1="468.0" y1="632.0" x2="908.0" y2="632.0" stroke="#000000" stroke-width="1.25"/><line x1="468.0" y1="632.0" x2="908.0" y2="632.0" stroke="#000000" stroke-width="1.25"/><text x="688.0" y="609.0" text-anchor="middle" fill="#000000" font-size="12">&#171;interface&#187;</text><text x="688.0" y="624.0" text-anchor="middle" fill="#000000" font-size="12">Key Vault secrets and keys</text><text x="476.0" y="647.0" fill="#000000" font-size="12">+ unwrap keys and read refs() : Secret/key material</text></g></g><g data-dediren-node-id="interface-managed-identity"><rect data-dediren-node-shape="uml_interface" x="22.0" y="152.0" width="340.0" height="120.0" rx="0" fill="#ffffff" stroke="#000000" stroke-width="1.25"/><g data-dediren-node-decorator="uml_interface"><line x1="22.0" y1="190.0" x2="362.0" y2="190.0" stroke="#000000" stroke-width="1.25"/><line x1="22.0" y1="190.0" x2="362.0" y2="190.0" stroke="#000000" stroke-width="1.25"/><text x="192.0" y="167.0" text-anchor="middle" fill="#000000" font-size="12">&#171;interface&#187;</text><text x="192.0" y="182.0" text-anchor="middle" fill="#000000" font-size="12">Managed identity</text><text x="30.0" y="205.0" fill="#000000" font-size="12">+ request Azure token() : Access token</text></g></g><g data-dediren-node-id="interface-storage-data-plane"><rect data-dediren-node-shape="uml_interface" x="1455.2" y="152.0" width="320.0" height="120.0" rx="0" fill="#ffffff" stroke="#000000" stroke-width="1.25"/><g data-dediren-node-decorator="uml_interface"><line x1="1455.2" y1="190.0" x2="1775.2" y2="190.0" stroke="#000000" stroke-width="1.25"/><line x1="1455.2" y1="190.0" x2="1775.2" y2="190.0" stroke="#000000" stroke-width="1.25"/><text x="1615.2" y="167.0" text-anchor="middle" fill="#000000" font-size="12">&#171;interface&#187;</text><text x="1615.2" y="182.0" text-anchor="middle" fill="#000000" font-size="12">Blob storage data plane</text><text x="1463.2" y="205.0" fill="#000000" font-size="12">+ read/write blobs() : Blob content</text></g></g><g data-dediren-node-id="interface-telemetry-ingestion"><rect data-dediren-node-shape="uml_interface" x="12.0" y="594.0" width="360.0" height="120.0" rx="0" fill="#ffffff" stroke="#000000" stroke-width="1.25"/><g data-dediren-node-decorator="uml_interface"><line x1="12.0" y1="632.0" x2="372.0" y2="632.0" stroke="#000000" stroke-width="1.25"/><line x1="12.0" y1="632.0" x2="372.0" y2="632.0" stroke="#000000" stroke-width="1.25"/><text x="192.0" y="609.0" text-anchor="middle" fill="#000000" font-size="12">&#171;interface&#187;</text><text x="192.0" y="624.0" text-anchor="middle" fill="#000000" font-size="12">Telemetry ingestion</text><text x="20.0" y="647.0" fill="#000000" font-size="12">+ publish telemetry() : Telemetry event</text></g></g></g><script>//<![CDATA[
(function(){
var root=document.currentScript&&document.currentScript.closest?document.currentScript.closest('svg'):null;
if(!root){root=document.querySelector('svg');}
if(!root){return;}
var selected=null;
function clear(){var hl=root.querySelectorAll('.dediren-edge-highlighted');for(var i=0;i<hl.length;i++){hl[i].classList.remove('dediren-edge-highlighted');}selected=null;}
function select(id){clear();var edges=root.querySelectorAll('[data-dediren-edge-source]');for(var i=0;i<edges.length;i++){var e=edges[i];if(e.getAttribute('data-dediren-edge-source')===id||e.getAttribute('data-dediren-edge-target')===id){e.classList.add('dediren-edge-highlighted');}}selected=id;}
root.addEventListener('click',function(ev){var t=ev.target;var n=t.closest?t.closest('[data-dediren-node-id]'):null;if(n){var id=n.getAttribute('data-dediren-node-id');if(id===selected){clear();}else{select(id);}}else{clear();}});
document.addEventListener('keydown',function(ev){if(ev.key==='Escape'){clear();}});
})();
//]]></script></svg>

