<svg xmlns="http://www.w3.org/2000/svg" width="2654" height="1362" viewBox="-20.0 -20.0 2654.0 1362.0"><rect x="-20.0" y="-20.0" width="2654.0" height="1362.0" fill="#ffffff"/><g font-family="Inter, Arial, sans-serif" font-size="14.0"><g data-dediren-edge-id="data-database-composes-runs"><defs><marker id="marker-start-data-database-composes-runs" data-dediren-edge-marker-start="filled_diamond" markerWidth="10" markerHeight="10" refX="1" refY="5" orient="auto" markerUnits="strokeWidth"><path d="M 1 5 L 5 1 L 9 5 L 5 9 z" fill="#000000" stroke="#000000" stroke-width="1.1"/></marker></defs><path d="M 468.0 619.0 L 468.0 675.0 Q 468.0 683.0 476.0 683.0 L 1152.0 683.0 Q 1160.0 683.0 1160.0 691.0 L 1160.0 843.0" fill="none" stroke="#000000" stroke-width="1.25" stroke-linecap="round" stroke-linejoin="round" marker-start="url(#marker-start-data-database-composes-runs)"/><text x="871.1" y="699.8" text-anchor="middle" fill="#000000" stroke="#ffffff" stroke-width="4" stroke-linejoin="round" paint-order="stroke">container</text></g><g data-dediren-edge-id="data-database-composes-raiders"><defs><marker id="marker-start-data-database-composes-raiders" data-dediren-edge-marker-start="filled_diamond" markerWidth="10" markerHeight="10" refX="1" refY="5" orient="auto" markerUnits="strokeWidth"><path d="M 1 5 L 5 1 L 9 5 L 5 9 z" fill="#000000" stroke="#000000" stroke-width="1.1"/></marker></defs><path d="M 468.0 619.0 L 468.0 675.0 Q 468.0 683.0 476.0 683.0 L 806.0 683.0 Q 814.0 683.0 814.0 691.0 L 814.0 843.0" fill="none" stroke="#000000" stroke-width="1.25" stroke-linecap="round" stroke-linejoin="round" marker-start="url(#marker-start-data-database-composes-raiders)"/><text x="641.0" y="699.8" text-anchor="middle" fill="#000000" stroke="#ffffff" stroke-width="4" stroke-linejoin="round" paint-order="stroke">container</text></g><g data-dediren-edge-id="data-database-composes-guilds"><defs><marker id="marker-start-data-database-composes-guilds" data-dediren-edge-marker-start="filled_diamond" markerWidth="10" markerHeight="10" refX="1" refY="5" orient="auto" markerUnits="strokeWidth"><path d="M 1 5 L 5 1 L 9 5 L 5 9 z" fill="#000000" stroke="#000000" stroke-width="1.1"/></marker></defs><path d="M 468.0 619.0 L 468.0 675.0 Q 468.0 683.0 460.0 683.0 L 140.0 683.0 Q 132.0 683.0 132.0 691.0 L 132.0 843.0" fill="none" stroke="#000000" stroke-width="1.25" stroke-linecap="round" stroke-linejoin="round" marker-start="url(#marker-start-data-database-composes-guilds)"/><text x="300.0" y="699.8" text-anchor="middle" fill="#000000" stroke="#ffffff" stroke-width="4" stroke-linejoin="round" paint-order="stroke">container</text></g><g data-dediren-edge-id="data-database-composes-idempotency"><defs><marker id="marker-start-data-database-composes-idempotency" data-dediren-edge-marker-start="filled_diamond" markerWidth="10" markerHeight="10" refX="1" refY="5" orient="auto" markerUnits="strokeWidth"><path d="M 1 5 L 5 1 L 9 5 L 5 9 z" fill="#000000" stroke="#000000" stroke-width="1.1"/></marker></defs><path d="M 468.0 619.0 L 468.0 843.0" fill="none" stroke="#000000" stroke-width="1.25" stroke-linecap="round" stroke-linejoin="round" marker-start="url(#marker-start-data-database-composes-idempotency)"/><text x="465.9" y="735.2" text-anchor="end" fill="#000000" stroke="#ffffff" stroke-width="4" stroke-linejoin="round" paint-order="stroke">container</text></g><g data-dediren-edge-id="data-identity-reads-cosmos"><defs><marker id="marker-end-data-identity-reads-cosmos" data-dediren-edge-marker-end="open_arrow" markerWidth="9" markerHeight="9" refX="8" refY="4.5" orient="auto" markerUnits="strokeWidth"><path d="M 1 1 L 8 4.5 L 1 8" fill="none" stroke="#000000" stroke-width="1.3" stroke-linecap="round" stroke-linejoin="round"/></marker></defs><path d="M 1546.0 273.0 L 1546.0 329.0 Q 1546.0 337.0 1538.0 337.0 L 476.0 337.0 Q 468.0 337.0 468.0 345.0 L 468.0 497.0" fill="none" stroke="#000000" stroke-width="1.25" stroke-linecap="round" stroke-linejoin="round" stroke-dasharray="8 5" marker-end="url(#marker-end-data-identity-reads-cosmos)"/><text x="1007.0" y="353.8" text-anchor="middle" fill="#000000" stroke="#ffffff" stroke-width="4" stroke-linejoin="round" paint-order="stroke">Data Contributor</text></g><g data-dediren-edge-id="data-identity-reads-blobs"><defs><marker id="marker-end-data-identity-reads-blobs" data-dediren-edge-marker-end="open_arrow" markerWidth="9" markerHeight="9" refX="8" refY="4.5" orient="auto" markerUnits="strokeWidth"><path d="M 1 1 L 8 4.5 L 1 8" fill="none" stroke="#000000" stroke-width="1.3" stroke-linecap="round" stroke-linejoin="round"/></marker></defs><path d="M 1546.0 273.0 L 1546.0 329.0 Q 1546.0 337.0 1554.0 337.0 L 1958.8 337.0 Q 1966.8 337.0 1966.8 345.0 L 1966.8 497.0" fill="none" stroke="#000000" stroke-width="1.25" stroke-linecap="round" stroke-linejoin="round" stroke-dasharray="8 5" marker-end="url(#marker-end-data-identity-reads-blobs)"/><text x="1756.4" y="353.8" text-anchor="middle" fill="#000000" stroke="#ffffff" stroke-width="4" stroke-linejoin="round" paint-order="stroke">Blob roles</text></g><g data-dediren-edge-id="data-identity-uses-key-vault"><defs><marker id="marker-end-data-identity-uses-key-vault" data-dediren-edge-marker-end="open_arrow" markerWidth="9" markerHeight="9" refX="8" refY="4.5" orient="auto" markerUnits="strokeWidth"><path d="M 1 1 L 8 4.5 L 1 8" fill="none" stroke="#000000" stroke-width="1.3" stroke-linecap="round" stroke-linejoin="round"/></marker></defs><path d="M 1546.0 273.0 L 1546.0 497.0" fill="none" stroke="#000000" stroke-width="1.25" stroke-linecap="round" stroke-linejoin="round" stroke-dasharray="8 5" marker-end="url(#marker-end-data-identity-uses-key-vault)"/><text x="1543.9" y="389.2" text-anchor="end" fill="#000000" stroke="#ffffff" stroke-width="4" stroke-linejoin="round" paint-order="stroke">Secrets User</text></g><g data-dediren-edge-id="data-key-vault-composes-key"><defs><marker id="marker-start-data-key-vault-composes-key" data-dediren-edge-marker-start="filled_diamond" markerWidth="10" markerHeight="10" refX="1" refY="5" orient="auto" markerUnits="strokeWidth"><path d="M 1 5 L 5 1 L 9 5 L 5 9 z" fill="#000000" stroke="#000000" stroke-width="1.1"/></marker></defs><path d="M 1546.0 619.0 L 1546.0 843.0" fill="none" stroke="#000000" stroke-width="1.25" stroke-linecap="round" stroke-linejoin="round" marker-start="url(#marker-start-data-key-vault-composes-key)"/><text x="1543.9" y="735.2" text-anchor="end" fill="#000000" stroke="#ffffff" stroke-width="4" stroke-linejoin="round" paint-order="stroke">key</text></g><g data-dediren-edge-id="data-key-wraps-ring"><defs><marker id="marker-end-data-key-wraps-ring" data-dediren-edge-marker-end="open_arrow" markerWidth="9" markerHeight="9" refX="8" refY="4.5" orient="auto" markerUnits="strokeWidth"><path d="M 1 1 L 8 4.5 L 1 8" fill="none" stroke="#000000" stroke-width="1.3" stroke-linecap="round" stroke-linejoin="round"/></marker></defs><path d="M 1546.0 965.0 L 1546.0 1189.0" fill="none" stroke="#000000" stroke-width="1.25" stroke-linecap="round" stroke-linejoin="round" stroke-dasharray="8 5" marker-end="url(#marker-end-data-key-wraps-ring)"/><text x="1543.9" y="1081.2" text-anchor="end" fill="#000000" stroke="#ffffff" stroke-width="4" stroke-linejoin="round" paint-order="stroke">wraps</text></g><g data-dediren-edge-id="data-storage-holds-reference"><defs><marker id="marker-start-data-storage-holds-reference" data-dediren-edge-marker-start="filled_diamond" markerWidth="10" markerHeight="10" refX="1" refY="5" orient="auto" markerUnits="strokeWidth"><path d="M 1 5 L 5 1 L 9 5 L 5 9 z" fill="#000000" stroke="#000000" stroke-width="1.1"/></marker></defs><path d="M 2398.0 273.0 L 2398.0 329.0 Q 2398.0 337.0 2390.0 337.0 L 2065.2 337.0 Q 2057.2 337.0 2057.2 345.0 L 2057.2 497.0" fill="none" stroke="#000000" stroke-width="1.25" stroke-linecap="round" stroke-linejoin="round" marker-start="url(#marker-start-data-storage-holds-reference)"/><text x="2227.6" y="353.8" text-anchor="middle" fill="#000000" stroke="#ffffff" stroke-width="4" stroke-linejoin="round" paint-order="stroke">blob container</text></g><g data-dediren-edge-id="data-storage-holds-key-ring"><defs><marker id="marker-start-data-storage-holds-key-ring" data-dediren-edge-marker-start="filled_diamond" markerWidth="10" markerHeight="10" refX="1" refY="5" orient="auto" markerUnits="strokeWidth"><path d="M 1 5 L 5 1 L 9 5 L 5 9 z" fill="#000000" stroke="#000000" stroke-width="1.1"/></marker></defs><path d="M 2398.0 273.0 L 2398.0 329.0 Q 2398.0 337.0 2406.0 337.0 L 2594.0 337.0 Q 2602.0 337.0 2602.0 345.0 L 2602.0 401.0 L 2602.0 558.0 L 2602.0 904.0 L 2602.0 1061.0 L 2602.0 1117.0 Q 2602.0 1125.0 2594.0 1125.0 L 1637.7 1125.0 Q 1629.7 1125.0 1629.7 1133.0 L 1629.7 1189.0" fill="none" stroke="#000000" stroke-width="1.25" stroke-linecap="round" stroke-linejoin="round" marker-start="url(#marker-start-data-storage-holds-key-ring)"/><text x="2115.8" y="1141.8" text-anchor="middle" fill="#000000" stroke="#ffffff" stroke-width="4" stroke-linejoin="round" paint-order="stroke">blob container</text></g><g data-dediren-edge-id="data-storage-holds-deployments"><defs><marker id="marker-start-data-storage-holds-deployments" data-dediren-edge-marker-start="filled_diamond" markerWidth="10" markerHeight="10" refX="1" refY="5" orient="auto" markerUnits="strokeWidth"><path d="M 1 5 L 5 1 L 9 5 L 5 9 z" fill="#000000" stroke="#000000" stroke-width="1.1"/></marker></defs><path d="M 2398.0 273.0 L 2398.0 497.0" fill="none" stroke="#000000" stroke-width="1.25" stroke-linecap="round" stroke-linejoin="round" marker-start="url(#marker-start-data-storage-holds-deployments)"/><text x="2395.9" y="389.2" text-anchor="end" fill="#000000" stroke="#ffffff" stroke-width="4" stroke-linejoin="round" paint-order="stroke">blob container</text></g><g data-dediren-node-id="interface-managed-identity"><rect data-dediren-node-shape="uml_interface" x="1376.0" y="152.0" width="340.0" height="120.0" rx="0" fill="#ffffff" stroke="#000000" stroke-width="1.25"/><g data-dediren-node-decorator="uml_interface"><line x1="1376.0" y1="190.0" x2="1716.0" y2="190.0" stroke="#000000" stroke-width="1.25"/><line x1="1376.0" y1="190.0" x2="1716.0" y2="190.0" stroke="#000000" stroke-width="1.25"/><text x="1546.0" y="167.0" text-anchor="middle" fill="#000000" font-size="12">«interface»</text><text x="1546.0" y="182.0" text-anchor="middle" fill="#000000" font-size="12">Managed identity</text><text x="1384.0" y="205.0" fill="#000000" font-size="12">+ request Azure token() : Access token</text></g></g><g data-dediren-node-id="interface-cosmos-data-plane"><rect data-dediren-node-shape="uml_interface" x="12.0" y="12.0" width="320.0" height="120.0" rx="0" fill="#ffffff" stroke="#000000" stroke-width="1.25"/><g data-dediren-node-decorator="uml_interface"><line x1="12.0" y1="50.0" x2="332.0" y2="50.0" stroke="#000000" stroke-width="1.25"/><line x1="12.0" y1="50.0" x2="332.0" y2="50.0" stroke="#000000" stroke-width="1.25"/><text x="172.0" y="27.0" text-anchor="middle" fill="#000000" font-size="12">«interface»</text><text x="172.0" y="42.0" text-anchor="middle" fill="#000000" font-size="12">Cosmos DB data plane</text><text x="20.0" y="65.0" fill="#000000" font-size="12">+ read/write documents() : Documents</text></g></g><g data-dediren-node-id="interface-storage-data-plane"><rect data-dediren-node-shape="uml_interface" x="2238.0" y="152.0" width="320.0" height="120.0" rx="0" fill="#ffffff" stroke="#000000" stroke-width="1.25"/><g data-dediren-node-decorator="uml_interface"><line x1="2238.0" y1="190.0" x2="2558.0" y2="190.0" stroke="#000000" stroke-width="1.25"/><line x1="2238.0" y1="190.0" x2="2558.0" y2="190.0" stroke="#000000" stroke-width="1.25"/><text x="2398.0" y="167.0" text-anchor="middle" fill="#000000" font-size="12">«interface»</text><text x="2398.0" y="182.0" text-anchor="middle" fill="#000000" font-size="12">Blob storage data plane</text><text x="2246.0" y="205.0" fill="#000000" font-size="12">+ read/write blobs() : Blob content</text></g></g><g data-dediren-node-id="interface-key-vault-secrets"><rect data-dediren-node-shape="uml_interface" x="1326.0" y="498.0" width="440.0" height="120.0" rx="0" fill="#ffffff" stroke="#000000" stroke-width="1.25"/><g data-dediren-node-decorator="uml_interface"><line x1="1326.0" y1="536.0" x2="1766.0" y2="536.0" stroke="#000000" stroke-width="1.25"/><line x1="1326.0" y1="536.0" x2="1766.0" y2="536.0" stroke="#000000" stroke-width="1.25"/><text x="1546.0" y="513.0" text-anchor="middle" fill="#000000" font-size="12">«interface»</text><text x="1546.0" y="528.0" text-anchor="middle" fill="#000000" font-size="12">Key Vault secrets and keys</text><text x="1334.0" y="551.0" fill="#000000" font-size="12">+ unwrap keys and read refs() : Secret/key material</text></g></g><g data-dediren-node-id="datatype-cosmos-database"><rect data-dediren-node-shape="uml_data_type" x="358.0" y="498.0" width="220.0" height="120.0" rx="0" fill="#ffffff" stroke="#000000" stroke-width="1.25"/><g data-dediren-node-decorator="uml_data_type"><line x1="358.0" y1="536.0" x2="578.0" y2="536.0" stroke="#000000" stroke-width="1.25"/><text x="468.0" y="513.0" text-anchor="middle" fill="#000000" font-size="12">«dataType»</text><text x="468.0" y="528.0" text-anchor="middle" fill="#000000" font-size="12">Cosmos SQL database</text><text x="366.0" y="551.0" fill="#000000" font-size="12">+ DatabaseName : String</text></g></g><g data-dediren-node-id="datatype-runs-container"><rect data-dediren-node-shape="uml_data_type" x="1040.0" y="844.0" width="240.0" height="120.0" rx="0" fill="#ffffff" stroke="#000000" stroke-width="1.25"/><g data-dediren-node-decorator="uml_data_type"><line x1="1040.0" y1="882.0" x2="1280.0" y2="882.0" stroke="#000000" stroke-width="1.25"/><text x="1160.0" y="859.0" text-anchor="middle" fill="#000000" font-size="12">«dataType»</text><text x="1160.0" y="874.0" text-anchor="middle" fill="#000000" font-size="12">runs container</text><text x="1048.0" y="897.0" fill="#000000" font-size="12">+ RunDocument : Document</text></g></g><g data-dediren-node-id="datatype-raiders-container"><rect data-dediren-node-shape="uml_data_type" x="684.0" y="844.0" width="260.0" height="120.0" rx="0" fill="#ffffff" stroke="#000000" stroke-width="1.25"/><g data-dediren-node-decorator="uml_data_type"><line x1="684.0" y1="882.0" x2="944.0" y2="882.0" stroke="#000000" stroke-width="1.25"/><text x="814.0" y="859.0" text-anchor="middle" fill="#000000" font-size="12">«dataType»</text><text x="814.0" y="874.0" text-anchor="middle" fill="#000000" font-size="12">raiders container</text><text x="692.0" y="897.0" fill="#000000" font-size="12">+ RaiderDocument : Document</text></g></g><g data-dediren-node-id="datatype-guilds-container"><rect data-dediren-node-shape="uml_data_type" x="12.0" y="844.0" width="240.0" height="120.0" rx="0" fill="#ffffff" stroke="#000000" stroke-width="1.25"/><g data-dediren-node-decorator="uml_data_type"><line x1="12.0" y1="882.0" x2="252.0" y2="882.0" stroke="#000000" stroke-width="1.25"/><text x="132.0" y="859.0" text-anchor="middle" fill="#000000" font-size="12">«dataType»</text><text x="132.0" y="874.0" text-anchor="middle" fill="#000000" font-size="12">guilds container</text><text x="20.0" y="897.0" fill="#000000" font-size="12">+ GuildDocument : Document</text></g></g><g data-dediren-node-id="datatype-idempotency-container"><rect data-dediren-node-shape="uml_data_type" x="348.0" y="844.0" width="240.0" height="120.0" rx="0" fill="#ffffff" stroke="#000000" stroke-width="1.25"/><g data-dediren-node-decorator="uml_data_type"><line x1="348.0" y1="882.0" x2="588.0" y2="882.0" stroke="#000000" stroke-width="1.25"/><text x="468.0" y="859.0" text-anchor="middle" fill="#000000" font-size="12">«dataType»</text><text x="468.0" y="874.0" text-anchor="middle" fill="#000000" font-size="12">idempotency container</text><text x="356.0" y="897.0" fill="#000000" font-size="12">+ ReplayRecord : Document</text></g></g><g data-dediren-node-id="datatype-wow-reference-blobs"><rect data-dediren-node-shape="uml_data_type" x="1862.0" y="498.0" width="300.0" height="120.0" rx="0" fill="#ffffff" stroke="#000000" stroke-width="1.25"/><g data-dediren-node-decorator="uml_data_type"><line x1="1862.0" y1="536.0" x2="2162.0" y2="536.0" stroke="#000000" stroke-width="1.25"/><text x="2012.0" y="513.0" text-anchor="middle" fill="#000000" font-size="12">«dataType»</text><text x="2012.0" y="528.0" text-anchor="middle" fill="#000000" font-size="12">wow reference blobs</text><text x="1870.0" y="551.0" fill="#000000" font-size="12">+ reference/{kind}/ : Blob prefix</text></g></g><g data-dediren-node-id="datatype-data-protection-key-ring"><rect data-dediren-node-shape="uml_data_type" x="1447.8" y="1190.0" width="280.0" height="120.0" rx="0" fill="#ffffff" stroke="#000000" stroke-width="1.25"/><g data-dediren-node-decorator="uml_data_type"><line x1="1447.8" y1="1228.0" x2="1727.8" y2="1228.0" stroke="#000000" stroke-width="1.25"/><text x="1587.8" y="1205.0" text-anchor="middle" fill="#000000" font-size="12">«dataType»</text><text x="1587.8" y="1220.0" text-anchor="middle" fill="#000000" font-size="12">data-protection key ring blob</text><text x="1455.8" y="1243.0" fill="#000000" font-size="12">- key ring : Blob</text></g></g><g data-dediren-node-id="datatype-deployments-container"><rect data-dediren-node-shape="uml_data_type" x="2258.0" y="498.0" width="280.0" height="120.0" rx="0" fill="#ffffff" stroke="#000000" stroke-width="1.25"/><g data-dediren-node-decorator="uml_data_type"><line x1="2258.0" y1="536.0" x2="2538.0" y2="536.0" stroke="#000000" stroke-width="1.25"/><text x="2398.0" y="513.0" text-anchor="middle" fill="#000000" font-size="12">«dataType»</text><text x="2398.0" y="528.0" text-anchor="middle" fill="#000000" font-size="12">deployments blob container</text><text x="2266.0" y="551.0" fill="#000000" font-size="12">- deployment artifacts : Blob</text></g></g><g data-dediren-node-id="datatype-data-protection-key"><rect data-dediren-node-shape="uml_data_type" x="1376.0" y="844.0" width="340.0" height="120.0" rx="0" fill="#ffffff" stroke="#000000" stroke-width="1.25"/><g data-dediren-node-decorator="uml_data_type"><line x1="1376.0" y1="882.0" x2="1716.0" y2="882.0" stroke="#000000" stroke-width="1.25"/><text x="1546.0" y="859.0" text-anchor="middle" fill="#000000" font-size="12">«dataType»</text><text x="1546.0" y="874.0" text-anchor="middle" fill="#000000" font-size="12">Data Protection key</text><text x="1384.0" y="897.0" fill="#000000" font-size="12">- versionless key URI : Key Vault key</text></g></g></g></svg>

