<svg xmlns="http://www.w3.org/2000/svg" width="2030" height="1894" viewBox="-94.2 -12.0 2030.2 1894.0"><rect x="-94.2" y="-12.0" width="2030.2" height="1894.0" fill="#ffffff"/><g font-family="Inter, Arial, sans-serif" font-size="14.0"><g data-dediren-group-id="application-cooperation-lfm-owned"><rect x="460.0" y="12.0" width="1452.0" height="1846.0" rx="4.0" fill="#f8fafc" stroke="#94a3b8" stroke-width="1.0"/><text x="468.0" y="28.0" fill="#374151" font-size="12.0">LFM-owned application surface</text></g><g data-dediren-group-id="application-cooperation-external-blizzard"><rect x="12.0" y="633.0" width="240.0" height="600.0" rx="4.0" fill="#f8fafc" stroke="#94a3b8" stroke-width="1.0"/><text x="20.0" y="649.0" fill="#374151" font-size="12.0">External Blizzard dependencies</text></g><g data-dediren-edge-id="app-core-serves-app"><defs><marker id="marker-end-app-core-serves-app" data-dediren-edge-marker-end="open_arrow" markerWidth="9" markerHeight="9" refX="8" refY="4.5" orient="auto" markerUnits="strokeWidth"><path d="M 1 1 L 8 4.5 L 1 8" fill="none" stroke="#2563eb" stroke-width="1.3" stroke-linecap="round" stroke-linejoin="round"/></marker></defs><path d="M 912.0 1533.0 L 912.0 1565.0 L 1552.0 1565.0 L 1552.0 1637.0" fill="none" stroke="#2563eb" stroke-width="1.5" marker-end="url(#marker-end-app-core-serves-app)"/><text x="1232.0" y="1581.8" text-anchor="middle" fill="#1e3a8a" stroke="#ffffff" stroke-width="4" stroke-linejoin="round" paint-order="stroke">serves</text></g><g data-dediren-edge-id="contracts-serve-app"><defs><marker id="marker-end-contracts-serve-app" data-dediren-edge-marker-end="open_arrow" markerWidth="9" markerHeight="9" refX="8" refY="4.5" orient="auto" markerUnits="strokeWidth"><path d="M 1 1 L 8 4.5 L 1 8" fill="none" stroke="#2563eb" stroke-width="1.3" stroke-linecap="round" stroke-linejoin="round"/></marker></defs><path d="M 596.0 1166.0 L 596.0 1790.0 L 1472.0 1790.0 L 1472.0 1605.0 L 1546.0 1605.0 Q 1552.0 1599.0 1558.0 1605.0 L 1584.0 1605.0 L 1584.0 1637.0" fill="none" stroke="#2563eb" stroke-width="1.5" marker-end="url(#marker-end-contracts-serve-app)"/><text x="1034.0" y="1781.6" text-anchor="middle" fill="#1e3a8a" stroke="#ffffff" stroke-width="4" stroke-linejoin="round" paint-order="stroke">contracts</text></g><g data-dediren-edge-id="contracts-serve-core"><defs><marker id="marker-end-contracts-serve-core" data-dediren-edge-marker-end="open_arrow" markerWidth="9" markerHeight="9" refX="8" refY="4.5" orient="auto" markerUnits="strokeWidth"><path d="M 1 1 L 8 4.5 L 1 8" fill="none" stroke="#2563eb" stroke-width="1.3" stroke-linecap="round" stroke-linejoin="round"/></marker></defs><path d="M 564.0 1166.0 L 564.0 1421.0 L 590.0 1421.0 Q 596.0 1415.0 602.0 1421.0 L 912.0 1421.0 L 912.0 1453.0" fill="none" stroke="#2563eb" stroke-width="1.5" marker-end="url(#marker-end-contracts-serve-core)"/><text x="738.0" y="1437.8" text-anchor="middle" fill="#1e3a8a" stroke="#ffffff" stroke-width="4" stroke-linejoin="round" paint-order="stroke">contracts</text></g><g data-dediren-edge-id="contracts-serve-api"><defs><marker id="marker-end-contracts-serve-api" data-dediren-edge-marker-end="open_arrow" markerWidth="9" markerHeight="9" refX="8" refY="4.5" orient="auto" markerUnits="strokeWidth"><path d="M 1 1 L 8 4.5 L 1 8" fill="none" stroke="#2563eb" stroke-width="1.3" stroke-linecap="round" stroke-linejoin="round"/></marker></defs><path d="M 532.0 1166.0 L 532.0 1198.0 L 558.0 1198.0 Q 564.0 1192.0 570.0 1198.0 L 590.0 1198.0 Q 596.0 1192.0 602.0 1198.0 L 722.0 1198.0 L 722.0 133.0 L 912.0 133.0 L 912.0 165.0" fill="none" stroke="#2563eb" stroke-width="1.5" marker-end="url(#marker-end-contracts-serve-api)"/><text x="684.1" y="1189.6" text-anchor="middle" fill="#1e3a8a" stroke="#ffffff" stroke-width="4" stroke-linejoin="round" paint-order="stroke">contracts</text></g><g data-dediren-edge-id="api-realizes-rest-api"><defs><marker id="marker-end-api-realizes-rest-api" data-dediren-edge-marker-end="hollow_triangle" markerWidth="10" markerHeight="10" refX="9" refY="5" orient="auto" markerUnits="strokeWidth"><path d="M 1 1 L 9 5 L 1 9 z" fill="#ffffff" stroke="#475569" stroke-width="1.2"/></marker></defs><path d="M 1008.0 245.0 L 1008.0 1013.0 L 1300.0 1013.0 L 1300.0 1045.0" fill="none" stroke="#475569" stroke-width="1.5" stroke-dasharray="8 5" marker-end="url(#marker-end-api-realizes-rest-api)"/><text x="1154.0" y="1029.8" text-anchor="middle" fill="#334155" stroke="#ffffff" stroke-width="4" stroke-linejoin="round" paint-order="stroke">exposes</text></g><g data-dediren-edge-id="rest-api-serves-app"><defs><marker id="marker-end-rest-api-serves-app" data-dediren-edge-marker-end="open_arrow" markerWidth="9" markerHeight="9" refX="8" refY="4.5" orient="auto" markerUnits="strokeWidth"><path d="M 1 1 L 8 4.5 L 1 8" fill="none" stroke="#2563eb" stroke-width="1.3" stroke-linecap="round" stroke-linejoin="round"/></marker></defs><path d="M 1300.0 1125.0 L 1300.0 1157.0 L 1616.0 1157.0 L 1616.0 1637.0" fill="none" stroke="#2563eb" stroke-width="1.5" marker-end="url(#marker-end-rest-api-serves-app)"/><text x="1458.0" y="1173.8" text-anchor="middle" fill="#1e3a8a" stroke="#ffffff" stroke-width="4" stroke-linejoin="round" paint-order="stroke">serves</text></g><g data-dediren-edge-id="api-realizes-auth-service"><defs><marker id="marker-end-api-realizes-auth-service" data-dediren-edge-marker-end="hollow_triangle" markerWidth="10" markerHeight="10" refX="9" refY="5" orient="auto" markerUnits="strokeWidth"><path d="M 1 1 L 9 5 L 1 9 z" fill="#ffffff" stroke="#475569" stroke-width="1.2"/></marker></defs><path d="M 976.0 245.0 L 976.0 1197.0 L 1300.0 1197.0 L 1300.0 1229.0" fill="none" stroke="#475569" stroke-width="1.5" stroke-dasharray="8 5" marker-end="url(#marker-end-api-realizes-auth-service)"/><text x="1138.0" y="1213.8" text-anchor="middle" fill="#334155" stroke="#ffffff" stroke-width="4" stroke-linejoin="round" paint-order="stroke">realizes</text></g><g data-dediren-edge-id="api-realizes-run-service"><defs><marker id="marker-end-api-realizes-run-service" data-dediren-edge-marker-end="hollow_triangle" markerWidth="10" markerHeight="10" refX="9" refY="5" orient="auto" markerUnits="strokeWidth"><path d="M 1 1 L 9 5 L 1 9 z" fill="#ffffff" stroke="#475569" stroke-width="1.2"/></marker></defs><path d="M 944.0 245.0 L 944.0 1381.0 L 1300.0 1381.0 L 1300.0 1413.0" fill="none" stroke="#475569" stroke-width="1.5" stroke-dasharray="8 5" marker-end="url(#marker-end-api-realizes-run-service)"/><text x="1122.0" y="1397.8" text-anchor="middle" fill="#334155" stroke="#ffffff" stroke-width="4" stroke-linejoin="round" paint-order="stroke">realizes</text></g><g data-dediren-edge-id="api-realizes-guild-service"><defs><marker id="marker-end-api-realizes-guild-service" data-dediren-edge-marker-end="hollow_triangle" markerWidth="10" markerHeight="10" refX="9" refY="5" orient="auto" markerUnits="strokeWidth"><path d="M 1 1 L 9 5 L 1 9 z" fill="#ffffff" stroke="#475569" stroke-width="1.2"/></marker></defs><path d="M 912.0 245.0 L 912.0 829.0 L 938.0 829.0 Q 944.0 823.0 950.0 829.0 L 970.0 829.0 Q 976.0 823.0 982.0 829.0 L 1002.0 829.0 Q 1008.0 823.0 1014.0 829.0 L 1300.0 829.0 L 1300.0 861.0" fill="none" stroke="#475569" stroke-width="1.5" stroke-dasharray="8 5" marker-end="url(#marker-end-api-realizes-guild-service)"/><text x="1158.7" y="845.8" text-anchor="middle" fill="#334155" stroke="#ffffff" stroke-width="4" stroke-linejoin="round" paint-order="stroke">realizes</text></g><g data-dediren-edge-id="api-realizes-raider-service"><defs><marker id="marker-end-api-realizes-raider-service" data-dediren-edge-marker-end="hollow_triangle" markerWidth="10" markerHeight="10" refX="9" refY="5" orient="auto" markerUnits="strokeWidth"><path d="M 1 1 L 9 5 L 1 9 z" fill="#ffffff" stroke="#475569" stroke-width="1.2"/></marker></defs><path d="M 880.0 245.0 L 880.0 645.0 L 906.0 645.0 Q 912.0 639.0 918.0 645.0 L 938.0 645.0 Q 944.0 639.0 950.0 645.0 L 970.0 645.0 Q 976.0 639.0 982.0 645.0 L 1002.0 645.0 Q 1008.0 639.0 1014.0 645.0 L 1300.0 645.0 L 1300.0 677.0" fill="none" stroke="#475569" stroke-width="1.5" stroke-dasharray="8 5" marker-end="url(#marker-end-api-realizes-raider-service)"/><text x="1142.7" y="661.8" text-anchor="middle" fill="#334155" stroke="#ffffff" stroke-width="4" stroke-linejoin="round" paint-order="stroke">realizes</text></g><g data-dediren-edge-id="api-realizes-reference-service"><defs><marker id="marker-end-api-realizes-reference-service" data-dediren-edge-marker-end="hollow_triangle" markerWidth="10" markerHeight="10" refX="9" refY="5" orient="auto" markerUnits="strokeWidth"><path d="M 1 1 L 9 5 L 1 9 z" fill="#ffffff" stroke="#475569" stroke-width="1.2"/></marker></defs><path d="M 848.0 245.0 L 848.0 461.0 L 874.0 461.0 Q 880.0 455.0 886.0 461.0 L 906.0 461.0 Q 912.0 455.0 918.0 461.0 L 938.0 461.0 Q 944.0 455.0 950.0 461.0 L 970.0 461.0 Q 976.0 455.0 982.0 461.0 L 1002.0 461.0 Q 1008.0 455.0 1014.0 461.0 L 1300.0 461.0 L 1300.0 493.0" fill="none" stroke="#475569" stroke-width="1.5" stroke-dasharray="8 5" marker-end="url(#marker-end-api-realizes-reference-service)"/><text x="1126.7" y="477.8" text-anchor="middle" fill="#334155" stroke="#ffffff" stroke-width="4" stroke-linejoin="round" paint-order="stroke">realizes</text></g><g data-dediren-edge-id="api-realizes-ops-service"><defs><marker id="marker-end-api-realizes-ops-service" data-dediren-edge-marker-end="hollow_triangle" markerWidth="10" markerHeight="10" refX="9" refY="5" orient="auto" markerUnits="strokeWidth"><path d="M 1 1 L 9 5 L 1 9 z" fill="#ffffff" stroke="#475569" stroke-width="1.2"/></marker></defs><path d="M 816.0 245.0 L 816.0 277.0 L 842.0 277.0 Q 848.0 271.0 854.0 277.0 L 874.0 277.0 Q 880.0 271.0 886.0 277.0 L 906.0 277.0 Q 912.0 271.0 918.0 277.0 L 938.0 277.0 Q 944.0 271.0 950.0 277.0 L 970.0 277.0 Q 976.0 271.0 982.0 277.0 L 1002.0 277.0 Q 1008.0 271.0 1014.0 277.0 L 1300.0 277.0 L 1300.0 309.0" fill="none" stroke="#475569" stroke-width="1.5" stroke-dasharray="8 5" marker-end="url(#marker-end-api-realizes-ops-service)"/><text x="1058.0" y="293.8" text-anchor="middle" fill="#334155" stroke="#ffffff" stroke-width="4" stroke-linejoin="round" paint-order="stroke">realizes</text></g><g data-dediren-edge-id="auth-service-serves-app"><defs><marker id="marker-end-auth-service-serves-app" data-dediren-edge-marker-end="open_arrow" markerWidth="9" markerHeight="9" refX="8" refY="4.5" orient="auto" markerUnits="strokeWidth"><path d="M 1 1 L 8 4.5 L 1 8" fill="none" stroke="#2563eb" stroke-width="1.3" stroke-linecap="round" stroke-linejoin="round"/></marker></defs><path d="M 1300.0 1309.0 L 1300.0 1341.0 L 1610.0 1341.0 Q 1616.0 1335.0 1622.0 1341.0 L 1648.0 1341.0 L 1648.0 1637.0" fill="none" stroke="#2563eb" stroke-width="1.5" marker-end="url(#marker-end-auth-service-serves-app)"/><text x="1474.0" y="1357.8" text-anchor="middle" fill="#1e3a8a" stroke="#ffffff" stroke-width="4" stroke-linejoin="round" paint-order="stroke">serves</text></g><g data-dediren-edge-id="run-service-serves-app"><defs><marker id="marker-end-run-service-serves-app" data-dediren-edge-marker-end="open_arrow" markerWidth="9" markerHeight="9" refX="8" refY="4.5" orient="auto" markerUnits="strokeWidth"><path d="M 1 1 L 8 4.5 L 1 8" fill="none" stroke="#2563eb" stroke-width="1.3" stroke-linecap="round" stroke-linejoin="round"/></marker></defs><path d="M 1300.0 1493.0 L 1300.0 1525.0 L 1610.0 1525.0 Q 1616.0 1519.0 1622.0 1525.0 L 1642.0 1525.0 Q 1648.0 1519.0 1654.0 1525.0 L 1680.0 1525.0 L 1680.0 1637.0" fill="none" stroke="#2563eb" stroke-width="1.5" marker-end="url(#marker-end-run-service-serves-app)"/><text x="1490.0" y="1541.8" text-anchor="middle" fill="#1e3a8a" stroke="#ffffff" stroke-width="4" stroke-linejoin="round" paint-order="stroke">serves</text></g><g data-dediren-edge-id="guild-service-serves-app"><defs><marker id="marker-end-guild-service-serves-app" data-dediren-edge-marker-end="open_arrow" markerWidth="9" markerHeight="9" refX="8" refY="4.5" orient="auto" markerUnits="strokeWidth"><path d="M 1 1 L 8 4.5 L 1 8" fill="none" stroke="#2563eb" stroke-width="1.3" stroke-linecap="round" stroke-linejoin="round"/></marker></defs><path d="M 1300.0 941.0 L 1300.0 973.0 L 1712.0 973.0 L 1712.0 1637.0" fill="none" stroke="#2563eb" stroke-width="1.5" marker-end="url(#marker-end-guild-service-serves-app)"/><text x="1506.0" y="989.8" text-anchor="middle" fill="#1e3a8a" stroke="#ffffff" stroke-width="4" stroke-linejoin="round" paint-order="stroke">serves</text></g><g data-dediren-edge-id="raider-service-serves-app"><defs><marker id="marker-end-raider-service-serves-app" data-dediren-edge-marker-end="open_arrow" markerWidth="9" markerHeight="9" refX="8" refY="4.5" orient="auto" markerUnits="strokeWidth"><path d="M 1 1 L 8 4.5 L 1 8" fill="none" stroke="#2563eb" stroke-width="1.3" stroke-linecap="round" stroke-linejoin="round"/></marker></defs><path d="M 1300.0 757.0 L 1300.0 789.0 L 1744.0 789.0 L 1744.0 1637.0" fill="none" stroke="#2563eb" stroke-width="1.5" marker-end="url(#marker-end-raider-service-serves-app)"/><text x="1522.0" y="805.8" text-anchor="middle" fill="#1e3a8a" stroke="#ffffff" stroke-width="4" stroke-linejoin="round" paint-order="stroke">serves</text></g><g data-dediren-edge-id="reference-service-serves-app"><defs><marker id="marker-end-reference-service-serves-app" data-dediren-edge-marker-end="open_arrow" markerWidth="9" markerHeight="9" refX="8" refY="4.5" orient="auto" markerUnits="strokeWidth"><path d="M 1 1 L 8 4.5 L 1 8" fill="none" stroke="#2563eb" stroke-width="1.3" stroke-linecap="round" stroke-linejoin="round"/></marker></defs><path d="M 1300.0 573.0 L 1300.0 605.0 L 1776.0 605.0 L 1776.0 1637.0" fill="none" stroke="#2563eb" stroke-width="1.5" marker-end="url(#marker-end-reference-service-serves-app)"/><text x="1538.0" y="621.8" text-anchor="middle" fill="#1e3a8a" stroke="#ffffff" stroke-width="4" stroke-linejoin="round" paint-order="stroke">serves</text></g><g data-dediren-edge-id="ops-service-serves-app"><defs><marker id="marker-end-ops-service-serves-app" data-dediren-edge-marker-end="open_arrow" markerWidth="9" markerHeight="9" refX="8" refY="4.5" orient="auto" markerUnits="strokeWidth"><path d="M 1 1 L 8 4.5 L 1 8" fill="none" stroke="#2563eb" stroke-width="1.3" stroke-linecap="round" stroke-linejoin="round"/></marker></defs><path d="M 1300.0 389.0 L 1300.0 421.0 L 1808.0 421.0 L 1808.0 1637.0" fill="none" stroke="#2563eb" stroke-width="1.5" marker-end="url(#marker-end-ops-service-serves-app)"/><text x="1554.0" y="437.8" text-anchor="middle" fill="#1e3a8a" stroke="#ffffff" stroke-width="4" stroke-linejoin="round" paint-order="stroke">serves</text></g><g data-dediren-edge-id="battlenet-oauth-serves-api"><defs><marker id="marker-end-battlenet-oauth-serves-api" data-dediren-edge-marker-end="open_arrow" markerWidth="9" markerHeight="9" refX="8" refY="4.5" orient="auto" markerUnits="strokeWidth"><path d="M 1 1 L 8 4.5 L 1 8" fill="none" stroke="#2563eb" stroke-width="1.3" stroke-linecap="round" stroke-linejoin="round"/></marker></defs><path d="M 68.0 841.0 L 36.0 841.0 L 36.0 913.0 L 408.0 913.0 L 408.0 93.0 L 1088.0 93.0 L 1088.0 192.5 L 1056.0 192.5" fill="none" stroke="#2563eb" stroke-width="1.5" marker-end="url(#marker-end-battlenet-oauth-serves-api)"/><text x="12.3" y="857.8" text-anchor="middle" fill="#1e3a8a" stroke="#ffffff" stroke-width="4" stroke-linejoin="round" paint-order="stroke">OAuth</text></g><g data-dediren-edge-id="profile-api-serves-api"><defs><marker id="marker-end-profile-api-serves-api" data-dediren-edge-marker-end="open_arrow" markerWidth="9" markerHeight="9" refX="8" refY="4.5" orient="auto" markerUnits="strokeWidth"><path d="M 1 1 L 8 4.5 L 1 8" fill="none" stroke="#2563eb" stroke-width="1.3" stroke-linecap="round" stroke-linejoin="round"/></marker></defs><path d="M 68.0 697.0 L 36.0 697.0 L 36.0 769.0 L 368.0 769.0 L 368.0 52.0 L 1128.0 52.0 L 1128.0 205.0 L 1056.0 205.0" fill="none" stroke="#2563eb" stroke-width="1.5" marker-end="url(#marker-end-profile-api-serves-api)"/><text x="-18.1" y="713.8" text-anchor="middle" fill="#1e3a8a" stroke="#ffffff" stroke-width="4" stroke-linejoin="round" paint-order="stroke">profile data</text></g><g data-dediren-edge-id="game-data-api-serves-api"><defs><marker id="marker-end-game-data-api-serves-api" data-dediren-edge-marker-end="open_arrow" markerWidth="9" markerHeight="9" refX="8" refY="4.5" orient="auto" markerUnits="strokeWidth"><path d="M 1 1 L 8 4.5 L 1 8" fill="none" stroke="#2563eb" stroke-width="1.3" stroke-linecap="round" stroke-linejoin="round"/></marker></defs><path d="M 68.0 985.0 L 36.0 985.0 L 36.0 1057.0 L 304.0 1057.0 L 304.0 1053.0 L 716.0 1053.0 Q 722.0 1047.0 728.0 1053.0 L 938.0 1053.0 Q 944.0 1047.0 950.0 1053.0 L 970.0 1053.0 Q 976.0 1047.0 982.0 1053.0 L 1088.0 1053.0 L 1088.0 1019.0 Q 1094.0 1013.0 1088.0 1007.0 L 1088.0 835.0 Q 1094.0 829.0 1088.0 823.0 L 1088.0 651.0 Q 1094.0 645.0 1088.0 639.0 L 1088.0 467.0 Q 1094.0 461.0 1088.0 455.0 L 1088.0 283.0 Q 1094.0 277.0 1088.0 271.0 L 1088.0 217.5 L 1056.0 217.5" fill="none" stroke="#2563eb" stroke-width="1.5" marker-end="url(#marker-end-game-data-api-serves-api)"/><text x="-5.1" y="1001.8" text-anchor="middle" fill="#1e3a8a" stroke="#ffffff" stroke-width="4" stroke-linejoin="round" paint-order="stroke">game data</text></g><g data-dediren-edge-id="render-cdn-serves-app"><defs><marker id="marker-end-render-cdn-serves-app" data-dediren-edge-marker-end="open_arrow" markerWidth="9" markerHeight="9" refX="8" refY="4.5" orient="auto" markerUnits="strokeWidth"><path d="M 1 1 L 8 4.5 L 1 8" fill="none" stroke="#2563eb" stroke-width="1.3" stroke-linecap="round" stroke-linejoin="round"/></marker></defs><path d="M 68.0 1169.0 L 36.0 1169.0 L 36.0 1097.0 L 368.0 1097.0 L 368.0 1749.0 L 590.0 1749.0 Q 596.0 1743.0 602.0 1749.0 L 1466.0 1749.0 Q 1472.0 1743.0 1478.0 1749.0 L 1888.0 1749.0 L 1888.0 1677.0 L 1856.0 1677.0" fill="none" stroke="#2563eb" stroke-width="1.5" marker-end="url(#marker-end-render-cdn-serves-app)"/><text x="8.0" y="1160.6" text-anchor="middle" fill="#1e3a8a" stroke="#ffffff" stroke-width="4" stroke-linejoin="round" paint-order="stroke">images</text></g><g data-dediren-node-id="lfm-app"><rect data-dediren-node-shape="archimate_rectangle" x="1504.0" y="1637.0" width="352.0" height="80.0" rx="0" fill="#e8f3ff" stroke="#2563eb" stroke-width="1.5"/><g data-dediren-node-decorator="archimate_application_component" data-dediren-icon-kind="component" data-dediren-icon-size="22"><rect x="1832.0" y="1646.0" width="18.0" height="15.8" rx="1.5" fill="#e8f3ff" stroke="#2563eb" stroke-width="1.5"/><rect x="1828.0" y="1648.6" width="7.9" height="5.7" rx="1.2" fill="#e8f3ff" stroke="#2563eb" stroke-width="1.5"/><rect x="1828.0" y="1655.7" width="7.9" height="5.7" rx="1.2" fill="#e8f3ff" stroke="#2563eb" stroke-width="1.5"/></g><text x="1680.0" y="1677.0" text-anchor="middle" dominant-baseline="middle" fill="#172554" font-size="14.0">Lfm.App</text></g><g data-dediren-node-id="lfm-app-core"><rect data-dediren-node-shape="archimate_rectangle" x="832.0" y="1453.0" width="160.0" height="80.0" rx="0" fill="#e8f3ff" stroke="#2563eb" stroke-width="1.5"/><g data-dediren-node-decorator="archimate_application_component" data-dediren-icon-kind="component" data-dediren-icon-size="22"><rect x="968.0" y="1462.0" width="18.0" height="15.8" rx="1.5" fill="#e8f3ff" stroke="#2563eb" stroke-width="1.5"/><rect x="964.0" y="1464.6" width="7.9" height="5.7" rx="1.2" fill="#e8f3ff" stroke="#2563eb" stroke-width="1.5"/><rect x="964.0" y="1471.7" width="7.9" height="5.7" rx="1.2" fill="#e8f3ff" stroke="#2563eb" stroke-width="1.5"/></g><text x="912.0" y="1493.0" text-anchor="middle" dominant-baseline="middle" fill="#172554" font-size="14.0">Lfm.App.Core</text></g><g data-dediren-node-id="lfm-contracts"><rect data-dediren-node-shape="archimate_rectangle" x="484.0" y="1086.0" width="160.0" height="80.0" rx="0" fill="#e8f3ff" stroke="#2563eb" stroke-width="1.5"/><g data-dediren-node-decorator="archimate_application_component" data-dediren-icon-kind="component" data-dediren-icon-size="22"><rect x="620.0" y="1095.0" width="18.0" height="15.8" rx="1.5" fill="#e8f3ff" stroke="#2563eb" stroke-width="1.5"/><rect x="616.0" y="1097.6" width="7.9" height="5.7" rx="1.2" fill="#e8f3ff" stroke="#2563eb" stroke-width="1.5"/><rect x="616.0" y="1104.7" width="7.9" height="5.7" rx="1.2" fill="#e8f3ff" stroke="#2563eb" stroke-width="1.5"/></g><text x="564.0" y="1126.0" text-anchor="middle" dominant-baseline="middle" fill="#172554" font-size="14.0">Lfm.Contracts</text></g><g data-dediren-node-id="lfm-api"><rect data-dediren-node-shape="archimate_rectangle" x="768.0" y="165.0" width="288.0" height="80.0" rx="0" fill="#e8f3ff" stroke="#2563eb" stroke-width="1.5"/><g data-dediren-node-decorator="archimate_application_component" data-dediren-icon-kind="component" data-dediren-icon-size="22"><rect x="1032.0" y="174.0" width="18.0" height="15.8" rx="1.5" fill="#e8f3ff" stroke="#2563eb" stroke-width="1.5"/><rect x="1028.0" y="176.6" width="7.9" height="5.7" rx="1.2" fill="#e8f3ff" stroke="#2563eb" stroke-width="1.5"/><rect x="1028.0" y="183.7" width="7.9" height="5.7" rx="1.2" fill="#e8f3ff" stroke="#2563eb" stroke-width="1.5"/></g><text x="912.0" y="205.0" text-anchor="middle" dominant-baseline="middle" fill="#172554" font-size="14.0">Lfm.Api</text></g><g data-dediren-node-id="rest-api"><rect data-dediren-node-shape="archimate_rectangle" x="1220.0" y="1045.0" width="160.0" height="80.0" rx="0" fill="#e8f3ff" stroke="#2563eb" stroke-width="1.5"/><g data-dediren-node-decorator="archimate_application_interface" data-dediren-icon-kind="interface" data-dediren-icon-size="22"><ellipse cx="1367.8" cy="1060.2" rx="4.0" ry="4.0" fill="#e8f3ff" stroke="#2563eb" stroke-width="1.5"/><path d="M 1354.2 1060.2 L 1363.9 1060.2" fill="none" stroke="#2563eb" stroke-width="1.5"/></g><text x="1300.0" y="1077.0" text-anchor="middle" dominant-baseline="middle" fill="#172554" font-size="14.0"><tspan x="1300.0" dy="0">REST API</tspan><tspan x="1300.0" dy="16.0">(/api/v1/*)</tspan></text></g><g data-dediren-node-id="auth-session-service"><rect data-dediren-node-shape="archimate_rounded_rectangle" x="1220.0" y="1229.0" width="160.0" height="80.0" rx="4.0" fill="#e8f3ff" stroke="#2563eb" stroke-width="1.5"/><g data-dediren-node-decorator="archimate_application_service" data-dediren-icon-kind="service" data-dediren-icon-size="22"><rect x="1352.0" y="1238.0" width="22.0" height="13.6" rx="4.0" fill="#e8f3ff" stroke="#2563eb" stroke-width="1.5"/></g><text x="1300.0" y="1261.0" text-anchor="middle" dominant-baseline="middle" fill="#172554" font-size="14.0"><tspan x="1300.0" dy="0">Auth and session</tspan><tspan x="1300.0" dy="16.0">service</tspan></text></g><g data-dediren-node-id="run-management-service"><rect data-dediren-node-shape="archimate_rounded_rectangle" x="1220.0" y="1413.0" width="160.0" height="80.0" rx="4.0" fill="#e8f3ff" stroke="#2563eb" stroke-width="1.5"/><g data-dediren-node-decorator="archimate_application_service" data-dediren-icon-kind="service" data-dediren-icon-size="22"><rect x="1352.0" y="1422.0" width="22.0" height="13.6" rx="4.0" fill="#e8f3ff" stroke="#2563eb" stroke-width="1.5"/></g><text x="1300.0" y="1445.0" text-anchor="middle" dominant-baseline="middle" fill="#172554" font-size="14.0"><tspan x="1300.0" dy="0">Run management</tspan><tspan x="1300.0" dy="16.0">service</tspan></text></g><g data-dediren-node-id="guild-service"><rect data-dediren-node-shape="archimate_rounded_rectangle" x="1220.0" y="861.0" width="160.0" height="80.0" rx="4.0" fill="#e8f3ff" stroke="#2563eb" stroke-width="1.5"/><g data-dediren-node-decorator="archimate_application_service" data-dediren-icon-kind="service" data-dediren-icon-size="22"><rect x="1352.0" y="870.0" width="22.0" height="13.6" rx="4.0" fill="#e8f3ff" stroke="#2563eb" stroke-width="1.5"/></g><text x="1300.0" y="901.0" text-anchor="middle" dominant-baseline="middle" fill="#172554" font-size="14.0">Guild service</text></g><g data-dediren-node-id="raider-profile-service"><rect data-dediren-node-shape="archimate_rounded_rectangle" x="1220.0" y="677.0" width="160.0" height="80.0" rx="4.0" fill="#e8f3ff" stroke="#2563eb" stroke-width="1.5"/><g data-dediren-node-decorator="archimate_application_service" data-dediren-icon-kind="service" data-dediren-icon-size="22"><rect x="1352.0" y="686.0" width="22.0" height="13.6" rx="4.0" fill="#e8f3ff" stroke="#2563eb" stroke-width="1.5"/></g><text x="1300.0" y="709.0" text-anchor="middle" dominant-baseline="middle" fill="#172554" font-size="14.0"><tspan x="1300.0" dy="0">Raider profile</tspan><tspan x="1300.0" dy="16.0">service</tspan></text></g><g data-dediren-node-id="wow-reference-service"><rect data-dediren-node-shape="archimate_rounded_rectangle" x="1220.0" y="493.0" width="160.0" height="80.0" rx="4.0" fill="#e8f3ff" stroke="#2563eb" stroke-width="1.5"/><g data-dediren-node-decorator="archimate_application_service" data-dediren-icon-kind="service" data-dediren-icon-size="22"><rect x="1352.0" y="502.0" width="22.0" height="13.6" rx="4.0" fill="#e8f3ff" stroke="#2563eb" stroke-width="1.5"/></g><text x="1300.0" y="525.0" text-anchor="middle" dominant-baseline="middle" fill="#172554" font-size="14.0"><tspan x="1300.0" dy="0">WoW reference</tspan><tspan x="1300.0" dy="16.0">service</tspan></text></g><g data-dediren-node-id="ops-health-service"><rect data-dediren-node-shape="archimate_rounded_rectangle" x="1220.0" y="309.0" width="160.0" height="80.0" rx="4.0" fill="#e8f3ff" stroke="#2563eb" stroke-width="1.5"/><g data-dediren-node-decorator="archimate_application_service" data-dediren-icon-kind="service" data-dediren-icon-size="22"><rect x="1352.0" y="318.0" width="22.0" height="13.6" rx="4.0" fill="#e8f3ff" stroke="#2563eb" stroke-width="1.5"/></g><text x="1300.0" y="340.9" text-anchor="middle" dominant-baseline="middle" fill="#172554" font-size="14.0"><tspan x="1300.0" dy="0">Operational</tspan><tspan x="1300.0" dy="16.0">health service</tspan></text></g><g data-dediren-node-id="battlenet-oauth"><rect data-dediren-node-shape="archimate_rounded_rectangle" x="68.0" y="801.0" width="160.0" height="80.0" rx="4.0" fill="#e8f3ff" stroke="#2563eb" stroke-width="1.5"/><g data-dediren-node-decorator="archimate_application_service" data-dediren-icon-kind="service" data-dediren-icon-size="22"><rect x="200.0" y="810.0" width="22.0" height="13.6" rx="4.0" fill="#e8f3ff" stroke="#2563eb" stroke-width="1.5"/></g><text x="148.0" y="833.0" text-anchor="middle" dominant-baseline="middle" fill="#172554" font-size="14.0"><tspan x="148.0" dy="0">Battle.net OAuth</tspan><tspan x="148.0" dy="16.0">2.0</tspan></text></g><g data-dediren-node-id="blizzard-profile-api"><rect data-dediren-node-shape="archimate_rounded_rectangle" x="68.0" y="657.0" width="160.0" height="80.0" rx="4.0" fill="#e8f3ff" stroke="#2563eb" stroke-width="1.5"/><g data-dediren-node-decorator="archimate_application_service" data-dediren-icon-kind="service" data-dediren-icon-size="22"><rect x="200.0" y="666.0" width="22.0" height="13.6" rx="4.0" fill="#e8f3ff" stroke="#2563eb" stroke-width="1.5"/></g><text x="148.0" y="697.0" text-anchor="middle" dominant-baseline="middle" fill="#172554" font-size="14.0">WoW Profile API</text></g><g data-dediren-node-id="blizzard-game-data-api"><rect data-dediren-node-shape="archimate_rounded_rectangle" x="68.0" y="945.0" width="160.0" height="80.0" rx="4.0" fill="#e8f3ff" stroke="#2563eb" stroke-width="1.5"/><g data-dediren-node-decorator="archimate_application_service" data-dediren-icon-kind="service" data-dediren-icon-size="22"><rect x="200.0" y="954.0" width="22.0" height="13.6" rx="4.0" fill="#e8f3ff" stroke="#2563eb" stroke-width="1.5"/></g><text x="148.0" y="977.0" text-anchor="middle" dominant-baseline="middle" fill="#172554" font-size="14.0"><tspan x="148.0" dy="0">WoW Game Data</tspan><tspan x="148.0" dy="16.0">API</tspan></text></g><g data-dediren-node-id="blizzard-render-cdn"><rect data-dediren-node-shape="archimate_rounded_rectangle" x="68.0" y="1129.0" width="160.0" height="80.0" rx="4.0" fill="#e8f3ff" stroke="#2563eb" stroke-width="1.5"/><g data-dediren-node-decorator="archimate_application_service" data-dediren-icon-kind="service" data-dediren-icon-size="22"><rect x="200.0" y="1138.0" width="22.0" height="13.6" rx="4.0" fill="#e8f3ff" stroke="#2563eb" stroke-width="1.5"/></g><text x="148.0" y="1161.0" text-anchor="middle" dominant-baseline="middle" fill="#172554" font-size="14.0"><tspan x="148.0" dy="0">Blizzard Render</tspan><tspan x="148.0" dy="16.0">CDN</tspan></text></g></g></svg>

