<svg xmlns="http://www.w3.org/2000/svg" width="1648" height="1008" viewBox="84.0 -12.0 1648.0 1008.0"><rect x="84.0" y="-12.0" width="1648.0" height="1008.0" fill="#ffffff"/><g font-family="Inter, Arial, sans-serif" font-size="14.0"><g data-dediren-group-id="ops-api-host"><rect x="732.0" y="316.0" width="976.0" height="656.0" rx="4.0" fill="#f8fafc" stroke="#94a3b8" stroke-width="1.0"/><text x="740.0" y="332.0" fill="#374151" font-size="12.0">Readiness API realization and host</text></g><g data-dediren-group-id="ops-readiness-observability"><rect x="108.0" y="12.0" width="368.0" height="416.0" rx="4.0" fill="#f8fafc" stroke="#94a3b8" stroke-width="1.0"/><text x="116.0" y="28.0" fill="#374151" font-size="12.0">Readiness dependency and telemetry</text></g><g data-dediren-edge-id="api-realizes-ops-service"><defs><marker id="marker-end-api-realizes-ops-service" data-dediren-edge-marker-end="hollow_triangle" markerWidth="10" markerHeight="10" refX="9" refY="5" orient="auto" markerUnits="strokeWidth"><path d="M 1 1 L 9 5 L 1 9 z" fill="#ffffff" stroke="#475569" stroke-width="1.2"/></marker></defs><path d="M 1236.0 724.0 L 1236.0 788.0 L 1588.0 788.0 L 1588.0 852.0" fill="none" stroke="#475569" stroke-width="1.5" stroke-dasharray="8 5" marker-end="url(#marker-end-api-realizes-ops-service)"/><text x="1412.0" y="804.8" text-anchor="middle" fill="#334155" stroke="#ffffff" stroke-width="4" stroke-linejoin="round" paint-order="stroke">realizes</text></g><g data-dediren-edge-id="function-app-hosts-api"><defs><marker id="marker-end-function-app-hosts-api" data-dediren-edge-marker-end="open_arrow" markerWidth="9" markerHeight="9" refX="8" refY="4.5" orient="auto" markerUnits="strokeWidth"><path d="M 1 1 L 8 4.5 L 1 8" fill="none" stroke="#2563eb" stroke-width="1.3" stroke-linecap="round" stroke-linejoin="round"/></marker></defs><path d="M 852.0 516.0 L 852.0 580.0 L 1236.0 580.0 L 1236.0 644.0" fill="none" stroke="#2563eb" stroke-width="1.5" marker-end="url(#marker-end-function-app-hosts-api)"/><text x="1044.0" y="596.8" text-anchor="middle" fill="#1e3a8a" stroke="#ffffff" stroke-width="4" stroke-linejoin="round" paint-order="stroke">hosts</text></g><g data-dediren-edge-id="ops-service-accesses-cosmos"><defs><marker id="marker-end-ops-service-accesses-cosmos" data-dediren-edge-marker-end="open_arrow" markerWidth="9" markerHeight="9" refX="8" refY="4.5" orient="auto" markerUnits="strokeWidth"><path d="M 1 1 L 8 4.5 L 1 8" fill="none" stroke="#15803d" stroke-width="1.3" stroke-linecap="round" stroke-linejoin="round"/></marker></defs><g data-dediren-line-jump-masks="ops-service-accesses-cosmos"><path d="M 1540.0 794.0 Q 1546.0 788.0 1540.0 782.0" fill="none" stroke="#ffffff" stroke-width="5.5" stroke-linecap="round" stroke-linejoin="round"/></g><path d="M 1668.0 892.0 L 1540.0 892.0 L 1540.0 794.0 Q 1546.0 788.0 1540.0 782.0 L 1540.0 92.0 L 276.0 92.0" fill="none" stroke="#15803d" stroke-width="1.5" stroke-dasharray="8 5" marker-end="url(#marker-end-ops-service-accesses-cosmos)"/><text x="1661.1" y="937.6" text-anchor="middle" fill="#166534" stroke="#ffffff" stroke-width="4" stroke-linejoin="round" paint-order="stroke">readiness</text></g><g data-dediren-edge-id="app-insights-serves-function-app"><defs><marker id="marker-end-app-insights-serves-function-app" data-dediren-edge-marker-end="open_arrow" markerWidth="9" markerHeight="9" refX="8" refY="4.5" orient="auto" markerUnits="strokeWidth"><path d="M 1 1 L 8 4.5 L 1 8" fill="none" stroke="#2563eb" stroke-width="1.3" stroke-linecap="round" stroke-linejoin="round"/></marker></defs><path d="M 276.0 268.0 L 604.0 268.0 L 604.0 476.0 L 932.0 476.0" fill="none" stroke="#2563eb" stroke-width="1.5" marker-end="url(#marker-end-app-insights-serves-function-app)"/><text x="497.1" y="284.8" text-anchor="middle" fill="#1e3a8a" stroke="#ffffff" stroke-width="4" stroke-linejoin="round" paint-order="stroke">telemetry</text></g><g data-dediren-node-id="ops-health-service"><rect data-dediren-node-shape="archimate_rounded_rectangle" x="1508.0" y="852.0" width="160.0" height="80.0" rx="4.0" fill="#e8f3ff" stroke="#2563eb" stroke-width="1.5"/><g data-dediren-node-decorator="archimate_application_service" data-dediren-icon-kind="service" data-dediren-icon-size="22"><rect x="1640.0" y="861.0" width="22.0" height="13.6" rx="4.0" fill="#e8f3ff" stroke="#2563eb" stroke-width="1.5"/></g><text x="1588.0" y="875.9" text-anchor="middle" dominant-baseline="middle" fill="#172554" font-size="14.0"><tspan x="1588.0" dy="0">Operational</tspan><tspan x="1588.0" dy="16.0">readiness</tspan><tspan x="1588.0" dy="16.0">service</tspan></text></g><g data-dediren-node-id="lfm-api"><rect data-dediren-node-shape="archimate_rectangle" x="1156.0" y="644.0" width="160.0" height="80.0" rx="0" fill="#e8f3ff" stroke="#2563eb" stroke-width="1.5"/><g data-dediren-node-decorator="archimate_application_component" data-dediren-icon-kind="component" data-dediren-icon-size="22"><rect x="1292.0" y="653.0" width="18.0" height="15.8" rx="1.5" fill="#e8f3ff" stroke="#2563eb" stroke-width="1.5"/><rect x="1288.0" y="655.6" width="7.9" height="5.7" rx="1.2" fill="#e8f3ff" stroke="#2563eb" stroke-width="1.5"/><rect x="1288.0" y="662.7" width="7.9" height="5.7" rx="1.2" fill="#e8f3ff" stroke="#2563eb" stroke-width="1.5"/></g><text x="1236.0" y="684.0" text-anchor="middle" dominant-baseline="middle" fill="#172554" font-size="14.0">Lfm.Api</text></g><g data-dediren-node-id="function-app"><rect data-dediren-node-shape="archimate_rectangle" x="772.0" y="436.0" width="160.0" height="80.0" rx="0" fill="#ecfdf3" stroke="#16a34a" stroke-width="1.5"/><g data-dediren-node-decorator="archimate_technology_node" data-dediren-icon-kind="node" data-dediren-icon-size="22"><rect x="904.0" y="449.0" width="18.0" height="12.8" rx="1.5" fill="#ecfdf3" stroke="#16a34a" stroke-width="1.5"/><path data-dediren-icon-part="node-3d-edges" d="M 904.0 449.0 L 908.0 445.0 L 926.0 445.0 L 922.0 449.0 M 922.0 449.0 L 926.0 445.0 M 922.0 461.7 L 926.0 457.8 M 926.0 445.0 L 926.0 457.8" fill="none" stroke="#16a34a" stroke-width="1.5" stroke-linejoin="round"/></g><text x="852.0" y="467.9" text-anchor="middle" dominant-baseline="middle" fill="#14532d" font-size="14.0"><tspan x="852.0" dy="0">Azure Function</tspan><tspan x="852.0" dy="16.0">App</tspan></text></g><g data-dediren-node-id="cosmos-database"><rect data-dediren-node-shape="archimate_rectangle" x="276.0" y="52.0" width="160.0" height="80.0" rx="0" fill="#f7fee7" stroke="#65a30d" stroke-width="1.5"/><g data-dediren-node-decorator="archimate_artifact" data-dediren-icon-kind="artifact" data-dediren-icon-size="22"><path data-dediren-icon-part="artifact-document" d="M 410.2 60.0 L 420.8 60.0 L 426.9 66.2 L 426.9 79.8 L 410.2 79.8 Z M 420.8 60.0 L 420.8 66.2 L 426.9 66.2" fill="#f7fee7" stroke="#65a30d" stroke-width="1.5"/></g><text x="356.0" y="84.0" text-anchor="middle" dominant-baseline="middle" fill="#365314" font-size="14.0"><tspan x="356.0" dy="0">Cosmos SQL</tspan><tspan x="356.0" dy="16.0">database</tspan></text></g><g data-dediren-node-id="application-insights"><rect data-dediren-node-shape="archimate_rectangle" x="276.0" y="228.0" width="160.0" height="80.0" rx="0" fill="#ecfdf3" stroke="#16a34a" stroke-width="1.5"/><g data-dediren-node-decorator="archimate_technology_node" data-dediren-icon-kind="node" data-dediren-icon-size="22"><rect x="408.0" y="241.0" width="18.0" height="12.8" rx="1.5" fill="#ecfdf3" stroke="#16a34a" stroke-width="1.5"/><path data-dediren-icon-part="node-3d-edges" d="M 408.0 241.0 L 412.0 237.0 L 430.0 237.0 L 426.0 241.0 M 426.0 241.0 L 430.0 237.0 M 426.0 253.7 L 430.0 249.8 M 430.0 237.0 L 430.0 249.8" fill="none" stroke="#16a34a" stroke-width="1.5" stroke-linejoin="round"/></g><text x="356.0" y="259.9" text-anchor="middle" dominant-baseline="middle" fill="#14532d" font-size="14.0"><tspan x="356.0" dy="0">Application</tspan><tspan x="356.0" dy="16.0">Insights</tspan></text></g></g></svg>

