<svg xmlns="http://www.w3.org/2000/svg" width="1401" height="1097" viewBox="-12.0 -12.0 1401.5 1097.0"><rect x="-12.0" y="-12.0" width="1401.5" height="1097.0" fill="#ffffff"/><g font-family="Inter, Arial, sans-serif" font-size="14.0"><g data-dediren-group-id="run-signup-realization-ui-flow"><rect x="776.0" y="340.0" width="564.0" height="721.0" rx="4.0" fill="#f8fafc" stroke="#94a3b8" stroke-width="1.0"/><text x="784.0" y="356.0" fill="#374151" font-size="12.0">Run signup UI flow</text></g><g data-dediren-group-id="run-signup-realization-api-host"><rect x="12.0" y="36.0" width="556.0" height="192.3" rx="4.0" fill="#f8fafc" stroke="#94a3b8" stroke-width="1.0"/><text x="20.0" y="52.0" fill="#374151" font-size="12.0">API realization</text></g><g data-dediren-group-id="run-signup-realization-data"><rect x="776.0" y="12.0" width="208.0" height="268.0" rx="4.0" fill="#f8fafc" stroke="#94a3b8" stroke-width="1.0"/><text x="784.0" y="28.0" fill="#374151" font-size="12.0">Signup data dependencies</text></g><g data-dediren-edge-id="runs-ui-serves-browse"><defs><marker id="marker-end-runs-ui-serves-browse" data-dediren-edge-marker-end="open_arrow" markerWidth="9" markerHeight="9" refX="8" refY="4.5" orient="auto" markerUnits="strokeWidth"><path d="M 1 1 L 8 4.5 L 1 8" fill="none" stroke="#2563eb" stroke-width="1.3" stroke-linecap="round" stroke-linejoin="round"/></marker></defs><path d="M 880.0 853.0 L 1164.0 853.0 L 1164.0 773.0" fill="none" stroke="#2563eb" stroke-width="1.5" marker-end="url(#marker-end-runs-ui-serves-browse)"/><text x="1022.0" y="844.6" text-anchor="middle" fill="#1e3a8a" stroke="#ffffff" stroke-width="4" stroke-linejoin="round" paint-order="stroke">UI</text></g><g data-dediren-edge-id="runs-ui-serves-inspect"><defs><marker id="marker-end-runs-ui-serves-inspect" data-dediren-edge-marker-end="open_arrow" markerWidth="9" markerHeight="9" refX="8" refY="4.5" orient="auto" markerUnits="strokeWidth"><path d="M 1 1 L 8 4.5 L 1 8" fill="none" stroke="#2563eb" stroke-width="1.3" stroke-linecap="round" stroke-linejoin="round"/></marker></defs><path d="M 880.0 853.0 L 880.0 917.0 L 1164.0 917.0 L 1164.0 957.0" fill="none" stroke="#2563eb" stroke-width="1.5" marker-end="url(#marker-end-runs-ui-serves-inspect)"/><text x="1022.0" y="933.8" text-anchor="middle" fill="#1e3a8a" stroke="#ffffff" stroke-width="4" stroke-linejoin="round" paint-order="stroke">UI</text></g><g data-dediren-edge-id="runs-ui-serves-signup"><defs><marker id="marker-end-runs-ui-serves-signup" data-dediren-edge-marker-end="open_arrow" markerWidth="9" markerHeight="9" refX="8" refY="4.5" orient="auto" markerUnits="strokeWidth"><path d="M 1 1 L 8 4.5 L 1 8" fill="none" stroke="#2563eb" stroke-width="1.3" stroke-linecap="round" stroke-linejoin="round"/></marker></defs><path d="M 880.0 853.0 L 880.0 693.0 L 1164.0 693.0 L 1164.0 629.0" fill="none" stroke="#2563eb" stroke-width="1.5" marker-end="url(#marker-end-runs-ui-serves-signup)"/><text x="1022.0" y="684.6" text-anchor="middle" fill="#1e3a8a" stroke="#ffffff" stroke-width="4" stroke-linejoin="round" paint-order="stroke">UI</text></g><g data-dediren-edge-id="run-service-serves-browse"><defs><marker id="marker-end-run-service-serves-browse" data-dediren-edge-marker-end="open_arrow" markerWidth="9" markerHeight="9" refX="8" refY="4.5" orient="auto" markerUnits="strokeWidth"><path d="M 1 1 L 8 4.5 L 1 8" fill="none" stroke="#2563eb" stroke-width="1.3" stroke-linecap="round" stroke-linejoin="round"/></marker></defs><g data-dediren-line-jump-masks="run-service-serves-browse"><path d="M 874.0 741.0 Q 880.0 735.0 886.0 741.0" fill="none" stroke="#ffffff" stroke-width="5.5" stroke-linecap="round" stroke-linejoin="round"/></g><path d="M 320.0 129.7 L 272.0 129.7 L 272.0 741.0 L 874.0 741.0 Q 880.0 735.0 886.0 741.0 L 1260.0 741.0 L 1260.0 813.0 L 1244.0 813.0" fill="none" stroke="#2563eb" stroke-width="1.5" marker-end="url(#marker-end-run-service-serves-browse)"/><text x="1317.7" y="829.8" text-anchor="middle" fill="#1e3a8a" stroke="#ffffff" stroke-width="4" stroke-linejoin="round" paint-order="stroke">realization</text></g><g data-dediren-edge-id="run-service-serves-inspect"><defs><marker id="marker-end-run-service-serves-inspect" data-dediren-edge-marker-end="open_arrow" markerWidth="9" markerHeight="9" refX="8" refY="4.5" orient="auto" markerUnits="strokeWidth"><path d="M 1 1 L 8 4.5 L 1 8" fill="none" stroke="#2563eb" stroke-width="1.3" stroke-linecap="round" stroke-linejoin="round"/></marker></defs><path d="M 320.0 129.7 L 320.0 997.0 L 1244.0 997.0" fill="none" stroke="#2563eb" stroke-width="1.5" marker-end="url(#marker-end-run-service-serves-inspect)"/><text x="782.0" y="1013.8" text-anchor="middle" fill="#1e3a8a" stroke="#ffffff" stroke-width="4" stroke-linejoin="round" paint-order="stroke">realization</text></g><g data-dediren-edge-id="run-service-serves-signup"><defs><marker id="marker-end-run-service-serves-signup" data-dediren-edge-marker-end="open_arrow" markerWidth="9" markerHeight="9" refX="8" refY="4.5" orient="auto" markerUnits="strokeWidth"><path d="M 1 1 L 8 4.5 L 1 8" fill="none" stroke="#2563eb" stroke-width="1.3" stroke-linecap="round" stroke-linejoin="round"/></marker></defs><g data-dediren-line-jump-masks="run-service-serves-signup"><path d="M 1158.0 669.0 Q 1164.0 663.0 1170.0 669.0" fill="none" stroke="#ffffff" stroke-width="5.5" stroke-linecap="round" stroke-linejoin="round"/></g><path d="M 320.0 129.7 L 320.0 669.0 L 1158.0 669.0 Q 1164.0 663.0 1170.0 669.0 L 1244.0 669.0" fill="none" stroke="#2563eb" stroke-width="1.5" marker-end="url(#marker-end-run-service-serves-signup)"/><text x="782.0" y="685.8" text-anchor="middle" fill="#1e3a8a" stroke="#ffffff" stroke-width="4" stroke-linejoin="round" paint-order="stroke">realization</text></g><g data-dediren-edge-id="run-service-serves-cancel"><defs><marker id="marker-end-run-service-serves-cancel" data-dediren-edge-marker-end="open_arrow" markerWidth="9" markerHeight="9" refX="8" refY="4.5" orient="auto" markerUnits="strokeWidth"><path d="M 1 1 L 8 4.5 L 1 8" fill="none" stroke="#2563eb" stroke-width="1.3" stroke-linecap="round" stroke-linejoin="round"/></marker></defs><path d="M 320.0 129.7 L 320.0 404.0 L 960.0 404.0" fill="none" stroke="#2563eb" stroke-width="1.5" marker-end="url(#marker-end-run-service-serves-cancel)"/><text x="640.0" y="420.8" text-anchor="middle" fill="#1e3a8a" stroke="#ffffff" stroke-width="4" stroke-linejoin="round" paint-order="stroke">realization</text></g><g data-dediren-edge-id="api-realizes-run-service"><defs><marker id="marker-end-api-realizes-run-service" data-dediren-edge-marker-end="hollow_triangle" markerWidth="10" markerHeight="10" refX="9" refY="5" orient="auto" markerUnits="strokeWidth"><path d="M 1 1 L 9 5 L 1 9 z" fill="#ffffff" stroke="#475569" stroke-width="1.2"/></marker></defs><path d="M 196.0 108.0 L 258.0 108.0 L 258.0 103.0 L 320.0 103.0" fill="none" stroke="#475569" stroke-width="1.5" stroke-dasharray="8 5" marker-end="url(#marker-end-api-realizes-run-service)"/><text x="279.7" y="99.6" text-anchor="middle" fill="#334155" stroke="#ffffff" stroke-width="4" stroke-linejoin="round" paint-order="stroke">realizes</text></g><g data-dediren-edge-id="run-service-accesses-runs"><defs><marker id="marker-end-run-service-accesses-runs" data-dediren-edge-marker-end="open_arrow" markerWidth="9" markerHeight="9" refX="8" refY="4.5" orient="auto" markerUnits="strokeWidth"><path d="M 1 1 L 8 4.5 L 1 8" fill="none" stroke="#15803d" stroke-width="1.3" stroke-linecap="round" stroke-linejoin="round"/></marker></defs><path d="M 480.0 103.0 L 640.0 103.0 L 640.0 76.0 L 800.0 76.0" fill="none" stroke="#15803d" stroke-width="1.5" stroke-dasharray="8 5" marker-end="url(#marker-end-run-service-accesses-runs)"/><text x="560.0" y="94.6" text-anchor="middle" fill="#166534" stroke="#ffffff" stroke-width="4" stroke-linejoin="round" paint-order="stroke">reads/writes</text></g><g data-dediren-edge-id="run-service-accesses-raiders"><defs><marker id="marker-end-run-service-accesses-raiders" data-dediren-edge-marker-end="open_arrow" markerWidth="9" markerHeight="9" refX="8" refY="4.5" orient="auto" markerUnits="strokeWidth"><path d="M 1 1 L 8 4.5 L 1 8" fill="none" stroke="#15803d" stroke-width="1.3" stroke-linecap="round" stroke-linejoin="round"/></marker></defs><path d="M 480.0 129.7 L 640.0 129.7 L 640.0 216.0 L 800.0 216.0" fill="none" stroke="#15803d" stroke-width="1.5" stroke-dasharray="8 5" marker-end="url(#marker-end-run-service-accesses-raiders)"/><text x="560.0" y="146.5" text-anchor="middle" fill="#166534" stroke="#ffffff" stroke-width="4" stroke-linejoin="round" paint-order="stroke">signup options</text></g><g data-dediren-node-id="browse-open-runs"><rect data-dediren-node-shape="archimate_rounded_rectangle" x="1084.0" y="773.0" width="160.0" height="80.0" rx="4.0" fill="#fefce8" stroke="#a16207" stroke-width="1.5"/><g data-dediren-node-decorator="archimate_business_process" data-dediren-icon-kind="process" data-dediren-icon-size="22"><path data-dediren-icon-part="process-arrow" d="M 1216.0 787.3 L 1229.6 787.3 L 1229.6 782.0 L 1238.0 789.9 L 1229.6 797.8 L 1229.6 792.6 L 1216.0 792.6 Z" fill="#fefce8" stroke="#a16207" stroke-width="1.5"/></g><text x="1164.0" y="813.0" text-anchor="middle" dominant-baseline="middle" fill="#713f12" font-size="14.0">Browse open runs</text></g><g data-dediren-node-id="inspect-run-detail"><rect data-dediren-node-shape="archimate_rounded_rectangle" x="1084.0" y="957.0" width="160.0" height="80.0" rx="4.0" fill="#fefce8" stroke="#a16207" stroke-width="1.5"/><g data-dediren-node-decorator="archimate_business_process" data-dediren-icon-kind="process" data-dediren-icon-size="22"><path data-dediren-icon-part="process-arrow" d="M 1216.0 971.3 L 1229.6 971.3 L 1229.6 966.0 L 1238.0 973.9 L 1229.6 981.8 L 1229.6 976.6 L 1216.0 976.6 Z" fill="#fefce8" stroke="#a16207" stroke-width="1.5"/></g><text x="1164.0" y="989.0" text-anchor="middle" dominant-baseline="middle" fill="#713f12" font-size="14.0"><tspan x="1164.0" dy="0">Inspect run</tspan><tspan x="1164.0" dy="16.0">detail</tspan></text></g><g data-dediren-node-id="sign-up-for-run"><rect data-dediren-node-shape="archimate_rounded_rectangle" x="1084.0" y="629.0" width="160.0" height="80.0" rx="4.0" fill="#fefce8" stroke="#a16207" stroke-width="1.5"/><g data-dediren-node-decorator="archimate_business_process" data-dediren-icon-kind="process" data-dediren-icon-size="22"><path data-dediren-icon-part="process-arrow" d="M 1216.0 643.3 L 1229.6 643.3 L 1229.6 638.0 L 1238.0 645.9 L 1229.6 653.8 L 1229.6 648.6 L 1216.0 648.6 Z" fill="#fefce8" stroke="#a16207" stroke-width="1.5"/></g><text x="1164.0" y="669.0" text-anchor="middle" dominant-baseline="middle" fill="#713f12" font-size="14.0">Sign up for run</text></g><g data-dediren-node-id="cancel-signup"><rect data-dediren-node-shape="archimate_rounded_rectangle" x="800.0" y="364.0" width="160.0" height="80.0" rx="4.0" fill="#fefce8" stroke="#a16207" stroke-width="1.5"/><g data-dediren-node-decorator="archimate_business_process" data-dediren-icon-kind="process" data-dediren-icon-size="22"><path data-dediren-icon-part="process-arrow" d="M 932.0 378.3 L 945.6 378.3 L 945.6 373.0 L 954.0 380.9 L 945.6 388.8 L 945.6 383.6 L 932.0 383.6 Z" fill="#fefce8" stroke="#a16207" stroke-width="1.5"/></g><text x="880.0" y="404.0" text-anchor="middle" dominant-baseline="middle" fill="#713f12" font-size="14.0">Cancel signup</text></g><g data-dediren-node-id="runs-ui-entry"><rect data-dediren-node-shape="archimate_rectangle" x="800.0" y="773.0" width="160.0" height="80.0" rx="0" fill="#e8f3ff" stroke="#2563eb" stroke-width="1.5"/><g data-dediren-node-decorator="archimate_application_component" data-dediren-icon-kind="component" data-dediren-icon-size="22"><rect x="936.0" y="782.0" width="18.0" height="15.8" rx="1.5" fill="#e8f3ff" stroke="#2563eb" stroke-width="1.5"/><rect x="932.0" y="784.6" width="7.9" height="5.7" rx="1.2" fill="#e8f3ff" stroke="#2563eb" stroke-width="1.5"/><rect x="932.0" y="791.7" width="7.9" height="5.7" rx="1.2" fill="#e8f3ff" stroke="#2563eb" stroke-width="1.5"/></g><text x="880.0" y="805.0" text-anchor="middle" dominant-baseline="middle" fill="#172554" font-size="14.0"><tspan x="880.0" dy="0">Run signup UI</tspan><tspan x="880.0" dy="16.0">pages</tspan></text></g><g data-dediren-node-id="run-management-service"><rect data-dediren-node-shape="archimate_rounded_rectangle" x="320.0" y="76.3" width="160.0" height="80.0" rx="4.0" fill="#e8f3ff" stroke="#2563eb" stroke-width="1.5"/><g data-dediren-node-decorator="archimate_application_service" data-dediren-icon-kind="service" data-dediren-icon-size="22"><rect x="452.0" y="85.3" width="22.0" height="13.6" rx="4.0" fill="#e8f3ff" stroke="#2563eb" stroke-width="1.5"/></g><text x="400.0" y="108.3" text-anchor="middle" dominant-baseline="middle" fill="#172554" font-size="14.0"><tspan x="400.0" dy="0">Run management</tspan><tspan x="400.0" dy="16.0">service</tspan></text></g><g data-dediren-node-id="lfm-api"><rect data-dediren-node-shape="archimate_rectangle" x="36.0" y="68.0" width="160.0" height="80.0" rx="0" fill="#e8f3ff" stroke="#2563eb" stroke-width="1.5"/><g data-dediren-node-decorator="archimate_application_component" data-dediren-icon-kind="component" data-dediren-icon-size="22"><rect x="172.0" y="77.0" width="18.0" height="15.8" rx="1.5" fill="#e8f3ff" stroke="#2563eb" stroke-width="1.5"/><rect x="168.0" y="79.6" width="7.9" height="5.7" rx="1.2" fill="#e8f3ff" stroke="#2563eb" stroke-width="1.5"/><rect x="168.0" y="86.7" width="7.9" height="5.7" rx="1.2" fill="#e8f3ff" stroke="#2563eb" stroke-width="1.5"/></g><text x="116.0" y="108.0" text-anchor="middle" dominant-baseline="middle" fill="#172554" font-size="14.0">Lfm.Api</text></g><g data-dediren-node-id="cosmos-runs"><rect data-dediren-node-shape="archimate_rectangle" x="800.0" y="36.0" width="160.0" height="80.0" rx="0" fill="#f7fee7" stroke="#65a30d" stroke-width="1.5"/><g data-dediren-node-decorator="archimate_artifact" data-dediren-icon-kind="artifact" data-dediren-icon-size="22"><path data-dediren-icon-part="artifact-document" d="M 934.2 44.0 L 944.8 44.0 L 950.9 50.2 L 950.9 63.8 L 934.2 63.8 Z M 944.8 44.0 L 944.8 50.2 L 950.9 50.2" fill="#f7fee7" stroke="#65a30d" stroke-width="1.5"/></g><text x="880.0" y="76.0" text-anchor="middle" dominant-baseline="middle" fill="#365314" font-size="14.0">runs container</text></g><g data-dediren-node-id="cosmos-raiders"><rect data-dediren-node-shape="archimate_rectangle" x="800.0" y="176.0" width="160.0" height="80.0" rx="0" fill="#f7fee7" stroke="#65a30d" stroke-width="1.5"/><g data-dediren-node-decorator="archimate_artifact" data-dediren-icon-kind="artifact" data-dediren-icon-size="22"><path data-dediren-icon-part="artifact-document" d="M 934.2 184.0 L 944.8 184.0 L 950.9 190.2 L 950.9 203.8 L 934.2 203.8 Z M 944.8 184.0 L 944.8 190.2 L 950.9 190.2" fill="#f7fee7" stroke="#65a30d" stroke-width="1.5"/></g><text x="880.0" y="207.9" text-anchor="middle" dominant-baseline="middle" fill="#365314" font-size="14.0"><tspan x="880.0" dy="0">raiders</tspan><tspan x="880.0" dy="16.0">container</tspan></text></g></g></svg>

