<svg xmlns="http://www.w3.org/2000/svg" width="2304" height="1025" viewBox="-12.0 -12.0 2304.0 1025.0"><rect x="-12.0" y="-12.0" width="2304.0" height="1025.0" fill="#ffffff"/><g font-family="Inter, Arial, sans-serif" font-size="14.0"><g data-dediren-group-id="reference-consumption-ui"><rect x="1644.0" y="749.0" width="304.0" height="240.0" rx="4.0" fill="#f8fafc" stroke="#94a3b8" stroke-width="1.0"/><text x="1652.0" y="765.0" fill="#374151" font-size="12.0">Reference consumption UI</text></g><g data-dediren-group-id="reference-refresh-ui"><rect x="1644.0" y="12.0" width="304.0" height="240.0" rx="4.0" fill="#f8fafc" stroke="#94a3b8" stroke-width="1.0"/><text x="1652.0" y="28.0" fill="#374151" font-size="12.0">Reference refresh UI</text></g><g data-dediren-group-id="reference-api-realization"><rect x="572.0" y="108.0" width="752.0" height="724.0" rx="4.0" fill="#f8fafc" stroke="#94a3b8" stroke-width="1.0"/><text x="580.0" y="124.0" fill="#374151" font-size="12.0">Reference API realization</text></g><g data-dediren-group-id="reference-blob-store"><rect x="1644.0" y="348.0" width="624.0" height="305.0" rx="4.0" fill="#f8fafc" stroke="#94a3b8" stroke-width="1.0"/><text x="1652.0" y="364.0" fill="#374151" font-size="12.0">Reference blob store</text></g><g data-dediren-group-id="reference-refresh-external"><rect x="12.0" y="384.0" width="304.0" height="240.0" rx="4.0" fill="#f8fafc" stroke="#94a3b8" stroke-width="1.0"/><text x="20.0" y="400.0" fill="#374151" font-size="12.0">Reference refresh dependency</text></g><g data-dediren-edge-id="reference-service-serves-reference-ui"><defs><marker id="marker-end-reference-service-serves-reference-ui" data-dediren-edge-marker-end="open_arrow" markerWidth="9" markerHeight="9" refX="8" refY="4.5" orient="auto" markerUnits="strokeWidth"><path d="M 1 1 L 8 4.5 L 1 8" fill="none" stroke="#2563eb" stroke-width="1.3" stroke-linecap="round" stroke-linejoin="round"/></marker></defs><path d="M 996.0 672.0 L 1420.0 672.0 L 1420.0 829.0 L 1844.0 829.0" fill="none" stroke="#2563eb" stroke-width="1.5" marker-end="url(#marker-end-reference-service-serves-reference-ui)"/><text x="1286.8" y="688.8" text-anchor="middle" fill="#1e3a8a" stroke="#ffffff" stroke-width="4" stroke-linejoin="round" paint-order="stroke">reference data</text></g><g data-dediren-edge-id="reference-refresh-service-serves-ui"><defs><marker id="marker-end-reference-refresh-service-serves-ui" data-dediren-edge-marker-end="open_arrow" markerWidth="9" markerHeight="9" refX="8" refY="4.5" orient="auto" markerUnits="strokeWidth"><path d="M 1 1 L 8 4.5 L 1 8" fill="none" stroke="#2563eb" stroke-width="1.3" stroke-linecap="round" stroke-linejoin="round"/></marker></defs><path d="M 996.0 396.0 L 1420.0 396.0 L 1420.0 92.0 L 1844.0 92.0" fill="none" stroke="#2563eb" stroke-width="1.5" marker-end="url(#marker-end-reference-refresh-service-serves-ui)"/><text x="1286.8" y="423.6" text-anchor="middle" fill="#1e3a8a" stroke="#ffffff" stroke-width="4" stroke-linejoin="round" paint-order="stroke">refresh stream</text></g><g data-dediren-edge-id="api-realizes-reference-service"><defs><marker id="marker-end-api-realizes-reference-service" data-dediren-edge-marker-end="hollow_triangle" markerWidth="10" markerHeight="10" refX="9" refY="5" orient="auto" markerUnits="strokeWidth"><path d="M 1 1 L 9 5 L 1 9 z" fill="#ffffff" stroke="#475569" stroke-width="1.2"/></marker></defs><path d="M 665.3 228.0 L 665.3 552.0 L 1076.0 552.0 L 1076.0 632.0" fill="none" stroke="#475569" stroke-width="1.5" stroke-dasharray="8 5" marker-end="url(#marker-end-api-realizes-reference-service)"/><text x="870.7" y="568.8" text-anchor="middle" fill="#334155" stroke="#ffffff" stroke-width="4" stroke-linejoin="round" paint-order="stroke">realizes</text></g><g data-dediren-edge-id="api-realizes-reference-refresh-service"><defs><marker id="marker-end-api-realizes-reference-refresh-service" data-dediren-edge-marker-end="hollow_triangle" markerWidth="10" markerHeight="10" refX="9" refY="5" orient="auto" markerUnits="strokeWidth"><path d="M 1 1 L 9 5 L 1 9 z" fill="#ffffff" stroke="#475569" stroke-width="1.2"/></marker></defs><path d="M 718.7 228.0 L 718.7 292.0 L 1076.0 292.0 L 1076.0 356.0" fill="none" stroke="#475569" stroke-width="1.5" stroke-dasharray="8 5" marker-end="url(#marker-end-api-realizes-reference-refresh-service)"/><text x="897.3" y="308.8" text-anchor="middle" fill="#334155" stroke="#ffffff" stroke-width="4" stroke-linejoin="round" paint-order="stroke">realizes</text></g><g data-dediren-edge-id="storage-composes-wow-reference"><path d="M 1844.0 428.0 L 1956.0 428.0 L 1956.0 532.0 L 2068.0 532.0" fill="none" stroke="#64748b" stroke-width="1.5"/><text x="1978.8" y="444.8" text-anchor="middle" fill="#374151" stroke="#ffffff" stroke-width="4" stroke-linejoin="round" paint-order="stroke">blob container</text></g><g data-dediren-edge-id="reference-service-accesses-wow-reference"><defs><marker id="marker-end-reference-service-accesses-wow-reference" data-dediren-edge-marker-end="open_arrow" markerWidth="9" markerHeight="9" refX="8" refY="4.5" orient="auto" markerUnits="strokeWidth"><path d="M 1 1 L 8 4.5 L 1 8" fill="none" stroke="#15803d" stroke-width="1.3" stroke-linecap="round" stroke-linejoin="round"/></marker></defs><path d="M 1156.0 672.0 Q 1156.0 666.0 1156.0 666.0 L 1420.0 666.0 Q 1426.0 666.0 1426.0 672.0 L 1612.0 672.0 L 1612.0 552.0 L 2068.0 552.0" fill="none" stroke="#15803d" stroke-width="1.5" stroke-dasharray="8 5" marker-end="url(#marker-end-reference-service-accesses-wow-reference)"/><text x="1384.0" y="663.6" text-anchor="middle" fill="#166534" stroke="#ffffff" stroke-width="4" stroke-linejoin="round" paint-order="stroke">read blobs</text></g><g data-dediren-edge-id="reference-refresh-service-accesses-wow-reference"><defs><marker id="marker-end-reference-refresh-service-accesses-wow-reference" data-dediren-edge-marker-end="open_arrow" markerWidth="9" markerHeight="9" refX="8" refY="4.5" orient="auto" markerUnits="strokeWidth"><path d="M 1 1 L 8 4.5 L 1 8" fill="none" stroke="#15803d" stroke-width="1.3" stroke-linecap="round" stroke-linejoin="round"/></marker></defs><g data-dediren-line-jump-masks="reference-refresh-service-accesses-wow-reference"><path d="M 1950.0 512.0 Q 1956.0 506.0 1962.0 512.0" fill="none" stroke="#ffffff" stroke-width="5.5" stroke-linecap="round" stroke-linejoin="round"/></g><path d="M 1156.0 382.7 L 1414.0 382.7 Q 1420.0 376.7 1426.0 382.7 L 1426.0 396.0 Q 1426.0 402.0 1420.0 402.0 L 1420.0 512.0 L 1950.0 512.0 Q 1956.0 506.0 1962.0 512.0 L 2068.0 512.0" fill="none" stroke="#15803d" stroke-width="1.5" stroke-dasharray="8 5" marker-end="url(#marker-end-reference-refresh-service-accesses-wow-reference)"/><text x="1288.0" y="381.5" text-anchor="middle" fill="#166534" stroke="#ffffff" stroke-width="4" stroke-linejoin="round" paint-order="stroke">write blobs</text></g><g data-dediren-edge-id="game-data-api-serves-reference-refresh-service"><defs><marker id="marker-end-game-data-api-serves-reference-refresh-service" data-dediren-edge-marker-end="open_arrow" markerWidth="9" markerHeight="9" refX="8" refY="4.5" orient="auto" markerUnits="strokeWidth"><path d="M 1 1 L 8 4.5 L 1 8" fill="none" stroke="#2563eb" stroke-width="1.3" stroke-linecap="round" stroke-linejoin="round"/></marker></defs><g data-dediren-line-jump-masks="game-data-api-serves-reference-refresh-service"><path d="M 659.3 409.3 Q 665.3 403.3 671.3 409.3" fill="none" stroke="#ffffff" stroke-width="5.5" stroke-linecap="round" stroke-linejoin="round"/></g><path d="M 116.0 464.0 L 636.0 464.0 L 636.0 409.3 L 659.3 409.3 Q 665.3 403.3 671.3 409.3 L 1156.0 409.3" fill="none" stroke="#2563eb" stroke-width="1.5" marker-end="url(#marker-end-game-data-api-serves-reference-refresh-service)"/><text x="376.0" y="455.6" text-anchor="middle" fill="#1e3a8a" stroke="#ffffff" stroke-width="4" stroke-linejoin="round" paint-order="stroke">refresh source</text></g><g data-dediren-node-id="reference-ui-entry"><rect data-dediren-node-shape="archimate_rectangle" x="1684.0" y="789.0" width="160.0" height="80.0" rx="0" fill="#e8f3ff" stroke="#2563eb" stroke-width="1.5"/><g data-dediren-node-decorator="archimate_application_component" data-dediren-icon-kind="component" data-dediren-icon-size="22"><rect x="1820.0" y="798.0" width="18.0" height="15.8" rx="1.5" fill="#e8f3ff" stroke="#2563eb" stroke-width="1.5"/><rect x="1816.0" y="800.6" width="7.9" height="5.7" rx="1.2" fill="#e8f3ff" stroke="#2563eb" stroke-width="1.5"/><rect x="1816.0" y="807.7" width="7.9" height="5.7" rx="1.2" fill="#e8f3ff" stroke="#2563eb" stroke-width="1.5"/></g><text x="1764.0" y="821.0" text-anchor="middle" dominant-baseline="middle" fill="#172554" font-size="14.0"><tspan x="1764.0" dy="0">Reference data</tspan><tspan x="1764.0" dy="16.0">consumption UI</tspan></text></g><g data-dediren-node-id="reference-refresh-ui-entry"><rect data-dediren-node-shape="archimate_rectangle" x="1684.0" y="52.0" width="160.0" height="80.0" rx="0" fill="#e8f3ff" stroke="#2563eb" stroke-width="1.5"/><g data-dediren-node-decorator="archimate_application_component" data-dediren-icon-kind="component" data-dediren-icon-size="22"><rect x="1820.0" y="61.0" width="18.0" height="15.8" rx="1.5" fill="#e8f3ff" stroke="#2563eb" stroke-width="1.5"/><rect x="1816.0" y="63.6" width="7.9" height="5.7" rx="1.2" fill="#e8f3ff" stroke="#2563eb" stroke-width="1.5"/><rect x="1816.0" y="70.7" width="7.9" height="5.7" rx="1.2" fill="#e8f3ff" stroke="#2563eb" stroke-width="1.5"/></g><text x="1764.0" y="84.0" text-anchor="middle" dominant-baseline="middle" fill="#172554" font-size="14.0"><tspan x="1764.0" dy="0">Reference</tspan><tspan x="1764.0" dy="16.0">refresh UI</tspan></text></g><g data-dediren-node-id="wow-reference-service"><rect data-dediren-node-shape="archimate_rounded_rectangle" x="996.0" y="632.0" width="160.0" height="80.0" rx="4.0" fill="#e8f3ff" stroke="#2563eb" stroke-width="1.5"/><g data-dediren-node-decorator="archimate_application_service" data-dediren-icon-kind="service" data-dediren-icon-size="22"><rect x="1128.0" y="641.0" width="22.0" height="13.6" rx="4.0" fill="#e8f3ff" stroke="#2563eb" stroke-width="1.5"/></g><text x="1076.0" y="664.0" text-anchor="middle" dominant-baseline="middle" fill="#172554" font-size="14.0"><tspan x="1076.0" dy="0">WoW reference</tspan><tspan x="1076.0" dy="16.0">lookup service</tspan></text></g><g data-dediren-node-id="reference-refresh-service"><rect data-dediren-node-shape="archimate_rounded_rectangle" x="996.0" y="356.0" width="160.0" height="80.0" rx="4.0" fill="#e8f3ff" stroke="#2563eb" stroke-width="1.5"/><g data-dediren-node-decorator="archimate_application_service" data-dediren-icon-kind="service" data-dediren-icon-size="22"><rect x="1128.0" y="365.0" width="22.0" height="13.6" rx="4.0" fill="#e8f3ff" stroke="#2563eb" stroke-width="1.5"/></g><text x="1076.0" y="387.9" text-anchor="middle" dominant-baseline="middle" fill="#172554" font-size="14.0"><tspan x="1076.0" dy="0">WoW reference</tspan><tspan x="1076.0" dy="16.0">refresh service</tspan></text></g><g data-dediren-node-id="lfm-api"><rect data-dediren-node-shape="archimate_rectangle" x="612.0" y="148.0" width="160.0" height="80.0" rx="0" fill="#e8f3ff" stroke="#2563eb" stroke-width="1.5"/><g data-dediren-node-decorator="archimate_application_component" data-dediren-icon-kind="component" data-dediren-icon-size="22"><rect x="748.0" y="157.0" width="18.0" height="15.8" rx="1.5" fill="#e8f3ff" stroke="#2563eb" stroke-width="1.5"/><rect x="744.0" y="159.6" width="7.9" height="5.7" rx="1.2" fill="#e8f3ff" stroke="#2563eb" stroke-width="1.5"/><rect x="744.0" y="166.7" width="7.9" height="5.7" rx="1.2" fill="#e8f3ff" stroke="#2563eb" stroke-width="1.5"/></g><text x="692.0" y="188.0" text-anchor="middle" dominant-baseline="middle" fill="#172554" font-size="14.0">Lfm.Api</text></g><g data-dediren-node-id="storage-account"><rect data-dediren-node-shape="archimate_rectangle" x="1684.0" y="388.0" width="160.0" height="80.0" rx="0" fill="#ecfdf3" stroke="#16a34a" stroke-width="1.5"/><g data-dediren-node-decorator="archimate_technology_node" data-dediren-icon-kind="node" data-dediren-icon-size="22"><rect x="1816.0" y="401.0" width="18.0" height="12.8" rx="1.5" fill="#ecfdf3" stroke="#16a34a" stroke-width="1.5"/><path data-dediren-icon-part="node-3d-edges" d="M 1816.0 401.0 L 1820.0 397.0 L 1838.0 397.0 L 1834.0 401.0 M 1834.0 401.0 L 1838.0 397.0 M 1834.0 413.7 L 1838.0 409.8 M 1838.0 397.0 L 1838.0 409.8" fill="none" stroke="#16a34a" stroke-width="1.5" stroke-linejoin="round"/></g><text x="1764.0" y="428.0" text-anchor="middle" dominant-baseline="middle" fill="#14532d" font-size="14.0">Storage account</text></g><g data-dediren-node-id="wow-reference-container"><rect data-dediren-node-shape="archimate_rectangle" x="2068.0" y="492.0" width="160.0" height="80.0" rx="0" fill="#f7fee7" stroke="#65a30d" stroke-width="1.5"/><g data-dediren-node-decorator="archimate_artifact" data-dediren-icon-kind="artifact" data-dediren-icon-size="22"><path data-dediren-icon-part="artifact-document" d="M 2202.2 500.0 L 2212.8 500.0 L 2218.9 506.2 L 2218.9 519.8 L 2202.2 519.8 Z M 2212.8 500.0 L 2212.8 506.2 L 2218.9 506.2" fill="#f7fee7" stroke="#65a30d" stroke-width="1.5"/></g><text x="2148.0" y="524.0" text-anchor="middle" dominant-baseline="middle" fill="#365314" font-size="14.0"><tspan x="2148.0" dy="0">wow reference</tspan><tspan x="2148.0" dy="16.0">blobs</tspan></text></g><g data-dediren-node-id="blizzard-game-data-api"><rect data-dediren-node-shape="archimate_rounded_rectangle" x="116.0" y="424.0" width="160.0" height="80.0" rx="4.0" fill="#e8f3ff" stroke="#2563eb" stroke-width="1.5"/><g data-dediren-node-decorator="archimate_application_service" data-dediren-icon-kind="service" data-dediren-icon-size="22"><rect x="248.0" y="433.0" width="22.0" height="13.6" rx="4.0" fill="#e8f3ff" stroke="#2563eb" stroke-width="1.5"/></g><text x="196.0" y="455.9" text-anchor="middle" dominant-baseline="middle" fill="#172554" font-size="14.0"><tspan x="196.0" dy="0">WoW Game Data</tspan><tspan x="196.0" dy="16.0">API</tspan></text></g></g></svg>

