<svg xmlns="http://www.w3.org/2000/svg" width="1728" height="560" viewBox="-12.0 -12.0 1728.0 560.0"><rect x="-12.0" y="-12.0" width="1728.0" height="560.0" fill="#ffffff"/><g font-family="Inter, Arial, sans-serif" font-size="14.0"><g data-dediren-group-id="account-deletion-ui"><rect x="12.0" y="215.7" width="240.0" height="160.0" rx="4.0" fill="#f8fafc" stroke="#94a3b8" stroke-width="1.0"/><text x="20.0" y="231.7" fill="#374151" font-size="12.0">Account deletion UI</text></g><g data-dediren-group-id="account-deletion-api-host"><rect x="508.0" y="111.7" width="624.0" height="240.0" rx="4.0" fill="#f8fafc" stroke="#94a3b8" stroke-width="1.0"/><text x="516.0" y="127.7" fill="#374151" font-size="12.0">Profile service and account deletion process</text></g><g data-dediren-group-id="account-deletion-data"><rect x="1452.0" y="12.0" width="240.0" height="512.0" rx="4.0" fill="#f8fafc" stroke="#94a3b8" stroke-width="1.0"/><text x="1460.0" y="28.0" fill="#374151" font-size="12.0">Deleted-account data effects</text></g><g data-dediren-edge-id="account-deletion-ui-serves-process"><defs><marker id="marker-end-account-deletion-ui-serves-process" data-dediren-edge-marker-end="open_arrow" markerWidth="9" markerHeight="9" refX="8" refY="4.5" orient="auto" markerUnits="strokeWidth"><path d="M 1 1 L 8 4.5 L 1 8" fill="none" stroke="#2563eb" stroke-width="1.3" stroke-linecap="round" stroke-linejoin="round"/></marker></defs><path d="M 212.0 295.7 L 820.0 295.7 L 820.0 213.3 L 932.0 213.3" fill="none" stroke="#2563eb" stroke-width="1.5" marker-end="url(#marker-end-account-deletion-ui-serves-process)"/><text x="516.0" y="287.3" text-anchor="middle" fill="#1e3a8a" stroke="#ffffff" stroke-width="4" stroke-linejoin="round" paint-order="stroke">delete UI</text></g><g data-dediren-edge-id="raider-service-serves-account-deletion"><defs><marker id="marker-end-raider-service-serves-account-deletion" data-dediren-edge-marker-end="open_arrow" markerWidth="9" markerHeight="9" refX="8" refY="4.5" orient="auto" markerUnits="strokeWidth"><path d="M 1 1 L 8 4.5 L 1 8" fill="none" stroke="#2563eb" stroke-width="1.3" stroke-linecap="round" stroke-linejoin="round"/></marker></defs><path d="M 708.0 191.7 L 820.0 191.7 L 820.0 186.7 L 932.0 186.7" fill="none" stroke="#2563eb" stroke-width="1.5" marker-end="url(#marker-end-raider-service-serves-account-deletion)"/><text x="842.8" y="183.3" text-anchor="middle" fill="#1e3a8a" stroke="#ffffff" stroke-width="4" stroke-linejoin="round" paint-order="stroke">delete account</text></g><g data-dediren-edge-id="account-deletion-accesses-runs"><defs><marker id="marker-end-account-deletion-accesses-runs" data-dediren-edge-marker-end="open_arrow" markerWidth="9" markerHeight="9" refX="8" refY="4.5" orient="auto" markerUnits="strokeWidth"><path d="M 1 1 L 8 4.5 L 1 8" fill="none" stroke="#15803d" stroke-width="1.3" stroke-linecap="round" stroke-linejoin="round"/></marker></defs><path d="M 1092.0 200.0 L 1304.0 200.0 L 1304.0 268.0 L 1492.0 268.0" fill="none" stroke="#15803d" stroke-width="1.5" stroke-dasharray="8 5" marker-end="url(#marker-end-account-deletion-accesses-runs)"/><text x="1398.0" y="284.8" text-anchor="middle" fill="#166534" stroke="#ffffff" stroke-width="4" stroke-linejoin="round" paint-order="stroke">scrub raider</text></g><g data-dediren-edge-id="account-deletion-accesses-raiders"><defs><marker id="marker-end-account-deletion-accesses-raiders" data-dediren-edge-marker-end="open_arrow" markerWidth="9" markerHeight="9" refX="8" refY="4.5" orient="auto" markerUnits="strokeWidth"><path d="M 1 1 L 8 4.5 L 1 8" fill="none" stroke="#15803d" stroke-width="1.3" stroke-linecap="round" stroke-linejoin="round"/></marker></defs><path d="M 1092.0 200.0 L 1280.0 200.0 L 1280.0 444.0 L 1492.0 444.0" fill="none" stroke="#15803d" stroke-width="1.5" stroke-dasharray="8 5" marker-end="url(#marker-end-account-deletion-accesses-raiders)"/><text x="1386.0" y="460.8" text-anchor="middle" fill="#166534" stroke="#ffffff" stroke-width="4" stroke-linejoin="round" paint-order="stroke">delete raider</text></g><g data-dediren-edge-id="account-deletion-accesses-idempotency"><defs><marker id="marker-end-account-deletion-accesses-idempotency" data-dediren-edge-marker-end="open_arrow" markerWidth="9" markerHeight="9" refX="8" refY="4.5" orient="auto" markerUnits="strokeWidth"><path d="M 1 1 L 8 4.5 L 1 8" fill="none" stroke="#15803d" stroke-width="1.3" stroke-linecap="round" stroke-linejoin="round"/></marker></defs><path d="M 1092.0 200.0 L 1292.0 200.0 L 1292.0 92.0 L 1492.0 92.0" fill="none" stroke="#15803d" stroke-width="1.5" stroke-dasharray="8 5" marker-end="url(#marker-end-account-deletion-accesses-idempotency)"/><text x="1392.0" y="83.6" text-anchor="middle" fill="#166534" stroke="#ffffff" stroke-width="4" stroke-linejoin="round" paint-order="stroke">purge replay cache</text></g><g data-dediren-node-id="account-deletion-ui-entry"><rect data-dediren-node-shape="archimate_rectangle" x="52.0" y="255.7" width="160.0" height="80.0" rx="0" fill="#e8f3ff" stroke="#2563eb" stroke-width="1.5"/><g data-dediren-node-decorator="archimate_application_component" data-dediren-icon-kind="component" data-dediren-icon-size="22"><rect x="188.0" y="264.7" width="18.0" height="15.8" rx="1.5" fill="#e8f3ff" stroke="#2563eb" stroke-width="1.5"/><rect x="184.0" y="267.3" width="7.9" height="5.7" rx="1.2" fill="#e8f3ff" stroke="#2563eb" stroke-width="1.5"/><rect x="184.0" y="274.3" width="7.9" height="5.7" rx="1.2" fill="#e8f3ff" stroke="#2563eb" stroke-width="1.5"/></g><text x="132.0" y="287.6" text-anchor="middle" dominant-baseline="middle" fill="#172554" font-size="14.0"><tspan x="132.0" dy="0">Account deletion</tspan><tspan x="132.0" dy="16.0">UI</tspan></text></g><g data-dediren-node-id="account-deletion-process"><rect data-dediren-node-shape="archimate_rectangle" x="932.0" y="160.0" width="160.0" height="80.0" rx="4.0" fill="#f8fafc" stroke="#334155" stroke-width="1.5"/><text x="1012.0" y="200.0" text-anchor="middle" dominant-baseline="middle" fill="#0f172a" font-size="14.0">Delete account</text></g><g data-dediren-node-id="raider-profile-service"><rect data-dediren-node-shape="archimate_rounded_rectangle" x="548.0" y="151.7" width="160.0" height="80.0" rx="4.0" fill="#e8f3ff" stroke="#2563eb" stroke-width="1.5"/><g data-dediren-node-decorator="archimate_application_service" data-dediren-icon-kind="service" data-dediren-icon-size="22"><rect x="680.0" y="160.7" width="22.0" height="13.6" rx="4.0" fill="#e8f3ff" stroke="#2563eb" stroke-width="1.5"/></g><text x="628.0" y="183.6" text-anchor="middle" dominant-baseline="middle" fill="#172554" font-size="14.0"><tspan x="628.0" dy="0">Raider profile</tspan><tspan x="628.0" dy="16.0">service</tspan></text></g><g data-dediren-node-id="cosmos-runs"><rect data-dediren-node-shape="archimate_rectangle" x="1492.0" y="228.0" width="160.0" height="80.0" rx="0" fill="#f7fee7" stroke="#65a30d" stroke-width="1.5"/><g data-dediren-node-decorator="archimate_artifact" data-dediren-icon-kind="artifact" data-dediren-icon-size="22"><path data-dediren-icon-part="artifact-document" d="M 1626.2 236.0 L 1636.8 236.0 L 1642.9 242.2 L 1642.9 255.8 L 1626.2 255.8 Z M 1636.8 236.0 L 1636.8 242.2 L 1642.9 242.2" fill="#f7fee7" stroke="#65a30d" stroke-width="1.5"/></g><text x="1572.0" y="268.0" text-anchor="middle" dominant-baseline="middle" fill="#365314" font-size="14.0">runs container</text></g><g data-dediren-node-id="cosmos-raiders"><rect data-dediren-node-shape="archimate_rectangle" x="1492.0" y="404.0" width="160.0" height="80.0" rx="0" fill="#f7fee7" stroke="#65a30d" stroke-width="1.5"/><g data-dediren-node-decorator="archimate_artifact" data-dediren-icon-kind="artifact" data-dediren-icon-size="22"><path data-dediren-icon-part="artifact-document" d="M 1626.2 412.0 L 1636.8 412.0 L 1642.9 418.2 L 1642.9 431.8 L 1626.2 431.8 Z M 1636.8 412.0 L 1636.8 418.2 L 1642.9 418.2" fill="#f7fee7" stroke="#65a30d" stroke-width="1.5"/></g><text x="1572.0" y="435.9" text-anchor="middle" dominant-baseline="middle" fill="#365314" font-size="14.0"><tspan x="1572.0" dy="0">raiders</tspan><tspan x="1572.0" dy="16.0">container</tspan></text></g><g data-dediren-node-id="cosmos-idempotency"><rect data-dediren-node-shape="archimate_rectangle" x="1492.0" y="52.0" width="160.0" height="80.0" rx="0" fill="#f7fee7" stroke="#65a30d" stroke-width="1.5"/><g data-dediren-node-decorator="archimate_artifact" data-dediren-icon-kind="artifact" data-dediren-icon-size="22"><path data-dediren-icon-part="artifact-document" d="M 1626.2 60.0 L 1636.8 60.0 L 1642.9 66.2 L 1642.9 79.8 L 1626.2 79.8 Z M 1636.8 60.0 L 1636.8 66.2 L 1642.9 66.2" fill="#f7fee7" stroke="#65a30d" stroke-width="1.5"/></g><text x="1572.0" y="84.0" text-anchor="middle" dominant-baseline="middle" fill="#365314" font-size="14.0"><tspan x="1572.0" dy="0">idempotency</tspan><tspan x="1572.0" dy="16.0">container</tspan></text></g></g></svg>

