<svg xmlns="http://www.w3.org/2000/svg" width="1649" height="1753" viewBox="-33.4 -12.0 1649.4 1753.0"><rect x="-33.4" y="-12.0" width="1649.4" height="1753.0" fill="#ffffff"/><g font-family="Inter, Arial, sans-serif" font-size="14.0"><g data-dediren-group-id="application-cooperation-lfm-owned"><rect x="460.0" y="252.0" width="1132.0" height="1465.0" rx="4.0" fill="#f8fafc" stroke="#94a3b8" stroke-width="1.0"/><text x="468.0" y="268.0" fill="#374151" font-size="12.0">LFM-owned application surface</text></g><g data-dediren-group-id="application-cooperation-external-blizzard"><rect x="12.0" y="12.0" width="240.0" height="652.0" rx="4.0" fill="#f8fafc" stroke="#94a3b8" stroke-width="1.0"/><text x="20.0" y="28.0" fill="#374151" font-size="12.0">External Blizzard dependencies</text></g><g data-dediren-edge-id="app-core-serves-app"><defs><marker id="marker-end-app-core-serves-app" data-dediren-edge-marker-end="open_arrow" markerWidth="9" markerHeight="9" refX="8" refY="4.5" orient="auto" markerUnits="strokeWidth"><path d="M 1 1 L 8 4.5 L 1 8" fill="none" stroke="#2563eb" stroke-width="1.3" stroke-linecap="round" stroke-linejoin="round"/></marker></defs><path d="M 848.0 1037.0 L 848.0 913.0 L 1456.0 913.0 L 1456.0 509.0" fill="none" stroke="#2563eb" stroke-width="1.5" marker-end="url(#marker-end-app-core-serves-app)"/><text x="1108.0" y="904.6" text-anchor="middle" fill="#1e3a8a" stroke="#ffffff" stroke-width="4" stroke-linejoin="round" paint-order="stroke">serves</text></g><g data-dediren-edge-id="contracts-serve-app"><defs><marker id="marker-end-contracts-serve-app" data-dediren-edge-marker-end="open_arrow" markerWidth="9" markerHeight="9" refX="8" refY="4.5" orient="auto" markerUnits="strokeWidth"><path d="M 1 1 L 8 4.5 L 1 8" fill="none" stroke="#2563eb" stroke-width="1.3" stroke-linecap="round" stroke-linejoin="round"/></marker></defs><path d="M 564.0 446.0 L 564.0 633.0 L 1456.0 633.0 L 1456.0 509.0" fill="none" stroke="#2563eb" stroke-width="1.5" marker-end="url(#marker-end-contracts-serve-app)"/><text x="1010.0" y="624.6" text-anchor="middle" fill="#1e3a8a" stroke="#ffffff" stroke-width="4" stroke-linejoin="round" paint-order="stroke">contracts</text></g><g data-dediren-edge-id="contracts-serve-core"><defs><marker id="marker-end-contracts-serve-core" data-dediren-edge-marker-end="open_arrow" markerWidth="9" markerHeight="9" refX="8" refY="4.5" orient="auto" markerUnits="strokeWidth"><path d="M 1 1 L 8 4.5 L 1 8" fill="none" stroke="#2563eb" stroke-width="1.3" stroke-linecap="round" stroke-linejoin="round"/></marker></defs><path d="M 564.0 446.0 L 564.0 925.0 L 842.0 925.0 Q 848.0 919.0 854.0 925.0 L 854.0 957.0 Q 854.0 957.0 848.0 957.0" fill="none" stroke="#2563eb" stroke-width="1.5" marker-end="url(#marker-end-contracts-serve-core)"/><text x="706.0" y="941.8" text-anchor="middle" fill="#1e3a8a" stroke="#ffffff" stroke-width="4" stroke-linejoin="round" paint-order="stroke">contracts</text></g><g data-dediren-edge-id="contracts-serve-api"><defs><marker id="marker-end-contracts-serve-api" data-dediren-edge-marker-end="open_arrow" markerWidth="9" markerHeight="9" refX="8" refY="4.5" orient="auto" markerUnits="strokeWidth"><path d="M 1 1 L 8 4.5 L 1 8" fill="none" stroke="#2563eb" stroke-width="1.3" stroke-linecap="round" stroke-linejoin="round"/></marker></defs><path d="M 564.0 446.0 L 564.0 425.5 L 848.0 425.5 L 848.0 405.0" fill="none" stroke="#2563eb" stroke-width="1.5" marker-end="url(#marker-end-contracts-serve-api)"/><text x="706.0" y="417.1" text-anchor="middle" fill="#1e3a8a" stroke="#ffffff" stroke-width="4" stroke-linejoin="round" paint-order="stroke">contracts</text></g><g data-dediren-edge-id="api-realizes-rest-api"><defs><marker id="marker-end-api-realizes-rest-api" data-dediren-edge-marker-end="hollow_triangle" markerWidth="10" markerHeight="10" refX="9" refY="5" orient="auto" markerUnits="strokeWidth"><path d="M 1 1 L 9 5 L 1 9 z" fill="#ffffff" stroke="#475569" stroke-width="1.2"/></marker></defs><g data-dediren-line-jump-masks="api-realizes-rest-api"><path d="M 848.0 627.0 Q 854.0 633.0 848.0 639.0" fill="none" stroke="#ffffff" stroke-width="5.5" stroke-linecap="round" stroke-linejoin="round"/></g><path d="M 848.0 485.0 L 848.0 627.0 Q 854.0 633.0 848.0 639.0 L 848.0 865.0 L 1172.0 865.0 L 1172.0 917.0" fill="none" stroke="#475569" stroke-width="1.5" stroke-dasharray="8 5" marker-end="url(#marker-end-api-realizes-rest-api)"/><text x="1058.4" y="881.8" text-anchor="middle" fill="#334155" stroke="#ffffff" stroke-width="4" stroke-linejoin="round" paint-order="stroke">exposes</text></g><g data-dediren-edge-id="rest-api-serves-app"><defs><marker id="marker-end-rest-api-serves-app" data-dediren-edge-marker-end="open_arrow" markerWidth="9" markerHeight="9" refX="8" refY="4.5" orient="auto" markerUnits="strokeWidth"><path d="M 1 1 L 8 4.5 L 1 8" fill="none" stroke="#2563eb" stroke-width="1.3" stroke-linecap="round" stroke-linejoin="round"/></marker></defs><path d="M 1172.0 997.0 L 1172.0 923.0 Q 1178.0 917.0 1178.0 917.0 L 1178.0 865.0 Q 1178.0 865.0 1178.0 865.0 L 1456.0 865.0 L 1456.0 509.0" fill="none" stroke="#2563eb" stroke-width="1.5" marker-end="url(#marker-end-rest-api-serves-app)"/><text x="1314.0" y="856.6" text-anchor="middle" fill="#1e3a8a" stroke="#ffffff" stroke-width="4" stroke-linejoin="round" paint-order="stroke">serves</text></g><g data-dediren-edge-id="api-realizes-auth-service"><defs><marker id="marker-end-api-realizes-auth-service" data-dediren-edge-marker-end="hollow_triangle" markerWidth="10" markerHeight="10" refX="9" refY="5" orient="auto" markerUnits="strokeWidth"><path d="M 1 1 L 9 5 L 1 9 z" fill="#ffffff" stroke="#475569" stroke-width="1.2"/></marker></defs><path d="M 848.0 485.0 L 848.0 425.0 L 1172.0 425.0 L 1172.0 365.0" fill="none" stroke="#475569" stroke-width="1.5" stroke-dasharray="8 5" marker-end="url(#marker-end-api-realizes-auth-service)"/><text x="1010.0" y="416.6" text-anchor="middle" fill="#334155" stroke="#ffffff" stroke-width="4" stroke-linejoin="round" paint-order="stroke">realizes</text></g><g data-dediren-edge-id="api-realizes-run-service"><defs><marker id="marker-end-api-realizes-run-service" data-dediren-edge-marker-end="hollow_triangle" markerWidth="10" markerHeight="10" refX="9" refY="5" orient="auto" markerUnits="strokeWidth"><path d="M 1 1 L 9 5 L 1 9 z" fill="#ffffff" stroke="#475569" stroke-width="1.2"/></marker></defs><g data-dediren-line-jump-masks="api-realizes-run-service"><path d="M 848.0 627.0 Q 854.0 633.0 848.0 639.0" fill="none" stroke="#ffffff" stroke-width="5.5" stroke-linecap="round" stroke-linejoin="round"/></g><path d="M 848.0 485.0 L 848.0 627.0 Q 854.0 633.0 848.0 639.0 L 848.0 681.0 L 1172.0 681.0 L 1172.0 733.0" fill="none" stroke="#475569" stroke-width="1.5" stroke-dasharray="8 5" marker-end="url(#marker-end-api-realizes-run-service)"/><text x="1062.7" y="697.8" text-anchor="middle" fill="#334155" stroke="#ffffff" stroke-width="4" stroke-linejoin="round" paint-order="stroke">realizes</text></g><g data-dediren-edge-id="api-realizes-guild-service"><defs><marker id="marker-end-api-realizes-guild-service" data-dediren-edge-marker-end="hollow_triangle" markerWidth="10" markerHeight="10" refX="9" refY="5" orient="auto" markerUnits="strokeWidth"><path d="M 1 1 L 9 5 L 1 9 z" fill="#ffffff" stroke="#475569" stroke-width="1.2"/></marker></defs><g data-dediren-line-jump-masks="api-realizes-guild-service"><path d="M 848.0 627.0 Q 854.0 633.0 848.0 639.0" fill="none" stroke="#ffffff" stroke-width="5.5" stroke-linecap="round" stroke-linejoin="round"/><path d="M 994.0 907.0 Q 1000.0 913.0 994.0 919.0" fill="none" stroke="#ffffff" stroke-width="5.5" stroke-linecap="round" stroke-linejoin="round"/></g><path d="M 848.0 485.0 L 848.0 627.0 Q 854.0 633.0 848.0 639.0 L 848.0 737.0 L 994.0 737.0 L 994.0 907.0 Q 1000.0 913.0 994.0 919.0 L 994.0 1451.0 L 1172.0 1451.0 L 1172.0 1537.0" fill="none" stroke="#475569" stroke-width="1.5" stroke-dasharray="8 5" marker-end="url(#marker-end-api-realizes-guild-service)"/><text x="1083.0" y="1467.8" text-anchor="middle" fill="#334155" stroke="#ffffff" stroke-width="4" stroke-linejoin="round" paint-order="stroke">realizes</text></g><g data-dediren-edge-id="api-realizes-raider-service"><defs><marker id="marker-end-api-realizes-raider-service" data-dediren-edge-marker-end="hollow_triangle" markerWidth="10" markerHeight="10" refX="9" refY="5" orient="auto" markerUnits="strokeWidth"><path d="M 1 1 L 9 5 L 1 9 z" fill="#ffffff" stroke="#475569" stroke-width="1.2"/></marker></defs><g data-dediren-line-jump-masks="api-realizes-raider-service"><path d="M 848.0 627.0 Q 854.0 633.0 848.0 639.0" fill="none" stroke="#ffffff" stroke-width="5.5" stroke-linecap="round" stroke-linejoin="round"/><path d="M 1026.0 907.0 Q 1032.0 913.0 1026.0 919.0" fill="none" stroke="#ffffff" stroke-width="5.5" stroke-linecap="round" stroke-linejoin="round"/></g><path d="M 848.0 485.0 L 848.0 627.0 Q 854.0 633.0 848.0 639.0 L 848.0 705.0 L 1026.0 705.0 L 1026.0 907.0 Q 1032.0 913.0 1026.0 919.0 L 1026.0 1037.1 L 1172.0 1037.1 L 1172.0 1101.0" fill="none" stroke="#475569" stroke-width="1.5" stroke-dasharray="8 5" marker-end="url(#marker-end-api-realizes-raider-service)"/><text x="1099.0" y="1053.9" text-anchor="middle" fill="#334155" stroke="#ffffff" stroke-width="4" stroke-linejoin="round" paint-order="stroke">realizes</text></g><g data-dediren-edge-id="api-realizes-reference-service"><defs><marker id="marker-end-api-realizes-reference-service" data-dediren-edge-marker-end="hollow_triangle" markerWidth="10" markerHeight="10" refX="9" refY="5" orient="auto" markerUnits="strokeWidth"><path d="M 1 1 L 9 5 L 1 9 z" fill="#ffffff" stroke="#475569" stroke-width="1.2"/></marker></defs><path d="M 848.0 485.0 L 848.0 529.8 L 1172.0 529.8 L 1172.0 549.0" fill="none" stroke="#475569" stroke-width="1.5" stroke-dasharray="8 5" marker-end="url(#marker-end-api-realizes-reference-service)"/><text x="1010.0" y="546.6" text-anchor="middle" fill="#334155" stroke="#ffffff" stroke-width="4" stroke-linejoin="round" paint-order="stroke">realizes</text></g><g data-dediren-edge-id="api-realizes-ops-service"><defs><marker id="marker-end-api-realizes-ops-service" data-dediren-edge-marker-end="hollow_triangle" markerWidth="10" markerHeight="10" refX="9" refY="5" orient="auto" markerUnits="strokeWidth"><path d="M 1 1 L 9 5 L 1 9 z" fill="#ffffff" stroke="#475569" stroke-width="1.2"/></marker></defs><g data-dediren-line-jump-masks="api-realizes-ops-service"><path d="M 848.0 627.0 Q 854.0 633.0 848.0 639.0" fill="none" stroke="#ffffff" stroke-width="5.5" stroke-linecap="round" stroke-linejoin="round"/><path d="M 1010.0 907.0 Q 1016.0 913.0 1010.0 919.0" fill="none" stroke="#ffffff" stroke-width="5.5" stroke-linecap="round" stroke-linejoin="round"/></g><path d="M 848.0 485.0 L 848.0 627.0 Q 854.0 633.0 848.0 639.0 L 848.0 721.0 L 1010.0 721.0 L 1010.0 907.0 Q 1016.0 913.0 1010.0 919.0 L 1010.0 1233.0 L 1172.0 1233.0 L 1172.0 1285.0" fill="none" stroke="#475569" stroke-width="1.5" stroke-dasharray="8 5" marker-end="url(#marker-end-api-realizes-ops-service)"/><text x="1091.0" y="1249.8" text-anchor="middle" fill="#334155" stroke="#ffffff" stroke-width="4" stroke-linejoin="round" paint-order="stroke">realizes</text></g><g data-dediren-edge-id="auth-service-serves-app"><defs><marker id="marker-end-auth-service-serves-app" data-dediren-edge-marker-end="open_arrow" markerWidth="9" markerHeight="9" refX="8" refY="4.5" orient="auto" markerUnits="strokeWidth"><path d="M 1 1 L 8 4.5 L 1 8" fill="none" stroke="#2563eb" stroke-width="1.3" stroke-linecap="round" stroke-linejoin="round"/></marker></defs><path d="M 1172.0 445.0 L 1172.0 467.4 L 1456.0 467.4 L 1456.0 509.0" fill="none" stroke="#2563eb" stroke-width="1.5" marker-end="url(#marker-end-auth-service-serves-app)"/><text x="1314.0" y="484.2" text-anchor="middle" fill="#1e3a8a" stroke="#ffffff" stroke-width="4" stroke-linejoin="round" paint-order="stroke">serves</text></g><g data-dediren-edge-id="run-service-serves-app"><defs><marker id="marker-end-run-service-serves-app" data-dediren-edge-marker-end="open_arrow" markerWidth="9" markerHeight="9" refX="8" refY="4.5" orient="auto" markerUnits="strokeWidth"><path d="M 1 1 L 8 4.5 L 1 8" fill="none" stroke="#2563eb" stroke-width="1.3" stroke-linecap="round" stroke-linejoin="round"/></marker></defs><path d="M 1172.0 813.0 L 1172.0 739.0 Q 1178.0 733.0 1178.0 733.0 L 1178.0 681.0 Q 1178.0 675.0 1172.0 675.0 L 1172.0 661.0 L 1456.0 661.0 L 1456.0 509.0" fill="none" stroke="#2563eb" stroke-width="1.5" marker-end="url(#marker-end-run-service-serves-app)"/><text x="1314.0" y="652.6" text-anchor="middle" fill="#1e3a8a" stroke="#ffffff" stroke-width="4" stroke-linejoin="round" paint-order="stroke">serves</text></g><g data-dediren-edge-id="guild-service-serves-app"><defs><marker id="marker-end-guild-service-serves-app" data-dediren-edge-marker-end="open_arrow" markerWidth="9" markerHeight="9" refX="8" refY="4.5" orient="auto" markerUnits="strokeWidth"><path d="M 1 1 L 8 4.5 L 1 8" fill="none" stroke="#2563eb" stroke-width="1.3" stroke-linecap="round" stroke-linejoin="round"/></marker></defs><path d="M 1172.0 1617.0 L 1172.0 1543.0 Q 1178.0 1537.0 1178.0 1537.0 L 1178.0 1451.0 Q 1178.0 1445.0 1172.0 1445.0 L 1172.0 1403.0 L 1456.0 1403.0 L 1456.0 509.0" fill="none" stroke="#2563eb" stroke-width="1.5" marker-end="url(#marker-end-guild-service-serves-app)"/><text x="1314.0" y="1394.6" text-anchor="middle" fill="#1e3a8a" stroke="#ffffff" stroke-width="4" stroke-linejoin="round" paint-order="stroke">serves</text></g><g data-dediren-edge-id="raider-service-serves-app"><defs><marker id="marker-end-raider-service-serves-app" data-dediren-edge-marker-end="open_arrow" markerWidth="9" markerHeight="9" refX="8" refY="4.5" orient="auto" markerUnits="strokeWidth"><path d="M 1 1 L 8 4.5 L 1 8" fill="none" stroke="#2563eb" stroke-width="1.3" stroke-linecap="round" stroke-linejoin="round"/></marker></defs><path d="M 1172.0 1181.0 L 1172.0 1107.0 Q 1178.0 1101.0 1178.0 1101.0 L 1178.0 1085.1 Q 1178.0 1085.1 1178.0 1085.1 L 1456.0 1085.1 L 1456.0 509.0" fill="none" stroke="#2563eb" stroke-width="1.5" marker-end="url(#marker-end-raider-service-serves-app)"/><text x="1314.0" y="1076.7" text-anchor="middle" fill="#1e3a8a" stroke="#ffffff" stroke-width="4" stroke-linejoin="round" paint-order="stroke">serves</text></g><g data-dediren-edge-id="reference-service-serves-app"><defs><marker id="marker-end-reference-service-serves-app" data-dediren-edge-marker-end="open_arrow" markerWidth="9" markerHeight="9" refX="8" refY="4.5" orient="auto" markerUnits="strokeWidth"><path d="M 1 1 L 8 4.5 L 1 8" fill="none" stroke="#2563eb" stroke-width="1.3" stroke-linecap="round" stroke-linejoin="round"/></marker></defs><path d="M 1172.0 629.0 L 1172.0 569.0 L 1456.0 569.0 L 1456.0 509.0" fill="none" stroke="#2563eb" stroke-width="1.5" marker-end="url(#marker-end-reference-service-serves-app)"/><text x="1314.0" y="560.6" text-anchor="middle" fill="#1e3a8a" stroke="#ffffff" stroke-width="4" stroke-linejoin="round" paint-order="stroke">serves</text></g><g data-dediren-edge-id="ops-service-serves-app"><defs><marker id="marker-end-ops-service-serves-app" data-dediren-edge-marker-end="open_arrow" markerWidth="9" markerHeight="9" refX="8" refY="4.5" orient="auto" markerUnits="strokeWidth"><path d="M 1 1 L 8 4.5 L 1 8" fill="none" stroke="#2563eb" stroke-width="1.3" stroke-linecap="round" stroke-linejoin="round"/></marker></defs><path d="M 1172.0 1365.0 L 1172.0 1291.0 Q 1178.0 1285.0 1178.0 1285.0 L 1178.0 1233.0 Q 1178.0 1227.0 1172.0 1227.0 L 1172.0 1185.0 L 1456.0 1185.0 L 1456.0 509.0" fill="none" stroke="#2563eb" stroke-width="1.5" marker-end="url(#marker-end-ops-service-serves-app)"/><text x="1314.0" y="1176.6" text-anchor="middle" fill="#1e3a8a" stroke="#ffffff" stroke-width="4" stroke-linejoin="round" paint-order="stroke">serves</text></g><g data-dediren-edge-id="battlenet-oauth-serves-api"><defs><marker id="marker-end-battlenet-oauth-serves-api" data-dediren-edge-marker-end="open_arrow" markerWidth="9" markerHeight="9" refX="8" refY="4.5" orient="auto" markerUnits="strokeWidth"><path d="M 1 1 L 8 4.5 L 1 8" fill="none" stroke="#2563eb" stroke-width="1.3" stroke-linecap="round" stroke-linejoin="round"/></marker></defs><g data-dediren-line-jump-masks="battlenet-oauth-serves-api"><path d="M 558.0 448.0 Q 564.0 442.0 570.0 448.0" fill="none" stroke="#ffffff" stroke-width="5.5" stroke-linecap="round" stroke-linejoin="round"/><path d="M 842.0 448.0 Q 848.0 442.0 854.0 448.0" fill="none" stroke="#ffffff" stroke-width="5.5" stroke-linecap="round" stroke-linejoin="round"/></g><path d="M 68.0 408.0 L 36.0 408.0 L 36.0 448.0 L 558.0 448.0 Q 564.0 442.0 570.0 448.0 L 842.0 448.0 Q 848.0 442.0 854.0 448.0 L 960.0 448.0 L 960.0 445.0 L 928.0 445.0" fill="none" stroke="#2563eb" stroke-width="1.5" marker-end="url(#marker-end-battlenet-oauth-serves-api)"/><text x="12.3" y="424.8" text-anchor="middle" fill="#1e3a8a" stroke="#ffffff" stroke-width="4" stroke-linejoin="round" paint-order="stroke">OAuth</text></g><g data-dediren-edge-id="profile-api-serves-api"><defs><marker id="marker-end-profile-api-serves-api" data-dediren-edge-marker-end="open_arrow" markerWidth="9" markerHeight="9" refX="8" refY="4.5" orient="auto" markerUnits="strokeWidth"><path d="M 1 1 L 8 4.5 L 1 8" fill="none" stroke="#2563eb" stroke-width="1.3" stroke-linecap="round" stroke-linejoin="round"/></marker></defs><g data-dediren-line-jump-masks="profile-api-serves-api"><path d="M 842.0 445.0 Q 848.0 439.0 854.0 445.0" fill="none" stroke="#ffffff" stroke-width="5.5" stroke-linecap="round" stroke-linejoin="round"/></g><path d="M 68.0 264.0 L 800.0 264.0 L 800.0 445.0 L 842.0 445.0 Q 848.0 439.0 854.0 445.0 L 928.0 445.0" fill="none" stroke="#2563eb" stroke-width="1.5" marker-end="url(#marker-end-profile-api-serves-api)"/><text x="434.0" y="280.8" text-anchor="middle" fill="#1e3a8a" stroke="#ffffff" stroke-width="4" stroke-linejoin="round" paint-order="stroke">profile data</text></g><g data-dediren-edge-id="game-data-api-serves-api"><defs><marker id="marker-end-game-data-api-serves-api" data-dediren-edge-marker-end="open_arrow" markerWidth="9" markerHeight="9" refX="8" refY="4.5" orient="auto" markerUnits="strokeWidth"><path d="M 1 1 L 8 4.5 L 1 8" fill="none" stroke="#2563eb" stroke-width="1.3" stroke-linecap="round" stroke-linejoin="round"/></marker></defs><g data-dediren-line-jump-masks="game-data-api-serves-api"><path d="M 558.0 552.0 Q 564.0 546.0 570.0 552.0" fill="none" stroke="#ffffff" stroke-width="5.5" stroke-linecap="round" stroke-linejoin="round"/><path d="M 842.0 445.0 Q 848.0 439.0 854.0 445.0" fill="none" stroke="#ffffff" stroke-width="5.5" stroke-linecap="round" stroke-linejoin="round"/></g><path d="M 68.0 552.0 L 558.0 552.0 Q 564.0 546.0 570.0 552.0 L 800.0 552.0 L 800.0 445.0 L 842.0 445.0 Q 848.0 439.0 854.0 445.0 L 928.0 445.0" fill="none" stroke="#2563eb" stroke-width="1.5" marker-end="url(#marker-end-game-data-api-serves-api)"/><text x="434.0" y="543.6" text-anchor="middle" fill="#1e3a8a" stroke="#ffffff" stroke-width="4" stroke-linejoin="round" paint-order="stroke">game data</text></g><g data-dediren-edge-id="render-cdn-serves-app"><defs><marker id="marker-end-render-cdn-serves-app" data-dediren-edge-marker-end="open_arrow" markerWidth="9" markerHeight="9" refX="8" refY="4.5" orient="auto" markerUnits="strokeWidth"><path d="M 1 1 L 8 4.5 L 1 8" fill="none" stroke="#2563eb" stroke-width="1.3" stroke-linecap="round" stroke-linejoin="round"/></marker></defs><g data-dediren-line-jump-masks="render-cdn-serves-app"><path d="M 1408.0 461.4 Q 1414.0 467.4 1408.0 473.4" fill="none" stroke="#ffffff" stroke-width="5.5" stroke-linecap="round" stroke-linejoin="round"/><path d="M 1450.0 549.0 Q 1456.0 543.0 1462.0 549.0" fill="none" stroke="#ffffff" stroke-width="5.5" stroke-linecap="round" stroke-linejoin="round"/></g><path d="M 68.0 124.0 L 1408.0 124.0 L 1408.0 461.4 Q 1414.0 467.4 1408.0 473.4 L 1408.0 549.0 L 1450.0 549.0 Q 1456.0 543.0 1462.0 549.0 L 1536.0 549.0" fill="none" stroke="#2563eb" stroke-width="1.5" marker-end="url(#marker-end-render-cdn-serves-app)"/><text x="738.0" y="140.8" text-anchor="middle" fill="#1e3a8a" stroke="#ffffff" stroke-width="4" stroke-linejoin="round" paint-order="stroke">images</text></g><g data-dediren-node-id="lfm-app"><rect data-dediren-node-shape="archimate_rectangle" x="1376.0" y="509.0" width="160.0" height="80.0" rx="0" fill="#e8f3ff" stroke="#2563eb" stroke-width="1.5"/><g data-dediren-node-decorator="archimate_application_component" data-dediren-icon-kind="component" data-dediren-icon-size="22"><rect x="1512.0" y="518.0" width="18.0" height="15.8" rx="1.5" fill="#e8f3ff" stroke="#2563eb" stroke-width="1.5"/><rect x="1508.0" y="520.6" width="7.9" height="5.7" rx="1.2" fill="#e8f3ff" stroke="#2563eb" stroke-width="1.5"/><rect x="1508.0" y="527.7" width="7.9" height="5.7" rx="1.2" fill="#e8f3ff" stroke="#2563eb" stroke-width="1.5"/></g><text x="1456.0" y="549.0" text-anchor="middle" dominant-baseline="middle" fill="#172554" font-size="14.0">Lfm.App</text></g><g data-dediren-node-id="lfm-app-core"><rect data-dediren-node-shape="archimate_rectangle" x="768.0" y="957.0" width="160.0" height="80.0" rx="0" fill="#e8f3ff" stroke="#2563eb" stroke-width="1.5"/><g data-dediren-node-decorator="archimate_application_component" data-dediren-icon-kind="component" data-dediren-icon-size="22"><rect x="904.0" y="966.0" width="18.0" height="15.8" rx="1.5" fill="#e8f3ff" stroke="#2563eb" stroke-width="1.5"/><rect x="900.0" y="968.6" width="7.9" height="5.7" rx="1.2" fill="#e8f3ff" stroke="#2563eb" stroke-width="1.5"/><rect x="900.0" y="975.7" width="7.9" height="5.7" rx="1.2" fill="#e8f3ff" stroke="#2563eb" stroke-width="1.5"/></g><text x="848.0" y="997.0" text-anchor="middle" dominant-baseline="middle" fill="#172554" font-size="14.0">Lfm.App.Core</text></g><g data-dediren-node-id="lfm-contracts"><rect data-dediren-node-shape="archimate_rectangle" x="484.0" y="366.0" width="160.0" height="80.0" rx="0" fill="#e8f3ff" stroke="#2563eb" stroke-width="1.5"/><g data-dediren-node-decorator="archimate_application_component" data-dediren-icon-kind="component" data-dediren-icon-size="22"><rect x="620.0" y="375.0" width="18.0" height="15.8" rx="1.5" fill="#e8f3ff" stroke="#2563eb" stroke-width="1.5"/><rect x="616.0" y="377.6" width="7.9" height="5.7" rx="1.2" fill="#e8f3ff" stroke="#2563eb" stroke-width="1.5"/><rect x="616.0" y="384.7" width="7.9" height="5.7" rx="1.2" fill="#e8f3ff" stroke="#2563eb" stroke-width="1.5"/></g><text x="564.0" y="406.0" text-anchor="middle" dominant-baseline="middle" fill="#172554" font-size="14.0">Lfm.Contracts</text></g><g data-dediren-node-id="lfm-api"><rect data-dediren-node-shape="archimate_rectangle" x="768.0" y="405.0" width="160.0" height="80.0" rx="0" fill="#e8f3ff" stroke="#2563eb" stroke-width="1.5"/><g data-dediren-node-decorator="archimate_application_component" data-dediren-icon-kind="component" data-dediren-icon-size="22"><rect x="904.0" y="414.0" width="18.0" height="15.8" rx="1.5" fill="#e8f3ff" stroke="#2563eb" stroke-width="1.5"/><rect x="900.0" y="416.6" width="7.9" height="5.7" rx="1.2" fill="#e8f3ff" stroke="#2563eb" stroke-width="1.5"/><rect x="900.0" y="423.7" width="7.9" height="5.7" rx="1.2" fill="#e8f3ff" stroke="#2563eb" stroke-width="1.5"/></g><text x="848.0" y="445.0" text-anchor="middle" dominant-baseline="middle" fill="#172554" font-size="14.0">Lfm.Api</text></g><g data-dediren-node-id="rest-api"><rect data-dediren-node-shape="archimate_rectangle" x="1092.0" y="917.0" width="160.0" height="80.0" rx="0" fill="#e8f3ff" stroke="#2563eb" stroke-width="1.5"/><g data-dediren-node-decorator="archimate_application_interface" data-dediren-icon-kind="interface" data-dediren-icon-size="22"><ellipse cx="1239.8" cy="932.2" rx="4.0" ry="4.0" fill="#e8f3ff" stroke="#2563eb" stroke-width="1.5"/><path d="M 1226.2 932.2 L 1235.9 932.2" fill="none" stroke="#2563eb" stroke-width="1.5"/></g><text x="1172.0" y="949.0" text-anchor="middle" dominant-baseline="middle" fill="#172554" font-size="14.0"><tspan x="1172.0" dy="0">REST API</tspan><tspan x="1172.0" dy="16.0">(/api/v1/*)</tspan></text></g><g data-dediren-node-id="auth-session-service"><rect data-dediren-node-shape="archimate_rounded_rectangle" x="1092.0" y="365.0" width="160.0" height="80.0" rx="4.0" fill="#e8f3ff" stroke="#2563eb" stroke-width="1.5"/><g data-dediren-node-decorator="archimate_application_service" data-dediren-icon-kind="service" data-dediren-icon-size="22"><rect x="1224.0" y="374.0" width="22.0" height="13.6" rx="4.0" fill="#e8f3ff" stroke="#2563eb" stroke-width="1.5"/></g><text x="1172.0" y="396.9" text-anchor="middle" dominant-baseline="middle" fill="#172554" font-size="14.0"><tspan x="1172.0" dy="0">Auth and session</tspan><tspan x="1172.0" dy="16.0">service</tspan></text></g><g data-dediren-node-id="run-management-service"><rect data-dediren-node-shape="archimate_rounded_rectangle" x="1092.0" y="733.0" width="160.0" height="80.0" rx="4.0" fill="#e8f3ff" stroke="#2563eb" stroke-width="1.5"/><g data-dediren-node-decorator="archimate_application_service" data-dediren-icon-kind="service" data-dediren-icon-size="22"><rect x="1224.0" y="742.0" width="22.0" height="13.6" rx="4.0" fill="#e8f3ff" stroke="#2563eb" stroke-width="1.5"/></g><text x="1172.0" y="765.0" text-anchor="middle" dominant-baseline="middle" fill="#172554" font-size="14.0"><tspan x="1172.0" dy="0">Run management</tspan><tspan x="1172.0" dy="16.0">service</tspan></text></g><g data-dediren-node-id="guild-service"><rect data-dediren-node-shape="archimate_rounded_rectangle" x="1092.0" y="1537.0" width="160.0" height="80.0" rx="4.0" fill="#e8f3ff" stroke="#2563eb" stroke-width="1.5"/><g data-dediren-node-decorator="archimate_application_service" data-dediren-icon-kind="service" data-dediren-icon-size="22"><rect x="1224.0" y="1546.0" width="22.0" height="13.6" rx="4.0" fill="#e8f3ff" stroke="#2563eb" stroke-width="1.5"/></g><text x="1172.0" y="1577.0" text-anchor="middle" dominant-baseline="middle" fill="#172554" font-size="14.0">Guild service</text></g><g data-dediren-node-id="raider-profile-service"><rect data-dediren-node-shape="archimate_rounded_rectangle" x="1092.0" y="1101.0" width="160.0" height="80.0" rx="4.0" fill="#e8f3ff" stroke="#2563eb" stroke-width="1.5"/><g data-dediren-node-decorator="archimate_application_service" data-dediren-icon-kind="service" data-dediren-icon-size="22"><rect x="1224.0" y="1110.0" width="22.0" height="13.6" rx="4.0" fill="#e8f3ff" stroke="#2563eb" stroke-width="1.5"/></g><text x="1172.0" y="1133.0" text-anchor="middle" dominant-baseline="middle" fill="#172554" font-size="14.0"><tspan x="1172.0" dy="0">Raider profile</tspan><tspan x="1172.0" dy="16.0">service</tspan></text></g><g data-dediren-node-id="wow-reference-service"><rect data-dediren-node-shape="archimate_rounded_rectangle" x="1092.0" y="549.0" width="160.0" height="80.0" rx="4.0" fill="#e8f3ff" stroke="#2563eb" stroke-width="1.5"/><g data-dediren-node-decorator="archimate_application_service" data-dediren-icon-kind="service" data-dediren-icon-size="22"><rect x="1224.0" y="558.0" width="22.0" height="13.6" rx="4.0" fill="#e8f3ff" stroke="#2563eb" stroke-width="1.5"/></g><text x="1172.0" y="581.0" text-anchor="middle" dominant-baseline="middle" fill="#172554" font-size="14.0"><tspan x="1172.0" dy="0">WoW reference</tspan><tspan x="1172.0" dy="16.0">service</tspan></text></g><g data-dediren-node-id="ops-health-service"><rect data-dediren-node-shape="archimate_rounded_rectangle" x="1092.0" y="1285.0" width="160.0" height="80.0" rx="4.0" fill="#e8f3ff" stroke="#2563eb" stroke-width="1.5"/><g data-dediren-node-decorator="archimate_application_service" data-dediren-icon-kind="service" data-dediren-icon-size="22"><rect x="1224.0" y="1294.0" width="22.0" height="13.6" rx="4.0" fill="#e8f3ff" stroke="#2563eb" stroke-width="1.5"/></g><text x="1172.0" y="1317.0" text-anchor="middle" dominant-baseline="middle" fill="#172554" font-size="14.0"><tspan x="1172.0" dy="0">Operational</tspan><tspan x="1172.0" dy="16.0">health service</tspan></text></g><g data-dediren-node-id="battlenet-oauth"><rect data-dediren-node-shape="archimate_rounded_rectangle" x="68.0" y="368.0" width="160.0" height="80.0" rx="4.0" fill="#e8f3ff" stroke="#2563eb" stroke-width="1.5"/><g data-dediren-node-decorator="archimate_application_service" data-dediren-icon-kind="service" data-dediren-icon-size="22"><rect x="200.0" y="377.0" width="22.0" height="13.6" rx="4.0" fill="#e8f3ff" stroke="#2563eb" stroke-width="1.5"/></g><text x="148.0" y="399.9" text-anchor="middle" dominant-baseline="middle" fill="#172554" font-size="14.0"><tspan x="148.0" dy="0">Battle.net OAuth</tspan><tspan x="148.0" dy="16.0">2.0</tspan></text></g><g data-dediren-node-id="blizzard-profile-api"><rect data-dediren-node-shape="archimate_rounded_rectangle" x="68.0" y="224.0" width="160.0" height="80.0" rx="4.0" fill="#e8f3ff" stroke="#2563eb" stroke-width="1.5"/><g data-dediren-node-decorator="archimate_application_service" data-dediren-icon-kind="service" data-dediren-icon-size="22"><rect x="200.0" y="233.0" width="22.0" height="13.6" rx="4.0" fill="#e8f3ff" stroke="#2563eb" stroke-width="1.5"/></g><text x="148.0" y="264.0" text-anchor="middle" dominant-baseline="middle" fill="#172554" font-size="14.0">WoW Profile API</text></g><g data-dediren-node-id="blizzard-game-data-api"><rect data-dediren-node-shape="archimate_rounded_rectangle" x="68.0" y="512.0" width="160.0" height="80.0" rx="4.0" fill="#e8f3ff" stroke="#2563eb" stroke-width="1.5"/><g data-dediren-node-decorator="archimate_application_service" data-dediren-icon-kind="service" data-dediren-icon-size="22"><rect x="200.0" y="521.0" width="22.0" height="13.6" rx="4.0" fill="#e8f3ff" stroke="#2563eb" stroke-width="1.5"/></g><text x="148.0" y="544.0" text-anchor="middle" dominant-baseline="middle" fill="#172554" font-size="14.0"><tspan x="148.0" dy="0">WoW Game Data</tspan><tspan x="148.0" dy="16.0">API</tspan></text></g><g data-dediren-node-id="blizzard-render-cdn"><rect data-dediren-node-shape="archimate_rounded_rectangle" x="68.0" y="84.0" width="160.0" height="80.0" rx="4.0" fill="#e8f3ff" stroke="#2563eb" stroke-width="1.5"/><g data-dediren-node-decorator="archimate_application_service" data-dediren-icon-kind="service" data-dediren-icon-size="22"><rect x="200.0" y="93.0" width="22.0" height="13.6" rx="4.0" fill="#e8f3ff" stroke="#2563eb" stroke-width="1.5"/></g><text x="148.0" y="116.0" text-anchor="middle" dominant-baseline="middle" fill="#172554" font-size="14.0"><tspan x="148.0" dy="0">Blizzard Render</tspan><tspan x="148.0" dy="16.0">CDN</tspan></text></g></g></svg>

