<svg xmlns="http://www.w3.org/2000/svg" width="3132" height="887" viewBox="-12.0 -9.5 3132.0 887.2"><rect x="-12.0" y="-9.5" width="3132.0" height="887.2" fill="#ffffff"/><g font-family="Inter, Arial, sans-serif" font-size="14.0"><g data-dediren-group-id="production-release-local-gates"><rect x="12.0" y="282.3" width="272.0" height="268.0" rx="4.0" fill="#f8fafc" stroke="#94a3b8" stroke-width="1.0"/><text x="20.0" y="298.3" fill="#374151" font-size="12.0">Local repository gates</text></g><g data-dediren-group-id="production-release-orchestration"><rect x="492.0" y="437.7" width="836.0" height="416.0" rx="4.0" fill="#f8fafc" stroke="#94a3b8" stroke-width="1.0"/><text x="500.0" y="453.7" fill="#374151" font-size="12.0">Deploy orchestration</text></g><g data-dediren-group-id="production-release-quality-gates"><rect x="1496.0" y="150.0" width="336.0" height="268.0" rx="4.0" fill="#f8fafc" stroke="#94a3b8" stroke-width="1.0"/><text x="1504.0" y="166.0" fill="#374151" font-size="12.0">Deployment quality gates</text></g><g data-dediren-group-id="production-release-build-and-deploy"><rect x="2040.0" y="14.5" width="616.0" height="712.0" rx="4.0" fill="#f8fafc" stroke="#94a3b8" stroke-width="1.0"/><text x="2048.0" y="30.5" fill="#374151" font-size="12.0">Build and deploy stages</text></g><g data-dediren-group-id="production-release-deployed-runtime"><rect x="2824.0" y="50.2" width="272.0" height="688.0" rx="4.0" fill="#f8fafc" stroke="#94a3b8" stroke-width="1.0"/><text x="2832.0" y="66.2" fill="#374151" font-size="12.0">Production runtime</text></g><g data-dediren-edge-id="pre-commit-guards-repository"><path d="M 196.0 499.7 L 388.0 499.7 L 388.0 515.0 L 580.0 515.0" fill="none" stroke="#64748b" stroke-width="1.5"/><text x="292.0" y="516.5" text-anchor="middle" fill="#374151" stroke="#ffffff" stroke-width="4" stroke-linejoin="round" paint-order="stroke">blocks secret staging</text></g><g data-dediren-edge-id="pre-commit-complements-secret-scan"><path d="M 196.0 473.0 L 228.0 473.0 L 228.0 200.7 L 1584.0 200.7" fill="none" stroke="#64748b" stroke-width="1.5"/><text x="342.8" y="464.6" text-anchor="middle" fill="#374151" stroke="#ffffff" stroke-width="4" stroke-linejoin="round" paint-order="stroke">local + CI secret controls</text></g><g data-dediren-edge-id="pre-push-guards-repository"><g data-dediren-line-jump-masks="pre-push-guards-repository"><path d="M 222.0 346.3 Q 228.0 340.3 234.0 346.3" fill="none" stroke="#ffffff" stroke-width="5.5" stroke-linecap="round" stroke-linejoin="round"/></g><path d="M 196.0 346.3 L 222.0 346.3 Q 228.0 340.3 234.0 346.3 L 396.0 346.3 L 396.0 488.3 L 580.0 488.3" fill="none" stroke="#64748b" stroke-width="1.5"/><text x="392.1" y="363.1" text-anchor="middle" fill="#374151" stroke="#ffffff" stroke-width="4" stroke-linejoin="round" paint-order="stroke">local verification</text></g><g data-dediren-edge-id="repository-triggers-deploy-workflow"><defs><marker id="marker-end-repository-triggers-deploy-workflow" data-dediren-edge-marker-end="filled_arrow" markerWidth="8" markerHeight="8" refX="8" refY="4" orient="auto" markerUnits="strokeWidth"><path d="M 0 0 L 8 4 L 0 8 z" fill="#b45309"/></marker></defs><path d="M 660.0 541.7 L 660.0 573.7 L 940.0 573.7 L 940.0 605.7" fill="none" stroke="#b45309" stroke-width="1.5" marker-end="url(#marker-end-repository-triggers-deploy-workflow)"/><text x="800.0" y="590.5" text-anchor="middle" fill="#92400e" stroke="#ffffff" stroke-width="4" stroke-linejoin="round" paint-order="stroke">push/manual</text></g><g data-dediren-edge-id="deploy-workflow-composes-infra"><defs><marker id="marker-start-deploy-workflow-composes-infra" data-dediren-edge-marker-start="filled_diamond" markerWidth="10" markerHeight="10" refX="1" refY="5" orient="auto" markerUnits="strokeWidth"><path d="M 1 5 L 5 1 L 9 5 L 5 9 z" fill="#475569" stroke="#475569" stroke-width="1.1"/></marker></defs><path d="M 1020.0 632.3 L 1052.0 632.3 L 1052.0 451.7 L 2096.0 451.7 L 2096.0 386.5 L 2128.0 386.5" fill="none" stroke="#475569" stroke-width="1.5" marker-start="url(#marker-start-deploy-workflow-composes-infra)"/><text x="2072.3" y="414.1" text-anchor="middle" fill="#334155" stroke="#ffffff" stroke-width="4" stroke-linejoin="round" paint-order="stroke">infra</text></g><g data-dediren-edge-id="deploy-workflow-composes-secret-scan"><defs><marker id="marker-start-deploy-workflow-composes-secret-scan" data-dediren-edge-marker-start="filled_diamond" markerWidth="10" markerHeight="10" refX="1" refY="5" orient="auto" markerUnits="strokeWidth"><path d="M 1 5 L 5 1 L 9 5 L 5 9 z" fill="#475569" stroke="#475569" stroke-width="1.1"/></marker></defs><path d="M 1020.0 632.3 L 1242.0 632.3 L 1242.0 227.3 L 1584.0 227.3" fill="none" stroke="#475569" stroke-width="1.5" marker-start="url(#marker-start-deploy-workflow-composes-secret-scan)"/><text x="1413.0" y="218.9" text-anchor="middle" fill="#334155" stroke="#ffffff" stroke-width="4" stroke-linejoin="round" paint-order="stroke">secret gate</text></g><g data-dediren-edge-id="deploy-workflow-composes-infra-analysis"><defs><marker id="marker-start-deploy-workflow-composes-infra-analysis" data-dediren-edge-marker-start="filled_diamond" markerWidth="10" markerHeight="10" refX="1" refY="5" orient="auto" markerUnits="strokeWidth"><path d="M 1 5 L 5 1 L 9 5 L 5 9 z" fill="#475569" stroke="#475569" stroke-width="1.1"/></marker></defs><path d="M 1020.0 632.3 L 1258.0 632.3 L 1258.0 354.0 L 1584.0 354.0" fill="none" stroke="#475569" stroke-width="1.5" marker-start="url(#marker-start-deploy-workflow-composes-infra-analysis)"/><text x="1421.0" y="345.6" text-anchor="middle" fill="#334155" stroke="#ffffff" stroke-width="4" stroke-linejoin="round" paint-order="stroke">infra analysis</text></g><g data-dediren-edge-id="deploy-workflow-composes-build"><defs><marker id="marker-start-deploy-workflow-composes-build" data-dediren-edge-marker-start="filled_diamond" markerWidth="10" markerHeight="10" refX="1" refY="5" orient="auto" markerUnits="strokeWidth"><path d="M 1 5 L 5 1 L 9 5 L 5 9 z" fill="#475569" stroke="#475569" stroke-width="1.1"/></marker></defs><g data-dediren-line-jump-masks="deploy-workflow-composes-build"><path d="M 1226.0 206.7 Q 1232.0 200.7 1226.0 194.7" fill="none" stroke="#ffffff" stroke-width="5.5" stroke-linecap="round" stroke-linejoin="round"/></g><path d="M 1020.0 632.3 L 1226.0 632.3 L 1226.0 206.7 Q 1232.0 200.7 1226.0 194.7 L 1226.0 91.8 L 2128.0 91.8" fill="none" stroke="#475569" stroke-width="1.5" marker-start="url(#marker-start-deploy-workflow-composes-build)"/><text x="1677.0" y="83.4" text-anchor="middle" fill="#334155" stroke="#ffffff" stroke-width="4" stroke-linejoin="round" paint-order="stroke">build</text></g><g data-dediren-edge-id="deploy-workflow-composes-app"><defs><marker id="marker-start-deploy-workflow-composes-app" data-dediren-edge-marker-start="filled_diamond" markerWidth="10" markerHeight="10" refX="1" refY="5" orient="auto" markerUnits="strokeWidth"><path d="M 1 5 L 5 1 L 9 5 L 5 9 z" fill="#475569" stroke="#475569" stroke-width="1.1"/></marker></defs><path d="M 1020.0 632.3 L 1052.0 632.3 L 1052.0 612.8 L 2376.0 612.8 L 2376.0 654.5 L 2408.0 654.5" fill="none" stroke="#475569" stroke-width="1.5" marker-start="url(#marker-start-deploy-workflow-composes-app)"/><text x="2392.0" y="671.3" text-anchor="middle" fill="#334155" stroke="#ffffff" stroke-width="4" stroke-linejoin="round" paint-order="stroke">app</text></g><g data-dediren-edge-id="deploy-infra-realizes-bicep"><defs><marker id="marker-end-deploy-infra-realizes-bicep" data-dediren-edge-marker-end="hollow_triangle" markerWidth="10" markerHeight="10" refX="9" refY="5" orient="auto" markerUnits="strokeWidth"><path d="M 1 1 L 9 5 L 1 9 z" fill="#ffffff" stroke="#475569" stroke-width="1.2"/></marker></defs><path d="M 2234.7 406.5 L 2234.7 438.5 L 2488.0 438.5 L 2488.0 470.5" fill="none" stroke="#475569" stroke-width="1.5" stroke-dasharray="8 5" marker-end="url(#marker-end-deploy-infra-realizes-bicep)"/><text x="2361.3" y="455.3" text-anchor="middle" fill="#334155" stroke="#ffffff" stroke-width="4" stroke-linejoin="round" paint-order="stroke">applies</text></g><g data-dediren-edge-id="deploy-build-realizes-functions-package"><defs><marker id="marker-end-deploy-build-realizes-functions-package" data-dediren-edge-marker-end="hollow_triangle" markerWidth="10" markerHeight="10" refX="9" refY="5" orient="auto" markerUnits="strokeWidth"><path d="M 1 1 L 9 5 L 1 9 z" fill="#ffffff" stroke="#475569" stroke-width="1.2"/></marker></defs><path d="M 2234.7 118.5 L 2234.7 150.5 L 2488.0 150.5 L 2488.0 182.5" fill="none" stroke="#475569" stroke-width="1.5" stroke-dasharray="8 5" marker-end="url(#marker-end-deploy-build-realizes-functions-package)"/><text x="2361.3" y="167.3" text-anchor="middle" fill="#334155" stroke="#ffffff" stroke-width="4" stroke-linejoin="round" paint-order="stroke">builds</text></g><g data-dediren-edge-id="deploy-build-realizes-spa-package"><defs><marker id="marker-end-deploy-build-realizes-spa-package" data-dediren-edge-marker-end="hollow_triangle" markerWidth="10" markerHeight="10" refX="9" refY="5" orient="auto" markerUnits="strokeWidth"><path d="M 1 1 L 9 5 L 1 9 z" fill="#ffffff" stroke="#475569" stroke-width="1.2"/></marker></defs><path d="M 2181.3 118.5 L 2181.3 294.5 L 2488.0 294.5 L 2488.0 326.5" fill="none" stroke="#475569" stroke-width="1.5" stroke-dasharray="8 5" marker-end="url(#marker-end-deploy-build-realizes-spa-package)"/><text x="2334.7" y="311.3" text-anchor="middle" fill="#334155" stroke="#ffffff" stroke-width="4" stroke-linejoin="round" paint-order="stroke">builds</text></g><g data-dediren-edge-id="secret-scan-triggers-build"><defs><marker id="marker-end-secret-scan-triggers-build" data-dediren-edge-marker-end="filled_arrow" markerWidth="8" markerHeight="8" refX="8" refY="4" orient="auto" markerUnits="strokeWidth"><path d="M 0 0 L 8 4 L 0 8 z" fill="#b45309"/></marker></defs><g data-dediren-line-jump-masks="secret-scan-triggers-build"><path d="M 1936.0 97.8 Q 1942.0 91.8 1936.0 85.8" fill="none" stroke="#ffffff" stroke-width="5.5" stroke-linecap="round" stroke-linejoin="round"/></g><path d="M 1744.0 200.7 L 1936.0 200.7 L 1936.0 97.8 Q 1942.0 91.8 1936.0 85.8 L 1936.0 65.2 L 2128.0 65.2" fill="none" stroke="#b45309" stroke-width="1.5" marker-end="url(#marker-end-secret-scan-triggers-build)"/><text x="1840.0" y="192.3" text-anchor="middle" fill="#92400e" stroke="#ffffff" stroke-width="4" stroke-linejoin="round" paint-order="stroke">gate</text></g><g data-dediren-edge-id="secret-scan-triggers-infra-deploy"><defs><marker id="marker-end-secret-scan-triggers-infra-deploy" data-dediren-edge-marker-end="filled_arrow" markerWidth="8" markerHeight="8" refX="8" refY="4" orient="auto" markerUnits="strokeWidth"><path d="M 0 0 L 8 4 L 0 8 z" fill="#b45309"/></marker></defs><path d="M 1744.0 227.3 L 1936.0 227.3 L 1936.0 346.5 L 2128.0 346.5" fill="none" stroke="#b45309" stroke-width="1.5" marker-end="url(#marker-end-secret-scan-triggers-infra-deploy)"/><text x="1840.0" y="244.1" text-anchor="middle" fill="#92400e" stroke="#ffffff" stroke-width="4" stroke-linejoin="round" paint-order="stroke">gate</text></g><g data-dediren-edge-id="infrastructure-analysis-triggers-infra-deploy"><defs><marker id="marker-end-infrastructure-analysis-triggers-infra-deploy" data-dediren-edge-marker-end="filled_arrow" markerWidth="8" markerHeight="8" refX="8" refY="4" orient="auto" markerUnits="strokeWidth"><path d="M 0 0 L 8 4 L 0 8 z" fill="#b45309"/></marker></defs><path d="M 1744.0 354.0 L 1936.0 354.0 L 1936.0 366.5 L 2128.0 366.5" fill="none" stroke="#b45309" stroke-width="1.5" marker-end="url(#marker-end-infrastructure-analysis-triggers-infra-deploy)"/><text x="1840.0" y="370.8" text-anchor="middle" fill="#92400e" stroke="#ffffff" stroke-width="4" stroke-linejoin="round" paint-order="stroke">gate</text></g><g data-dediren-edge-id="deploy-infra-triggers-app-deploy"><defs><marker id="marker-end-deploy-infra-triggers-app-deploy" data-dediren-edge-marker-end="filled_arrow" markerWidth="8" markerHeight="8" refX="8" refY="4" orient="auto" markerUnits="strokeWidth"><path d="M 0 0 L 8 4 L 0 8 z" fill="#b45309"/></marker></defs><path d="M 2181.3 406.5 L 2181.3 582.5 L 2488.0 582.5 L 2488.0 614.5" fill="none" stroke="#b45309" stroke-width="1.5" marker-end="url(#marker-end-deploy-infra-triggers-app-deploy)"/><text x="2334.7" y="599.3" text-anchor="middle" fill="#92400e" stroke="#ffffff" stroke-width="4" stroke-linejoin="round" paint-order="stroke">before app</text></g><g data-dediren-edge-id="deploy-app-realizes-production"><defs><marker id="marker-end-deploy-app-realizes-production" data-dediren-edge-marker-end="hollow_triangle" markerWidth="10" markerHeight="10" refX="9" refY="5" orient="auto" markerUnits="strokeWidth"><path d="M 1 1 L 9 5 L 1 9 z" fill="#ffffff" stroke="#475569" stroke-width="1.2"/></marker></defs><path d="M 2568.0 654.5 L 2740.0 654.5 L 2740.0 660.8 L 2912.0 660.8" fill="none" stroke="#475569" stroke-width="1.5" stroke-dasharray="8 5" marker-end="url(#marker-end-deploy-app-realizes-production)"/><text x="2654.0" y="671.3" text-anchor="middle" fill="#334155" stroke="#ffffff" stroke-width="4" stroke-linejoin="round" paint-order="stroke">updates</text></g><g data-dediren-edge-id="release-gap-realized-by-deploy"><path d="M 1020.0 659.0 L 1258.0 659.0 L 1258.0 654.0 L 1496.0 654.0" fill="none" stroke="#64748b" stroke-width="1.5"/><text x="1139.0" y="650.6" text-anchor="middle" fill="#374151" stroke="#ffffff" stroke-width="4" stroke-linejoin="round" paint-order="stroke">closes</text></g><g data-dediren-edge-id="deploy-workflow-triggers-event"><defs><marker id="marker-end-deploy-workflow-triggers-event" data-dediren-edge-marker-end="filled_arrow" markerWidth="8" markerHeight="8" refX="8" refY="4" orient="auto" markerUnits="strokeWidth"><path d="M 0 0 L 8 4 L 0 8 z" fill="#b45309"/></marker></defs><path d="M 940.0 685.7 L 940.0 717.7 L 1224.0 717.7 L 1224.0 749.7" fill="none" stroke="#b45309" stroke-width="1.5" marker-end="url(#marker-end-deploy-workflow-triggers-event)"/><text x="1082.0" y="734.5" text-anchor="middle" fill="#92400e" stroke="#ffffff" stroke-width="4" stroke-linejoin="round" paint-order="stroke">deploys</text></g><g data-dediren-edge-id="deploy-event-realizes-production"><path d="M 1304.0 789.7 L 2740.0 789.7 L 2740.0 687.5 L 2912.0 687.5" fill="none" stroke="#64748b" stroke-width="1.5"/><text x="2022.0" y="781.3" text-anchor="middle" fill="#374151" stroke="#ffffff" stroke-width="4" stroke-linejoin="round" paint-order="stroke">reaches</text></g><g data-dediren-edge-id="bicep-deploys-static-web-apps"><defs><marker id="marker-end-bicep-deploys-static-web-apps" data-dediren-edge-marker-end="hollow_triangle" markerWidth="10" markerHeight="10" refX="9" refY="5" orient="auto" markerUnits="strokeWidth"><path d="M 1 1 L 9 5 L 1 9 z" fill="#ffffff" stroke="#475569" stroke-width="1.2"/></marker></defs><path d="M 2568.0 523.8 L 2740.0 523.8 L 2740.0 534.2 L 2912.0 534.2" fill="none" stroke="#475569" stroke-width="1.5" stroke-dasharray="8 5" marker-end="url(#marker-end-bicep-deploys-static-web-apps)"/><text x="2654.0" y="540.6" text-anchor="middle" fill="#334155" stroke="#ffffff" stroke-width="4" stroke-linejoin="round" paint-order="stroke">provisions</text></g><g data-dediren-edge-id="bicep-deploys-function-app"><defs><marker id="marker-end-bicep-deploys-function-app" data-dediren-edge-marker-end="hollow_triangle" markerWidth="10" markerHeight="10" refX="9" refY="5" orient="auto" markerUnits="strokeWidth"><path d="M 1 1 L 9 5 L 1 9 z" fill="#ffffff" stroke="#475569" stroke-width="1.2"/></marker></defs><path d="M 2568.0 497.2 L 2740.0 497.2 L 2740.0 394.2 L 2912.0 394.2" fill="none" stroke="#475569" stroke-width="1.5" stroke-dasharray="8 5" marker-end="url(#marker-end-bicep-deploys-function-app)"/><text x="2654.0" y="488.8" text-anchor="middle" fill="#334155" stroke="#ffffff" stroke-width="4" stroke-linejoin="round" paint-order="stroke">provisions</text></g><g data-dediren-edge-id="function-package-deploys-api"><defs><marker id="marker-end-function-package-deploys-api" data-dediren-edge-marker-end="hollow_triangle" markerWidth="10" markerHeight="10" refX="9" refY="5" orient="auto" markerUnits="strokeWidth"><path d="M 1 1 L 9 5 L 1 9 z" fill="#ffffff" stroke="#475569" stroke-width="1.2"/></marker></defs><path d="M 2568.0 222.5 L 2740.0 222.5 L 2740.0 114.2 L 2912.0 114.2" fill="none" stroke="#475569" stroke-width="1.5" stroke-dasharray="8 5" marker-end="url(#marker-end-function-package-deploys-api)"/><text x="2654.0" y="214.1" text-anchor="middle" fill="#334155" stroke="#ffffff" stroke-width="4" stroke-linejoin="round" paint-order="stroke">deploys</text></g><g data-dediren-edge-id="spa-package-deploys-app"><defs><marker id="marker-end-spa-package-deploys-app" data-dediren-edge-marker-end="hollow_triangle" markerWidth="10" markerHeight="10" refX="9" refY="5" orient="auto" markerUnits="strokeWidth"><path d="M 1 1 L 9 5 L 1 9 z" fill="#ffffff" stroke="#475569" stroke-width="1.2"/></marker></defs><path d="M 2568.0 366.5 L 2740.0 366.5 L 2740.0 254.2 L 2912.0 254.2" fill="none" stroke="#475569" stroke-width="1.5" stroke-dasharray="8 5" marker-end="url(#marker-end-spa-package-deploys-app)"/><text x="2654.0" y="358.1" text-anchor="middle" fill="#334155" stroke="#ffffff" stroke-width="4" stroke-linejoin="round" paint-order="stroke">deploys</text></g><g data-dediren-node-id="pre-commit-secret-guard"><rect data-dediren-node-shape="archimate_rounded_rectangle" x="36.0" y="446.3" width="160.0" height="80.0" rx="4.0" fill="#ffedd5" stroke="#ea580c" stroke-width="1.5"/><g data-dediren-node-decorator="archimate_work_package" data-dediren-icon-kind="work_package" data-dediren-icon-size="22"><path data-dediren-icon-part="work-package-loop-arrow" d="M 177.7 460.2 A 5.7 5.7 0 1 0 176.8 464.6 L 183.8 464.6 M 183.8 464.6 L 181.2 462.4 M 183.8 464.6 L 181.2 466.8" fill="none" stroke="#ea580c" stroke-width="1.5" stroke-linecap="round" stroke-linejoin="round"/></g><text x="116.0" y="478.3" text-anchor="middle" dominant-baseline="middle" fill="#7c2d12" font-size="14.0"><tspan x="116.0" dy="0">Pre-commit</tspan><tspan x="116.0" dy="16.0">secret guard</tspan></text></g><g data-dediren-node-id="pre-push-verification-gate"><rect data-dediren-node-shape="archimate_rounded_rectangle" x="36.0" y="306.3" width="160.0" height="80.0" rx="4.0" fill="#ffedd5" stroke="#ea580c" stroke-width="1.5"/><g data-dediren-node-decorator="archimate_work_package" data-dediren-icon-kind="work_package" data-dediren-icon-size="22"><path data-dediren-icon-part="work-package-loop-arrow" d="M 177.7 320.2 A 5.7 5.7 0 1 0 176.8 324.6 L 183.8 324.6 M 183.8 324.6 L 181.2 322.4 M 183.8 324.6 L 181.2 326.8" fill="none" stroke="#ea580c" stroke-width="1.5" stroke-linecap="round" stroke-linejoin="round"/></g><text x="116.0" y="330.2" text-anchor="middle" dominant-baseline="middle" fill="#7c2d12" font-size="14.0"><tspan x="116.0" dy="0">Pre-push</tspan><tspan x="116.0" dy="16.0">verification</tspan><tspan x="116.0" dy="16.0">gate</tspan></text></g><g data-dediren-node-id="repository-baseline"><rect data-dediren-node-shape="archimate_rectangle" x="580.0" y="461.7" width="160.0" height="80.0" rx="0" fill="#fef9c3" stroke="#ca8a04" stroke-width="1.5"/><g data-dediren-node-decorator="archimate_plateau" data-dediren-icon-kind="plateau" data-dediren-icon-size="22"><path d="M 717.7 474.6 L 731.4 474.6 M 714.6 478.6 L 728.3 478.6 M 712.0 482.5 L 725.6 482.5" fill="none" stroke="#ca8a04" stroke-width="1.5" stroke-linecap="square"/></g><text x="660.0" y="493.6" text-anchor="middle" dominant-baseline="middle" fill="#713f12" font-size="14.0"><tspan x="660.0" dy="0">Repository</tspan><tspan x="660.0" dy="16.0">baseline</tspan></text></g><g data-dediren-node-id="production-plateau"><rect data-dediren-node-shape="archimate_rectangle" x="2912.0" y="634.2" width="160.0" height="80.0" rx="0" fill="#fef9c3" stroke="#ca8a04" stroke-width="1.5"/><g data-dediren-node-decorator="archimate_plateau" data-dediren-icon-kind="plateau" data-dediren-icon-size="22"><path d="M 3049.7 647.1 L 3063.4 647.1 M 3046.6 651.1 L 3060.3 651.1 M 3044.0 655.0 L 3057.6 655.0" fill="none" stroke="#ca8a04" stroke-width="1.5" stroke-linecap="square"/></g><text x="2992.0" y="666.1" text-anchor="middle" dominant-baseline="middle" fill="#713f12" font-size="14.0"><tspan x="2992.0" dy="0">Production</tspan><tspan x="2992.0" dy="16.0">plateau</tspan></text></g><g data-dediren-node-id="release-to-production-gap"><rect data-dediren-node-shape="archimate_rectangle" x="1496.0" y="614.0" width="160.0" height="80.0" rx="0" fill="#fef3c7" stroke="#d97706" stroke-width="1.5"/><g data-dediren-node-decorator="archimate_gap" data-dediren-icon-kind="gap" data-dediren-icon-size="22"><ellipse cx="1639.4" cy="630.5" rx="4.8" ry="4.8" fill="none" stroke="#d97706" stroke-width="1.5"/><path data-dediren-icon-part="gap-lines" d="M 1630.2 628.7 L 1648.7 628.7 M 1630.2 632.2 L 1648.7 632.2" fill="none" stroke="#d97706" stroke-width="1.5" stroke-linecap="round"/></g><text x="1576.0" y="646.0" text-anchor="middle" dominant-baseline="middle" fill="#78350f" font-size="14.0"><tspan x="1576.0" dy="0">Release to</tspan><tspan x="1576.0" dy="16.0">production gap</tspan></text></g><g data-dediren-node-id="deploy-to-production-event"><rect data-dediren-node-shape="archimate_rounded_rectangle" x="1144.0" y="749.7" width="160.0" height="80.0" rx="4.0" fill="#ffedd5" stroke="#ea580c" stroke-width="1.5"/><g data-dediren-node-decorator="archimate_implementation_event" data-dediren-icon-kind="event" data-dediren-icon-size="22"><path data-dediren-icon-part="event-pill" d="M 1280.0 759.5 L 1292.3 759.5 C 1296.7 759.5, 1298.0 763.1, 1298.0 766.6 C 1298.0 770.1, 1296.7 773.6, 1292.3 773.6 L 1280.0 773.6 L 1283.5 766.6 L 1280.0 759.5 Z" fill="#ffedd5" stroke="#ea580c" stroke-width="1.5"/></g><text x="1224.0" y="781.6" text-anchor="middle" dominant-baseline="middle" fill="#7c2d12" font-size="14.0"><tspan x="1224.0" dy="0">Deploy to</tspan><tspan x="1224.0" dy="16.0">production</tspan></text></g><g data-dediren-node-id="deploy-workflow"><rect data-dediren-node-shape="archimate_rounded_rectangle" x="860.0" y="605.7" width="160.0" height="80.0" rx="4.0" fill="#ffedd5" stroke="#ea580c" stroke-width="1.5"/><g data-dediren-node-decorator="archimate_work_package" data-dediren-icon-kind="work_package" data-dediren-icon-size="22"><path data-dediren-icon-part="work-package-loop-arrow" d="M 1001.7 619.5 A 5.7 5.7 0 1 0 1000.8 623.9 L 1007.8 623.9 M 1007.8 623.9 L 1005.2 621.7 M 1007.8 623.9 L 1005.2 626.1" fill="none" stroke="#ea580c" stroke-width="1.5" stroke-linecap="round" stroke-linejoin="round"/></g><text x="940.0" y="645.7" text-anchor="middle" dominant-baseline="middle" fill="#7c2d12" font-size="14.0">Deploy workflow</text></g><g data-dediren-node-id="secret-scan-workflow"><rect data-dediren-node-shape="archimate_rounded_rectangle" x="1584.0" y="174.0" width="160.0" height="80.0" rx="4.0" fill="#ffedd5" stroke="#ea580c" stroke-width="1.5"/><g data-dediren-node-decorator="archimate_work_package" data-dediren-icon-kind="work_package" data-dediren-icon-size="22"><path data-dediren-icon-part="work-package-loop-arrow" d="M 1725.7 187.8 A 5.7 5.7 0 1 0 1724.8 192.2 L 1731.8 192.2 M 1731.8 192.2 L 1729.2 190.0 M 1731.8 192.2 L 1729.2 194.4" fill="none" stroke="#ea580c" stroke-width="1.5" stroke-linecap="round" stroke-linejoin="round"/></g><text x="1664.0" y="214.0" text-anchor="middle" dominant-baseline="middle" fill="#7c2d12" font-size="14.0">Secret Scanning</text></g><g data-dediren-node-id="infrastructure-analysis-workflow"><rect data-dediren-node-shape="archimate_rounded_rectangle" x="1584.0" y="314.0" width="160.0" height="80.0" rx="4.0" fill="#ffedd5" stroke="#ea580c" stroke-width="1.5"/><g data-dediren-node-decorator="archimate_work_package" data-dediren-icon-kind="work_package" data-dediren-icon-size="22"><path data-dediren-icon-part="work-package-loop-arrow" d="M 1725.7 327.8 A 5.7 5.7 0 1 0 1724.8 332.2 L 1731.8 332.2 M 1731.8 332.2 L 1729.2 330.0 M 1731.8 332.2 L 1729.2 334.4" fill="none" stroke="#ea580c" stroke-width="1.5" stroke-linecap="round" stroke-linejoin="round"/></g><text x="1664.0" y="345.9" text-anchor="middle" dominant-baseline="middle" fill="#7c2d12" font-size="14.0"><tspan x="1664.0" dy="0">Analyze</tspan><tspan x="1664.0" dy="16.0">Infrastructure</tspan></text></g><g data-dediren-node-id="deploy-infra-workflow"><rect data-dediren-node-shape="archimate_rounded_rectangle" x="2128.0" y="326.5" width="160.0" height="80.0" rx="4.0" fill="#ffedd5" stroke="#ea580c" stroke-width="1.5"/><g data-dediren-node-decorator="archimate_work_package" data-dediren-icon-kind="work_package" data-dediren-icon-size="22"><path data-dediren-icon-part="work-package-loop-arrow" d="M 2269.7 340.3 A 5.7 5.7 0 1 0 2268.8 344.7 L 2275.8 344.7 M 2275.8 344.7 L 2273.2 342.5 M 2275.8 344.7 L 2273.2 346.9" fill="none" stroke="#ea580c" stroke-width="1.5" stroke-linecap="round" stroke-linejoin="round"/></g><text x="2208.0" y="358.4" text-anchor="middle" dominant-baseline="middle" fill="#7c2d12" font-size="14.0"><tspan x="2208.0" dy="0">Deploy</tspan><tspan x="2208.0" dy="16.0">Infrastructure</tspan></text></g><g data-dediren-node-id="deploy-app-build-workflow"><rect data-dediren-node-shape="archimate_rounded_rectangle" x="2128.0" y="38.5" width="160.0" height="80.0" rx="4.0" fill="#ffedd5" stroke="#ea580c" stroke-width="1.5"/><g data-dediren-node-decorator="archimate_work_package" data-dediren-icon-kind="work_package" data-dediren-icon-size="22"><path data-dediren-icon-part="work-package-loop-arrow" d="M 2269.7 52.3 A 5.7 5.7 0 1 0 2268.8 56.7 L 2275.8 56.7 M 2275.8 56.7 L 2273.2 54.5 M 2275.8 56.7 L 2273.2 58.9" fill="none" stroke="#ea580c" stroke-width="1.5" stroke-linecap="round" stroke-linejoin="round"/></g><text x="2208.0" y="70.5" text-anchor="middle" dominant-baseline="middle" fill="#7c2d12" font-size="14.0"><tspan x="2208.0" dy="0">Deploy App -</tspan><tspan x="2208.0" dy="16.0">Build</tspan></text></g><g data-dediren-node-id="deploy-app-workflow"><rect data-dediren-node-shape="archimate_rounded_rectangle" x="2408.0" y="614.5" width="160.0" height="80.0" rx="4.0" fill="#ffedd5" stroke="#ea580c" stroke-width="1.5"/><g data-dediren-node-decorator="archimate_work_package" data-dediren-icon-kind="work_package" data-dediren-icon-size="22"><path data-dediren-icon-part="work-package-loop-arrow" d="M 2549.7 628.3 A 5.7 5.7 0 1 0 2548.8 632.7 L 2555.8 632.7 M 2555.8 632.7 L 2553.2 630.5 M 2555.8 632.7 L 2553.2 634.9" fill="none" stroke="#ea580c" stroke-width="1.5" stroke-linecap="round" stroke-linejoin="round"/></g><text x="2488.0" y="654.5" text-anchor="middle" dominant-baseline="middle" fill="#7c2d12" font-size="14.0">Deploy App</text></g><g data-dediren-node-id="bicep-template"><rect data-dediren-node-shape="archimate_rectangle" x="2408.0" y="470.5" width="160.0" height="80.0" rx="0" fill="#fef3c7" stroke="#d97706" stroke-width="1.5"/><g data-dediren-node-decorator="archimate_deliverable" data-dediren-icon-kind="deliverable" data-dediren-icon-size="22"><path data-dediren-icon-part="wavy-document" d="M 2540.0 479.5 L 2562.0 479.5 L 2562.0 492.3 C 2558.0 490.5, 2554.5 490.5, 2551.0 492.3 C 2547.5 494.0, 2544.0 494.0, 2540.0 492.3 L 2540.0 479.5 Z" fill="#fef3c7" stroke="#d97706" stroke-width="1.5" stroke-linejoin="round"/></g><text x="2488.0" y="510.5" text-anchor="middle" dominant-baseline="middle" fill="#78350f" font-size="14.0">Bicep deployment</text></g><g data-dediren-node-id="function-app-package"><rect data-dediren-node-shape="archimate_rectangle" x="2408.0" y="182.5" width="160.0" height="80.0" rx="0" fill="#fef3c7" stroke="#d97706" stroke-width="1.5"/><g data-dediren-node-decorator="archimate_deliverable" data-dediren-icon-kind="deliverable" data-dediren-icon-size="22"><path data-dediren-icon-part="wavy-document" d="M 2540.0 191.5 L 2562.0 191.5 L 2562.0 204.3 C 2558.0 202.5, 2554.5 202.5, 2551.0 204.3 C 2547.5 206.0, 2544.0 206.0, 2540.0 204.3 L 2540.0 191.5 Z" fill="#fef3c7" stroke="#d97706" stroke-width="1.5" stroke-linejoin="round"/></g><text x="2488.0" y="222.5" text-anchor="middle" dominant-baseline="middle" fill="#78350f" font-size="14.0">Functions zip</text></g><g data-dediren-node-id="spa-wwwroot-package"><rect data-dediren-node-shape="archimate_rectangle" x="2408.0" y="326.5" width="160.0" height="80.0" rx="0" fill="#fef3c7" stroke="#d97706" stroke-width="1.5"/><g data-dediren-node-decorator="archimate_deliverable" data-dediren-icon-kind="deliverable" data-dediren-icon-size="22"><path data-dediren-icon-part="wavy-document" d="M 2540.0 335.5 L 2562.0 335.5 L 2562.0 348.3 C 2558.0 346.5, 2554.5 346.5, 2551.0 348.3 C 2547.5 350.0, 2544.0 350.0, 2540.0 348.3 L 2540.0 335.5 Z" fill="#fef3c7" stroke="#d97706" stroke-width="1.5" stroke-linejoin="round"/></g><text x="2488.0" y="358.4" text-anchor="middle" dominant-baseline="middle" fill="#78350f" font-size="14.0"><tspan x="2488.0" dy="0">SPA wwwroot</tspan><tspan x="2488.0" dy="16.0">bundle</tspan></text></g><g data-dediren-node-id="static-web-apps"><rect data-dediren-node-shape="archimate_rectangle" x="2912.0" y="494.2" width="160.0" height="80.0" rx="0" fill="#ecfdf3" stroke="#16a34a" stroke-width="1.5"/><g data-dediren-node-decorator="archimate_technology_node" data-dediren-icon-kind="node" data-dediren-icon-size="22"><rect x="3044.0" y="507.1" width="18.0" height="12.8" rx="1.5" fill="#ecfdf3" stroke="#16a34a" stroke-width="1.5"/><path data-dediren-icon-part="node-3d-edges" d="M 3044.0 507.1 L 3048.0 503.2 L 3066.0 503.2 L 3062.0 507.1 M 3062.0 507.1 L 3066.0 503.2 M 3062.0 519.9 L 3066.0 515.9 M 3066.0 503.2 L 3066.0 515.9" fill="none" stroke="#16a34a" stroke-width="1.5" stroke-linejoin="round"/></g><text x="2992.0" y="526.1" text-anchor="middle" dominant-baseline="middle" fill="#14532d" font-size="14.0"><tspan x="2992.0" dy="0">Azure Static Web</tspan><tspan x="2992.0" dy="16.0">Apps</tspan></text></g><g data-dediren-node-id="function-app"><rect data-dediren-node-shape="archimate_rectangle" x="2912.0" y="354.2" width="160.0" height="80.0" rx="0" fill="#ecfdf3" stroke="#16a34a" stroke-width="1.5"/><g data-dediren-node-decorator="archimate_technology_node" data-dediren-icon-kind="node" data-dediren-icon-size="22"><rect x="3044.0" y="367.1" width="18.0" height="12.8" rx="1.5" fill="#ecfdf3" stroke="#16a34a" stroke-width="1.5"/><path data-dediren-icon-part="node-3d-edges" d="M 3044.0 367.1 L 3048.0 363.2 L 3066.0 363.2 L 3062.0 367.1 M 3062.0 367.1 L 3066.0 363.2 M 3062.0 379.9 L 3066.0 375.9 M 3066.0 363.2 L 3066.0 375.9" fill="none" stroke="#16a34a" stroke-width="1.5" stroke-linejoin="round"/></g><text x="2992.0" y="386.1" text-anchor="middle" dominant-baseline="middle" fill="#14532d" font-size="14.0"><tspan x="2992.0" dy="0">Azure Function</tspan><tspan x="2992.0" dy="16.0">App</tspan></text></g><g data-dediren-node-id="lfm-app"><rect data-dediren-node-shape="archimate_rectangle" x="2912.0" y="214.2" width="160.0" height="80.0" rx="0" fill="#e8f3ff" stroke="#2563eb" stroke-width="1.5"/><g data-dediren-node-decorator="archimate_application_component" data-dediren-icon-kind="component" data-dediren-icon-size="22"><rect x="3048.0" y="223.2" width="18.0" height="15.8" rx="1.5" fill="#e8f3ff" stroke="#2563eb" stroke-width="1.5"/><rect x="3044.0" y="225.8" width="7.9" height="5.7" rx="1.2" fill="#e8f3ff" stroke="#2563eb" stroke-width="1.5"/><rect x="3044.0" y="232.8" width="7.9" height="5.7" rx="1.2" fill="#e8f3ff" stroke="#2563eb" stroke-width="1.5"/></g><text x="2992.0" y="254.2" text-anchor="middle" dominant-baseline="middle" fill="#172554" font-size="14.0">Lfm.App</text></g><g data-dediren-node-id="lfm-api"><rect data-dediren-node-shape="archimate_rectangle" x="2912.0" y="74.2" width="160.0" height="80.0" rx="0" fill="#e8f3ff" stroke="#2563eb" stroke-width="1.5"/><g data-dediren-node-decorator="archimate_application_component" data-dediren-icon-kind="component" data-dediren-icon-size="22"><rect x="3048.0" y="83.2" width="18.0" height="15.8" rx="1.5" fill="#e8f3ff" stroke="#2563eb" stroke-width="1.5"/><rect x="3044.0" y="85.8" width="7.9" height="5.7" rx="1.2" fill="#e8f3ff" stroke="#2563eb" stroke-width="1.5"/><rect x="3044.0" y="92.8" width="7.9" height="5.7" rx="1.2" fill="#e8f3ff" stroke="#2563eb" stroke-width="1.5"/></g><text x="2992.0" y="114.2" text-anchor="middle" dominant-baseline="middle" fill="#172554" font-size="14.0">Lfm.Api</text></g></g></svg>

