<svg xmlns="http://www.w3.org/2000/svg" width="2928" height="896" viewBox="-12.0 -12.0 2928.0 896.0"><rect x="-12.0" y="-12.0" width="2928.0" height="896.0" fill="#ffffff"/><g font-family="Inter, Arial, sans-serif" font-size="14.0"><g data-dediren-group-id="production-release-orchestration"><rect x="12.0" y="348.0" width="932.0" height="512.0" rx="4.0" fill="#f8fafc" stroke="#94a3b8" stroke-width="1.0"/><text x="20.0" y="364.0" fill="#374151" font-size="12.0">Deploy orchestration</text></g><g data-dediren-group-id="production-release-quality-gates"><rect x="1232.0" y="64.0" width="272.0" height="268.0" rx="4.0" fill="#f8fafc" stroke="#94a3b8" stroke-width="1.0"/><text x="1240.0" y="80.0" fill="#374151" font-size="12.0">Deployment quality gates</text></g><g data-dediren-group-id="production-release-build-and-deploy"><rect x="1792.0" y="12.0" width="620.0" height="752.0" rx="4.0" fill="#f8fafc" stroke="#94a3b8" stroke-width="1.0"/><text x="1800.0" y="28.0" fill="#374151" font-size="12.0">Build and deploy stages</text></g><g data-dediren-group-id="production-release-deployed-runtime"><rect x="2620.0" y="72.0" width="272.0" height="688.0" rx="4.0" fill="#f8fafc" stroke="#94a3b8" stroke-width="1.0"/><text x="2628.0" y="88.0" fill="#374151" font-size="12.0">Production runtime</text></g><g data-dediren-edge-id="repository-triggers-deploy-workflow"><defs><marker id="marker-end-repository-triggers-deploy-workflow" data-dediren-edge-marker-end="filled_arrow" markerWidth="8" markerHeight="8" refX="8" refY="4" orient="auto" markerUnits="strokeWidth"><path d="M 0 0 L 8 4 L 0 8 z" fill="#b45309"/></marker></defs><path d="M 116.0 452.0 L 116.0 484.0 L 396.0 484.0 L 396.0 516.0" fill="none" stroke="#b45309" stroke-width="1.5" marker-end="url(#marker-end-repository-triggers-deploy-workflow)"/><text x="256.0" y="500.8" text-anchor="middle" fill="#92400e" stroke="#ffffff" stroke-width="4" stroke-linejoin="round" paint-order="stroke">push/manual</text></g><g data-dediren-edge-id="deploy-workflow-composes-infra"><defs><marker id="marker-start-deploy-workflow-composes-infra" data-dediren-edge-marker-start="filled_diamond" markerWidth="10" markerHeight="10" refX="1" refY="5" orient="auto" markerUnits="strokeWidth"><path d="M 1 5 L 5 1 L 9 5 L 5 9 z" fill="#475569" stroke="#475569" stroke-width="1.1"/></marker><marker id="marker-end-deploy-workflow-composes-infra" data-dediren-edge-marker-end="filled_arrow" markerWidth="8" markerHeight="8" refX="8" refY="4" orient="auto" markerUnits="strokeWidth"><path d="M 0 0 L 8 4 L 0 8 z" fill="#475569"/></marker></defs><path d="M 476.0 551.9 L 508.0 551.9 L 508.0 451.1 L 1596.0 451.1 L 1596.0 226.7 L 1740.0 226.7 L 1740.0 116.0 L 1848.0 116.0 L 1848.0 96.5 L 1880.0 96.5" fill="none" stroke="#475569" stroke-width="1.5" marker-start="url(#marker-start-deploy-workflow-composes-infra)" marker-end="url(#marker-end-deploy-workflow-composes-infra)"/><text x="531.7" y="543.5" text-anchor="middle" fill="#334155" stroke="#ffffff" stroke-width="4" stroke-linejoin="round" paint-order="stroke">infra</text></g><g data-dediren-edge-id="deploy-workflow-composes-secret-scan"><defs><marker id="marker-start-deploy-workflow-composes-secret-scan" data-dediren-edge-marker-start="filled_diamond" markerWidth="10" markerHeight="10" refX="1" refY="5" orient="auto" markerUnits="strokeWidth"><path d="M 1 5 L 5 1 L 9 5 L 5 9 z" fill="#475569" stroke="#475569" stroke-width="1.1"/></marker><marker id="marker-end-deploy-workflow-composes-secret-scan" data-dediren-edge-marker-end="filled_arrow" markerWidth="8" markerHeight="8" refX="8" refY="4" orient="auto" markerUnits="strokeWidth"><path d="M 0 0 L 8 4 L 0 8 z" fill="#475569"/></marker></defs><path d="M 476.0 572.7 L 548.0 572.7 L 548.0 492.1 L 996.0 492.1 L 996.0 457.1 Q 1002.0 451.1 996.0 445.1 L 996.0 268.0 L 1256.0 268.0" fill="none" stroke="#475569" stroke-width="1.5" marker-start="url(#marker-start-deploy-workflow-composes-secret-scan)" marker-end="url(#marker-end-deploy-workflow-composes-secret-scan)"/><text x="577.7" y="564.3" text-anchor="middle" fill="#334155" stroke="#ffffff" stroke-width="4" stroke-linejoin="round" paint-order="stroke">secret gate</text></g><g data-dediren-edge-id="deploy-workflow-composes-infra-analysis"><defs><marker id="marker-start-deploy-workflow-composes-infra-analysis" data-dediren-edge-marker-start="filled_diamond" markerWidth="10" markerHeight="10" refX="1" refY="5" orient="auto" markerUnits="strokeWidth"><path d="M 1 5 L 5 1 L 9 5 L 5 9 z" fill="#475569" stroke="#475569" stroke-width="1.1"/></marker><marker id="marker-end-deploy-workflow-composes-infra-analysis" data-dediren-edge-marker-end="filled_arrow" markerWidth="8" markerHeight="8" refX="8" refY="4" orient="auto" markerUnits="strokeWidth"><path d="M 0 0 L 8 4 L 0 8 z" fill="#475569"/></marker></defs><path d="M 476.0 593.6 L 588.0 593.6 L 588.0 533.1 L 1036.0 533.1 L 1036.0 457.1 Q 1042.0 451.1 1036.0 445.1 L 1036.0 274.0 Q 1042.0 268.0 1036.0 262.0 L 1036.0 227.0 L 1180.0 227.0 L 1180.0 128.0 L 1256.0 128.0" fill="none" stroke="#475569" stroke-width="1.5" marker-start="url(#marker-start-deploy-workflow-composes-infra-analysis)" marker-end="url(#marker-end-deploy-workflow-composes-infra-analysis)"/><text x="532.0" y="603.2" text-anchor="middle" fill="#334155" stroke="#ffffff" stroke-width="4" stroke-linejoin="round" paint-order="stroke">infra analysis</text></g><g data-dediren-edge-id="deploy-workflow-composes-build"><defs><marker id="marker-start-deploy-workflow-composes-build" data-dediren-edge-marker-start="filled_diamond" markerWidth="10" markerHeight="10" refX="1" refY="5" orient="auto" markerUnits="strokeWidth"><path d="M 1 5 L 5 1 L 9 5 L 5 9 z" fill="#475569" stroke="#475569" stroke-width="1.1"/></marker><marker id="marker-end-deploy-workflow-composes-build" data-dediren-edge-marker-end="filled_arrow" markerWidth="8" markerHeight="8" refX="8" refY="4" orient="auto" markerUnits="strokeWidth"><path d="M 0 0 L 8 4 L 0 8 z" fill="#475569"/></marker></defs><path d="M 476.0 614.4 L 628.0 614.4 L 628.0 574.1 L 1076.0 574.1 L 1076.0 508.1 L 1660.0 508.1 L 1660.0 291.7 L 1848.0 291.7 L 1848.0 276.3 L 1880.0 276.3" fill="none" stroke="#475569" stroke-width="1.5" marker-start="url(#marker-start-deploy-workflow-composes-build)" marker-end="url(#marker-end-deploy-workflow-composes-build)"/><text x="552.0" y="624.0" text-anchor="middle" fill="#334155" stroke="#ffffff" stroke-width="4" stroke-linejoin="round" paint-order="stroke">build</text></g><g data-dediren-edge-id="deploy-workflow-composes-app"><defs><marker id="marker-start-deploy-workflow-composes-app" data-dediren-edge-marker-start="filled_diamond" markerWidth="10" markerHeight="10" refX="1" refY="5" orient="auto" markerUnits="strokeWidth"><path d="M 1 5 L 5 1 L 9 5 L 5 9 z" fill="#475569" stroke="#475569" stroke-width="1.1"/></marker><marker id="marker-end-deploy-workflow-composes-app" data-dediren-edge-marker-end="filled_arrow" markerWidth="8" markerHeight="8" refX="8" refY="4" orient="auto" markerUnits="strokeWidth"><path d="M 0 0 L 8 4 L 0 8 z" fill="#475569"/></marker></defs><path d="M 476.0 635.3 L 668.0 635.3 L 668.0 615.1 L 1116.0 615.1 L 1116.0 552.1 L 1660.0 552.1 L 1660.0 700.0 L 2164.0 700.0" fill="none" stroke="#475569" stroke-width="1.5" marker-start="url(#marker-start-deploy-workflow-composes-app)" marker-end="url(#marker-end-deploy-workflow-composes-app)"/><text x="572.0" y="644.9" text-anchor="middle" fill="#334155" stroke="#ffffff" stroke-width="4" stroke-linejoin="round" paint-order="stroke">app</text></g><g data-dediren-edge-id="deploy-infra-realizes-bicep"><defs><marker id="marker-end-deploy-infra-realizes-bicep" data-dediren-edge-marker-end="hollow_triangle" markerWidth="10" markerHeight="10" refX="9" refY="5" orient="auto" markerUnits="strokeWidth"><path d="M 1 1 L 9 5 L 1 9 z" fill="#ffffff" stroke="#475569" stroke-width="1.2"/></marker></defs><path d="M 1981.3 124.0 L 1981.3 156.0 L 2244.0 156.0 L 2244.0 188.0" fill="none" stroke="#475569" stroke-width="1.5" stroke-dasharray="8 5" marker-end="url(#marker-end-deploy-infra-realizes-bicep)"/><text x="2112.7" y="172.8" text-anchor="middle" fill="#334155" stroke="#ffffff" stroke-width="4" stroke-linejoin="round" paint-order="stroke">applies</text></g><g data-dediren-edge-id="deploy-build-realizes-functions-package"><defs><marker id="marker-end-deploy-build-realizes-functions-package" data-dediren-edge-marker-end="hollow_triangle" markerWidth="10" markerHeight="10" refX="9" refY="5" orient="auto" markerUnits="strokeWidth"><path d="M 1 1 L 9 5 L 1 9 z" fill="#ffffff" stroke="#475569" stroke-width="1.2"/></marker></defs><path d="M 1981.3 308.0 L 1981.3 484.0 L 2244.0 484.0 L 2244.0 516.0" fill="none" stroke="#475569" stroke-width="1.5" stroke-dasharray="8 5" marker-end="url(#marker-end-deploy-build-realizes-functions-package)"/><text x="2112.7" y="500.8" text-anchor="middle" fill="#334155" stroke="#ffffff" stroke-width="4" stroke-linejoin="round" paint-order="stroke">builds</text></g><g data-dediren-edge-id="deploy-build-realizes-spa-package"><defs><marker id="marker-end-deploy-build-realizes-spa-package" data-dediren-edge-marker-end="hollow_triangle" markerWidth="10" markerHeight="10" refX="9" refY="5" orient="auto" markerUnits="strokeWidth"><path d="M 1 1 L 9 5 L 1 9 z" fill="#ffffff" stroke="#475569" stroke-width="1.2"/></marker></defs><path d="M 1938.7 308.0 L 1938.7 340.0 L 1975.3 340.0 Q 1981.3 334.0 1987.3 340.0 L 2244.0 340.0 L 2244.0 372.0" fill="none" stroke="#475569" stroke-width="1.5" stroke-dasharray="8 5" marker-end="url(#marker-end-deploy-build-realizes-spa-package)"/><text x="2135.4" y="356.8" text-anchor="middle" fill="#334155" stroke="#ffffff" stroke-width="4" stroke-linejoin="round" paint-order="stroke">builds</text></g><g data-dediren-edge-id="secret-scan-triggers-build"><defs><marker id="marker-end-secret-scan-triggers-build" data-dediren-edge-marker-end="filled_arrow" markerWidth="8" markerHeight="8" refX="8" refY="4" orient="auto" markerUnits="strokeWidth"><path d="M 0 0 L 8 4 L 0 8 z" fill="#b45309"/></marker></defs><path d="M 1416.0 259.7 L 1880.0 259.7" fill="none" stroke="#b45309" stroke-width="1.5" marker-end="url(#marker-end-secret-scan-triggers-build)"/><text x="1630.6" y="245.9" text-anchor="start" fill="#92400e" stroke="#ffffff" stroke-width="4" stroke-linejoin="round" paint-order="stroke">gate</text></g><g data-dediren-edge-id="secret-scan-triggers-infra-deploy"><defs><marker id="marker-end-secret-scan-triggers-infra-deploy" data-dediren-edge-marker-end="filled_arrow" markerWidth="8" markerHeight="8" refX="8" refY="4" orient="auto" markerUnits="strokeWidth"><path d="M 0 0 L 8 4 L 0 8 z" fill="#b45309"/></marker></defs><path d="M 1416.0 276.3 L 1448.0 276.3 L 1448.0 227.7 L 1556.0 227.7 L 1556.0 190.7 L 1700.0 190.7 L 1700.0 84.0 L 1880.0 84.0" fill="none" stroke="#b45309" stroke-width="1.5" marker-end="url(#marker-end-secret-scan-triggers-infra-deploy)"/><text x="1432.0" y="249.9" text-anchor="middle" fill="#92400e" stroke="#ffffff" stroke-width="4" stroke-linejoin="round" paint-order="stroke">gate</text></g><g data-dediren-edge-id="infrastructure-analysis-triggers-infra-deploy"><defs><marker id="marker-end-infrastructure-analysis-triggers-infra-deploy" data-dediren-edge-marker-end="filled_arrow" markerWidth="8" markerHeight="8" refX="8" refY="4" orient="auto" markerUnits="strokeWidth"><path d="M 0 0 L 8 4 L 0 8 z" fill="#b45309"/></marker></defs><path d="M 1416.0 128.0 L 1660.0 128.0 L 1660.0 52.0 L 1848.0 52.0 L 1848.0 71.5 L 1880.0 71.5" fill="none" stroke="#b45309" stroke-width="1.5" marker-end="url(#marker-end-infrastructure-analysis-triggers-infra-deploy)"/><text x="1538.0" y="119.6" text-anchor="middle" fill="#92400e" stroke="#ffffff" stroke-width="4" stroke-linejoin="round" paint-order="stroke">gate</text></g><g data-dediren-edge-id="deploy-infra-triggers-app-deploy"><defs><marker id="marker-end-deploy-infra-triggers-app-deploy" data-dediren-edge-marker-end="filled_arrow" markerWidth="8" markerHeight="8" refX="8" refY="4" orient="auto" markerUnits="strokeWidth"><path d="M 0 0 L 8 4 L 0 8 z" fill="#b45309"/></marker></defs><path d="M 1938.7 124.0 L 1938.7 196.0 L 2072.0 196.0 L 2072.0 334.0 Q 2078.0 340.0 2072.0 346.0 L 2072.0 478.0 Q 2078.0 484.0 2072.0 490.0 L 2072.0 628.0 L 2244.0 628.0 L 2244.0 660.0" fill="none" stroke="#b45309" stroke-width="1.5" marker-end="url(#marker-end-deploy-infra-triggers-app-deploy)"/><text x="2005.3" y="212.8" text-anchor="middle" fill="#92400e" stroke="#ffffff" stroke-width="4" stroke-linejoin="round" paint-order="stroke">before app</text></g><g data-dediren-edge-id="deploy-app-realizes-production"><defs><marker id="marker-end-deploy-app-realizes-production" data-dediren-edge-marker-end="hollow_triangle" markerWidth="10" markerHeight="10" refX="9" refY="5" orient="auto" markerUnits="strokeWidth"><path d="M 1 1 L 9 5 L 1 9 z" fill="#ffffff" stroke="#475569" stroke-width="1.2"/></marker></defs><path d="M 2324.0 700.0 L 2356.0 700.0 L 2516.0 700.0 L 2516.0 704.3 L 2676.0 704.3 L 2708.0 704.3" fill="none" stroke="#475569" stroke-width="1.5" stroke-dasharray="8 5" marker-end="url(#marker-end-deploy-app-realizes-production)"/><text x="2388.4" y="691.6" text-anchor="middle" fill="#334155" stroke="#ffffff" stroke-width="4" stroke-linejoin="round" paint-order="stroke">updates</text></g><g data-dediren-edge-id="release-gap-realized-by-deploy"><defs><marker id="marker-end-release-gap-realized-by-deploy" data-dediren-edge-marker-end="filled_arrow" markerWidth="8" markerHeight="8" refX="8" refY="4" orient="auto" markerUnits="strokeWidth"><path d="M 0 0 L 8 4 L 0 8 z" fill="#64748b"/></marker></defs><path d="M 476.0 656.1 L 1232.0 656.1" fill="none" stroke="#64748b" stroke-width="1.5" marker-end="url(#marker-end-release-gap-realized-by-deploy)"/><text x="854.0" y="647.7" text-anchor="middle" fill="#374151" stroke="#ffffff" stroke-width="4" stroke-linejoin="round" paint-order="stroke">closes</text></g><g data-dediren-edge-id="deploy-workflow-triggers-event"><defs><marker id="marker-end-deploy-workflow-triggers-event" data-dediren-edge-marker-end="filled_arrow" markerWidth="8" markerHeight="8" refX="8" refY="4" orient="auto" markerUnits="strokeWidth"><path d="M 0 0 L 8 4 L 0 8 z" fill="#b45309"/></marker></defs><path d="M 396.0 692.0 L 396.0 724.0 L 840.0 724.0 L 840.0 756.0" fill="none" stroke="#b45309" stroke-width="1.5" marker-end="url(#marker-end-deploy-workflow-triggers-event)"/><text x="618.0" y="740.8" text-anchor="middle" fill="#92400e" stroke="#ffffff" stroke-width="4" stroke-linejoin="round" paint-order="stroke">deploys</text></g><g data-dediren-edge-id="deploy-event-realizes-production"><defs><marker id="marker-end-deploy-event-realizes-production" data-dediren-edge-marker-end="filled_arrow" markerWidth="8" markerHeight="8" refX="8" refY="4" orient="auto" markerUnits="strokeWidth"><path d="M 0 0 L 8 4 L 0 8 z" fill="#64748b"/></marker></defs><path d="M 920.0 796.0 L 2528.0 796.0 L 2528.0 710.3 Q 2534.0 704.3 2528.0 698.3 L 2528.0 687.7 L 2708.0 687.7" fill="none" stroke="#64748b" stroke-width="1.5" marker-end="url(#marker-end-deploy-event-realizes-production)"/><text x="1724.0" y="787.6" text-anchor="middle" fill="#374151" stroke="#ffffff" stroke-width="4" stroke-linejoin="round" paint-order="stroke">reaches</text></g><g data-dediren-edge-id="bicep-deploys-static-web-apps"><defs><marker id="marker-end-bicep-deploys-static-web-apps" data-dediren-edge-marker-end="hollow_triangle" markerWidth="10" markerHeight="10" refX="9" refY="5" orient="auto" markerUnits="strokeWidth"><path d="M 1 1 L 9 5 L 1 9 z" fill="#ffffff" stroke="#475569" stroke-width="1.2"/></marker></defs><path d="M 2324.0 219.7 L 2464.0 219.7 L 2464.0 207.7 L 2528.0 207.7 L 2528.0 136.0 L 2708.0 136.0" fill="none" stroke="#475569" stroke-width="1.5" stroke-dasharray="8 5" marker-end="url(#marker-end-bicep-deploys-static-web-apps)"/><text x="2394.0" y="211.3" text-anchor="middle" fill="#334155" stroke="#ffffff" stroke-width="4" stroke-linejoin="round" paint-order="stroke">provisions</text></g><g data-dediren-edge-id="bicep-deploys-function-app"><defs><marker id="marker-end-bicep-deploys-function-app" data-dediren-edge-marker-end="hollow_triangle" markerWidth="10" markerHeight="10" refX="9" refY="5" orient="auto" markerUnits="strokeWidth"><path d="M 1 1 L 9 5 L 1 9 z" fill="#ffffff" stroke="#475569" stroke-width="1.2"/></marker></defs><path d="M 2324.0 236.3 L 2356.0 236.3 L 2356.0 251.7 L 2528.0 251.7 L 2528.0 276.0 L 2708.0 276.0" fill="none" stroke="#475569" stroke-width="1.5" stroke-dasharray="8 5" marker-end="url(#marker-end-bicep-deploys-function-app)"/><text x="2401.4" y="253.1" text-anchor="middle" fill="#334155" stroke="#ffffff" stroke-width="4" stroke-linejoin="round" paint-order="stroke">provisions</text></g><g data-dediren-edge-id="function-package-deploys-api"><defs><marker id="marker-end-function-package-deploys-api" data-dediren-edge-marker-end="hollow_triangle" markerWidth="10" markerHeight="10" refX="9" refY="5" orient="auto" markerUnits="strokeWidth"><path d="M 1 1 L 9 5 L 1 9 z" fill="#ffffff" stroke="#475569" stroke-width="1.2"/></marker></defs><path d="M 2324.0 556.0 L 2708.0 556.0" fill="none" stroke="#475569" stroke-width="1.5" stroke-dasharray="8 5" marker-end="url(#marker-end-function-package-deploys-api)"/><text x="2516.0" y="547.6" text-anchor="middle" fill="#334155" stroke="#ffffff" stroke-width="4" stroke-linejoin="round" paint-order="stroke">deploys</text></g><g data-dediren-edge-id="spa-package-deploys-app"><defs><marker id="marker-end-spa-package-deploys-app" data-dediren-edge-marker-end="hollow_triangle" markerWidth="10" markerHeight="10" refX="9" refY="5" orient="auto" markerUnits="strokeWidth"><path d="M 1 1 L 9 5 L 1 9 z" fill="#ffffff" stroke="#475569" stroke-width="1.2"/></marker></defs><path d="M 2324.0 412.0 L 2528.0 412.0 L 2528.0 416.0 L 2708.0 416.0" fill="none" stroke="#475569" stroke-width="1.5" stroke-dasharray="8 5" marker-end="url(#marker-end-spa-package-deploys-app)"/><text x="2426.0" y="428.8" text-anchor="middle" fill="#334155" stroke="#ffffff" stroke-width="4" stroke-linejoin="round" paint-order="stroke">deploys</text></g><g data-dediren-node-id="repository-baseline"><rect data-dediren-node-shape="archimate_rectangle" x="36.0" y="372.0" width="160.0" height="80.0" rx="0" fill="#fef9c3" stroke="#ca8a04" stroke-width="1.5"/><g data-dediren-node-decorator="archimate_plateau" data-dediren-icon-kind="plateau" data-dediren-icon-size="22"><path d="M 173.7 385.0 L 187.4 385.0 M 170.6 388.9 L 184.3 388.9 M 168.0 392.9 L 181.6 392.9" fill="none" stroke="#ca8a04" stroke-width="1.5" stroke-linecap="square"/></g><text x="116.0" y="403.9" text-anchor="middle" dominant-baseline="middle" fill="#713f12" font-size="14.0"><tspan x="116.0" dy="0">Repository</tspan><tspan x="116.0" dy="16.0">baseline</tspan></text></g><g data-dediren-node-id="production-plateau"><rect data-dediren-node-shape="archimate_rectangle" x="2708.0" y="656.0" width="160.0" height="80.0" rx="0" fill="#fef9c3" stroke="#ca8a04" stroke-width="1.5"/><g data-dediren-node-decorator="archimate_plateau" data-dediren-icon-kind="plateau" data-dediren-icon-size="22"><path d="M 2845.7 669.0 L 2859.4 669.0 M 2842.6 672.9 L 2856.3 672.9 M 2840.0 676.9 L 2853.6 676.9" fill="none" stroke="#ca8a04" stroke-width="1.5" stroke-linecap="square"/></g><text x="2788.0" y="688.0" text-anchor="middle" dominant-baseline="middle" fill="#713f12" font-size="14.0"><tspan x="2788.0" dy="0">Production</tspan><tspan x="2788.0" dy="16.0">plateau</tspan></text></g><g data-dediren-node-id="release-to-production-gap"><rect data-dediren-node-shape="archimate_rectangle" x="1232.0" y="616.1" width="160.0" height="80.0" rx="0" fill="#fef3c7" stroke="#d97706" stroke-width="1.5"/><g data-dediren-node-decorator="archimate_gap" data-dediren-icon-kind="gap" data-dediren-icon-size="22"><ellipse cx="1375.4" cy="632.6" rx="4.8" ry="4.8" fill="none" stroke="#d97706" stroke-width="1.5"/><path data-dediren-icon-part="gap-lines" d="M 1366.2 630.9 L 1384.7 630.9 M 1366.2 634.4 L 1384.7 634.4" fill="none" stroke="#d97706" stroke-width="1.5" stroke-linecap="round"/></g><text x="1312.0" y="648.1" text-anchor="middle" dominant-baseline="middle" fill="#78350f" font-size="14.0"><tspan x="1312.0" dy="0">Release to</tspan><tspan x="1312.0" dy="16.0">production gap</tspan></text></g><g data-dediren-node-id="deploy-to-production-event"><rect data-dediren-node-shape="archimate_rounded_rectangle" x="760.0" y="756.0" width="160.0" height="80.0" rx="4.0" fill="#ffedd5" stroke="#ea580c" stroke-width="1.5"/><g data-dediren-node-decorator="archimate_implementation_event" data-dediren-icon-kind="event" data-dediren-icon-size="22"><path data-dediren-icon-part="event-pill" d="M 896.0 765.9 L 908.3 765.9 C 912.7 765.9, 914.0 769.4, 914.0 772.9 C 914.0 776.4, 912.7 780.0, 908.3 780.0 L 896.0 780.0 L 899.5 772.9 L 896.0 765.9 Z" fill="#ffedd5" stroke="#ea580c" stroke-width="1.5"/></g><text x="840.0" y="788.0" text-anchor="middle" dominant-baseline="middle" fill="#7c2d12" font-size="14.0"><tspan x="840.0" dy="0">Deploy to</tspan><tspan x="840.0" dy="16.0">production</tspan></text></g><g data-dediren-node-id="deploy-workflow"><rect data-dediren-node-shape="archimate_rounded_rectangle" x="316.0" y="516.0" width="160.0" height="176.0" rx="4.0" fill="#ffedd5" stroke="#ea580c" stroke-width="1.5"/><g data-dediren-node-decorator="archimate_work_package" data-dediren-icon-kind="work_package" data-dediren-icon-size="22"><path data-dediren-icon-part="work-package-loop-arrow" d="M 457.7 529.8 A 5.7 5.7 0 1 0 456.8 534.2 L 463.8 534.2 M 463.8 534.2 L 461.2 532.0 M 463.8 534.2 L 461.2 536.4" fill="none" stroke="#ea580c" stroke-width="1.5" stroke-linecap="round" stroke-linejoin="round"/></g><text x="396.0" y="604.0" text-anchor="middle" dominant-baseline="middle" fill="#7c2d12" font-size="14.0">Deploy workflow</text></g><g data-dediren-node-id="secret-scan-workflow"><rect data-dediren-node-shape="archimate_rounded_rectangle" x="1256.0" y="228.0" width="160.0" height="80.0" rx="4.0" fill="#ffedd5" stroke="#ea580c" stroke-width="1.5"/><g data-dediren-node-decorator="archimate_work_package" data-dediren-icon-kind="work_package" data-dediren-icon-size="22"><path data-dediren-icon-part="work-package-loop-arrow" d="M 1397.7 241.8 A 5.7 5.7 0 1 0 1396.8 246.2 L 1403.8 246.2 M 1403.8 246.2 L 1401.2 244.0 M 1403.8 246.2 L 1401.2 248.4" fill="none" stroke="#ea580c" stroke-width="1.5" stroke-linecap="round" stroke-linejoin="round"/></g><text x="1336.0" y="268.0" text-anchor="middle" dominant-baseline="middle" fill="#7c2d12" font-size="14.0">Secret Scanning</text></g><g data-dediren-node-id="infrastructure-analysis-workflow"><rect data-dediren-node-shape="archimate_rounded_rectangle" x="1256.0" y="88.0" width="160.0" height="80.0" rx="4.0" fill="#ffedd5" stroke="#ea580c" stroke-width="1.5"/><g data-dediren-node-decorator="archimate_work_package" data-dediren-icon-kind="work_package" data-dediren-icon-size="22"><path data-dediren-icon-part="work-package-loop-arrow" d="M 1397.7 101.8 A 5.7 5.7 0 1 0 1396.8 106.2 L 1403.8 106.2 M 1403.8 106.2 L 1401.2 104.0 M 1403.8 106.2 L 1401.2 108.4" fill="none" stroke="#ea580c" stroke-width="1.5" stroke-linecap="round" stroke-linejoin="round"/></g><text x="1336.0" y="120.0" text-anchor="middle" dominant-baseline="middle" fill="#7c2d12" font-size="14.0"><tspan x="1336.0" dy="0">Analyze</tspan><tspan x="1336.0" dy="16.0">Infrastructure</tspan></text></g><g data-dediren-node-id="deploy-infra-workflow"><rect data-dediren-node-shape="archimate_rounded_rectangle" x="1880.0" y="44.0" width="160.0" height="80.0" rx="4.0" fill="#ffedd5" stroke="#ea580c" stroke-width="1.5"/><g data-dediren-node-decorator="archimate_work_package" data-dediren-icon-kind="work_package" data-dediren-icon-size="22"><path data-dediren-icon-part="work-package-loop-arrow" d="M 2021.7 57.8 A 5.7 5.7 0 1 0 2020.8 62.2 L 2027.8 62.2 M 2027.8 62.2 L 2025.2 60.0 M 2027.8 62.2 L 2025.2 64.4" fill="none" stroke="#ea580c" stroke-width="1.5" stroke-linecap="round" stroke-linejoin="round"/></g><text x="1960.0" y="76.0" text-anchor="middle" dominant-baseline="middle" fill="#7c2d12" font-size="14.0"><tspan x="1960.0" dy="0">Deploy</tspan><tspan x="1960.0" dy="16.0">Infrastructure</tspan></text></g><g data-dediren-node-id="deploy-app-build-workflow"><rect data-dediren-node-shape="archimate_rounded_rectangle" x="1880.0" y="228.0" width="160.0" height="80.0" rx="4.0" fill="#ffedd5" stroke="#ea580c" stroke-width="1.5"/><g data-dediren-node-decorator="archimate_work_package" data-dediren-icon-kind="work_package" data-dediren-icon-size="22"><path data-dediren-icon-part="work-package-loop-arrow" d="M 2021.7 241.8 A 5.7 5.7 0 1 0 2020.8 246.2 L 2027.8 246.2 M 2027.8 246.2 L 2025.2 244.0 M 2027.8 246.2 L 2025.2 248.4" fill="none" stroke="#ea580c" stroke-width="1.5" stroke-linecap="round" stroke-linejoin="round"/></g><text x="1960.0" y="259.9" text-anchor="middle" dominant-baseline="middle" fill="#7c2d12" font-size="14.0"><tspan x="1960.0" dy="0">Deploy App -</tspan><tspan x="1960.0" dy="16.0">Build</tspan></text></g><g data-dediren-node-id="deploy-app-workflow"><rect data-dediren-node-shape="archimate_rounded_rectangle" x="2164.0" y="660.0" width="160.0" height="80.0" rx="4.0" fill="#ffedd5" stroke="#ea580c" stroke-width="1.5"/><g data-dediren-node-decorator="archimate_work_package" data-dediren-icon-kind="work_package" data-dediren-icon-size="22"><path data-dediren-icon-part="work-package-loop-arrow" d="M 2305.7 673.8 A 5.7 5.7 0 1 0 2304.8 678.2 L 2311.8 678.2 M 2311.8 678.2 L 2309.2 676.0 M 2311.8 678.2 L 2309.2 680.4" fill="none" stroke="#ea580c" stroke-width="1.5" stroke-linecap="round" stroke-linejoin="round"/></g><text x="2244.0" y="700.0" text-anchor="middle" dominant-baseline="middle" fill="#7c2d12" font-size="14.0">Deploy App</text></g><g data-dediren-node-id="bicep-template"><rect data-dediren-node-shape="archimate_rectangle" x="2164.0" y="188.0" width="160.0" height="80.0" rx="0" fill="#fef3c7" stroke="#d97706" stroke-width="1.5"/><g data-dediren-node-decorator="archimate_deliverable" data-dediren-icon-kind="deliverable" data-dediren-icon-size="22"><path data-dediren-icon-part="wavy-document" d="M 2296.0 197.0 L 2318.0 197.0 L 2318.0 209.8 C 2314.0 208.0, 2310.5 208.0, 2307.0 209.8 C 2303.5 211.5, 2300.0 211.5, 2296.0 209.8 L 2296.0 197.0 Z" fill="#fef3c7" stroke="#d97706" stroke-width="1.5" stroke-linejoin="round"/></g><text x="2244.0" y="228.0" text-anchor="middle" dominant-baseline="middle" fill="#78350f" font-size="14.0">Bicep deployment</text></g><g data-dediren-node-id="function-app-package"><rect data-dediren-node-shape="archimate_rectangle" x="2164.0" y="516.0" width="160.0" height="80.0" rx="0" fill="#fef3c7" stroke="#d97706" stroke-width="1.5"/><g data-dediren-node-decorator="archimate_deliverable" data-dediren-icon-kind="deliverable" data-dediren-icon-size="22"><path data-dediren-icon-part="wavy-document" d="M 2296.0 525.0 L 2318.0 525.0 L 2318.0 537.8 C 2314.0 536.0, 2310.5 536.0, 2307.0 537.8 C 2303.5 539.5, 2300.0 539.5, 2296.0 537.8 L 2296.0 525.0 Z" fill="#fef3c7" stroke="#d97706" stroke-width="1.5" stroke-linejoin="round"/></g><text x="2244.0" y="556.0" text-anchor="middle" dominant-baseline="middle" fill="#78350f" font-size="14.0">Functions zip</text></g><g data-dediren-node-id="spa-wwwroot-package"><rect data-dediren-node-shape="archimate_rectangle" x="2164.0" y="372.0" width="160.0" height="80.0" rx="0" fill="#fef3c7" stroke="#d97706" stroke-width="1.5"/><g data-dediren-node-decorator="archimate_deliverable" data-dediren-icon-kind="deliverable" data-dediren-icon-size="22"><path data-dediren-icon-part="wavy-document" d="M 2296.0 381.0 L 2318.0 381.0 L 2318.0 393.8 C 2314.0 392.0, 2310.5 392.0, 2307.0 393.8 C 2303.5 395.5, 2300.0 395.5, 2296.0 393.8 L 2296.0 381.0 Z" fill="#fef3c7" stroke="#d97706" stroke-width="1.5" stroke-linejoin="round"/></g><text x="2244.0" y="403.9" text-anchor="middle" dominant-baseline="middle" fill="#78350f" font-size="14.0"><tspan x="2244.0" dy="0">SPA wwwroot</tspan><tspan x="2244.0" dy="16.0">bundle</tspan></text></g><g data-dediren-node-id="static-web-apps"><rect data-dediren-node-shape="archimate_rectangle" x="2708.0" y="96.0" width="160.0" height="80.0" rx="0" fill="#ecfdf3" stroke="#16a34a" stroke-width="1.5"/><g data-dediren-node-decorator="archimate_technology_node" data-dediren-icon-kind="node" data-dediren-icon-size="22"><rect x="2840.0" y="109.0" width="18.0" height="12.8" rx="1.5" fill="#ecfdf3" stroke="#16a34a" stroke-width="1.5"/><path data-dediren-icon-part="node-3d-edges" d="M 2840.0 109.0 L 2844.0 105.0 L 2862.0 105.0 L 2858.0 109.0 M 2858.0 109.0 L 2862.0 105.0 M 2858.0 121.7 L 2862.0 117.8 M 2862.0 105.0 L 2862.0 117.8" fill="none" stroke="#16a34a" stroke-width="1.5" stroke-linejoin="round"/></g><text x="2788.0" y="128.0" text-anchor="middle" dominant-baseline="middle" fill="#14532d" font-size="14.0"><tspan x="2788.0" dy="0">Azure Static Web</tspan><tspan x="2788.0" dy="16.0">Apps</tspan></text></g><g data-dediren-node-id="function-app"><rect data-dediren-node-shape="archimate_rectangle" x="2708.0" y="236.0" width="160.0" height="80.0" rx="0" fill="#ecfdf3" stroke="#16a34a" stroke-width="1.5"/><g data-dediren-node-decorator="archimate_technology_node" data-dediren-icon-kind="node" data-dediren-icon-size="22"><rect x="2840.0" y="249.0" width="18.0" height="12.8" rx="1.5" fill="#ecfdf3" stroke="#16a34a" stroke-width="1.5"/><path data-dediren-icon-part="node-3d-edges" d="M 2840.0 249.0 L 2844.0 245.0 L 2862.0 245.0 L 2858.0 249.0 M 2858.0 249.0 L 2862.0 245.0 M 2858.0 261.7 L 2862.0 257.8 M 2862.0 245.0 L 2862.0 257.8" fill="none" stroke="#16a34a" stroke-width="1.5" stroke-linejoin="round"/></g><text x="2788.0" y="267.9" text-anchor="middle" dominant-baseline="middle" fill="#14532d" font-size="14.0"><tspan x="2788.0" dy="0">Azure Function</tspan><tspan x="2788.0" dy="16.0">App</tspan></text></g><g data-dediren-node-id="lfm-app"><rect data-dediren-node-shape="archimate_rectangle" x="2708.0" y="376.0" width="160.0" height="80.0" rx="0" fill="#e8f3ff" stroke="#2563eb" stroke-width="1.5"/><g data-dediren-node-decorator="archimate_application_component" data-dediren-icon-kind="component" data-dediren-icon-size="22"><rect x="2844.0" y="385.0" width="18.0" height="15.8" rx="1.5" fill="#e8f3ff" stroke="#2563eb" stroke-width="1.5"/><rect x="2840.0" y="387.6" width="7.9" height="5.7" rx="1.2" fill="#e8f3ff" stroke="#2563eb" stroke-width="1.5"/><rect x="2840.0" y="394.7" width="7.9" height="5.7" rx="1.2" fill="#e8f3ff" stroke="#2563eb" stroke-width="1.5"/></g><text x="2788.0" y="416.0" text-anchor="middle" dominant-baseline="middle" fill="#172554" font-size="14.0">Lfm.App</text></g><g data-dediren-node-id="lfm-api"><rect data-dediren-node-shape="archimate_rectangle" x="2708.0" y="516.0" width="160.0" height="80.0" rx="0" fill="#e8f3ff" stroke="#2563eb" stroke-width="1.5"/><g data-dediren-node-decorator="archimate_application_component" data-dediren-icon-kind="component" data-dediren-icon-size="22"><rect x="2844.0" y="525.0" width="18.0" height="15.8" rx="1.5" fill="#e8f3ff" stroke="#2563eb" stroke-width="1.5"/><rect x="2840.0" y="527.6" width="7.9" height="5.7" rx="1.2" fill="#e8f3ff" stroke="#2563eb" stroke-width="1.5"/><rect x="2840.0" y="534.7" width="7.9" height="5.7" rx="1.2" fill="#e8f3ff" stroke="#2563eb" stroke-width="1.5"/></g><text x="2788.0" y="556.0" text-anchor="middle" dominant-baseline="middle" fill="#172554" font-size="14.0">Lfm.Api</text></g></g></svg>

