<svg xmlns="http://www.w3.org/2000/svg" width="2520" height="828" viewBox="-12.0 -12.0 2520.0 828.2"><rect x="-12.0" y="-12.0" width="2520.0" height="828.2" fill="#ffffff"/><g font-family="Inter, Arial, sans-serif" font-size="14.0"><g data-dediren-group-id="production-release-orchestration"><rect x="12.0" y="12.0" width="208.0" height="768.0" rx="4.0" fill="#f8fafc" stroke="#94a3b8" stroke-width="1.0"/><text x="20.0" y="28.0" fill="#374151" font-size="12.0">Deploy orchestration</text></g><g data-dediren-group-id="production-release-quality-gates"><rect x="460.0" y="532.0" width="208.0" height="228.0" rx="4.0" fill="#f8fafc" stroke="#94a3b8" stroke-width="1.0"/><text x="468.0" y="548.0" fill="#374151" font-size="12.0">Deployment quality gates</text></g><g data-dediren-group-id="production-release-build-and-deploy"><rect x="908.0" y="333.0" width="948.0" height="448.0" rx="4.0" fill="#f8fafc" stroke="#94a3b8" stroke-width="1.0"/><text x="916.0" y="349.0" fill="#374151" font-size="12.0">Build and deploy stages</text></g><g data-dediren-group-id="production-release-deployed-runtime"><rect x="2096.0" y="369.6" width="388.0" height="328.0" rx="4.0" fill="#f8fafc" stroke="#94a3b8" stroke-width="1.0"/><text x="2104.0" y="385.6" fill="#374151" font-size="12.0">Production runtime</text></g><g data-dediren-edge-id="repository-triggers-deploy-workflow"><defs><marker id="marker-end-repository-triggers-deploy-workflow" data-dediren-edge-marker-end="filled_arrow" markerWidth="8" markerHeight="8" refX="8" refY="4" orient="auto" markerUnits="strokeWidth"><path d="M 0 0 L 8 4 L 0 8 z" fill="#b45309"/></marker></defs><path d="M 116.0 116.0 L 116.0 356.0" fill="none" stroke="#b45309" stroke-width="1.5" marker-end="url(#marker-end-repository-triggers-deploy-workflow)"/><text x="113.9" y="240.2" text-anchor="end" fill="#92400e" stroke="#ffffff" stroke-width="4" stroke-linejoin="round" paint-order="stroke">push/manual</text></g><g data-dediren-edge-id="deploy-workflow-composes-infra"><defs><marker id="marker-start-deploy-workflow-composes-infra" data-dediren-edge-marker-start="filled_diamond" markerWidth="10" markerHeight="10" refX="1" refY="5" orient="auto" markerUnits="strokeWidth"><path d="M 1 5 L 5 1 L 9 5 L 5 9 z" fill="#475569" stroke="#475569" stroke-width="1.1"/></marker><marker id="marker-end-deploy-workflow-composes-infra" data-dediren-edge-marker-end="filled_arrow" markerWidth="8" markerHeight="8" refX="8" refY="4" orient="auto" markerUnits="strokeWidth"><path d="M 0 0 L 8 4 L 0 8 z" fill="#475569"/></marker></defs><path d="M 196.0 388.0 L 577.3 388.0 L 577.3 373.0 L 958.7 373.0" fill="none" stroke="#475569" stroke-width="1.5" marker-start="url(#marker-start-deploy-workflow-composes-infra)" marker-end="url(#marker-end-deploy-workflow-composes-infra)"/><text x="386.7" y="361.6" text-anchor="middle" fill="#334155" stroke="#ffffff" stroke-width="4" stroke-linejoin="round" paint-order="stroke">infra</text></g><g data-dediren-edge-id="deploy-workflow-composes-secret-scan"><defs><marker id="marker-start-deploy-workflow-composes-secret-scan" data-dediren-edge-marker-start="filled_diamond" markerWidth="10" markerHeight="10" refX="1" refY="5" orient="auto" markerUnits="strokeWidth"><path d="M 1 5 L 5 1 L 9 5 L 5 9 z" fill="#475569" stroke="#475569" stroke-width="1.1"/></marker><marker id="marker-end-deploy-workflow-composes-secret-scan" data-dediren-edge-marker-end="filled_arrow" markerWidth="8" markerHeight="8" refX="8" refY="4" orient="auto" markerUnits="strokeWidth"><path d="M 0 0 L 8 4 L 0 8 z" fill="#475569"/></marker></defs><path d="M 196.0 396.0 L 340.0 396.0 L 340.0 596.0 L 484.0 596.0" fill="none" stroke="#475569" stroke-width="1.5" marker-start="url(#marker-start-deploy-workflow-composes-secret-scan)" marker-end="url(#marker-end-deploy-workflow-composes-secret-scan)"/><text x="268.0" y="358.8" text-anchor="middle" fill="#334155" stroke="#ffffff" stroke-width="4" stroke-linejoin="round" paint-order="stroke">secret gate</text></g><g data-dediren-edge-id="deploy-workflow-composes-infra-analysis"><defs><marker id="marker-start-deploy-workflow-composes-infra-analysis" data-dediren-edge-marker-start="filled_diamond" markerWidth="10" markerHeight="10" refX="1" refY="5" orient="auto" markerUnits="strokeWidth"><path d="M 1 5 L 5 1 L 9 5 L 5 9 z" fill="#475569" stroke="#475569" stroke-width="1.1"/></marker><marker id="marker-end-deploy-workflow-composes-infra-analysis" data-dediren-edge-marker-end="filled_arrow" markerWidth="8" markerHeight="8" refX="8" refY="4" orient="auto" markerUnits="strokeWidth"><path d="M 0 0 L 8 4 L 0 8 z" fill="#475569"/></marker></defs><path d="M 196.0 404.0 L 340.0 404.0 L 340.0 404.0 Q 346.0 404.0 346.0 404.0 L 346.0 596.0 Q 346.0 602.0 340.0 596.0 L 340.0 696.0 L 484.0 696.0" fill="none" stroke="#475569" stroke-width="1.5" marker-start="url(#marker-start-deploy-workflow-composes-infra-analysis)" marker-end="url(#marker-end-deploy-workflow-composes-infra-analysis)"/><text x="268.0" y="438.8" text-anchor="middle" fill="#334155" stroke="#ffffff" stroke-width="4" stroke-linejoin="round" paint-order="stroke">infra analysis</text></g><g data-dediren-edge-id="deploy-workflow-composes-build"><defs><marker id="marker-start-deploy-workflow-composes-build" data-dediren-edge-marker-start="filled_diamond" markerWidth="10" markerHeight="10" refX="1" refY="5" orient="auto" markerUnits="strokeWidth"><path d="M 1 5 L 5 1 L 9 5 L 5 9 z" fill="#475569" stroke="#475569" stroke-width="1.1"/></marker><marker id="marker-end-deploy-workflow-composes-build" data-dediren-edge-marker-end="filled_arrow" markerWidth="8" markerHeight="8" refX="8" refY="4" orient="auto" markerUnits="strokeWidth"><path d="M 0 0 L 8 4 L 0 8 z" fill="#475569"/></marker></defs><path d="M 196.0 380.0 L 571.3 380.0 Q 577.3 374.0 583.3 380.0 L 807.3 380.0 L 807.3 373.0 L 807.3 373.0 Q 807.3 367.0 807.3 367.0 L 958.7 367.0 Q 964.7 367.0 958.7 373.0 L 1418.7 373.0" fill="none" stroke="#475569" stroke-width="1.5" marker-start="url(#marker-start-deploy-workflow-composes-build)" marker-end="url(#marker-end-deploy-workflow-composes-build)"/><text x="501.7" y="371.6" text-anchor="middle" fill="#334155" stroke="#ffffff" stroke-width="4" stroke-linejoin="round" paint-order="stroke">build</text></g><g data-dediren-edge-id="deploy-workflow-composes-app"><defs><marker id="marker-start-deploy-workflow-composes-app" data-dediren-edge-marker-start="filled_diamond" markerWidth="10" markerHeight="10" refX="1" refY="5" orient="auto" markerUnits="strokeWidth"><path d="M 1 5 L 5 1 L 9 5 L 5 9 z" fill="#475569" stroke="#475569" stroke-width="1.1"/></marker><marker id="marker-end-deploy-workflow-composes-app" data-dediren-edge-marker-end="filled_arrow" markerWidth="8" markerHeight="8" refX="8" refY="4" orient="auto" markerUnits="strokeWidth"><path d="M 0 0 L 8 4 L 0 8 z" fill="#475569"/></marker></defs><path d="M 196.0 420.0 L 334.0 420.0 Q 340.0 414.0 346.0 420.0 L 334.0 420.0 Q 340.0 414.0 346.0 420.0 L 704.0 420.0 L 704.0 693.0 L 1212.0 693.0" fill="none" stroke="#475569" stroke-width="1.5" marker-start="url(#marker-start-deploy-workflow-composes-app)" marker-end="url(#marker-end-deploy-workflow-composes-app)"/><text x="450.0" y="436.8" text-anchor="middle" fill="#334155" stroke="#ffffff" stroke-width="4" stroke-linejoin="round" paint-order="stroke">app</text></g><g data-dediren-edge-id="deploy-infra-realizes-bicep"><defs><marker id="marker-end-deploy-infra-realizes-bicep" data-dediren-edge-marker-end="hollow_triangle" markerWidth="10" markerHeight="10" refX="9" refY="5" orient="auto" markerUnits="strokeWidth"><path d="M 1 1 L 9 5 L 1 9 z" fill="#ffffff" stroke="#475569" stroke-width="1.2"/></marker></defs><path d="M 1012.0 437.0 L 1012.0 677.0" fill="none" stroke="#475569" stroke-width="1.5" stroke-dasharray="8 5" marker-end="url(#marker-end-deploy-infra-realizes-bicep)"/><text x="1009.9" y="561.2" text-anchor="end" fill="#334155" stroke="#ffffff" stroke-width="4" stroke-linejoin="round" paint-order="stroke">applies</text></g><g data-dediren-edge-id="deploy-build-realizes-functions-package"><defs><marker id="marker-end-deploy-build-realizes-functions-package" data-dediren-edge-marker-end="hollow_triangle" markerWidth="10" markerHeight="10" refX="9" refY="5" orient="auto" markerUnits="strokeWidth"><path d="M 1 1 L 9 5 L 1 9 z" fill="#ffffff" stroke="#475569" stroke-width="1.2"/></marker></defs><path d="M 1472.0 437.0 L 1472.0 677.0" fill="none" stroke="#475569" stroke-width="1.5" stroke-dasharray="8 5" marker-end="url(#marker-end-deploy-build-realizes-functions-package)"/><text x="1469.9" y="561.2" text-anchor="end" fill="#334155" stroke="#ffffff" stroke-width="4" stroke-linejoin="round" paint-order="stroke">builds</text></g><g data-dediren-edge-id="deploy-build-realizes-spa-package"><defs><marker id="marker-end-deploy-build-realizes-spa-package" data-dediren-edge-marker-end="hollow_triangle" markerWidth="10" markerHeight="10" refX="9" refY="5" orient="auto" markerUnits="strokeWidth"><path d="M 1 1 L 9 5 L 1 9 z" fill="#ffffff" stroke="#475569" stroke-width="1.2"/></marker></defs><path d="M 1525.3 437.0 L 1525.3 469.0 L 1752.0 469.0 L 1752.0 677.0" fill="none" stroke="#475569" stroke-width="1.5" stroke-dasharray="8 5" marker-end="url(#marker-end-deploy-build-realizes-spa-package)"/><text x="1638.7" y="485.8" text-anchor="middle" fill="#334155" stroke="#ffffff" stroke-width="4" stroke-linejoin="round" paint-order="stroke">builds</text></g><g data-dediren-edge-id="secret-scan-triggers-build"><defs><marker id="marker-end-secret-scan-triggers-build" data-dediren-edge-marker-end="filled_arrow" markerWidth="8" markerHeight="8" refX="8" refY="4" orient="auto" markerUnits="strokeWidth"><path d="M 0 0 L 8 4 L 0 8 z" fill="#b45309"/></marker></defs><path d="M 644.0 572.0 L 698.0 572.0 Q 704.0 566.0 710.0 572.0 L 1006.0 572.0 Q 1012.0 566.0 1018.0 572.0 L 1031.3 572.0 L 1031.3 397.0 L 1418.7 397.0" fill="none" stroke="#b45309" stroke-width="1.5" marker-end="url(#marker-end-secret-scan-triggers-build)"/><text x="837.7" y="563.6" text-anchor="middle" fill="#92400e" stroke="#ffffff" stroke-width="4" stroke-linejoin="round" paint-order="stroke">gate</text></g><g data-dediren-edge-id="secret-scan-triggers-infra-deploy"><defs><marker id="marker-end-secret-scan-triggers-infra-deploy" data-dediren-edge-marker-end="filled_arrow" markerWidth="8" markerHeight="8" refX="8" refY="4" orient="auto" markerUnits="strokeWidth"><path d="M 0 0 L 8 4 L 0 8 z" fill="#b45309"/></marker></defs><path d="M 644.0 620.0 L 698.0 620.0 Q 704.0 614.0 710.0 620.0 L 801.3 620.0 L 801.3 578.0 Q 807.3 572.0 801.3 566.0 L 801.3 389.0 L 958.7 389.0" fill="none" stroke="#b45309" stroke-width="1.5" marker-end="url(#marker-end-secret-scan-triggers-infra-deploy)"/><text x="722.7" y="611.6" text-anchor="middle" fill="#92400e" stroke="#ffffff" stroke-width="4" stroke-linejoin="round" paint-order="stroke">gate</text></g><g data-dediren-edge-id="infrastructure-analysis-triggers-infra-deploy"><defs><marker id="marker-end-infrastructure-analysis-triggers-infra-deploy" data-dediren-edge-marker-end="filled_arrow" markerWidth="8" markerHeight="8" refX="8" refY="4" orient="auto" markerUnits="strokeWidth"><path d="M 0 0 L 8 4 L 0 8 z" fill="#b45309"/></marker></defs><path d="M 644.0 696.0 L 801.3 696.0 L 801.3 620.0 Q 807.3 620.0 807.3 620.0 L 807.3 405.0 Q 807.3 399.0 801.3 405.0 L 801.3 405.0 L 958.7 405.0" fill="none" stroke="#b45309" stroke-width="1.5" marker-end="url(#marker-end-infrastructure-analysis-triggers-infra-deploy)"/><text x="722.7" y="669.6" text-anchor="middle" fill="#92400e" stroke="#ffffff" stroke-width="4" stroke-linejoin="round" paint-order="stroke">gate</text></g><g data-dediren-edge-id="deploy-infra-triggers-app-deploy"><defs><marker id="marker-end-deploy-infra-triggers-app-deploy" data-dediren-edge-marker-end="filled_arrow" markerWidth="8" markerHeight="8" refX="8" refY="4" orient="auto" markerUnits="strokeWidth"><path d="M 0 0 L 8 4 L 0 8 z" fill="#b45309"/></marker></defs><path d="M 1065.3 437.0 L 1065.3 469.0 L 1292.0 469.0 L 1292.0 677.0" fill="none" stroke="#b45309" stroke-width="1.5" marker-end="url(#marker-end-deploy-infra-triggers-app-deploy)"/><text x="1240.1" y="485.8" text-anchor="middle" fill="#92400e" stroke="#ffffff" stroke-width="4" stroke-linejoin="round" paint-order="stroke">before app</text></g><g data-dediren-edge-id="deploy-app-realizes-production"><defs><marker id="marker-end-deploy-app-realizes-production" data-dediren-edge-marker-end="hollow_triangle" markerWidth="10" markerHeight="10" refX="9" refY="5" orient="auto" markerUnits="strokeWidth"><path d="M 1 1 L 9 5 L 1 9 z" fill="#ffffff" stroke="#475569" stroke-width="1.2"/></marker></defs><path d="M 1372.0 717.0 L 1746.0 717.0 L 1746.0 475.0 Q 1752.0 469.0 1746.0 463.0 L 1746.0 457.6 L 2120.0 457.6" fill="none" stroke="#475569" stroke-width="1.5" stroke-dasharray="8 5" marker-end="url(#marker-end-deploy-app-realizes-production)"/><text x="1607.4" y="708.6" text-anchor="middle" fill="#334155" stroke="#ffffff" stroke-width="4" stroke-linejoin="round" paint-order="stroke">updates</text></g><g data-dediren-edge-id="release-gap-realized-by-deploy"><defs><marker id="marker-end-release-gap-realized-by-deploy" data-dediren-edge-marker-end="hollow_triangle" markerWidth="10" markerHeight="10" refX="9" refY="5" orient="auto" markerUnits="strokeWidth"><path d="M 1 1 L 9 5 L 1 9 z" fill="#ffffff" stroke="#475569" stroke-width="1.2"/></marker></defs><path d="M 196.0 372.0 L 328.0 372.0 L 328.0 140.0 L 460.0 140.0" fill="none" stroke="#475569" stroke-width="1.5" stroke-dasharray="8 5" marker-end="url(#marker-end-release-gap-realized-by-deploy)"/><text x="262.0" y="381.6" text-anchor="middle" fill="#334155" stroke="#ffffff" stroke-width="4" stroke-linejoin="round" paint-order="stroke">closes</text></g><g data-dediren-edge-id="deploy-workflow-triggers-event"><defs><marker id="marker-end-deploy-workflow-triggers-event" data-dediren-edge-marker-end="filled_arrow" markerWidth="8" markerHeight="8" refX="8" refY="4" orient="auto" markerUnits="strokeWidth"><path d="M 0 0 L 8 4 L 0 8 z" fill="#b45309"/></marker></defs><path d="M 116.0 436.0 L 116.0 676.0" fill="none" stroke="#b45309" stroke-width="1.5" marker-end="url(#marker-end-deploy-workflow-triggers-event)"/><text x="113.9" y="560.2" text-anchor="end" fill="#92400e" stroke="#ffffff" stroke-width="4" stroke-linejoin="round" paint-order="stroke">deploys</text></g><g data-dediren-edge-id="deploy-event-realizes-production"><defs><marker id="marker-end-deploy-event-realizes-production" data-dediren-edge-marker-end="hollow_triangle" markerWidth="10" markerHeight="10" refX="9" refY="5" orient="auto" markerUnits="strokeWidth"><path d="M 1 1 L 9 5 L 1 9 z" fill="#ffffff" stroke="#475569" stroke-width="1.2"/></marker></defs><path d="M 196.0 716.0 L 1158.0 716.0 L 1158.0 699.0 Q 1164.0 693.0 1158.0 687.0 L 1158.0 475.0 Q 1164.0 469.0 1158.0 463.0 L 1158.0 409.6 L 2120.0 409.6" fill="none" stroke="#475569" stroke-width="1.5" stroke-dasharray="8 5" marker-end="url(#marker-end-deploy-event-realizes-production)"/><text x="677.0" y="725.6" text-anchor="middle" fill="#334155" stroke="#ffffff" stroke-width="4" stroke-linejoin="round" paint-order="stroke">reaches</text></g><g data-dediren-edge-id="bicep-deploys-static-web-apps"><defs><marker id="marker-end-bicep-deploys-static-web-apps" data-dediren-edge-marker-end="hollow_triangle" markerWidth="10" markerHeight="10" refX="9" refY="5" orient="auto" markerUnits="strokeWidth"><path d="M 1 1 L 9 5 L 1 9 z" fill="#ffffff" stroke="#475569" stroke-width="1.2"/></marker></defs><path d="M 1092.0 717.0 L 1372.0 717.0 Q 1372.0 711.0 1372.0 711.0 L 1696.0 711.0 Q 1702.0 711.0 1696.0 717.0 L 1696.0 717.0 L 1696.0 475.0 Q 1702.0 469.0 1696.0 463.0 L 1696.0 433.6 L 2300.0 433.6" fill="none" stroke="#475569" stroke-width="1.5" stroke-dasharray="8 5" marker-end="url(#marker-end-bicep-deploys-static-web-apps)"/><text x="1394.0" y="762.6" text-anchor="middle" fill="#334155" stroke="#ffffff" stroke-width="4" stroke-linejoin="round" paint-order="stroke">provisions</text></g><g data-dediren-edge-id="bicep-deploys-function-app"><defs><marker id="marker-end-bicep-deploys-function-app" data-dediren-edge-marker-end="hollow_triangle" markerWidth="10" markerHeight="10" refX="9" refY="5" orient="auto" markerUnits="strokeWidth"><path d="M 1 1 L 9 5 L 1 9 z" fill="#ffffff" stroke="#475569" stroke-width="1.2"/></marker></defs><path d="M 1092.0 741.0 L 1606.0 741.0 L 1606.0 723.0 Q 1612.0 717.0 1606.0 711.0 L 1606.0 723.0 Q 1612.0 717.0 1606.0 711.0 L 1606.0 533.6 L 1690.0 533.6 Q 1696.0 527.6 1702.0 533.6 L 1740.0 533.6 Q 1746.0 527.6 1752.0 533.6 L 1746.0 533.6 Q 1752.0 527.6 1758.0 533.6 L 2120.0 533.6" fill="none" stroke="#475569" stroke-width="1.5" stroke-dasharray="8 5" marker-end="url(#marker-end-bicep-deploys-function-app)"/><text x="1349.0" y="786.6" text-anchor="middle" fill="#334155" stroke="#ffffff" stroke-width="4" stroke-linejoin="round" paint-order="stroke">provisions</text></g><g data-dediren-edge-id="function-package-deploys-api"><defs><marker id="marker-end-function-package-deploys-api" data-dediren-edge-marker-end="hollow_triangle" markerWidth="10" markerHeight="10" refX="9" refY="5" orient="auto" markerUnits="strokeWidth"><path d="M 1 1 L 9 5 L 1 9 z" fill="#ffffff" stroke="#475569" stroke-width="1.2"/></marker></defs><path d="M 1552.0 741.0 L 1552.0 741.0 Q 1552.0 735.0 1552.0 735.0 L 1606.0 735.0 Q 1612.0 735.0 1606.0 741.0 L 1836.0 741.0 L 1836.0 633.6 L 2120.0 633.6" fill="none" stroke="#475569" stroke-width="1.5" stroke-dasharray="8 5" marker-end="url(#marker-end-function-package-deploys-api)"/><text x="1645.6" y="768.6" text-anchor="middle" fill="#334155" stroke="#ffffff" stroke-width="4" stroke-linejoin="round" paint-order="stroke">deploys</text></g><g data-dediren-edge-id="spa-package-deploys-app"><defs><marker id="marker-end-spa-package-deploys-app" data-dediren-edge-marker-end="hollow_triangle" markerWidth="10" markerHeight="10" refX="9" refY="5" orient="auto" markerUnits="strokeWidth"><path d="M 1 1 L 9 5 L 1 9 z" fill="#ffffff" stroke="#475569" stroke-width="1.2"/></marker></defs><path d="M 1832.0 717.0 L 2066.0 717.0 L 2066.0 639.6 Q 2072.0 633.6 2066.0 627.6 L 2066.0 533.6 L 2066.0 533.6 Q 2066.0 527.6 2066.0 527.6 L 2120.0 527.6 Q 2126.0 527.6 2120.0 533.6 L 2300.0 533.6" fill="none" stroke="#475569" stroke-width="1.5" stroke-dasharray="8 5" marker-end="url(#marker-end-spa-package-deploys-app)"/><text x="1949.0" y="708.6" text-anchor="middle" fill="#334155" stroke="#ffffff" stroke-width="4" stroke-linejoin="round" paint-order="stroke">deploys</text></g><g data-dediren-node-id="repository-baseline"><rect data-dediren-node-shape="archimate_rectangle" x="36.0" y="36.0" width="160.0" height="80.0" rx="0" fill="#fef9c3" stroke="#ca8a04" stroke-width="1.5"/><g data-dediren-node-decorator="archimate_plateau" data-dediren-icon-kind="plateau" data-dediren-icon-size="22"><path d="M 173.7 49.0 L 187.4 49.0 M 170.6 52.9 L 184.3 52.9 M 168.0 56.9 L 181.6 56.9" fill="none" stroke="#ca8a04" stroke-width="1.5" stroke-linecap="square"/></g><text x="116.0" y="68.0" text-anchor="middle" dominant-baseline="middle" fill="#713f12" font-size="14.0"><tspan x="116.0" dy="0">Repository</tspan><tspan x="116.0" dy="16.0">baseline</tspan></text></g><g data-dediren-node-id="production-plateau"><rect data-dediren-node-shape="archimate_rectangle" x="2120.0" y="393.6" width="160.0" height="80.0" rx="0" fill="#fef9c3" stroke="#ca8a04" stroke-width="1.5"/><g data-dediren-node-decorator="archimate_plateau" data-dediren-icon-kind="plateau" data-dediren-icon-size="22"><path d="M 2257.7 406.5 L 2271.4 406.5 M 2254.6 410.5 L 2268.3 410.5 M 2252.0 414.5 L 2265.6 414.5" fill="none" stroke="#ca8a04" stroke-width="1.5" stroke-linecap="square"/></g><text x="2200.0" y="425.5" text-anchor="middle" dominant-baseline="middle" fill="#713f12" font-size="14.0"><tspan x="2200.0" dy="0">Production</tspan><tspan x="2200.0" dy="16.0">plateau</tspan></text></g><g data-dediren-node-id="release-to-production-gap"><rect data-dediren-node-shape="archimate_rectangle" x="460.0" y="100.0" width="160.0" height="80.0" rx="0" fill="#fef3c7" stroke="#d97706" stroke-width="1.5"/><g data-dediren-node-decorator="archimate_gap" data-dediren-icon-kind="gap" data-dediren-icon-size="22"><ellipse cx="603.4" cy="116.5" rx="4.8" ry="4.8" fill="none" stroke="#d97706" stroke-width="1.5"/><path data-dediren-icon-part="gap-lines" d="M 594.2 114.7 L 612.7 114.7 M 594.2 118.2 L 612.7 118.2" fill="none" stroke="#d97706" stroke-width="1.5" stroke-linecap="round"/></g><text x="540.0" y="131.9" text-anchor="middle" dominant-baseline="middle" fill="#78350f" font-size="14.0"><tspan x="540.0" dy="0">Release to</tspan><tspan x="540.0" dy="16.0">production gap</tspan></text></g><g data-dediren-node-id="deploy-to-production-event"><rect data-dediren-node-shape="archimate_rounded_rectangle" x="36.0" y="676.0" width="160.0" height="80.0" rx="4.0" fill="#ffedd5" stroke="#ea580c" stroke-width="1.5"/><g data-dediren-node-decorator="archimate_implementation_event" data-dediren-icon-kind="event" data-dediren-icon-size="22"><path data-dediren-icon-part="event-pill" d="M 172.0 685.9 L 184.3 685.9 C 188.7 685.9, 190.0 689.4, 190.0 692.9 C 190.0 696.4, 188.7 700.0, 184.3 700.0 L 172.0 700.0 L 175.5 692.9 L 172.0 685.9 Z" fill="#ffedd5" stroke="#ea580c" stroke-width="1.5"/></g><text x="116.0" y="708.0" text-anchor="middle" dominant-baseline="middle" fill="#7c2d12" font-size="14.0"><tspan x="116.0" dy="0">Deploy to</tspan><tspan x="116.0" dy="16.0">production</tspan></text></g><g data-dediren-node-id="deploy-workflow"><rect data-dediren-node-shape="archimate_rounded_rectangle" x="36.0" y="356.0" width="160.0" height="80.0" rx="4.0" fill="#ffedd5" stroke="#ea580c" stroke-width="1.5"/><g data-dediren-node-decorator="archimate_work_package" data-dediren-icon-kind="work_package" data-dediren-icon-size="22"><path data-dediren-icon-part="work-package-loop-arrow" d="M 177.7 369.8 A 5.7 5.7 0 1 0 176.8 374.2 L 183.8 374.2 M 183.8 374.2 L 181.2 372.0 M 183.8 374.2 L 181.2 376.4" fill="none" stroke="#ea580c" stroke-width="1.5" stroke-linecap="round" stroke-linejoin="round"/></g><text x="116.0" y="396.0" text-anchor="middle" dominant-baseline="middle" fill="#7c2d12" font-size="14.0">Deploy workflow</text></g><g data-dediren-node-id="secret-scan-workflow"><rect data-dediren-node-shape="archimate_rounded_rectangle" x="484.0" y="556.0" width="160.0" height="80.0" rx="4.0" fill="#ffedd5" stroke="#ea580c" stroke-width="1.5"/><g data-dediren-node-decorator="archimate_work_package" data-dediren-icon-kind="work_package" data-dediren-icon-size="22"><path data-dediren-icon-part="work-package-loop-arrow" d="M 625.7 569.8 A 5.7 5.7 0 1 0 624.8 574.2 L 631.8 574.2 M 631.8 574.2 L 629.2 572.0 M 631.8 574.2 L 629.2 576.4" fill="none" stroke="#ea580c" stroke-width="1.5" stroke-linecap="round" stroke-linejoin="round"/></g><text x="564.0" y="596.0" text-anchor="middle" dominant-baseline="middle" fill="#7c2d12" font-size="14.0">Secret Scanning</text></g><g data-dediren-node-id="infrastructure-analysis-workflow"><rect data-dediren-node-shape="archimate_rounded_rectangle" x="484.0" y="656.0" width="160.0" height="80.0" rx="4.0" fill="#ffedd5" stroke="#ea580c" stroke-width="1.5"/><g data-dediren-node-decorator="archimate_work_package" data-dediren-icon-kind="work_package" data-dediren-icon-size="22"><path data-dediren-icon-part="work-package-loop-arrow" d="M 625.7 669.8 A 5.7 5.7 0 1 0 624.8 674.2 L 631.8 674.2 M 631.8 674.2 L 629.2 672.0 M 631.8 674.2 L 629.2 676.4" fill="none" stroke="#ea580c" stroke-width="1.5" stroke-linecap="round" stroke-linejoin="round"/></g><text x="564.0" y="688.0" text-anchor="middle" dominant-baseline="middle" fill="#7c2d12" font-size="14.0"><tspan x="564.0" dy="0">Analyze</tspan><tspan x="564.0" dy="16.0">Infrastructure</tspan></text></g><g data-dediren-node-id="deploy-infra-workflow"><rect data-dediren-node-shape="archimate_rounded_rectangle" x="958.7" y="357.0" width="160.0" height="80.0" rx="4.0" fill="#ffedd5" stroke="#ea580c" stroke-width="1.5"/><g data-dediren-node-decorator="archimate_work_package" data-dediren-icon-kind="work_package" data-dediren-icon-size="22"><path data-dediren-icon-part="work-package-loop-arrow" d="M 1100.3 370.8 A 5.7 5.7 0 1 0 1099.5 375.2 L 1106.5 375.2 M 1106.5 375.2 L 1103.9 373.0 M 1106.5 375.2 L 1103.9 377.4" fill="none" stroke="#ea580c" stroke-width="1.5" stroke-linecap="round" stroke-linejoin="round"/></g><text x="1038.7" y="388.9" text-anchor="middle" dominant-baseline="middle" fill="#7c2d12" font-size="14.0"><tspan x="1038.7" dy="0">Deploy</tspan><tspan x="1038.7" dy="16.0">Infrastructure</tspan></text></g><g data-dediren-node-id="deploy-app-build-workflow"><rect data-dediren-node-shape="archimate_rounded_rectangle" x="1418.7" y="357.0" width="160.0" height="80.0" rx="4.0" fill="#ffedd5" stroke="#ea580c" stroke-width="1.5"/><g data-dediren-node-decorator="archimate_work_package" data-dediren-icon-kind="work_package" data-dediren-icon-size="22"><path data-dediren-icon-part="work-package-loop-arrow" d="M 1560.3 370.8 A 5.7 5.7 0 1 0 1559.5 375.2 L 1566.5 375.2 M 1566.5 375.2 L 1563.9 373.0 M 1566.5 375.2 L 1563.9 377.4" fill="none" stroke="#ea580c" stroke-width="1.5" stroke-linecap="round" stroke-linejoin="round"/></g><text x="1498.7" y="388.9" text-anchor="middle" dominant-baseline="middle" fill="#7c2d12" font-size="14.0"><tspan x="1498.7" dy="0">Deploy App -</tspan><tspan x="1498.7" dy="16.0">Build</tspan></text></g><g data-dediren-node-id="deploy-app-workflow"><rect data-dediren-node-shape="archimate_rounded_rectangle" x="1212.0" y="677.0" width="160.0" height="80.0" rx="4.0" fill="#ffedd5" stroke="#ea580c" stroke-width="1.5"/><g data-dediren-node-decorator="archimate_work_package" data-dediren-icon-kind="work_package" data-dediren-icon-size="22"><path data-dediren-icon-part="work-package-loop-arrow" d="M 1353.7 690.8 A 5.7 5.7 0 1 0 1352.8 695.2 L 1359.8 695.2 M 1359.8 695.2 L 1357.2 693.0 M 1359.8 695.2 L 1357.2 697.4" fill="none" stroke="#ea580c" stroke-width="1.5" stroke-linecap="round" stroke-linejoin="round"/></g><text x="1292.0" y="717.0" text-anchor="middle" dominant-baseline="middle" fill="#7c2d12" font-size="14.0">Deploy App</text></g><g data-dediren-node-id="bicep-template"><rect data-dediren-node-shape="archimate_rectangle" x="932.0" y="677.0" width="160.0" height="80.0" rx="0" fill="#fef3c7" stroke="#d97706" stroke-width="1.5"/><g data-dediren-node-decorator="archimate_deliverable" data-dediren-icon-kind="deliverable" data-dediren-icon-size="22"><path data-dediren-icon-part="wavy-document" d="M 1064.0 686.0 L 1086.0 686.0 L 1086.0 698.8 C 1082.0 697.0, 1078.5 697.0, 1075.0 698.8 C 1071.5 700.5, 1068.0 700.5, 1064.0 698.8 L 1064.0 686.0 Z" fill="#fef3c7" stroke="#d97706" stroke-width="1.5" stroke-linejoin="round"/></g><text x="1012.0" y="717.0" text-anchor="middle" dominant-baseline="middle" fill="#78350f" font-size="14.0">Bicep deployment</text></g><g data-dediren-node-id="function-app-package"><rect data-dediren-node-shape="archimate_rectangle" x="1392.0" y="677.0" width="160.0" height="80.0" rx="0" fill="#fef3c7" stroke="#d97706" stroke-width="1.5"/><g data-dediren-node-decorator="archimate_deliverable" data-dediren-icon-kind="deliverable" data-dediren-icon-size="22"><path data-dediren-icon-part="wavy-document" d="M 1524.0 686.0 L 1546.0 686.0 L 1546.0 698.8 C 1542.0 697.0, 1538.5 697.0, 1535.0 698.8 C 1531.5 700.5, 1528.0 700.5, 1524.0 698.8 L 1524.0 686.0 Z" fill="#fef3c7" stroke="#d97706" stroke-width="1.5" stroke-linejoin="round"/></g><text x="1472.0" y="717.0" text-anchor="middle" dominant-baseline="middle" fill="#78350f" font-size="14.0">Functions zip</text></g><g data-dediren-node-id="spa-wwwroot-package"><rect data-dediren-node-shape="archimate_rectangle" x="1672.0" y="677.0" width="160.0" height="80.0" rx="0" fill="#fef3c7" stroke="#d97706" stroke-width="1.5"/><g data-dediren-node-decorator="archimate_deliverable" data-dediren-icon-kind="deliverable" data-dediren-icon-size="22"><path data-dediren-icon-part="wavy-document" d="M 1804.0 686.0 L 1826.0 686.0 L 1826.0 698.8 C 1822.0 697.0, 1818.5 697.0, 1815.0 698.8 C 1811.5 700.5, 1808.0 700.5, 1804.0 698.8 L 1804.0 686.0 Z" fill="#fef3c7" stroke="#d97706" stroke-width="1.5" stroke-linejoin="round"/></g><text x="1752.0" y="709.0" text-anchor="middle" dominant-baseline="middle" fill="#78350f" font-size="14.0"><tspan x="1752.0" dy="0">SPA wwwroot</tspan><tspan x="1752.0" dy="16.0">bundle</tspan></text></g><g data-dediren-node-id="static-web-apps"><rect data-dediren-node-shape="archimate_rectangle" x="2300.0" y="393.6" width="160.0" height="80.0" rx="0" fill="#ecfdf3" stroke="#16a34a" stroke-width="1.5"/><g data-dediren-node-decorator="archimate_technology_node" data-dediren-icon-kind="node" data-dediren-icon-size="22"><rect x="2432.0" y="406.5" width="18.0" height="12.8" rx="1.5" fill="#ecfdf3" stroke="#16a34a" stroke-width="1.5"/><path data-dediren-icon-part="node-3d-edges" d="M 2432.0 406.5 L 2436.0 402.6 L 2454.0 402.6 L 2450.0 406.5 M 2450.0 406.5 L 2454.0 402.6 M 2450.0 419.3 L 2454.0 415.3 M 2454.0 402.6 L 2454.0 415.3" fill="none" stroke="#16a34a" stroke-width="1.5" stroke-linejoin="round"/></g><text x="2380.0" y="425.5" text-anchor="middle" dominant-baseline="middle" fill="#14532d" font-size="14.0"><tspan x="2380.0" dy="0">Azure Static Web</tspan><tspan x="2380.0" dy="16.0">Apps</tspan></text></g><g data-dediren-node-id="function-app"><rect data-dediren-node-shape="archimate_rectangle" x="2120.0" y="493.6" width="160.0" height="80.0" rx="0" fill="#ecfdf3" stroke="#16a34a" stroke-width="1.5"/><g data-dediren-node-decorator="archimate_technology_node" data-dediren-icon-kind="node" data-dediren-icon-size="22"><rect x="2252.0" y="506.5" width="18.0" height="12.8" rx="1.5" fill="#ecfdf3" stroke="#16a34a" stroke-width="1.5"/><path data-dediren-icon-part="node-3d-edges" d="M 2252.0 506.5 L 2256.0 502.6 L 2274.0 502.6 L 2270.0 506.5 M 2270.0 506.5 L 2274.0 502.6 M 2270.0 519.3 L 2274.0 515.3 M 2274.0 502.6 L 2274.0 515.3" fill="none" stroke="#16a34a" stroke-width="1.5" stroke-linejoin="round"/></g><text x="2200.0" y="525.5" text-anchor="middle" dominant-baseline="middle" fill="#14532d" font-size="14.0"><tspan x="2200.0" dy="0">Azure Function</tspan><tspan x="2200.0" dy="16.0">App</tspan></text></g><g data-dediren-node-id="lfm-app"><rect data-dediren-node-shape="archimate_rectangle" x="2300.0" y="493.6" width="160.0" height="80.0" rx="0" fill="#e8f3ff" stroke="#2563eb" stroke-width="1.5"/><g data-dediren-node-decorator="archimate_application_component" data-dediren-icon-kind="component" data-dediren-icon-size="22"><rect x="2436.0" y="502.6" width="18.0" height="15.8" rx="1.5" fill="#e8f3ff" stroke="#2563eb" stroke-width="1.5"/><rect x="2432.0" y="505.2" width="7.9" height="5.7" rx="1.2" fill="#e8f3ff" stroke="#2563eb" stroke-width="1.5"/><rect x="2432.0" y="512.3" width="7.9" height="5.7" rx="1.2" fill="#e8f3ff" stroke="#2563eb" stroke-width="1.5"/></g><text x="2380.0" y="533.6" text-anchor="middle" dominant-baseline="middle" fill="#172554" font-size="14.0">Lfm.App</text></g><g data-dediren-node-id="lfm-api"><rect data-dediren-node-shape="archimate_rectangle" x="2120.0" y="593.6" width="160.0" height="80.0" rx="0" fill="#e8f3ff" stroke="#2563eb" stroke-width="1.5"/><g data-dediren-node-decorator="archimate_application_component" data-dediren-icon-kind="component" data-dediren-icon-size="22"><rect x="2256.0" y="602.6" width="18.0" height="15.8" rx="1.5" fill="#e8f3ff" stroke="#2563eb" stroke-width="1.5"/><rect x="2252.0" y="605.2" width="7.9" height="5.7" rx="1.2" fill="#e8f3ff" stroke="#2563eb" stroke-width="1.5"/><rect x="2252.0" y="612.3" width="7.9" height="5.7" rx="1.2" fill="#e8f3ff" stroke="#2563eb" stroke-width="1.5"/></g><text x="2200.0" y="633.6" text-anchor="middle" dominant-baseline="middle" fill="#172554" font-size="14.0">Lfm.Api</text></g></g></svg>

