<svg xmlns="http://www.w3.org/2000/svg" width="1972" height="1148" viewBox="-12.0 -12.0 1972.0 1147.7"><rect x="-12.0" y="-12.0" width="1972.0" height="1147.7" fill="#ffffff"/><g font-family="Inter, Arial, sans-serif" font-size="14.0"><g data-dediren-edge-id="repository-triggers-deploy-workflow"><defs><marker id="marker-end-repository-triggers-deploy-workflow" data-dediren-edge-marker-end="filled_arrow" markerWidth="8" markerHeight="8" refX="8" refY="4" orient="auto" markerUnits="strokeWidth"><path d="M 0 0 L 8 4 L 0 8 z" fill="#b45309"/></marker></defs><path d="M 172.0 1031.7 L 412.0 1031.7" fill="none" stroke="#b45309" stroke-width="1.5" marker-end="url(#marker-end-repository-triggers-deploy-workflow)"/><text x="292.0" y="1023.3" text-anchor="middle" fill="#92400e" stroke="#ffffff" stroke-width="4" stroke-linejoin="round" paint-order="stroke">push/manual</text></g><g data-dediren-edge-id="deploy-workflow-composes-infra"><defs><marker id="marker-start-deploy-workflow-composes-infra" data-dediren-edge-marker-start="filled_diamond" markerWidth="10" markerHeight="10" refX="1" refY="5" orient="auto" markerUnits="strokeWidth"><path d="M 1 5 L 5 1 L 9 5 L 5 9 z" fill="#475569" stroke="#475569" stroke-width="1.1"/></marker><marker id="marker-end-deploy-workflow-composes-infra" data-dediren-edge-marker-end="filled_arrow" markerWidth="8" markerHeight="8" refX="8" refY="4" orient="auto" markerUnits="strokeWidth"><path d="M 0 0 L 8 4 L 0 8 z" fill="#475569"/></marker></defs><path d="M 572.0 1045.0 L 664.0 1045.0 L 664.0 645.0 L 816.0 645.0" fill="none" stroke="#475569" stroke-width="1.5" marker-start="url(#marker-start-deploy-workflow-composes-infra)" marker-end="url(#marker-end-deploy-workflow-composes-infra)"/><text x="618.0" y="1090.6" text-anchor="middle" fill="#334155" stroke="#ffffff" stroke-width="4" stroke-linejoin="round" paint-order="stroke">infra</text></g><g data-dediren-edge-id="deploy-workflow-composes-build"><defs><marker id="marker-start-deploy-workflow-composes-build" data-dediren-edge-marker-start="filled_diamond" markerWidth="10" markerHeight="10" refX="1" refY="5" orient="auto" markerUnits="strokeWidth"><path d="M 1 5 L 5 1 L 9 5 L 5 9 z" fill="#475569" stroke="#475569" stroke-width="1.1"/></marker><marker id="marker-end-deploy-workflow-composes-build" data-dediren-edge-marker-end="filled_arrow" markerWidth="8" markerHeight="8" refX="8" refY="4" orient="auto" markerUnits="strokeWidth"><path d="M 0 0 L 8 4 L 0 8 z" fill="#475569"/></marker></defs><path d="M 572.0 1058.3 L 816.0 1058.3" fill="none" stroke="#475569" stroke-width="1.5" marker-start="url(#marker-start-deploy-workflow-composes-build)" marker-end="url(#marker-end-deploy-workflow-composes-build)"/><text x="694.0" y="1049.9" text-anchor="middle" fill="#334155" stroke="#ffffff" stroke-width="4" stroke-linejoin="round" paint-order="stroke">build</text></g><g data-dediren-edge-id="deploy-workflow-composes-app"><defs><marker id="marker-start-deploy-workflow-composes-app" data-dediren-edge-marker-start="filled_diamond" markerWidth="10" markerHeight="10" refX="1" refY="5" orient="auto" markerUnits="strokeWidth"><path d="M 1 5 L 5 1 L 9 5 L 5 9 z" fill="#475569" stroke="#475569" stroke-width="1.1"/></marker><marker id="marker-end-deploy-workflow-composes-app" data-dediren-edge-marker-end="filled_arrow" markerWidth="8" markerHeight="8" refX="8" refY="4" orient="auto" markerUnits="strokeWidth"><path d="M 0 0 L 8 4 L 0 8 z" fill="#475569"/></marker></defs><path d="M 572.0 1031.7 L 644.0 1031.7 L 644.0 265.3 L 1288.0 265.3 L 1288.0 271.7 L 1376.0 271.7" fill="none" stroke="#475569" stroke-width="1.5" marker-start="url(#marker-start-deploy-workflow-composes-app)" marker-end="url(#marker-end-deploy-workflow-composes-app)"/><text x="639.0" y="1023.3" text-anchor="middle" fill="#334155" stroke="#ffffff" stroke-width="4" stroke-linejoin="round" paint-order="stroke">app</text></g><g data-dediren-edge-id="deploy-infra-realizes-bicep"><defs><marker id="marker-end-deploy-infra-realizes-bicep" data-dediren-edge-marker-end="hollow_triangle" markerWidth="10" markerHeight="10" refX="9" refY="5" orient="auto" markerUnits="strokeWidth"><path d="M 1 1 L 9 5 L 1 9 z" fill="#ffffff" stroke="#475569" stroke-width="1.2"/></marker></defs><path d="M 976.0 658.3 L 1376.0 658.3" fill="none" stroke="#475569" stroke-width="1.5" stroke-dasharray="8 5" marker-end="url(#marker-end-deploy-infra-realizes-bicep)"/><text x="1145.6" y="644.5" text-anchor="start" fill="#334155" stroke="#ffffff" stroke-width="4" stroke-linejoin="round" paint-order="stroke">applies</text></g><g data-dediren-edge-id="deploy-build-realizes-functions-package"><defs><marker id="marker-end-deploy-build-realizes-functions-package" data-dediren-edge-marker-end="hollow_triangle" markerWidth="10" markerHeight="10" refX="9" refY="5" orient="auto" markerUnits="strokeWidth"><path d="M 1 1 L 9 5 L 1 9 z" fill="#ffffff" stroke="#475569" stroke-width="1.2"/></marker></defs><path d="M 976.0 1045.0 L 1008.0 1045.0 L 1008.0 871.7 L 1376.0 871.7" fill="none" stroke="#475569" stroke-width="1.5" stroke-dasharray="8 5" marker-end="url(#marker-end-deploy-build-realizes-functions-package)"/><text x="1036.0" y="1036.6" text-anchor="middle" fill="#334155" stroke="#ffffff" stroke-width="4" stroke-linejoin="round" paint-order="stroke">builds</text></g><g data-dediren-edge-id="deploy-build-realizes-spa-package"><defs><marker id="marker-end-deploy-build-realizes-spa-package" data-dediren-edge-marker-end="hollow_triangle" markerWidth="10" markerHeight="10" refX="9" refY="5" orient="auto" markerUnits="strokeWidth"><path d="M 1 1 L 9 5 L 1 9 z" fill="#ffffff" stroke="#475569" stroke-width="1.2"/></marker></defs><path d="M 976.0 1071.7 L 1376.0 1071.7" fill="none" stroke="#475569" stroke-width="1.5" stroke-dasharray="8 5" marker-end="url(#marker-end-deploy-build-realizes-spa-package)"/><text x="1176.0" y="1063.3" text-anchor="middle" fill="#334155" stroke="#ffffff" stroke-width="4" stroke-linejoin="round" paint-order="stroke">builds</text></g><g data-dediren-edge-id="deploy-infra-triggers-app-deploy"><defs><marker id="marker-end-deploy-infra-triggers-app-deploy" data-dediren-edge-marker-end="filled_arrow" markerWidth="8" markerHeight="8" refX="8" refY="4" orient="auto" markerUnits="strokeWidth"><path d="M 0 0 L 8 4 L 0 8 z" fill="#b45309"/></marker></defs><path d="M 976.0 631.7 L 1008.0 631.7 L 1008.0 298.3 L 1376.0 298.3" fill="none" stroke="#b45309" stroke-width="1.5" marker-end="url(#marker-end-deploy-infra-triggers-app-deploy)"/><text x="1053.4" y="623.3" text-anchor="middle" fill="#92400e" stroke="#ffffff" stroke-width="4" stroke-linejoin="round" paint-order="stroke">before app</text></g><g data-dediren-edge-id="deploy-app-realizes-production"><defs><marker id="marker-end-deploy-app-realizes-production" data-dediren-edge-marker-end="hollow_triangle" markerWidth="10" markerHeight="10" refX="9" refY="5" orient="auto" markerUnits="strokeWidth"><path d="M 1 1 L 9 5 L 1 9 z" fill="#ffffff" stroke="#475569" stroke-width="1.2"/></marker></defs><path d="M 1536.0 285.0 L 1776.0 285.0" fill="none" stroke="#475569" stroke-width="1.5" stroke-dasharray="8 5" marker-end="url(#marker-end-deploy-app-realizes-production)"/><text x="1625.6" y="307.2" text-anchor="start" fill="#334155" stroke="#ffffff" stroke-width="4" stroke-linejoin="round" paint-order="stroke">updates</text></g><g data-dediren-edge-id="release-gap-realized-by-deploy"><defs><marker id="marker-end-release-gap-realized-by-deploy" data-dediren-edge-marker-end="hollow_triangle" markerWidth="10" markerHeight="10" refX="9" refY="5" orient="auto" markerUnits="strokeWidth"><path d="M 1 1 L 9 5 L 1 9 z" fill="#ffffff" stroke="#475569" stroke-width="1.2"/></marker></defs><path d="M 572.0 1005.0 L 604.0 1005.0 L 604.0 52.0 L 816.0 52.0" fill="none" stroke="#475569" stroke-width="1.5" stroke-dasharray="8 5" marker-end="url(#marker-end-release-gap-realized-by-deploy)"/><text x="588.0" y="978.6" text-anchor="middle" fill="#334155" stroke="#ffffff" stroke-width="4" stroke-linejoin="round" paint-order="stroke">closes</text></g><g data-dediren-edge-id="deploy-workflow-triggers-event"><defs><marker id="marker-end-deploy-workflow-triggers-event" data-dediren-edge-marker-end="filled_arrow" markerWidth="8" markerHeight="8" refX="8" refY="4" orient="auto" markerUnits="strokeWidth"><path d="M 0 0 L 8 4 L 0 8 z" fill="#b45309"/></marker></defs><path d="M 572.0 1018.3 L 624.0 1018.3 L 624.0 124.0 L 1096.0 124.0" fill="none" stroke="#b45309" stroke-width="1.5" marker-end="url(#marker-end-deploy-workflow-triggers-event)"/><text x="598.0" y="1009.9" text-anchor="middle" fill="#92400e" stroke="#ffffff" stroke-width="4" stroke-linejoin="round" paint-order="stroke">deploys</text></g><g data-dediren-edge-id="deploy-event-realizes-production"><defs><marker id="marker-end-deploy-event-realizes-production" data-dediren-edge-marker-end="hollow_triangle" markerWidth="10" markerHeight="10" refX="9" refY="5" orient="auto" markerUnits="strokeWidth"><path d="M 1 1 L 9 5 L 1 9 z" fill="#ffffff" stroke="#475569" stroke-width="1.2"/></marker></defs><path d="M 1256.0 124.0 L 1688.0 124.0 L 1688.0 258.3 L 1776.0 258.3" fill="none" stroke="#475569" stroke-width="1.5" stroke-dasharray="8 5" marker-end="url(#marker-end-deploy-event-realizes-production)"/><text x="1472.0" y="140.8" text-anchor="middle" fill="#334155" stroke="#ffffff" stroke-width="4" stroke-linejoin="round" paint-order="stroke">reaches</text></g><g data-dediren-edge-id="bicep-deploys-static-web-apps"><defs><marker id="marker-end-bicep-deploys-static-web-apps" data-dediren-edge-marker-end="hollow_triangle" markerWidth="10" markerHeight="10" refX="9" refY="5" orient="auto" markerUnits="strokeWidth"><path d="M 1 1 L 9 5 L 1 9 z" fill="#ffffff" stroke="#475569" stroke-width="1.2"/></marker></defs><path d="M 1536.0 645.0 L 1568.0 645.0 L 1568.0 471.7 L 1776.0 471.7" fill="none" stroke="#475569" stroke-width="1.5" stroke-dasharray="8 5" marker-end="url(#marker-end-bicep-deploys-static-web-apps)"/><text x="1672.0" y="463.3" text-anchor="middle" fill="#334155" stroke="#ffffff" stroke-width="4" stroke-linejoin="round" paint-order="stroke">provisions</text></g><g data-dediren-edge-id="bicep-deploys-function-app"><defs><marker id="marker-end-bicep-deploys-function-app" data-dediren-edge-marker-end="hollow_triangle" markerWidth="10" markerHeight="10" refX="9" refY="5" orient="auto" markerUnits="strokeWidth"><path d="M 1 1 L 9 5 L 1 9 z" fill="#ffffff" stroke="#475569" stroke-width="1.2"/></marker></defs><path d="M 1536.0 671.7 L 1776.0 671.7" fill="none" stroke="#475569" stroke-width="1.5" stroke-dasharray="8 5" marker-end="url(#marker-end-bicep-deploys-function-app)"/><text x="1656.0" y="663.3" text-anchor="middle" fill="#334155" stroke="#ffffff" stroke-width="4" stroke-linejoin="round" paint-order="stroke">provisions</text></g><g data-dediren-edge-id="function-package-deploys-api"><defs><marker id="marker-end-function-package-deploys-api" data-dediren-edge-marker-end="hollow_triangle" markerWidth="10" markerHeight="10" refX="9" refY="5" orient="auto" markerUnits="strokeWidth"><path d="M 1 1 L 9 5 L 1 9 z" fill="#ffffff" stroke="#475569" stroke-width="1.2"/></marker></defs><path d="M 1536.0 871.7 L 1776.0 871.7" fill="none" stroke="#475569" stroke-width="1.5" stroke-dasharray="8 5" marker-end="url(#marker-end-function-package-deploys-api)"/><text x="1656.0" y="863.3" text-anchor="middle" fill="#334155" stroke="#ffffff" stroke-width="4" stroke-linejoin="round" paint-order="stroke">deploys</text></g><g data-dediren-edge-id="spa-package-deploys-app"><defs><marker id="marker-end-spa-package-deploys-app" data-dediren-edge-marker-end="hollow_triangle" markerWidth="10" markerHeight="10" refX="9" refY="5" orient="auto" markerUnits="strokeWidth"><path d="M 1 1 L 9 5 L 1 9 z" fill="#ffffff" stroke="#475569" stroke-width="1.2"/></marker></defs><path d="M 1536.0 1071.7 L 1776.0 1071.7" fill="none" stroke="#475569" stroke-width="1.5" stroke-dasharray="8 5" marker-end="url(#marker-end-spa-package-deploys-app)"/><text x="1656.0" y="1063.3" text-anchor="middle" fill="#334155" stroke="#ffffff" stroke-width="4" stroke-linejoin="round" paint-order="stroke">deploys</text></g><g data-dediren-node-id="repository-baseline"><rect data-dediren-node-shape="archimate_rectangle" x="12.0" y="991.7" width="160.0" height="80.0" rx="0" fill="#fef9c3" stroke="#ca8a04" stroke-width="1.5"/><g data-dediren-node-decorator="archimate_plateau" data-dediren-icon-kind="plateau" data-dediren-icon-size="22"><path d="M 149.7 1004.6 L 163.4 1004.6 M 146.6 1008.6 L 160.3 1008.6 M 144.0 1012.5 L 157.6 1012.5" fill="none" stroke="#ca8a04" stroke-width="1.5" stroke-linecap="square"/></g><text x="92.0" y="1023.6" text-anchor="middle" dominant-baseline="middle" fill="#713f12" font-size="14.0"><tspan x="92.0" dy="0">Repository</tspan><tspan x="92.0" dy="16.0">baseline</tspan></text></g><g data-dediren-node-id="production-plateau"><rect data-dediren-node-shape="archimate_rectangle" x="1776.0" y="231.7" width="160.0" height="80.0" rx="0" fill="#fef9c3" stroke="#ca8a04" stroke-width="1.5"/><g data-dediren-node-decorator="archimate_plateau" data-dediren-icon-kind="plateau" data-dediren-icon-size="22"><path d="M 1913.7 244.6 L 1927.4 244.6 M 1910.6 248.6 L 1924.3 248.6 M 1908.0 252.5 L 1921.6 252.5" fill="none" stroke="#ca8a04" stroke-width="1.5" stroke-linecap="square"/></g><text x="1856.0" y="263.6" text-anchor="middle" dominant-baseline="middle" fill="#713f12" font-size="14.0"><tspan x="1856.0" dy="0">Production</tspan><tspan x="1856.0" dy="16.0">plateau</tspan></text></g><g data-dediren-node-id="release-to-production-gap"><rect data-dediren-node-shape="archimate_rectangle" x="816.0" y="12.0" width="160.0" height="80.0" rx="0" fill="#fef3c7" stroke="#d97706" stroke-width="1.5"/><g data-dediren-node-decorator="archimate_gap" data-dediren-icon-kind="gap" data-dediren-icon-size="22"><ellipse cx="959.4" cy="28.5" rx="4.8" ry="4.8" fill="none" stroke="#d97706" stroke-width="1.5"/><path data-dediren-icon-part="gap-lines" d="M 950.2 26.7 L 968.7 26.7 M 950.2 30.2 L 968.7 30.2" fill="none" stroke="#d97706" stroke-width="1.5" stroke-linecap="round"/></g><text x="896.0" y="44.0" text-anchor="middle" dominant-baseline="middle" fill="#78350f" font-size="14.0"><tspan x="896.0" dy="0">Release to</tspan><tspan x="896.0" dy="16.0">production gap</tspan></text></g><g data-dediren-node-id="deploy-to-production-event"><rect data-dediren-node-shape="archimate_rounded_rectangle" x="1096.0" y="84.0" width="160.0" height="80.0" rx="4.0" fill="#ffedd5" stroke="#ea580c" stroke-width="1.5"/><g data-dediren-node-decorator="archimate_implementation_event" data-dediren-icon-kind="event" data-dediren-icon-size="22"><path data-dediren-icon-part="event-pill" d="M 1232.0 93.9 L 1244.3 93.9 C 1248.7 93.9, 1250.0 97.4, 1250.0 100.9 C 1250.0 104.4, 1248.7 108.0, 1244.3 108.0 L 1232.0 108.0 L 1235.5 100.9 L 1232.0 93.9 Z" fill="#ffedd5" stroke="#ea580c" stroke-width="1.5"/></g><text x="1176.0" y="116.0" text-anchor="middle" dominant-baseline="middle" fill="#7c2d12" font-size="14.0"><tspan x="1176.0" dy="0">Deploy to</tspan><tspan x="1176.0" dy="16.0">production</tspan></text></g><g data-dediren-node-id="deploy-workflow"><rect data-dediren-node-shape="archimate_rounded_rectangle" x="412.0" y="991.7" width="160.0" height="80.0" rx="4.0" fill="#ffedd5" stroke="#ea580c" stroke-width="1.5"/><g data-dediren-node-decorator="archimate_work_package" data-dediren-icon-kind="work_package" data-dediren-icon-size="22"><path data-dediren-icon-part="work-package-loop-arrow" d="M 553.7 1005.5 A 5.7 5.7 0 1 0 552.8 1009.9 L 559.8 1009.9 M 559.8 1009.9 L 557.2 1007.7 M 559.8 1009.9 L 557.2 1012.1" fill="none" stroke="#ea580c" stroke-width="1.5" stroke-linecap="round" stroke-linejoin="round"/></g><text x="492.0" y="1031.7" text-anchor="middle" dominant-baseline="middle" fill="#7c2d12" font-size="14.0">Deploy workflow</text></g><g data-dediren-node-id="deploy-infra-workflow"><rect data-dediren-node-shape="archimate_rounded_rectangle" x="816.0" y="605.0" width="160.0" height="80.0" rx="4.0" fill="#ffedd5" stroke="#ea580c" stroke-width="1.5"/><g data-dediren-node-decorator="archimate_work_package" data-dediren-icon-kind="work_package" data-dediren-icon-size="22"><path data-dediren-icon-part="work-package-loop-arrow" d="M 957.7 618.8 A 5.7 5.7 0 1 0 956.8 623.2 L 963.8 623.2 M 963.8 623.2 L 961.2 621.0 M 963.8 623.2 L 961.2 625.4" fill="none" stroke="#ea580c" stroke-width="1.5" stroke-linecap="round" stroke-linejoin="round"/></g><text x="896.0" y="637.0" text-anchor="middle" dominant-baseline="middle" fill="#7c2d12" font-size="14.0"><tspan x="896.0" dy="0">Deploy</tspan><tspan x="896.0" dy="16.0">Infrastructure</tspan></text></g><g data-dediren-node-id="deploy-app-build-workflow"><rect data-dediren-node-shape="archimate_rounded_rectangle" x="816.0" y="1018.3" width="160.0" height="80.0" rx="4.0" fill="#ffedd5" stroke="#ea580c" stroke-width="1.5"/><g data-dediren-node-decorator="archimate_work_package" data-dediren-icon-kind="work_package" data-dediren-icon-size="22"><path data-dediren-icon-part="work-package-loop-arrow" d="M 957.7 1032.2 A 5.7 5.7 0 1 0 956.8 1036.6 L 963.8 1036.6 M 963.8 1036.6 L 961.2 1034.4 M 963.8 1036.6 L 961.2 1038.8" fill="none" stroke="#ea580c" stroke-width="1.5" stroke-linecap="round" stroke-linejoin="round"/></g><text x="896.0" y="1050.3" text-anchor="middle" dominant-baseline="middle" fill="#7c2d12" font-size="14.0"><tspan x="896.0" dy="0">Deploy App -</tspan><tspan x="896.0" dy="16.0">Build</tspan></text></g><g data-dediren-node-id="deploy-app-workflow"><rect data-dediren-node-shape="archimate_rounded_rectangle" x="1376.0" y="245.0" width="160.0" height="80.0" rx="4.0" fill="#ffedd5" stroke="#ea580c" stroke-width="1.5"/><g data-dediren-node-decorator="archimate_work_package" data-dediren-icon-kind="work_package" data-dediren-icon-size="22"><path data-dediren-icon-part="work-package-loop-arrow" d="M 1517.7 258.8 A 5.7 5.7 0 1 0 1516.8 263.2 L 1523.8 263.2 M 1523.8 263.2 L 1521.2 261.0 M 1523.8 263.2 L 1521.2 265.4" fill="none" stroke="#ea580c" stroke-width="1.5" stroke-linecap="round" stroke-linejoin="round"/></g><text x="1456.0" y="285.0" text-anchor="middle" dominant-baseline="middle" fill="#7c2d12" font-size="14.0">Deploy App</text></g><g data-dediren-node-id="bicep-template"><rect data-dediren-node-shape="archimate_rectangle" x="1376.0" y="618.3" width="160.0" height="80.0" rx="0" fill="#fef3c7" stroke="#d97706" stroke-width="1.5"/><g data-dediren-node-decorator="archimate_deliverable" data-dediren-icon-kind="deliverable" data-dediren-icon-size="22"><path data-dediren-icon-part="wavy-document" d="M 1508.0 627.3 L 1530.0 627.3 L 1530.0 640.1 C 1526.0 638.3, 1522.5 638.3, 1519.0 640.1 C 1515.5 641.9, 1512.0 641.9, 1508.0 640.1 L 1508.0 627.3 Z" fill="#fef3c7" stroke="#d97706" stroke-width="1.5" stroke-linejoin="round"/></g><text x="1456.0" y="658.3" text-anchor="middle" dominant-baseline="middle" fill="#78350f" font-size="14.0">Bicep deployment</text></g><g data-dediren-node-id="function-app-package"><rect data-dediren-node-shape="archimate_rectangle" x="1376.0" y="831.7" width="160.0" height="80.0" rx="0" fill="#fef3c7" stroke="#d97706" stroke-width="1.5"/><g data-dediren-node-decorator="archimate_deliverable" data-dediren-icon-kind="deliverable" data-dediren-icon-size="22"><path data-dediren-icon-part="wavy-document" d="M 1508.0 840.7 L 1530.0 840.7 L 1530.0 853.4 C 1526.0 851.7, 1522.5 851.7, 1519.0 853.4 C 1515.5 855.2, 1512.0 855.2, 1508.0 853.4 L 1508.0 840.7 Z" fill="#fef3c7" stroke="#d97706" stroke-width="1.5" stroke-linejoin="round"/></g><text x="1456.0" y="871.7" text-anchor="middle" dominant-baseline="middle" fill="#78350f" font-size="14.0">Functions zip</text></g><g data-dediren-node-id="spa-wwwroot-package"><rect data-dediren-node-shape="archimate_rectangle" x="1376.0" y="1031.7" width="160.0" height="80.0" rx="0" fill="#fef3c7" stroke="#d97706" stroke-width="1.5"/><g data-dediren-node-decorator="archimate_deliverable" data-dediren-icon-kind="deliverable" data-dediren-icon-size="22"><path data-dediren-icon-part="wavy-document" d="M 1508.0 1040.7 L 1530.0 1040.7 L 1530.0 1053.4 C 1526.0 1051.7, 1522.5 1051.7, 1519.0 1053.4 C 1515.5 1055.2, 1512.0 1055.2, 1508.0 1053.4 L 1508.0 1040.7 Z" fill="#fef3c7" stroke="#d97706" stroke-width="1.5" stroke-linejoin="round"/></g><text x="1456.0" y="1063.6" text-anchor="middle" dominant-baseline="middle" fill="#78350f" font-size="14.0"><tspan x="1456.0" dy="0">SPA wwwroot</tspan><tspan x="1456.0" dy="16.0">bundle</tspan></text></g><g data-dediren-node-id="static-web-apps"><rect data-dediren-node-shape="archimate_rectangle" x="1776.0" y="431.7" width="160.0" height="80.0" rx="0" fill="#ecfdf3" stroke="#16a34a" stroke-width="1.5"/><g data-dediren-node-decorator="archimate_technology_node" data-dediren-icon-kind="node" data-dediren-icon-size="22"><rect x="1908.0" y="444.6" width="18.0" height="12.8" rx="1.5" fill="#ecfdf3" stroke="#16a34a" stroke-width="1.5"/><path data-dediren-icon-part="node-3d-edges" d="M 1908.0 444.6 L 1912.0 440.7 L 1930.0 440.7 L 1926.0 444.6 M 1926.0 444.6 L 1930.0 440.7 M 1926.0 457.4 L 1930.0 453.4 M 1930.0 440.7 L 1930.0 453.4" fill="none" stroke="#16a34a" stroke-width="1.5" stroke-linejoin="round"/></g><text x="1856.0" y="463.6" text-anchor="middle" dominant-baseline="middle" fill="#14532d" font-size="14.0"><tspan x="1856.0" dy="0">Azure Static Web</tspan><tspan x="1856.0" dy="16.0">Apps</tspan></text></g><g data-dediren-node-id="function-app"><rect data-dediren-node-shape="archimate_rectangle" x="1776.0" y="631.7" width="160.0" height="80.0" rx="0" fill="#ecfdf3" stroke="#16a34a" stroke-width="1.5"/><g data-dediren-node-decorator="archimate_technology_node" data-dediren-icon-kind="node" data-dediren-icon-size="22"><rect x="1908.0" y="644.6" width="18.0" height="12.8" rx="1.5" fill="#ecfdf3" stroke="#16a34a" stroke-width="1.5"/><path data-dediren-icon-part="node-3d-edges" d="M 1908.0 644.6 L 1912.0 640.7 L 1930.0 640.7 L 1926.0 644.6 M 1926.0 644.6 L 1930.0 640.7 M 1926.0 657.4 L 1930.0 653.4 M 1930.0 640.7 L 1930.0 653.4" fill="none" stroke="#16a34a" stroke-width="1.5" stroke-linejoin="round"/></g><text x="1856.0" y="663.6" text-anchor="middle" dominant-baseline="middle" fill="#14532d" font-size="14.0"><tspan x="1856.0" dy="0">Azure Function</tspan><tspan x="1856.0" dy="16.0">App</tspan></text></g><g data-dediren-node-id="lfm-app"><rect data-dediren-node-shape="archimate_rectangle" x="1776.0" y="1031.7" width="160.0" height="80.0" rx="0" fill="#e8f3ff" stroke="#2563eb" stroke-width="1.5"/><g data-dediren-node-decorator="archimate_application_component" data-dediren-icon-kind="component" data-dediren-icon-size="22"><rect x="1912.0" y="1040.7" width="18.0" height="15.8" rx="1.5" fill="#e8f3ff" stroke="#2563eb" stroke-width="1.5"/><rect x="1908.0" y="1043.3" width="7.9" height="5.7" rx="1.2" fill="#e8f3ff" stroke="#2563eb" stroke-width="1.5"/><rect x="1908.0" y="1050.3" width="7.9" height="5.7" rx="1.2" fill="#e8f3ff" stroke="#2563eb" stroke-width="1.5"/></g><text x="1856.0" y="1071.7" text-anchor="middle" dominant-baseline="middle" fill="#172554" font-size="14.0">Lfm.App</text></g><g data-dediren-node-id="lfm-api"><rect data-dediren-node-shape="archimate_rectangle" x="1776.0" y="831.7" width="160.0" height="80.0" rx="0" fill="#e8f3ff" stroke="#2563eb" stroke-width="1.5"/><g data-dediren-node-decorator="archimate_application_component" data-dediren-icon-kind="component" data-dediren-icon-size="22"><rect x="1912.0" y="840.7" width="18.0" height="15.8" rx="1.5" fill="#e8f3ff" stroke="#2563eb" stroke-width="1.5"/><rect x="1908.0" y="843.3" width="7.9" height="5.7" rx="1.2" fill="#e8f3ff" stroke="#2563eb" stroke-width="1.5"/><rect x="1908.0" y="850.3" width="7.9" height="5.7" rx="1.2" fill="#e8f3ff" stroke="#2563eb" stroke-width="1.5"/></g><text x="1856.0" y="871.7" text-anchor="middle" dominant-baseline="middle" fill="#172554" font-size="14.0">Lfm.Api</text></g></g></svg>

