<svg xmlns="http://www.w3.org/2000/svg" width="3216" height="928" viewBox="-12.0 -12.0 3216.0 928.0"><rect x="-12.0" y="-12.0" width="3216.0" height="928.0" fill="#ffffff"/><g font-family="Inter, Arial, sans-serif" font-size="14.0"><g data-dediren-group-id="production-release-local-gates"><rect x="12.0" y="292.7" width="272.0" height="276.0" rx="4.0" fill="#f8fafc" stroke="#94a3b8" stroke-width="1.0"/><text x="20.0" y="308.7" fill="#374151" font-size="12.0">Local repository gates</text></g><g data-dediren-group-id="production-release-orchestration"><rect x="452.0" y="324.3" width="836.0" height="560.0" rx="4.0" fill="#f8fafc" stroke="#94a3b8" stroke-width="1.0"/><text x="460.0" y="340.3" fill="#374151" font-size="12.0">Deploy orchestration</text></g><g data-dediren-group-id="production-release-quality-gates"><rect x="1456.0" y="164.7" width="336.0" height="276.0" rx="4.0" fill="#f8fafc" stroke="#94a3b8" stroke-width="1.0"/><text x="1464.0" y="180.7" fill="#374151" font-size="12.0">Deployment quality gates</text></g><g data-dediren-group-id="production-release-build-and-deploy"><rect x="2040.0" y="12.0" width="660.0" height="744.0" rx="4.0" fill="#f8fafc" stroke="#94a3b8" stroke-width="1.0"/><text x="2048.0" y="28.0" fill="#374151" font-size="12.0">Build and deploy stages</text></g><g data-dediren-group-id="production-release-deployed-runtime"><rect x="2908.0" y="204.0" width="272.0" height="688.0" rx="4.0" fill="#f8fafc" stroke="#94a3b8" stroke-width="1.0"/><text x="2916.0" y="220.0" fill="#374151" font-size="12.0">Production runtime</text></g><g data-dediren-edge-id="pre-commit-guards-repository"><path d="M 196.0 518.0 L 368.0 518.0 L 368.0 401.7 L 540.0 401.7" fill="none" stroke="#64748b" stroke-width="1.5"/><text x="391.1" y="509.6" text-anchor="middle" fill="#374151" stroke="#ffffff" stroke-width="4" stroke-linejoin="round" paint-order="stroke">blocks secret staging</text></g><g data-dediren-edge-id="pre-commit-complements-secret-scan"><path d="M 196.0 491.3 L 228.0 491.3 L 228.0 215.3 L 1544.0 215.3" fill="none" stroke="#64748b" stroke-width="1.5"/><text x="342.8" y="482.9" text-anchor="middle" fill="#374151" stroke="#ffffff" stroke-width="4" stroke-linejoin="round" paint-order="stroke">local + CI secret controls</text></g><g data-dediren-edge-id="pre-push-guards-repository"><g data-dediren-line-jump-masks="pre-push-guards-repository"><path d="M 222.0 364.7 Q 228.0 358.7 234.0 364.7" fill="none" stroke="#ffffff" stroke-width="5.5" stroke-linecap="round" stroke-linejoin="round"/></g><path d="M 196.0 364.7 L 222.0 364.7 Q 228.0 358.7 234.0 364.7 L 368.0 364.7 L 368.0 375.0 L 540.0 375.0" fill="none" stroke="#64748b" stroke-width="1.5"/><text x="378.1" y="381.5" text-anchor="middle" fill="#374151" stroke="#ffffff" stroke-width="4" stroke-linejoin="round" paint-order="stroke">local verification</text></g><g data-dediren-edge-id="repository-triggers-deploy-workflow"><defs><marker id="marker-end-repository-triggers-deploy-workflow" data-dediren-edge-marker-end="filled_arrow" markerWidth="8" markerHeight="8" refX="8" refY="4" orient="auto" markerUnits="strokeWidth"><path d="M 0 0 L 8 4 L 0 8 z" fill="#b45309"/></marker></defs><path d="M 620.0 428.3 L 620.0 460.3 L 900.0 460.3 L 900.0 492.3" fill="none" stroke="#b45309" stroke-width="1.5" marker-end="url(#marker-end-repository-triggers-deploy-workflow)"/><text x="760.0" y="477.1" text-anchor="middle" fill="#92400e" stroke="#ffffff" stroke-width="4" stroke-linejoin="round" paint-order="stroke">push/manual</text></g><g data-dediren-edge-id="deploy-workflow-composes-change-detection"><defs><marker id="marker-start-deploy-workflow-composes-change-detection" data-dediren-edge-marker-start="filled_diamond" markerWidth="10" markerHeight="10" refX="1" refY="5" orient="auto" markerUnits="strokeWidth"><path d="M 1 5 L 5 1 L 9 5 L 5 9 z" fill="#475569" stroke="#475569" stroke-width="1.1"/></marker></defs><path d="M 926.7 572.3 L 926.7 604.3 L 1184.0 604.3 L 1184.0 636.3" fill="none" stroke="#475569" stroke-width="1.5" marker-start="url(#marker-start-deploy-workflow-composes-change-detection)"/><text x="1055.3" y="621.1" text-anchor="middle" fill="#334155" stroke="#ffffff" stroke-width="4" stroke-linejoin="round" paint-order="stroke">change filter</text></g><g data-dediren-edge-id="deploy-workflow-composes-infra"><defs><marker id="marker-start-deploy-workflow-composes-infra" data-dediren-edge-marker-start="filled_diamond" markerWidth="10" markerHeight="10" refX="1" refY="5" orient="auto" markerUnits="strokeWidth"><path d="M 1 5 L 5 1 L 9 5 L 5 9 z" fill="#475569" stroke="#475569" stroke-width="1.1"/></marker></defs><path d="M 980.0 519.0 L 1012.0 519.0 L 1012.0 470.0 L 2096.0 470.0 L 2096.0 280.0 L 2128.0 280.0" fill="none" stroke="#475569" stroke-width="1.5" marker-start="url(#marker-start-deploy-workflow-composes-infra)"/><text x="2072.3" y="307.6" text-anchor="middle" fill="#334155" stroke="#ffffff" stroke-width="4" stroke-linejoin="round" paint-order="stroke">infra</text></g><g data-dediren-edge-id="deploy-workflow-composes-secret-scan"><defs><marker id="marker-start-deploy-workflow-composes-secret-scan" data-dediren-edge-marker-start="filled_diamond" markerWidth="10" markerHeight="10" refX="1" refY="5" orient="auto" markerUnits="strokeWidth"><path d="M 1 5 L 5 1 L 9 5 L 5 9 z" fill="#475569" stroke="#475569" stroke-width="1.1"/></marker></defs><path d="M 980.0 519.0 L 1210.0 519.0 L 1210.0 242.0 L 1544.0 242.0" fill="none" stroke="#475569" stroke-width="1.5" marker-start="url(#marker-start-deploy-workflow-composes-secret-scan)"/><text x="1377.0" y="233.6" text-anchor="middle" fill="#334155" stroke="#ffffff" stroke-width="4" stroke-linejoin="round" paint-order="stroke">secret gate</text></g><g data-dediren-edge-id="deploy-workflow-composes-infra-analysis"><defs><marker id="marker-start-deploy-workflow-composes-infra-analysis" data-dediren-edge-marker-start="filled_diamond" markerWidth="10" markerHeight="10" refX="1" refY="5" orient="auto" markerUnits="strokeWidth"><path d="M 1 5 L 5 1 L 9 5 L 5 9 z" fill="#475569" stroke="#475569" stroke-width="1.1"/></marker></defs><path d="M 980.0 519.0 L 1242.0 519.0 L 1242.0 368.7 L 1544.0 368.7" fill="none" stroke="#475569" stroke-width="1.5" marker-start="url(#marker-start-deploy-workflow-composes-infra-analysis)"/><text x="1393.0" y="360.3" text-anchor="middle" fill="#334155" stroke="#ffffff" stroke-width="4" stroke-linejoin="round" paint-order="stroke">infra analysis</text></g><g data-dediren-edge-id="deploy-workflow-composes-build"><defs><marker id="marker-start-deploy-workflow-composes-build" data-dediren-edge-marker-start="filled_diamond" markerWidth="10" markerHeight="10" refX="1" refY="5" orient="auto" markerUnits="strokeWidth"><path d="M 1 5 L 5 1 L 9 5 L 5 9 z" fill="#475569" stroke="#475569" stroke-width="1.1"/></marker></defs><g data-dediren-line-jump-masks="deploy-workflow-composes-build"><path d="M 1194.0 221.3 Q 1200.0 215.3 1194.0 209.3" fill="none" stroke="#ffffff" stroke-width="5.5" stroke-linecap="round" stroke-linejoin="round"/></g><path d="M 980.0 519.0 L 1194.0 519.0 L 1194.0 221.3 Q 1200.0 215.3 1194.0 209.3 L 1194.0 89.3 L 2128.0 89.3" fill="none" stroke="#475569" stroke-width="1.5" marker-start="url(#marker-start-deploy-workflow-composes-build)"/><text x="1661.0" y="80.9" text-anchor="middle" fill="#334155" stroke="#ffffff" stroke-width="4" stroke-linejoin="round" paint-order="stroke">build</text></g><g data-dediren-edge-id="deploy-workflow-composes-app"><defs><marker id="marker-start-deploy-workflow-composes-app" data-dediren-edge-marker-start="filled_diamond" markerWidth="10" markerHeight="10" refX="1" refY="5" orient="auto" markerUnits="strokeWidth"><path d="M 1 5 L 5 1 L 9 5 L 5 9 z" fill="#475569" stroke="#475569" stroke-width="1.1"/></marker></defs><path d="M 980.0 519.0 L 1281.0 519.0 L 1281.0 692.0 L 2412.0 692.0" fill="none" stroke="#475569" stroke-width="1.5" marker-start="url(#marker-start-deploy-workflow-composes-app)"/><text x="1846.5" y="708.8" text-anchor="middle" fill="#334155" stroke="#ffffff" stroke-width="4" stroke-linejoin="round" paint-order="stroke">app</text></g><g data-dediren-edge-id="deploy-infra-realizes-bicep"><defs><marker id="marker-end-deploy-infra-realizes-bicep" data-dediren-edge-marker-end="hollow_triangle" markerWidth="10" markerHeight="10" refX="9" refY="5" orient="auto" markerUnits="strokeWidth"><path d="M 1 1 L 9 5 L 1 9 z" fill="#ffffff" stroke="#475569" stroke-width="1.2"/></marker></defs><path d="M 2234.7 300.0 L 2234.7 332.0 L 2492.0 332.0 L 2492.0 364.0" fill="none" stroke="#475569" stroke-width="1.5" stroke-dasharray="8 5" marker-end="url(#marker-end-deploy-infra-realizes-bicep)"/><text x="2411.7" y="348.8" text-anchor="middle" fill="#334155" stroke="#ffffff" stroke-width="4" stroke-linejoin="round" paint-order="stroke">applies</text></g><g data-dediren-edge-id="deploy-build-realizes-functions-package"><defs><marker id="marker-end-deploy-build-realizes-functions-package" data-dediren-edge-marker-end="hollow_triangle" markerWidth="10" markerHeight="10" refX="9" refY="5" orient="auto" markerUnits="strokeWidth"><path d="M 1 1 L 9 5 L 1 9 z" fill="#ffffff" stroke="#475569" stroke-width="1.2"/></marker></defs><g data-dediren-line-jump-masks="deploy-build-realizes-functions-package"><path d="M 2350.0 326.0 Q 2356.0 332.0 2350.0 338.0" fill="none" stroke="#ffffff" stroke-width="5.5" stroke-linecap="round" stroke-linejoin="round"/></g><path d="M 2181.3 116.0 L 2181.3 168.0 L 2350.0 168.0 L 2350.0 326.0 Q 2356.0 332.0 2350.0 338.0 L 2350.0 476.0 L 2492.0 476.0 L 2492.0 508.0" fill="none" stroke="#475569" stroke-width="1.5" stroke-dasharray="8 5" marker-end="url(#marker-end-deploy-build-realizes-functions-package)"/><text x="2265.7" y="184.8" text-anchor="middle" fill="#334155" stroke="#ffffff" stroke-width="4" stroke-linejoin="round" paint-order="stroke">builds</text></g><g data-dediren-edge-id="deploy-build-realizes-spa-package"><defs><marker id="marker-end-deploy-build-realizes-spa-package" data-dediren-edge-marker-end="hollow_triangle" markerWidth="10" markerHeight="10" refX="9" refY="5" orient="auto" markerUnits="strokeWidth"><path d="M 1 1 L 9 5 L 1 9 z" fill="#ffffff" stroke="#475569" stroke-width="1.2"/></marker></defs><path d="M 2234.7 116.0 L 2234.7 148.0 L 2492.0 148.0 L 2492.0 180.0" fill="none" stroke="#475569" stroke-width="1.5" stroke-dasharray="8 5" marker-end="url(#marker-end-deploy-build-realizes-spa-package)"/><text x="2407.4" y="164.8" text-anchor="middle" fill="#334155" stroke="#ffffff" stroke-width="4" stroke-linejoin="round" paint-order="stroke">builds</text></g><g data-dediren-edge-id="secret-scan-triggers-build"><defs><marker id="marker-end-secret-scan-triggers-build" data-dediren-edge-marker-end="filled_arrow" markerWidth="8" markerHeight="8" refX="8" refY="4" orient="auto" markerUnits="strokeWidth"><path d="M 0 0 L 8 4 L 0 8 z" fill="#b45309"/></marker></defs><g data-dediren-line-jump-masks="secret-scan-triggers-build"><path d="M 1916.0 95.3 Q 1922.0 89.3 1916.0 83.3" fill="none" stroke="#ffffff" stroke-width="5.5" stroke-linecap="round" stroke-linejoin="round"/></g><path d="M 1704.0 215.3 L 1916.0 215.3 L 1916.0 95.3 Q 1922.0 89.3 1916.0 83.3 L 1916.0 62.7 L 2128.0 62.7" fill="none" stroke="#b45309" stroke-width="1.5" marker-end="url(#marker-end-secret-scan-triggers-build)"/><text x="1810.0" y="206.9" text-anchor="middle" fill="#92400e" stroke="#ffffff" stroke-width="4" stroke-linejoin="round" paint-order="stroke">gate</text></g><g data-dediren-edge-id="secret-scan-triggers-infra-deploy"><defs><marker id="marker-end-secret-scan-triggers-infra-deploy" data-dediren-edge-marker-end="filled_arrow" markerWidth="8" markerHeight="8" refX="8" refY="4" orient="auto" markerUnits="strokeWidth"><path d="M 0 0 L 8 4 L 0 8 z" fill="#b45309"/></marker></defs><path d="M 1704.0 242.0 L 1916.0 242.0 L 1916.0 240.0 L 2128.0 240.0" fill="none" stroke="#b45309" stroke-width="1.5" marker-end="url(#marker-end-secret-scan-triggers-infra-deploy)"/><text x="1810.0" y="233.6" text-anchor="middle" fill="#92400e" stroke="#ffffff" stroke-width="4" stroke-linejoin="round" paint-order="stroke">gate</text></g><g data-dediren-edge-id="infrastructure-analysis-triggers-infra-deploy"><defs><marker id="marker-end-infrastructure-analysis-triggers-infra-deploy" data-dediren-edge-marker-end="filled_arrow" markerWidth="8" markerHeight="8" refX="8" refY="4" orient="auto" markerUnits="strokeWidth"><path d="M 0 0 L 8 4 L 0 8 z" fill="#b45309"/></marker></defs><path d="M 1704.0 368.7 L 1908.0 368.7 L 1908.0 260.0 L 2128.0 260.0" fill="none" stroke="#b45309" stroke-width="1.5" marker-end="url(#marker-end-infrastructure-analysis-triggers-infra-deploy)"/><text x="1806.0" y="360.3" text-anchor="middle" fill="#92400e" stroke="#ffffff" stroke-width="4" stroke-linejoin="round" paint-order="stroke">gate</text></g><g data-dediren-edge-id="deploy-infra-triggers-app-deploy"><defs><marker id="marker-end-deploy-infra-triggers-app-deploy" data-dediren-edge-marker-end="filled_arrow" markerWidth="8" markerHeight="8" refX="8" refY="4" orient="auto" markerUnits="strokeWidth"><path d="M 0 0 L 8 4 L 0 8 z" fill="#b45309"/></marker></defs><path d="M 2181.3 300.0 L 2181.3 620.0 L 2492.0 620.0 L 2492.0 652.0" fill="none" stroke="#b45309" stroke-width="1.5" marker-end="url(#marker-end-deploy-infra-triggers-app-deploy)"/><text x="2336.7" y="636.8" text-anchor="middle" fill="#92400e" stroke="#ffffff" stroke-width="4" stroke-linejoin="round" paint-order="stroke">before app</text></g><g data-dediren-edge-id="deploy-app-realizes-production"><defs><marker id="marker-end-deploy-app-realizes-production" data-dediren-edge-marker-end="hollow_triangle" markerWidth="10" markerHeight="10" refX="9" refY="5" orient="auto" markerUnits="strokeWidth"><path d="M 1 1 L 9 5 L 1 9 z" fill="#ffffff" stroke="#475569" stroke-width="1.2"/></marker></defs><path d="M 2572.0 692.0 L 2784.0 692.0 L 2784.0 814.7 L 2996.0 814.7" fill="none" stroke="#475569" stroke-width="1.5" stroke-dasharray="8 5" marker-end="url(#marker-end-deploy-app-realizes-production)"/><text x="2678.0" y="708.8" text-anchor="middle" fill="#334155" stroke="#ffffff" stroke-width="4" stroke-linejoin="round" paint-order="stroke">updates</text></g><g data-dediren-edge-id="release-gap-realized-by-deploy"><g data-dediren-line-jump-masks="release-gap-realized-by-deploy"><path d="M 1275.0 545.7 Q 1281.0 539.7 1287.0 545.7" fill="none" stroke="#ffffff" stroke-width="5.5" stroke-linecap="round" stroke-linejoin="round"/></g><path d="M 980.0 545.7 L 1275.0 545.7 Q 1281.0 539.7 1287.0 545.7 L 1297.0 545.7 L 1297.0 540.7 L 1456.0 540.7" fill="none" stroke="#64748b" stroke-width="1.5"/><text x="1138.5" y="537.3" text-anchor="middle" fill="#374151" stroke="#ffffff" stroke-width="4" stroke-linejoin="round" paint-order="stroke">closes</text></g><g data-dediren-edge-id="deploy-workflow-triggers-event"><defs><marker id="marker-end-deploy-workflow-triggers-event" data-dediren-edge-marker-end="filled_arrow" markerWidth="8" markerHeight="8" refX="8" refY="4" orient="auto" markerUnits="strokeWidth"><path d="M 0 0 L 8 4 L 0 8 z" fill="#b45309"/></marker></defs><path d="M 873.3 572.3 L 873.3 748.3 L 1184.0 748.3 L 1184.0 780.3" fill="none" stroke="#b45309" stroke-width="1.5" marker-end="url(#marker-end-deploy-workflow-triggers-event)"/><text x="1028.7" y="765.1" text-anchor="middle" fill="#92400e" stroke="#ffffff" stroke-width="4" stroke-linejoin="round" paint-order="stroke">deploys</text></g><g data-dediren-edge-id="deploy-event-realizes-production"><path d="M 1264.0 820.3 L 2130.0 820.3 L 2130.0 841.3 L 2996.0 841.3" fill="none" stroke="#64748b" stroke-width="1.5"/><text x="1697.0" y="837.1" text-anchor="middle" fill="#374151" stroke="#ffffff" stroke-width="4" stroke-linejoin="round" paint-order="stroke">reaches</text></g><g data-dediren-edge-id="bicep-deploys-static-web-apps"><defs><marker id="marker-end-bicep-deploys-static-web-apps" data-dediren-edge-marker-end="hollow_triangle" markerWidth="10" markerHeight="10" refX="9" refY="5" orient="auto" markerUnits="strokeWidth"><path d="M 1 1 L 9 5 L 1 9 z" fill="#ffffff" stroke="#475569" stroke-width="1.2"/></marker></defs><path d="M 2572.0 390.7 L 2604.0 390.7 L 2604.0 268.0 L 2996.0 268.0" fill="none" stroke="#475569" stroke-width="1.5" stroke-dasharray="8 5" marker-end="url(#marker-end-bicep-deploys-static-web-apps)"/><text x="2649.4" y="382.3" text-anchor="middle" fill="#334155" stroke="#ffffff" stroke-width="4" stroke-linejoin="round" paint-order="stroke">provisions</text></g><g data-dediren-edge-id="bicep-deploys-function-app"><defs><marker id="marker-end-bicep-deploys-function-app" data-dediren-edge-marker-end="hollow_triangle" markerWidth="10" markerHeight="10" refX="9" refY="5" orient="auto" markerUnits="strokeWidth"><path d="M 1 1 L 9 5 L 1 9 z" fill="#ffffff" stroke="#475569" stroke-width="1.2"/></marker></defs><path d="M 2572.0 417.3 L 2784.0 417.3 L 2784.0 688.0 L 2996.0 688.0" fill="none" stroke="#475569" stroke-width="1.5" stroke-dasharray="8 5" marker-end="url(#marker-end-bicep-deploys-function-app)"/><text x="2678.0" y="434.1" text-anchor="middle" fill="#334155" stroke="#ffffff" stroke-width="4" stroke-linejoin="round" paint-order="stroke">provisions</text></g><g data-dediren-edge-id="function-package-deploys-api"><defs><marker id="marker-end-function-package-deploys-api" data-dediren-edge-marker-end="hollow_triangle" markerWidth="10" markerHeight="10" refX="9" refY="5" orient="auto" markerUnits="strokeWidth"><path d="M 1 1 L 9 5 L 1 9 z" fill="#ffffff" stroke="#475569" stroke-width="1.2"/></marker></defs><g data-dediren-line-jump-masks="function-package-deploys-api"><path d="M 2778.0 548.0 Q 2784.0 542.0 2790.0 548.0" fill="none" stroke="#ffffff" stroke-width="5.5" stroke-linecap="round" stroke-linejoin="round"/></g><path d="M 2572.0 548.0 L 2778.0 548.0 Q 2784.0 542.0 2790.0 548.0 L 2996.0 548.0" fill="none" stroke="#475569" stroke-width="1.5" stroke-dasharray="8 5" marker-end="url(#marker-end-function-package-deploys-api)"/><text x="2832.4" y="539.6" text-anchor="middle" fill="#334155" stroke="#ffffff" stroke-width="4" stroke-linejoin="round" paint-order="stroke">deploys</text></g><g data-dediren-edge-id="spa-package-deploys-app"><defs><marker id="marker-end-spa-package-deploys-app" data-dediren-edge-marker-end="hollow_triangle" markerWidth="10" markerHeight="10" refX="9" refY="5" orient="auto" markerUnits="strokeWidth"><path d="M 1 1 L 9 5 L 1 9 z" fill="#ffffff" stroke="#475569" stroke-width="1.2"/></marker></defs><g data-dediren-line-jump-masks="spa-package-deploys-app"><path d="M 2792.0 262.0 Q 2798.0 268.0 2792.0 274.0" fill="none" stroke="#ffffff" stroke-width="5.5" stroke-linecap="round" stroke-linejoin="round"/></g><path d="M 2572.0 220.0 L 2792.0 220.0 L 2792.0 262.0 Q 2798.0 268.0 2792.0 274.0 L 2792.0 408.0 L 2996.0 408.0" fill="none" stroke="#475569" stroke-width="1.5" stroke-dasharray="8 5" marker-end="url(#marker-end-spa-package-deploys-app)"/><text x="2682.0" y="236.8" text-anchor="middle" fill="#334155" stroke="#ffffff" stroke-width="4" stroke-linejoin="round" paint-order="stroke">deploys</text></g><g data-dediren-node-id="pre-commit-secret-guard"><rect data-dediren-node-shape="archimate_rounded_rectangle" x="36.0" y="464.7" width="160.0" height="80.0" rx="4.0" fill="#ffedd5" stroke="#ea580c" stroke-width="1.5"/><g data-dediren-node-decorator="archimate_work_package" data-dediren-icon-kind="work_package" data-dediren-icon-size="22"><path data-dediren-icon-part="work-package-loop-arrow" d="M 177.7 478.5 A 5.7 5.7 0 1 0 176.8 482.9 L 183.8 482.9 M 183.8 482.9 L 181.2 480.7 M 183.8 482.9 L 181.2 485.1" fill="none" stroke="#ea580c" stroke-width="1.5" stroke-linecap="round" stroke-linejoin="round"/></g><text x="116.0" y="496.6" text-anchor="middle" dominant-baseline="middle" fill="#7c2d12" font-size="14.0"><tspan x="116.0" dy="0">Pre-commit</tspan><tspan x="116.0" dy="16.0">secret guard</tspan></text></g><g data-dediren-node-id="pre-push-verification-gate"><rect data-dediren-node-shape="archimate_rounded_rectangle" x="36.0" y="324.7" width="160.0" height="80.0" rx="4.0" fill="#ffedd5" stroke="#ea580c" stroke-width="1.5"/><g data-dediren-node-decorator="archimate_work_package" data-dediren-icon-kind="work_package" data-dediren-icon-size="22"><path data-dediren-icon-part="work-package-loop-arrow" d="M 177.7 338.5 A 5.7 5.7 0 1 0 176.8 342.9 L 183.8 342.9 M 183.8 342.9 L 181.2 340.7 M 183.8 342.9 L 181.2 345.1" fill="none" stroke="#ea580c" stroke-width="1.5" stroke-linecap="round" stroke-linejoin="round"/></g><text x="116.0" y="348.6" text-anchor="middle" dominant-baseline="middle" fill="#7c2d12" font-size="14.0"><tspan x="116.0" dy="0">Pre-push</tspan><tspan x="116.0" dy="16.0">verification</tspan><tspan x="116.0" dy="16.0">gate</tspan></text></g><g data-dediren-node-id="repository-baseline"><rect data-dediren-node-shape="archimate_rectangle" x="540.0" y="348.3" width="160.0" height="80.0" rx="0" fill="#fef9c3" stroke="#ca8a04" stroke-width="1.5"/><g data-dediren-node-decorator="archimate_plateau" data-dediren-icon-kind="plateau" data-dediren-icon-size="22"><path d="M 677.7 361.3 L 691.4 361.3 M 674.6 365.3 L 688.3 365.3 M 672.0 369.2 L 685.6 369.2" fill="none" stroke="#ca8a04" stroke-width="1.5" stroke-linecap="square"/></g><text x="620.0" y="380.3" text-anchor="middle" dominant-baseline="middle" fill="#713f12" font-size="14.0"><tspan x="620.0" dy="0">Repository</tspan><tspan x="620.0" dy="16.0">baseline</tspan></text></g><g data-dediren-node-id="production-plateau"><rect data-dediren-node-shape="archimate_rectangle" x="2996.0" y="788.0" width="160.0" height="80.0" rx="0" fill="#fef9c3" stroke="#ca8a04" stroke-width="1.5"/><g data-dediren-node-decorator="archimate_plateau" data-dediren-icon-kind="plateau" data-dediren-icon-size="22"><path d="M 3133.7 801.0 L 3147.4 801.0 M 3130.6 804.9 L 3144.3 804.9 M 3128.0 808.9 L 3141.6 808.9" fill="none" stroke="#ca8a04" stroke-width="1.5" stroke-linecap="square"/></g><text x="3076.0" y="820.0" text-anchor="middle" dominant-baseline="middle" fill="#713f12" font-size="14.0"><tspan x="3076.0" dy="0">Production</tspan><tspan x="3076.0" dy="16.0">plateau</tspan></text></g><g data-dediren-node-id="release-to-production-gap"><rect data-dediren-node-shape="archimate_rectangle" x="1456.0" y="500.7" width="160.0" height="80.0" rx="0" fill="#fef3c7" stroke="#d97706" stroke-width="1.5"/><g data-dediren-node-decorator="archimate_gap" data-dediren-icon-kind="gap" data-dediren-icon-size="22"><ellipse cx="1599.4" cy="517.1" rx="4.8" ry="4.8" fill="none" stroke="#d97706" stroke-width="1.5"/><path data-dediren-icon-part="gap-lines" d="M 1590.2 515.4 L 1608.7 515.4 M 1590.2 518.9 L 1608.7 518.9" fill="none" stroke="#d97706" stroke-width="1.5" stroke-linecap="round"/></g><text x="1536.0" y="532.6" text-anchor="middle" dominant-baseline="middle" fill="#78350f" font-size="14.0"><tspan x="1536.0" dy="0">Release to</tspan><tspan x="1536.0" dy="16.0">production gap</tspan></text></g><g data-dediren-node-id="deploy-to-production-event"><rect data-dediren-node-shape="archimate_rounded_rectangle" x="1104.0" y="780.3" width="160.0" height="80.0" rx="4.0" fill="#ffedd5" stroke="#ea580c" stroke-width="1.5"/><g data-dediren-node-decorator="archimate_implementation_event" data-dediren-icon-kind="event" data-dediren-icon-size="22"><path data-dediren-icon-part="event-pill" d="M 1240.0 790.2 L 1252.3 790.2 C 1256.7 790.2, 1258.0 793.7, 1258.0 797.3 C 1258.0 800.8, 1256.7 804.3, 1252.3 804.3 L 1240.0 804.3 L 1243.5 797.3 L 1240.0 790.2 Z" fill="#ffedd5" stroke="#ea580c" stroke-width="1.5"/></g><text x="1184.0" y="812.3" text-anchor="middle" dominant-baseline="middle" fill="#7c2d12" font-size="14.0"><tspan x="1184.0" dy="0">Deploy to</tspan><tspan x="1184.0" dy="16.0">production</tspan></text></g><g data-dediren-node-id="deploy-workflow"><rect data-dediren-node-shape="archimate_rounded_rectangle" x="820.0" y="492.3" width="160.0" height="80.0" rx="4.0" fill="#ffedd5" stroke="#ea580c" stroke-width="1.5"/><g data-dediren-node-decorator="archimate_work_package" data-dediren-icon-kind="work_package" data-dediren-icon-size="22"><path data-dediren-icon-part="work-package-loop-arrow" d="M 961.7 506.2 A 5.7 5.7 0 1 0 960.8 510.6 L 967.8 510.6 M 967.8 510.6 L 965.2 508.4 M 967.8 510.6 L 965.2 512.8" fill="none" stroke="#ea580c" stroke-width="1.5" stroke-linecap="round" stroke-linejoin="round"/></g><text x="900.0" y="532.3" text-anchor="middle" dominant-baseline="middle" fill="#7c2d12" font-size="14.0">Deploy workflow</text></g><g data-dediren-node-id="deploy-change-detection"><rect data-dediren-node-shape="archimate_rounded_rectangle" x="1104.0" y="636.3" width="160.0" height="80.0" rx="4.0" fill="#ffedd5" stroke="#ea580c" stroke-width="1.5"/><g data-dediren-node-decorator="archimate_work_package" data-dediren-icon-kind="work_package" data-dediren-icon-size="22"><path data-dediren-icon-part="work-package-loop-arrow" d="M 1245.7 650.2 A 5.7 5.7 0 1 0 1244.8 654.6 L 1251.8 654.6 M 1251.8 654.6 L 1249.2 652.4 M 1251.8 654.6 L 1249.2 656.8" fill="none" stroke="#ea580c" stroke-width="1.5" stroke-linecap="round" stroke-linejoin="round"/></g><text x="1184.0" y="668.3" text-anchor="middle" dominant-baseline="middle" fill="#7c2d12" font-size="14.0"><tspan x="1184.0" dy="0">Detect deploy</tspan><tspan x="1184.0" dy="16.0">changes</tspan></text></g><g data-dediren-node-id="secret-scan-workflow"><rect data-dediren-node-shape="archimate_rounded_rectangle" x="1544.0" y="188.7" width="160.0" height="80.0" rx="4.0" fill="#ffedd5" stroke="#ea580c" stroke-width="1.5"/><g data-dediren-node-decorator="archimate_work_package" data-dediren-icon-kind="work_package" data-dediren-icon-size="22"><path data-dediren-icon-part="work-package-loop-arrow" d="M 1685.7 202.5 A 5.7 5.7 0 1 0 1684.8 206.9 L 1691.8 206.9 M 1691.8 206.9 L 1689.2 204.7 M 1691.8 206.9 L 1689.2 209.1" fill="none" stroke="#ea580c" stroke-width="1.5" stroke-linecap="round" stroke-linejoin="round"/></g><text x="1624.0" y="228.7" text-anchor="middle" dominant-baseline="middle" fill="#7c2d12" font-size="14.0">Secret Scanning</text></g><g data-dediren-node-id="infrastructure-analysis-workflow"><rect data-dediren-node-shape="archimate_rounded_rectangle" x="1544.0" y="328.7" width="160.0" height="80.0" rx="4.0" fill="#ffedd5" stroke="#ea580c" stroke-width="1.5"/><g data-dediren-node-decorator="archimate_work_package" data-dediren-icon-kind="work_package" data-dediren-icon-size="22"><path data-dediren-icon-part="work-package-loop-arrow" d="M 1685.7 342.5 A 5.7 5.7 0 1 0 1684.8 346.9 L 1691.8 346.9 M 1691.8 346.9 L 1689.2 344.7 M 1691.8 346.9 L 1689.2 349.1" fill="none" stroke="#ea580c" stroke-width="1.5" stroke-linecap="round" stroke-linejoin="round"/></g><text x="1624.0" y="360.6" text-anchor="middle" dominant-baseline="middle" fill="#7c2d12" font-size="14.0"><tspan x="1624.0" dy="0">Analyze</tspan><tspan x="1624.0" dy="16.0">Infrastructure</tspan></text></g><g data-dediren-node-id="deploy-infra-workflow"><rect data-dediren-node-shape="archimate_rounded_rectangle" x="2128.0" y="220.0" width="160.0" height="80.0" rx="4.0" fill="#ffedd5" stroke="#ea580c" stroke-width="1.5"/><g data-dediren-node-decorator="archimate_work_package" data-dediren-icon-kind="work_package" data-dediren-icon-size="22"><path data-dediren-icon-part="work-package-loop-arrow" d="M 2269.7 233.8 A 5.7 5.7 0 1 0 2268.8 238.2 L 2275.8 238.2 M 2275.8 238.2 L 2273.2 236.0 M 2275.8 238.2 L 2273.2 240.4" fill="none" stroke="#ea580c" stroke-width="1.5" stroke-linecap="round" stroke-linejoin="round"/></g><text x="2208.0" y="251.9" text-anchor="middle" dominant-baseline="middle" fill="#7c2d12" font-size="14.0"><tspan x="2208.0" dy="0">Deploy</tspan><tspan x="2208.0" dy="16.0">Infrastructure</tspan></text></g><g data-dediren-node-id="deploy-app-build-workflow"><rect data-dediren-node-shape="archimate_rounded_rectangle" x="2128.0" y="36.0" width="160.0" height="80.0" rx="4.0" fill="#ffedd5" stroke="#ea580c" stroke-width="1.5"/><g data-dediren-node-decorator="archimate_work_package" data-dediren-icon-kind="work_package" data-dediren-icon-size="22"><path data-dediren-icon-part="work-package-loop-arrow" d="M 2269.7 49.8 A 5.7 5.7 0 1 0 2268.8 54.2 L 2275.8 54.2 M 2275.8 54.2 L 2273.2 52.0 M 2275.8 54.2 L 2273.2 56.4" fill="none" stroke="#ea580c" stroke-width="1.5" stroke-linecap="round" stroke-linejoin="round"/></g><text x="2208.0" y="68.0" text-anchor="middle" dominant-baseline="middle" fill="#7c2d12" font-size="14.0"><tspan x="2208.0" dy="0">Deploy App -</tspan><tspan x="2208.0" dy="16.0">Build</tspan></text></g><g data-dediren-node-id="deploy-app-workflow"><rect data-dediren-node-shape="archimate_rounded_rectangle" x="2412.0" y="652.0" width="160.0" height="80.0" rx="4.0" fill="#ffedd5" stroke="#ea580c" stroke-width="1.5"/><g data-dediren-node-decorator="archimate_work_package" data-dediren-icon-kind="work_package" data-dediren-icon-size="22"><path data-dediren-icon-part="work-package-loop-arrow" d="M 2553.7 665.8 A 5.7 5.7 0 1 0 2552.8 670.2 L 2559.8 670.2 M 2559.8 670.2 L 2557.2 668.0 M 2559.8 670.2 L 2557.2 672.4" fill="none" stroke="#ea580c" stroke-width="1.5" stroke-linecap="round" stroke-linejoin="round"/></g><text x="2492.0" y="692.0" text-anchor="middle" dominant-baseline="middle" fill="#7c2d12" font-size="14.0">Deploy App</text></g><g data-dediren-node-id="bicep-template"><rect data-dediren-node-shape="archimate_rectangle" x="2412.0" y="364.0" width="160.0" height="80.0" rx="0" fill="#fef3c7" stroke="#d97706" stroke-width="1.5"/><g data-dediren-node-decorator="archimate_deliverable" data-dediren-icon-kind="deliverable" data-dediren-icon-size="22"><path data-dediren-icon-part="wavy-document" d="M 2544.0 373.0 L 2566.0 373.0 L 2566.0 385.8 C 2562.0 384.0, 2558.5 384.0, 2555.0 385.8 C 2551.5 387.5, 2548.0 387.5, 2544.0 385.8 L 2544.0 373.0 Z" fill="#fef3c7" stroke="#d97706" stroke-width="1.5" stroke-linejoin="round"/></g><text x="2492.0" y="404.0" text-anchor="middle" dominant-baseline="middle" fill="#78350f" font-size="14.0">Bicep deployment</text></g><g data-dediren-node-id="function-app-package"><rect data-dediren-node-shape="archimate_rectangle" x="2412.0" y="508.0" width="160.0" height="80.0" rx="0" fill="#fef3c7" stroke="#d97706" stroke-width="1.5"/><g data-dediren-node-decorator="archimate_deliverable" data-dediren-icon-kind="deliverable" data-dediren-icon-size="22"><path data-dediren-icon-part="wavy-document" d="M 2544.0 517.0 L 2566.0 517.0 L 2566.0 529.8 C 2562.0 528.0, 2558.5 528.0, 2555.0 529.8 C 2551.5 531.5, 2548.0 531.5, 2544.0 529.8 L 2544.0 517.0 Z" fill="#fef3c7" stroke="#d97706" stroke-width="1.5" stroke-linejoin="round"/></g><text x="2492.0" y="548.0" text-anchor="middle" dominant-baseline="middle" fill="#78350f" font-size="14.0">Functions zip</text></g><g data-dediren-node-id="spa-wwwroot-package"><rect data-dediren-node-shape="archimate_rectangle" x="2412.0" y="180.0" width="160.0" height="80.0" rx="0" fill="#fef3c7" stroke="#d97706" stroke-width="1.5"/><g data-dediren-node-decorator="archimate_deliverable" data-dediren-icon-kind="deliverable" data-dediren-icon-size="22"><path data-dediren-icon-part="wavy-document" d="M 2544.0 189.0 L 2566.0 189.0 L 2566.0 201.8 C 2562.0 200.0, 2558.5 200.0, 2555.0 201.8 C 2551.5 203.5, 2548.0 203.5, 2544.0 201.8 L 2544.0 189.0 Z" fill="#fef3c7" stroke="#d97706" stroke-width="1.5" stroke-linejoin="round"/></g><text x="2492.0" y="211.9" text-anchor="middle" dominant-baseline="middle" fill="#78350f" font-size="14.0"><tspan x="2492.0" dy="0">SPA wwwroot</tspan><tspan x="2492.0" dy="16.0">bundle</tspan></text></g><g data-dediren-node-id="static-web-apps"><rect data-dediren-node-shape="archimate_rectangle" x="2996.0" y="228.0" width="160.0" height="80.0" rx="0" fill="#ecfdf3" stroke="#16a34a" stroke-width="1.5"/><g data-dediren-node-decorator="archimate_technology_node" data-dediren-icon-kind="node" data-dediren-icon-size="22"><rect x="3128.0" y="241.0" width="18.0" height="12.8" rx="1.5" fill="#ecfdf3" stroke="#16a34a" stroke-width="1.5"/><path data-dediren-icon-part="node-3d-edges" d="M 3128.0 241.0 L 3132.0 237.0 L 3150.0 237.0 L 3146.0 241.0 M 3146.0 241.0 L 3150.0 237.0 M 3146.0 253.7 L 3150.0 249.8 M 3150.0 237.0 L 3150.0 249.8" fill="none" stroke="#16a34a" stroke-width="1.5" stroke-linejoin="round"/></g><text x="3076.0" y="259.9" text-anchor="middle" dominant-baseline="middle" fill="#14532d" font-size="14.0"><tspan x="3076.0" dy="0">Azure Static Web</tspan><tspan x="3076.0" dy="16.0">Apps</tspan></text></g><g data-dediren-node-id="function-app"><rect data-dediren-node-shape="archimate_rectangle" x="2996.0" y="648.0" width="160.0" height="80.0" rx="0" fill="#ecfdf3" stroke="#16a34a" stroke-width="1.5"/><g data-dediren-node-decorator="archimate_technology_node" data-dediren-icon-kind="node" data-dediren-icon-size="22"><rect x="3128.0" y="661.0" width="18.0" height="12.8" rx="1.5" fill="#ecfdf3" stroke="#16a34a" stroke-width="1.5"/><path data-dediren-icon-part="node-3d-edges" d="M 3128.0 661.0 L 3132.0 657.0 L 3150.0 657.0 L 3146.0 661.0 M 3146.0 661.0 L 3150.0 657.0 M 3146.0 673.7 L 3150.0 669.8 M 3150.0 657.0 L 3150.0 669.8" fill="none" stroke="#16a34a" stroke-width="1.5" stroke-linejoin="round"/></g><text x="3076.0" y="680.0" text-anchor="middle" dominant-baseline="middle" fill="#14532d" font-size="14.0"><tspan x="3076.0" dy="0">Azure Function</tspan><tspan x="3076.0" dy="16.0">App</tspan></text></g><g data-dediren-node-id="lfm-app"><rect data-dediren-node-shape="archimate_rectangle" x="2996.0" y="368.0" width="160.0" height="80.0" rx="0" fill="#e8f3ff" stroke="#2563eb" stroke-width="1.5"/><g data-dediren-node-decorator="archimate_application_component" data-dediren-icon-kind="component" data-dediren-icon-size="22"><rect x="3132.0" y="377.0" width="18.0" height="15.8" rx="1.5" fill="#e8f3ff" stroke="#2563eb" stroke-width="1.5"/><rect x="3128.0" y="379.6" width="7.9" height="5.7" rx="1.2" fill="#e8f3ff" stroke="#2563eb" stroke-width="1.5"/><rect x="3128.0" y="386.7" width="7.9" height="5.7" rx="1.2" fill="#e8f3ff" stroke="#2563eb" stroke-width="1.5"/></g><text x="3076.0" y="408.0" text-anchor="middle" dominant-baseline="middle" fill="#172554" font-size="14.0">Lfm.App</text></g><g data-dediren-node-id="lfm-api"><rect data-dediren-node-shape="archimate_rectangle" x="2996.0" y="508.0" width="160.0" height="80.0" rx="0" fill="#e8f3ff" stroke="#2563eb" stroke-width="1.5"/><g data-dediren-node-decorator="archimate_application_component" data-dediren-icon-kind="component" data-dediren-icon-size="22"><rect x="3132.0" y="517.0" width="18.0" height="15.8" rx="1.5" fill="#e8f3ff" stroke="#2563eb" stroke-width="1.5"/><rect x="3128.0" y="519.6" width="7.9" height="5.7" rx="1.2" fill="#e8f3ff" stroke="#2563eb" stroke-width="1.5"/><rect x="3128.0" y="526.7" width="7.9" height="5.7" rx="1.2" fill="#e8f3ff" stroke="#2563eb" stroke-width="1.5"/></g><text x="3076.0" y="548.0" text-anchor="middle" dominant-baseline="middle" fill="#172554" font-size="14.0">Lfm.Api</text></g></g></svg>

