<svg xmlns="http://www.w3.org/2000/svg" width="1808" height="328" viewBox="-12.0 -12.0 1808.0 328.0"><rect x="-12.0" y="-12.0" width="1808.0" height="328.0" fill="#ffffff"/><g font-family="Inter, Arial, sans-serif" font-size="14.0"><g data-dediren-edge-id="player-event-triggers-browse"><defs><marker id="marker-end-player-event-triggers-browse" data-dediren-edge-marker-end="filled_arrow" markerWidth="8" markerHeight="8" refX="8" refY="4" orient="auto" markerUnits="strokeWidth"><path d="M 0 0 L 8 4 L 0 8 z" fill="#b45309"/></marker></defs><path d="M 172.0 65.3 L 412.0 65.3" fill="none" stroke="#b45309" stroke-width="1.5" marker-end="url(#marker-end-player-event-triggers-browse)"/><text x="292.0" y="56.9" text-anchor="middle" fill="#92400e" stroke="#ffffff" stroke-width="4" stroke-linejoin="round" paint-order="stroke">starts</text></g><g data-dediren-edge-id="browse-triggers-inspect"><defs><marker id="marker-end-browse-triggers-inspect" data-dediren-edge-marker-end="filled_arrow" markerWidth="8" markerHeight="8" refX="8" refY="4" orient="auto" markerUnits="strokeWidth"><path d="M 0 0 L 8 4 L 0 8 z" fill="#b45309"/></marker></defs><path d="M 572.0 65.3 L 812.0 65.3" fill="none" stroke="#b45309" stroke-width="1.5" marker-end="url(#marker-end-browse-triggers-inspect)"/><text x="692.0" y="56.9" text-anchor="middle" fill="#92400e" stroke="#ffffff" stroke-width="4" stroke-linejoin="round" paint-order="stroke">selects</text></g><g data-dediren-edge-id="inspect-triggers-signup"><defs><marker id="marker-end-inspect-triggers-signup" data-dediren-edge-marker-end="filled_arrow" markerWidth="8" markerHeight="8" refX="8" refY="4" orient="auto" markerUnits="strokeWidth"><path d="M 0 0 L 8 4 L 0 8 z" fill="#b45309"/></marker></defs><path d="M 972.0 65.3 L 1212.0 65.3" fill="none" stroke="#b45309" stroke-width="1.5" marker-end="url(#marker-end-inspect-triggers-signup)"/><text x="1092.0" y="56.9" text-anchor="middle" fill="#92400e" stroke="#ffffff" stroke-width="4" stroke-linejoin="round" paint-order="stroke">joins</text></g><g data-dediren-edge-id="signup-triggers-confirmed"><defs><marker id="marker-end-signup-triggers-confirmed" data-dediren-edge-marker-end="filled_arrow" markerWidth="8" markerHeight="8" refX="8" refY="4" orient="auto" markerUnits="strokeWidth"><path d="M 0 0 L 8 4 L 0 8 z" fill="#b45309"/></marker></defs><path d="M 1372.0 52.0 L 1612.0 52.0" fill="none" stroke="#b45309" stroke-width="1.5" marker-end="url(#marker-end-signup-triggers-confirmed)"/><text x="1492.0" y="43.6" text-anchor="middle" fill="#92400e" stroke="#ffffff" stroke-width="4" stroke-linejoin="round" paint-order="stroke">confirms</text></g><g data-dediren-edge-id="signup-flows-to-cancel"><defs><marker id="marker-end-signup-flows-to-cancel" data-dediren-edge-marker-end="filled_arrow" markerWidth="8" markerHeight="8" refX="8" refY="4" orient="auto" markerUnits="strokeWidth"><path d="M 0 0 L 8 4 L 0 8 z" fill="#b45309"/></marker></defs><path d="M 1372.0 78.7 L 1404.0 78.7 L 1404.0 252.0 L 1612.0 252.0" fill="none" stroke="#b45309" stroke-width="1.5" stroke-dasharray="8 5" marker-end="url(#marker-end-signup-flows-to-cancel)"/><text x="1466.8" y="95.5" text-anchor="middle" fill="#92400e" stroke="#ffffff" stroke-width="4" stroke-linejoin="round" paint-order="stroke">alternate path</text></g><g data-dediren-node-id="player-wants-run"><rect data-dediren-node-shape="archimate_rounded_rectangle" x="12.0" y="25.3" width="160.0" height="80.0" rx="4.0" fill="#fefce8" stroke="#a16207" stroke-width="1.5"/><g data-dediren-node-decorator="archimate_business_event" data-dediren-icon-kind="event" data-dediren-icon-size="22"><path data-dediren-icon-part="event-pill" d="M 148.0 35.2 L 160.3 35.2 C 164.7 35.2, 166.0 38.7, 166.0 42.3 C 166.0 45.8, 164.7 49.3, 160.3 49.3 L 148.0 49.3 L 151.5 42.3 L 148.0 35.2 Z" fill="#fefce8" stroke="#a16207" stroke-width="1.5"/></g><text x="92.0" y="57.3" text-anchor="middle" dominant-baseline="middle" fill="#713f12" font-size="14.0"><tspan x="92.0" dy="0">Player wants to</tspan><tspan x="92.0" dy="16.0">join a run</tspan></text></g><g data-dediren-node-id="browse-open-runs"><rect data-dediren-node-shape="archimate_rounded_rectangle" x="412.0" y="25.3" width="160.0" height="80.0" rx="4.0" fill="#fefce8" stroke="#a16207" stroke-width="1.5"/><g data-dediren-node-decorator="archimate_business_process" data-dediren-icon-kind="process" data-dediren-icon-size="22"><path data-dediren-icon-part="process-arrow" d="M 544.0 39.6 L 557.6 39.6 L 557.6 34.3 L 566.0 42.3 L 557.6 50.2 L 557.6 44.9 L 544.0 44.9 Z" fill="#fefce8" stroke="#a16207" stroke-width="1.5"/></g><text x="492.0" y="65.3" text-anchor="middle" dominant-baseline="middle" fill="#713f12" font-size="14.0">Browse open runs</text></g><g data-dediren-node-id="inspect-run-detail"><rect data-dediren-node-shape="archimate_rounded_rectangle" x="812.0" y="25.3" width="160.0" height="80.0" rx="4.0" fill="#fefce8" stroke="#a16207" stroke-width="1.5"/><g data-dediren-node-decorator="archimate_business_process" data-dediren-icon-kind="process" data-dediren-icon-size="22"><path data-dediren-icon-part="process-arrow" d="M 944.0 39.6 L 957.6 39.6 L 957.6 34.3 L 966.0 42.3 L 957.6 50.2 L 957.6 44.9 L 944.0 44.9 Z" fill="#fefce8" stroke="#a16207" stroke-width="1.5"/></g><text x="892.0" y="57.3" text-anchor="middle" dominant-baseline="middle" fill="#713f12" font-size="14.0"><tspan x="892.0" dy="0">Inspect run</tspan><tspan x="892.0" dy="16.0">detail</tspan></text></g><g data-dediren-node-id="sign-up-for-run"><rect data-dediren-node-shape="archimate_rounded_rectangle" x="1212.0" y="25.3" width="160.0" height="80.0" rx="4.0" fill="#fefce8" stroke="#a16207" stroke-width="1.5"/><g data-dediren-node-decorator="archimate_business_process" data-dediren-icon-kind="process" data-dediren-icon-size="22"><path data-dediren-icon-part="process-arrow" d="M 1344.0 39.6 L 1357.6 39.6 L 1357.6 34.3 L 1366.0 42.3 L 1357.6 50.2 L 1357.6 44.9 L 1344.0 44.9 Z" fill="#fefce8" stroke="#a16207" stroke-width="1.5"/></g><text x="1292.0" y="65.3" text-anchor="middle" dominant-baseline="middle" fill="#713f12" font-size="14.0">Sign up for run</text></g><g data-dediren-node-id="cancel-signup"><rect data-dediren-node-shape="archimate_rounded_rectangle" x="1612.0" y="212.0" width="160.0" height="80.0" rx="4.0" fill="#fefce8" stroke="#a16207" stroke-width="1.5"/><g data-dediren-node-decorator="archimate_business_process" data-dediren-icon-kind="process" data-dediren-icon-size="22"><path data-dediren-icon-part="process-arrow" d="M 1744.0 226.3 L 1757.6 226.3 L 1757.6 221.0 L 1766.0 228.9 L 1757.6 236.8 L 1757.6 231.6 L 1744.0 231.6 Z" fill="#fefce8" stroke="#a16207" stroke-width="1.5"/></g><text x="1692.0" y="252.0" text-anchor="middle" dominant-baseline="middle" fill="#713f12" font-size="14.0">Cancel signup</text></g><g data-dediren-node-id="signup-confirmed"><rect data-dediren-node-shape="archimate_rounded_rectangle" x="1612.0" y="12.0" width="160.0" height="80.0" rx="4.0" fill="#fefce8" stroke="#a16207" stroke-width="1.5"/><g data-dediren-node-decorator="archimate_business_event" data-dediren-icon-kind="event" data-dediren-icon-size="22"><path data-dediren-icon-part="event-pill" d="M 1748.0 21.9 L 1760.3 21.9 C 1764.7 21.9, 1766.0 25.4, 1766.0 28.9 C 1766.0 32.4, 1764.7 36.0, 1760.3 36.0 L 1748.0 36.0 L 1751.5 28.9 L 1748.0 21.9 Z" fill="#fefce8" stroke="#a16207" stroke-width="1.5"/></g><text x="1692.0" y="52.0" text-anchor="middle" dominant-baseline="middle" fill="#713f12" font-size="14.0">Signup confirmed</text></g></g></svg>

