<svg xmlns="http://www.w3.org/2000/svg" width="1332" height="268" viewBox="-12.0 -12.0 1332.0 268.0"><rect x="-12.0" y="-12.0" width="1332.0" height="268.0" fill="#ffffff"/><g font-family="Inter, Arial, sans-serif" font-size="14.0"><g data-dediren-edge-id="player-event-triggers-browse"><defs><marker id="marker-end-player-event-triggers-browse" data-dediren-edge-marker-end="filled_arrow" markerWidth="8" markerHeight="8" refX="8" refY="4" orient="auto" markerUnits="strokeWidth"><path d="M 0 0 L 8 4 L 0 8 z" fill="#b45309"/></marker></defs><path d="M 172.0 60.3 L 292.0 60.3" fill="none" stroke="#b45309" stroke-width="1.5" marker-end="url(#marker-end-player-event-triggers-browse)"/><text x="232.0" y="51.9" text-anchor="middle" fill="#92400e" stroke="#ffffff" stroke-width="4" stroke-linejoin="round" paint-order="stroke">starts</text></g><g data-dediren-edge-id="browse-triggers-inspect"><defs><marker id="marker-end-browse-triggers-inspect" data-dediren-edge-marker-end="filled_arrow" markerWidth="8" markerHeight="8" refX="8" refY="4" orient="auto" markerUnits="strokeWidth"><path d="M 0 0 L 8 4 L 0 8 z" fill="#b45309"/></marker></defs><path d="M 452.0 60.3 L 572.0 60.3" fill="none" stroke="#b45309" stroke-width="1.5" marker-end="url(#marker-end-browse-triggers-inspect)"/><text x="512.0" y="51.9" text-anchor="middle" fill="#92400e" stroke="#ffffff" stroke-width="4" stroke-linejoin="round" paint-order="stroke">selects</text></g><g data-dediren-edge-id="inspect-triggers-signup"><defs><marker id="marker-end-inspect-triggers-signup" data-dediren-edge-marker-end="filled_arrow" markerWidth="8" markerHeight="8" refX="8" refY="4" orient="auto" markerUnits="strokeWidth"><path d="M 0 0 L 8 4 L 0 8 z" fill="#b45309"/></marker></defs><path d="M 732.0 60.3 L 852.0 60.3" fill="none" stroke="#b45309" stroke-width="1.5" marker-end="url(#marker-end-inspect-triggers-signup)"/><text x="792.0" y="51.9" text-anchor="middle" fill="#92400e" stroke="#ffffff" stroke-width="4" stroke-linejoin="round" paint-order="stroke">joins</text></g><g data-dediren-edge-id="signup-triggers-confirmed"><defs><marker id="marker-end-signup-triggers-confirmed" data-dediren-edge-marker-end="filled_arrow" markerWidth="8" markerHeight="8" refX="8" refY="4" orient="auto" markerUnits="strokeWidth"><path d="M 0 0 L 8 4 L 0 8 z" fill="#b45309"/></marker></defs><path d="M 1012.0 47.0 L 1074.0 47.0 L 1074.0 52.0 L 1136.0 52.0" fill="none" stroke="#b45309" stroke-width="1.5" marker-end="url(#marker-end-signup-triggers-confirmed)"/><text x="1095.7" y="63.8" text-anchor="middle" fill="#92400e" stroke="#ffffff" stroke-width="4" stroke-linejoin="round" paint-order="stroke">confirms</text></g><g data-dediren-edge-id="signup-flows-to-cancel"><defs><marker id="marker-end-signup-flows-to-cancel" data-dediren-edge-marker-end="filled_arrow" markerWidth="8" markerHeight="8" refX="8" refY="4" orient="auto" markerUnits="strokeWidth"><path d="M 0 0 L 8 4 L 0 8 z" fill="#b45309"/></marker></defs><path d="M 1012.0 73.7 L 1074.0 73.7 L 1074.0 192.0 L 1136.0 192.0" fill="none" stroke="#b45309" stroke-width="1.5" stroke-dasharray="8 5" marker-end="url(#marker-end-signup-flows-to-cancel)"/><text x="1043.0" y="108.5" text-anchor="middle" fill="#92400e" stroke="#ffffff" stroke-width="4" stroke-linejoin="round" paint-order="stroke">alternate path</text></g><g data-dediren-node-id="player-wants-run"><rect data-dediren-node-shape="archimate_rounded_rectangle" x="12.0" y="20.3" width="160.0" height="80.0" rx="4.0" fill="#fefce8" stroke="#a16207" stroke-width="1.5"/><g data-dediren-node-decorator="archimate_business_event" data-dediren-icon-kind="event" data-dediren-icon-size="22"><path data-dediren-icon-part="event-pill" d="M 148.0 30.2 L 160.3 30.2 C 164.7 30.2, 166.0 33.7, 166.0 37.3 C 166.0 40.8, 164.7 44.3, 160.3 44.3 L 148.0 44.3 L 151.5 37.3 L 148.0 30.2 Z" fill="#fefce8" stroke="#a16207" stroke-width="1.5"/></g><text x="92.0" y="52.3" text-anchor="middle" dominant-baseline="middle" fill="#713f12" font-size="14.0"><tspan x="92.0" dy="0">Player wants to</tspan><tspan x="92.0" dy="16.0">join a run</tspan></text></g><g data-dediren-node-id="browse-open-runs"><rect data-dediren-node-shape="archimate_rounded_rectangle" x="292.0" y="20.3" width="160.0" height="80.0" rx="4.0" fill="#fefce8" stroke="#a16207" stroke-width="1.5"/><g data-dediren-node-decorator="archimate_business_process" data-dediren-icon-kind="process" data-dediren-icon-size="22"><path data-dediren-icon-part="process-arrow" d="M 424.0 34.6 L 437.6 34.6 L 437.6 29.3 L 446.0 37.3 L 437.6 45.2 L 437.6 39.9 L 424.0 39.9 Z" fill="#fefce8" stroke="#a16207" stroke-width="1.5"/></g><text x="372.0" y="60.3" text-anchor="middle" dominant-baseline="middle" fill="#713f12" font-size="14.0">Browse open runs</text></g><g data-dediren-node-id="inspect-run-detail"><rect data-dediren-node-shape="archimate_rounded_rectangle" x="572.0" y="20.3" width="160.0" height="80.0" rx="4.0" fill="#fefce8" stroke="#a16207" stroke-width="1.5"/><g data-dediren-node-decorator="archimate_business_process" data-dediren-icon-kind="process" data-dediren-icon-size="22"><path data-dediren-icon-part="process-arrow" d="M 704.0 34.6 L 717.6 34.6 L 717.6 29.3 L 726.0 37.3 L 717.6 45.2 L 717.6 39.9 L 704.0 39.9 Z" fill="#fefce8" stroke="#a16207" stroke-width="1.5"/></g><text x="652.0" y="52.3" text-anchor="middle" dominant-baseline="middle" fill="#713f12" font-size="14.0"><tspan x="652.0" dy="0">Inspect run</tspan><tspan x="652.0" dy="16.0">detail</tspan></text></g><g data-dediren-node-id="sign-up-for-run"><rect data-dediren-node-shape="archimate_rounded_rectangle" x="852.0" y="20.3" width="160.0" height="80.0" rx="4.0" fill="#fefce8" stroke="#a16207" stroke-width="1.5"/><g data-dediren-node-decorator="archimate_business_process" data-dediren-icon-kind="process" data-dediren-icon-size="22"><path data-dediren-icon-part="process-arrow" d="M 984.0 34.6 L 997.6 34.6 L 997.6 29.3 L 1006.0 37.3 L 997.6 45.2 L 997.6 39.9 L 984.0 39.9 Z" fill="#fefce8" stroke="#a16207" stroke-width="1.5"/></g><text x="932.0" y="60.3" text-anchor="middle" dominant-baseline="middle" fill="#713f12" font-size="14.0">Sign up for run</text></g><g data-dediren-node-id="cancel-signup"><rect data-dediren-node-shape="archimate_rounded_rectangle" x="1136.0" y="152.0" width="160.0" height="80.0" rx="4.0" fill="#fefce8" stroke="#a16207" stroke-width="1.5"/><g data-dediren-node-decorator="archimate_business_process" data-dediren-icon-kind="process" data-dediren-icon-size="22"><path data-dediren-icon-part="process-arrow" d="M 1268.0 166.3 L 1281.6 166.3 L 1281.6 161.0 L 1290.0 168.9 L 1281.6 176.8 L 1281.6 171.6 L 1268.0 171.6 Z" fill="#fefce8" stroke="#a16207" stroke-width="1.5"/></g><text x="1216.0" y="192.0" text-anchor="middle" dominant-baseline="middle" fill="#713f12" font-size="14.0">Cancel signup</text></g><g data-dediren-node-id="signup-confirmed"><rect data-dediren-node-shape="archimate_rounded_rectangle" x="1136.0" y="12.0" width="160.0" height="80.0" rx="4.0" fill="#fefce8" stroke="#a16207" stroke-width="1.5"/><g data-dediren-node-decorator="archimate_business_event" data-dediren-icon-kind="event" data-dediren-icon-size="22"><path data-dediren-icon-part="event-pill" d="M 1272.0 21.9 L 1284.3 21.9 C 1288.7 21.9, 1290.0 25.4, 1290.0 28.9 C 1290.0 32.4, 1288.7 36.0, 1284.3 36.0 L 1272.0 36.0 L 1275.5 28.9 L 1272.0 21.9 Z" fill="#fefce8" stroke="#a16207" stroke-width="1.5"/></g><text x="1216.0" y="52.0" text-anchor="middle" dominant-baseline="middle" fill="#713f12" font-size="14.0">Signup confirmed</text></g></g></svg>

