<svg xmlns="http://www.w3.org/2000/svg" width="1472" height="1128" viewBox="-12.0 -12.0 1472.0 1128.0"><rect x="-12.0" y="-12.0" width="1472.0" height="1128.0" fill="#ffffff"/><g font-family="Inter, Arial, sans-serif" font-size="14.0"><g data-dediren-edge-id="runs-ui-serves-browse"><defs><marker id="marker-end-runs-ui-serves-browse" data-dediren-edge-marker-end="open_arrow" markerWidth="9" markerHeight="9" refX="8" refY="4.5" orient="auto" markerUnits="strokeWidth"><path d="M 1 1 L 8 4.5 L 1 8" fill="none" stroke="#2563eb" stroke-width="1.3" stroke-linecap="round" stroke-linejoin="round"/></marker></defs><path d="M 972.0 685.3 L 1024.0 685.3 L 1024.0 862.7 L 1188.0 862.7 L 1188.0 865.3 L 1276.0 865.3" fill="none" stroke="#2563eb" stroke-width="1.5" marker-end="url(#marker-end-runs-ui-serves-browse)"/><text x="1024.7" y="702.1" text-anchor="middle" fill="#1e3a8a" stroke="#ffffff" stroke-width="4" stroke-linejoin="round" paint-order="stroke">UI</text></g><g data-dediren-edge-id="runs-ui-serves-inspect"><defs><marker id="marker-end-runs-ui-serves-inspect" data-dediren-edge-marker-end="open_arrow" markerWidth="9" markerHeight="9" refX="8" refY="4.5" orient="auto" markerUnits="strokeWidth"><path d="M 1 1 L 8 4.5 L 1 8" fill="none" stroke="#2563eb" stroke-width="1.3" stroke-linecap="round" stroke-linejoin="round"/></marker></defs><path d="M 972.0 705.3 L 1004.0 705.3 L 1004.0 1062.7 L 1188.0 1062.7 L 1188.0 1065.3 L 1276.0 1065.3" fill="none" stroke="#2563eb" stroke-width="1.5" marker-end="url(#marker-end-runs-ui-serves-inspect)"/><text x="988.0" y="722.1" text-anchor="middle" fill="#1e3a8a" stroke="#ffffff" stroke-width="4" stroke-linejoin="round" paint-order="stroke">UI</text></g><g data-dediren-edge-id="runs-ui-serves-signup"><defs><marker id="marker-end-runs-ui-serves-signup" data-dediren-edge-marker-end="open_arrow" markerWidth="9" markerHeight="9" refX="8" refY="4.5" orient="auto" markerUnits="strokeWidth"><path d="M 1 1 L 8 4.5 L 1 8" fill="none" stroke="#2563eb" stroke-width="1.3" stroke-linecap="round" stroke-linejoin="round"/></marker></defs><path d="M 972.0 665.3 L 1276.0 665.3" fill="none" stroke="#2563eb" stroke-width="1.5" marker-end="url(#marker-end-runs-ui-serves-signup)"/><text x="1124.0" y="656.9" text-anchor="middle" fill="#1e3a8a" stroke="#ffffff" stroke-width="4" stroke-linejoin="round" paint-order="stroke">UI</text></g><g data-dediren-edge-id="run-service-serves-browse"><defs><marker id="marker-end-run-service-serves-browse" data-dediren-edge-marker-end="open_arrow" markerWidth="9" markerHeight="9" refX="8" refY="4.5" orient="auto" markerUnits="strokeWidth"><path d="M 1 1 L 8 4.5 L 1 8" fill="none" stroke="#2563eb" stroke-width="1.3" stroke-linecap="round" stroke-linejoin="round"/></marker></defs><path d="M 972.0 97.7 L 1064.0 97.7 L 1064.0 659.3 Q 1070.0 665.3 1064.0 671.3 L 1064.0 838.7 L 1276.0 838.7" fill="none" stroke="#2563eb" stroke-width="1.5" marker-end="url(#marker-end-run-service-serves-browse)"/><text x="1018.0" y="132.5" text-anchor="middle" fill="#1e3a8a" stroke="#ffffff" stroke-width="4" stroke-linejoin="round" paint-order="stroke">realization</text></g><g data-dediren-edge-id="run-service-serves-inspect"><defs><marker id="marker-end-run-service-serves-inspect" data-dediren-edge-marker-end="open_arrow" markerWidth="9" markerHeight="9" refX="8" refY="4.5" orient="auto" markerUnits="strokeWidth"><path d="M 1 1 L 8 4.5 L 1 8" fill="none" stroke="#2563eb" stroke-width="1.3" stroke-linecap="round" stroke-linejoin="round"/></marker></defs><path d="M 972.0 109.1 L 1044.0 109.1 L 1044.0 659.3 Q 1050.0 665.3 1044.0 671.3 L 1044.0 856.7 Q 1050.0 862.7 1044.0 868.7 L 1044.0 1038.7 L 1276.0 1038.7" fill="none" stroke="#2563eb" stroke-width="1.5" marker-end="url(#marker-end-run-service-serves-inspect)"/><text x="1073.7" y="89.9" text-anchor="middle" fill="#1e3a8a" stroke="#ffffff" stroke-width="4" stroke-linejoin="round" paint-order="stroke">realization</text></g><g data-dediren-edge-id="run-service-serves-signup"><defs><marker id="marker-end-run-service-serves-signup" data-dediren-edge-marker-end="open_arrow" markerWidth="9" markerHeight="9" refX="8" refY="4.5" orient="auto" markerUnits="strokeWidth"><path d="M 1 1 L 8 4.5 L 1 8" fill="none" stroke="#2563eb" stroke-width="1.3" stroke-linecap="round" stroke-linejoin="round"/></marker></defs><path d="M 972.0 86.3 L 1084.0 86.3 L 1084.0 638.7 L 1276.0 638.7" fill="none" stroke="#2563eb" stroke-width="1.5" marker-end="url(#marker-end-run-service-serves-signup)"/><text x="1028.0" y="49.1" text-anchor="middle" fill="#1e3a8a" stroke="#ffffff" stroke-width="4" stroke-linejoin="round" paint-order="stroke">realization</text></g><g data-dediren-edge-id="run-service-serves-cancel"><defs><marker id="marker-end-run-service-serves-cancel" data-dediren-edge-marker-end="open_arrow" markerWidth="9" markerHeight="9" refX="8" refY="4.5" orient="auto" markerUnits="strokeWidth"><path d="M 1 1 L 8 4.5 L 1 8" fill="none" stroke="#2563eb" stroke-width="1.3" stroke-linecap="round" stroke-linejoin="round"/></marker></defs><path d="M 972.0 52.0 L 1276.0 52.0" fill="none" stroke="#2563eb" stroke-width="1.5" marker-end="url(#marker-end-run-service-serves-cancel)"/><text x="1124.0" y="43.6" text-anchor="middle" fill="#1e3a8a" stroke="#ffffff" stroke-width="4" stroke-linejoin="round" paint-order="stroke">realization</text></g><g data-dediren-edge-id="api-realizes-run-service"><defs><marker id="marker-end-api-realizes-run-service" data-dediren-edge-marker-end="hollow_triangle" markerWidth="10" markerHeight="10" refX="9" refY="5" orient="auto" markerUnits="strokeWidth"><path d="M 1 1 L 9 5 L 1 9 z" fill="#ffffff" stroke="#475569" stroke-width="1.2"/></marker></defs><path d="M 572.0 80.6 L 812.0 80.6" fill="none" stroke="#475569" stroke-width="1.5" stroke-dasharray="8 5" marker-end="url(#marker-end-api-realizes-run-service)"/><text x="692.0" y="72.2" text-anchor="middle" fill="#334155" stroke="#ffffff" stroke-width="4" stroke-linejoin="round" paint-order="stroke">realizes</text></g><g data-dediren-edge-id="function-app-hosts-api"><defs><marker id="marker-end-function-app-hosts-api" data-dediren-edge-marker-end="filled_circle" markerWidth="8" markerHeight="8" refX="1" refY="4" orient="auto" markerUnits="strokeWidth"><circle cx="4" cy="4" r="3" fill="#64748b" stroke="#64748b" stroke-width="1"/></marker></defs><path d="M 172.0 80.6 L 412.0 80.6" fill="none" stroke="#64748b" stroke-width="1.5" marker-end="url(#marker-end-function-app-hosts-api)"/><text x="292.0" y="72.2" text-anchor="middle" fill="#334155" stroke="#ffffff" stroke-width="4" stroke-linejoin="round" paint-order="stroke">hosts</text></g><g data-dediren-edge-id="run-service-accesses-runs"><defs><marker id="marker-end-run-service-accesses-runs" data-dediren-edge-marker-end="open_arrow" markerWidth="9" markerHeight="9" refX="8" refY="4.5" orient="auto" markerUnits="strokeWidth"><path d="M 1 1 L 8 4.5 L 1 8" fill="none" stroke="#15803d" stroke-width="1.3" stroke-linecap="round" stroke-linejoin="round"/></marker></defs><path d="M 972.0 63.4 L 1124.0 63.4 L 1124.0 252.0 L 1276.0 252.0" fill="none" stroke="#15803d" stroke-width="1.5" stroke-dasharray="8 5" marker-end="url(#marker-end-run-service-accesses-runs)"/><text x="977.9" y="26.2" text-anchor="middle" fill="#166534" stroke="#ffffff" stroke-width="4" stroke-linejoin="round" paint-order="stroke">reads/writes</text></g><g data-dediren-edge-id="run-service-accesses-raiders"><defs><marker id="marker-end-run-service-accesses-raiders" data-dediren-edge-marker-end="open_arrow" markerWidth="9" markerHeight="9" refX="8" refY="4.5" orient="auto" markerUnits="strokeWidth"><path d="M 1 1 L 8 4.5 L 1 8" fill="none" stroke="#15803d" stroke-width="1.3" stroke-linecap="round" stroke-linejoin="round"/></marker></defs><path d="M 972.0 74.9 L 1104.0 74.9 L 1104.0 452.0 L 1276.0 452.0" fill="none" stroke="#15803d" stroke-width="1.5" stroke-dasharray="8 5" marker-end="url(#marker-end-run-service-accesses-raiders)"/><text x="1038.0" y="73.7" text-anchor="middle" fill="#166534" stroke="#ffffff" stroke-width="4" stroke-linejoin="round" paint-order="stroke">signup options</text></g><g data-dediren-node-id="browse-open-runs"><rect data-dediren-node-shape="archimate_rounded_rectangle" x="1276.0" y="812.0" width="160.0" height="80.0" rx="4.0" fill="#fefce8" stroke="#a16207" stroke-width="1.5"/><g data-dediren-node-decorator="archimate_business_process" data-dediren-icon-kind="process" data-dediren-icon-size="22"><path data-dediren-icon-part="process-arrow" d="M 1408.0 826.3 L 1421.6 826.3 L 1421.6 821.0 L 1430.0 828.9 L 1421.6 836.8 L 1421.6 831.6 L 1408.0 831.6 Z" fill="#fefce8" stroke="#a16207" stroke-width="1.5"/></g><text x="1356.0" y="852.0" text-anchor="middle" dominant-baseline="middle" fill="#713f12" font-size="14.0">Browse open runs</text></g><g data-dediren-node-id="inspect-run-detail"><rect data-dediren-node-shape="archimate_rounded_rectangle" x="1276.0" y="1012.0" width="160.0" height="80.0" rx="4.0" fill="#fefce8" stroke="#a16207" stroke-width="1.5"/><g data-dediren-node-decorator="archimate_business_process" data-dediren-icon-kind="process" data-dediren-icon-size="22"><path data-dediren-icon-part="process-arrow" d="M 1408.0 1026.3 L 1421.6 1026.3 L 1421.6 1021.0 L 1430.0 1028.9 L 1421.6 1036.8 L 1421.6 1031.6 L 1408.0 1031.6 Z" fill="#fefce8" stroke="#a16207" stroke-width="1.5"/></g><text x="1356.0" y="1044.0" text-anchor="middle" dominant-baseline="middle" fill="#713f12" font-size="14.0"><tspan x="1356.0" dy="0">Inspect run</tspan><tspan x="1356.0" dy="16.0">detail</tspan></text></g><g data-dediren-node-id="sign-up-for-run"><rect data-dediren-node-shape="archimate_rounded_rectangle" x="1276.0" y="612.0" width="160.0" height="80.0" rx="4.0" fill="#fefce8" stroke="#a16207" stroke-width="1.5"/><g data-dediren-node-decorator="archimate_business_process" data-dediren-icon-kind="process" data-dediren-icon-size="22"><path data-dediren-icon-part="process-arrow" d="M 1408.0 626.3 L 1421.6 626.3 L 1421.6 621.0 L 1430.0 628.9 L 1421.6 636.8 L 1421.6 631.6 L 1408.0 631.6 Z" fill="#fefce8" stroke="#a16207" stroke-width="1.5"/></g><text x="1356.0" y="652.0" text-anchor="middle" dominant-baseline="middle" fill="#713f12" font-size="14.0">Sign up for run</text></g><g data-dediren-node-id="cancel-signup"><rect data-dediren-node-shape="archimate_rounded_rectangle" x="1276.0" y="12.0" width="160.0" height="80.0" rx="4.0" fill="#fefce8" stroke="#a16207" stroke-width="1.5"/><g data-dediren-node-decorator="archimate_business_process" data-dediren-icon-kind="process" data-dediren-icon-size="22"><path data-dediren-icon-part="process-arrow" d="M 1408.0 26.3 L 1421.6 26.3 L 1421.6 21.0 L 1430.0 28.9 L 1421.6 36.8 L 1421.6 31.6 L 1408.0 31.6 Z" fill="#fefce8" stroke="#a16207" stroke-width="1.5"/></g><text x="1356.0" y="52.0" text-anchor="middle" dominant-baseline="middle" fill="#713f12" font-size="14.0">Cancel signup</text></g><g data-dediren-node-id="runs-ui-entry"><rect data-dediren-node-shape="archimate_rectangle" x="812.0" y="645.3" width="160.0" height="80.0" rx="0" fill="#e8f3ff" stroke="#2563eb" stroke-width="1.5"/><g data-dediren-node-decorator="archimate_application_component" data-dediren-icon-kind="component" data-dediren-icon-size="22"><rect x="948.0" y="654.3" width="18.0" height="15.8" rx="1.5" fill="#e8f3ff" stroke="#2563eb" stroke-width="1.5"/><rect x="944.0" y="657.0" width="7.9" height="5.7" rx="1.2" fill="#e8f3ff" stroke="#2563eb" stroke-width="1.5"/><rect x="944.0" y="664.0" width="7.9" height="5.7" rx="1.2" fill="#e8f3ff" stroke="#2563eb" stroke-width="1.5"/></g><text x="892.0" y="685.3" text-anchor="middle" dominant-baseline="middle" fill="#172554" font-size="14.0">Runs UI pages</text></g><g data-dediren-node-id="run-management-service"><rect data-dediren-node-shape="archimate_rounded_rectangle" x="812.0" y="40.6" width="160.0" height="80.0" rx="4.0" fill="#e8f3ff" stroke="#2563eb" stroke-width="1.5"/><g data-dediren-node-decorator="archimate_application_service" data-dediren-icon-kind="service" data-dediren-icon-size="22"><rect x="944.0" y="49.6" width="22.0" height="13.6" rx="4.0" fill="#e8f3ff" stroke="#2563eb" stroke-width="1.5"/></g><text x="892.0" y="72.5" text-anchor="middle" dominant-baseline="middle" fill="#172554" font-size="14.0"><tspan x="892.0" dy="0">Run management</tspan><tspan x="892.0" dy="16.0">service</tspan></text></g><g data-dediren-node-id="lfm-api"><rect data-dediren-node-shape="archimate_rectangle" x="412.0" y="40.6" width="160.0" height="80.0" rx="0" fill="#e8f3ff" stroke="#2563eb" stroke-width="1.5"/><g data-dediren-node-decorator="archimate_application_component" data-dediren-icon-kind="component" data-dediren-icon-size="22"><rect x="548.0" y="49.6" width="18.0" height="15.8" rx="1.5" fill="#e8f3ff" stroke="#2563eb" stroke-width="1.5"/><rect x="544.0" y="52.2" width="7.9" height="5.7" rx="1.2" fill="#e8f3ff" stroke="#2563eb" stroke-width="1.5"/><rect x="544.0" y="59.3" width="7.9" height="5.7" rx="1.2" fill="#e8f3ff" stroke="#2563eb" stroke-width="1.5"/></g><text x="492.0" y="80.6" text-anchor="middle" dominant-baseline="middle" fill="#172554" font-size="14.0">Lfm.Api</text></g><g data-dediren-node-id="function-app"><rect data-dediren-node-shape="archimate_rectangle" x="12.0" y="40.6" width="160.0" height="80.0" rx="0" fill="#ecfdf3" stroke="#16a34a" stroke-width="1.5"/><g data-dediren-node-decorator="archimate_technology_node" data-dediren-icon-kind="node" data-dediren-icon-size="22"><rect x="144.0" y="53.5" width="18.0" height="12.8" rx="1.5" fill="#ecfdf3" stroke="#16a34a" stroke-width="1.5"/><path data-dediren-icon-part="node-3d-edges" d="M 144.0 53.5 L 148.0 49.6 L 166.0 49.6 L 162.0 53.5 M 162.0 53.5 L 166.0 49.6 M 162.0 66.3 L 166.0 62.3 M 166.0 49.6 L 166.0 62.3" fill="none" stroke="#16a34a" stroke-width="1.5" stroke-linejoin="round"/></g><text x="92.0" y="72.5" text-anchor="middle" dominant-baseline="middle" fill="#14532d" font-size="14.0"><tspan x="92.0" dy="0">Azure Function</tspan><tspan x="92.0" dy="16.0">App</tspan></text></g><g data-dediren-node-id="cosmos-runs"><rect data-dediren-node-shape="archimate_rectangle" x="1276.0" y="212.0" width="160.0" height="80.0" rx="0" fill="#f7fee7" stroke="#65a30d" stroke-width="1.5"/><g data-dediren-node-decorator="archimate_artifact" data-dediren-icon-kind="artifact" data-dediren-icon-size="22"><path data-dediren-icon-part="artifact-document" d="M 1410.2 220.0 L 1420.8 220.0 L 1426.9 226.2 L 1426.9 239.8 L 1410.2 239.8 Z M 1420.8 220.0 L 1420.8 226.2 L 1426.9 226.2" fill="#f7fee7" stroke="#65a30d" stroke-width="1.5"/></g><text x="1356.0" y="252.0" text-anchor="middle" dominant-baseline="middle" fill="#365314" font-size="14.0">runs container</text></g><g data-dediren-node-id="cosmos-raiders"><rect data-dediren-node-shape="archimate_rectangle" x="1276.0" y="412.0" width="160.0" height="80.0" rx="0" fill="#f7fee7" stroke="#65a30d" stroke-width="1.5"/><g data-dediren-node-decorator="archimate_artifact" data-dediren-icon-kind="artifact" data-dediren-icon-size="22"><path data-dediren-icon-part="artifact-document" d="M 1410.2 420.0 L 1420.8 420.0 L 1426.9 426.2 L 1426.9 439.8 L 1410.2 439.8 Z M 1420.8 420.0 L 1420.8 426.2 L 1426.9 426.2" fill="#f7fee7" stroke="#65a30d" stroke-width="1.5"/></g><text x="1356.0" y="443.9" text-anchor="middle" dominant-baseline="middle" fill="#365314" font-size="14.0"><tspan x="1356.0" dy="0">raiders</tspan><tspan x="1356.0" dy="16.0">container</tspan></text></g></g></svg>

