<svg xmlns="http://www.w3.org/2000/svg" width="1264" height="944" viewBox="-12.0 -12.0 1264.0 944.2"><rect x="-12.0" y="-12.0" width="1264.0" height="944.2" fill="#ffffff"/><g font-family="Inter, Arial, sans-serif" font-size="14.0"><g data-dediren-group-id="run-signup-realization-ui-flow"><rect x="460.0" y="12.2" width="768.0" height="548.0" rx="4.0" fill="#f8fafc" stroke="#94a3b8" stroke-width="1.0"/><text x="468.0" y="28.2" fill="#374151" font-size="12.0">Run signup UI flow</text></g><g data-dediren-group-id="run-signup-realization-api-host"><rect x="12.0" y="12.0" width="208.0" height="768.0" rx="4.0" fill="#f8fafc" stroke="#94a3b8" stroke-width="1.0"/><text x="20.0" y="28.0" fill="#374151" font-size="12.0">API realization and host</text></g><g data-dediren-group-id="run-signup-realization-data"><rect x="460.0" y="680.2" width="208.0" height="228.0" rx="4.0" fill="#f8fafc" stroke="#94a3b8" stroke-width="1.0"/><text x="468.0" y="696.2" fill="#374151" font-size="12.0">Signup data dependencies</text></g><g data-dediren-edge-id="runs-ui-serves-browse"><defs><marker id="marker-end-runs-ui-serves-browse" data-dediren-edge-marker-end="open_arrow" markerWidth="9" markerHeight="9" refX="8" refY="4.5" orient="auto" markerUnits="strokeWidth"><path d="M 1 1 L 8 4.5 L 1 8" fill="none" stroke="#2563eb" stroke-width="1.3" stroke-linecap="round" stroke-linejoin="round"/></marker></defs><path d="M 604.0 216.2 L 604.0 268.2 L 844.0 268.2 L 844.0 456.2" fill="none" stroke="#2563eb" stroke-width="1.5" marker-end="url(#marker-end-runs-ui-serves-browse)"/><text x="724.0" y="285.0" text-anchor="middle" fill="#1e3a8a" stroke="#ffffff" stroke-width="4" stroke-linejoin="round" paint-order="stroke">UI</text></g><g data-dediren-edge-id="runs-ui-serves-inspect"><defs><marker id="marker-end-runs-ui-serves-inspect" data-dediren-edge-marker-end="open_arrow" markerWidth="9" markerHeight="9" refX="8" refY="4.5" orient="auto" markerUnits="strokeWidth"><path d="M 1 1 L 8 4.5 L 1 8" fill="none" stroke="#2563eb" stroke-width="1.3" stroke-linecap="round" stroke-linejoin="round"/></marker></defs><path d="M 644.0 216.2 L 644.0 248.2 L 1124.0 248.2 L 1124.0 456.2" fill="none" stroke="#2563eb" stroke-width="1.5" marker-end="url(#marker-end-runs-ui-serves-inspect)"/><text x="884.0" y="265.0" text-anchor="middle" fill="#1e3a8a" stroke="#ffffff" stroke-width="4" stroke-linejoin="round" paint-order="stroke">UI</text></g><g data-dediren-edge-id="runs-ui-serves-signup"><defs><marker id="marker-end-runs-ui-serves-signup" data-dediren-edge-marker-end="open_arrow" markerWidth="9" markerHeight="9" refX="8" refY="4.5" orient="auto" markerUnits="strokeWidth"><path d="M 1 1 L 8 4.5 L 1 8" fill="none" stroke="#2563eb" stroke-width="1.3" stroke-linecap="round" stroke-linejoin="round"/></marker></defs><path d="M 564.0 216.2 L 564.0 456.2" fill="none" stroke="#2563eb" stroke-width="1.5" marker-end="url(#marker-end-runs-ui-serves-signup)"/><text x="561.9" y="340.4" text-anchor="end" fill="#1e3a8a" stroke="#ffffff" stroke-width="4" stroke-linejoin="round" paint-order="stroke">UI</text></g><g data-dediren-edge-id="run-service-serves-browse"><defs><marker id="marker-end-run-service-serves-browse" data-dediren-edge-marker-end="open_arrow" markerWidth="9" markerHeight="9" refX="8" refY="4.5" orient="auto" markerUnits="strokeWidth"><path d="M 1 1 L 8 4.5 L 1 8" fill="none" stroke="#2563eb" stroke-width="1.3" stroke-linecap="round" stroke-linejoin="round"/></marker></defs><path d="M 196.0 701.6 L 480.0 701.6 L 480.0 520.2 L 764.0 520.2" fill="none" stroke="#2563eb" stroke-width="1.5" marker-end="url(#marker-end-run-service-serves-browse)"/><text x="403.7" y="693.2" text-anchor="middle" fill="#1e3a8a" stroke="#ffffff" stroke-width="4" stroke-linejoin="round" paint-order="stroke">realization</text></g><g data-dediren-edge-id="run-service-serves-inspect"><defs><marker id="marker-end-run-service-serves-inspect" data-dediren-edge-marker-end="open_arrow" markerWidth="9" markerHeight="9" refX="8" refY="4.5" orient="auto" markerUnits="strokeWidth"><path d="M 1 1 L 8 4.5 L 1 8" fill="none" stroke="#2563eb" stroke-width="1.3" stroke-linecap="round" stroke-linejoin="round"/></marker></defs><path d="M 196.0 711.2 L 620.0 711.2 L 620.0 520.2 L 620.0 520.2 Q 620.0 514.2 620.0 514.2 L 764.0 514.2 Q 770.0 514.2 764.0 520.2 L 1044.0 520.2" fill="none" stroke="#2563eb" stroke-width="1.5" marker-end="url(#marker-end-run-service-serves-inspect)"/><text x="408.0" y="720.8" text-anchor="middle" fill="#1e3a8a" stroke="#ffffff" stroke-width="4" stroke-linejoin="round" paint-order="stroke">realization</text></g><g data-dediren-edge-id="run-service-serves-signup"><defs><marker id="marker-end-run-service-serves-signup" data-dediren-edge-marker-end="open_arrow" markerWidth="9" markerHeight="9" refX="8" refY="4.5" orient="auto" markerUnits="strokeWidth"><path d="M 1 1 L 8 4.5 L 1 8" fill="none" stroke="#2563eb" stroke-width="1.3" stroke-linecap="round" stroke-linejoin="round"/></marker></defs><path d="M 196.0 720.8 L 340.0 720.8 L 340.0 717.2 Q 346.0 711.2 340.0 705.2 L 340.0 707.6 Q 346.0 701.6 340.0 695.6 L 340.0 496.2 L 484.0 496.2" fill="none" stroke="#2563eb" stroke-width="1.5" marker-end="url(#marker-end-run-service-serves-signup)"/><text x="268.0" y="766.4" text-anchor="middle" fill="#1e3a8a" stroke="#ffffff" stroke-width="4" stroke-linejoin="round" paint-order="stroke">realization</text></g><g data-dediren-edge-id="run-service-serves-cancel"><defs><marker id="marker-end-run-service-serves-cancel" data-dediren-edge-marker-end="open_arrow" markerWidth="9" markerHeight="9" refX="8" refY="4.5" orient="auto" markerUnits="strokeWidth"><path d="M 1 1 L 8 4.5 L 1 8" fill="none" stroke="#2563eb" stroke-width="1.3" stroke-linecap="round" stroke-linejoin="round"/></marker></defs><path d="M 196.0 692.0 L 340.0 692.0 L 340.0 692.0 Q 346.0 692.0 346.0 692.0 L 346.0 496.2 Q 346.0 490.2 340.0 496.2 L 340.0 76.2 L 484.0 76.2" fill="none" stroke="#2563eb" stroke-width="1.5" marker-end="url(#marker-end-run-service-serves-cancel)"/><text x="268.0" y="683.6" text-anchor="middle" fill="#1e3a8a" stroke="#ffffff" stroke-width="4" stroke-linejoin="round" paint-order="stroke">realization</text></g><g data-dediren-edge-id="api-realizes-run-service"><defs><marker id="marker-end-api-realizes-run-service" data-dediren-edge-marker-end="hollow_triangle" markerWidth="10" markerHeight="10" refX="9" refY="5" orient="auto" markerUnits="strokeWidth"><path d="M 1 1 L 9 5 L 1 9 z" fill="#ffffff" stroke="#475569" stroke-width="1.2"/></marker></defs><path d="M 116.0 436.0 L 116.0 676.0" fill="none" stroke="#475569" stroke-width="1.5" stroke-dasharray="8 5" marker-end="url(#marker-end-api-realizes-run-service)"/><text x="113.9" y="560.2" text-anchor="end" fill="#334155" stroke="#ffffff" stroke-width="4" stroke-linejoin="round" paint-order="stroke">realizes</text></g><g data-dediren-edge-id="function-app-hosts-api"><defs><marker id="marker-end-function-app-hosts-api" data-dediren-edge-marker-end="filled_circle" markerWidth="8" markerHeight="8" refX="1" refY="4" orient="auto" markerUnits="strokeWidth"><circle cx="4" cy="4" r="3" fill="#64748b" stroke="#64748b" stroke-width="1"/></marker></defs><path d="M 116.0 116.0 L 116.0 356.0" fill="none" stroke="#64748b" stroke-width="1.5" marker-end="url(#marker-end-function-app-hosts-api)"/><text x="113.9" y="240.2" text-anchor="end" fill="#334155" stroke="#ffffff" stroke-width="4" stroke-linejoin="round" paint-order="stroke">hosts</text></g><g data-dediren-edge-id="run-service-accesses-runs"><defs><marker id="marker-end-run-service-accesses-runs" data-dediren-edge-marker-end="open_arrow" markerWidth="9" markerHeight="9" refX="8" refY="4.5" orient="auto" markerUnits="strokeWidth"><path d="M 1 1 L 8 4.5 L 1 8" fill="none" stroke="#15803d" stroke-width="1.3" stroke-linecap="round" stroke-linejoin="round"/></marker></defs><path d="M 196.0 730.4 L 340.0 730.4 L 340.0 744.2 L 484.0 744.2" fill="none" stroke="#15803d" stroke-width="1.5" stroke-dasharray="8 5" marker-end="url(#marker-end-run-service-accesses-runs)"/><text x="338.1" y="747.2" text-anchor="middle" fill="#166534" stroke="#ffffff" stroke-width="4" stroke-linejoin="round" paint-order="stroke">reads/writes</text></g><g data-dediren-edge-id="run-service-accesses-raiders"><defs><marker id="marker-end-run-service-accesses-raiders" data-dediren-edge-marker-end="open_arrow" markerWidth="9" markerHeight="9" refX="8" refY="4.5" orient="auto" markerUnits="strokeWidth"><path d="M 1 1 L 8 4.5 L 1 8" fill="none" stroke="#15803d" stroke-width="1.3" stroke-linecap="round" stroke-linejoin="round"/></marker></defs><path d="M 196.0 740.0 L 340.0 740.0 L 340.0 844.2 L 484.0 844.2" fill="none" stroke="#15803d" stroke-width="1.5" stroke-dasharray="8 5" marker-end="url(#marker-end-run-service-accesses-raiders)"/><text x="268.0" y="738.8" text-anchor="middle" fill="#166534" stroke="#ffffff" stroke-width="4" stroke-linejoin="round" paint-order="stroke">signup options</text></g><g data-dediren-node-id="browse-open-runs"><rect data-dediren-node-shape="archimate_rounded_rectangle" x="764.0" y="456.2" width="160.0" height="80.0" rx="4.0" fill="#fefce8" stroke="#a16207" stroke-width="1.5"/><g data-dediren-node-decorator="archimate_business_process" data-dediren-icon-kind="process" data-dediren-icon-size="22"><path data-dediren-icon-part="process-arrow" d="M 896.0 470.5 L 909.6 470.5 L 909.6 465.2 L 918.0 473.1 L 909.6 481.1 L 909.6 475.8 L 896.0 475.8 Z" fill="#fefce8" stroke="#a16207" stroke-width="1.5"/></g><text x="844.0" y="496.2" text-anchor="middle" dominant-baseline="middle" fill="#713f12" font-size="14.0">Browse open runs</text></g><g data-dediren-node-id="inspect-run-detail"><rect data-dediren-node-shape="archimate_rounded_rectangle" x="1044.0" y="456.2" width="160.0" height="80.0" rx="4.0" fill="#fefce8" stroke="#a16207" stroke-width="1.5"/><g data-dediren-node-decorator="archimate_business_process" data-dediren-icon-kind="process" data-dediren-icon-size="22"><path data-dediren-icon-part="process-arrow" d="M 1176.0 470.5 L 1189.6 470.5 L 1189.6 465.2 L 1198.0 473.1 L 1189.6 481.1 L 1189.6 475.8 L 1176.0 475.8 Z" fill="#fefce8" stroke="#a16207" stroke-width="1.5"/></g><text x="1124.0" y="488.2" text-anchor="middle" dominant-baseline="middle" fill="#713f12" font-size="14.0"><tspan x="1124.0" dy="0">Inspect run</tspan><tspan x="1124.0" dy="16.0">detail</tspan></text></g><g data-dediren-node-id="sign-up-for-run"><rect data-dediren-node-shape="archimate_rounded_rectangle" x="484.0" y="456.2" width="160.0" height="80.0" rx="4.0" fill="#fefce8" stroke="#a16207" stroke-width="1.5"/><g data-dediren-node-decorator="archimate_business_process" data-dediren-icon-kind="process" data-dediren-icon-size="22"><path data-dediren-icon-part="process-arrow" d="M 616.0 470.5 L 629.6 470.5 L 629.6 465.2 L 638.0 473.1 L 629.6 481.1 L 629.6 475.8 L 616.0 475.8 Z" fill="#fefce8" stroke="#a16207" stroke-width="1.5"/></g><text x="564.0" y="496.2" text-anchor="middle" dominant-baseline="middle" fill="#713f12" font-size="14.0">Sign up for run</text></g><g data-dediren-node-id="cancel-signup"><rect data-dediren-node-shape="archimate_rounded_rectangle" x="484.0" y="36.2" width="160.0" height="80.0" rx="4.0" fill="#fefce8" stroke="#a16207" stroke-width="1.5"/><g data-dediren-node-decorator="archimate_business_process" data-dediren-icon-kind="process" data-dediren-icon-size="22"><path data-dediren-icon-part="process-arrow" d="M 616.0 50.5 L 629.6 50.5 L 629.6 45.2 L 638.0 53.1 L 629.6 61.1 L 629.6 55.8 L 616.0 55.8 Z" fill="#fefce8" stroke="#a16207" stroke-width="1.5"/></g><text x="564.0" y="76.2" text-anchor="middle" dominant-baseline="middle" fill="#713f12" font-size="14.0">Cancel signup</text></g><g data-dediren-node-id="runs-ui-entry"><rect data-dediren-node-shape="archimate_rectangle" x="524.0" y="136.2" width="160.0" height="80.0" rx="0" fill="#e8f3ff" stroke="#2563eb" stroke-width="1.5"/><g data-dediren-node-decorator="archimate_application_component" data-dediren-icon-kind="component" data-dediren-icon-size="22"><rect x="660.0" y="145.2" width="18.0" height="15.8" rx="1.5" fill="#e8f3ff" stroke="#2563eb" stroke-width="1.5"/><rect x="656.0" y="147.9" width="7.9" height="5.7" rx="1.2" fill="#e8f3ff" stroke="#2563eb" stroke-width="1.5"/><rect x="656.0" y="154.9" width="7.9" height="5.7" rx="1.2" fill="#e8f3ff" stroke="#2563eb" stroke-width="1.5"/></g><text x="604.0" y="176.2" text-anchor="middle" dominant-baseline="middle" fill="#172554" font-size="14.0">Runs UI pages</text></g><g data-dediren-node-id="run-management-service"><rect data-dediren-node-shape="archimate_rounded_rectangle" x="36.0" y="676.0" width="160.0" height="80.0" rx="4.0" fill="#e8f3ff" stroke="#2563eb" stroke-width="1.5"/><g data-dediren-node-decorator="archimate_application_service" data-dediren-icon-kind="service" data-dediren-icon-size="22"><rect x="168.0" y="685.0" width="22.0" height="13.6" rx="4.0" fill="#e8f3ff" stroke="#2563eb" stroke-width="1.5"/></g><text x="116.0" y="708.0" text-anchor="middle" dominant-baseline="middle" fill="#172554" font-size="14.0"><tspan x="116.0" dy="0">Run management</tspan><tspan x="116.0" dy="16.0">service</tspan></text></g><g data-dediren-node-id="lfm-api"><rect data-dediren-node-shape="archimate_rectangle" x="36.0" y="356.0" width="160.0" height="80.0" rx="0" fill="#e8f3ff" stroke="#2563eb" stroke-width="1.5"/><g data-dediren-node-decorator="archimate_application_component" data-dediren-icon-kind="component" data-dediren-icon-size="22"><rect x="172.0" y="365.0" width="18.0" height="15.8" rx="1.5" fill="#e8f3ff" stroke="#2563eb" stroke-width="1.5"/><rect x="168.0" y="367.6" width="7.9" height="5.7" rx="1.2" fill="#e8f3ff" stroke="#2563eb" stroke-width="1.5"/><rect x="168.0" y="374.7" width="7.9" height="5.7" rx="1.2" fill="#e8f3ff" stroke="#2563eb" stroke-width="1.5"/></g><text x="116.0" y="396.0" text-anchor="middle" dominant-baseline="middle" fill="#172554" font-size="14.0">Lfm.Api</text></g><g data-dediren-node-id="function-app"><rect data-dediren-node-shape="archimate_rectangle" x="36.0" y="36.0" width="160.0" height="80.0" rx="0" fill="#ecfdf3" stroke="#16a34a" stroke-width="1.5"/><g data-dediren-node-decorator="archimate_technology_node" data-dediren-icon-kind="node" data-dediren-icon-size="22"><rect x="168.0" y="49.0" width="18.0" height="12.8" rx="1.5" fill="#ecfdf3" stroke="#16a34a" stroke-width="1.5"/><path data-dediren-icon-part="node-3d-edges" d="M 168.0 49.0 L 172.0 45.0 L 190.0 45.0 L 186.0 49.0 M 186.0 49.0 L 190.0 45.0 M 186.0 61.7 L 190.0 57.8 M 190.0 45.0 L 190.0 57.8" fill="none" stroke="#16a34a" stroke-width="1.5" stroke-linejoin="round"/></g><text x="116.0" y="68.0" text-anchor="middle" dominant-baseline="middle" fill="#14532d" font-size="14.0"><tspan x="116.0" dy="0">Azure Function</tspan><tspan x="116.0" dy="16.0">App</tspan></text></g><g data-dediren-node-id="cosmos-runs"><rect data-dediren-node-shape="archimate_rectangle" x="484.0" y="704.2" width="160.0" height="80.0" rx="0" fill="#f7fee7" stroke="#65a30d" stroke-width="1.5"/><g data-dediren-node-decorator="archimate_artifact" data-dediren-icon-kind="artifact" data-dediren-icon-size="22"><path data-dediren-icon-part="artifact-document" d="M 618.2 712.2 L 628.8 712.2 L 634.9 718.4 L 634.9 732.0 L 618.2 732.0 Z M 628.8 712.2 L 628.8 718.4 L 634.9 718.4" fill="#f7fee7" stroke="#65a30d" stroke-width="1.5"/></g><text x="564.0" y="744.2" text-anchor="middle" dominant-baseline="middle" fill="#365314" font-size="14.0">runs container</text></g><g data-dediren-node-id="cosmos-raiders"><rect data-dediren-node-shape="archimate_rectangle" x="484.0" y="804.2" width="160.0" height="80.0" rx="0" fill="#f7fee7" stroke="#65a30d" stroke-width="1.5"/><g data-dediren-node-decorator="archimate_artifact" data-dediren-icon-kind="artifact" data-dediren-icon-size="22"><path data-dediren-icon-part="artifact-document" d="M 618.2 812.2 L 628.8 812.2 L 634.9 818.4 L 634.9 832.0 L 618.2 832.0 Z M 628.8 812.2 L 628.8 818.4 L 634.9 818.4" fill="#f7fee7" stroke="#65a30d" stroke-width="1.5"/></g><text x="564.0" y="836.2" text-anchor="middle" dominant-baseline="middle" fill="#365314" font-size="14.0"><tspan x="564.0" dy="0">raiders</tspan><tspan x="564.0" dy="16.0">container</tspan></text></g></g></svg>

