<svg xmlns="http://www.w3.org/2000/svg" width="1816" height="1106" viewBox="-12.0 -12.0 1816.0 1106.0"><rect x="-12.0" y="-12.0" width="1816.0" height="1106.0" fill="#ffffff"/><g font-family="Inter, Arial, sans-serif" font-size="14.0"><g data-dediren-group-id="run-signup-realization-ui-flow"><rect x="1176.0" y="340.0" width="604.0" height="730.0" rx="4.0" fill="#f8fafc" stroke="#94a3b8" stroke-width="1.0"/><text x="1184.0" y="356.0" fill="#374151" font-size="12.0">Run signup UI flow</text></g><g data-dediren-group-id="run-signup-realization-api-host"><rect x="12.0" y="486.0" width="956.0" height="576.0" rx="4.0" fill="#f8fafc" stroke="#94a3b8" stroke-width="1.0"/><text x="20.0" y="502.0" fill="#374151" font-size="12.0">API realization and host</text></g><g data-dediren-group-id="run-signup-realization-data"><rect x="1176.0" y="12.0" width="208.0" height="268.0" rx="4.0" fill="#f8fafc" stroke="#94a3b8" stroke-width="1.0"/><text x="1184.0" y="28.0" fill="#374151" font-size="12.0">Signup data dependencies</text></g><g data-dediren-edge-id="runs-ui-serves-browse"><defs><marker id="marker-end-runs-ui-serves-browse" data-dediren-edge-marker-end="open_arrow" markerWidth="9" markerHeight="9" refX="8" refY="4.5" orient="auto" markerUnits="strokeWidth"><path d="M 1 1 L 8 4.5 L 1 8" fill="none" stroke="#2563eb" stroke-width="1.3" stroke-linecap="round" stroke-linejoin="round"/></marker></defs><path d="M 1312.0 444.0 L 1312.0 476.0 L 1564.0 476.0 L 1564.0 508.0" fill="none" stroke="#2563eb" stroke-width="1.5" marker-end="url(#marker-end-runs-ui-serves-browse)"/><text x="1438.0" y="492.8" text-anchor="middle" fill="#1e3a8a" stroke="#ffffff" stroke-width="4" stroke-linejoin="round" paint-order="stroke">UI</text></g><g data-dediren-edge-id="runs-ui-serves-inspect"><defs><marker id="marker-end-runs-ui-serves-inspect" data-dediren-edge-marker-end="open_arrow" markerWidth="9" markerHeight="9" refX="8" refY="4.5" orient="auto" markerUnits="strokeWidth"><path d="M 1 1 L 8 4.5 L 1 8" fill="none" stroke="#2563eb" stroke-width="1.3" stroke-linecap="round" stroke-linejoin="round"/></marker></defs><path d="M 1280.0 444.0 L 1280.0 764.0 L 1564.0 764.0 L 1564.0 796.0" fill="none" stroke="#2563eb" stroke-width="1.5" marker-end="url(#marker-end-runs-ui-serves-inspect)"/><text x="1422.0" y="780.8" text-anchor="middle" fill="#1e3a8a" stroke="#ffffff" stroke-width="4" stroke-linejoin="round" paint-order="stroke">UI</text></g><g data-dediren-edge-id="runs-ui-serves-signup"><defs><marker id="marker-end-runs-ui-serves-signup" data-dediren-edge-marker-end="open_arrow" markerWidth="9" markerHeight="9" refX="8" refY="4.5" orient="auto" markerUnits="strokeWidth"><path d="M 1 1 L 8 4.5 L 1 8" fill="none" stroke="#2563eb" stroke-width="1.3" stroke-linecap="round" stroke-linejoin="round"/></marker></defs><path d="M 1248.0 444.0 L 1248.0 620.0 L 1274.0 620.0 Q 1280.0 614.0 1286.0 620.0 L 1564.0 620.0 L 1564.0 652.0" fill="none" stroke="#2563eb" stroke-width="1.5" marker-end="url(#marker-end-runs-ui-serves-signup)"/><text x="1406.0" y="636.8" text-anchor="middle" fill="#1e3a8a" stroke="#ffffff" stroke-width="4" stroke-linejoin="round" paint-order="stroke">UI</text></g><g data-dediren-edge-id="run-service-serves-browse"><defs><marker id="marker-end-run-service-serves-browse" data-dediren-edge-marker-end="open_arrow" markerWidth="9" markerHeight="9" refX="8" refY="4.5" orient="auto" markerUnits="strokeWidth"><path d="M 1 1 L 8 4.5 L 1 8" fill="none" stroke="#2563eb" stroke-width="1.3" stroke-linecap="round" stroke-linejoin="round"/></marker></defs><path d="M 680.0 878.6 L 648.0 878.6 L 648.0 1022.0 L 1020.0 1022.0 L 1020.0 1030.0 L 1756.0 1030.0 L 1756.0 548.0 L 1644.0 548.0" fill="none" stroke="#2563eb" stroke-width="1.5" marker-end="url(#marker-end-run-service-serves-browse)"/><text x="598.3" y="895.4" text-anchor="middle" fill="#1e3a8a" stroke="#ffffff" stroke-width="4" stroke-linejoin="round" paint-order="stroke">realization</text></g><g data-dediren-edge-id="run-service-serves-inspect"><defs><marker id="marker-end-run-service-serves-inspect" data-dediren-edge-marker-end="open_arrow" markerWidth="9" markerHeight="9" refX="8" refY="4.5" orient="auto" markerUnits="strokeWidth"><path d="M 1 1 L 8 4.5 L 1 8" fill="none" stroke="#2563eb" stroke-width="1.3" stroke-linecap="round" stroke-linejoin="round"/></marker></defs><path d="M 680.0 862.2 L 608.0 862.2 L 608.0 942.0 L 642.0 942.0 Q 648.0 936.0 654.0 942.0 L 1124.0 942.0 L 1124.0 948.0 L 1676.0 948.0 L 1676.0 836.0 L 1644.0 836.0" fill="none" stroke="#2563eb" stroke-width="1.5" marker-end="url(#marker-end-run-service-serves-inspect)"/><text x="578.3" y="843.0" text-anchor="middle" fill="#1e3a8a" stroke="#ffffff" stroke-width="4" stroke-linejoin="round" paint-order="stroke">realization</text></g><g data-dediren-edge-id="run-service-serves-signup"><defs><marker id="marker-end-run-service-serves-signup" data-dediren-edge-marker-end="open_arrow" markerWidth="9" markerHeight="9" refX="8" refY="4.5" orient="auto" markerUnits="strokeWidth"><path d="M 1 1 L 8 4.5 L 1 8" fill="none" stroke="#2563eb" stroke-width="1.3" stroke-linecap="round" stroke-linejoin="round"/></marker></defs><path d="M 680.0 845.8 L 648.0 845.8 L 1162.0 845.8 L 1162.0 692.0 L 1274.0 692.0 Q 1280.0 686.0 1286.0 692.0 L 1676.0 692.0 L 1644.0 692.0" fill="none" stroke="#2563eb" stroke-width="1.5" marker-end="url(#marker-end-run-service-serves-signup)"/><text x="598.3" y="873.4" text-anchor="middle" fill="#1e3a8a" stroke="#ffffff" stroke-width="4" stroke-linejoin="round" paint-order="stroke">realization</text></g><g data-dediren-edge-id="run-service-serves-cancel"><defs><marker id="marker-end-run-service-serves-cancel" data-dediren-edge-marker-end="open_arrow" markerWidth="9" markerHeight="9" refX="8" refY="4.5" orient="auto" markerUnits="strokeWidth"><path d="M 1 1 L 8 4.5 L 1 8" fill="none" stroke="#2563eb" stroke-width="1.3" stroke-linecap="round" stroke-linejoin="round"/></marker></defs><path d="M 680.0 829.4 L 648.0 829.4 L 1020.0 829.4 L 1020.0 836.0 L 1156.0 836.0 Q 1162.0 830.0 1168.0 836.0 L 1392.0 836.0 L 1360.0 836.0" fill="none" stroke="#2563eb" stroke-width="1.5" marker-end="url(#marker-end-run-service-serves-cancel)"/><text x="598.3" y="821.0" text-anchor="middle" fill="#1e3a8a" stroke="#ffffff" stroke-width="4" stroke-linejoin="round" paint-order="stroke">realization</text></g><g data-dediren-edge-id="api-realizes-run-service"><defs><marker id="marker-end-api-realizes-run-service" data-dediren-edge-marker-end="hollow_triangle" markerWidth="10" markerHeight="10" refX="9" refY="5" orient="auto" markerUnits="strokeWidth"><path d="M 1 1 L 9 5 L 1 9 z" fill="#ffffff" stroke="#475569" stroke-width="1.2"/></marker></defs><path d="M 396.0 734.0 L 396.0 766.0 L 760.0 766.0 L 760.0 798.0" fill="none" stroke="#475569" stroke-width="1.5" stroke-dasharray="8 5" marker-end="url(#marker-end-api-realizes-run-service)"/><text x="578.0" y="782.8" text-anchor="middle" fill="#334155" stroke="#ffffff" stroke-width="4" stroke-linejoin="round" paint-order="stroke">realizes</text></g><g data-dediren-edge-id="function-app-hosts-api"><defs><marker id="marker-end-function-app-hosts-api" data-dediren-edge-marker-end="open_arrow" markerWidth="9" markerHeight="9" refX="8" refY="4.5" orient="auto" markerUnits="strokeWidth"><path d="M 1 1 L 8 4.5 L 1 8" fill="none" stroke="#2563eb" stroke-width="1.3" stroke-linecap="round" stroke-linejoin="round"/></marker></defs><path d="M 116.0 590.0 L 116.0 622.0 L 396.0 622.0 L 396.0 654.0" fill="none" stroke="#2563eb" stroke-width="1.5" marker-end="url(#marker-end-function-app-hosts-api)"/><text x="256.0" y="638.8" text-anchor="middle" fill="#1e3a8a" stroke="#ffffff" stroke-width="4" stroke-linejoin="round" paint-order="stroke">hosts</text></g><g data-dediren-edge-id="run-service-accesses-runs"><defs><marker id="marker-end-run-service-accesses-runs" data-dediren-edge-marker-end="open_arrow" markerWidth="9" markerHeight="9" refX="8" refY="4.5" orient="auto" markerUnits="strokeWidth"><path d="M 1 1 L 8 4.5 L 1 8" fill="none" stroke="#15803d" stroke-width="1.3" stroke-linecap="round" stroke-linejoin="round"/></marker></defs><path d="M 840.0 840.3 L 912.0 840.3 L 912.0 835.4 Q 918.0 829.4 912.0 823.4 L 912.0 694.0 L 1060.0 694.0 L 1060.0 216.0 L 1200.0 216.0" fill="none" stroke="#15803d" stroke-width="1.5" stroke-dasharray="8 5" marker-end="url(#marker-end-run-service-accesses-runs)"/><text x="946.1" y="867.9" text-anchor="middle" fill="#166534" stroke="#ffffff" stroke-width="4" stroke-linejoin="round" paint-order="stroke">reads/writes</text></g><g data-dediren-edge-id="run-service-accesses-raiders"><defs><marker id="marker-end-run-service-accesses-raiders" data-dediren-edge-marker-end="open_arrow" markerWidth="9" markerHeight="9" refX="8" refY="4.5" orient="auto" markerUnits="strokeWidth"><path d="M 1 1 L 8 4.5 L 1 8" fill="none" stroke="#15803d" stroke-width="1.3" stroke-linecap="round" stroke-linejoin="round"/></marker></defs><path d="M 840.0 867.7 L 872.0 867.7 L 872.0 851.8 Q 878.0 845.8 872.0 839.8 L 872.0 846.3 Q 878.0 840.3 872.0 834.3 L 872.0 835.4 Q 878.0 829.4 872.0 823.4 L 872.0 662.0 L 1020.0 662.0 L 1020.0 76.0 L 1200.0 76.0" fill="none" stroke="#15803d" stroke-width="1.5" stroke-dasharray="8 5" marker-end="url(#marker-end-run-service-accesses-raiders)"/><text x="934.8" y="895.3" text-anchor="middle" fill="#166534" stroke="#ffffff" stroke-width="4" stroke-linejoin="round" paint-order="stroke">signup options</text></g><g data-dediren-node-id="browse-open-runs"><rect data-dediren-node-shape="archimate_rounded_rectangle" x="1484.0" y="508.0" width="160.0" height="80.0" rx="4.0" fill="#fefce8" stroke="#a16207" stroke-width="1.5"/><g data-dediren-node-decorator="archimate_business_process" data-dediren-icon-kind="process" data-dediren-icon-size="22"><path data-dediren-icon-part="process-arrow" d="M 1616.0 522.3 L 1629.6 522.3 L 1629.6 517.0 L 1638.0 524.9 L 1629.6 532.8 L 1629.6 527.6 L 1616.0 527.6 Z" fill="#fefce8" stroke="#a16207" stroke-width="1.5"/></g><text x="1564.0" y="548.0" text-anchor="middle" dominant-baseline="middle" fill="#713f12" font-size="14.0">Browse open runs</text></g><g data-dediren-node-id="inspect-run-detail"><rect data-dediren-node-shape="archimate_rounded_rectangle" x="1484.0" y="796.0" width="160.0" height="80.0" rx="4.0" fill="#fefce8" stroke="#a16207" stroke-width="1.5"/><g data-dediren-node-decorator="archimate_business_process" data-dediren-icon-kind="process" data-dediren-icon-size="22"><path data-dediren-icon-part="process-arrow" d="M 1616.0 810.3 L 1629.6 810.3 L 1629.6 805.0 L 1638.0 812.9 L 1629.6 820.8 L 1629.6 815.6 L 1616.0 815.6 Z" fill="#fefce8" stroke="#a16207" stroke-width="1.5"/></g><text x="1564.0" y="828.0" text-anchor="middle" dominant-baseline="middle" fill="#713f12" font-size="14.0"><tspan x="1564.0" dy="0">Inspect run</tspan><tspan x="1564.0" dy="16.0">detail</tspan></text></g><g data-dediren-node-id="sign-up-for-run"><rect data-dediren-node-shape="archimate_rounded_rectangle" x="1484.0" y="652.0" width="160.0" height="80.0" rx="4.0" fill="#fefce8" stroke="#a16207" stroke-width="1.5"/><g data-dediren-node-decorator="archimate_business_process" data-dediren-icon-kind="process" data-dediren-icon-size="22"><path data-dediren-icon-part="process-arrow" d="M 1616.0 666.3 L 1629.6 666.3 L 1629.6 661.0 L 1638.0 668.9 L 1629.6 676.8 L 1629.6 671.6 L 1616.0 671.6 Z" fill="#fefce8" stroke="#a16207" stroke-width="1.5"/></g><text x="1564.0" y="692.0" text-anchor="middle" dominant-baseline="middle" fill="#713f12" font-size="14.0">Sign up for run</text></g><g data-dediren-node-id="cancel-signup"><rect data-dediren-node-shape="archimate_rounded_rectangle" x="1200.0" y="796.0" width="160.0" height="80.0" rx="4.0" fill="#fefce8" stroke="#a16207" stroke-width="1.5"/><g data-dediren-node-decorator="archimate_business_process" data-dediren-icon-kind="process" data-dediren-icon-size="22"><path data-dediren-icon-part="process-arrow" d="M 1332.0 810.3 L 1345.6 810.3 L 1345.6 805.0 L 1354.0 812.9 L 1345.6 820.8 L 1345.6 815.6 L 1332.0 815.6 Z" fill="#fefce8" stroke="#a16207" stroke-width="1.5"/></g><text x="1280.0" y="836.0" text-anchor="middle" dominant-baseline="middle" fill="#713f12" font-size="14.0">Cancel signup</text></g><g data-dediren-node-id="runs-ui-entry"><rect data-dediren-node-shape="archimate_rectangle" x="1200.0" y="364.0" width="160.0" height="80.0" rx="0" fill="#e8f3ff" stroke="#2563eb" stroke-width="1.5"/><g data-dediren-node-decorator="archimate_application_component" data-dediren-icon-kind="component" data-dediren-icon-size="22"><rect x="1336.0" y="373.0" width="18.0" height="15.8" rx="1.5" fill="#e8f3ff" stroke="#2563eb" stroke-width="1.5"/><rect x="1332.0" y="375.6" width="7.9" height="5.7" rx="1.2" fill="#e8f3ff" stroke="#2563eb" stroke-width="1.5"/><rect x="1332.0" y="382.7" width="7.9" height="5.7" rx="1.2" fill="#e8f3ff" stroke="#2563eb" stroke-width="1.5"/></g><text x="1280.0" y="404.0" text-anchor="middle" dominant-baseline="middle" fill="#172554" font-size="14.0">Runs UI pages</text></g><g data-dediren-node-id="run-management-service"><rect data-dediren-node-shape="archimate_rounded_rectangle" x="680.0" y="798.0" width="160.0" height="112.0" rx="4.0" fill="#e8f3ff" stroke="#2563eb" stroke-width="1.5"/><g data-dediren-node-decorator="archimate_application_service" data-dediren-icon-kind="service" data-dediren-icon-size="22"><rect x="812.0" y="807.0" width="22.0" height="13.6" rx="4.0" fill="#e8f3ff" stroke="#2563eb" stroke-width="1.5"/></g><text x="760.0" y="846.0" text-anchor="middle" dominant-baseline="middle" fill="#172554" font-size="14.0"><tspan x="760.0" dy="0">Run management</tspan><tspan x="760.0" dy="16.0">service</tspan></text></g><g data-dediren-node-id="lfm-api"><rect data-dediren-node-shape="archimate_rectangle" x="316.0" y="654.0" width="160.0" height="80.0" rx="0" fill="#e8f3ff" stroke="#2563eb" stroke-width="1.5"/><g data-dediren-node-decorator="archimate_application_component" data-dediren-icon-kind="component" data-dediren-icon-size="22"><rect x="452.0" y="663.0" width="18.0" height="15.8" rx="1.5" fill="#e8f3ff" stroke="#2563eb" stroke-width="1.5"/><rect x="448.0" y="665.6" width="7.9" height="5.7" rx="1.2" fill="#e8f3ff" stroke="#2563eb" stroke-width="1.5"/><rect x="448.0" y="672.7" width="7.9" height="5.7" rx="1.2" fill="#e8f3ff" stroke="#2563eb" stroke-width="1.5"/></g><text x="396.0" y="694.0" text-anchor="middle" dominant-baseline="middle" fill="#172554" font-size="14.0">Lfm.Api</text></g><g data-dediren-node-id="function-app"><rect data-dediren-node-shape="archimate_rectangle" x="36.0" y="510.0" width="160.0" height="80.0" rx="0" fill="#ecfdf3" stroke="#16a34a" stroke-width="1.5"/><g data-dediren-node-decorator="archimate_technology_node" data-dediren-icon-kind="node" data-dediren-icon-size="22"><rect x="168.0" y="523.0" width="18.0" height="12.8" rx="1.5" fill="#ecfdf3" stroke="#16a34a" stroke-width="1.5"/><path data-dediren-icon-part="node-3d-edges" d="M 168.0 523.0 L 172.0 519.0 L 190.0 519.0 L 186.0 523.0 M 186.0 523.0 L 190.0 519.0 M 186.0 535.7 L 190.0 531.8 M 190.0 519.0 L 190.0 531.8" fill="none" stroke="#16a34a" stroke-width="1.5" stroke-linejoin="round"/></g><text x="116.0" y="542.0" text-anchor="middle" dominant-baseline="middle" fill="#14532d" font-size="14.0"><tspan x="116.0" dy="0">Azure Function</tspan><tspan x="116.0" dy="16.0">App</tspan></text></g><g data-dediren-node-id="cosmos-runs"><rect data-dediren-node-shape="archimate_rectangle" x="1200.0" y="176.0" width="160.0" height="80.0" rx="0" fill="#f7fee7" stroke="#65a30d" stroke-width="1.5"/><g data-dediren-node-decorator="archimate_artifact" data-dediren-icon-kind="artifact" data-dediren-icon-size="22"><path data-dediren-icon-part="artifact-document" d="M 1334.2 184.0 L 1344.8 184.0 L 1350.9 190.2 L 1350.9 203.8 L 1334.2 203.8 Z M 1344.8 184.0 L 1344.8 190.2 L 1350.9 190.2" fill="#f7fee7" stroke="#65a30d" stroke-width="1.5"/></g><text x="1280.0" y="216.0" text-anchor="middle" dominant-baseline="middle" fill="#365314" font-size="14.0">runs container</text></g><g data-dediren-node-id="cosmos-raiders"><rect data-dediren-node-shape="archimate_rectangle" x="1200.0" y="36.0" width="160.0" height="80.0" rx="0" fill="#f7fee7" stroke="#65a30d" stroke-width="1.5"/><g data-dediren-node-decorator="archimate_artifact" data-dediren-icon-kind="artifact" data-dediren-icon-size="22"><path data-dediren-icon-part="artifact-document" d="M 1334.2 44.0 L 1344.8 44.0 L 1350.9 50.2 L 1350.9 63.8 L 1334.2 63.8 Z M 1344.8 44.0 L 1344.8 50.2 L 1350.9 50.2" fill="#f7fee7" stroke="#65a30d" stroke-width="1.5"/></g><text x="1280.0" y="68.0" text-anchor="middle" dominant-baseline="middle" fill="#365314" font-size="14.0"><tspan x="1280.0" dy="0">raiders</tspan><tspan x="1280.0" dy="16.0">container</tspan></text></g></g></svg>

