<svg xmlns="http://www.w3.org/2000/svg" width="2785" height="1458" viewBox="30.5 64.0 2785.5 1458.0"><rect x="30.5" y="64.0" width="2785.5" height="1458.0" fill="#ffffff"/><g font-family="Inter, Arial, sans-serif" font-size="14.0"><g data-dediren-group-id="technology-usage-frontend-hosting"><rect x="98.0" y="1370.0" width="488.0" height="128.0" rx="4.0" fill="#f8fafc" stroke="#94a3b8" stroke-width="1.0"/><text x="106.0" y="1386.0" fill="#374151" font-size="12.0">Frontend hosting</text></g><g data-dediren-group-id="technology-usage-functions-hosting"><rect x="788.0" y="177.0" width="836.0" height="704.0" rx="4.0" fill="#f8fafc" stroke="#94a3b8" stroke-width="1.0"/><text x="796.0" y="193.0" fill="#374151" font-size="12.0">Functions hosting</text></g><g data-dediren-group-id="technology-usage-data-plane"><rect x="1872.0" y="88.0" width="920.0" height="1410.0" rx="4.0" fill="#f8fafc" stroke="#94a3b8" stroke-width="1.0"/><text x="1880.0" y="104.0" fill="#374151" font-size="12.0">Data plane and secrets</text></g><g data-dediren-group-id="technology-usage-observability"><rect x="64.0" y="813.0" width="556.0" height="497.0" rx="4.0" fill="#f8fafc" stroke="#94a3b8" stroke-width="1.0"/><text x="72.0" y="829.0" fill="#374151" font-size="12.0">Observability and alerting</text></g><g data-dediren-edge-id="swa-hosts-app"><defs><marker id="marker-end-swa-hosts-app" data-dediren-edge-marker-end="open_arrow" markerWidth="9" markerHeight="9" refX="8" refY="4.5" orient="auto" markerUnits="strokeWidth"><path d="M 1 1 L 8 4.5 L 1 8" fill="none" stroke="#2563eb" stroke-width="1.3" stroke-linecap="round" stroke-linejoin="round"/></marker></defs><path d="M 282.0 1434.0 L 402.0 1434.0" fill="none" stroke="#2563eb" stroke-width="1.5" marker-end="url(#marker-end-swa-hosts-app)"/><text x="342.0" y="1425.6" text-anchor="middle" fill="#1e3a8a" stroke="#ffffff" stroke-width="4" stroke-linejoin="round" paint-order="stroke">hosts</text></g><g data-dediren-edge-id="function-app-hosts-api"><defs><marker id="marker-end-function-app-hosts-api" data-dediren-edge-marker-end="open_arrow" markerWidth="9" markerHeight="9" refX="8" refY="4.5" orient="auto" markerUnits="strokeWidth"><path d="M 1 1 L 8 4.5 L 1 8" fill="none" stroke="#2563eb" stroke-width="1.3" stroke-linecap="round" stroke-linejoin="round"/></marker></defs><path d="M 1212.0 425.0 L 1212.0 457.0 L 1456.0 457.0 L 1456.0 489.0" fill="none" stroke="#2563eb" stroke-width="1.5" marker-end="url(#marker-end-function-app-hosts-api)"/><text x="1373.7" y="473.8" text-anchor="middle" fill="#1e3a8a" stroke="#ffffff" stroke-width="4" stroke-linejoin="round" paint-order="stroke">hosts</text></g><g data-dediren-edge-id="plan-serves-function-app"><defs><marker id="marker-end-plan-serves-function-app" data-dediren-edge-marker-end="open_arrow" markerWidth="9" markerHeight="9" refX="8" refY="4.5" orient="auto" markerUnits="strokeWidth"><path d="M 1 1 L 8 4.5 L 1 8" fill="none" stroke="#2563eb" stroke-width="1.3" stroke-linecap="round" stroke-linejoin="round"/></marker></defs><path d="M 892.0 281.0 L 892.0 313.0 L 1172.0 313.0 L 1172.0 345.0" fill="none" stroke="#2563eb" stroke-width="1.5" marker-end="url(#marker-end-plan-serves-function-app)"/><text x="1032.0" y="329.8" text-anchor="middle" fill="#1e3a8a" stroke="#ffffff" stroke-width="4" stroke-linejoin="round" paint-order="stroke">hosts plan</text></g><g data-dediren-edge-id="function-app-composes-runtime"><defs><marker id="marker-start-function-app-composes-runtime" data-dediren-edge-marker-start="filled_diamond" markerWidth="10" markerHeight="10" refX="1" refY="5" orient="auto" markerUnits="strokeWidth"><path d="M 1 5 L 5 1 L 9 5 L 5 9 z" fill="#475569" stroke="#475569" stroke-width="1.1"/></marker></defs><path d="M 1132.0 425.0 L 1132.0 745.0 L 1456.0 745.0 L 1456.0 777.0" fill="none" stroke="#475569" stroke-width="1.5" marker-start="url(#marker-start-function-app-composes-runtime)"/><text x="1294.0" y="761.8" text-anchor="middle" fill="#334155" stroke="#ffffff" stroke-width="4" stroke-linejoin="round" paint-order="stroke">runtime</text></g><g data-dediren-edge-id="function-app-has-managed-identity"><path d="M 1172.0 425.0 L 1172.0 601.0 L 1456.0 601.0 L 1456.0 633.0" fill="none" stroke="#64748b" stroke-width="1.5"/><text x="1366.7" y="617.8" text-anchor="middle" fill="#374151" stroke="#ffffff" stroke-width="4" stroke-linejoin="round" paint-order="stroke">identity</text></g><g data-dediren-edge-id="cosmos-serves-function-app"><defs><marker id="marker-end-cosmos-serves-function-app" data-dediren-edge-marker-end="open_arrow" markerWidth="9" markerHeight="9" refX="8" refY="4.5" orient="auto" markerUnits="strokeWidth"><path d="M 1 1 L 8 4.5 L 1 8" fill="none" stroke="#2563eb" stroke-width="1.3" stroke-linecap="round" stroke-linejoin="round"/></marker></defs><g data-dediren-line-jump-masks="cosmos-serves-function-app"><path d="M 1314.0 607.0 Q 1320.0 601.0 1314.0 595.0" fill="none" stroke="#ffffff" stroke-width="5.5" stroke-linecap="round" stroke-linejoin="round"/><path d="M 1314.0 463.0 Q 1320.0 457.0 1314.0 451.0" fill="none" stroke="#ffffff" stroke-width="5.5" stroke-linecap="round" stroke-linejoin="round"/></g><path d="M 2080.0 962.0 L 2080.0 729.0 L 1314.0 729.0 L 1314.0 607.0 Q 1320.0 601.0 1314.0 595.0 L 1314.0 463.0 Q 1320.0 457.0 1314.0 451.0 L 1314.0 385.0 L 1252.0 385.0" fill="none" stroke="#2563eb" stroke-width="1.5" marker-end="url(#marker-end-cosmos-serves-function-app)"/><text x="1697.0" y="720.6" text-anchor="middle" fill="#1e3a8a" stroke="#ffffff" stroke-width="4" stroke-linejoin="round" paint-order="stroke">data plane</text></g><g data-dediren-edge-id="storage-serves-function-app"><defs><marker id="marker-end-storage-serves-function-app" data-dediren-edge-marker-end="open_arrow" markerWidth="9" markerHeight="9" refX="8" refY="4.5" orient="auto" markerUnits="strokeWidth"><path d="M 1 1 L 8 4.5 L 1 8" fill="none" stroke="#2563eb" stroke-width="1.3" stroke-linecap="round" stroke-linejoin="round"/></marker></defs><path d="M 2000.0 227.7 L 1626.0 227.7 L 1626.0 385.0 L 1252.0 385.0" fill="none" stroke="#2563eb" stroke-width="1.5" marker-end="url(#marker-end-storage-serves-function-app)"/><text x="1813.0" y="244.5" text-anchor="middle" fill="#1e3a8a" stroke="#ffffff" stroke-width="4" stroke-linejoin="round" paint-order="stroke">blob data</text></g><g data-dediren-edge-id="key-vault-serves-function-app"><defs><marker id="marker-end-key-vault-serves-function-app" data-dediren-edge-marker-end="open_arrow" markerWidth="9" markerHeight="9" refX="8" refY="4.5" orient="auto" markerUnits="strokeWidth"><path d="M 1 1 L 8 4.5 L 1 8" fill="none" stroke="#2563eb" stroke-width="1.3" stroke-linecap="round" stroke-linejoin="round"/></marker></defs><path d="M 2080.0 633.0 L 2080.0 601.0 L 1666.0 601.0 L 1666.0 385.0 L 1252.0 385.0" fill="none" stroke="#2563eb" stroke-width="1.5" marker-end="url(#marker-end-key-vault-serves-function-app)"/><text x="1873.0" y="592.6" text-anchor="middle" fill="#1e3a8a" stroke="#ffffff" stroke-width="4" stroke-linejoin="round" paint-order="stroke">secrets</text></g><g data-dediren-edge-id="app-insights-serves-function-app"><defs><marker id="marker-end-app-insights-serves-function-app" data-dediren-edge-marker-end="open_arrow" markerWidth="9" markerHeight="9" refX="8" refY="4.5" orient="auto" markerUnits="strokeWidth"><path d="M 1 1 L 8 4.5 L 1 8" fill="none" stroke="#2563eb" stroke-width="1.3" stroke-linecap="round" stroke-linejoin="round"/></marker></defs><path d="M 436.0 1047.7 L 844.0 1047.7 L 844.0 385.0 L 1252.0 385.0" fill="none" stroke="#2563eb" stroke-width="1.5" marker-end="url(#marker-end-app-insights-serves-function-app)"/><text x="640.0" y="1039.3" text-anchor="middle" fill="#1e3a8a" stroke="#ffffff" stroke-width="4" stroke-linejoin="round" paint-order="stroke">telemetry</text></g><g data-dediren-edge-id="log-analytics-aggregates-app-insights"><defs><marker id="marker-start-log-analytics-aggregates-app-insights" data-dediren-edge-marker-start="hollow_diamond" markerWidth="10" markerHeight="10" refX="1" refY="5" orient="auto" markerUnits="strokeWidth"><path d="M 1 5 L 5 1 L 9 5 L 5 9 z" fill="#ffffff" stroke="#475569" stroke-width="1.1"/></marker></defs><path d="M 232.0 917.0 L 232.0 969.0 L 516.0 969.0 L 516.0 1021.0" fill="none" stroke="#475569" stroke-width="1.5" marker-start="url(#marker-start-log-analytics-aggregates-app-insights)"/><text x="374.0" y="967.8" text-anchor="middle" fill="#334155" stroke="#ffffff" stroke-width="4" stroke-linejoin="round" paint-order="stroke">workspace</text></g><g data-dediren-edge-id="log-analytics-aggregates-diagnostics"><defs><marker id="marker-start-log-analytics-aggregates-diagnostics" data-dediren-edge-marker-start="hollow_diamond" markerWidth="10" markerHeight="10" refX="1" refY="5" orient="auto" markerUnits="strokeWidth"><path d="M 1 5 L 5 1 L 9 5 L 5 9 z" fill="#ffffff" stroke="#475569" stroke-width="1.1"/></marker></defs><g data-dediren-line-jump-masks="log-analytics-aggregates-diagnostics"><path d="M 510.0 988.7 Q 516.0 982.7 522.0 988.7" fill="none" stroke="#ffffff" stroke-width="5.5" stroke-linecap="round" stroke-linejoin="round"/><path d="M 838.0 988.7 Q 844.0 982.7 850.0 988.7" fill="none" stroke="#ffffff" stroke-width="5.5" stroke-linecap="round" stroke-linejoin="round"/></g><path d="M 152.0 877.0 L 184.0 877.0 L 184.0 988.7 L 510.0 988.7 Q 516.0 982.7 522.0 988.7 L 838.0 988.7 Q 844.0 982.7 850.0 988.7 L 2160.0 988.7" fill="none" stroke="#475569" stroke-width="1.5" marker-start="url(#marker-start-log-analytics-aggregates-diagnostics)"/><text x="102.3" y="893.8" text-anchor="middle" fill="#334155" stroke="#ffffff" stroke-width="4" stroke-linejoin="round" paint-order="stroke">diagnostics</text></g><g data-dediren-edge-id="cosmos-composes-database"><path d="M 2080.0 1042.0 L 2080.0 1074.0 L 2404.0 1074.0 L 2404.0 1106.0" fill="none" stroke="#64748b" stroke-width="1.5"/><text x="2242.0" y="1090.8" text-anchor="middle" fill="#374151" stroke="#ffffff" stroke-width="4" stroke-linejoin="round" paint-order="stroke">database</text></g><g data-dediren-edge-id="database-composes-runs"><defs><marker id="marker-start-database-composes-runs" data-dediren-edge-marker-start="filled_diamond" markerWidth="10" markerHeight="10" refX="1" refY="5" orient="auto" markerUnits="strokeWidth"><path d="M 1 5 L 5 1 L 9 5 L 5 9 z" fill="#475569" stroke="#475569" stroke-width="1.1"/></marker></defs><path d="M 2404.0 1186.0 L 2688.0 1186.0 L 2688.0 1106.0" fill="none" stroke="#475569" stroke-width="1.5" marker-start="url(#marker-start-database-composes-runs)"/><text x="2546.0" y="1177.6" text-anchor="middle" fill="#334155" stroke="#ffffff" stroke-width="4" stroke-linejoin="round" paint-order="stroke">container</text></g><g data-dediren-edge-id="database-composes-raiders"><defs><marker id="marker-start-database-composes-raiders" data-dediren-edge-marker-start="filled_diamond" markerWidth="10" markerHeight="10" refX="1" refY="5" orient="auto" markerUnits="strokeWidth"><path d="M 1 5 L 5 1 L 9 5 L 5 9 z" fill="#475569" stroke="#475569" stroke-width="1.1"/></marker></defs><path d="M 2404.0 1186.0 L 2404.0 1362.0 L 2688.0 1362.0 L 2688.0 1394.0" fill="none" stroke="#475569" stroke-width="1.5" marker-start="url(#marker-start-database-composes-raiders)"/><text x="2546.0" y="1378.8" text-anchor="middle" fill="#334155" stroke="#ffffff" stroke-width="4" stroke-linejoin="round" paint-order="stroke">container</text></g><g data-dediren-edge-id="database-composes-guilds"><defs><marker id="marker-start-database-composes-guilds" data-dediren-edge-marker-start="filled_diamond" markerWidth="10" markerHeight="10" refX="1" refY="5" orient="auto" markerUnits="strokeWidth"><path d="M 1 5 L 5 1 L 9 5 L 5 9 z" fill="#475569" stroke="#475569" stroke-width="1.1"/></marker></defs><path d="M 2404.0 1186.0 L 2404.0 1112.0 Q 2410.0 1106.0 2410.0 1106.0 L 2410.0 1074.0 Q 2410.0 1074.0 2410.0 1074.0 L 2688.0 1074.0 L 2688.0 962.0" fill="none" stroke="#475569" stroke-width="1.5" marker-start="url(#marker-start-database-composes-guilds)"/><text x="2546.0" y="1065.6" text-anchor="middle" fill="#334155" stroke="#ffffff" stroke-width="4" stroke-linejoin="round" paint-order="stroke">container</text></g><g data-dediren-edge-id="database-composes-idempotency"><defs><marker id="marker-start-database-composes-idempotency" data-dediren-edge-marker-start="filled_diamond" markerWidth="10" markerHeight="10" refX="1" refY="5" orient="auto" markerUnits="strokeWidth"><path d="M 1 5 L 5 1 L 9 5 L 5 9 z" fill="#475569" stroke="#475569" stroke-width="1.1"/></marker></defs><path d="M 2404.0 1186.0 L 2404.0 1234.0 L 2688.0 1234.0 L 2688.0 1250.0" fill="none" stroke="#475569" stroke-width="1.5" marker-start="url(#marker-start-database-composes-idempotency)"/><text x="2546.0" y="1250.8" text-anchor="middle" fill="#334155" stroke="#ffffff" stroke-width="4" stroke-linejoin="round" paint-order="stroke">container</text></g><g data-dediren-edge-id="storage-composes-wow-reference"><path d="M 2080.0 281.0 L 2080.0 241.0 L 2404.0 241.0 L 2404.0 201.0" fill="none" stroke="#64748b" stroke-width="1.5"/><text x="2242.0" y="232.6" text-anchor="middle" fill="#374151" stroke="#ffffff" stroke-width="4" stroke-linejoin="round" paint-order="stroke">blob container</text></g><g data-dediren-edge-id="storage-composes-data-protection"><path d="M 2080.0 281.0 L 2080.0 313.0 L 2404.0 313.0 L 2404.0 345.0" fill="none" stroke="#64748b" stroke-width="1.5"/><text x="2242.0" y="329.8" text-anchor="middle" fill="#374151" stroke="#ffffff" stroke-width="4" stroke-linejoin="round" paint-order="stroke">blob container</text></g><g data-dediren-edge-id="storage-composes-deployments"><path d="M 2080.0 281.0 L 2080.0 457.0 L 2404.0 457.0 L 2404.0 489.0" fill="none" stroke="#64748b" stroke-width="1.5"/><text x="2242.0" y="473.8" text-anchor="middle" fill="#374151" stroke="#ffffff" stroke-width="4" stroke-linejoin="round" paint-order="stroke">blob container</text></g><g data-dediren-edge-id="key-vault-composes-data-protection-key"><path d="M 2080.0 713.0 L 2080.0 723.0 Q 2086.0 729.0 2086.0 729.0 L 2086.0 745.0 Q 2086.0 745.0 2086.0 745.0 L 2404.0 745.0 L 2404.0 777.0" fill="none" stroke="#64748b" stroke-width="1.5"/><text x="2242.0" y="761.8" text-anchor="middle" fill="#374151" stroke="#ffffff" stroke-width="4" stroke-linejoin="round" paint-order="stroke">key</text></g><g data-dediren-edge-id="managed-identity-accesses-key-vault"><path d="M 1536.0 659.7 L 1773.3 659.7 L 1773.3 673.0 L 2000.0 673.0" fill="none" stroke="#64748b" stroke-width="1.5"/><text x="1886.7" y="689.8" text-anchor="middle" fill="#374151" stroke="#ffffff" stroke-width="4" stroke-linejoin="round" paint-order="stroke">Secrets User</text></g><g data-dediren-edge-id="managed-identity-accesses-cosmos"><g data-dediren-line-jump-masks="managed-identity-accesses-cosmos"><path d="M 1757.3 723.0 Q 1763.3 729.0 1757.3 735.0" fill="none" stroke="#ffffff" stroke-width="5.5" stroke-linecap="round" stroke-linejoin="round"/><path d="M 1757.3 982.7 Q 1763.3 988.7 1757.3 994.7" fill="none" stroke="#ffffff" stroke-width="5.5" stroke-linecap="round" stroke-linejoin="round"/></g><path d="M 1536.0 659.7 L 1757.3 659.7 L 1757.3 723.0 Q 1763.3 729.0 1757.3 735.0 L 1757.3 982.7 Q 1763.3 988.7 1757.3 994.7 L 1757.3 1002.0 L 2000.0 1002.0" fill="none" stroke="#64748b" stroke-width="1.5"/><text x="1878.7" y="1036.8" text-anchor="middle" fill="#374151" stroke="#ffffff" stroke-width="4" stroke-linejoin="round" paint-order="stroke">Data Contributor</text></g><g data-dediren-edge-id="managed-identity-accesses-storage"><g data-dediren-line-jump-masks="managed-identity-accesses-storage"><path d="M 1768.0 607.0 Q 1774.0 601.0 1768.0 595.0" fill="none" stroke="#ffffff" stroke-width="5.5" stroke-linecap="round" stroke-linejoin="round"/></g><path d="M 1536.0 659.7 L 1768.0 659.7 L 1768.0 607.0 Q 1774.0 601.0 1768.0 595.0 L 1768.0 254.3 L 2000.0 254.3" fill="none" stroke="#64748b" stroke-width="1.5"/><text x="1884.0" y="263.9" text-anchor="middle" fill="#374151" stroke="#ffffff" stroke-width="4" stroke-linejoin="round" paint-order="stroke">Blob/Queue/Table roles</text></g><g data-dediren-edge-id="managed-identity-accesses-app-insights"><g data-dediren-line-jump-masks="managed-identity-accesses-app-insights"><path d="M 1320.0 659.7 Q 1314.0 653.7 1308.0 659.7" fill="none" stroke="#ffffff" stroke-width="5.5" stroke-linecap="round" stroke-linejoin="round"/><path d="M 1138.0 659.7 Q 1132.0 653.7 1126.0 659.7" fill="none" stroke="#ffffff" stroke-width="5.5" stroke-linecap="round" stroke-linejoin="round"/><path d="M 986.0 982.7 Q 992.0 988.7 986.0 994.7" fill="none" stroke="#ffffff" stroke-width="5.5" stroke-linecap="round" stroke-linejoin="round"/></g><path d="M 1536.0 659.7 L 1320.0 659.7 Q 1314.0 653.7 1308.0 659.7 L 1138.0 659.7 Q 1132.0 653.7 1126.0 659.7 L 986.0 659.7 L 986.0 982.7 Q 992.0 988.7 986.0 994.7 L 986.0 1074.3 L 436.0 1074.3" fill="none" stroke="#64748b" stroke-width="1.5"/><text x="711.0" y="1091.1" text-anchor="middle" fill="#374151" stroke="#ffffff" stroke-width="4" stroke-linejoin="round" paint-order="stroke">Metrics Publisher</text></g><g data-dediren-edge-id="managed-identity-accesses-data-protection-key"><defs><marker id="marker-end-managed-identity-accesses-data-protection-key" data-dediren-edge-marker-end="open_arrow" markerWidth="9" markerHeight="9" refX="8" refY="4.5" orient="auto" markerUnits="strokeWidth"><path d="M 1 1 L 8 4.5 L 1 8" fill="none" stroke="#15803d" stroke-width="1.3" stroke-linecap="round" stroke-linejoin="round"/></marker></defs><g data-dediren-line-jump-masks="managed-identity-accesses-data-protection-key"><path d="M 1751.3 686.3 Q 1757.3 680.3 1763.3 686.3" fill="none" stroke="#ffffff" stroke-width="5.5" stroke-linecap="round" stroke-linejoin="round"/><path d="M 1773.3 723.0 Q 1779.3 729.0 1773.3 735.0" fill="none" stroke="#ffffff" stroke-width="5.5" stroke-linecap="round" stroke-linejoin="round"/><path d="M 2074.0 817.0 Q 2080.0 811.0 2086.0 817.0" fill="none" stroke="#ffffff" stroke-width="5.5" stroke-linecap="round" stroke-linejoin="round"/></g><path d="M 1536.0 686.3 L 1751.3 686.3 Q 1757.3 680.3 1763.3 686.3 L 1773.3 686.3 L 1773.3 723.0 Q 1779.3 729.0 1773.3 735.0 L 1773.3 817.0 L 2074.0 817.0 Q 2080.0 811.0 2086.0 817.0 L 2324.0 817.0" fill="none" stroke="#15803d" stroke-width="1.5" stroke-dasharray="8 5" marker-end="url(#marker-end-managed-identity-accesses-data-protection-key)"/><text x="1588.9" y="703.1" text-anchor="middle" fill="#166534" stroke="#ffffff" stroke-width="4" stroke-linejoin="round" paint-order="stroke">Crypto User</text></g><g data-dediren-edge-id="cosmos-throttle-alert-monitors-cosmos"><path d="M 436.0 1246.0 L 1298.0 1246.0 L 1298.0 1015.3 L 2160.0 1015.3" fill="none" stroke="#64748b" stroke-width="1.5"/><text x="867.0" y="1237.6" text-anchor="middle" fill="#374151" stroke="#ffffff" stroke-width="4" stroke-linejoin="round" paint-order="stroke">monitors 429s</text></g><g data-dediren-node-id="static-web-apps"><rect data-dediren-node-shape="archimate_rectangle" x="122.0" y="1394.0" width="160.0" height="80.0" rx="0" fill="#ecfdf3" stroke="#16a34a" stroke-width="1.5"/><g data-dediren-node-decorator="archimate_technology_node" data-dediren-icon-kind="node" data-dediren-icon-size="22"><rect x="254.0" y="1407.0" width="18.0" height="12.8" rx="1.5" fill="#ecfdf3" stroke="#16a34a" stroke-width="1.5"/><path data-dediren-icon-part="node-3d-edges" d="M 254.0 1407.0 L 258.0 1403.0 L 276.0 1403.0 L 272.0 1407.0 M 272.0 1407.0 L 276.0 1403.0 M 272.0 1419.7 L 276.0 1415.8 M 276.0 1403.0 L 276.0 1415.8" fill="none" stroke="#16a34a" stroke-width="1.5" stroke-linejoin="round"/></g><text x="202.0" y="1426.0" text-anchor="middle" dominant-baseline="middle" fill="#14532d" font-size="14.0"><tspan x="202.0" dy="0">Azure Static Web</tspan><tspan x="202.0" dy="16.0">Apps</tspan></text></g><g data-dediren-node-id="function-app"><rect data-dediren-node-shape="archimate_rectangle" x="1092.0" y="345.0" width="160.0" height="80.0" rx="0" fill="#ecfdf3" stroke="#16a34a" stroke-width="1.5"/><g data-dediren-node-decorator="archimate_technology_node" data-dediren-icon-kind="node" data-dediren-icon-size="22"><rect x="1224.0" y="358.0" width="18.0" height="12.8" rx="1.5" fill="#ecfdf3" stroke="#16a34a" stroke-width="1.5"/><path data-dediren-icon-part="node-3d-edges" d="M 1224.0 358.0 L 1228.0 354.0 L 1246.0 354.0 L 1242.0 358.0 M 1242.0 358.0 L 1246.0 354.0 M 1242.0 370.7 L 1246.0 366.8 M 1246.0 354.0 L 1246.0 366.8" fill="none" stroke="#16a34a" stroke-width="1.5" stroke-linejoin="round"/></g><text x="1172.0" y="376.9" text-anchor="middle" dominant-baseline="middle" fill="#14532d" font-size="14.0"><tspan x="1172.0" dy="0">Azure Function</tspan><tspan x="1172.0" dy="16.0">App</tspan></text></g><g data-dediren-node-id="app-service-plan"><rect data-dediren-node-shape="archimate_rectangle" x="812.0" y="201.0" width="160.0" height="80.0" rx="0" fill="#ecfdf3" stroke="#16a34a" stroke-width="1.5"/><g data-dediren-node-decorator="archimate_technology_node" data-dediren-icon-kind="node" data-dediren-icon-size="22"><rect x="944.0" y="214.0" width="18.0" height="12.8" rx="1.5" fill="#ecfdf3" stroke="#16a34a" stroke-width="1.5"/><path data-dediren-icon-part="node-3d-edges" d="M 944.0 214.0 L 948.0 210.0 L 966.0 210.0 L 962.0 214.0 M 962.0 214.0 L 966.0 210.0 M 962.0 226.7 L 966.0 222.8 M 966.0 210.0 L 966.0 222.8" fill="none" stroke="#16a34a" stroke-width="1.5" stroke-linejoin="round"/></g><text x="892.0" y="232.9" text-anchor="middle" dominant-baseline="middle" fill="#14532d" font-size="14.0"><tspan x="892.0" dy="0">App Service Plan</tspan><tspan x="892.0" dy="16.0">(Y1)</tspan></text></g><g data-dediren-node-id="functions-runtime"><rect data-dediren-node-shape="archimate_rectangle" x="1376.0" y="777.0" width="160.0" height="80.0" rx="0" fill="#ecfdf3" stroke="#16a34a" stroke-width="1.5"/><g data-dediren-node-decorator="archimate_system_software" data-dediren-icon-kind="system_software" data-dediren-icon-size="22"><ellipse data-dediren-icon-part="system-software-disks" cx="1520.8" cy="793.9" rx="5.7" ry="5.7" fill="none" stroke="#16a34a" stroke-width="1.5"/><ellipse data-dediren-icon-part="system-software-disks" cx="1516.4" cy="797.0" rx="5.7" ry="5.7" fill="#ecfdf3" stroke="#16a34a" stroke-width="1.5"/></g><text x="1456.0" y="809.0" text-anchor="middle" dominant-baseline="middle" fill="#14532d" font-size="14.0"><tspan x="1456.0" dy="0">Azure Functions</tspan><tspan x="1456.0" dy="16.0">runtime</tspan></text></g><g data-dediren-node-id="managed-identity"><rect data-dediren-node-shape="archimate_rounded_rectangle" x="1376.0" y="633.0" width="160.0" height="80.0" rx="4.0" fill="#ecfdf3" stroke="#16a34a" stroke-width="1.5"/><g data-dediren-node-decorator="archimate_technology_service" data-dediren-icon-kind="service" data-dediren-icon-size="22"><rect x="1508.0" y="644.6" width="22.0" height="11.0" rx="4.0" fill="#ecfdf3" stroke="#16a34a" stroke-width="1.5"/></g><text x="1456.0" y="665.0" text-anchor="middle" dominant-baseline="middle" fill="#14532d" font-size="14.0"><tspan x="1456.0" dy="0">Function App</tspan><tspan x="1456.0" dy="16.0">managed identity</tspan></text></g><g data-dediren-node-id="cosmos-account"><rect data-dediren-node-shape="archimate_rectangle" x="2000.0" y="962.0" width="160.0" height="80.0" rx="0" fill="#ecfdf3" stroke="#16a34a" stroke-width="1.5"/><g data-dediren-node-decorator="archimate_technology_node" data-dediren-icon-kind="node" data-dediren-icon-size="22"><rect x="2132.0" y="975.0" width="18.0" height="12.8" rx="1.5" fill="#ecfdf3" stroke="#16a34a" stroke-width="1.5"/><path data-dediren-icon-part="node-3d-edges" d="M 2132.0 975.0 L 2136.0 971.0 L 2154.0 971.0 L 2150.0 975.0 M 2150.0 975.0 L 2154.0 971.0 M 2150.0 987.7 L 2154.0 983.8 M 2154.0 971.0 L 2154.0 983.8" fill="none" stroke="#16a34a" stroke-width="1.5" stroke-linejoin="round"/></g><text x="2080.0" y="994.0" text-anchor="middle" dominant-baseline="middle" fill="#14532d" font-size="14.0"><tspan x="2080.0" dy="0">Cosmos DB</tspan><tspan x="2080.0" dy="16.0">account</tspan></text></g><g data-dediren-node-id="cosmos-database"><rect data-dediren-node-shape="archimate_rectangle" x="2324.0" y="1106.0" width="160.0" height="80.0" rx="0" fill="#f7fee7" stroke="#65a30d" stroke-width="1.5"/><g data-dediren-node-decorator="archimate_artifact" data-dediren-icon-kind="artifact" data-dediren-icon-size="22"><path data-dediren-icon-part="artifact-document" d="M 2458.2 1114.0 L 2468.8 1114.0 L 2474.9 1120.2 L 2474.9 1133.8 L 2458.2 1133.8 Z M 2468.8 1114.0 L 2468.8 1120.2 L 2474.9 1120.2" fill="#f7fee7" stroke="#65a30d" stroke-width="1.5"/></g><text x="2404.0" y="1138.0" text-anchor="middle" dominant-baseline="middle" fill="#365314" font-size="14.0"><tspan x="2404.0" dy="0">Cosmos SQL</tspan><tspan x="2404.0" dy="16.0">database</tspan></text></g><g data-dediren-node-id="cosmos-runs"><rect data-dediren-node-shape="archimate_rectangle" x="2608.0" y="1106.0" width="160.0" height="80.0" rx="0" fill="#f7fee7" stroke="#65a30d" stroke-width="1.5"/><g data-dediren-node-decorator="archimate_artifact" data-dediren-icon-kind="artifact" data-dediren-icon-size="22"><path data-dediren-icon-part="artifact-document" d="M 2742.2 1114.0 L 2752.8 1114.0 L 2758.9 1120.2 L 2758.9 1133.8 L 2742.2 1133.8 Z M 2752.8 1114.0 L 2752.8 1120.2 L 2758.9 1120.2" fill="#f7fee7" stroke="#65a30d" stroke-width="1.5"/></g><text x="2688.0" y="1146.0" text-anchor="middle" dominant-baseline="middle" fill="#365314" font-size="14.0">runs container</text></g><g data-dediren-node-id="cosmos-raiders"><rect data-dediren-node-shape="archimate_rectangle" x="2608.0" y="1394.0" width="160.0" height="80.0" rx="0" fill="#f7fee7" stroke="#65a30d" stroke-width="1.5"/><g data-dediren-node-decorator="archimate_artifact" data-dediren-icon-kind="artifact" data-dediren-icon-size="22"><path data-dediren-icon-part="artifact-document" d="M 2742.2 1402.0 L 2752.8 1402.0 L 2758.9 1408.2 L 2758.9 1421.8 L 2742.2 1421.8 Z M 2752.8 1402.0 L 2752.8 1408.2 L 2758.9 1408.2" fill="#f7fee7" stroke="#65a30d" stroke-width="1.5"/></g><text x="2688.0" y="1426.0" text-anchor="middle" dominant-baseline="middle" fill="#365314" font-size="14.0"><tspan x="2688.0" dy="0">raiders</tspan><tspan x="2688.0" dy="16.0">container</tspan></text></g><g data-dediren-node-id="cosmos-guilds"><rect data-dediren-node-shape="archimate_rectangle" x="2608.0" y="962.0" width="160.0" height="80.0" rx="0" fill="#f7fee7" stroke="#65a30d" stroke-width="1.5"/><g data-dediren-node-decorator="archimate_artifact" data-dediren-icon-kind="artifact" data-dediren-icon-size="22"><path data-dediren-icon-part="artifact-document" d="M 2742.2 970.0 L 2752.8 970.0 L 2758.9 976.2 L 2758.9 989.8 L 2742.2 989.8 Z M 2752.8 970.0 L 2752.8 976.2 L 2758.9 976.2" fill="#f7fee7" stroke="#65a30d" stroke-width="1.5"/></g><text x="2688.0" y="1002.0" text-anchor="middle" dominant-baseline="middle" fill="#365314" font-size="14.0">guilds container</text></g><g data-dediren-node-id="cosmos-idempotency"><rect data-dediren-node-shape="archimate_rectangle" x="2608.0" y="1250.0" width="160.0" height="80.0" rx="0" fill="#f7fee7" stroke="#65a30d" stroke-width="1.5"/><g data-dediren-node-decorator="archimate_artifact" data-dediren-icon-kind="artifact" data-dediren-icon-size="22"><path data-dediren-icon-part="artifact-document" d="M 2742.2 1258.0 L 2752.8 1258.0 L 2758.9 1264.2 L 2758.9 1277.8 L 2742.2 1277.8 Z M 2752.8 1258.0 L 2752.8 1264.2 L 2758.9 1264.2" fill="#f7fee7" stroke="#65a30d" stroke-width="1.5"/></g><text x="2688.0" y="1282.0" text-anchor="middle" dominant-baseline="middle" fill="#365314" font-size="14.0"><tspan x="2688.0" dy="0">idempotency</tspan><tspan x="2688.0" dy="16.0">container</tspan></text></g><g data-dediren-node-id="storage-account"><rect data-dediren-node-shape="archimate_rectangle" x="2000.0" y="201.0" width="160.0" height="80.0" rx="0" fill="#ecfdf3" stroke="#16a34a" stroke-width="1.5"/><g data-dediren-node-decorator="archimate_technology_node" data-dediren-icon-kind="node" data-dediren-icon-size="22"><rect x="2132.0" y="214.0" width="18.0" height="12.8" rx="1.5" fill="#ecfdf3" stroke="#16a34a" stroke-width="1.5"/><path data-dediren-icon-part="node-3d-edges" d="M 2132.0 214.0 L 2136.0 210.0 L 2154.0 210.0 L 2150.0 214.0 M 2150.0 214.0 L 2154.0 210.0 M 2150.0 226.7 L 2154.0 222.8 M 2154.0 210.0 L 2154.0 222.8" fill="none" stroke="#16a34a" stroke-width="1.5" stroke-linejoin="round"/></g><text x="2080.0" y="241.0" text-anchor="middle" dominant-baseline="middle" fill="#14532d" font-size="14.0">Storage account</text></g><g data-dediren-node-id="wow-reference-container"><rect data-dediren-node-shape="archimate_rectangle" x="2324.0" y="201.0" width="160.0" height="80.0" rx="0" fill="#f7fee7" stroke="#65a30d" stroke-width="1.5"/><g data-dediren-node-decorator="archimate_artifact" data-dediren-icon-kind="artifact" data-dediren-icon-size="22"><path data-dediren-icon-part="artifact-document" d="M 2458.2 209.0 L 2468.8 209.0 L 2474.9 215.2 L 2474.9 228.8 L 2458.2 228.8 Z M 2468.8 209.0 L 2468.8 215.2 L 2474.9 215.2" fill="#f7fee7" stroke="#65a30d" stroke-width="1.5"/></g><text x="2404.0" y="232.9" text-anchor="middle" dominant-baseline="middle" fill="#365314" font-size="14.0"><tspan x="2404.0" dy="0">wow reference</tspan><tspan x="2404.0" dy="16.0">blobs</tspan></text></g><g data-dediren-node-id="data-protection-container"><rect data-dediren-node-shape="archimate_rectangle" x="2324.0" y="345.0" width="160.0" height="80.0" rx="0" fill="#f7fee7" stroke="#65a30d" stroke-width="1.5"/><g data-dediren-node-decorator="archimate_artifact" data-dediren-icon-kind="artifact" data-dediren-icon-size="22"><path data-dediren-icon-part="artifact-document" d="M 2458.2 353.0 L 2468.8 353.0 L 2474.9 359.2 L 2474.9 372.8 L 2458.2 372.8 Z M 2468.8 353.0 L 2468.8 359.2 L 2474.9 359.2" fill="#f7fee7" stroke="#65a30d" stroke-width="1.5"/></g><text x="2404.0" y="376.9" text-anchor="middle" dominant-baseline="middle" fill="#365314" font-size="14.0"><tspan x="2404.0" dy="0">data-protection</tspan><tspan x="2404.0" dy="16.0">key ring blob</tspan></text></g><g data-dediren-node-id="deployment-container"><rect data-dediren-node-shape="archimate_rectangle" x="2324.0" y="489.0" width="160.0" height="80.0" rx="0" fill="#f7fee7" stroke="#65a30d" stroke-width="1.5"/><g data-dediren-node-decorator="archimate_artifact" data-dediren-icon-kind="artifact" data-dediren-icon-size="22"><path data-dediren-icon-part="artifact-document" d="M 2458.2 497.0 L 2468.8 497.0 L 2474.9 503.2 L 2474.9 516.8 L 2458.2 516.8 Z M 2468.8 497.0 L 2468.8 503.2 L 2474.9 503.2" fill="#f7fee7" stroke="#65a30d" stroke-width="1.5"/></g><text x="2404.0" y="521.0" text-anchor="middle" dominant-baseline="middle" fill="#365314" font-size="14.0"><tspan x="2404.0" dy="0">deployments blob</tspan><tspan x="2404.0" dy="16.0">container</tspan></text></g><g data-dediren-node-id="key-vault"><rect data-dediren-node-shape="archimate_rectangle" x="2000.0" y="633.0" width="160.0" height="80.0" rx="0" fill="#ecfdf3" stroke="#16a34a" stroke-width="1.5"/><g data-dediren-node-decorator="archimate_technology_node" data-dediren-icon-kind="node" data-dediren-icon-size="22"><rect x="2132.0" y="646.0" width="18.0" height="12.8" rx="1.5" fill="#ecfdf3" stroke="#16a34a" stroke-width="1.5"/><path data-dediren-icon-part="node-3d-edges" d="M 2132.0 646.0 L 2136.0 642.0 L 2154.0 642.0 L 2150.0 646.0 M 2150.0 646.0 L 2154.0 642.0 M 2150.0 658.7 L 2154.0 654.8 M 2154.0 642.0 L 2154.0 654.8" fill="none" stroke="#16a34a" stroke-width="1.5" stroke-linejoin="round"/></g><text x="2080.0" y="673.0" text-anchor="middle" dominant-baseline="middle" fill="#14532d" font-size="14.0">Key Vault</text></g><g data-dediren-node-id="data-protection-key"><rect data-dediren-node-shape="archimate_rectangle" x="2324.0" y="777.0" width="160.0" height="80.0" rx="0" fill="#f7fee7" stroke="#65a30d" stroke-width="1.5"/><g data-dediren-node-decorator="archimate_artifact" data-dediren-icon-kind="artifact" data-dediren-icon-size="22"><path data-dediren-icon-part="artifact-document" d="M 2458.2 785.0 L 2468.8 785.0 L 2474.9 791.2 L 2474.9 804.8 L 2458.2 804.8 Z M 2468.8 785.0 L 2468.8 791.2 L 2474.9 791.2" fill="#f7fee7" stroke="#65a30d" stroke-width="1.5"/></g><text x="2404.0" y="809.0" text-anchor="middle" dominant-baseline="middle" fill="#365314" font-size="14.0"><tspan x="2404.0" dy="0">Data Protection</tspan><tspan x="2404.0" dy="16.0">key</tspan></text></g><g data-dediren-node-id="application-insights"><rect data-dediren-node-shape="archimate_rectangle" x="436.0" y="1021.0" width="160.0" height="80.0" rx="0" fill="#ecfdf3" stroke="#16a34a" stroke-width="1.5"/><g data-dediren-node-decorator="archimate_technology_node" data-dediren-icon-kind="node" data-dediren-icon-size="22"><rect x="568.0" y="1034.0" width="18.0" height="12.8" rx="1.5" fill="#ecfdf3" stroke="#16a34a" stroke-width="1.5"/><path data-dediren-icon-part="node-3d-edges" d="M 568.0 1034.0 L 572.0 1030.0 L 590.0 1030.0 L 586.0 1034.0 M 586.0 1034.0 L 590.0 1030.0 M 586.0 1046.7 L 590.0 1042.8 M 590.0 1030.0 L 590.0 1042.8" fill="none" stroke="#16a34a" stroke-width="1.5" stroke-linejoin="round"/></g><text x="516.0" y="1053.0" text-anchor="middle" dominant-baseline="middle" fill="#14532d" font-size="14.0"><tspan x="516.0" dy="0">Application</tspan><tspan x="516.0" dy="16.0">Insights</tspan></text></g><g data-dediren-node-id="log-analytics"><rect data-dediren-node-shape="archimate_rectangle" x="152.0" y="837.0" width="160.0" height="80.0" rx="0" fill="#ecfdf3" stroke="#16a34a" stroke-width="1.5"/><g data-dediren-node-decorator="archimate_technology_node" data-dediren-icon-kind="node" data-dediren-icon-size="22"><rect x="284.0" y="850.0" width="18.0" height="12.8" rx="1.5" fill="#ecfdf3" stroke="#16a34a" stroke-width="1.5"/><path data-dediren-icon-part="node-3d-edges" d="M 284.0 850.0 L 288.0 846.0 L 306.0 846.0 L 302.0 850.0 M 302.0 850.0 L 306.0 846.0 M 302.0 862.7 L 306.0 858.8 M 306.0 846.0 L 306.0 858.8" fill="none" stroke="#16a34a" stroke-width="1.5" stroke-linejoin="round"/></g><text x="232.0" y="869.0" text-anchor="middle" dominant-baseline="middle" fill="#14532d" font-size="14.0"><tspan x="232.0" dy="0">Log Analytics</tspan><tspan x="232.0" dy="16.0">workspace</tspan></text></g><g data-dediren-node-id="cosmos-throttle-alert"><rect data-dediren-node-shape="archimate_rounded_rectangle" x="436.0" y="1206.0" width="160.0" height="80.0" rx="4.0" fill="#ecfdf3" stroke="#16a34a" stroke-width="1.5"/><g data-dediren-node-decorator="archimate_technology_service" data-dediren-icon-kind="service" data-dediren-icon-size="22"><rect x="568.0" y="1217.6" width="22.0" height="11.0" rx="4.0" fill="#ecfdf3" stroke="#16a34a" stroke-width="1.5"/></g><text x="516.0" y="1238.0" text-anchor="middle" dominant-baseline="middle" fill="#14532d" font-size="14.0"><tspan x="516.0" dy="0">Cosmos throttle</tspan><tspan x="516.0" dy="16.0">alert</tspan></text></g><g data-dediren-node-id="lfm-app"><rect data-dediren-node-shape="archimate_rectangle" x="402.0" y="1394.0" width="160.0" height="80.0" rx="0" fill="#e8f3ff" stroke="#2563eb" stroke-width="1.5"/><g data-dediren-node-decorator="archimate_application_component" data-dediren-icon-kind="component" data-dediren-icon-size="22"><rect x="538.0" y="1403.0" width="18.0" height="15.8" rx="1.5" fill="#e8f3ff" stroke="#2563eb" stroke-width="1.5"/><rect x="534.0" y="1405.6" width="7.9" height="5.7" rx="1.2" fill="#e8f3ff" stroke="#2563eb" stroke-width="1.5"/><rect x="534.0" y="1412.7" width="7.9" height="5.7" rx="1.2" fill="#e8f3ff" stroke="#2563eb" stroke-width="1.5"/></g><text x="482.0" y="1434.0" text-anchor="middle" dominant-baseline="middle" fill="#172554" font-size="14.0">Lfm.App</text></g><g data-dediren-node-id="lfm-api"><rect data-dediren-node-shape="archimate_rectangle" x="1376.0" y="489.0" width="160.0" height="80.0" rx="0" fill="#e8f3ff" stroke="#2563eb" stroke-width="1.5"/><g data-dediren-node-decorator="archimate_application_component" data-dediren-icon-kind="component" data-dediren-icon-size="22"><rect x="1512.0" y="498.0" width="18.0" height="15.8" rx="1.5" fill="#e8f3ff" stroke="#2563eb" stroke-width="1.5"/><rect x="1508.0" y="500.6" width="7.9" height="5.7" rx="1.2" fill="#e8f3ff" stroke="#2563eb" stroke-width="1.5"/><rect x="1508.0" y="507.7" width="7.9" height="5.7" rx="1.2" fill="#e8f3ff" stroke="#2563eb" stroke-width="1.5"/></g><text x="1456.0" y="529.0" text-anchor="middle" dominant-baseline="middle" fill="#172554" font-size="14.0">Lfm.Api</text></g></g></svg>

