<svg xmlns="http://www.w3.org/2000/svg" width="3169" height="1809" viewBox="-1.5 -12.0 3169.5 1809.0"><rect x="-1.5" y="-12.0" width="3169.5" height="1809.0" fill="#ffffff"/><g font-family="Inter, Arial, sans-serif" font-size="14.0"><g data-dediren-group-id="technology-usage-frontend-hosting"><rect x="98.0" y="1645.0" width="488.0" height="128.0" rx="4.0" fill="#f8fafc" stroke="#94a3b8" stroke-width="1.0"/><text x="106.0" y="1661.0" fill="#374151" font-size="12.0">Frontend hosting</text></g><g data-dediren-group-id="technology-usage-functions-hosting"><rect x="828.0" y="348.0" width="996.0" height="848.0" rx="4.0" fill="#f8fafc" stroke="#94a3b8" stroke-width="1.0"/><text x="836.0" y="364.0" fill="#374151" font-size="12.0">Functions hosting</text></g><g data-dediren-group-id="technology-usage-data-plane"><rect x="2192.0" y="155.0" width="952.0" height="1386.0" rx="4.0" fill="#f8fafc" stroke="#94a3b8" stroke-width="1.0"/><text x="2200.0" y="171.0" fill="#374151" font-size="12.0">Data plane and secrets</text></g><g data-dediren-group-id="technology-usage-observability"><rect x="64.0" y="12.0" width="556.0" height="409.0" rx="4.0" fill="#f8fafc" stroke="#94a3b8" stroke-width="1.0"/><text x="72.0" y="28.0" fill="#374151" font-size="12.0">Observability and alerting</text></g><g data-dediren-edge-id="swa-hosts-app"><defs><marker id="marker-end-swa-hosts-app" data-dediren-edge-marker-end="open_arrow" markerWidth="9" markerHeight="9" refX="8" refY="4.5" orient="auto" markerUnits="strokeWidth"><path d="M 1 1 L 8 4.5 L 1 8" fill="none" stroke="#2563eb" stroke-width="1.3" stroke-linecap="round" stroke-linejoin="round"/></marker></defs><path d="M 282.0 1709.0 L 402.0 1709.0" fill="none" stroke="#2563eb" stroke-width="1.5" marker-end="url(#marker-end-swa-hosts-app)"/><text x="342.0" y="1700.6" text-anchor="middle" fill="#1e3a8a" stroke="#ffffff" stroke-width="4" stroke-linejoin="round" paint-order="stroke">hosts</text></g><g data-dediren-edge-id="function-app-hosts-api"><defs><marker id="marker-end-function-app-hosts-api" data-dediren-edge-marker-end="open_arrow" markerWidth="9" markerHeight="9" refX="8" refY="4.5" orient="auto" markerUnits="strokeWidth"><path d="M 1 1 L 8 4.5 L 1 8" fill="none" stroke="#2563eb" stroke-width="1.3" stroke-linecap="round" stroke-linejoin="round"/></marker></defs><path d="M 1244.0 668.0 L 1244.0 844.0 L 1616.0 844.0 L 1616.0 876.0" fill="none" stroke="#2563eb" stroke-width="1.5" marker-end="url(#marker-end-function-app-hosts-api)"/><text x="1430.0" y="860.8" text-anchor="middle" fill="#1e3a8a" stroke="#ffffff" stroke-width="4" stroke-linejoin="round" paint-order="stroke">hosts</text></g><g data-dediren-edge-id="plan-serves-function-app"><defs><marker id="marker-end-plan-serves-function-app" data-dediren-edge-marker-end="open_arrow" markerWidth="9" markerHeight="9" refX="8" refY="4.5" orient="auto" markerUnits="strokeWidth"><path d="M 1 1 L 8 4.5 L 1 8" fill="none" stroke="#2563eb" stroke-width="1.3" stroke-linecap="round" stroke-linejoin="round"/></marker></defs><path d="M 932.0 452.0 L 932.0 484.0 L 1212.0 484.0 L 1212.0 556.0" fill="none" stroke="#2563eb" stroke-width="1.5" marker-end="url(#marker-end-plan-serves-function-app)"/><text x="1010.6" y="500.8" text-anchor="middle" fill="#1e3a8a" stroke="#ffffff" stroke-width="4" stroke-linejoin="round" paint-order="stroke">hosts plan</text></g><g data-dediren-edge-id="function-app-composes-runtime"><defs><marker id="marker-start-function-app-composes-runtime" data-dediren-edge-marker-start="filled_diamond" markerWidth="10" markerHeight="10" refX="1" refY="5" orient="auto" markerUnits="strokeWidth"><path d="M 1 5 L 5 1 L 9 5 L 5 9 z" fill="#475569" stroke="#475569" stroke-width="1.1"/></marker><marker id="marker-end-function-app-composes-runtime" data-dediren-edge-marker-end="filled_arrow" markerWidth="8" markerHeight="8" refX="8" refY="4" orient="auto" markerUnits="strokeWidth"><path d="M 0 0 L 8 4 L 0 8 z" fill="#475569"/></marker></defs><path d="M 1212.0 668.0 L 1212.0 700.0 L 1238.0 700.0 Q 1244.0 694.0 1250.0 700.0 L 1616.0 700.0 L 1616.0 732.0" fill="none" stroke="#475569" stroke-width="1.5" marker-start="url(#marker-start-function-app-composes-runtime)" marker-end="url(#marker-end-function-app-composes-runtime)"/><text x="1414.0" y="716.8" text-anchor="middle" fill="#334155" stroke="#ffffff" stroke-width="4" stroke-linejoin="round" paint-order="stroke">runtime</text></g><g data-dediren-edge-id="function-app-has-managed-identity"><defs><marker id="marker-end-function-app-has-managed-identity" data-dediren-edge-marker-end="filled_arrow" markerWidth="8" markerHeight="8" refX="8" refY="4" orient="auto" markerUnits="strokeWidth"><path d="M 0 0 L 8 4 L 0 8 z" fill="#64748b"/></marker></defs><path d="M 1180.0 668.0 L 1180.0 988.0 L 1616.0 988.0 L 1616.0 1020.0" fill="none" stroke="#64748b" stroke-width="1.5" marker-end="url(#marker-end-function-app-has-managed-identity)"/><text x="1398.0" y="1004.8" text-anchor="middle" fill="#374151" stroke="#ffffff" stroke-width="4" stroke-linejoin="round" paint-order="stroke">identity</text></g><g data-dediren-edge-id="cosmos-serves-function-app"><defs><marker id="marker-end-cosmos-serves-function-app" data-dediren-edge-marker-end="open_arrow" markerWidth="9" markerHeight="9" refX="8" refY="4.5" orient="auto" markerUnits="strokeWidth"><path d="M 1 1 L 8 4.5 L 1 8" fill="none" stroke="#2563eb" stroke-width="1.3" stroke-linecap="round" stroke-linejoin="round"/></marker></defs><path d="M 2320.0 355.3 L 2288.0 355.3 L 1806.0 355.3 L 1806.0 587.4 L 1324.0 587.4 L 1292.0 587.4" fill="none" stroke="#2563eb" stroke-width="1.5" marker-end="url(#marker-end-cosmos-serves-function-app)"/><text x="2304.0" y="400.9" text-anchor="middle" fill="#1e3a8a" stroke="#ffffff" stroke-width="4" stroke-linejoin="round" paint-order="stroke">data plane</text></g><g data-dediren-edge-id="storage-serves-function-app"><defs><marker id="marker-end-storage-serves-function-app" data-dediren-edge-marker-end="open_arrow" markerWidth="9" markerHeight="9" refX="8" refY="4.5" orient="auto" markerUnits="strokeWidth"><path d="M 1 1 L 8 4.5 L 1 8" fill="none" stroke="#2563eb" stroke-width="1.3" stroke-linecap="round" stroke-linejoin="round"/></marker></defs><path d="M 2320.0 684.3 L 2288.0 684.3 L 1806.0 684.3 L 1806.0 603.8 L 1324.0 603.8 L 1292.0 603.8" fill="none" stroke="#2563eb" stroke-width="1.5" marker-end="url(#marker-end-storage-serves-function-app)"/><text x="2246.9" y="711.9" text-anchor="middle" fill="#1e3a8a" stroke="#ffffff" stroke-width="4" stroke-linejoin="round" paint-order="stroke">blob data</text></g><g data-dediren-edge-id="key-vault-serves-function-app"><defs><marker id="marker-end-key-vault-serves-function-app" data-dediren-edge-marker-end="open_arrow" markerWidth="9" markerHeight="9" refX="8" refY="4.5" orient="auto" markerUnits="strokeWidth"><path d="M 1 1 L 8 4.5 L 1 8" fill="none" stroke="#2563eb" stroke-width="1.3" stroke-linecap="round" stroke-linejoin="round"/></marker></defs><path d="M 2320.0 540.3 L 2288.0 540.3 L 1812.0 540.3 Q 1806.0 534.3 1812.0 540.3 L 1812.0 587.4 Q 1812.0 593.4 1806.0 593.4 L 1806.0 620.2 L 1324.0 620.2 L 1292.0 620.2" fill="none" stroke="#2563eb" stroke-width="1.5" marker-end="url(#marker-end-key-vault-serves-function-app)"/><text x="2255.6" y="567.9" text-anchor="middle" fill="#1e3a8a" stroke="#ffffff" stroke-width="4" stroke-linejoin="round" paint-order="stroke">secrets</text></g><g data-dediren-edge-id="app-insights-serves-function-app"><defs><marker id="marker-end-app-insights-serves-function-app" data-dediren-edge-marker-end="open_arrow" markerWidth="9" markerHeight="9" refX="8" refY="4.5" orient="auto" markerUnits="strokeWidth"><path d="M 1 1 L 8 4.5 L 1 8" fill="none" stroke="#2563eb" stroke-width="1.3" stroke-linecap="round" stroke-linejoin="round"/></marker></defs><path d="M 436.0 317.3 L 404.0 317.3 L 404.0 477.0 L 926.0 477.0 Q 932.0 471.0 938.0 477.0 L 1324.0 477.0 L 1324.0 636.6 L 1292.0 636.6" fill="none" stroke="#2563eb" stroke-width="1.5" marker-end="url(#marker-end-app-insights-serves-function-app)"/><text x="362.9" y="334.1" text-anchor="middle" fill="#1e3a8a" stroke="#ffffff" stroke-width="4" stroke-linejoin="round" paint-order="stroke">telemetry</text></g><g data-dediren-edge-id="log-analytics-aggregates-app-insights"><defs><marker id="marker-start-log-analytics-aggregates-app-insights" data-dediren-edge-marker-start="hollow_diamond" markerWidth="10" markerHeight="10" refX="1" refY="5" orient="auto" markerUnits="strokeWidth"><path d="M 1 5 L 5 1 L 9 5 L 5 9 z" fill="#ffffff" stroke="#475569" stroke-width="1.1"/></marker><marker id="marker-end-log-analytics-aggregates-app-insights" data-dediren-edge-marker-end="filled_arrow" markerWidth="8" markerHeight="8" refX="8" refY="4" orient="auto" markerUnits="strokeWidth"><path d="M 0 0 L 8 4 L 0 8 z" fill="#475569"/></marker></defs><path d="M 232.0 164.0 L 232.0 196.0 L 516.0 196.0 L 516.0 269.0" fill="none" stroke="#475569" stroke-width="1.5" marker-start="url(#marker-start-log-analytics-aggregates-app-insights)" marker-end="url(#marker-end-log-analytics-aggregates-app-insights)"/><text x="374.0" y="212.8" text-anchor="middle" fill="#334155" stroke="#ffffff" stroke-width="4" stroke-linejoin="round" paint-order="stroke">workspace</text></g><g data-dediren-edge-id="log-analytics-aggregates-diagnostics"><defs><marker id="marker-start-log-analytics-aggregates-diagnostics" data-dediren-edge-marker-start="hollow_diamond" markerWidth="10" markerHeight="10" refX="1" refY="5" orient="auto" markerUnits="strokeWidth"><path d="M 1 5 L 5 1 L 9 5 L 5 9 z" fill="#ffffff" stroke="#475569" stroke-width="1.1"/></marker><marker id="marker-end-log-analytics-aggregates-diagnostics" data-dediren-edge-marker-end="filled_arrow" markerWidth="8" markerHeight="8" refX="8" refY="4" orient="auto" markerUnits="strokeWidth"><path d="M 0 0 L 8 4 L 0 8 z" fill="#475569"/></marker></defs><path d="M 152.0 124.0 L 120.0 124.0 L 120.0 236.0 L 510.0 236.0 Q 516.0 230.0 522.0 236.0 L 2060.0 236.0 L 2060.0 235.0 L 2512.0 235.0 L 2512.0 338.7 L 2480.0 338.7" fill="none" stroke="#475569" stroke-width="1.5" marker-start="url(#marker-start-log-analytics-aggregates-diagnostics)" marker-end="url(#marker-end-log-analytics-aggregates-diagnostics)"/><text x="70.3" y="140.8" text-anchor="middle" fill="#334155" stroke="#ffffff" stroke-width="4" stroke-linejoin="round" paint-order="stroke">diagnostics</text></g><g data-dediren-edge-id="cosmos-composes-database"><defs><marker id="marker-end-cosmos-composes-database" data-dediren-edge-marker-end="filled_arrow" markerWidth="8" markerHeight="8" refX="8" refY="4" orient="auto" markerUnits="strokeWidth"><path d="M 0 0 L 8 4 L 0 8 z" fill="#64748b"/></marker></defs><path d="M 2400.0 387.0 L 2400.0 460.0 L 2744.0 460.0 L 2744.0 492.0" fill="none" stroke="#64748b" stroke-width="1.5" marker-end="url(#marker-end-cosmos-composes-database)"/><text x="2572.0" y="476.8" text-anchor="middle" fill="#374151" stroke="#ffffff" stroke-width="4" stroke-linejoin="round" paint-order="stroke">database</text></g><g data-dediren-edge-id="database-composes-runs"><defs><marker id="marker-start-database-composes-runs" data-dediren-edge-marker-start="filled_diamond" markerWidth="10" markerHeight="10" refX="1" refY="5" orient="auto" markerUnits="strokeWidth"><path d="M 1 5 L 5 1 L 9 5 L 5 9 z" fill="#475569" stroke="#475569" stroke-width="1.1"/></marker><marker id="marker-end-database-composes-runs" data-dediren-edge-marker-end="filled_arrow" markerWidth="8" markerHeight="8" refX="8" refY="4" orient="auto" markerUnits="strokeWidth"><path d="M 0 0 L 8 4 L 0 8 z" fill="#475569"/></marker></defs><path d="M 2792.0 572.0 L 2792.0 748.0 L 3040.0 748.0 L 3040.0 780.0" fill="none" stroke="#475569" stroke-width="1.5" marker-start="url(#marker-start-database-composes-runs)" marker-end="url(#marker-end-database-composes-runs)"/><text x="2916.0" y="764.8" text-anchor="middle" fill="#334155" stroke="#ffffff" stroke-width="4" stroke-linejoin="round" paint-order="stroke">container</text></g><g data-dediren-edge-id="database-composes-raiders"><defs><marker id="marker-start-database-composes-raiders" data-dediren-edge-marker-start="filled_diamond" markerWidth="10" markerHeight="10" refX="1" refY="5" orient="auto" markerUnits="strokeWidth"><path d="M 1 5 L 5 1 L 9 5 L 5 9 z" fill="#475569" stroke="#475569" stroke-width="1.1"/></marker><marker id="marker-end-database-composes-raiders" data-dediren-edge-marker-end="filled_arrow" markerWidth="8" markerHeight="8" refX="8" refY="4" orient="auto" markerUnits="strokeWidth"><path d="M 0 0 L 8 4 L 0 8 z" fill="#475569"/></marker></defs><path d="M 2760.0 572.0 L 2760.0 892.0 L 3040.0 892.0 L 3040.0 924.0" fill="none" stroke="#475569" stroke-width="1.5" marker-start="url(#marker-start-database-composes-raiders)" marker-end="url(#marker-end-database-composes-raiders)"/><text x="2900.0" y="908.8" text-anchor="middle" fill="#334155" stroke="#ffffff" stroke-width="4" stroke-linejoin="round" paint-order="stroke">container</text></g><g data-dediren-edge-id="database-composes-guilds"><defs><marker id="marker-start-database-composes-guilds" data-dediren-edge-marker-start="filled_diamond" markerWidth="10" markerHeight="10" refX="1" refY="5" orient="auto" markerUnits="strokeWidth"><path d="M 1 5 L 5 1 L 9 5 L 5 9 z" fill="#475569" stroke="#475569" stroke-width="1.1"/></marker><marker id="marker-end-database-composes-guilds" data-dediren-edge-marker-end="filled_arrow" markerWidth="8" markerHeight="8" refX="8" refY="4" orient="auto" markerUnits="strokeWidth"><path d="M 0 0 L 8 4 L 0 8 z" fill="#475569"/></marker></defs><path d="M 2728.0 572.0 L 2728.0 604.0 L 2754.0 604.0 Q 2760.0 598.0 2766.0 604.0 L 2786.0 604.0 Q 2792.0 598.0 2798.0 604.0 L 3040.0 604.0 L 3040.0 636.0" fill="none" stroke="#475569" stroke-width="1.5" marker-start="url(#marker-start-database-composes-guilds)" marker-end="url(#marker-end-database-composes-guilds)"/><text x="2884.0" y="620.8" text-anchor="middle" fill="#334155" stroke="#ffffff" stroke-width="4" stroke-linejoin="round" paint-order="stroke">container</text></g><g data-dediren-edge-id="database-composes-idempotency"><defs><marker id="marker-start-database-composes-idempotency" data-dediren-edge-marker-start="filled_diamond" markerWidth="10" markerHeight="10" refX="1" refY="5" orient="auto" markerUnits="strokeWidth"><path d="M 1 5 L 5 1 L 9 5 L 5 9 z" fill="#475569" stroke="#475569" stroke-width="1.1"/></marker><marker id="marker-end-database-composes-idempotency" data-dediren-edge-marker-end="filled_arrow" markerWidth="8" markerHeight="8" refX="8" refY="4" orient="auto" markerUnits="strokeWidth"><path d="M 0 0 L 8 4 L 0 8 z" fill="#475569"/></marker></defs><path d="M 2696.0 572.0 L 2696.0 1036.0 L 3040.0 1036.0 L 3040.0 1068.0" fill="none" stroke="#475569" stroke-width="1.5" marker-start="url(#marker-start-database-composes-idempotency)" marker-end="url(#marker-end-database-composes-idempotency)"/><text x="2868.0" y="1052.8" text-anchor="middle" fill="#334155" stroke="#ffffff" stroke-width="4" stroke-linejoin="round" paint-order="stroke">container</text></g><g data-dediren-edge-id="storage-composes-wow-reference"><defs><marker id="marker-end-storage-composes-wow-reference" data-dediren-edge-marker-end="filled_arrow" markerWidth="8" markerHeight="8" refX="8" refY="4" orient="auto" markerUnits="strokeWidth"><path d="M 0 0 L 8 4 L 0 8 z" fill="#64748b"/></marker></defs><path d="M 2421.3 716.0 L 2421.3 1076.0 L 2744.0 1076.0 L 2744.0 1108.0" fill="none" stroke="#64748b" stroke-width="1.5" marker-end="url(#marker-end-storage-composes-wow-reference)"/><text x="2503.9" y="1092.8" text-anchor="middle" fill="#374151" stroke="#ffffff" stroke-width="4" stroke-linejoin="round" paint-order="stroke">blob container</text></g><g data-dediren-edge-id="storage-composes-data-protection"><defs><marker id="marker-end-storage-composes-data-protection" data-dediren-edge-marker-end="filled_arrow" markerWidth="8" markerHeight="8" refX="8" refY="4" orient="auto" markerUnits="strokeWidth"><path d="M 0 0 L 8 4 L 0 8 z" fill="#64748b"/></marker></defs><path d="M 2378.7 716.0 L 2378.7 1405.0 L 2744.0 1405.0 L 2744.0 1437.0" fill="none" stroke="#64748b" stroke-width="1.5" marker-end="url(#marker-end-storage-composes-data-protection)"/><text x="2482.6" y="1421.8" text-anchor="middle" fill="#374151" stroke="#ffffff" stroke-width="4" stroke-linejoin="round" paint-order="stroke">blob container</text></g><g data-dediren-edge-id="key-vault-composes-data-protection-key"><defs><marker id="marker-end-key-vault-composes-data-protection-key" data-dediren-edge-marker-end="filled_arrow" markerWidth="8" markerHeight="8" refX="8" refY="4" orient="auto" markerUnits="strokeWidth"><path d="M 0 0 L 8 4 L 0 8 z" fill="#64748b"/></marker></defs><path d="M 2400.0 572.0 L 2400.0 604.0 L 2616.0 604.0 L 2616.0 1070.0 Q 2622.0 1076.0 2616.0 1082.0 L 2616.0 1220.0 L 2728.0 1220.0 L 2728.0 1252.0" fill="none" stroke="#64748b" stroke-width="1.5" marker-end="url(#marker-end-key-vault-composes-data-protection-key)"/><text x="2508.0" y="620.8" text-anchor="middle" fill="#374151" stroke="#ffffff" stroke-width="4" stroke-linejoin="round" paint-order="stroke">key</text></g><g data-dediren-edge-id="managed-identity-accesses-key-vault"><defs><marker id="marker-end-managed-identity-accesses-key-vault" data-dediren-edge-marker-end="filled_arrow" markerWidth="8" markerHeight="8" refX="8" refY="4" orient="auto" markerUnits="strokeWidth"><path d="M 0 0 L 8 4 L 0 8 z" fill="#64748b"/></marker></defs><path d="M 1696.0 1054.0 L 1728.0 1054.0 L 1728.0 1028.0 L 1876.0 1028.0 L 1876.0 690.3 Q 1882.0 684.3 1876.0 678.3 L 1876.0 546.3 Q 1882.0 540.3 1876.0 534.3 L 1876.0 360.0 L 2060.0 360.0 L 2060.0 267.0 L 2248.0 267.0 L 2248.0 349.3 Q 2254.0 355.3 2248.0 361.3 L 2248.0 523.7 L 2320.0 523.7" fill="none" stroke="#64748b" stroke-width="1.5" marker-end="url(#marker-end-managed-identity-accesses-key-vault)"/><text x="1782.1" y="1045.6" text-anchor="middle" fill="#374151" stroke="#ffffff" stroke-width="4" stroke-linejoin="round" paint-order="stroke">Secrets User</text></g><g data-dediren-edge-id="managed-identity-accesses-cosmos"><defs><marker id="marker-end-managed-identity-accesses-cosmos" data-dediren-edge-marker-end="filled_arrow" markerWidth="8" markerHeight="8" refX="8" refY="4" orient="auto" markerUnits="strokeWidth"><path d="M 0 0 L 8 4 L 0 8 z" fill="#64748b"/></marker></defs><path d="M 1696.0 1073.0 L 1768.0 1073.0 L 1768.0 1060.0 L 2100.0 1060.0 L 2100.0 690.3 Q 2106.0 684.3 2100.0 678.3 L 2100.0 546.3 Q 2106.0 540.3 2100.0 534.3 L 2100.0 361.3 Q 2106.0 355.3 2100.0 349.3 L 2100.0 338.7 L 2242.0 338.7 Q 2248.0 332.7 2254.0 338.7 L 2320.0 338.7" fill="none" stroke="#64748b" stroke-width="1.5" marker-end="url(#marker-end-managed-identity-accesses-cosmos)"/><text x="1819.4" y="1064.6" text-anchor="middle" fill="#374151" stroke="#ffffff" stroke-width="4" stroke-linejoin="round" paint-order="stroke">Data Contributor</text></g><g data-dediren-edge-id="managed-identity-accesses-storage"><defs><marker id="marker-end-managed-identity-accesses-storage" data-dediren-edge-marker-end="filled_arrow" markerWidth="8" markerHeight="8" refX="8" refY="4" orient="auto" markerUnits="strokeWidth"><path d="M 0 0 L 8 4 L 0 8 z" fill="#64748b"/></marker></defs><path d="M 1696.0 1092.0 L 1876.0 1092.0 L 1876.0 1104.0 L 2140.0 1104.0 L 2140.0 690.3 Q 2146.0 684.3 2140.0 678.3 L 2140.0 667.7 L 2320.0 667.7" fill="none" stroke="#64748b" stroke-width="1.5" marker-end="url(#marker-end-managed-identity-accesses-storage)"/><text x="1899.5" y="1108.8" text-anchor="middle" fill="#374151" stroke="#ffffff" stroke-width="4" stroke-linejoin="round" paint-order="stroke">Blob/Queue/Table roles</text></g><g data-dediren-edge-id="managed-identity-accesses-app-insights"><defs><marker id="marker-end-managed-identity-accesses-app-insights" data-dediren-edge-marker-end="filled_arrow" markerWidth="8" markerHeight="8" refX="8" refY="4" orient="auto" markerUnits="strokeWidth"><path d="M 0 0 L 8 4 L 0 8 z" fill="#64748b"/></marker></defs><path d="M 1696.0 1111.0 L 1728.0 1111.0 L 1066.0 1111.0 L 1066.0 490.0 Q 1072.0 484.0 1066.0 478.0 L 1066.0 483.0 Q 1072.0 477.0 1066.0 471.0 L 1066.0 300.7 L 404.0 300.7 L 436.0 300.7" fill="none" stroke="#64748b" stroke-width="1.5" marker-end="url(#marker-end-managed-identity-accesses-app-insights)"/><text x="1803.8" y="1138.6" text-anchor="middle" fill="#374151" stroke="#ffffff" stroke-width="4" stroke-linejoin="round" paint-order="stroke">Metrics Publisher</text></g><g data-dediren-edge-id="managed-identity-accesses-data-protection-key"><defs><marker id="marker-end-managed-identity-accesses-data-protection-key" data-dediren-edge-marker-end="open_arrow" markerWidth="9" markerHeight="9" refX="8" refY="4.5" orient="auto" markerUnits="strokeWidth"><path d="M 1 1 L 8 4.5 L 1 8" fill="none" stroke="#15803d" stroke-width="1.3" stroke-linecap="round" stroke-linejoin="round"/></marker></defs><path d="M 1696.0 1130.0 L 1728.0 1130.0 L 1728.0 1156.0 L 1916.0 1156.0 L 1916.0 1445.0 L 2616.0 1445.0 L 2616.0 1411.0 Q 2622.0 1405.0 2616.0 1399.0 L 2616.0 1292.0 L 2648.0 1292.0" fill="none" stroke="#15803d" stroke-width="1.5" stroke-dasharray="8 5" marker-end="url(#marker-end-managed-identity-accesses-data-protection-key)"/><text x="1712.0" y="1164.8" text-anchor="middle" fill="#166534" stroke="#ffffff" stroke-width="4" stroke-linejoin="round" paint-order="stroke">Crypto User</text></g><g data-dediren-edge-id="cosmos-throttle-alert-monitors-cosmos"><defs><marker id="marker-end-cosmos-throttle-alert-monitors-cosmos" data-dediren-edge-marker-end="filled_arrow" markerWidth="8" markerHeight="8" refX="8" refY="4" orient="auto" markerUnits="strokeWidth"><path d="M 0 0 L 8 4 L 0 8 z" fill="#64748b"/></marker></defs><path d="M 436.0 124.0 L 404.0 124.0 L 404.0 52.0 L 672.0 52.0 L 672.0 195.0 L 2552.0 195.0 L 2552.0 355.3 L 2480.0 355.3" fill="none" stroke="#64748b" stroke-width="1.5" marker-end="url(#marker-end-cosmos-throttle-alert-monitors-cosmos)"/><text x="345.6" y="169.6" text-anchor="middle" fill="#374151" stroke="#ffffff" stroke-width="4" stroke-linejoin="round" paint-order="stroke">monitors 429s</text></g><g data-dediren-node-id="static-web-apps"><rect data-dediren-node-shape="archimate_rectangle" x="122.0" y="1669.0" width="160.0" height="80.0" rx="0" fill="#ecfdf3" stroke="#16a34a" stroke-width="1.5"/><g data-dediren-node-decorator="archimate_technology_node" data-dediren-icon-kind="node" data-dediren-icon-size="22"><rect x="254.0" y="1682.0" width="18.0" height="12.8" rx="1.5" fill="#ecfdf3" stroke="#16a34a" stroke-width="1.5"/><path data-dediren-icon-part="node-3d-edges" d="M 254.0 1682.0 L 258.0 1678.0 L 276.0 1678.0 L 272.0 1682.0 M 272.0 1682.0 L 276.0 1678.0 M 272.0 1694.7 L 276.0 1690.8 M 276.0 1678.0 L 276.0 1690.8" fill="none" stroke="#16a34a" stroke-width="1.5" stroke-linejoin="round"/></g><text x="202.0" y="1701.0" text-anchor="middle" dominant-baseline="middle" fill="#14532d" font-size="14.0"><tspan x="202.0" dy="0">Azure Static Web</tspan><tspan x="202.0" dy="16.0">Apps</tspan></text></g><g data-dediren-node-id="function-app"><rect data-dediren-node-shape="archimate_rectangle" x="1132.0" y="556.0" width="160.0" height="112.0" rx="0" fill="#ecfdf3" stroke="#16a34a" stroke-width="1.5"/><g data-dediren-node-decorator="archimate_technology_node" data-dediren-icon-kind="node" data-dediren-icon-size="22"><rect x="1264.0" y="569.0" width="18.0" height="12.8" rx="1.5" fill="#ecfdf3" stroke="#16a34a" stroke-width="1.5"/><path data-dediren-icon-part="node-3d-edges" d="M 1264.0 569.0 L 1268.0 565.0 L 1286.0 565.0 L 1282.0 569.0 M 1282.0 569.0 L 1286.0 565.0 M 1282.0 581.7 L 1286.0 577.8 M 1286.0 565.0 L 1286.0 577.8" fill="none" stroke="#16a34a" stroke-width="1.5" stroke-linejoin="round"/></g><text x="1212.0" y="604.0" text-anchor="middle" dominant-baseline="middle" fill="#14532d" font-size="14.0"><tspan x="1212.0" dy="0">Azure Function</tspan><tspan x="1212.0" dy="16.0">App</tspan></text></g><g data-dediren-node-id="app-service-plan"><rect data-dediren-node-shape="archimate_rectangle" x="852.0" y="372.0" width="160.0" height="80.0" rx="0" fill="#ecfdf3" stroke="#16a34a" stroke-width="1.5"/><g data-dediren-node-decorator="archimate_technology_node" data-dediren-icon-kind="node" data-dediren-icon-size="22"><rect x="984.0" y="385.0" width="18.0" height="12.8" rx="1.5" fill="#ecfdf3" stroke="#16a34a" stroke-width="1.5"/><path data-dediren-icon-part="node-3d-edges" d="M 984.0 385.0 L 988.0 381.0 L 1006.0 381.0 L 1002.0 385.0 M 1002.0 385.0 L 1006.0 381.0 M 1002.0 397.7 L 1006.0 393.8 M 1006.0 381.0 L 1006.0 393.8" fill="none" stroke="#16a34a" stroke-width="1.5" stroke-linejoin="round"/></g><text x="932.0" y="403.9" text-anchor="middle" dominant-baseline="middle" fill="#14532d" font-size="14.0"><tspan x="932.0" dy="0">App Service Plan</tspan><tspan x="932.0" dy="16.0">(Y1)</tspan></text></g><g data-dediren-node-id="functions-runtime"><rect data-dediren-node-shape="archimate_rectangle" x="1536.0" y="732.0" width="160.0" height="80.0" rx="0" fill="#ecfdf3" stroke="#16a34a" stroke-width="1.5"/><g data-dediren-node-decorator="archimate_system_software" data-dediren-icon-kind="system_software" data-dediren-icon-size="22"><ellipse data-dediren-icon-part="system-software-disks" cx="1680.8" cy="748.9" rx="5.7" ry="5.7" fill="none" stroke="#16a34a" stroke-width="1.5"/><ellipse data-dediren-icon-part="system-software-disks" cx="1676.4" cy="752.0" rx="5.7" ry="5.7" fill="#ecfdf3" stroke="#16a34a" stroke-width="1.5"/></g><text x="1616.0" y="764.0" text-anchor="middle" dominant-baseline="middle" fill="#14532d" font-size="14.0"><tspan x="1616.0" dy="0">Azure Functions</tspan><tspan x="1616.0" dy="16.0">runtime</tspan></text></g><g data-dediren-node-id="managed-identity"><rect data-dediren-node-shape="archimate_rounded_rectangle" x="1536.0" y="1020.0" width="160.0" height="144.0" rx="4.0" fill="#ecfdf3" stroke="#16a34a" stroke-width="1.5"/><g data-dediren-node-decorator="archimate_technology_service" data-dediren-icon-kind="service" data-dediren-icon-size="22"><rect x="1668.0" y="1031.6" width="22.0" height="11.0" rx="4.0" fill="#ecfdf3" stroke="#16a34a" stroke-width="1.5"/></g><text x="1616.0" y="1084.0" text-anchor="middle" dominant-baseline="middle" fill="#14532d" font-size="14.0"><tspan x="1616.0" dy="0">Function App</tspan><tspan x="1616.0" dy="16.0">managed identity</tspan></text></g><g data-dediren-node-id="cosmos-account"><rect data-dediren-node-shape="archimate_rectangle" x="2320.0" y="307.0" width="160.0" height="80.0" rx="0" fill="#ecfdf3" stroke="#16a34a" stroke-width="1.5"/><g data-dediren-node-decorator="archimate_technology_node" data-dediren-icon-kind="node" data-dediren-icon-size="22"><rect x="2452.0" y="320.0" width="18.0" height="12.8" rx="1.5" fill="#ecfdf3" stroke="#16a34a" stroke-width="1.5"/><path data-dediren-icon-part="node-3d-edges" d="M 2452.0 320.0 L 2456.0 316.0 L 2474.0 316.0 L 2470.0 320.0 M 2470.0 320.0 L 2474.0 316.0 M 2470.0 332.7 L 2474.0 328.8 M 2474.0 316.0 L 2474.0 328.8" fill="none" stroke="#16a34a" stroke-width="1.5" stroke-linejoin="round"/></g><text x="2400.0" y="338.9" text-anchor="middle" dominant-baseline="middle" fill="#14532d" font-size="14.0"><tspan x="2400.0" dy="0">Cosmos DB</tspan><tspan x="2400.0" dy="16.0">account</tspan></text></g><g data-dediren-node-id="cosmos-database"><rect data-dediren-node-shape="archimate_rectangle" x="2648.0" y="492.0" width="192.0" height="80.0" rx="0" fill="#f7fee7" stroke="#65a30d" stroke-width="1.5"/><g data-dediren-node-decorator="archimate_artifact" data-dediren-icon-kind="artifact" data-dediren-icon-size="22"><path data-dediren-icon-part="artifact-document" d="M 2814.2 500.0 L 2824.8 500.0 L 2830.9 506.2 L 2830.9 519.8 L 2814.2 519.8 Z M 2824.8 500.0 L 2824.8 506.2 L 2830.9 506.2" fill="#f7fee7" stroke="#65a30d" stroke-width="1.5"/></g><text x="2744.0" y="532.0" text-anchor="middle" dominant-baseline="middle" fill="#365314" font-size="14.0">Cosmos SQL database</text></g><g data-dediren-node-id="cosmos-runs"><rect data-dediren-node-shape="archimate_rectangle" x="2960.0" y="780.0" width="160.0" height="80.0" rx="0" fill="#f7fee7" stroke="#65a30d" stroke-width="1.5"/><g data-dediren-node-decorator="archimate_artifact" data-dediren-icon-kind="artifact" data-dediren-icon-size="22"><path data-dediren-icon-part="artifact-document" d="M 3094.2 788.0 L 3104.8 788.0 L 3110.9 794.2 L 3110.9 807.8 L 3094.2 807.8 Z M 3104.8 788.0 L 3104.8 794.2 L 3110.9 794.2" fill="#f7fee7" stroke="#65a30d" stroke-width="1.5"/></g><text x="3040.0" y="820.0" text-anchor="middle" dominant-baseline="middle" fill="#365314" font-size="14.0">runs container</text></g><g data-dediren-node-id="cosmos-raiders"><rect data-dediren-node-shape="archimate_rectangle" x="2960.0" y="924.0" width="160.0" height="80.0" rx="0" fill="#f7fee7" stroke="#65a30d" stroke-width="1.5"/><g data-dediren-node-decorator="archimate_artifact" data-dediren-icon-kind="artifact" data-dediren-icon-size="22"><path data-dediren-icon-part="artifact-document" d="M 3094.2 932.0 L 3104.8 932.0 L 3110.9 938.2 L 3110.9 951.8 L 3094.2 951.8 Z M 3104.8 932.0 L 3104.8 938.2 L 3110.9 938.2" fill="#f7fee7" stroke="#65a30d" stroke-width="1.5"/></g><text x="3040.0" y="956.0" text-anchor="middle" dominant-baseline="middle" fill="#365314" font-size="14.0"><tspan x="3040.0" dy="0">raiders</tspan><tspan x="3040.0" dy="16.0">container</tspan></text></g><g data-dediren-node-id="cosmos-guilds"><rect data-dediren-node-shape="archimate_rectangle" x="2960.0" y="636.0" width="160.0" height="80.0" rx="0" fill="#f7fee7" stroke="#65a30d" stroke-width="1.5"/><g data-dediren-node-decorator="archimate_artifact" data-dediren-icon-kind="artifact" data-dediren-icon-size="22"><path data-dediren-icon-part="artifact-document" d="M 3094.2 644.0 L 3104.8 644.0 L 3110.9 650.2 L 3110.9 663.8 L 3094.2 663.8 Z M 3104.8 644.0 L 3104.8 650.2 L 3110.9 650.2" fill="#f7fee7" stroke="#65a30d" stroke-width="1.5"/></g><text x="3040.0" y="676.0" text-anchor="middle" dominant-baseline="middle" fill="#365314" font-size="14.0">guilds container</text></g><g data-dediren-node-id="cosmos-idempotency"><rect data-dediren-node-shape="archimate_rectangle" x="2960.0" y="1068.0" width="160.0" height="80.0" rx="0" fill="#f7fee7" stroke="#65a30d" stroke-width="1.5"/><g data-dediren-node-decorator="archimate_artifact" data-dediren-icon-kind="artifact" data-dediren-icon-size="22"><path data-dediren-icon-part="artifact-document" d="M 3094.2 1076.0 L 3104.8 1076.0 L 3110.9 1082.2 L 3110.9 1095.8 L 3094.2 1095.8 Z M 3104.8 1076.0 L 3104.8 1082.2 L 3110.9 1082.2" fill="#f7fee7" stroke="#65a30d" stroke-width="1.5"/></g><text x="3040.0" y="1100.0" text-anchor="middle" dominant-baseline="middle" fill="#365314" font-size="14.0"><tspan x="3040.0" dy="0">idempotency</tspan><tspan x="3040.0" dy="16.0">container</tspan></text></g><g data-dediren-node-id="storage-account"><rect data-dediren-node-shape="archimate_rectangle" x="2320.0" y="636.0" width="160.0" height="80.0" rx="0" fill="#ecfdf3" stroke="#16a34a" stroke-width="1.5"/><g data-dediren-node-decorator="archimate_technology_node" data-dediren-icon-kind="node" data-dediren-icon-size="22"><rect x="2452.0" y="649.0" width="18.0" height="12.8" rx="1.5" fill="#ecfdf3" stroke="#16a34a" stroke-width="1.5"/><path data-dediren-icon-part="node-3d-edges" d="M 2452.0 649.0 L 2456.0 645.0 L 2474.0 645.0 L 2470.0 649.0 M 2470.0 649.0 L 2474.0 645.0 M 2470.0 661.7 L 2474.0 657.8 M 2474.0 645.0 L 2474.0 657.8" fill="none" stroke="#16a34a" stroke-width="1.5" stroke-linejoin="round"/></g><text x="2400.0" y="676.0" text-anchor="middle" dominant-baseline="middle" fill="#14532d" font-size="14.0">Storage account</text></g><g data-dediren-node-id="wow-reference-container"><rect data-dediren-node-shape="archimate_rectangle" x="2664.0" y="1108.0" width="160.0" height="80.0" rx="0" fill="#f7fee7" stroke="#65a30d" stroke-width="1.5"/><g data-dediren-node-decorator="archimate_artifact" data-dediren-icon-kind="artifact" data-dediren-icon-size="22"><path data-dediren-icon-part="artifact-document" d="M 2798.2 1116.0 L 2808.8 1116.0 L 2814.9 1122.2 L 2814.9 1135.8 L 2798.2 1135.8 Z M 2808.8 1116.0 L 2808.8 1122.2 L 2814.9 1122.2" fill="#f7fee7" stroke="#65a30d" stroke-width="1.5"/></g><text x="2744.0" y="1140.0" text-anchor="middle" dominant-baseline="middle" fill="#365314" font-size="14.0"><tspan x="2744.0" dy="0">wow reference</tspan><tspan x="2744.0" dy="16.0">blobs</tspan></text></g><g data-dediren-node-id="data-protection-container"><rect data-dediren-node-shape="archimate_rectangle" x="2664.0" y="1437.0" width="160.0" height="80.0" rx="0" fill="#f7fee7" stroke="#65a30d" stroke-width="1.5"/><g data-dediren-node-decorator="archimate_artifact" data-dediren-icon-kind="artifact" data-dediren-icon-size="22"><path data-dediren-icon-part="artifact-document" d="M 2798.2 1445.0 L 2808.8 1445.0 L 2814.9 1451.2 L 2814.9 1464.8 L 2798.2 1464.8 Z M 2808.8 1445.0 L 2808.8 1451.2 L 2814.9 1451.2" fill="#f7fee7" stroke="#65a30d" stroke-width="1.5"/></g><text x="2744.0" y="1469.0" text-anchor="middle" dominant-baseline="middle" fill="#365314" font-size="14.0"><tspan x="2744.0" dy="0">data-protection</tspan><tspan x="2744.0" dy="16.0">key ring blob</tspan></text></g><g data-dediren-node-id="key-vault"><rect data-dediren-node-shape="archimate_rectangle" x="2320.0" y="492.0" width="160.0" height="80.0" rx="0" fill="#ecfdf3" stroke="#16a34a" stroke-width="1.5"/><g data-dediren-node-decorator="archimate_technology_node" data-dediren-icon-kind="node" data-dediren-icon-size="22"><rect x="2452.0" y="505.0" width="18.0" height="12.8" rx="1.5" fill="#ecfdf3" stroke="#16a34a" stroke-width="1.5"/><path data-dediren-icon-part="node-3d-edges" d="M 2452.0 505.0 L 2456.0 501.0 L 2474.0 501.0 L 2470.0 505.0 M 2470.0 505.0 L 2474.0 501.0 M 2470.0 517.7 L 2474.0 513.8 M 2474.0 501.0 L 2474.0 513.8" fill="none" stroke="#16a34a" stroke-width="1.5" stroke-linejoin="round"/></g><text x="2400.0" y="532.0" text-anchor="middle" dominant-baseline="middle" fill="#14532d" font-size="14.0">Key Vault</text></g><g data-dediren-node-id="data-protection-key"><rect data-dediren-node-shape="archimate_rectangle" x="2648.0" y="1252.0" width="160.0" height="80.0" rx="0" fill="#f7fee7" stroke="#65a30d" stroke-width="1.5"/><g data-dediren-node-decorator="archimate_artifact" data-dediren-icon-kind="artifact" data-dediren-icon-size="22"><path data-dediren-icon-part="artifact-document" d="M 2782.2 1260.0 L 2792.8 1260.0 L 2798.9 1266.2 L 2798.9 1279.8 L 2782.2 1279.8 Z M 2792.8 1260.0 L 2792.8 1266.2 L 2798.9 1266.2" fill="#f7fee7" stroke="#65a30d" stroke-width="1.5"/></g><text x="2728.0" y="1284.0" text-anchor="middle" dominant-baseline="middle" fill="#365314" font-size="14.0"><tspan x="2728.0" dy="0">Data Protection</tspan><tspan x="2728.0" dy="16.0">key</tspan></text></g><g data-dediren-node-id="application-insights"><rect data-dediren-node-shape="archimate_rectangle" x="436.0" y="269.0" width="160.0" height="80.0" rx="0" fill="#ecfdf3" stroke="#16a34a" stroke-width="1.5"/><g data-dediren-node-decorator="archimate_technology_node" data-dediren-icon-kind="node" data-dediren-icon-size="22"><rect x="568.0" y="282.0" width="18.0" height="12.8" rx="1.5" fill="#ecfdf3" stroke="#16a34a" stroke-width="1.5"/><path data-dediren-icon-part="node-3d-edges" d="M 568.0 282.0 L 572.0 278.0 L 590.0 278.0 L 586.0 282.0 M 586.0 282.0 L 590.0 278.0 M 586.0 294.7 L 590.0 290.8 M 590.0 278.0 L 590.0 290.8" fill="none" stroke="#16a34a" stroke-width="1.5" stroke-linejoin="round"/></g><text x="516.0" y="300.9" text-anchor="middle" dominant-baseline="middle" fill="#14532d" font-size="14.0"><tspan x="516.0" dy="0">Application</tspan><tspan x="516.0" dy="16.0">Insights</tspan></text></g><g data-dediren-node-id="log-analytics"><rect data-dediren-node-shape="archimate_rectangle" x="152.0" y="84.0" width="160.0" height="80.0" rx="0" fill="#ecfdf3" stroke="#16a34a" stroke-width="1.5"/><g data-dediren-node-decorator="archimate_technology_node" data-dediren-icon-kind="node" data-dediren-icon-size="22"><rect x="284.0" y="97.0" width="18.0" height="12.8" rx="1.5" fill="#ecfdf3" stroke="#16a34a" stroke-width="1.5"/><path data-dediren-icon-part="node-3d-edges" d="M 284.0 97.0 L 288.0 93.0 L 306.0 93.0 L 302.0 97.0 M 302.0 97.0 L 306.0 93.0 M 302.0 109.7 L 306.0 105.8 M 306.0 93.0 L 306.0 105.8" fill="none" stroke="#16a34a" stroke-width="1.5" stroke-linejoin="round"/></g><text x="232.0" y="116.0" text-anchor="middle" dominant-baseline="middle" fill="#14532d" font-size="14.0"><tspan x="232.0" dy="0">Log Analytics</tspan><tspan x="232.0" dy="16.0">workspace</tspan></text></g><g data-dediren-node-id="cosmos-throttle-alert"><rect data-dediren-node-shape="archimate_rounded_rectangle" x="436.0" y="84.0" width="160.0" height="80.0" rx="4.0" fill="#ecfdf3" stroke="#16a34a" stroke-width="1.5"/><g data-dediren-node-decorator="archimate_technology_service" data-dediren-icon-kind="service" data-dediren-icon-size="22"><rect x="568.0" y="95.6" width="22.0" height="11.0" rx="4.0" fill="#ecfdf3" stroke="#16a34a" stroke-width="1.5"/></g><text x="516.0" y="116.0" text-anchor="middle" dominant-baseline="middle" fill="#14532d" font-size="14.0"><tspan x="516.0" dy="0">Cosmos throttle</tspan><tspan x="516.0" dy="16.0">alert</tspan></text></g><g data-dediren-node-id="lfm-app"><rect data-dediren-node-shape="archimate_rectangle" x="402.0" y="1669.0" width="160.0" height="80.0" rx="0" fill="#e8f3ff" stroke="#2563eb" stroke-width="1.5"/><g data-dediren-node-decorator="archimate_application_component" data-dediren-icon-kind="component" data-dediren-icon-size="22"><rect x="538.0" y="1678.0" width="18.0" height="15.8" rx="1.5" fill="#e8f3ff" stroke="#2563eb" stroke-width="1.5"/><rect x="534.0" y="1680.6" width="7.9" height="5.7" rx="1.2" fill="#e8f3ff" stroke="#2563eb" stroke-width="1.5"/><rect x="534.0" y="1687.7" width="7.9" height="5.7" rx="1.2" fill="#e8f3ff" stroke="#2563eb" stroke-width="1.5"/></g><text x="482.0" y="1709.0" text-anchor="middle" dominant-baseline="middle" fill="#172554" font-size="14.0">Lfm.App</text></g><g data-dediren-node-id="lfm-api"><rect data-dediren-node-shape="archimate_rectangle" x="1536.0" y="876.0" width="160.0" height="80.0" rx="0" fill="#e8f3ff" stroke="#2563eb" stroke-width="1.5"/><g data-dediren-node-decorator="archimate_application_component" data-dediren-icon-kind="component" data-dediren-icon-size="22"><rect x="1672.0" y="885.0" width="18.0" height="15.8" rx="1.5" fill="#e8f3ff" stroke="#2563eb" stroke-width="1.5"/><rect x="1668.0" y="887.6" width="7.9" height="5.7" rx="1.2" fill="#e8f3ff" stroke="#2563eb" stroke-width="1.5"/><rect x="1668.0" y="894.7" width="7.9" height="5.7" rx="1.2" fill="#e8f3ff" stroke="#2563eb" stroke-width="1.5"/></g><text x="1616.0" y="916.0" text-anchor="middle" dominant-baseline="middle" fill="#172554" font-size="14.0">Lfm.Api</text></g></g></svg>

