<svg xmlns="http://www.w3.org/2000/svg" width="2732" height="1384" viewBox="-12.0 -12.0 2732.0 1384.0"><rect x="-12.0" y="-12.0" width="2732.0" height="1384.0" fill="#ffffff"/><g font-family="Inter, Arial, sans-serif" font-size="14.0"><g data-dediren-group-id="technology-usage-frontend-hosting"><rect x="12.0" y="12.0" width="608.0" height="128.0" rx="4.0" fill="#f8fafc" stroke="#94a3b8" stroke-width="1.0"/><text x="20.0" y="28.0" fill="#374151" font-size="12.0">Frontend hosting</text></g><g data-dediren-group-id="technology-usage-functions-hosting"><rect x="640.0" y="274.0" width="768.0" height="768.0" rx="4.0" fill="#f8fafc" stroke="#94a3b8" stroke-width="1.0"/><text x="648.0" y="290.0" fill="#374151" font-size="12.0">Functions hosting</text></g><g data-dediren-group-id="technology-usage-data-plane"><rect x="1648.0" y="160.0" width="1048.0" height="1188.0" rx="4.0" fill="#f8fafc" stroke="#94a3b8" stroke-width="1.0"/><text x="1656.0" y="176.0" fill="#374151" font-size="12.0">Data plane and secrets</text></g><g data-dediren-group-id="technology-usage-observability"><rect x="12.0" y="440.4" width="388.0" height="448.0" rx="4.0" fill="#f8fafc" stroke="#94a3b8" stroke-width="1.0"/><text x="20.0" y="456.4" fill="#374151" font-size="12.0">Observability and alerting</text></g><g data-dediren-edge-id="swa-hosts-app"><defs><marker id="marker-end-swa-hosts-app" data-dediren-edge-marker-end="filled_circle" markerWidth="8" markerHeight="8" refX="1" refY="4" orient="auto" markerUnits="strokeWidth"><circle cx="4" cy="4" r="3" fill="#64748b" stroke="#64748b" stroke-width="1"/></marker></defs><path d="M 196.0 76.0 L 436.0 76.0" fill="none" stroke="#64748b" stroke-width="1.5" marker-end="url(#marker-end-swa-hosts-app)"/><text x="316.0" y="67.6" text-anchor="middle" fill="#334155" stroke="#ffffff" stroke-width="4" stroke-linejoin="round" paint-order="stroke">hosts</text></g><g data-dediren-edge-id="function-app-hosts-api"><defs><marker id="marker-end-function-app-hosts-api" data-dediren-edge-marker-end="filled_circle" markerWidth="8" markerHeight="8" refX="1" refY="4" orient="auto" markerUnits="strokeWidth"><circle cx="4" cy="4" r="3" fill="#64748b" stroke="#64748b" stroke-width="1"/></marker></defs><path d="M 784.0 698.0 L 784.0 750.0 L 1024.0 750.0 L 1024.0 938.0" fill="none" stroke="#64748b" stroke-width="1.5" marker-end="url(#marker-end-function-app-hosts-api)"/><text x="904.0" y="766.8" text-anchor="middle" fill="#334155" stroke="#ffffff" stroke-width="4" stroke-linejoin="round" paint-order="stroke">hosts</text></g><g data-dediren-edge-id="plan-serves-function-app"><defs><marker id="marker-end-plan-serves-function-app" data-dediren-edge-marker-end="open_arrow" markerWidth="9" markerHeight="9" refX="8" refY="4.5" orient="auto" markerUnits="strokeWidth"><path d="M 1 1 L 8 4.5 L 1 8" fill="none" stroke="#2563eb" stroke-width="1.3" stroke-linecap="round" stroke-linejoin="round"/></marker></defs><path d="M 784.0 378.0 L 784.0 618.0" fill="none" stroke="#2563eb" stroke-width="1.5" marker-end="url(#marker-end-plan-serves-function-app)"/><text x="781.9" y="538.2" text-anchor="end" fill="#1e3a8a" stroke="#ffffff" stroke-width="4" stroke-linejoin="round" paint-order="stroke">hosts plan</text></g><g data-dediren-edge-id="function-app-composes-runtime"><defs><marker id="marker-start-function-app-composes-runtime" data-dediren-edge-marker-start="filled_diamond" markerWidth="10" markerHeight="10" refX="1" refY="5" orient="auto" markerUnits="strokeWidth"><path d="M 1 5 L 5 1 L 9 5 L 5 9 z" fill="#475569" stroke="#475569" stroke-width="1.1"/></marker><marker id="marker-end-function-app-composes-runtime" data-dediren-edge-marker-end="filled_arrow" markerWidth="8" markerHeight="8" refX="8" refY="4" orient="auto" markerUnits="strokeWidth"><path d="M 0 0 L 8 4 L 0 8 z" fill="#475569"/></marker></defs><path d="M 824.0 698.0 L 824.0 730.0 L 1304.0 730.0 L 1304.0 938.0" fill="none" stroke="#475569" stroke-width="1.5" marker-start="url(#marker-start-function-app-composes-runtime)" marker-end="url(#marker-end-function-app-composes-runtime)"/><text x="1064.0" y="746.8" text-anchor="middle" fill="#334155" stroke="#ffffff" stroke-width="4" stroke-linejoin="round" paint-order="stroke">runtime</text></g><g data-dediren-edge-id="function-app-has-managed-identity"><defs><marker id="marker-start-function-app-has-managed-identity" data-dediren-edge-marker-start="filled_diamond" markerWidth="10" markerHeight="10" refX="1" refY="5" orient="auto" markerUnits="strokeWidth"><path d="M 1 5 L 5 1 L 9 5 L 5 9 z" fill="#475569" stroke="#475569" stroke-width="1.1"/></marker><marker id="marker-end-function-app-has-managed-identity" data-dediren-edge-marker-end="filled_arrow" markerWidth="8" markerHeight="8" refX="8" refY="4" orient="auto" markerUnits="strokeWidth"><path d="M 0 0 L 8 4 L 0 8 z" fill="#475569"/></marker></defs><path d="M 744.0 698.0 L 744.0 938.0" fill="none" stroke="#475569" stroke-width="1.5" marker-start="url(#marker-start-function-app-has-managed-identity)" marker-end="url(#marker-end-function-app-has-managed-identity)"/><text x="741.9" y="822.2" text-anchor="end" fill="#334155" stroke="#ffffff" stroke-width="4" stroke-linejoin="round" paint-order="stroke">identity</text></g><g data-dediren-edge-id="cosmos-serves-function-app"><defs><marker id="marker-end-cosmos-serves-function-app" data-dediren-edge-marker-end="open_arrow" markerWidth="9" markerHeight="9" refX="8" refY="4.5" orient="auto" markerUnits="strokeWidth"><path d="M 1 1 L 8 4.5 L 1 8" fill="none" stroke="#2563eb" stroke-width="1.3" stroke-linecap="round" stroke-linejoin="round"/></marker></defs><path d="M 1720.0 652.0 L 1292.0 652.0 L 1292.0 658.0 L 864.0 658.0" fill="none" stroke="#2563eb" stroke-width="1.5" marker-end="url(#marker-end-cosmos-serves-function-app)"/><text x="1506.0" y="686.8" text-anchor="middle" fill="#1e3a8a" stroke="#ffffff" stroke-width="4" stroke-linejoin="round" paint-order="stroke">data plane</text></g><g data-dediren-edge-id="storage-serves-function-app"><defs><marker id="marker-end-storage-serves-function-app" data-dediren-edge-marker-end="open_arrow" markerWidth="9" markerHeight="9" refX="8" refY="4.5" orient="auto" markerUnits="strokeWidth"><path d="M 1 1 L 8 4.5 L 1 8" fill="none" stroke="#2563eb" stroke-width="1.3" stroke-linecap="round" stroke-linejoin="round"/></marker></defs><path d="M 1878.7 224.0 L 1371.3 224.0 L 1371.3 646.0 L 864.0 646.0" fill="none" stroke="#2563eb" stroke-width="1.5" marker-end="url(#marker-end-storage-serves-function-app)"/><text x="1625.0" y="222.8" text-anchor="middle" fill="#1e3a8a" stroke="#ffffff" stroke-width="4" stroke-linejoin="round" paint-order="stroke">blob data</text></g><g data-dediren-edge-id="key-vault-serves-function-app"><defs><marker id="marker-end-key-vault-serves-function-app" data-dediren-edge-marker-end="open_arrow" markerWidth="9" markerHeight="9" refX="8" refY="4.5" orient="auto" markerUnits="strokeWidth"><path d="M 1 1 L 8 4.5 L 1 8" fill="none" stroke="#2563eb" stroke-width="1.3" stroke-linecap="round" stroke-linejoin="round"/></marker></defs><path d="M 1672.0 200.0 L 1268.0 200.0 L 1268.0 634.0 L 864.0 634.0" fill="none" stroke="#2563eb" stroke-width="1.5" marker-end="url(#marker-end-key-vault-serves-function-app)"/><text x="1470.0" y="216.8" text-anchor="middle" fill="#1e3a8a" stroke="#ffffff" stroke-width="4" stroke-linejoin="round" paint-order="stroke">secrets</text></g><g data-dediren-edge-id="app-insights-serves-function-app"><defs><marker id="marker-end-app-insights-serves-function-app" data-dediren-edge-marker-end="open_arrow" markerWidth="9" markerHeight="9" refX="8" refY="4.5" orient="auto" markerUnits="strokeWidth"><path d="M 1 1 L 8 4.5 L 1 8" fill="none" stroke="#2563eb" stroke-width="1.3" stroke-linecap="round" stroke-linejoin="round"/></marker></defs><path d="M 376.0 800.4 L 540.0 800.4 L 540.0 658.0 L 704.0 658.0" fill="none" stroke="#2563eb" stroke-width="1.5" marker-end="url(#marker-end-app-insights-serves-function-app)"/><text x="458.0" y="792.0" text-anchor="middle" fill="#1e3a8a" stroke="#ffffff" stroke-width="4" stroke-linejoin="round" paint-order="stroke">telemetry</text></g><g data-dediren-edge-id="log-analytics-aggregates-app-insights"><defs><marker id="marker-start-log-analytics-aggregates-app-insights" data-dediren-edge-marker-start="hollow_diamond" markerWidth="10" markerHeight="10" refX="1" refY="5" orient="auto" markerUnits="strokeWidth"><path d="M 1 5 L 5 1 L 9 5 L 5 9 z" fill="#ffffff" stroke="#475569" stroke-width="1.1"/></marker><marker id="marker-end-log-analytics-aggregates-app-insights" data-dediren-edge-marker-end="filled_arrow" markerWidth="8" markerHeight="8" refX="8" refY="4" orient="auto" markerUnits="strokeWidth"><path d="M 0 0 L 8 4 L 0 8 z" fill="#475569"/></marker></defs><path d="M 296.0 544.4 L 296.0 784.4" fill="none" stroke="#475569" stroke-width="1.5" marker-start="url(#marker-start-log-analytics-aggregates-app-insights)" marker-end="url(#marker-end-log-analytics-aggregates-app-insights)"/><text x="293.9" y="668.6" text-anchor="end" fill="#334155" stroke="#ffffff" stroke-width="4" stroke-linejoin="round" paint-order="stroke">workspace</text></g><g data-dediren-edge-id="log-analytics-aggregates-diagnostics"><defs><marker id="marker-start-log-analytics-aggregates-diagnostics" data-dediren-edge-marker-start="hollow_diamond" markerWidth="10" markerHeight="10" refX="1" refY="5" orient="auto" markerUnits="strokeWidth"><path d="M 1 5 L 5 1 L 9 5 L 5 9 z" fill="#ffffff" stroke="#475569" stroke-width="1.1"/></marker><marker id="marker-end-log-analytics-aggregates-diagnostics" data-dediren-edge-marker-end="filled_arrow" markerWidth="8" markerHeight="8" refX="8" refY="4" orient="auto" markerUnits="strokeWidth"><path d="M 0 0 L 8 4 L 0 8 z" fill="#475569"/></marker></defs><path d="M 376.0 480.4 L 778.0 480.4 Q 784.0 474.4 790.0 480.4 L 1048.0 480.4 L 1048.0 636.0 L 1365.3 636.0 Q 1371.3 630.0 1377.3 636.0 L 1720.0 636.0" fill="none" stroke="#475569" stroke-width="1.5" marker-start="url(#marker-start-log-analytics-aggregates-diagnostics)" marker-end="url(#marker-end-log-analytics-aggregates-diagnostics)"/><text x="712.0" y="479.2" text-anchor="middle" fill="#334155" stroke="#ffffff" stroke-width="4" stroke-linejoin="round" paint-order="stroke">diagnostics</text></g><g data-dediren-edge-id="cosmos-composes-database"><defs><marker id="marker-start-cosmos-composes-database" data-dediren-edge-marker-start="filled_diamond" markerWidth="10" markerHeight="10" refX="1" refY="5" orient="auto" markerUnits="strokeWidth"><path d="M 1 5 L 5 1 L 9 5 L 5 9 z" fill="#475569" stroke="#475569" stroke-width="1.1"/></marker><marker id="marker-end-cosmos-composes-database" data-dediren-edge-marker-end="filled_arrow" markerWidth="8" markerHeight="8" refX="8" refY="4" orient="auto" markerUnits="strokeWidth"><path d="M 0 0 L 8 4 L 0 8 z" fill="#475569"/></marker></defs><path d="M 1800.0 684.0 L 1800.0 924.0" fill="none" stroke="#475569" stroke-width="1.5" marker-start="url(#marker-start-cosmos-composes-database)" marker-end="url(#marker-end-cosmos-composes-database)"/><text x="1797.9" y="808.2" text-anchor="end" fill="#334155" stroke="#ffffff" stroke-width="4" stroke-linejoin="round" paint-order="stroke">database</text></g><g data-dediren-edge-id="database-composes-runs"><defs><marker id="marker-start-database-composes-runs" data-dediren-edge-marker-start="filled_diamond" markerWidth="10" markerHeight="10" refX="1" refY="5" orient="auto" markerUnits="strokeWidth"><path d="M 1 5 L 5 1 L 9 5 L 5 9 z" fill="#475569" stroke="#475569" stroke-width="1.1"/></marker><marker id="marker-end-database-composes-runs" data-dediren-edge-marker-end="filled_arrow" markerWidth="8" markerHeight="8" refX="8" refY="4" orient="auto" markerUnits="strokeWidth"><path d="M 0 0 L 8 4 L 0 8 z" fill="#475569"/></marker></defs><path d="M 1816.0 1004.0 L 1816.0 1056.0 L 2312.0 1056.0 L 2312.0 1244.0" fill="none" stroke="#475569" stroke-width="1.5" marker-start="url(#marker-start-database-composes-runs)" marker-end="url(#marker-end-database-composes-runs)"/><text x="2121.1" y="1072.8" text-anchor="middle" fill="#334155" stroke="#ffffff" stroke-width="4" stroke-linejoin="round" paint-order="stroke">container</text></g><g data-dediren-edge-id="database-composes-raiders"><defs><marker id="marker-start-database-composes-raiders" data-dediren-edge-marker-start="filled_diamond" markerWidth="10" markerHeight="10" refX="1" refY="5" orient="auto" markerUnits="strokeWidth"><path d="M 1 5 L 5 1 L 9 5 L 5 9 z" fill="#475569" stroke="#475569" stroke-width="1.1"/></marker><marker id="marker-end-database-composes-raiders" data-dediren-edge-marker-end="filled_arrow" markerWidth="8" markerHeight="8" refX="8" refY="4" orient="auto" markerUnits="strokeWidth"><path d="M 0 0 L 8 4 L 0 8 z" fill="#475569"/></marker></defs><path d="M 1848.0 1004.0 L 1848.0 1036.0 L 2592.0 1036.0 L 2592.0 1244.0" fill="none" stroke="#475569" stroke-width="1.5" marker-start="url(#marker-start-database-composes-raiders)" marker-end="url(#marker-end-database-composes-raiders)"/><text x="2220.0" y="1034.8" text-anchor="middle" fill="#334155" stroke="#ffffff" stroke-width="4" stroke-linejoin="round" paint-order="stroke">container</text></g><g data-dediren-edge-id="database-composes-guilds"><defs><marker id="marker-start-database-composes-guilds" data-dediren-edge-marker-start="filled_diamond" markerWidth="10" markerHeight="10" refX="1" refY="5" orient="auto" markerUnits="strokeWidth"><path d="M 1 5 L 5 1 L 9 5 L 5 9 z" fill="#475569" stroke="#475569" stroke-width="1.1"/></marker><marker id="marker-end-database-composes-guilds" data-dediren-edge-marker-end="filled_arrow" markerWidth="8" markerHeight="8" refX="8" refY="4" orient="auto" markerUnits="strokeWidth"><path d="M 0 0 L 8 4 L 0 8 z" fill="#475569"/></marker></defs><path d="M 1752.0 1004.0 L 1752.0 1244.0" fill="none" stroke="#475569" stroke-width="1.5" marker-start="url(#marker-start-database-composes-guilds)" marker-end="url(#marker-end-database-composes-guilds)"/><text x="1749.9" y="1128.2" text-anchor="end" fill="#334155" stroke="#ffffff" stroke-width="4" stroke-linejoin="round" paint-order="stroke">container</text></g><g data-dediren-edge-id="database-composes-idempotency"><defs><marker id="marker-start-database-composes-idempotency" data-dediren-edge-marker-start="filled_diamond" markerWidth="10" markerHeight="10" refX="1" refY="5" orient="auto" markerUnits="strokeWidth"><path d="M 1 5 L 5 1 L 9 5 L 5 9 z" fill="#475569" stroke="#475569" stroke-width="1.1"/></marker><marker id="marker-end-database-composes-idempotency" data-dediren-edge-marker-end="filled_arrow" markerWidth="8" markerHeight="8" refX="8" refY="4" orient="auto" markerUnits="strokeWidth"><path d="M 0 0 L 8 4 L 0 8 z" fill="#475569"/></marker></defs><path d="M 1784.0 1004.0 L 1784.0 1076.0 L 2032.0 1076.0 L 2032.0 1244.0" fill="none" stroke="#475569" stroke-width="1.5" marker-start="url(#marker-start-database-composes-idempotency)" marker-end="url(#marker-end-database-composes-idempotency)"/><text x="1908.0" y="1092.8" text-anchor="middle" fill="#334155" stroke="#ffffff" stroke-width="4" stroke-linejoin="round" paint-order="stroke">container</text></g><g data-dediren-edge-id="storage-composes-wow-reference"><defs><marker id="marker-start-storage-composes-wow-reference" data-dediren-edge-marker-start="filled_diamond" markerWidth="10" markerHeight="10" refX="1" refY="5" orient="auto" markerUnits="strokeWidth"><path d="M 1 5 L 5 1 L 9 5 L 5 9 z" fill="#475569" stroke="#475569" stroke-width="1.1"/></marker><marker id="marker-end-storage-composes-wow-reference" data-dediren-edge-marker-end="filled_arrow" markerWidth="8" markerHeight="8" refX="8" refY="4" orient="auto" markerUnits="strokeWidth"><path d="M 0 0 L 8 4 L 0 8 z" fill="#475569"/></marker></defs><path d="M 1932.0 264.0 L 1932.0 504.0" fill="none" stroke="#475569" stroke-width="1.5" marker-start="url(#marker-start-storage-composes-wow-reference)" marker-end="url(#marker-end-storage-composes-wow-reference)"/><text x="1929.9" y="388.2" text-anchor="end" fill="#334155" stroke="#ffffff" stroke-width="4" stroke-linejoin="round" paint-order="stroke">blob container</text></g><g data-dediren-edge-id="storage-composes-data-protection"><defs><marker id="marker-start-storage-composes-data-protection" data-dediren-edge-marker-start="filled_diamond" markerWidth="10" markerHeight="10" refX="1" refY="5" orient="auto" markerUnits="strokeWidth"><path d="M 1 5 L 5 1 L 9 5 L 5 9 z" fill="#475569" stroke="#475569" stroke-width="1.1"/></marker><marker id="marker-end-storage-composes-data-protection" data-dediren-edge-marker-end="filled_arrow" markerWidth="8" markerHeight="8" refX="8" refY="4" orient="auto" markerUnits="strokeWidth"><path d="M 0 0 L 8 4 L 0 8 z" fill="#475569"/></marker></defs><path d="M 1985.3 264.0 L 1985.3 296.0 L 2212.0 296.0 L 2212.0 504.0" fill="none" stroke="#475569" stroke-width="1.5" marker-start="url(#marker-start-storage-composes-data-protection)" marker-end="url(#marker-end-storage-composes-data-protection)"/><text x="2098.7" y="312.8" text-anchor="middle" fill="#334155" stroke="#ffffff" stroke-width="4" stroke-linejoin="round" paint-order="stroke">blob container</text></g><g data-dediren-edge-id="key-vault-composes-data-protection-key"><defs><marker id="marker-start-key-vault-composes-data-protection-key" data-dediren-edge-marker-start="filled_diamond" markerWidth="10" markerHeight="10" refX="1" refY="5" orient="auto" markerUnits="strokeWidth"><path d="M 1 5 L 5 1 L 9 5 L 5 9 z" fill="#475569" stroke="#475569" stroke-width="1.1"/></marker><marker id="marker-end-key-vault-composes-data-protection-key" data-dediren-edge-marker-end="filled_arrow" markerWidth="8" markerHeight="8" refX="8" refY="4" orient="auto" markerUnits="strokeWidth"><path d="M 0 0 L 8 4 L 0 8 z" fill="#475569"/></marker></defs><path d="M 1752.0 264.0 L 1752.0 504.0" fill="none" stroke="#475569" stroke-width="1.5" marker-start="url(#marker-start-key-vault-composes-data-protection-key)" marker-end="url(#marker-end-key-vault-composes-data-protection-key)"/><text x="1749.9" y="388.2" text-anchor="end" fill="#334155" stroke="#ffffff" stroke-width="4" stroke-linejoin="round" paint-order="stroke">key</text></g><g data-dediren-edge-id="managed-identity-accesses-key-vault"><defs><marker id="marker-end-managed-identity-accesses-key-vault" data-dediren-edge-marker-end="open_arrow" markerWidth="9" markerHeight="9" refX="8" refY="4.5" orient="auto" markerUnits="strokeWidth"><path d="M 1 1 L 8 4.5 L 1 8" fill="none" stroke="#15803d" stroke-width="1.3" stroke-linecap="round" stroke-linejoin="round"/></marker></defs><path d="M 824.0 954.0 L 1248.0 954.0 L 1248.0 736.0 Q 1254.0 730.0 1248.0 724.0 L 1248.0 664.0 Q 1254.0 658.0 1248.0 652.0 L 1248.0 652.0 Q 1254.0 646.0 1248.0 640.0 L 1248.0 642.0 Q 1254.0 636.0 1248.0 630.0 L 1248.0 640.0 Q 1254.0 634.0 1248.0 628.0 L 1248.0 248.0 L 1262.0 248.0 Q 1268.0 242.0 1274.0 248.0 L 1365.3 248.0 Q 1371.3 242.0 1377.3 248.0 L 1672.0 248.0" fill="none" stroke="#15803d" stroke-width="1.5" stroke-dasharray="8 5" marker-end="url(#marker-end-managed-identity-accesses-key-vault)"/><text x="1036.0" y="927.6" text-anchor="middle" fill="#166534" stroke="#ffffff" stroke-width="4" stroke-linejoin="round" paint-order="stroke">Secrets User</text></g><g data-dediren-edge-id="managed-identity-accesses-cosmos"><defs><marker id="marker-end-managed-identity-accesses-cosmos" data-dediren-edge-marker-end="open_arrow" markerWidth="9" markerHeight="9" refX="8" refY="4.5" orient="auto" markerUnits="strokeWidth"><path d="M 1 1 L 8 4.5 L 1 8" fill="none" stroke="#15803d" stroke-width="1.3" stroke-linecap="round" stroke-linejoin="round"/></marker></defs><path d="M 824.0 990.0 L 1272.0 990.0 L 1272.0 736.0 Q 1278.0 730.0 1272.0 724.0 L 1272.0 668.0 L 1720.0 668.0" fill="none" stroke="#15803d" stroke-width="1.5" stroke-dasharray="8 5" marker-end="url(#marker-end-managed-identity-accesses-cosmos)"/><text x="1048.0" y="1035.6" text-anchor="middle" fill="#166534" stroke="#ffffff" stroke-width="4" stroke-linejoin="round" paint-order="stroke">Data Contributor</text></g><g data-dediren-edge-id="managed-identity-accesses-storage"><defs><marker id="marker-end-managed-identity-accesses-storage" data-dediren-edge-marker-end="open_arrow" markerWidth="9" markerHeight="9" refX="8" refY="4.5" orient="auto" markerUnits="strokeWidth"><path d="M 1 1 L 8 4.5 L 1 8" fill="none" stroke="#15803d" stroke-width="1.3" stroke-linecap="round" stroke-linejoin="round"/></marker></defs><path d="M 824.0 966.0 L 1266.0 966.0 Q 1272.0 960.0 1278.0 966.0 L 1351.3 966.0 L 1351.3 674.0 Q 1357.3 668.0 1351.3 662.0 L 1351.3 658.0 Q 1357.3 652.0 1351.3 646.0 L 1351.3 652.0 Q 1357.3 646.0 1351.3 640.0 L 1351.3 642.0 Q 1357.3 636.0 1351.3 630.0 L 1351.3 248.0 L 1351.3 248.0 Q 1351.3 242.0 1351.3 242.0 L 1672.0 242.0 Q 1678.0 242.0 1672.0 248.0 L 1878.7 248.0" fill="none" stroke="#15803d" stroke-width="1.5" stroke-dasharray="8 5" marker-end="url(#marker-end-managed-identity-accesses-storage)"/><text x="1201.1" y="1011.6" text-anchor="middle" fill="#166534" stroke="#ffffff" stroke-width="4" stroke-linejoin="round" paint-order="stroke">Blob/Queue/Table roles</text></g><g data-dediren-edge-id="managed-identity-accesses-app-insights"><defs><marker id="marker-end-managed-identity-accesses-app-insights" data-dediren-edge-marker-end="open_arrow" markerWidth="9" markerHeight="9" refX="8" refY="4.5" orient="auto" markerUnits="strokeWidth"><path d="M 1 1 L 8 4.5 L 1 8" fill="none" stroke="#15803d" stroke-width="1.3" stroke-linecap="round" stroke-linejoin="round"/></marker></defs><path d="M 664.0 978.0 L 520.0 978.0 L 520.0 848.4 L 376.0 848.4" fill="none" stroke="#15803d" stroke-width="1.5" stroke-dasharray="8 5" marker-end="url(#marker-end-managed-identity-accesses-app-insights)"/><text x="592.0" y="969.6" text-anchor="middle" fill="#166534" stroke="#ffffff" stroke-width="4" stroke-linejoin="round" paint-order="stroke">Metrics Publisher</text></g><g data-dediren-edge-id="managed-identity-accesses-data-protection-key"><defs><marker id="marker-end-managed-identity-accesses-data-protection-key" data-dediren-edge-marker-end="open_arrow" markerWidth="9" markerHeight="9" refX="8" refY="4.5" orient="auto" markerUnits="strokeWidth"><path d="M 1 1 L 8 4.5 L 1 8" fill="none" stroke="#15803d" stroke-width="1.3" stroke-linecap="round" stroke-linejoin="round"/></marker></defs><path d="M 824.0 978.0 L 1248.0 978.0 L 1248.0 954.0 Q 1254.0 954.0 1254.0 954.0 L 1254.0 568.0 Q 1254.0 562.0 1248.0 568.0 L 1248.0 568.0 L 1262.0 568.0 Q 1268.0 562.0 1274.0 568.0 L 1345.3 568.0 Q 1351.3 562.0 1357.3 568.0 L 1365.3 568.0 Q 1371.3 562.0 1377.3 568.0 L 1672.0 568.0" fill="none" stroke="#15803d" stroke-width="1.5" stroke-dasharray="8 5" marker-end="url(#marker-end-managed-identity-accesses-data-protection-key)"/><text x="970.3" y="1023.6" text-anchor="middle" fill="#166534" stroke="#ffffff" stroke-width="4" stroke-linejoin="round" paint-order="stroke">Crypto User</text></g><g data-dediren-edge-id="cosmos-throttle-alert-monitors-cosmos"><defs><marker id="marker-end-cosmos-throttle-alert-monitors-cosmos" data-dediren-edge-marker-end="open_arrow" markerWidth="9" markerHeight="9" refX="8" refY="4.5" orient="auto" markerUnits="strokeWidth"><path d="M 1 1 L 8 4.5 L 1 8" fill="none" stroke="#15803d" stroke-width="1.3" stroke-linecap="round" stroke-linejoin="round"/></marker></defs><path d="M 196.0 504.4 L 778.0 504.4 Q 784.0 498.4 790.0 504.4 L 958.0 504.4 L 958.0 620.0 L 1042.0 620.0 Q 1048.0 614.0 1054.0 620.0 L 1242.0 620.0 Q 1248.0 614.0 1254.0 620.0 L 1242.0 620.0 Q 1248.0 614.0 1254.0 620.0 L 1262.0 620.0 Q 1268.0 614.0 1274.0 620.0 L 1345.3 620.0 Q 1351.3 614.0 1357.3 620.0 L 1365.3 620.0 Q 1371.3 614.0 1377.3 620.0 L 1720.0 620.0" fill="none" stroke="#15803d" stroke-width="1.5" stroke-dasharray="8 5" marker-end="url(#marker-end-cosmos-throttle-alert-monitors-cosmos)"/><text x="577.0" y="521.2" text-anchor="middle" fill="#166534" stroke="#ffffff" stroke-width="4" stroke-linejoin="round" paint-order="stroke">monitors 429s</text></g><g data-dediren-node-id="static-web-apps"><rect data-dediren-node-shape="archimate_rectangle" x="36.0" y="36.0" width="160.0" height="80.0" rx="0" fill="#ecfdf3" stroke="#16a34a" stroke-width="1.5"/><g data-dediren-node-decorator="archimate_technology_node" data-dediren-icon-kind="node" data-dediren-icon-size="22"><rect x="168.0" y="49.0" width="18.0" height="12.8" rx="1.5" fill="#ecfdf3" stroke="#16a34a" stroke-width="1.5"/><path data-dediren-icon-part="node-3d-edges" d="M 168.0 49.0 L 172.0 45.0 L 190.0 45.0 L 186.0 49.0 M 186.0 49.0 L 190.0 45.0 M 186.0 61.7 L 190.0 57.8 M 190.0 45.0 L 190.0 57.8" fill="none" stroke="#16a34a" stroke-width="1.5" stroke-linejoin="round"/></g><text x="116.0" y="68.0" text-anchor="middle" dominant-baseline="middle" fill="#14532d" font-size="14.0"><tspan x="116.0" dy="0">Azure Static Web</tspan><tspan x="116.0" dy="16.0">Apps</tspan></text></g><g data-dediren-node-id="function-app"><rect data-dediren-node-shape="archimate_rectangle" x="704.0" y="618.0" width="160.0" height="80.0" rx="0" fill="#ecfdf3" stroke="#16a34a" stroke-width="1.5"/><g data-dediren-node-decorator="archimate_technology_node" data-dediren-icon-kind="node" data-dediren-icon-size="22"><rect x="836.0" y="631.0" width="18.0" height="12.8" rx="1.5" fill="#ecfdf3" stroke="#16a34a" stroke-width="1.5"/><path data-dediren-icon-part="node-3d-edges" d="M 836.0 631.0 L 840.0 627.0 L 858.0 627.0 L 854.0 631.0 M 854.0 631.0 L 858.0 627.0 M 854.0 643.7 L 858.0 639.8 M 858.0 627.0 L 858.0 639.8" fill="none" stroke="#16a34a" stroke-width="1.5" stroke-linejoin="round"/></g><text x="784.0" y="650.0" text-anchor="middle" dominant-baseline="middle" fill="#14532d" font-size="14.0"><tspan x="784.0" dy="0">Azure Function</tspan><tspan x="784.0" dy="16.0">App</tspan></text></g><g data-dediren-node-id="app-service-plan"><rect data-dediren-node-shape="archimate_rectangle" x="704.0" y="298.0" width="160.0" height="80.0" rx="0" fill="#ecfdf3" stroke="#16a34a" stroke-width="1.5"/><g data-dediren-node-decorator="archimate_technology_node" data-dediren-icon-kind="node" data-dediren-icon-size="22"><rect x="836.0" y="311.0" width="18.0" height="12.8" rx="1.5" fill="#ecfdf3" stroke="#16a34a" stroke-width="1.5"/><path data-dediren-icon-part="node-3d-edges" d="M 836.0 311.0 L 840.0 307.0 L 858.0 307.0 L 854.0 311.0 M 854.0 311.0 L 858.0 307.0 M 854.0 323.7 L 858.0 319.8 M 858.0 307.0 L 858.0 319.8" fill="none" stroke="#16a34a" stroke-width="1.5" stroke-linejoin="round"/></g><text x="784.0" y="329.9" text-anchor="middle" dominant-baseline="middle" fill="#14532d" font-size="14.0"><tspan x="784.0" dy="0">App Service Plan</tspan><tspan x="784.0" dy="16.0">(Y1)</tspan></text></g><g data-dediren-node-id="functions-runtime"><rect data-dediren-node-shape="archimate_rectangle" x="1224.0" y="938.0" width="160.0" height="80.0" rx="0" fill="#ecfdf3" stroke="#16a34a" stroke-width="1.5"/><g data-dediren-node-decorator="archimate_system_software" data-dediren-icon-kind="system_software" data-dediren-icon-size="22"><ellipse data-dediren-icon-part="system-software-disks" cx="1368.8" cy="954.9" rx="5.7" ry="5.7" fill="none" stroke="#16a34a" stroke-width="1.5"/><ellipse data-dediren-icon-part="system-software-disks" cx="1364.4" cy="958.0" rx="5.7" ry="5.7" fill="#ecfdf3" stroke="#16a34a" stroke-width="1.5"/></g><text x="1304.0" y="970.0" text-anchor="middle" dominant-baseline="middle" fill="#14532d" font-size="14.0"><tspan x="1304.0" dy="0">Azure Functions</tspan><tspan x="1304.0" dy="16.0">runtime</tspan></text></g><g data-dediren-node-id="managed-identity"><rect data-dediren-node-shape="archimate_rounded_rectangle" x="664.0" y="938.0" width="160.0" height="80.0" rx="4.0" fill="#ecfdf3" stroke="#16a34a" stroke-width="1.5"/><g data-dediren-node-decorator="archimate_technology_service" data-dediren-icon-kind="service" data-dediren-icon-size="22"><rect x="796.0" y="949.6" width="22.0" height="11.0" rx="4.0" fill="#ecfdf3" stroke="#16a34a" stroke-width="1.5"/></g><text x="744.0" y="970.0" text-anchor="middle" dominant-baseline="middle" fill="#14532d" font-size="14.0"><tspan x="744.0" dy="0">Function App</tspan><tspan x="744.0" dy="16.0">managed identity</tspan></text></g><g data-dediren-node-id="cosmos-account"><rect data-dediren-node-shape="archimate_rectangle" x="1720.0" y="604.0" width="160.0" height="80.0" rx="0" fill="#ecfdf3" stroke="#16a34a" stroke-width="1.5"/><g data-dediren-node-decorator="archimate_technology_node" data-dediren-icon-kind="node" data-dediren-icon-size="22"><rect x="1852.0" y="617.0" width="18.0" height="12.8" rx="1.5" fill="#ecfdf3" stroke="#16a34a" stroke-width="1.5"/><path data-dediren-icon-part="node-3d-edges" d="M 1852.0 617.0 L 1856.0 613.0 L 1874.0 613.0 L 1870.0 617.0 M 1870.0 617.0 L 1874.0 613.0 M 1870.0 629.7 L 1874.0 625.8 M 1874.0 613.0 L 1874.0 625.8" fill="none" stroke="#16a34a" stroke-width="1.5" stroke-linejoin="round"/></g><text x="1800.0" y="636.0" text-anchor="middle" dominant-baseline="middle" fill="#14532d" font-size="14.0"><tspan x="1800.0" dy="0">Cosmos DB</tspan><tspan x="1800.0" dy="16.0">account</tspan></text></g><g data-dediren-node-id="cosmos-database"><rect data-dediren-node-shape="archimate_rectangle" x="1720.0" y="924.0" width="160.0" height="80.0" rx="0" fill="#f7fee7" stroke="#65a30d" stroke-width="1.5"/><g data-dediren-node-decorator="archimate_artifact" data-dediren-icon-kind="artifact" data-dediren-icon-size="22"><path data-dediren-icon-part="artifact-document" d="M 1854.2 932.0 L 1864.8 932.0 L 1870.9 938.2 L 1870.9 951.8 L 1854.2 951.8 Z M 1864.8 932.0 L 1864.8 938.2 L 1870.9 938.2" fill="#f7fee7" stroke="#65a30d" stroke-width="1.5"/></g><text x="1800.0" y="956.0" text-anchor="middle" dominant-baseline="middle" fill="#365314" font-size="14.0"><tspan x="1800.0" dy="0">Cosmos SQL</tspan><tspan x="1800.0" dy="16.0">database</tspan></text></g><g data-dediren-node-id="cosmos-runs"><rect data-dediren-node-shape="archimate_rectangle" x="2232.0" y="1244.0" width="160.0" height="80.0" rx="0" fill="#f7fee7" stroke="#65a30d" stroke-width="1.5"/><g data-dediren-node-decorator="archimate_artifact" data-dediren-icon-kind="artifact" data-dediren-icon-size="22"><path data-dediren-icon-part="artifact-document" d="M 2366.2 1252.0 L 2376.8 1252.0 L 2382.9 1258.2 L 2382.9 1271.8 L 2366.2 1271.8 Z M 2376.8 1252.0 L 2376.8 1258.2 L 2382.9 1258.2" fill="#f7fee7" stroke="#65a30d" stroke-width="1.5"/></g><text x="2312.0" y="1284.0" text-anchor="middle" dominant-baseline="middle" fill="#365314" font-size="14.0">runs container</text></g><g data-dediren-node-id="cosmos-raiders"><rect data-dediren-node-shape="archimate_rectangle" x="2512.0" y="1244.0" width="160.0" height="80.0" rx="0" fill="#f7fee7" stroke="#65a30d" stroke-width="1.5"/><g data-dediren-node-decorator="archimate_artifact" data-dediren-icon-kind="artifact" data-dediren-icon-size="22"><path data-dediren-icon-part="artifact-document" d="M 2646.2 1252.0 L 2656.8 1252.0 L 2662.9 1258.2 L 2662.9 1271.8 L 2646.2 1271.8 Z M 2656.8 1252.0 L 2656.8 1258.2 L 2662.9 1258.2" fill="#f7fee7" stroke="#65a30d" stroke-width="1.5"/></g><text x="2592.0" y="1276.0" text-anchor="middle" dominant-baseline="middle" fill="#365314" font-size="14.0"><tspan x="2592.0" dy="0">raiders</tspan><tspan x="2592.0" dy="16.0">container</tspan></text></g><g data-dediren-node-id="cosmos-guilds"><rect data-dediren-node-shape="archimate_rectangle" x="1672.0" y="1244.0" width="160.0" height="80.0" rx="0" fill="#f7fee7" stroke="#65a30d" stroke-width="1.5"/><g data-dediren-node-decorator="archimate_artifact" data-dediren-icon-kind="artifact" data-dediren-icon-size="22"><path data-dediren-icon-part="artifact-document" d="M 1806.2 1252.0 L 1816.8 1252.0 L 1822.9 1258.2 L 1822.9 1271.8 L 1806.2 1271.8 Z M 1816.8 1252.0 L 1816.8 1258.2 L 1822.9 1258.2" fill="#f7fee7" stroke="#65a30d" stroke-width="1.5"/></g><text x="1752.0" y="1284.0" text-anchor="middle" dominant-baseline="middle" fill="#365314" font-size="14.0">guilds container</text></g><g data-dediren-node-id="cosmos-idempotency"><rect data-dediren-node-shape="archimate_rectangle" x="1952.0" y="1244.0" width="160.0" height="80.0" rx="0" fill="#f7fee7" stroke="#65a30d" stroke-width="1.5"/><g data-dediren-node-decorator="archimate_artifact" data-dediren-icon-kind="artifact" data-dediren-icon-size="22"><path data-dediren-icon-part="artifact-document" d="M 2086.2 1252.0 L 2096.8 1252.0 L 2102.9 1258.2 L 2102.9 1271.8 L 2086.2 1271.8 Z M 2096.8 1252.0 L 2096.8 1258.2 L 2102.9 1258.2" fill="#f7fee7" stroke="#65a30d" stroke-width="1.5"/></g><text x="2032.0" y="1276.0" text-anchor="middle" dominant-baseline="middle" fill="#365314" font-size="14.0"><tspan x="2032.0" dy="0">idempotency</tspan><tspan x="2032.0" dy="16.0">container</tspan></text></g><g data-dediren-node-id="storage-account"><rect data-dediren-node-shape="archimate_rectangle" x="1878.7" y="184.0" width="160.0" height="80.0" rx="0" fill="#ecfdf3" stroke="#16a34a" stroke-width="1.5"/><g data-dediren-node-decorator="archimate_technology_node" data-dediren-icon-kind="node" data-dediren-icon-size="22"><rect x="2010.7" y="197.0" width="18.0" height="12.8" rx="1.5" fill="#ecfdf3" stroke="#16a34a" stroke-width="1.5"/><path data-dediren-icon-part="node-3d-edges" d="M 2010.7 197.0 L 2014.6 193.0 L 2032.7 193.0 L 2028.7 197.0 M 2028.7 197.0 L 2032.7 193.0 M 2028.7 209.7 L 2032.7 205.8 M 2032.7 193.0 L 2032.7 205.8" fill="none" stroke="#16a34a" stroke-width="1.5" stroke-linejoin="round"/></g><text x="1958.7" y="224.0" text-anchor="middle" dominant-baseline="middle" fill="#14532d" font-size="14.0">Storage account</text></g><g data-dediren-node-id="wow-reference-container"><rect data-dediren-node-shape="archimate_rectangle" x="1852.0" y="504.0" width="160.0" height="80.0" rx="0" fill="#f7fee7" stroke="#65a30d" stroke-width="1.5"/><g data-dediren-node-decorator="archimate_artifact" data-dediren-icon-kind="artifact" data-dediren-icon-size="22"><path data-dediren-icon-part="artifact-document" d="M 1986.2 512.0 L 1996.8 512.0 L 2002.9 518.2 L 2002.9 531.8 L 1986.2 531.8 Z M 1996.8 512.0 L 1996.8 518.2 L 2002.9 518.2" fill="#f7fee7" stroke="#65a30d" stroke-width="1.5"/></g><text x="1932.0" y="536.0" text-anchor="middle" dominant-baseline="middle" fill="#365314" font-size="14.0"><tspan x="1932.0" dy="0">wow reference</tspan><tspan x="1932.0" dy="16.0">blobs</tspan></text></g><g data-dediren-node-id="data-protection-container"><rect data-dediren-node-shape="archimate_rectangle" x="2132.0" y="504.0" width="160.0" height="80.0" rx="0" fill="#f7fee7" stroke="#65a30d" stroke-width="1.5"/><g data-dediren-node-decorator="archimate_artifact" data-dediren-icon-kind="artifact" data-dediren-icon-size="22"><path data-dediren-icon-part="artifact-document" d="M 2266.2 512.0 L 2276.8 512.0 L 2282.9 518.2 L 2282.9 531.8 L 2266.2 531.8 Z M 2276.8 512.0 L 2276.8 518.2 L 2282.9 518.2" fill="#f7fee7" stroke="#65a30d" stroke-width="1.5"/></g><text x="2212.0" y="536.0" text-anchor="middle" dominant-baseline="middle" fill="#365314" font-size="14.0"><tspan x="2212.0" dy="0">data-protection</tspan><tspan x="2212.0" dy="16.0">key ring blob</tspan></text></g><g data-dediren-node-id="key-vault"><rect data-dediren-node-shape="archimate_rectangle" x="1672.0" y="184.0" width="160.0" height="80.0" rx="0" fill="#ecfdf3" stroke="#16a34a" stroke-width="1.5"/><g data-dediren-node-decorator="archimate_technology_node" data-dediren-icon-kind="node" data-dediren-icon-size="22"><rect x="1804.0" y="197.0" width="18.0" height="12.8" rx="1.5" fill="#ecfdf3" stroke="#16a34a" stroke-width="1.5"/><path data-dediren-icon-part="node-3d-edges" d="M 1804.0 197.0 L 1808.0 193.0 L 1826.0 193.0 L 1822.0 197.0 M 1822.0 197.0 L 1826.0 193.0 M 1822.0 209.7 L 1826.0 205.8 M 1826.0 193.0 L 1826.0 205.8" fill="none" stroke="#16a34a" stroke-width="1.5" stroke-linejoin="round"/></g><text x="1752.0" y="224.0" text-anchor="middle" dominant-baseline="middle" fill="#14532d" font-size="14.0">Key Vault</text></g><g data-dediren-node-id="data-protection-key"><rect data-dediren-node-shape="archimate_rectangle" x="1672.0" y="504.0" width="160.0" height="80.0" rx="0" fill="#f7fee7" stroke="#65a30d" stroke-width="1.5"/><g data-dediren-node-decorator="archimate_artifact" data-dediren-icon-kind="artifact" data-dediren-icon-size="22"><path data-dediren-icon-part="artifact-document" d="M 1806.2 512.0 L 1816.8 512.0 L 1822.9 518.2 L 1822.9 531.8 L 1806.2 531.8 Z M 1816.8 512.0 L 1816.8 518.2 L 1822.9 518.2" fill="#f7fee7" stroke="#65a30d" stroke-width="1.5"/></g><text x="1752.0" y="536.0" text-anchor="middle" dominant-baseline="middle" fill="#365314" font-size="14.0"><tspan x="1752.0" dy="0">Data Protection</tspan><tspan x="1752.0" dy="16.0">key</tspan></text></g><g data-dediren-node-id="application-insights"><rect data-dediren-node-shape="archimate_rectangle" x="216.0" y="784.4" width="160.0" height="80.0" rx="0" fill="#ecfdf3" stroke="#16a34a" stroke-width="1.5"/><g data-dediren-node-decorator="archimate_technology_node" data-dediren-icon-kind="node" data-dediren-icon-size="22"><rect x="348.0" y="797.4" width="18.0" height="12.8" rx="1.5" fill="#ecfdf3" stroke="#16a34a" stroke-width="1.5"/><path data-dediren-icon-part="node-3d-edges" d="M 348.0 797.4 L 352.0 793.4 L 370.0 793.4 L 366.0 797.4 M 366.0 797.4 L 370.0 793.4 M 366.0 810.1 L 370.0 806.2 M 370.0 793.4 L 370.0 806.2" fill="none" stroke="#16a34a" stroke-width="1.5" stroke-linejoin="round"/></g><text x="296.0" y="816.4" text-anchor="middle" dominant-baseline="middle" fill="#14532d" font-size="14.0"><tspan x="296.0" dy="0">Application</tspan><tspan x="296.0" dy="16.0">Insights</tspan></text></g><g data-dediren-node-id="log-analytics"><rect data-dediren-node-shape="archimate_rectangle" x="216.0" y="464.4" width="160.0" height="80.0" rx="0" fill="#ecfdf3" stroke="#16a34a" stroke-width="1.5"/><g data-dediren-node-decorator="archimate_technology_node" data-dediren-icon-kind="node" data-dediren-icon-size="22"><rect x="348.0" y="477.4" width="18.0" height="12.8" rx="1.5" fill="#ecfdf3" stroke="#16a34a" stroke-width="1.5"/><path data-dediren-icon-part="node-3d-edges" d="M 348.0 477.4 L 352.0 473.4 L 370.0 473.4 L 366.0 477.4 M 366.0 477.4 L 370.0 473.4 M 366.0 490.1 L 370.0 486.2 M 370.0 473.4 L 370.0 486.2" fill="none" stroke="#16a34a" stroke-width="1.5" stroke-linejoin="round"/></g><text x="296.0" y="496.3" text-anchor="middle" dominant-baseline="middle" fill="#14532d" font-size="14.0"><tspan x="296.0" dy="0">Log Analytics</tspan><tspan x="296.0" dy="16.0">workspace</tspan></text></g><g data-dediren-node-id="cosmos-throttle-alert"><rect data-dediren-node-shape="archimate_rounded_rectangle" x="36.0" y="464.4" width="160.0" height="80.0" rx="4.0" fill="#ecfdf3" stroke="#16a34a" stroke-width="1.5"/><g data-dediren-node-decorator="archimate_technology_service" data-dediren-icon-kind="service" data-dediren-icon-size="22"><rect x="168.0" y="476.0" width="22.0" height="11.0" rx="4.0" fill="#ecfdf3" stroke="#16a34a" stroke-width="1.5"/></g><text x="116.0" y="496.3" text-anchor="middle" dominant-baseline="middle" fill="#14532d" font-size="14.0"><tspan x="116.0" dy="0">Cosmos throttle</tspan><tspan x="116.0" dy="16.0">alert</tspan></text></g><g data-dediren-node-id="lfm-app"><rect data-dediren-node-shape="archimate_rectangle" x="436.0" y="36.0" width="160.0" height="80.0" rx="0" fill="#e8f3ff" stroke="#2563eb" stroke-width="1.5"/><g data-dediren-node-decorator="archimate_application_component" data-dediren-icon-kind="component" data-dediren-icon-size="22"><rect x="572.0" y="45.0" width="18.0" height="15.8" rx="1.5" fill="#e8f3ff" stroke="#2563eb" stroke-width="1.5"/><rect x="568.0" y="47.6" width="7.9" height="5.7" rx="1.2" fill="#e8f3ff" stroke="#2563eb" stroke-width="1.5"/><rect x="568.0" y="54.7" width="7.9" height="5.7" rx="1.2" fill="#e8f3ff" stroke="#2563eb" stroke-width="1.5"/></g><text x="516.0" y="76.0" text-anchor="middle" dominant-baseline="middle" fill="#172554" font-size="14.0">Lfm.App</text></g><g data-dediren-node-id="lfm-api"><rect data-dediren-node-shape="archimate_rectangle" x="944.0" y="938.0" width="160.0" height="80.0" rx="0" fill="#e8f3ff" stroke="#2563eb" stroke-width="1.5"/><g data-dediren-node-decorator="archimate_application_component" data-dediren-icon-kind="component" data-dediren-icon-size="22"><rect x="1080.0" y="947.0" width="18.0" height="15.8" rx="1.5" fill="#e8f3ff" stroke="#2563eb" stroke-width="1.5"/><rect x="1076.0" y="949.6" width="7.9" height="5.7" rx="1.2" fill="#e8f3ff" stroke="#2563eb" stroke-width="1.5"/><rect x="1076.0" y="956.7" width="7.9" height="5.7" rx="1.2" fill="#e8f3ff" stroke="#2563eb" stroke-width="1.5"/></g><text x="1024.0" y="978.0" text-anchor="middle" dominant-baseline="middle" fill="#172554" font-size="14.0">Lfm.Api</text></g></g></svg>

