<svg xmlns="http://www.w3.org/2000/svg" width="2016" height="1804" viewBox="-12.0 -12.0 2016.0 1804.0"><rect x="-12.0" y="-12.0" width="2016.0" height="1804.0" fill="#ffffff"/><g font-family="Inter, Arial, sans-serif" font-size="14.0"><g data-dediren-edge-id="swa-hosts-app"><defs><marker id="marker-end-swa-hosts-app" data-dediren-edge-marker-end="filled_circle" markerWidth="8" markerHeight="8" refX="1" refY="4" orient="auto" markerUnits="strokeWidth"><circle cx="4" cy="4" r="3" fill="#64748b" stroke="#64748b" stroke-width="1"/></marker></defs><path d="M 172.0 52.0 L 412.0 52.0" fill="none" stroke="#64748b" stroke-width="1.5" marker-end="url(#marker-end-swa-hosts-app)"/><text x="292.0" y="43.6" text-anchor="middle" fill="#334155" stroke="#ffffff" stroke-width="4" stroke-linejoin="round" paint-order="stroke">hosts</text></g><g data-dediren-edge-id="function-app-hosts-api"><defs><marker id="marker-end-function-app-hosts-api" data-dediren-edge-marker-end="filled_circle" markerWidth="8" markerHeight="8" refX="1" refY="4" orient="auto" markerUnits="strokeWidth"><circle cx="4" cy="4" r="3" fill="#64748b" stroke="#64748b" stroke-width="1"/></marker></defs><path d="M 1580.0 1114.7 L 1612.0 1114.7 L 1612.0 941.3 L 1820.0 941.3" fill="none" stroke="#64748b" stroke-width="1.5" marker-end="url(#marker-end-function-app-hosts-api)"/><text x="1716.0" y="932.9" text-anchor="middle" fill="#334155" stroke="#ffffff" stroke-width="4" stroke-linejoin="round" paint-order="stroke">hosts</text></g><g data-dediren-edge-id="plan-serves-function-app"><defs><marker id="marker-end-plan-serves-function-app" data-dediren-edge-marker-end="open_arrow" markerWidth="9" markerHeight="9" refX="8" refY="4.5" orient="auto" markerUnits="strokeWidth"><path d="M 1 1 L 8 4.5 L 1 8" fill="none" stroke="#2563eb" stroke-width="1.3" stroke-linecap="round" stroke-linejoin="round"/></marker></defs><path d="M 1156.0 657.3 L 1368.0 657.3 L 1368.0 1110.9 L 1420.0 1110.9" fill="none" stroke="#2563eb" stroke-width="1.5" marker-end="url(#marker-end-plan-serves-function-app)"/><text x="1262.0" y="674.1" text-anchor="middle" fill="#1e3a8a" stroke="#ffffff" stroke-width="4" stroke-linejoin="round" paint-order="stroke">hosts plan</text></g><g data-dediren-edge-id="function-app-composes-runtime"><defs><marker id="marker-start-function-app-composes-runtime" data-dediren-edge-marker-start="filled_diamond" markerWidth="10" markerHeight="10" refX="1" refY="5" orient="auto" markerUnits="strokeWidth"><path d="M 1 5 L 5 1 L 9 5 L 5 9 z" fill="#475569" stroke="#475569" stroke-width="1.1"/></marker><marker id="marker-end-function-app-composes-runtime" data-dediren-edge-marker-end="filled_arrow" markerWidth="8" markerHeight="8" refX="8" refY="4" orient="auto" markerUnits="strokeWidth"><path d="M 0 0 L 8 4 L 0 8 z" fill="#475569"/></marker></defs><path d="M 1580.0 1141.3 L 1820.0 1141.3" fill="none" stroke="#475569" stroke-width="1.5" marker-start="url(#marker-start-function-app-composes-runtime)" marker-end="url(#marker-end-function-app-composes-runtime)"/><text x="1669.6" y="1127.5" text-anchor="start" fill="#334155" stroke="#ffffff" stroke-width="4" stroke-linejoin="round" paint-order="stroke">runtime</text></g><g data-dediren-edge-id="function-app-has-managed-identity"><defs><marker id="marker-start-function-app-has-managed-identity" data-dediren-edge-marker-start="filled_diamond" markerWidth="10" markerHeight="10" refX="1" refY="5" orient="auto" markerUnits="strokeWidth"><path d="M 1 5 L 5 1 L 9 5 L 5 9 z" fill="#475569" stroke="#475569" stroke-width="1.1"/></marker><marker id="marker-end-function-app-has-managed-identity" data-dediren-edge-marker-end="filled_arrow" markerWidth="8" markerHeight="8" refX="8" refY="4" orient="auto" markerUnits="strokeWidth"><path d="M 0 0 L 8 4 L 0 8 z" fill="#475569"/></marker></defs><path d="M 1420.0 1133.7 L 1328.0 1133.7 L 1328.0 1017.3 L 844.0 1017.3 L 844.0 1169.9 L 752.0 1169.9" fill="none" stroke="#475569" stroke-width="1.5" marker-start="url(#marker-start-function-app-has-managed-identity)" marker-end="url(#marker-end-function-app-has-managed-identity)"/><text x="1374.0" y="1179.3" text-anchor="middle" fill="#334155" stroke="#ffffff" stroke-width="4" stroke-linejoin="round" paint-order="stroke">identity</text></g><g data-dediren-edge-id="cosmos-serves-function-app"><defs><marker id="marker-end-cosmos-serves-function-app" data-dediren-edge-marker-end="open_arrow" markerWidth="9" markerHeight="9" refX="8" refY="4.5" orient="auto" markerUnits="strokeWidth"><path d="M 1 1 L 8 4.5 L 1 8" fill="none" stroke="#2563eb" stroke-width="1.3" stroke-linecap="round" stroke-linejoin="round"/></marker></defs><path d="M 1156.0 470.7 L 1388.0 470.7 L 1388.0 1099.4 L 1420.0 1099.4" fill="none" stroke="#2563eb" stroke-width="1.5" marker-end="url(#marker-end-cosmos-serves-function-app)"/><text x="1390.1" y="689.2" text-anchor="start" fill="#1e3a8a" stroke="#ffffff" stroke-width="4" stroke-linejoin="round" paint-order="stroke">data plane</text></g><g data-dediren-edge-id="storage-serves-function-app"><defs><marker id="marker-end-storage-serves-function-app" data-dediren-edge-marker-end="open_arrow" markerWidth="9" markerHeight="9" refX="8" refY="4.5" orient="auto" markerUnits="strokeWidth"><path d="M 1 1 L 8 4.5 L 1 8" fill="none" stroke="#2563eb" stroke-width="1.3" stroke-linecap="round" stroke-linejoin="round"/></marker></defs><path d="M 1156.0 1508.0 L 1208.0 1508.0 L 1208.0 1156.6 L 1420.0 1156.6" fill="none" stroke="#2563eb" stroke-width="1.5" marker-end="url(#marker-end-storage-serves-function-app)"/><text x="1239.1" y="1499.6" text-anchor="middle" fill="#1e3a8a" stroke="#ffffff" stroke-width="4" stroke-linejoin="round" paint-order="stroke">blob data</text></g><g data-dediren-edge-id="key-vault-serves-function-app"><defs><marker id="marker-end-key-vault-serves-function-app" data-dediren-edge-marker-end="open_arrow" markerWidth="9" markerHeight="9" refX="8" refY="4.5" orient="auto" markerUnits="strokeWidth"><path d="M 1 1 L 8 4.5 L 1 8" fill="none" stroke="#2563eb" stroke-width="1.3" stroke-linecap="round" stroke-linejoin="round"/></marker></defs><path d="M 1156.0 1168.0 L 1188.0 1168.0 L 1188.0 1132.6 L 1308.0 1132.6 L 1308.0 1145.1 L 1420.0 1145.1" fill="none" stroke="#2563eb" stroke-width="1.5" marker-end="url(#marker-end-key-vault-serves-function-app)"/><text x="1172.0" y="1141.6" text-anchor="middle" fill="#1e3a8a" stroke="#ffffff" stroke-width="4" stroke-linejoin="round" paint-order="stroke">secrets</text></g><g data-dediren-edge-id="app-insights-serves-function-app"><defs><marker id="marker-end-app-insights-serves-function-app" data-dediren-edge-marker-end="open_arrow" markerWidth="9" markerHeight="9" refX="8" refY="4.5" orient="auto" markerUnits="strokeWidth"><path d="M 1 1 L 8 4.5 L 1 8" fill="none" stroke="#2563eb" stroke-width="1.3" stroke-linecap="round" stroke-linejoin="round"/></marker></defs><path d="M 1156.0 857.3 L 1348.0 857.3 L 1348.0 1122.3 L 1420.0 1122.3" fill="none" stroke="#2563eb" stroke-width="1.5" marker-end="url(#marker-end-app-insights-serves-function-app)"/><text x="1252.0" y="874.1" text-anchor="middle" fill="#1e3a8a" stroke="#ffffff" stroke-width="4" stroke-linejoin="round" paint-order="stroke">telemetry</text></g><g data-dediren-edge-id="log-analytics-aggregates-app-insights"><defs><marker id="marker-start-log-analytics-aggregates-app-insights" data-dediren-edge-marker-start="hollow_diamond" markerWidth="10" markerHeight="10" refX="1" refY="5" orient="auto" markerUnits="strokeWidth"><path d="M 1 5 L 5 1 L 9 5 L 5 9 z" fill="#ffffff" stroke="#475569" stroke-width="1.1"/></marker><marker id="marker-end-log-analytics-aggregates-app-insights" data-dediren-edge-marker-end="filled_arrow" markerWidth="8" markerHeight="8" refX="8" refY="4" orient="auto" markerUnits="strokeWidth"><path d="M 0 0 L 8 4 L 0 8 z" fill="#475569"/></marker></defs><path d="M 752.0 844.0 L 996.0 844.0" fill="none" stroke="#475569" stroke-width="1.5" marker-start="url(#marker-start-log-analytics-aggregates-app-insights)" marker-end="url(#marker-end-log-analytics-aggregates-app-insights)"/><text x="874.0" y="835.6" text-anchor="middle" fill="#334155" stroke="#ffffff" stroke-width="4" stroke-linejoin="round" paint-order="stroke">workspace</text></g><g data-dediren-edge-id="log-analytics-aggregates-diagnostics"><defs><marker id="marker-start-log-analytics-aggregates-diagnostics" data-dediren-edge-marker-start="hollow_diamond" markerWidth="10" markerHeight="10" refX="1" refY="5" orient="auto" markerUnits="strokeWidth"><path d="M 1 5 L 5 1 L 9 5 L 5 9 z" fill="#ffffff" stroke="#475569" stroke-width="1.1"/></marker><marker id="marker-end-log-analytics-aggregates-diagnostics" data-dediren-edge-marker-end="filled_arrow" markerWidth="8" markerHeight="8" refX="8" refY="4" orient="auto" markerUnits="strokeWidth"><path d="M 0 0 L 8 4 L 0 8 z" fill="#475569"/></marker></defs><path d="M 752.0 817.3 L 784.0 817.3 L 784.0 453.3 L 908.0 453.3 L 908.0 457.3 L 996.0 457.3" fill="none" stroke="#475569" stroke-width="1.5" marker-start="url(#marker-start-log-analytics-aggregates-diagnostics)" marker-end="url(#marker-end-log-analytics-aggregates-diagnostics)"/><text x="833.7" y="808.9" text-anchor="middle" fill="#334155" stroke="#ffffff" stroke-width="4" stroke-linejoin="round" paint-order="stroke">diagnostics</text></g><g data-dediren-edge-id="cosmos-composes-database"><defs><marker id="marker-start-cosmos-composes-database" data-dediren-edge-marker-start="filled_diamond" markerWidth="10" markerHeight="10" refX="1" refY="5" orient="auto" markerUnits="strokeWidth"><path d="M 1 5 L 5 1 L 9 5 L 5 9 z" fill="#475569" stroke="#475569" stroke-width="1.1"/></marker><marker id="marker-end-cosmos-composes-database" data-dediren-edge-marker-end="filled_arrow" markerWidth="8" markerHeight="8" refX="8" refY="4" orient="auto" markerUnits="strokeWidth"><path d="M 0 0 L 8 4 L 0 8 z" fill="#475569"/></marker></defs><path d="M 1156.0 444.0 L 1420.0 444.0" fill="none" stroke="#475569" stroke-width="1.5" marker-start="url(#marker-start-cosmos-composes-database)" marker-end="url(#marker-end-cosmos-composes-database)"/><text x="1253.3" y="430.2" text-anchor="start" fill="#334155" stroke="#ffffff" stroke-width="4" stroke-linejoin="round" paint-order="stroke">database</text></g><g data-dediren-edge-id="database-composes-runs"><defs><marker id="marker-start-database-composes-runs" data-dediren-edge-marker-start="filled_diamond" markerWidth="10" markerHeight="10" refX="1" refY="5" orient="auto" markerUnits="strokeWidth"><path d="M 1 5 L 5 1 L 9 5 L 5 9 z" fill="#475569" stroke="#475569" stroke-width="1.1"/></marker><marker id="marker-end-database-composes-runs" data-dediren-edge-marker-end="filled_arrow" markerWidth="8" markerHeight="8" refX="8" refY="4" orient="auto" markerUnits="strokeWidth"><path d="M 0 0 L 8 4 L 0 8 z" fill="#475569"/></marker></defs><path d="M 1580.0 420.0 L 1612.0 420.0 L 1612.0 52.0 L 1820.0 52.0" fill="none" stroke="#475569" stroke-width="1.5" marker-start="url(#marker-start-database-composes-runs)" marker-end="url(#marker-end-database-composes-runs)"/><text x="1653.1" y="411.6" text-anchor="middle" fill="#334155" stroke="#ffffff" stroke-width="4" stroke-linejoin="round" paint-order="stroke">container</text></g><g data-dediren-edge-id="database-composes-raiders"><defs><marker id="marker-start-database-composes-raiders" data-dediren-edge-marker-start="filled_diamond" markerWidth="10" markerHeight="10" refX="1" refY="5" orient="auto" markerUnits="strokeWidth"><path d="M 1 5 L 5 1 L 9 5 L 5 9 z" fill="#475569" stroke="#475569" stroke-width="1.1"/></marker><marker id="marker-end-database-composes-raiders" data-dediren-edge-marker-end="filled_arrow" markerWidth="8" markerHeight="8" refX="8" refY="4" orient="auto" markerUnits="strokeWidth"><path d="M 0 0 L 8 4 L 0 8 z" fill="#475569"/></marker></defs><path d="M 1580.0 436.0 L 1632.0 436.0 L 1632.0 252.0 L 1820.0 252.0" fill="none" stroke="#475569" stroke-width="1.5" marker-start="url(#marker-start-database-composes-raiders)" marker-end="url(#marker-end-database-composes-raiders)"/><text x="1663.1" y="481.6" text-anchor="middle" fill="#334155" stroke="#ffffff" stroke-width="4" stroke-linejoin="round" paint-order="stroke">container</text></g><g data-dediren-edge-id="database-composes-guilds"><defs><marker id="marker-start-database-composes-guilds" data-dediren-edge-marker-start="filled_diamond" markerWidth="10" markerHeight="10" refX="1" refY="5" orient="auto" markerUnits="strokeWidth"><path d="M 1 5 L 5 1 L 9 5 L 5 9 z" fill="#475569" stroke="#475569" stroke-width="1.1"/></marker><marker id="marker-end-database-composes-guilds" data-dediren-edge-marker-end="filled_arrow" markerWidth="8" markerHeight="8" refX="8" refY="4" orient="auto" markerUnits="strokeWidth"><path d="M 0 0 L 8 4 L 0 8 z" fill="#475569"/></marker></defs><path d="M 1580.0 452.0 L 1820.0 452.0" fill="none" stroke="#475569" stroke-width="1.5" marker-start="url(#marker-start-database-composes-guilds)" marker-end="url(#marker-end-database-composes-guilds)"/><text x="1700.0" y="443.6" text-anchor="middle" fill="#334155" stroke="#ffffff" stroke-width="4" stroke-linejoin="round" paint-order="stroke">container</text></g><g data-dediren-edge-id="database-composes-idempotency"><defs><marker id="marker-start-database-composes-idempotency" data-dediren-edge-marker-start="filled_diamond" markerWidth="10" markerHeight="10" refX="1" refY="5" orient="auto" markerUnits="strokeWidth"><path d="M 1 5 L 5 1 L 9 5 L 5 9 z" fill="#475569" stroke="#475569" stroke-width="1.1"/></marker><marker id="marker-end-database-composes-idempotency" data-dediren-edge-marker-end="filled_arrow" markerWidth="8" markerHeight="8" refX="8" refY="4" orient="auto" markerUnits="strokeWidth"><path d="M 0 0 L 8 4 L 0 8 z" fill="#475569"/></marker></defs><path d="M 1580.0 468.0 L 1612.0 468.0 L 1612.0 652.0 L 1820.0 652.0" fill="none" stroke="#475569" stroke-width="1.5" marker-start="url(#marker-start-database-composes-idempotency)" marker-end="url(#marker-end-database-composes-idempotency)"/><text x="1596.0" y="502.8" text-anchor="middle" fill="#334155" stroke="#ffffff" stroke-width="4" stroke-linejoin="round" paint-order="stroke">container</text></g><g data-dediren-edge-id="storage-composes-wow-reference"><defs><marker id="marker-start-storage-composes-wow-reference" data-dediren-edge-marker-start="filled_diamond" markerWidth="10" markerHeight="10" refX="1" refY="5" orient="auto" markerUnits="strokeWidth"><path d="M 1 5 L 5 1 L 9 5 L 5 9 z" fill="#475569" stroke="#475569" stroke-width="1.1"/></marker><marker id="marker-end-storage-composes-wow-reference" data-dediren-edge-marker-end="filled_arrow" markerWidth="8" markerHeight="8" refX="8" refY="4" orient="auto" markerUnits="strokeWidth"><path d="M 0 0 L 8 4 L 0 8 z" fill="#475569"/></marker></defs><path d="M 1156.0 1528.0 L 1420.0 1528.0" fill="none" stroke="#475569" stroke-width="1.5" marker-start="url(#marker-start-storage-composes-wow-reference)" marker-end="url(#marker-end-storage-composes-wow-reference)"/><text x="1288.0" y="1519.6" text-anchor="middle" fill="#334155" stroke="#ffffff" stroke-width="4" stroke-linejoin="round" paint-order="stroke">blob container</text></g><g data-dediren-edge-id="storage-composes-data-protection"><defs><marker id="marker-start-storage-composes-data-protection" data-dediren-edge-marker-start="filled_diamond" markerWidth="10" markerHeight="10" refX="1" refY="5" orient="auto" markerUnits="strokeWidth"><path d="M 1 5 L 5 1 L 9 5 L 5 9 z" fill="#475569" stroke="#475569" stroke-width="1.1"/></marker><marker id="marker-end-storage-composes-data-protection" data-dediren-edge-marker-end="filled_arrow" markerWidth="8" markerHeight="8" refX="8" refY="4" orient="auto" markerUnits="strokeWidth"><path d="M 0 0 L 8 4 L 0 8 z" fill="#475569"/></marker></defs><path d="M 1156.0 1548.0 L 1188.0 1548.0 L 1188.0 1728.0 L 1420.0 1728.0" fill="none" stroke="#475569" stroke-width="1.5" marker-start="url(#marker-start-storage-composes-data-protection)" marker-end="url(#marker-end-storage-composes-data-protection)"/><text x="1172.0" y="1582.8" text-anchor="middle" fill="#334155" stroke="#ffffff" stroke-width="4" stroke-linejoin="round" paint-order="stroke">blob container</text></g><g data-dediren-edge-id="key-vault-composes-data-protection-key"><defs><marker id="marker-start-key-vault-composes-data-protection-key" data-dediren-edge-marker-start="filled_diamond" markerWidth="10" markerHeight="10" refX="1" refY="5" orient="auto" markerUnits="strokeWidth"><path d="M 1 5 L 5 1 L 9 5 L 5 9 z" fill="#475569" stroke="#475569" stroke-width="1.1"/></marker><marker id="marker-end-key-vault-composes-data-protection-key" data-dediren-edge-marker-end="filled_arrow" markerWidth="8" markerHeight="8" refX="8" refY="4" orient="auto" markerUnits="strokeWidth"><path d="M 0 0 L 8 4 L 0 8 z" fill="#475569"/></marker></defs><path d="M 1156.0 1194.7 L 1202.0 1194.7 Q 1208.0 1188.7 1214.0 1194.7 L 1308.0 1194.7 L 1308.0 1314.7 L 1420.0 1314.7" fill="none" stroke="#475569" stroke-width="1.5" marker-start="url(#marker-start-key-vault-composes-data-protection-key)" marker-end="url(#marker-end-key-vault-composes-data-protection-key)"/><text x="1232.0" y="1211.5" text-anchor="middle" fill="#334155" stroke="#ffffff" stroke-width="4" stroke-linejoin="round" paint-order="stroke">key</text></g><g data-dediren-edge-id="managed-identity-accesses-key-vault"><defs><marker id="marker-end-managed-identity-accesses-key-vault" data-dediren-edge-marker-end="open_arrow" markerWidth="9" markerHeight="9" refX="8" refY="4.5" orient="auto" markerUnits="strokeWidth"><path d="M 1 1 L 8 4.5 L 1 8" fill="none" stroke="#15803d" stroke-width="1.3" stroke-linecap="round" stroke-linejoin="round"/></marker></defs><path d="M 752.0 1181.3 L 996.0 1181.3" fill="none" stroke="#15803d" stroke-width="1.5" stroke-dasharray="8 5" marker-end="url(#marker-end-managed-identity-accesses-key-vault)"/><text x="821.9" y="1203.5" text-anchor="start" fill="#166534" stroke="#ffffff" stroke-width="4" stroke-linejoin="round" paint-order="stroke">Secrets User</text></g><g data-dediren-edge-id="managed-identity-accesses-cosmos"><defs><marker id="marker-end-managed-identity-accesses-cosmos" data-dediren-edge-marker-end="open_arrow" markerWidth="9" markerHeight="9" refX="8" refY="4.5" orient="auto" markerUnits="strokeWidth"><path d="M 1 1 L 8 4.5 L 1 8" fill="none" stroke="#15803d" stroke-width="1.3" stroke-linecap="round" stroke-linejoin="round"/></marker></defs><path d="M 752.0 1147.0 L 804.0 1147.0 L 804.0 850.0 Q 810.0 844.0 804.0 838.0 L 804.0 477.3 L 996.0 477.3" fill="none" stroke="#15803d" stroke-width="1.5" stroke-dasharray="8 5" marker-end="url(#marker-end-managed-identity-accesses-cosmos)"/><text x="778.0" y="1120.6" text-anchor="middle" fill="#166534" stroke="#ffffff" stroke-width="4" stroke-linejoin="round" paint-order="stroke">Data Contributor</text></g><g data-dediren-edge-id="managed-identity-accesses-storage"><defs><marker id="marker-end-managed-identity-accesses-storage" data-dediren-edge-marker-end="open_arrow" markerWidth="9" markerHeight="9" refX="8" refY="4.5" orient="auto" markerUnits="strokeWidth"><path d="M 1 1 L 8 4.5 L 1 8" fill="none" stroke="#15803d" stroke-width="1.3" stroke-linecap="round" stroke-linejoin="round"/></marker></defs><path d="M 752.0 1204.2 L 784.0 1204.2 L 784.0 1528.0 L 996.0 1528.0" fill="none" stroke="#15803d" stroke-width="1.5" stroke-dasharray="8 5" marker-end="url(#marker-end-managed-identity-accesses-storage)"/><text x="890.0" y="1544.8" text-anchor="middle" fill="#166534" stroke="#ffffff" stroke-width="4" stroke-linejoin="round" paint-order="stroke">Blob/Queue/Table roles</text></g><g data-dediren-edge-id="managed-identity-accesses-app-insights"><defs><marker id="marker-end-managed-identity-accesses-app-insights" data-dediren-edge-marker-end="open_arrow" markerWidth="9" markerHeight="9" refX="8" refY="4.5" orient="auto" markerUnits="strokeWidth"><path d="M 1 1 L 8 4.5 L 1 8" fill="none" stroke="#15803d" stroke-width="1.3" stroke-linecap="round" stroke-linejoin="round"/></marker></defs><path d="M 752.0 1158.5 L 824.0 1158.5 L 824.0 870.7 L 996.0 870.7" fill="none" stroke="#15803d" stroke-width="1.5" stroke-dasharray="8 5" marker-end="url(#marker-end-managed-identity-accesses-app-insights)"/><text x="910.0" y="862.3" text-anchor="middle" fill="#166534" stroke="#ffffff" stroke-width="4" stroke-linejoin="round" paint-order="stroke">Metrics Publisher</text></g><g data-dediren-edge-id="managed-identity-accesses-data-protection-key"><defs><marker id="marker-end-managed-identity-accesses-data-protection-key" data-dediren-edge-marker-end="open_arrow" markerWidth="9" markerHeight="9" refX="8" refY="4.5" orient="auto" markerUnits="strokeWidth"><path d="M 1 1 L 8 4.5 L 1 8" fill="none" stroke="#15803d" stroke-width="1.3" stroke-linecap="round" stroke-linejoin="round"/></marker></defs><path d="M 752.0 1192.8 L 804.0 1192.8 L 804.0 1341.3 L 1202.0 1341.3 Q 1208.0 1335.3 1214.0 1341.3 L 1420.0 1341.3" fill="none" stroke="#15803d" stroke-width="1.5" stroke-dasharray="8 5" marker-end="url(#marker-end-managed-identity-accesses-data-protection-key)"/><text x="778.0" y="1227.6" text-anchor="middle" fill="#166534" stroke="#ffffff" stroke-width="4" stroke-linejoin="round" paint-order="stroke">Crypto User</text></g><g data-dediren-edge-id="cosmos-throttle-alert-monitors-cosmos"><defs><marker id="marker-end-cosmos-throttle-alert-monitors-cosmos" data-dediren-edge-marker-end="open_arrow" markerWidth="9" markerHeight="9" refX="8" refY="4.5" orient="auto" markerUnits="strokeWidth"><path d="M 1 1 L 8 4.5 L 1 8" fill="none" stroke="#15803d" stroke-width="1.3" stroke-linecap="round" stroke-linejoin="round"/></marker></defs><path d="M 752.0 429.3 L 908.0 429.3 L 908.0 437.3 L 996.0 437.3" fill="none" stroke="#15803d" stroke-width="1.5" stroke-dasharray="8 5" marker-end="url(#marker-end-cosmos-throttle-alert-monitors-cosmos)"/><text x="830.0" y="428.1" text-anchor="middle" fill="#166534" stroke="#ffffff" stroke-width="4" stroke-linejoin="round" paint-order="stroke">monitors 429s</text></g><g data-dediren-node-id="static-web-apps"><rect data-dediren-node-shape="archimate_rectangle" x="12.0" y="12.0" width="160.0" height="80.0" rx="0" fill="#ecfdf3" stroke="#16a34a" stroke-width="1.5"/><g data-dediren-node-decorator="archimate_technology_node" data-dediren-icon-kind="node" data-dediren-icon-size="22"><rect x="144.0" y="25.0" width="18.0" height="12.8" rx="1.5" fill="#ecfdf3" stroke="#16a34a" stroke-width="1.5"/><path data-dediren-icon-part="node-3d-edges" d="M 144.0 25.0 L 148.0 21.0 L 166.0 21.0 L 162.0 25.0 M 162.0 25.0 L 166.0 21.0 M 162.0 37.7 L 166.0 33.8 M 166.0 21.0 L 166.0 33.8" fill="none" stroke="#16a34a" stroke-width="1.5" stroke-linejoin="round"/></g><text x="92.0" y="44.0" text-anchor="middle" dominant-baseline="middle" fill="#14532d" font-size="14.0"><tspan x="92.0" dy="0">Azure Static Web</tspan><tspan x="92.0" dy="16.0">Apps</tspan></text></g><g data-dediren-node-id="function-app"><rect data-dediren-node-shape="archimate_rectangle" x="1420.0" y="1088.0" width="160.0" height="80.0" rx="0" fill="#ecfdf3" stroke="#16a34a" stroke-width="1.5"/><g data-dediren-node-decorator="archimate_technology_node" data-dediren-icon-kind="node" data-dediren-icon-size="22"><rect x="1552.0" y="1101.0" width="18.0" height="12.8" rx="1.5" fill="#ecfdf3" stroke="#16a34a" stroke-width="1.5"/><path data-dediren-icon-part="node-3d-edges" d="M 1552.0 1101.0 L 1556.0 1097.0 L 1574.0 1097.0 L 1570.0 1101.0 M 1570.0 1101.0 L 1574.0 1097.0 M 1570.0 1113.7 L 1574.0 1109.8 M 1574.0 1097.0 L 1574.0 1109.8" fill="none" stroke="#16a34a" stroke-width="1.5" stroke-linejoin="round"/></g><text x="1500.0" y="1120.0" text-anchor="middle" dominant-baseline="middle" fill="#14532d" font-size="14.0"><tspan x="1500.0" dy="0">Azure Function</tspan><tspan x="1500.0" dy="16.0">App</tspan></text></g><g data-dediren-node-id="app-service-plan"><rect data-dediren-node-shape="archimate_rectangle" x="996.0" y="617.3" width="160.0" height="80.0" rx="0" fill="#ecfdf3" stroke="#16a34a" stroke-width="1.5"/><g data-dediren-node-decorator="archimate_technology_node" data-dediren-icon-kind="node" data-dediren-icon-size="22"><rect x="1128.0" y="630.3" width="18.0" height="12.8" rx="1.5" fill="#ecfdf3" stroke="#16a34a" stroke-width="1.5"/><path data-dediren-icon-part="node-3d-edges" d="M 1128.0 630.3 L 1132.0 626.3 L 1150.0 626.3 L 1146.0 630.3 M 1146.0 630.3 L 1150.0 626.3 M 1146.0 643.1 L 1150.0 639.1 M 1150.0 626.3 L 1150.0 639.1" fill="none" stroke="#16a34a" stroke-width="1.5" stroke-linejoin="round"/></g><text x="1076.0" y="649.3" text-anchor="middle" dominant-baseline="middle" fill="#14532d" font-size="14.0"><tspan x="1076.0" dy="0">App Service Plan</tspan><tspan x="1076.0" dy="16.0">(Y1)</tspan></text></g><g data-dediren-node-id="functions-runtime"><rect data-dediren-node-shape="archimate_rectangle" x="1820.0" y="1101.3" width="160.0" height="80.0" rx="0" fill="#ecfdf3" stroke="#16a34a" stroke-width="1.5"/><g data-dediren-node-decorator="archimate_system_software" data-dediren-icon-kind="system_software" data-dediren-icon-size="22"><ellipse data-dediren-icon-part="system-software-disks" cx="1964.8" cy="1118.3" rx="5.7" ry="5.7" fill="none" stroke="#16a34a" stroke-width="1.5"/><ellipse data-dediren-icon-part="system-software-disks" cx="1960.4" cy="1121.3" rx="5.7" ry="5.7" fill="#ecfdf3" stroke="#16a34a" stroke-width="1.5"/></g><text x="1900.0" y="1133.3" text-anchor="middle" dominant-baseline="middle" fill="#14532d" font-size="14.0"><tspan x="1900.0" dy="0">Azure Functions</tspan><tspan x="1900.0" dy="16.0">runtime</tspan></text></g><g data-dediren-node-id="managed-identity"><rect data-dediren-node-shape="archimate_rounded_rectangle" x="592.0" y="1135.6" width="160.0" height="80.0" rx="4.0" fill="#ecfdf3" stroke="#16a34a" stroke-width="1.5"/><g data-dediren-node-decorator="archimate_technology_service" data-dediren-icon-kind="service" data-dediren-icon-size="22"><rect x="724.0" y="1147.3" width="22.0" height="11.0" rx="4.0" fill="#ecfdf3" stroke="#16a34a" stroke-width="1.5"/></g><text x="672.0" y="1167.6" text-anchor="middle" dominant-baseline="middle" fill="#14532d" font-size="14.0"><tspan x="672.0" dy="0">Function App</tspan><tspan x="672.0" dy="16.0">managed identity</tspan></text></g><g data-dediren-node-id="cosmos-account"><rect data-dediren-node-shape="archimate_rectangle" x="996.0" y="417.3" width="160.0" height="80.0" rx="0" fill="#ecfdf3" stroke="#16a34a" stroke-width="1.5"/><g data-dediren-node-decorator="archimate_technology_node" data-dediren-icon-kind="node" data-dediren-icon-size="22"><rect x="1128.0" y="430.3" width="18.0" height="12.8" rx="1.5" fill="#ecfdf3" stroke="#16a34a" stroke-width="1.5"/><path data-dediren-icon-part="node-3d-edges" d="M 1128.0 430.3 L 1132.0 426.3 L 1150.0 426.3 L 1146.0 430.3 M 1146.0 430.3 L 1150.0 426.3 M 1146.0 443.1 L 1150.0 439.1 M 1150.0 426.3 L 1150.0 439.1" fill="none" stroke="#16a34a" stroke-width="1.5" stroke-linejoin="round"/></g><text x="1076.0" y="449.3" text-anchor="middle" dominant-baseline="middle" fill="#14532d" font-size="14.0"><tspan x="1076.0" dy="0">Cosmos DB</tspan><tspan x="1076.0" dy="16.0">account</tspan></text></g><g data-dediren-node-id="cosmos-database"><rect data-dediren-node-shape="archimate_rectangle" x="1420.0" y="404.0" width="160.0" height="80.0" rx="0" fill="#f7fee7" stroke="#65a30d" stroke-width="1.5"/><g data-dediren-node-decorator="archimate_artifact" data-dediren-icon-kind="artifact" data-dediren-icon-size="22"><path data-dediren-icon-part="artifact-document" d="M 1554.2 412.0 L 1564.8 412.0 L 1570.9 418.2 L 1570.9 431.8 L 1554.2 431.8 Z M 1564.8 412.0 L 1564.8 418.2 L 1570.9 418.2" fill="#f7fee7" stroke="#65a30d" stroke-width="1.5"/></g><text x="1500.0" y="435.9" text-anchor="middle" dominant-baseline="middle" fill="#365314" font-size="14.0"><tspan x="1500.0" dy="0">Cosmos SQL</tspan><tspan x="1500.0" dy="16.0">database</tspan></text></g><g data-dediren-node-id="cosmos-runs"><rect data-dediren-node-shape="archimate_rectangle" x="1820.0" y="12.0" width="160.0" height="80.0" rx="0" fill="#f7fee7" stroke="#65a30d" stroke-width="1.5"/><g data-dediren-node-decorator="archimate_artifact" data-dediren-icon-kind="artifact" data-dediren-icon-size="22"><path data-dediren-icon-part="artifact-document" d="M 1954.2 20.0 L 1964.8 20.0 L 1970.9 26.2 L 1970.9 39.8 L 1954.2 39.8 Z M 1964.8 20.0 L 1964.8 26.2 L 1970.9 26.2" fill="#f7fee7" stroke="#65a30d" stroke-width="1.5"/></g><text x="1900.0" y="52.0" text-anchor="middle" dominant-baseline="middle" fill="#365314" font-size="14.0">runs container</text></g><g data-dediren-node-id="cosmos-raiders"><rect data-dediren-node-shape="archimate_rectangle" x="1820.0" y="212.0" width="160.0" height="80.0" rx="0" fill="#f7fee7" stroke="#65a30d" stroke-width="1.5"/><g data-dediren-node-decorator="archimate_artifact" data-dediren-icon-kind="artifact" data-dediren-icon-size="22"><path data-dediren-icon-part="artifact-document" d="M 1954.2 220.0 L 1964.8 220.0 L 1970.9 226.2 L 1970.9 239.8 L 1954.2 239.8 Z M 1964.8 220.0 L 1964.8 226.2 L 1970.9 226.2" fill="#f7fee7" stroke="#65a30d" stroke-width="1.5"/></g><text x="1900.0" y="243.9" text-anchor="middle" dominant-baseline="middle" fill="#365314" font-size="14.0"><tspan x="1900.0" dy="0">raiders</tspan><tspan x="1900.0" dy="16.0">container</tspan></text></g><g data-dediren-node-id="cosmos-guilds"><rect data-dediren-node-shape="archimate_rectangle" x="1820.0" y="412.0" width="160.0" height="80.0" rx="0" fill="#f7fee7" stroke="#65a30d" stroke-width="1.5"/><g data-dediren-node-decorator="archimate_artifact" data-dediren-icon-kind="artifact" data-dediren-icon-size="22"><path data-dediren-icon-part="artifact-document" d="M 1954.2 420.0 L 1964.8 420.0 L 1970.9 426.2 L 1970.9 439.8 L 1954.2 439.8 Z M 1964.8 420.0 L 1964.8 426.2 L 1970.9 426.2" fill="#f7fee7" stroke="#65a30d" stroke-width="1.5"/></g><text x="1900.0" y="452.0" text-anchor="middle" dominant-baseline="middle" fill="#365314" font-size="14.0">guilds container</text></g><g data-dediren-node-id="cosmos-idempotency"><rect data-dediren-node-shape="archimate_rectangle" x="1820.0" y="612.0" width="160.0" height="80.0" rx="0" fill="#f7fee7" stroke="#65a30d" stroke-width="1.5"/><g data-dediren-node-decorator="archimate_artifact" data-dediren-icon-kind="artifact" data-dediren-icon-size="22"><path data-dediren-icon-part="artifact-document" d="M 1954.2 620.0 L 1964.8 620.0 L 1970.9 626.2 L 1970.9 639.8 L 1954.2 639.8 Z M 1964.8 620.0 L 1964.8 626.2 L 1970.9 626.2" fill="#f7fee7" stroke="#65a30d" stroke-width="1.5"/></g><text x="1900.0" y="644.0" text-anchor="middle" dominant-baseline="middle" fill="#365314" font-size="14.0"><tspan x="1900.0" dy="0">idempotency</tspan><tspan x="1900.0" dy="16.0">container</tspan></text></g><g data-dediren-node-id="storage-account"><rect data-dediren-node-shape="archimate_rectangle" x="996.0" y="1488.0" width="160.0" height="80.0" rx="0" fill="#ecfdf3" stroke="#16a34a" stroke-width="1.5"/><g data-dediren-node-decorator="archimate_technology_node" data-dediren-icon-kind="node" data-dediren-icon-size="22"><rect x="1128.0" y="1501.0" width="18.0" height="12.8" rx="1.5" fill="#ecfdf3" stroke="#16a34a" stroke-width="1.5"/><path data-dediren-icon-part="node-3d-edges" d="M 1128.0 1501.0 L 1132.0 1497.0 L 1150.0 1497.0 L 1146.0 1501.0 M 1146.0 1501.0 L 1150.0 1497.0 M 1146.0 1513.7 L 1150.0 1509.8 M 1150.0 1497.0 L 1150.0 1509.8" fill="none" stroke="#16a34a" stroke-width="1.5" stroke-linejoin="round"/></g><text x="1076.0" y="1528.0" text-anchor="middle" dominant-baseline="middle" fill="#14532d" font-size="14.0">Storage account</text></g><g data-dediren-node-id="wow-reference-container"><rect data-dediren-node-shape="archimate_rectangle" x="1420.0" y="1488.0" width="160.0" height="80.0" rx="0" fill="#f7fee7" stroke="#65a30d" stroke-width="1.5"/><g data-dediren-node-decorator="archimate_artifact" data-dediren-icon-kind="artifact" data-dediren-icon-size="22"><path data-dediren-icon-part="artifact-document" d="M 1554.2 1496.0 L 1564.8 1496.0 L 1570.9 1502.2 L 1570.9 1515.8 L 1554.2 1515.8 Z M 1564.8 1496.0 L 1564.8 1502.2 L 1570.9 1502.2" fill="#f7fee7" stroke="#65a30d" stroke-width="1.5"/></g><text x="1500.0" y="1520.0" text-anchor="middle" dominant-baseline="middle" fill="#365314" font-size="14.0"><tspan x="1500.0" dy="0">wow reference</tspan><tspan x="1500.0" dy="16.0">blobs</tspan></text></g><g data-dediren-node-id="data-protection-container"><rect data-dediren-node-shape="archimate_rectangle" x="1420.0" y="1688.0" width="160.0" height="80.0" rx="0" fill="#f7fee7" stroke="#65a30d" stroke-width="1.5"/><g data-dediren-node-decorator="archimate_artifact" data-dediren-icon-kind="artifact" data-dediren-icon-size="22"><path data-dediren-icon-part="artifact-document" d="M 1554.2 1696.0 L 1564.8 1696.0 L 1570.9 1702.2 L 1570.9 1715.8 L 1554.2 1715.8 Z M 1564.8 1696.0 L 1564.8 1702.2 L 1570.9 1702.2" fill="#f7fee7" stroke="#65a30d" stroke-width="1.5"/></g><text x="1500.0" y="1720.0" text-anchor="middle" dominant-baseline="middle" fill="#365314" font-size="14.0"><tspan x="1500.0" dy="0">data-protection</tspan><tspan x="1500.0" dy="16.0">key ring blob</tspan></text></g><g data-dediren-node-id="key-vault"><rect data-dediren-node-shape="archimate_rectangle" x="996.0" y="1141.3" width="160.0" height="80.0" rx="0" fill="#ecfdf3" stroke="#16a34a" stroke-width="1.5"/><g data-dediren-node-decorator="archimate_technology_node" data-dediren-icon-kind="node" data-dediren-icon-size="22"><rect x="1128.0" y="1154.3" width="18.0" height="12.8" rx="1.5" fill="#ecfdf3" stroke="#16a34a" stroke-width="1.5"/><path data-dediren-icon-part="node-3d-edges" d="M 1128.0 1154.3 L 1132.0 1150.3 L 1150.0 1150.3 L 1146.0 1154.3 M 1146.0 1154.3 L 1150.0 1150.3 M 1146.0 1167.1 L 1150.0 1163.1 M 1150.0 1150.3 L 1150.0 1163.1" fill="none" stroke="#16a34a" stroke-width="1.5" stroke-linejoin="round"/></g><text x="1076.0" y="1181.3" text-anchor="middle" dominant-baseline="middle" fill="#14532d" font-size="14.0">Key Vault</text></g><g data-dediren-node-id="data-protection-key"><rect data-dediren-node-shape="archimate_rectangle" x="1420.0" y="1288.0" width="160.0" height="80.0" rx="0" fill="#f7fee7" stroke="#65a30d" stroke-width="1.5"/><g data-dediren-node-decorator="archimate_artifact" data-dediren-icon-kind="artifact" data-dediren-icon-size="22"><path data-dediren-icon-part="artifact-document" d="M 1554.2 1296.0 L 1564.8 1296.0 L 1570.9 1302.2 L 1570.9 1315.8 L 1554.2 1315.8 Z M 1564.8 1296.0 L 1564.8 1302.2 L 1570.9 1302.2" fill="#f7fee7" stroke="#65a30d" stroke-width="1.5"/></g><text x="1500.0" y="1320.0" text-anchor="middle" dominant-baseline="middle" fill="#365314" font-size="14.0"><tspan x="1500.0" dy="0">Data Protection</tspan><tspan x="1500.0" dy="16.0">key</tspan></text></g><g data-dediren-node-id="application-insights"><rect data-dediren-node-shape="archimate_rectangle" x="996.0" y="817.3" width="160.0" height="80.0" rx="0" fill="#ecfdf3" stroke="#16a34a" stroke-width="1.5"/><g data-dediren-node-decorator="archimate_technology_node" data-dediren-icon-kind="node" data-dediren-icon-size="22"><rect x="1128.0" y="830.3" width="18.0" height="12.8" rx="1.5" fill="#ecfdf3" stroke="#16a34a" stroke-width="1.5"/><path data-dediren-icon-part="node-3d-edges" d="M 1128.0 830.3 L 1132.0 826.3 L 1150.0 826.3 L 1146.0 830.3 M 1146.0 830.3 L 1150.0 826.3 M 1146.0 843.1 L 1150.0 839.1 M 1150.0 826.3 L 1150.0 839.1" fill="none" stroke="#16a34a" stroke-width="1.5" stroke-linejoin="round"/></g><text x="1076.0" y="849.3" text-anchor="middle" dominant-baseline="middle" fill="#14532d" font-size="14.0"><tspan x="1076.0" dy="0">Application</tspan><tspan x="1076.0" dy="16.0">Insights</tspan></text></g><g data-dediren-node-id="log-analytics"><rect data-dediren-node-shape="archimate_rectangle" x="592.0" y="790.7" width="160.0" height="80.0" rx="0" fill="#ecfdf3" stroke="#16a34a" stroke-width="1.5"/><g data-dediren-node-decorator="archimate_technology_node" data-dediren-icon-kind="node" data-dediren-icon-size="22"><rect x="724.0" y="803.6" width="18.0" height="12.8" rx="1.5" fill="#ecfdf3" stroke="#16a34a" stroke-width="1.5"/><path data-dediren-icon-part="node-3d-edges" d="M 724.0 803.6 L 728.0 799.7 L 746.0 799.7 L 742.0 803.6 M 742.0 803.6 L 746.0 799.7 M 742.0 816.4 L 746.0 812.4 M 746.0 799.7 L 746.0 812.4" fill="none" stroke="#16a34a" stroke-width="1.5" stroke-linejoin="round"/></g><text x="672.0" y="822.6" text-anchor="middle" dominant-baseline="middle" fill="#14532d" font-size="14.0"><tspan x="672.0" dy="0">Log Analytics</tspan><tspan x="672.0" dy="16.0">workspace</tspan></text></g><g data-dediren-node-id="cosmos-throttle-alert"><rect data-dediren-node-shape="archimate_rounded_rectangle" x="592.0" y="389.3" width="160.0" height="80.0" rx="4.0" fill="#ecfdf3" stroke="#16a34a" stroke-width="1.5"/><g data-dediren-node-decorator="archimate_technology_service" data-dediren-icon-kind="service" data-dediren-icon-size="22"><rect x="724.0" y="401.0" width="22.0" height="11.0" rx="4.0" fill="#ecfdf3" stroke="#16a34a" stroke-width="1.5"/></g><text x="672.0" y="421.3" text-anchor="middle" dominant-baseline="middle" fill="#14532d" font-size="14.0"><tspan x="672.0" dy="0">Cosmos throttle</tspan><tspan x="672.0" dy="16.0">alert</tspan></text></g><g data-dediren-node-id="lfm-app"><rect data-dediren-node-shape="archimate_rectangle" x="412.0" y="12.0" width="160.0" height="80.0" rx="0" fill="#e8f3ff" stroke="#2563eb" stroke-width="1.5"/><g data-dediren-node-decorator="archimate_application_component" data-dediren-icon-kind="component" data-dediren-icon-size="22"><rect x="548.0" y="21.0" width="18.0" height="15.8" rx="1.5" fill="#e8f3ff" stroke="#2563eb" stroke-width="1.5"/><rect x="544.0" y="23.6" width="7.9" height="5.7" rx="1.2" fill="#e8f3ff" stroke="#2563eb" stroke-width="1.5"/><rect x="544.0" y="30.7" width="7.9" height="5.7" rx="1.2" fill="#e8f3ff" stroke="#2563eb" stroke-width="1.5"/></g><text x="492.0" y="52.0" text-anchor="middle" dominant-baseline="middle" fill="#172554" font-size="14.0">Lfm.App</text></g><g data-dediren-node-id="lfm-api"><rect data-dediren-node-shape="archimate_rectangle" x="1820.0" y="901.3" width="160.0" height="80.0" rx="0" fill="#e8f3ff" stroke="#2563eb" stroke-width="1.5"/><g data-dediren-node-decorator="archimate_application_component" data-dediren-icon-kind="component" data-dediren-icon-size="22"><rect x="1956.0" y="910.3" width="18.0" height="15.8" rx="1.5" fill="#e8f3ff" stroke="#2563eb" stroke-width="1.5"/><rect x="1952.0" y="913.0" width="7.9" height="5.7" rx="1.2" fill="#e8f3ff" stroke="#2563eb" stroke-width="1.5"/><rect x="1952.0" y="920.0" width="7.9" height="5.7" rx="1.2" fill="#e8f3ff" stroke="#2563eb" stroke-width="1.5"/></g><text x="1900.0" y="941.3" text-anchor="middle" dominant-baseline="middle" fill="#172554" font-size="14.0">Lfm.Api</text></g></g></svg>

