<svg xmlns="http://www.w3.org/2000/svg" role="img" width="2697" height="1093" viewBox="-20 -52 2697 1124.5" data-arch-a11y="root" data-arch-a11y-viewbox="-20.0 -20.0 2697.0 1092.5"><title>WoW Reference Data - Service Realization</title>
<desc>Which components and services realize WoW reference data and refresh?</desc>
<text data-arch-a11y="visible-title" x="-12" y="-32" font-family="sans-serif" font-size="16" font-weight="bold">WoW Reference Data - Service Realization</text><rect x="-20.0" y="-20.0" width="2697.0" height="1092.5" fill="#ffffff"/><g font-family="Inter, &quot;Liberation Sans&quot;, &quot;Noto Sans&quot;, Arial, &quot;Helvetica Neue&quot;, &quot;Segoe UI&quot;, sans-serif" font-size="14"><g data-dediren-group-id="reference-consumption-ui"><rect x="12.0" y="687.5" width="379.0" height="178.8" rx="8" fill="#f8fafc" stroke="#94a3b8" stroke-width="1"/><text x="20.0" y="703.5" fill="#334155" font-size="12">Reference consumption UI</text></g><g data-dediren-group-id="reference-refresh-ui"><rect x="150.0" y="431.5" width="241.0" height="160.0" rx="8" fill="#f8fafc" stroke="#94a3b8" stroke-width="1"/><text x="158.0" y="447.5" fill="#334155" font-size="12">Reference refresh UI</text></g><g data-dediren-group-id="reference-api-realization"><rect x="711.0" y="269.5" width="915.0" height="567.8" rx="8" fill="#f8fafc" stroke="#94a3b8" stroke-width="1"/><text x="719.0" y="285.5" fill="#334155" font-size="12">Reference API realization</text></g><g data-dediren-group-id="reference-blob-store"><rect x="2010.0" y="12.0" width="635.0" height="596.5" rx="8" fill="#f8fafc" stroke="#94a3b8" stroke-width="1"/><text x="2018.0" y="28.0" fill="#334155" font-size="12">Reference and media blob store</text></g><g data-dediren-group-id="reference-refresh-external"><rect x="2010.0" y="704.5" width="241.0" height="336.0" rx="8" fill="#f8fafc" stroke="#94a3b8" stroke-width="1"/><text x="2018.0" y="720.5" fill="#334155" font-size="12">Reference and media dependencies</text></g><g data-dediren-edge-id="reference-service-serves-reference-ui"><marker id="marker-end-reference-service-serves-reference-ui" data-dediren-edge-marker-end="open_arrow" markerWidth="10" markerHeight="10" refX="9" refY="5" orient="auto"><path d="M 1 1 L 9 5 L 1 9" fill="none" stroke="#475569" stroke-width="1.5"/></marker><path d="M 1232.0 370.2 L 1176.0 370.2 Q 1168.0 370.2 1168.0 362.2 L 1168.0 333.5 Q 1168.0 325.5 1160.0 325.5 L 1104.0 325.5 L 831.5 325.5 L 679.0 325.5 L 495.0 325.5 Q 487.0 325.5 487.0 333.5 L 487.0 754.3 Q 487.0 762.3 479.0 762.3 L 423.0 762.3 L 223.0 762.3" fill="none" stroke="#475569" stroke-width="1.25" stroke-linecap="round" stroke-linejoin="round" marker-end="url(#marker-end-reference-service-serves-reference-ui)"/><text x="1162.0" y="347.8" text-anchor="end" fill="none" font-size="15.4" font-weight="600" stroke="#ffffff" stroke-width="2">reference data</text><text x="1162.0" y="347.8" text-anchor="end" fill="#374151" font-size="15.4" font-weight="600">reference data</text></g><g data-dediren-edge-id="reference-refresh-service-serves-ui"><marker id="marker-end-reference-refresh-service-serves-ui" data-dediren-edge-marker-end="open_arrow" markerWidth="10" markerHeight="10" refX="9" refY="5" orient="auto"><path d="M 1 1 L 9 5 L 1 9" fill="none" stroke="#475569" stroke-width="1.5"/></marker><g data-dediren-line-jump-masks="reference-refresh-service-serves-ui"><path d="M 481.0 511.5 Q 487.0 505.5 493.0 511.5" fill="none" stroke="#ffffff" stroke-width="6"/></g><path d="M 1232.0 556.2 L 1176.0 556.2 Q 1168.0 556.2 1168.0 548.2 L 1168.0 519.5 Q 1168.0 511.5 1160.0 511.5 L 1104.0 511.5 L 831.5 511.5 L 679.0 511.5 L 493.0 511.5 Q 487.0 505.5 481.0 511.5 L 423.0 511.5 L 351.0 511.5" fill="none" stroke="#475569" stroke-width="1.25" stroke-linecap="round" stroke-linejoin="round" marker-end="url(#marker-end-reference-refresh-service-serves-ui)"/><text x="1162.0" y="533.8" text-anchor="end" fill="none" font-size="15.4" font-weight="600" stroke="#ffffff" stroke-width="2">refresh stream</text><text x="1162.0" y="533.8" text-anchor="end" fill="#374151" font-size="15.4" font-weight="600">refresh stream</text></g><g data-dediren-edge-id="api-realizes-reference-service"><marker id="marker-end-api-realizes-reference-service" data-dediren-edge-marker-end="hollow_triangle" markerWidth="10" markerHeight="10" refX="9" refY="5" orient="auto"><path d="M 1 1 L 9 5 L 1 9 Z" fill="#ffffff" stroke="#374151" stroke-width="1"/></marker><g data-dediren-line-jump-masks="api-realizes-reference-service"><path d="M 976.0 505.5 Q 982.0 511.5 976.0 517.5" fill="none" stroke="#f8fafc" stroke-width="6"/></g><path d="M 912.0 645.8 L 968.0 645.8 Q 976.0 645.8 976.0 637.8 L 976.0 517.5 Q 982.0 511.5 976.0 505.5 L 976.0 398.5 Q 976.0 390.5 984.0 390.5 L 1232.0 390.5" fill="none" stroke="#374151" stroke-width="1.5" stroke-linecap="round" stroke-linejoin="round" stroke-dasharray="8 5" marker-end="url(#marker-end-api-realizes-reference-service)"/><text x="958.0" y="635.8" text-anchor="middle" fill="none" font-size="15.4" font-weight="600" stroke="#ffffff" stroke-width="2">realizes</text><text x="958.0" y="635.8" text-anchor="middle" fill="#374151" font-size="15.4" font-weight="600">realizes</text></g><g data-dediren-edge-id="api-realizes-reference-refresh-service"><marker id="marker-end-api-realizes-reference-refresh-service" data-dediren-edge-marker-end="hollow_triangle" markerWidth="10" markerHeight="10" refX="9" refY="5" orient="auto"><path d="M 1 1 L 9 5 L 1 9 Z" fill="#ffffff" stroke="#374151" stroke-width="1"/></marker><path d="M 912.0 658.5 L 1032.0 658.5 Q 1040.0 658.5 1040.0 650.5 L 1040.0 584.5 Q 1040.0 576.5 1048.0 576.5 L 1232.0 576.5" fill="none" stroke="#374151" stroke-width="1.5" stroke-linecap="round" stroke-linejoin="round" stroke-dasharray="8 5" marker-end="url(#marker-end-api-realizes-reference-refresh-service)"/><text x="976.0" y="704.5" text-anchor="middle" fill="none" font-size="15.4" font-weight="600" stroke="#ffffff" stroke-width="2">realizes</text><text x="976.0" y="704.5" text-anchor="middle" fill="#374151" font-size="15.4" font-weight="600">realizes</text></g><g data-dediren-edge-id="api-realizes-media-cache-service"><marker id="marker-end-api-realizes-media-cache-service" data-dediren-edge-marker-end="hollow_triangle" markerWidth="10" markerHeight="10" refX="9" refY="5" orient="auto"><path d="M 1 1 L 9 5 L 1 9 Z" fill="#ffffff" stroke="#374151" stroke-width="1"/></marker><path d="M 912.0 671.3 L 1160.0 671.3 Q 1168.0 671.3 1168.0 679.3 L 1168.0 734.2 Q 1168.0 742.2 1176.0 742.2 L 1232.0 742.2" fill="none" stroke="#374151" stroke-width="1.5" stroke-linecap="round" stroke-linejoin="round" stroke-dasharray="8 5" marker-end="url(#marker-end-api-realizes-media-cache-service)"/><text x="1150.0" y="689.3" text-anchor="middle" fill="none" font-size="15.4" font-weight="600" stroke="#ffffff" stroke-width="2">realizes</text><text x="1150.0" y="689.3" text-anchor="middle" fill="#374151" font-size="15.4" font-weight="600">realizes</text></g><g data-dediren-edge-id="media-cache-service-serves-reference-ui"><marker id="marker-end-media-cache-service-serves-reference-ui" data-dediren-edge-marker-end="open_arrow" markerWidth="10" markerHeight="10" refX="9" refY="5" orient="auto"><path d="M 1 1 L 9 5 L 1 9" fill="none" stroke="#475569" stroke-width="1.5"/></marker><path d="M 1232.0 762.5 L 1104.0 762.5 L 831.5 762.5 L 679.0 762.5 L 623.0 762.5 Q 615.0 762.5 615.0 770.5 L 615.0 802.3 Q 615.0 810.3 607.0 810.3 L 423.0 810.3 L 295.0 810.3 Q 287.0 810.3 287.0 802.3 L 287.0 790.7 Q 287.0 782.7 279.0 782.7 L 223.0 782.7" fill="none" stroke="#475569" stroke-width="1.25" stroke-linecap="round" stroke-linejoin="round" marker-end="url(#marker-end-media-cache-service-serves-reference-ui)"/><text x="1122.0" y="780.5" text-anchor="middle" fill="none" font-size="15.4" font-weight="600" stroke="#ffffff" stroke-width="2">reference images</text><text x="1122.0" y="780.5" text-anchor="middle" fill="#374151" font-size="15.4" font-weight="600">reference images</text></g><g data-dediren-edge-id="storage-composes-wow-reference"><path d="M 2151.5 133.0 L 2151.5 189.0 Q 2151.5 197.0 2159.5 197.0 L 2507.0 197.0 Q 2515.0 197.0 2515.0 205.0 L 2515.0 261.0" fill="none" stroke="#475569" stroke-width="1.25" stroke-linecap="round" stroke-linejoin="round"/><text x="2333.3" y="215.0" text-anchor="middle" fill="none" font-size="15.4" font-weight="600" stroke="#ffffff" stroke-width="2">blob path</text><text x="2333.3" y="215.0" text-anchor="middle" fill="#374151" font-size="15.4" font-weight="600">blob path</text></g><g data-dediren-edge-id="storage-composes-wow-media-cache"><path d="M 2108.5 133.0 L 2108.5 415.5 Q 2108.5 423.5 2116.5 423.5 L 2512.0 423.5 Q 2520.0 423.5 2520.0 431.5 L 2520.0 487.5" fill="none" stroke="#475569" stroke-width="1.25" stroke-linecap="round" stroke-linejoin="round"/><text x="2314.3" y="441.5" text-anchor="middle" fill="none" font-size="15.4" font-weight="600" stroke="#ffffff" stroke-width="2">blob path</text><text x="2314.3" y="441.5" text-anchor="middle" fill="#374151" font-size="15.4" font-weight="600">blob path</text></g><g data-dediren-edge-id="reference-service-accesses-wow-reference"><marker id="marker-end-reference-service-accesses-wow-reference" data-dediren-edge-marker-end="open_arrow" markerWidth="10" markerHeight="10" refX="9" refY="5" orient="auto"><path d="M 1 1 L 9 5 L 1 9" fill="none" stroke="#475569" stroke-width="1.5"/></marker><g data-dediren-line-jump-masks="reference-service-accesses-wow-reference"><path d="M 2102.5 293.5 Q 2108.5 287.5 2114.5 293.5" fill="none" stroke="#f8fafc" stroke-width="6"/></g><path d="M 1394.0 380.3 L 1658.0 380.3 L 1714.0 380.3 Q 1722.0 380.3 1722.0 372.3 L 1722.0 301.5 Q 1722.0 293.5 1730.0 293.5 L 1978.0 293.5 L 2102.5 293.5 Q 2108.5 287.5 2114.5 293.5 L 2130.0 293.5 L 2306.0 293.5 L 2434.0 293.5" fill="none" stroke="#475569" stroke-width="1.25" stroke-linecap="round" stroke-linejoin="round" stroke-dasharray="8 5" marker-end="url(#marker-end-reference-service-accesses-wow-reference)"/><text x="1526.0" y="398.3" text-anchor="middle" fill="none" font-size="15.4" font-weight="600" stroke="#ffffff" stroke-width="2">read blobs</text><text x="1526.0" y="398.3" text-anchor="middle" fill="#374151" font-size="15.4" font-weight="600">read blobs</text></g><g data-dediren-edge-id="reference-refresh-service-accesses-wow-reference"><marker id="marker-end-reference-refresh-service-accesses-wow-reference" data-dediren-edge-marker-end="open_arrow" markerWidth="10" markerHeight="10" refX="9" refY="5" orient="auto"><path d="M 1 1 L 9 5 L 1 9" fill="none" stroke="#475569" stroke-width="1.5"/></marker><g data-dediren-line-jump-masks="reference-refresh-service-accesses-wow-reference"><path d="M 2102.5 358.5 Q 2108.5 352.5 2114.5 358.5" fill="none" stroke="#f8fafc" stroke-width="6"/></g><path d="M 1394.0 556.2 L 1450.0 556.2 Q 1458.0 556.2 1458.0 548.2 L 1458.0 488.5 Q 1458.0 480.5 1466.0 480.5 L 1658.0 480.5 L 1778.0 480.5 Q 1786.0 480.5 1786.0 472.5 L 1786.0 369.5 Q 1786.0 361.5 1794.0 361.5 L 1914.0 361.5 L 1914.0 358.5 L 1978.0 358.5 L 2102.5 358.5 Q 2108.5 352.5 2114.5 358.5 L 2130.0 358.5 L 2306.0 358.5 L 2362.0 358.5 Q 2370.0 358.5 2370.0 350.5 L 2370.0 318.5 Q 2370.0 310.5 2378.0 310.5 L 2434.0 310.5" fill="none" stroke="#475569" stroke-width="1.25" stroke-linecap="round" stroke-linejoin="round" stroke-dasharray="8 5" marker-end="url(#marker-end-reference-refresh-service-accesses-wow-reference)"/><text x="1780.0" y="421.0" text-anchor="end" fill="none" font-size="15.4" font-weight="600" stroke="#ffffff" stroke-width="2">write blobs</text><text x="1780.0" y="421.0" text-anchor="end" fill="#374151" font-size="15.4" font-weight="600">write blobs</text></g><g data-dediren-edge-id="media-cache-service-accesses-wow-media-cache"><marker id="marker-end-media-cache-service-accesses-wow-media-cache" data-dediren-edge-marker-end="open_arrow" markerWidth="10" markerHeight="10" refX="9" refY="5" orient="auto"><path d="M 1 1 L 9 5 L 1 9" fill="none" stroke="#475569" stroke-width="1.5"/></marker><path d="M 1394.0 742.2 L 1514.0 742.2 Q 1522.0 742.2 1522.0 734.2 L 1522.0 536.5 Q 1522.0 528.5 1530.0 528.5 L 1658.0 528.5 L 1978.0 528.5 L 2130.0 528.5 L 2306.0 528.5 L 2434.0 528.5" fill="none" stroke="#475569" stroke-width="1.25" stroke-linecap="round" stroke-linejoin="round" stroke-dasharray="8 5" marker-end="url(#marker-end-media-cache-service-accesses-wow-media-cache)"/><text x="1504.0" y="732.2" text-anchor="middle" fill="none" font-size="15.4" font-weight="600" stroke="#ffffff" stroke-width="2">read/write image bytes</text><text x="1504.0" y="732.2" text-anchor="middle" fill="#374151" font-size="15.4" font-weight="600">read/write image bytes</text></g><g data-dediren-edge-id="game-data-api-serves-reference-refresh-service"><marker id="marker-end-game-data-api-serves-reference-refresh-service" data-dediren-edge-marker-end="open_arrow" markerWidth="10" markerHeight="10" refX="9" refY="5" orient="auto"><path d="M 1 1 L 9 5 L 1 9" fill="none" stroke="#475569" stroke-width="1.5"/></marker><g data-dediren-line-jump-masks="game-data-api-serves-reference-refresh-service"><path d="M 1516.0 576.5 Q 1522.0 570.5 1528.0 576.5" fill="none" stroke="#f8fafc" stroke-width="6"/></g><path d="M 2050.0 784.5 L 1978.0 784.5 L 1794.0 784.5 Q 1786.0 784.5 1786.0 776.5 L 1786.0 584.5 Q 1786.0 576.5 1778.0 576.5 L 1658.0 576.5 L 1528.0 576.5 Q 1522.0 570.5 1516.0 576.5 L 1394.0 576.5" fill="none" stroke="#475569" stroke-width="1.25" stroke-linecap="round" stroke-linejoin="round" marker-end="url(#marker-end-game-data-api-serves-reference-refresh-service)"/><text x="1780.0" y="680.5" text-anchor="end" fill="none" font-size="15.4" font-weight="600" stroke="#ffffff" stroke-width="2">refresh source</text><text x="1780.0" y="680.5" text-anchor="end" fill="#374151" font-size="15.4" font-weight="600">refresh source</text></g><g data-dediren-edge-id="render-cdn-serves-media-cache-service"><marker id="marker-end-render-cdn-serves-media-cache-service" data-dediren-edge-marker-end="open_arrow" markerWidth="10" markerHeight="10" refX="9" refY="5" orient="auto"><path d="M 1 1 L 9 5 L 1 9" fill="none" stroke="#475569" stroke-width="1.5"/></marker><path d="M 2050.0 960.5 L 1978.0 960.5 L 1730.0 960.5 Q 1722.0 960.5 1722.0 952.5 L 1722.0 770.5 Q 1722.0 762.5 1714.0 762.5 L 1658.0 762.5 L 1394.0 762.5" fill="none" stroke="#475569" stroke-width="1.25" stroke-linecap="round" stroke-linejoin="round" marker-end="url(#marker-end-render-cdn-serves-media-cache-service)"/><text x="1716.0" y="861.5" text-anchor="end" fill="none" font-size="15.4" font-weight="600" stroke="#ffffff" stroke-width="2">image bytes</text><text x="1716.0" y="861.5" text-anchor="end" fill="#374151" font-size="15.4" font-weight="600">image bytes</text></g><g data-dediren-node-id="reference-ui-entry"><rect data-dediren-node-shape="archimate_rectangle" x="52.0" y="727.5" width="170.0" height="90.0" rx="0" fill="#e0f2fe" stroke="#0369a1" stroke-width="1.25"/><g data-dediren-node-decorator="archimate_application_component" data-dediren-icon-kind="component" data-dediren-icon-size="22"><rect x="198.0" y="736.5" width="18.0" height="15.8" rx="1.5" fill="#e0f2fe" stroke="#0369a1" stroke-width="1.25"/><rect x="194.0" y="739.1" width="7.9" height="5.7" rx="1.2" fill="#e0f2fe" stroke="#0369a1" stroke-width="1.25"/><rect x="194.0" y="746.2" width="7.9" height="5.7" rx="1.2" fill="#e0f2fe" stroke="#0369a1" stroke-width="1.25"/></g><text x="137.0" y="780.0" text-anchor="middle" dominant-baseline="middle" fill="#0c4a6e" font-size="14.0"><tspan x="137.0" dy="0" textLength="95.7" lengthAdjust="spacing">Reference data</tspan><tspan x="137.0" dy="16.0" textLength="97.2" lengthAdjust="spacing">consumption UI</tspan></text></g><g data-dediren-node-id="reference-refresh-ui-entry"><rect data-dediren-node-shape="archimate_rectangle" x="190.0" y="471.5" width="160.0" height="80.0" rx="0" fill="#e0f2fe" stroke="#0369a1" stroke-width="1.25"/><g data-dediren-node-decorator="archimate_application_component" data-dediren-icon-kind="component" data-dediren-icon-size="22"><rect x="326.0" y="480.5" width="18.0" height="15.8" rx="1.5" fill="#e0f2fe" stroke="#0369a1" stroke-width="1.25"/><rect x="322.0" y="483.1" width="7.9" height="5.7" rx="1.2" fill="#e0f2fe" stroke="#0369a1" stroke-width="1.25"/><rect x="322.0" y="490.2" width="7.9" height="5.7" rx="1.2" fill="#e0f2fe" stroke="#0369a1" stroke-width="1.25"/></g><text x="270.0" y="519.0" text-anchor="middle" dominant-baseline="middle" fill="#0c4a6e" font-size="14.0"><tspan x="270.0" dy="0" textLength="64.5" lengthAdjust="spacing">Reference</tspan><tspan x="270.0" dy="16.0" textLength="61.4" lengthAdjust="spacing">refresh UI</tspan></text></g><g data-dediren-node-id="wow-reference-service"><rect data-dediren-node-shape="archimate_rounded_rectangle" x="1233.0" y="335.3" width="160.0" height="90.0" rx="6" fill="#e0f2fe" stroke="#0369a1" stroke-width="1.25"/><g data-dediren-node-decorator="archimate_application_service" data-dediren-icon-kind="service" data-dediren-icon-size="22"><rect x="1365.0" y="344.3" width="22.0" height="13.6" rx="4.0" fill="#e0f2fe" stroke="#0369a1" stroke-width="1.25"/></g><text x="1313.0" y="379.7" text-anchor="middle" dominant-baseline="middle" fill="#0c4a6e" font-size="14.0"><tspan x="1313.0" dy="0" textLength="34.2" lengthAdjust="spacing">WoW</tspan><tspan x="1313.0" dy="16.0" textLength="59.1" lengthAdjust="spacing">reference</tspan><tspan x="1313.0" dy="16.0" textLength="89.4" lengthAdjust="spacing">lookup service</tspan></text></g><g data-dediren-node-id="reference-refresh-service"><rect data-dediren-node-shape="archimate_rounded_rectangle" x="1233.0" y="521.3" width="160.0" height="90.0" rx="6" fill="#e0f2fe" stroke="#0369a1" stroke-width="1.25"/><g data-dediren-node-decorator="archimate_application_service" data-dediren-icon-kind="service" data-dediren-icon-size="22"><rect x="1365.0" y="530.3" width="22.0" height="13.6" rx="4.0" fill="#e0f2fe" stroke="#0369a1" stroke-width="1.25"/></g><text x="1313.0" y="565.7" text-anchor="middle" dominant-baseline="middle" fill="#0c4a6e" font-size="14.0"><tspan x="1313.0" dy="0" textLength="34.2" lengthAdjust="spacing">WoW</tspan><tspan x="1313.0" dy="16.0" textLength="59.1" lengthAdjust="spacing">reference</tspan><tspan x="1313.0" dy="16.0" textLength="91.7" lengthAdjust="spacing">refresh service</tspan></text></g><g data-dediren-node-id="wow-media-cache-service"><rect data-dediren-node-shape="archimate_rounded_rectangle" x="1233.0" y="707.3" width="160.0" height="90.0" rx="6" fill="#e0f2fe" stroke="#0369a1" stroke-width="1.25"/><g data-dediren-node-decorator="archimate_application_service" data-dediren-icon-kind="service" data-dediren-icon-size="22"><rect x="1365.0" y="716.3" width="22.0" height="13.6" rx="4.0" fill="#e0f2fe" stroke="#0369a1" stroke-width="1.25"/></g><text x="1313.0" y="759.8" text-anchor="middle" dominant-baseline="middle" fill="#0c4a6e" font-size="14.0"><tspan x="1313.0" dy="0" textLength="76.2" lengthAdjust="spacing">WoW media</tspan><tspan x="1313.0" dy="16.0" textLength="85.5" lengthAdjust="spacing">cache service</tspan></text></g><g data-dediren-node-id="lfm-api"><rect data-dediren-node-shape="archimate_rectangle" x="751.0" y="618.5" width="160.0" height="80.0" rx="0" fill="#e0f2fe" stroke="#0369a1" stroke-width="1.25"/><g data-dediren-node-decorator="archimate_application_component" data-dediren-icon-kind="component" data-dediren-icon-size="22"><rect x="887.0" y="627.5" width="18.0" height="15.8" rx="1.5" fill="#e0f2fe" stroke="#0369a1" stroke-width="1.25"/><rect x="883.0" y="630.1" width="7.9" height="5.7" rx="1.2" fill="#e0f2fe" stroke="#0369a1" stroke-width="1.25"/><rect x="883.0" y="637.2" width="7.9" height="5.7" rx="1.2" fill="#e0f2fe" stroke="#0369a1" stroke-width="1.25"/></g><text x="831.0" y="674.0" text-anchor="middle" dominant-baseline="middle" fill="#0c4a6e" font-size="14.0" textLength="47.4" lengthAdjust="spacing">Lfm.Api</text></g><g data-dediren-node-id="storage-account"><rect data-dediren-node-shape="archimate_rectangle" x="2050.0" y="52.0" width="160.0" height="80.0" rx="0" fill="#d5e8d4" stroke="#4d7c0f" stroke-width="1.25"/><g data-dediren-node-decorator="archimate_technology_node" data-dediren-icon-kind="node" data-dediren-icon-size="22"><rect x="2182.0" y="65.0" width="18.0" height="12.8" rx="1.5" fill="#d5e8d4" stroke="#4d7c0f" stroke-width="1.25"/><path data-dediren-icon-part="node-3d-edges" d="M 2182.0 65.0 L 2186.0 61.0 L 2204.0 61.0 L 2200.0 65.0 M 2200.0 65.0 L 2204.0 61.0 M 2200.0 77.7 L 2204.0 73.8 M 2204.0 61.0 L 2204.0 73.8" fill="none" stroke="#4d7c0f" stroke-width="1.25" stroke-linejoin="round"/></g><text x="2130.0" y="99.5" text-anchor="middle" dominant-baseline="middle" fill="#365314" font-size="14.0"><tspan x="2130.0" dy="0" textLength="49.0" lengthAdjust="spacing">Storage</tspan><tspan x="2130.0" dy="16.0" textLength="49.0" lengthAdjust="spacing">account</tspan></text></g><g data-dediren-node-id="wow-reference-container"><rect data-dediren-node-shape="archimate_rectangle" x="2435.0" y="262.0" width="160.0" height="80.0" rx="0" fill="#d5e8d4" stroke="#4d7c0f" stroke-width="1.25"/><g data-dediren-node-decorator="archimate_artifact" data-dediren-icon-kind="artifact" data-dediren-icon-size="22"><path data-dediren-icon-part="artifact-document" d="M 2569.2 270.0 L 2579.8 270.0 L 2585.9 276.2 L 2585.9 289.8 L 2569.2 289.8 Z M 2579.8 270.0 L 2579.8 276.2 L 2585.9 276.2" fill="#d5e8d4" stroke="#4d7c0f" stroke-width="1.25"/></g><text x="2515.0" y="309.5" text-anchor="middle" dominant-baseline="middle" fill="#365314" font-size="14.0"><tspan x="2515.0" dy="0" textLength="91.0" lengthAdjust="spacing">wow reference</tspan><tspan x="2515.0" dy="16.0" textLength="33.4" lengthAdjust="spacing">blobs</tspan></text></g><g data-dediren-node-id="wow-media-cache-blobs"><rect data-dediren-node-shape="archimate_rectangle" x="2435.0" y="488.5" width="170.0" height="80.0" rx="0" fill="#d5e8d4" stroke="#4d7c0f" stroke-width="1.25"/><g data-dediren-node-decorator="archimate_artifact" data-dediren-icon-kind="artifact" data-dediren-icon-size="22"><path data-dediren-icon-part="artifact-document" d="M 2579.2 496.5 L 2589.8 496.5 L 2595.9 502.7 L 2595.9 516.3 L 2579.2 516.3 Z M 2589.8 496.5 L 2589.8 502.7 L 2595.9 502.7" fill="#d5e8d4" stroke="#4d7c0f" stroke-width="1.25"/></g><text x="2520.0" y="530.3" text-anchor="middle" dominant-baseline="middle" fill="#365314" font-size="11.8"><tspan x="2520.0" dy="0" textLength="23.7" lengthAdjust="spacing">wow</tspan><tspan x="2520.0" dy="13.6" textLength="68.0" lengthAdjust="spacing">media-cache</tspan><tspan x="2520.0" dy="13.6" textLength="28.4" lengthAdjust="spacing">blobs</tspan></text></g><g data-dediren-node-id="blizzard-game-data-api"><rect data-dediren-node-shape="archimate_rounded_rectangle" x="2051.0" y="744.5" width="160.0" height="80.0" rx="6" fill="#e0f2fe" stroke="#0369a1" stroke-width="1.25"/><g data-dediren-node-decorator="archimate_application_service" data-dediren-icon-kind="service" data-dediren-icon-size="22"><rect x="2183.0" y="753.5" width="22.0" height="13.6" rx="4.0" fill="#e0f2fe" stroke="#0369a1" stroke-width="1.25"/></g><text x="2131.0" y="792.0" text-anchor="middle" dominant-baseline="middle" fill="#0c4a6e" font-size="14.0"><tspan x="2131.0" dy="0" textLength="76.2" lengthAdjust="spacing">WoW Game</tspan><tspan x="2131.0" dy="16.0" textLength="56.0" lengthAdjust="spacing">Data API</tspan></text></g><g data-dediren-node-id="blizzard-render-cdn"><rect data-dediren-node-shape="archimate_rounded_rectangle" x="2051.0" y="920.5" width="160.0" height="80.0" rx="6" fill="#e0f2fe" stroke="#0369a1" stroke-width="1.25"/><g data-dediren-node-decorator="archimate_application_service" data-dediren-icon-kind="service" data-dediren-icon-size="22"><rect x="2183.0" y="929.5" width="22.0" height="13.6" rx="4.0" fill="#e0f2fe" stroke="#0369a1" stroke-width="1.25"/></g><text x="2131.0" y="968.0" text-anchor="middle" dominant-baseline="middle" fill="#0c4a6e" font-size="14.0"><tspan x="2131.0" dy="0" textLength="49.7" lengthAdjust="spacing">Blizzard</tspan><tspan x="2131.0" dy="16.0" textLength="80.1" lengthAdjust="spacing">Render CDN</tspan></text></g></g></svg>

