<svg xmlns="http://www.w3.org/2000/svg" role="img" width="4148" height="2488" viewBox="-20 -52 4148 2520" data-arch-a11y="root" data-arch-a11y-viewbox="-20.0 -20.0 4148.0 2488.0"><title>API Request Pipeline - Application Cooperation</title>
<desc>Which middleware functions cooperate in the API request pipeline?</desc>
<text data-arch-a11y="visible-title" x="-12" y="-32" font-family="sans-serif" font-size="16" font-weight="bold">API Request Pipeline - Application Cooperation</text><rect x="-20.0" y="-20.0" width="4148.0" height="2488.0" fill="#ffffff"/><g font-family="Inter, &quot;Liberation Sans&quot;, &quot;Noto Sans&quot;, Arial, &quot;Helvetica Neue&quot;, &quot;Segoe UI&quot;, sans-serif" font-size="14"><g data-dediren-group-id="api-surface"><rect x="12.0" y="260.5" width="427.0" height="336.0" rx="8" fill="#f8fafc" stroke="#94a3b8" stroke-width="1"/><text x="20.0" y="276.5" fill="#334155" font-size="12">API surface</text></g><g data-dediren-group-id="inbound-request-pipeline"><rect x="807.0" y="12.0" width="2894.0" height="1630.0" rx="8" fill="#f8fafc" stroke="#94a3b8" stroke-width="1"/><text x="815.0" y="28.0" fill="#334155" font-size="12">Inbound request pipeline (ordered)</text></g><g data-dediren-group-id="outbound-blizzard-gateway"><rect x="807.0" y="1738.0" width="369.0" height="698.0" rx="8" fill="#f8fafc" stroke="#94a3b8" stroke-width="1"/><text x="815.0" y="1754.0" fill="#334155" font-size="12">Outbound Blizzard gateway</text></g><g data-dediren-edge-id="api-performs-request-pipeline"><marker id="marker-start-api-performs-request-pipeline" data-dediren-edge-marker-start="filled_circle" markerWidth="10" markerHeight="10" refX="1" refY="5" orient="auto"><circle cx="5" cy="5" r="3.5" fill="#475569" stroke="#475569" stroke-width="1"/></marker><marker id="marker-end-api-performs-request-pipeline" data-dediren-edge-marker-end="open_arrow" markerWidth="10" markerHeight="10" refX="9" refY="5" orient="auto"><path d="M 1 1 L 9 5 L 1 9" fill="none" stroke="#475569" stroke-width="1.5"/></marker><path d="M 223.0 503.8 L 279.0 503.8 Q 287.0 503.8 287.0 495.8 L 287.0 441.3 Q 287.0 433.3 295.0 433.3 L 471.0 433.3 L 655.0 433.3 Q 663.0 433.3 663.0 425.3 L 663.0 300.5 Q 663.0 292.5 671.0 292.5 L 775.0 292.5 L 975.0 292.5" fill="none" stroke="#475569" stroke-width="1.25" stroke-linecap="round" stroke-linejoin="round" marker-start="url(#marker-start-api-performs-request-pipeline)" marker-end="url(#marker-end-api-performs-request-pipeline)"/><text x="269.0" y="493.8" text-anchor="middle" fill="none" font-size="15.4" font-weight="600" stroke="#ffffff" stroke-width="2">performs</text><text x="269.0" y="493.8" text-anchor="middle" fill="#374151" font-size="15.4" font-weight="600">performs</text></g><g data-dediren-edge-id="api-performs-blizzard-rate-limiting"><marker id="marker-start-api-performs-blizzard-rate-limiting" data-dediren-edge-marker-start="filled_circle" markerWidth="10" markerHeight="10" refX="1" refY="5" orient="auto"><circle cx="5" cy="5" r="3.5" fill="#475569" stroke="#475569" stroke-width="1"/></marker><marker id="marker-end-api-performs-blizzard-rate-limiting" data-dediren-edge-marker-end="open_arrow" markerWidth="10" markerHeight="10" refX="9" refY="5" orient="auto"><path d="M 1 1 L 9 5 L 1 9" fill="none" stroke="#475569" stroke-width="1.5"/></marker><path d="M 223.0 516.5 L 327.0 516.5 Q 335.0 516.5 335.0 508.5 L 335.0 489.3 Q 335.0 481.3 343.0 481.3 L 471.0 481.3 L 527.0 481.3 Q 535.0 481.3 535.0 489.3 L 535.0 493.3 Q 535.0 501.3 543.0 501.3 L 703.0 501.3 Q 711.0 501.3 711.0 509.3 L 711.0 1804.8 Q 711.0 1812.8 719.0 1812.8 L 775.0 1812.8 L 975.0 1812.8" fill="none" stroke="#475569" stroke-width="1.25" stroke-linecap="round" stroke-linejoin="round" marker-start="url(#marker-start-api-performs-blizzard-rate-limiting)" marker-end="url(#marker-end-api-performs-blizzard-rate-limiting)"/><text x="279.0" y="562.5" text-anchor="middle" fill="none" font-size="15.4" font-weight="600" stroke="#ffffff" stroke-width="2">performs</text><text x="279.0" y="562.5" text-anchor="middle" fill="#374151" font-size="15.4" font-weight="600">performs</text></g><g data-dediren-edge-id="request-pipeline-serves-rest-api"><marker id="marker-end-request-pipeline-serves-rest-api" data-dediren-edge-marker-end="open_arrow" markerWidth="10" markerHeight="10" refX="9" refY="5" orient="auto"><path d="M 1 1 L 9 5 L 1 9" fill="none" stroke="#475569" stroke-width="1.5"/></marker><g data-dediren-line-jump-masks="request-pipeline-serves-rest-api"><path d="M 657.0 340.5 Q 663.0 334.5 669.0 340.5" fill="none" stroke="#ffffff" stroke-width="6"/></g><path d="M 975.0 309.5 L 919.0 309.5 Q 911.0 309.5 911.0 317.5 L 911.0 332.5 Q 911.0 340.5 903.0 340.5 L 775.0 340.5 L 669.0 340.5 Q 663.0 334.5 657.0 340.5 L 471.0 340.5 L 223.0 340.5" fill="none" stroke="#475569" stroke-width="1.25" stroke-linecap="round" stroke-linejoin="round" marker-end="url(#marker-end-request-pipeline-serves-rest-api)"/><text x="943.0" y="327.5" text-anchor="middle" fill="none" font-size="15.4" font-weight="600" stroke="#ffffff" stroke-width="2">guards</text><text x="943.0" y="327.5" text-anchor="middle" fill="#374151" font-size="15.4" font-weight="600">guards</text></g><g data-dediren-edge-id="cors-triggers-security-headers"><marker id="marker-end-cors-triggers-security-headers" data-dediren-edge-marker-end="open_arrow" markerWidth="10" markerHeight="10" refX="9" refY="5" orient="auto"><path d="M 1 1 L 9 5 L 1 9" fill="none" stroke="#475569" stroke-width="1.5"/></marker><path d="M 1055.5 133.0 L 1055.5 189.0 Q 1055.5 197.0 1063.5 197.0 L 1400.0 197.0 Q 1408.0 197.0 1408.0 205.0 L 1408.0 261.0" fill="none" stroke="#475569" stroke-width="1.25" stroke-linecap="round" stroke-linejoin="round" marker-end="url(#marker-end-cors-triggers-security-headers)"/><text x="1231.8" y="215.0" text-anchor="middle" fill="none" font-size="15.4" font-weight="600" stroke="#ffffff" stroke-width="2">then</text><text x="1231.8" y="215.0" text-anchor="middle" fill="#374151" font-size="15.4" font-weight="600">then</text></g><g data-dediren-edge-id="security-headers-triggers-request-size-limit"><marker id="marker-end-security-headers-triggers-request-size-limit" data-dediren-edge-marker-end="open_arrow" markerWidth="10" markerHeight="10" refX="9" refY="5" orient="auto"><path d="M 1 1 L 9 5 L 1 9" fill="none" stroke="#475569" stroke-width="1.5"/></marker><path d="M 1408.0 343.0 L 1408.0 399.0 Q 1408.0 407.0 1416.0 407.0 L 1752.0 407.0 Q 1760.0 407.0 1760.0 415.0 L 1760.0 471.0" fill="none" stroke="#475569" stroke-width="1.25" stroke-linecap="round" stroke-linejoin="round" marker-end="url(#marker-end-security-headers-triggers-request-size-limit)"/><text x="1584.0" y="425.0" text-anchor="middle" fill="none" font-size="15.4" font-weight="600" stroke="#ffffff" stroke-width="2">then</text><text x="1584.0" y="425.0" text-anchor="middle" fill="#374151" font-size="15.4" font-weight="600">then</text></g><g data-dediren-edge-id="request-size-limit-triggers-rate-limit"><marker id="marker-end-request-size-limit-triggers-rate-limit" data-dediren-edge-marker-end="open_arrow" markerWidth="10" markerHeight="10" refX="9" refY="5" orient="auto"><path d="M 1 1 L 9 5 L 1 9" fill="none" stroke="#475569" stroke-width="1.5"/></marker><path d="M 1760.0 553.0 L 1760.0 609.0 Q 1760.0 617.0 1768.0 617.0 L 2104.0 617.0 Q 2112.0 617.0 2112.0 625.0 L 2112.0 681.0" fill="none" stroke="#475569" stroke-width="1.25" stroke-linecap="round" stroke-linejoin="round" marker-end="url(#marker-end-request-size-limit-triggers-rate-limit)"/><text x="1936.0" y="635.0" text-anchor="middle" fill="none" font-size="15.4" font-weight="600" stroke="#ffffff" stroke-width="2">then</text><text x="1936.0" y="635.0" text-anchor="middle" fill="#374151" font-size="15.4" font-weight="600">then</text></g><g data-dediren-edge-id="rate-limit-triggers-audit"><marker id="marker-end-rate-limit-triggers-audit" data-dediren-edge-marker-end="open_arrow" markerWidth="10" markerHeight="10" refX="9" refY="5" orient="auto"><path d="M 1 1 L 9 5 L 1 9" fill="none" stroke="#475569" stroke-width="1.5"/></marker><path d="M 2112.0 763.0 L 2112.0 819.0 Q 2112.0 827.0 2120.0 827.0 L 2456.0 827.0 Q 2464.0 827.0 2464.0 835.0 L 2464.0 891.0" fill="none" stroke="#475569" stroke-width="1.25" stroke-linecap="round" stroke-linejoin="round" marker-end="url(#marker-end-rate-limit-triggers-audit)"/><text x="2288.0" y="845.0" text-anchor="middle" fill="none" font-size="15.4" font-weight="600" stroke="#ffffff" stroke-width="2">then</text><text x="2288.0" y="845.0" text-anchor="middle" fill="#374151" font-size="15.4" font-weight="600">then</text></g><g data-dediren-edge-id="audit-triggers-auth"><marker id="marker-end-audit-triggers-auth" data-dediren-edge-marker-end="open_arrow" markerWidth="10" markerHeight="10" refX="9" refY="5" orient="auto"><path d="M 1 1 L 9 5 L 1 9" fill="none" stroke="#475569" stroke-width="1.5"/></marker><path d="M 2464.0 973.0 L 2464.0 1029.0 Q 2464.0 1037.0 2472.0 1037.0 L 2823.0 1037.0 Q 2831.0 1037.0 2831.0 1045.0 L 2831.0 1101.0" fill="none" stroke="#475569" stroke-width="1.25" stroke-linecap="round" stroke-linejoin="round" marker-end="url(#marker-end-audit-triggers-auth)"/><text x="2647.5" y="1055.0" text-anchor="middle" fill="none" font-size="15.4" font-weight="600" stroke="#ffffff" stroke-width="2">then</text><text x="2647.5" y="1055.0" text-anchor="middle" fill="#374151" font-size="15.4" font-weight="600">then</text></g><g data-dediren-edge-id="auth-triggers-auth-policy"><marker id="marker-end-auth-triggers-auth-policy" data-dediren-edge-marker-end="open_arrow" markerWidth="10" markerHeight="10" refX="9" refY="5" orient="auto"><path d="M 1 1 L 9 5 L 1 9" fill="none" stroke="#475569" stroke-width="1.5"/></marker><path d="M 2831.0 1183.0 L 2831.0 1239.0 Q 2831.0 1247.0 2839.0 1247.0 L 3205.0 1247.0 Q 3213.0 1247.0 3213.0 1255.0 L 3213.0 1311.0" fill="none" stroke="#475569" stroke-width="1.25" stroke-linecap="round" stroke-linejoin="round" marker-end="url(#marker-end-auth-triggers-auth-policy)"/><text x="3022.0" y="1265.0" text-anchor="middle" fill="none" font-size="15.4" font-weight="600" stroke="#ffffff" stroke-width="2">then</text><text x="3022.0" y="1265.0" text-anchor="middle" fill="#374151" font-size="15.4" font-weight="600">then</text></g><g data-dediren-edge-id="auth-policy-triggers-idempotency"><marker id="marker-end-auth-policy-triggers-idempotency" data-dediren-edge-marker-end="open_arrow" markerWidth="10" markerHeight="10" refX="9" refY="5" orient="auto"><path d="M 1 1 L 9 5 L 1 9" fill="none" stroke="#475569" stroke-width="1.5"/></marker><path d="M 3213.0 1393.0 L 3213.0 1449.0 Q 3213.0 1457.0 3221.0 1457.0 L 3572.0 1457.0 Q 3580.0 1457.0 3580.0 1465.0 L 3580.0 1521.0" fill="none" stroke="#475569" stroke-width="1.25" stroke-linecap="round" stroke-linejoin="round" marker-end="url(#marker-end-auth-policy-triggers-idempotency)"/><text x="3396.5" y="1475.0" text-anchor="middle" fill="none" font-size="15.4" font-weight="600" stroke="#ffffff" stroke-width="2">then</text><text x="3396.5" y="1475.0" text-anchor="middle" fill="#374151" font-size="15.4" font-weight="600">then</text></g><g data-dediren-edge-id="idempotency-accesses-idempotency-store"><marker id="marker-end-idempotency-accesses-idempotency-store" data-dediren-edge-marker-end="open_arrow" markerWidth="10" markerHeight="10" refX="9" refY="5" orient="auto"><path d="M 1 1 L 9 5 L 1 9" fill="none" stroke="#475569" stroke-width="1.5"/></marker><path d="M 3661.0 1562.0 L 3733.0 1562.0 L 3925.0 1562.0" fill="none" stroke="#475569" stroke-width="1.25" stroke-linecap="round" stroke-linejoin="round" stroke-dasharray="8 5" marker-end="url(#marker-end-idempotency-accesses-idempotency-store)"/><text x="3697.0" y="1664.0" text-anchor="middle" fill="none" font-size="15.4" font-weight="600" stroke="#ffffff" stroke-width="2">reads/writes</text><text x="3697.0" y="1664.0" text-anchor="middle" fill="#374151" font-size="15.4" font-weight="600">reads/writes</text></g><g data-dediren-edge-id="blizzard-rate-limiting-serves-api"><marker id="marker-end-blizzard-rate-limiting-serves-api" data-dediren-edge-marker-end="open_arrow" markerWidth="10" markerHeight="10" refX="9" refY="5" orient="auto"><path d="M 1 1 L 9 5 L 1 9" fill="none" stroke="#475569" stroke-width="1.5"/></marker><path d="M 975.0 1833.2 L 919.0 1833.2 Q 911.0 1833.2 911.0 1841.2 L 911.0 1852.8 Q 911.0 1860.8 903.0 1860.8 L 775.0 1860.8 L 671.0 1860.8 Q 663.0 1860.8 663.0 1852.8 L 663.0 577.3 Q 663.0 569.3 655.0 569.3 L 543.0 569.3 Q 535.0 569.3 535.0 561.3 L 535.0 537.3 Q 535.0 529.3 527.0 529.3 L 471.0 529.3 L 223.0 529.3" fill="none" stroke="#475569" stroke-width="1.25" stroke-linecap="round" stroke-linejoin="round" marker-end="url(#marker-end-blizzard-rate-limiting-serves-api)"/><text x="943.0" y="1907.2" text-anchor="middle" fill="none" font-size="15.4" font-weight="600" stroke="#ffffff" stroke-width="2">throttles outbound</text><text x="943.0" y="1907.2" text-anchor="middle" fill="#374151" font-size="15.4" font-weight="600">throttles outbound</text></g><g data-dediren-edge-id="battlenet-oauth-serves-api"><marker id="marker-end-battlenet-oauth-serves-api" data-dediren-edge-marker-end="open_arrow" markerWidth="10" markerHeight="10" refX="9" refY="5" orient="auto"><path d="M 1 1 L 9 5 L 1 9" fill="none" stroke="#475569" stroke-width="1.5"/></marker><path d="M 975.0 2356.0 L 775.0 2356.0 L 671.0 2356.0 Q 663.0 2356.0 663.0 2348.0 L 663.0 2148.0 Q 663.0 2140.0 655.0 2140.0 L 543.0 2140.0 Q 535.0 2140.0 535.0 2132.0 L 535.0 537.3 Q 535.0 529.3 527.0 529.3 L 471.0 529.3 L 223.0 529.3" fill="none" stroke="#475569" stroke-width="1.25" stroke-linecap="round" stroke-linejoin="round" marker-end="url(#marker-end-battlenet-oauth-serves-api)"/><text x="875.0" y="2374.0" text-anchor="middle" fill="none" font-size="15.4" font-weight="600" stroke="#ffffff" stroke-width="2">OAuth</text><text x="875.0" y="2374.0" text-anchor="middle" fill="#374151" font-size="15.4" font-weight="600">OAuth</text></g><g data-dediren-edge-id="profile-api-serves-api"><marker id="marker-end-profile-api-serves-api" data-dediren-edge-marker-end="open_arrow" markerWidth="10" markerHeight="10" refX="9" refY="5" orient="auto"><path d="M 1 1 L 9 5 L 1 9" fill="none" stroke="#475569" stroke-width="1.5"/></marker><path d="M 975.0 2004.0 L 775.0 2004.0 L 543.0 2004.0 Q 535.0 2004.0 535.0 1996.0 L 535.0 537.3 Q 535.0 529.3 527.0 529.3 L 471.0 529.3 L 223.0 529.3" fill="none" stroke="#475569" stroke-width="1.25" stroke-linecap="round" stroke-linejoin="round" marker-end="url(#marker-end-profile-api-serves-api)"/><text x="875.0" y="2022.0" text-anchor="middle" fill="none" font-size="15.4" font-weight="600" stroke="#ffffff" stroke-width="2">profile data</text><text x="875.0" y="2022.0" text-anchor="middle" fill="#374151" font-size="15.4" font-weight="600">profile data</text></g><g data-dediren-edge-id="game-data-api-serves-api"><marker id="marker-end-game-data-api-serves-api" data-dediren-edge-marker-end="open_arrow" markerWidth="10" markerHeight="10" refX="9" refY="5" orient="auto"><path d="M 1 1 L 9 5 L 1 9" fill="none" stroke="#475569" stroke-width="1.5"/></marker><path d="M 975.0 2180.0 L 775.0 2180.0 L 719.0 2180.0 Q 711.0 2180.0 711.0 2172.0 L 711.0 2080.0 Q 711.0 2072.0 703.0 2072.0 L 543.0 2072.0 Q 535.0 2072.0 535.0 2064.0 L 535.0 537.3 Q 535.0 529.3 527.0 529.3 L 471.0 529.3 L 223.0 529.3" fill="none" stroke="#475569" stroke-width="1.25" stroke-linecap="round" stroke-linejoin="round" marker-end="url(#marker-end-game-data-api-serves-api)"/><text x="875.0" y="2198.0" text-anchor="middle" fill="none" font-size="15.4" font-weight="600" stroke="#ffffff" stroke-width="2">game data</text><text x="875.0" y="2198.0" text-anchor="middle" fill="#374151" font-size="15.4" font-weight="600">game data</text></g><g data-dediren-node-id="lfm-api"><rect data-dediren-node-shape="archimate_rectangle" x="62.0" y="476.5" width="160.0" height="80.0" rx="0" fill="#e0f2fe" stroke="#0369a1" stroke-width="1.25"/><g data-dediren-node-decorator="archimate_application_component" data-dediren-icon-kind="component" data-dediren-icon-size="22"><rect x="198.0" y="485.5" width="18.0" height="15.8" rx="1.5" fill="#e0f2fe" stroke="#0369a1" stroke-width="1.25"/><rect x="194.0" y="488.1" width="7.9" height="5.7" rx="1.2" fill="#e0f2fe" stroke="#0369a1" stroke-width="1.25"/><rect x="194.0" y="495.2" width="7.9" height="5.7" rx="1.2" fill="#e0f2fe" stroke="#0369a1" stroke-width="1.25"/></g><text x="142.0" y="532.0" text-anchor="middle" dominant-baseline="middle" fill="#0c4a6e" font-size="14.0" textLength="47.4" lengthAdjust="spacing">Lfm.Api</text></g><g data-dediren-node-id="rest-api"><rect data-dediren-node-shape="archimate_rectangle" x="52.0" y="300.5" width="170.0" height="80.0" rx="0" fill="#e0f2fe" stroke="#0369a1" stroke-width="1.25"/><g data-dediren-node-decorator="archimate_application_interface" data-dediren-icon-kind="interface" data-dediren-icon-size="22"><ellipse cx="209.8" cy="315.7" rx="4.0" ry="4.0" fill="#e0f2fe" stroke="#0369a1" stroke-width="1.25"/><path d="M 196.2 315.7 L 205.9 315.7" fill="none" stroke="#0369a1" stroke-width="1.25"/></g><text x="137.0" y="348.0" text-anchor="middle" dominant-baseline="middle" fill="#0c4a6e" font-size="14.0"><tspan x="137.0" dy="0" textLength="63.7" lengthAdjust="spacing">REST API</tspan><tspan x="137.0" dy="16.0" textLength="59.9" lengthAdjust="spacing">(/api/v1/*)</tspan></text></g><g data-dediren-node-id="api-request-pipeline"><rect data-dediren-node-shape="archimate_rounded_rectangle" x="976.0" y="261.0" width="160.0" height="80.0" rx="6" fill="#e0f2fe" stroke="#0369a1" stroke-width="1.25"/><g data-dediren-node-decorator="archimate_application_function" data-dediren-icon-kind="function" data-dediren-icon-size="22"><path data-dediren-icon-part="function-bookmark" d="M 1112.0 274.4 L 1119.0 271.3 L 1126.0 274.4 L 1126.0 285.4 L 1119.0 282.3 L 1112.0 285.4 Z" fill="#e0f2fe" stroke="#0369a1" stroke-width="1.25"/></g><text x="1056.0" y="308.5" text-anchor="middle" dominant-baseline="middle" fill="#0c4a6e" font-size="14.0"><tspan x="1056.0" dy="0" textLength="73.1" lengthAdjust="spacing">API request</tspan><tspan x="1056.0" dy="16.0" textLength="48.2" lengthAdjust="spacing">pipeline</tspan></text></g><g data-dediren-node-id="mw-cors"><rect data-dediren-node-shape="archimate_rounded_rectangle" x="975.5" y="52.0" width="160.0" height="80.0" rx="6" fill="#e0f2fe" stroke="#0369a1" stroke-width="1.25"/><g data-dediren-node-decorator="archimate_application_function" data-dediren-icon-kind="function" data-dediren-icon-size="22"><path data-dediren-icon-part="function-bookmark" d="M 1111.5 65.4 L 1118.5 62.3 L 1125.5 65.4 L 1125.5 76.4 L 1118.5 73.3 L 1111.5 76.4 Z" fill="#e0f2fe" stroke="#0369a1" stroke-width="1.25"/></g><text x="1055.5" y="99.5" text-anchor="middle" dominant-baseline="middle" fill="#0c4a6e" font-size="14.0"><tspan x="1055.5" dy="0" textLength="40.4" lengthAdjust="spacing">CORS</tspan><tspan x="1055.5" dy="16.0" textLength="52.9" lengthAdjust="spacing">handling</tspan></text></g><g data-dediren-node-id="mw-security-headers"><rect data-dediren-node-shape="archimate_rounded_rectangle" x="1328.0" y="262.0" width="160.0" height="80.0" rx="6" fill="#e0f2fe" stroke="#0369a1" stroke-width="1.25"/><g data-dediren-node-decorator="archimate_application_function" data-dediren-icon-kind="function" data-dediren-icon-size="22"><path data-dediren-icon-part="function-bookmark" d="M 1464.0 275.4 L 1471.0 272.3 L 1478.0 275.4 L 1478.0 286.4 L 1471.0 283.3 L 1464.0 286.4 Z" fill="#e0f2fe" stroke="#0369a1" stroke-width="1.25"/></g><text x="1408.0" y="309.5" text-anchor="middle" dominant-baseline="middle" fill="#0c4a6e" font-size="14.0"><tspan x="1408.0" dy="0" textLength="50.5" lengthAdjust="spacing">Security</tspan><tspan x="1408.0" dy="16.0" textLength="50.5" lengthAdjust="spacing">headers</tspan></text></g><g data-dediren-node-id="mw-request-size-limit"><rect data-dediren-node-shape="archimate_rounded_rectangle" x="1680.0" y="472.0" width="160.0" height="80.0" rx="6" fill="#e0f2fe" stroke="#0369a1" stroke-width="1.25"/><g data-dediren-node-decorator="archimate_application_function" data-dediren-icon-kind="function" data-dediren-icon-size="22"><path data-dediren-icon-part="function-bookmark" d="M 1816.0 485.4 L 1823.0 482.3 L 1830.0 485.4 L 1830.0 496.4 L 1823.0 493.3 L 1816.0 496.4 Z" fill="#e0f2fe" stroke="#0369a1" stroke-width="1.25"/></g><text x="1760.0" y="519.5" text-anchor="middle" dominant-baseline="middle" fill="#0c4a6e" font-size="14.0"><tspan x="1760.0" dy="0" textLength="80.9" lengthAdjust="spacing">Request size</tspan><tspan x="1760.0" dy="16.0" textLength="43.5" lengthAdjust="spacing">limiting</tspan></text></g><g data-dediren-node-id="mw-rate-limit"><rect data-dediren-node-shape="archimate_rounded_rectangle" x="2032.0" y="682.0" width="160.0" height="80.0" rx="6" fill="#e0f2fe" stroke="#0369a1" stroke-width="1.25"/><g data-dediren-node-decorator="archimate_application_function" data-dediren-icon-kind="function" data-dediren-icon-size="22"><path data-dediren-icon-part="function-bookmark" d="M 2168.0 695.4 L 2175.0 692.3 L 2182.0 695.4 L 2182.0 706.4 L 2175.0 703.3 L 2168.0 706.4 Z" fill="#e0f2fe" stroke="#0369a1" stroke-width="1.25"/></g><text x="2112.0" y="729.5" text-anchor="middle" dominant-baseline="middle" fill="#0c4a6e" font-size="14.0"><tspan x="2112.0" dy="0" textLength="78.6" lengthAdjust="spacing">Inbound rate</tspan><tspan x="2112.0" dy="16.0" textLength="43.5" lengthAdjust="spacing">limiting</tspan></text></g><g data-dediren-node-id="mw-audit"><rect data-dediren-node-shape="archimate_rounded_rectangle" x="2384.0" y="892.0" width="160.0" height="80.0" rx="6" fill="#e0f2fe" stroke="#0369a1" stroke-width="1.25"/><g data-dediren-node-decorator="archimate_application_function" data-dediren-icon-kind="function" data-dediren-icon-size="22"><path data-dediren-icon-part="function-bookmark" d="M 2520.0 905.4 L 2527.0 902.3 L 2534.0 905.4 L 2534.0 916.4 L 2527.0 913.3 L 2520.0 916.4 Z" fill="#e0f2fe" stroke="#0369a1" stroke-width="1.25"/></g><text x="2464.0" y="939.5" text-anchor="middle" dominant-baseline="middle" fill="#0c4a6e" font-size="14.0"><tspan x="2464.0" dy="0" textLength="86.3" lengthAdjust="spacing">Request audit</tspan><tspan x="2464.0" dy="16.0" textLength="45.1" lengthAdjust="spacing">logging</tspan></text></g><g data-dediren-node-id="mw-auth"><rect data-dediren-node-shape="archimate_rounded_rectangle" x="2736.0" y="1102.0" width="190.0" height="80.0" rx="6" fill="#e0f2fe" stroke="#0369a1" stroke-width="1.25"/><g data-dediren-node-decorator="archimate_application_function" data-dediren-icon-kind="function" data-dediren-icon-size="22"><path data-dediren-icon-part="function-bookmark" d="M 2902.0 1115.4 L 2909.0 1112.3 L 2916.0 1115.4 L 2916.0 1126.4 L 2909.0 1123.3 L 2902.0 1126.4 Z" fill="#e0f2fe" stroke="#0369a1" stroke-width="1.25"/></g><text x="2831.0" y="1157.5" text-anchor="middle" dominant-baseline="middle" fill="#0c4a6e" font-size="14.0" textLength="88.7" lengthAdjust="spacing">Authentication</text></g><g data-dediren-node-id="mw-auth-policy"><rect data-dediren-node-shape="archimate_rounded_rectangle" x="3118.0" y="1312.0" width="190.0" height="80.0" rx="6" fill="#e0f2fe" stroke="#0369a1" stroke-width="1.25"/><g data-dediren-node-decorator="archimate_application_function" data-dediren-icon-kind="function" data-dediren-icon-size="22"><path data-dediren-icon-part="function-bookmark" d="M 3284.0 1325.4 L 3291.0 1322.3 L 3298.0 1325.4 L 3298.0 1336.4 L 3291.0 1333.3 L 3284.0 1336.4 Z" fill="#e0f2fe" stroke="#0369a1" stroke-width="1.25"/></g><text x="3213.0" y="1367.5" text-anchor="middle" dominant-baseline="middle" fill="#0c4a6e" font-size="14.0" textLength="121.3" lengthAdjust="spacing">Authorization policy</text></g><g data-dediren-node-id="mw-idempotency"><rect data-dediren-node-shape="archimate_rounded_rectangle" x="3500.0" y="1522.0" width="160.0" height="80.0" rx="6" fill="#e0f2fe" stroke="#0369a1" stroke-width="1.25"/><g data-dediren-node-decorator="archimate_application_function" data-dediren-icon-kind="function" data-dediren-icon-size="22"><path data-dediren-icon-part="function-bookmark" d="M 3636.0 1535.4 L 3643.0 1532.3 L 3650.0 1535.4 L 3650.0 1546.4 L 3643.0 1543.3 L 3636.0 1546.4 Z" fill="#e0f2fe" stroke="#0369a1" stroke-width="1.25"/></g><text x="3580.0" y="1569.5" text-anchor="middle" dominant-baseline="middle" fill="#0c4a6e" font-size="14.0"><tspan x="3580.0" dy="0" textLength="70.0" lengthAdjust="spacing">Idempotent</tspan><tspan x="3580.0" dy="16.0" textLength="38.1" lengthAdjust="spacing">replay</tspan></text></g><g data-dediren-node-id="blizzard-rate-limiting"><rect data-dediren-node-shape="archimate_rounded_rectangle" x="976.0" y="1778.0" width="160.0" height="90.0" rx="6" fill="#e0f2fe" stroke="#0369a1" stroke-width="1.25"/><g data-dediren-node-decorator="archimate_application_function" data-dediren-icon-kind="function" data-dediren-icon-size="22"><path data-dediren-icon-part="function-bookmark" d="M 1112.0 1791.4 L 1119.0 1788.3 L 1126.0 1791.4 L 1126.0 1802.4 L 1119.0 1799.3 L 1112.0 1802.4 Z" fill="#e0f2fe" stroke="#0369a1" stroke-width="1.25"/></g><text x="1056.0" y="1830.5" text-anchor="middle" dominant-baseline="middle" fill="#0c4a6e" font-size="14.0"><tspan x="1056.0" dy="0" textLength="77.7" lengthAdjust="spacing">Blizzard rate</tspan><tspan x="1056.0" dy="16.0" textLength="43.5" lengthAdjust="spacing">limiting</tspan></text></g><g data-dediren-node-id="battlenet-oauth"><rect data-dediren-node-shape="archimate_rounded_rectangle" x="976.0" y="2316.0" width="160.0" height="80.0" rx="6" fill="#e0f2fe" stroke="#0369a1" stroke-width="1.25"/><g data-dediren-node-decorator="archimate_application_service" data-dediren-icon-kind="service" data-dediren-icon-size="22"><rect x="1108.0" y="2325.0" width="22.0" height="13.6" rx="4.0" fill="#e0f2fe" stroke="#0369a1" stroke-width="1.25"/></g><text x="1056.0" y="2363.5" text-anchor="middle" dominant-baseline="middle" fill="#0c4a6e" font-size="14.0"><tspan x="1056.0" dy="0" textLength="59.1" lengthAdjust="spacing">Battle.net</tspan><tspan x="1056.0" dy="16.0" textLength="63.0" lengthAdjust="spacing">OAuth 2.0</tspan></text></g><g data-dediren-node-id="blizzard-profile-api"><rect data-dediren-node-shape="archimate_rounded_rectangle" x="976.0" y="1964.0" width="160.0" height="80.0" rx="6" fill="#e0f2fe" stroke="#0369a1" stroke-width="1.25"/><g data-dediren-node-decorator="archimate_application_service" data-dediren-icon-kind="service" data-dediren-icon-size="22"><rect x="1108.0" y="1973.0" width="22.0" height="13.6" rx="4.0" fill="#e0f2fe" stroke="#0369a1" stroke-width="1.25"/></g><text x="1056.0" y="2011.5" text-anchor="middle" dominant-baseline="middle" fill="#0c4a6e" font-size="14.0"><tspan x="1056.0" dy="0" textLength="77.7" lengthAdjust="spacing">WoW Profile</tspan><tspan x="1056.0" dy="16.0" textLength="22.5" lengthAdjust="spacing">API</tspan></text></g><g data-dediren-node-id="blizzard-game-data-api"><rect data-dediren-node-shape="archimate_rounded_rectangle" x="976.0" y="2140.0" width="160.0" height="80.0" rx="6" fill="#e0f2fe" stroke="#0369a1" stroke-width="1.25"/><g data-dediren-node-decorator="archimate_application_service" data-dediren-icon-kind="service" data-dediren-icon-size="22"><rect x="1108.0" y="2149.0" width="22.0" height="13.6" rx="4.0" fill="#e0f2fe" stroke="#0369a1" stroke-width="1.25"/></g><text x="1056.0" y="2187.5" text-anchor="middle" dominant-baseline="middle" fill="#0c4a6e" font-size="14.0"><tspan x="1056.0" dy="0" textLength="76.2" lengthAdjust="spacing">WoW Game</tspan><tspan x="1056.0" dy="16.0" textLength="56.0" lengthAdjust="spacing">Data API</tspan></text></g><g data-dediren-node-id="cosmos-idempotency"><rect data-dediren-node-shape="archimate_rectangle" x="3926.0" y="1522.0" width="170.0" height="80.0" rx="0" fill="#d5e8d4" stroke="#4d7c0f" stroke-width="1.25"/><g data-dediren-node-decorator="archimate_artifact" data-dediren-icon-kind="artifact" data-dediren-icon-size="22"><path data-dediren-icon-part="artifact-document" d="M 4070.2 1530.0 L 4080.8 1530.0 L 4086.9 1536.2 L 4086.9 1549.8 L 4070.2 1549.8 Z M 4080.8 1530.0 L 4080.8 1536.2 L 4086.9 1536.2" fill="#d5e8d4" stroke="#4d7c0f" stroke-width="1.25"/></g><text x="4011.0" y="1569.5" text-anchor="middle" dominant-baseline="middle" fill="#365314" font-size="14.0"><tspan x="4011.0" dy="0" textLength="79.3" lengthAdjust="spacing">idempotency</tspan><tspan x="4011.0" dy="16.0" textLength="57.5" lengthAdjust="spacing">container</tspan></text></g></g></svg>

