<svg xmlns="http://www.w3.org/2000/svg" width="1733" height="560" viewBox="-12.0 -12.0 1733.0 560.0"><rect x="-12.0" y="-12.0" width="1733.0" height="560.0" fill="#ffffff"/><g font-family="Inter, Arial, sans-serif" font-size="14"><g data-dediren-group-id="account-deletion-ui"><rect x="12.0" y="23.5" width="241.0" height="160.0" rx="4" fill="#f8fafc" stroke="#94a3b8" stroke-width="1"/><text x="20.0" y="39.5" fill="#374151" font-size="12">Account deletion UI</text></g><g data-dediren-group-id="account-deletion-api-host"><rect x="509.0" y="47.5" width="627.0" height="241.0" rx="4" fill="#f8fafc" stroke="#94a3b8" stroke-width="1"/><text x="517.0" y="63.5" fill="#374151" font-size="12">Profile service and account deletion process</text></g><g data-dediren-group-id="account-deletion-data"><rect x="1456.0" y="12.0" width="241.0" height="512.0" rx="4" fill="#f8fafc" stroke="#94a3b8" stroke-width="1"/><text x="1464.0" y="28.0" fill="#374151" font-size="12">Deleted-account data effects</text></g><g data-dediren-edge-id="account-deletion-ui-serves-process"><marker id="marker-end-account-deletion-ui-serves-process" data-dediren-edge-marker-end="open_arrow" markerWidth="10" markerHeight="10" refX="5" refY="5" orient="auto"><path d="M 1 1 L 9 5 L 1 9" fill="none" stroke="#2563eb" stroke-width="1.5"/></marker><path d="M 213.0 103.5 L 285.0 103.5 L 477.0 103.5 L 629.5 103.5 L 806.0 103.5 L 862.0 103.5 Q 870.0 103.5 870.0 111.5 L 870.0 183.5 Q 870.0 191.5 878.0 191.5 L 934.0 191.5" fill="none" stroke="#2563eb" stroke-width="1.5" stroke-linecap="round" stroke-linejoin="round" marker-end="url(#marker-end-account-deletion-ui-serves-process)"/><text x="267.0" y="121.5" text-anchor="middle" fill="none" font-size="15.4" font-weight="600" stroke="#ffffff" stroke-width="2">delete UI</text><text x="267.0" y="121.5" text-anchor="middle" fill="#1e3a8a" font-size="15.4" font-weight="600">delete UI</text></g><g data-dediren-edge-id="raider-service-serves-account-deletion"><marker id="marker-end-raider-service-serves-account-deletion" data-dediren-edge-marker-end="open_arrow" markerWidth="10" markerHeight="10" refX="5" refY="5" orient="auto"><path d="M 1 1 L 9 5 L 1 9" fill="none" stroke="#2563eb" stroke-width="1.5"/></marker><path d="M 710.0 208.5 L 934.0 208.5" fill="none" stroke="#2563eb" stroke-width="1.5" stroke-linecap="round" stroke-linejoin="round" marker-end="url(#marker-end-raider-service-serves-account-deletion)"/><text x="822.0" y="226.5" text-anchor="middle" fill="none" font-size="15.4" font-weight="600" stroke="#ffffff" stroke-width="2">delete account</text><text x="822.0" y="226.5" text-anchor="middle" fill="#1e3a8a" font-size="15.4" font-weight="600">delete account</text></g><g data-dediren-edge-id="account-deletion-accesses-runs"><marker id="marker-end-account-deletion-accesses-runs" data-dediren-edge-marker-end="open_arrow" markerWidth="10" markerHeight="10" refX="5" refY="5" orient="auto"><path d="M 1 1 L 9 5 L 1 9" fill="none" stroke="#15803d" stroke-width="1.5"/></marker><path d="M 1096.0 200.0 L 1168.0 200.0 L 1224.0 200.0 Q 1232.0 200.0 1232.0 208.0 L 1232.0 260.0 Q 1232.0 268.0 1240.0 268.0 L 1424.0 268.0 L 1496.0 268.0" fill="none" stroke="#15803d" stroke-width="1.5" stroke-linecap="round" stroke-linejoin="round" stroke-dasharray="8 5" marker-end="url(#marker-end-account-deletion-accesses-runs)"/><text x="1442.0" y="286.0" text-anchor="middle" fill="none" font-size="15.4" font-weight="600" stroke="#ffffff" stroke-width="2">scrub raider</text><text x="1442.0" y="286.0" text-anchor="middle" fill="#166534" font-size="15.4" font-weight="600">scrub raider</text></g><g data-dediren-edge-id="account-deletion-accesses-raiders"><marker id="marker-end-account-deletion-accesses-raiders" data-dediren-edge-marker-end="open_arrow" markerWidth="10" markerHeight="10" refX="5" refY="5" orient="auto"><path d="M 1 1 L 9 5 L 1 9" fill="none" stroke="#15803d" stroke-width="1.5"/></marker><path d="M 1096.0 200.0 L 1168.0 200.0 L 1224.0 200.0 Q 1232.0 200.0 1232.0 208.0 L 1232.0 328.0 Q 1232.0 336.0 1240.0 336.0 L 1352.0 336.0 Q 1360.0 336.0 1360.0 344.0 L 1360.0 436.0 Q 1360.0 444.0 1368.0 444.0 L 1424.0 444.0 L 1496.0 444.0" fill="none" stroke="#15803d" stroke-width="1.5" stroke-linecap="round" stroke-linejoin="round" stroke-dasharray="8 5" marker-end="url(#marker-end-account-deletion-accesses-raiders)"/><text x="1460.0" y="518.0" text-anchor="middle" fill="none" font-size="15.4" font-weight="600" stroke="#ffffff" stroke-width="2">delete raider</text><text x="1460.0" y="518.0" text-anchor="middle" fill="#166534" font-size="15.4" font-weight="600">delete raider</text></g><g data-dediren-edge-id="account-deletion-accesses-idempotency"><marker id="marker-end-account-deletion-accesses-idempotency" data-dediren-edge-marker-end="open_arrow" markerWidth="10" markerHeight="10" refX="5" refY="5" orient="auto"><path d="M 1 1 L 9 5 L 1 9" fill="none" stroke="#15803d" stroke-width="1.5"/></marker><path d="M 1096.0 200.0 L 1168.0 200.0 L 1352.0 200.0 Q 1360.0 200.0 1360.0 192.0 L 1360.0 100.0 Q 1360.0 92.0 1368.0 92.0 L 1424.0 92.0 L 1496.0 92.0" fill="none" stroke="#15803d" stroke-width="1.5" stroke-linecap="round" stroke-linejoin="round" stroke-dasharray="8 5" marker-end="url(#marker-end-account-deletion-accesses-idempotency)"/><text x="1460.0" y="166.0" text-anchor="middle" fill="none" font-size="15.4" font-weight="600" stroke="#ffffff" stroke-width="2">purge replay cache</text><text x="1460.0" y="166.0" text-anchor="middle" fill="#166534" font-size="15.4" font-weight="600">purge replay cache</text></g><g data-dediren-node-id="account-deletion-ui-entry"><rect data-dediren-node-shape="archimate_rectangle" x="52.0" y="63.5" width="160.0" height="80.0" rx="0" fill="#e8f3ff" stroke="#2563eb" stroke-width="1.5"/><g data-dediren-node-decorator="archimate_application_component" data-dediren-icon-kind="component" data-dediren-icon-size="22"><rect x="188.8" y="74.3" width="15.8" height="14.1" fill="#e8f3ff" stroke="#2563eb" stroke-width="1.5"/><rect x="184.0" y="76.9" width="6.2" height="4.0" fill="#e8f3ff" stroke="#2563eb" stroke-width="1.5"/><rect x="184.0" y="83.1" width="6.2" height="4.0" fill="#e8f3ff" stroke="#2563eb" stroke-width="1.5"/></g><text x="132.0" y="108.2" text-anchor="middle" fill="#172554">Account deletion UI</text></g><g data-dediren-node-id="account-deletion-process"><rect data-dediren-node-shape="archimate_rectangle" x="935.0" y="160.0" width="160.0" height="80.0" rx="4" fill="#f8fafc" stroke="#334155" stroke-width="1.5"/><text x="1015.0" y="204.7" text-anchor="middle" fill="#0f172a">Delete account</text></g><g data-dediren-node-id="raider-profile-service"><rect data-dediren-node-shape="archimate_rounded_rectangle" x="549.0" y="168.5" width="160.0" height="80.0" rx="4" fill="#e8f3ff" stroke="#2563eb" stroke-width="1.5"/><g data-dediren-node-decorator="archimate_application_service" data-dediren-icon-kind="service" data-dediren-icon-size="22"><rect x="681.0" y="180.1" width="22.0" height="11.0" rx="4.0" fill="#e8f3ff" stroke="#2563eb" stroke-width="1.5"/></g><text x="629.0" y="213.2" text-anchor="middle" fill="#172554">Raider profile service</text></g><g data-dediren-node-id="cosmos-runs"><rect data-dediren-node-shape="archimate_rectangle" x="1497.0" y="228.0" width="160.0" height="80.0" rx="0" fill="#f7fee7" stroke="#65a30d" stroke-width="1.5"/><g data-dediren-node-decorator="archimate_artifact" data-dediren-icon-kind="artifact" data-dediren-icon-size="22"><path data-dediren-icon-part="artifact" d="M 1629 237 L 1651 237 L 1640 252.84 Z" fill="#f7fee7" stroke="#65a30d" stroke-width="1.5"/></g><text x="1577.0" y="272.7" text-anchor="middle" fill="#365314">runs container</text></g><g data-dediren-node-id="cosmos-raiders"><rect data-dediren-node-shape="archimate_rectangle" x="1497.0" y="404.0" width="160.0" height="80.0" rx="0" fill="#f7fee7" stroke="#65a30d" stroke-width="1.5"/><g data-dediren-node-decorator="archimate_artifact" data-dediren-icon-kind="artifact" data-dediren-icon-size="22"><path data-dediren-icon-part="artifact" d="M 1629 413 L 1651 413 L 1640 428.84 Z" fill="#f7fee7" stroke="#65a30d" stroke-width="1.5"/></g><text x="1577.0" y="448.7" text-anchor="middle" fill="#365314">raiders container</text></g><g data-dediren-node-id="cosmos-idempotency"><rect data-dediren-node-shape="archimate_rectangle" x="1497.0" y="52.0" width="160.0" height="80.0" rx="0" fill="#f7fee7" stroke="#65a30d" stroke-width="1.5"/><g data-dediren-node-decorator="archimate_artifact" data-dediren-icon-kind="artifact" data-dediren-icon-size="22"><path data-dediren-icon-part="artifact" d="M 1629 61 L 1651 61 L 1640 76.84 Z" fill="#f7fee7" stroke="#65a30d" stroke-width="1.5"/></g><text x="1577.0" y="96.7" text-anchor="middle" fill="#365314">idempotency container</text></g></g></svg>
