<svg xmlns="http://www.w3.org/2000/svg" width="2693" height="1397" viewBox="-12.0 -12.0 2693.0 1396.5"><rect x="-12.0" y="-12.0" width="2693.0" height="1396.5" fill="#ffffff"/><g font-family="Inter, Arial, sans-serif" font-size="14"><g data-dediren-group-id="reference-consumption-ui"><rect x="2032.0" y="348.0" width="305.0" height="320.0" rx="4" fill="#f8fafc" stroke="#94a3b8" stroke-width="1"/><text x="2040.0" y="364.0" fill="#374151" font-size="12">Reference consumption UI</text></g><g data-dediren-group-id="reference-refresh-ui"><rect x="2032.0" y="12.0" width="305.0" height="240.0" rx="4" fill="#f8fafc" stroke="#94a3b8" stroke-width="1"/><text x="2040.0" y="28.0" fill="#374151" font-size="12">Reference refresh UI</text></g><g data-dediren-group-id="reference-api-realization"><rect x="605.0" y="140.0" width="915.0" height="800.5" rx="4" fill="#f8fafc" stroke="#94a3b8" stroke-width="1"/><text x="613.0" y="156.0" fill="#374151" font-size="12">Reference API realization</text></g><g data-dediren-group-id="reference-blob-store"><rect x="2032.0" y="764.0" width="625.0" height="596.5" rx="4" fill="#f8fafc" stroke="#94a3b8" stroke-width="1"/><text x="2040.0" y="780.0" fill="#374151" font-size="12">Reference and media blob store</text></g><g data-dediren-group-id="reference-refresh-external"><rect x="12.0" y="620.5" width="305.0" height="496.0" rx="4" fill="#f8fafc" stroke="#94a3b8" stroke-width="1"/><text x="20.0" y="636.5" fill="#374151" font-size="12">Reference and media dependencies</text></g><g data-dediren-edge-id="reference-service-serves-reference-ui"><marker id="marker-end-reference-service-serves-reference-ui" data-dediren-edge-marker-end="open_arrow" markerWidth="10" markerHeight="10" refX="5" refY="5" orient="auto"><path d="M 1 1 L 9 5 L 1 9" fill="none" stroke="#2563eb" stroke-width="1.5"/></marker><path d="M 1190.0 355.5 L 1134.0 355.5 Q 1126.0 355.5 1126.0 347.5 L 1126.0 268.0 Q 1126.0 260.0 1134.0 260.0 L 1271.0 260.0 L 1552.0 260.0 L 1608.0 260.0 Q 1616.0 260.0 1616.0 268.0 L 1616.0 396.0 Q 1616.0 404.0 1624.0 404.0 L 2000.0 404.0 L 2152.5 404.0 L 2289.0 404.0 Q 2297.0 404.0 2297.0 412.0 L 2297.0 491.5 Q 2297.0 499.5 2289.0 499.5 L 2233.0 499.5" fill="none" stroke="#2563eb" stroke-width="1.5" stroke-linecap="round" stroke-linejoin="round" marker-end="url(#marker-end-reference-service-serves-reference-ui)"/><text x="1158.0" y="317.5" text-anchor="middle" fill="none" font-size="15.4" font-weight="600" stroke="#ffffff" stroke-width="2">reference data</text><text x="1158.0" y="317.5" text-anchor="middle" fill="#1e3a8a" font-size="15.4" font-weight="600">reference data</text></g><g data-dediren-edge-id="reference-refresh-service-serves-ui"><marker id="marker-end-reference-refresh-service-serves-ui" data-dediren-edge-marker-end="open_arrow" markerWidth="10" markerHeight="10" refX="5" refY="5" orient="auto"><path d="M 1 1 L 9 5 L 1 9" fill="none" stroke="#2563eb" stroke-width="1.5"/></marker><path d="M 1190.0 564.0 L 1070.0 564.0 Q 1062.0 564.0 1062.0 556.0 L 1062.0 204.0 Q 1062.0 196.0 1070.0 196.0 L 1271.0 196.0 L 1552.0 196.0 L 2000.0 196.0 L 2152.5 196.0 L 2289.0 196.0 Q 2297.0 196.0 2297.0 188.0 L 2297.0 100.0 Q 2297.0 92.0 2289.0 92.0 L 2233.0 92.0" fill="none" stroke="#2563eb" stroke-width="1.5" stroke-linecap="round" stroke-linejoin="round" marker-end="url(#marker-end-reference-refresh-service-serves-ui)"/><text x="1126.0" y="554.0" text-anchor="middle" fill="none" font-size="15.4" font-weight="600" stroke="#ffffff" stroke-width="2">refresh stream</text><text x="1126.0" y="554.0" text-anchor="middle" fill="#1e3a8a" font-size="15.4" font-weight="600">refresh stream</text></g><g data-dediren-edge-id="api-realizes-reference-service"><marker id="marker-end-api-realizes-reference-service" data-dediren-edge-marker-end="hollow_triangle" markerWidth="10" markerHeight="10" refX="5" refY="5" orient="auto"><path d="M 1 1 L 9 5 L 1 9 Z" fill="#ffffff" stroke="#475569" stroke-width="1"/></marker><g data-dediren-line-jump-masks="api-realizes-reference-service"><path d="M 1056.0 372.5 Q 1062.0 366.5 1068.0 372.5" fill="none" stroke="#ffffff" stroke-width="6"/></g><path d="M 806.0 372.5 L 1056.0 372.5 Q 1062.0 366.5 1068.0 372.5 L 1190.0 372.5" fill="none" stroke="#475569" stroke-width="1.5" stroke-linecap="round" stroke-linejoin="round" stroke-dasharray="8 5" marker-end="url(#marker-end-api-realizes-reference-service)"/><text x="998.0" y="390.5" text-anchor="middle" fill="none" font-size="15.4" font-weight="600" stroke="#ffffff" stroke-width="2">realizes</text><text x="998.0" y="390.5" text-anchor="middle" fill="#334155" font-size="15.4" font-weight="600">realizes</text></g><g data-dediren-edge-id="api-realizes-reference-refresh-service"><marker id="marker-end-api-realizes-reference-refresh-service" data-dediren-edge-marker-end="hollow_triangle" markerWidth="10" markerHeight="10" refX="5" refY="5" orient="auto"><path d="M 1 1 L 9 5 L 1 9 Z" fill="#ffffff" stroke="#475569" stroke-width="1"/></marker><path d="M 806.0 385.3 L 926.0 385.3 Q 934.0 385.3 934.0 393.3 L 934.0 573.0 Q 934.0 581.0 942.0 581.0 L 1190.0 581.0" fill="none" stroke="#475569" stroke-width="1.5" stroke-linecap="round" stroke-linejoin="round" stroke-dasharray="8 5" marker-end="url(#marker-end-api-realizes-reference-refresh-service)"/><text x="870.0" y="403.3" text-anchor="middle" fill="none" font-size="15.4" font-weight="600" stroke="#ffffff" stroke-width="2">realizes</text><text x="870.0" y="403.3" text-anchor="middle" fill="#334155" font-size="15.4" font-weight="600">realizes</text></g><g data-dediren-edge-id="api-realizes-media-cache-service"><marker id="marker-end-api-realizes-media-cache-service" data-dediren-edge-marker-end="hollow_triangle" markerWidth="10" markerHeight="10" refX="5" refY="5" orient="auto"><path d="M 1 1 L 9 5 L 1 9 Z" fill="#ffffff" stroke="#475569" stroke-width="1"/></marker><path d="M 806.0 398.0 L 862.0 398.0 Q 870.0 398.0 870.0 406.0 L 870.0 764.0 Q 870.0 772.0 878.0 772.0 L 1190.0 772.0" fill="none" stroke="#475569" stroke-width="1.5" stroke-linecap="round" stroke-linejoin="round" stroke-dasharray="8 5" marker-end="url(#marker-end-api-realizes-media-cache-service)"/><text x="838.0" y="444.0" text-anchor="middle" fill="none" font-size="15.4" font-weight="600" stroke="#ffffff" stroke-width="2">realizes</text><text x="838.0" y="444.0" text-anchor="middle" fill="#334155" font-size="15.4" font-weight="600">realizes</text></g><g data-dediren-edge-id="media-cache-service-serves-reference-ui"><marker id="marker-end-media-cache-service-serves-reference-ui" data-dediren-edge-marker-end="open_arrow" markerWidth="10" markerHeight="10" refX="5" refY="5" orient="auto"><path d="M 1 1 L 9 5 L 1 9" fill="none" stroke="#2563eb" stroke-width="1.5"/></marker><g data-dediren-line-jump-masks="media-cache-service-serves-reference-ui"><path d="M 1126.0 558.0 Q 1132.0 564.0 1126.0 570.0" fill="none" stroke="#ffffff" stroke-width="6"/><path d="M 1126.0 575.0 Q 1132.0 581.0 1126.0 587.0" fill="none" stroke="#ffffff" stroke-width="6"/><path d="M 1126.0 766.0 Q 1132.0 772.0 1126.0 778.0" fill="none" stroke="#ffffff" stroke-width="6"/></g><path d="M 1190.0 789.0 L 1134.0 789.0 Q 1126.0 789.0 1126.0 781.0 L 1126.0 778.0 Q 1132.0 772.0 1126.0 766.0 L 1126.0 587.0 Q 1132.0 581.0 1126.0 575.0 L 1126.0 570.0 Q 1132.0 564.0 1126.0 558.0 L 1126.0 476.0 Q 1126.0 468.0 1134.0 468.0 L 1271.0 468.0 L 1552.0 468.0 L 1616.0 468.0 L 1616.0 469.0 L 1928.0 469.0 Q 1936.0 469.0 1936.0 477.0 L 1936.0 604.0 Q 1936.0 612.0 1944.0 612.0 L 2000.0 612.0 L 2152.5 612.0 L 2289.0 612.0 Q 2297.0 612.0 2297.0 604.0 L 2297.0 524.5 Q 2297.0 516.5 2289.0 516.5 L 2233.0 516.5" fill="none" stroke="#2563eb" stroke-width="1.5" stroke-linecap="round" stroke-linejoin="round" marker-end="url(#marker-end-media-cache-service-serves-reference-ui)"/><text x="1158.0" y="723.0" text-anchor="middle" fill="none" font-size="15.4" font-weight="600" stroke="#ffffff" stroke-width="2">reference images</text><text x="1158.0" y="723.0" text-anchor="middle" fill="#1e3a8a" font-size="15.4" font-weight="600">reference images</text></g><g data-dediren-edge-id="storage-composes-wow-reference"><path d="M 2173.5 885.0 L 2173.5 941.0 Q 2173.5 949.0 2181.5 949.0 L 2529.0 949.0 Q 2537.0 949.0 2537.0 957.0 L 2537.0 1013.0" fill="none" stroke="#64748b" stroke-width="1.5" stroke-linecap="round" stroke-linejoin="round"/><text x="2355.3" y="967.0" text-anchor="middle" fill="none" font-size="15.4" font-weight="600" stroke="#ffffff" stroke-width="2">blob container</text><text x="2355.3" y="967.0" text-anchor="middle" fill="#374151" font-size="15.4" font-weight="600">blob container</text></g><g data-dediren-edge-id="storage-composes-wow-media-cache"><path d="M 2130.5 885.0 L 2130.5 1167.5 Q 2130.5 1175.5 2138.5 1175.5 L 2529.0 1175.5 Q 2537.0 1175.5 2537.0 1183.5 L 2537.0 1239.5" fill="none" stroke="#64748b" stroke-width="1.5" stroke-linecap="round" stroke-linejoin="round"/><text x="2333.8" y="1193.5" text-anchor="middle" fill="none" font-size="15.4" font-weight="600" stroke="#ffffff" stroke-width="2">media cache path</text><text x="2333.8" y="1193.5" text-anchor="middle" fill="#374151" font-size="15.4" font-weight="600">media cache path</text></g><g data-dediren-edge-id="reference-service-accesses-wow-reference"><marker id="marker-end-reference-service-accesses-wow-reference" data-dediren-edge-marker-end="open_arrow" markerWidth="10" markerHeight="10" refX="5" refY="5" orient="auto"><path d="M 1 1 L 9 5 L 1 9" fill="none" stroke="#15803d" stroke-width="1.5"/></marker><g data-dediren-line-jump-masks="reference-service-accesses-wow-reference"><path d="M 1416.0 462.0 Q 1422.0 468.0 1416.0 474.0" fill="none" stroke="#ffffff" stroke-width="6"/><path d="M 2124.5 1045.5 Q 2130.5 1039.5 2136.5 1045.5" fill="none" stroke="#ffffff" stroke-width="6"/></g><path d="M 1352.0 364.0 L 1408.0 364.0 Q 1416.0 364.0 1416.0 372.0 L 1416.0 462.0 Q 1422.0 468.0 1416.0 474.0 L 1416.0 508.0 Q 1416.0 516.0 1424.0 516.0 L 1552.0 516.0 L 1736.0 516.0 Q 1744.0 516.0 1744.0 524.0 L 1744.0 529.0 Q 1744.0 537.0 1752.0 537.0 L 1864.0 537.0 Q 1872.0 537.0 1872.0 545.0 L 1872.0 1037.5 Q 1872.0 1045.5 1880.0 1045.5 L 2000.0 1045.5 L 2124.5 1045.5 Q 2130.5 1039.5 2136.5 1045.5 L 2152.0 1045.5 L 2328.0 1045.5 L 2456.0 1045.5" fill="none" stroke="#15803d" stroke-width="1.5" stroke-linecap="round" stroke-linejoin="round" stroke-dasharray="8 5" marker-end="url(#marker-end-reference-service-accesses-wow-reference)"/><text x="1398.0" y="382.0" text-anchor="middle" fill="none" font-size="15.4" font-weight="600" stroke="#ffffff" stroke-width="2">read blobs</text><text x="1398.0" y="382.0" text-anchor="middle" fill="#166534" font-size="15.4" font-weight="600">read blobs</text></g><g data-dediren-edge-id="reference-refresh-service-accesses-wow-reference"><marker id="marker-end-reference-refresh-service-accesses-wow-reference" data-dediren-edge-marker-end="open_arrow" markerWidth="10" markerHeight="10" refX="5" refY="5" orient="auto"><path d="M 1 1 L 9 5 L 1 9" fill="none" stroke="#15803d" stroke-width="1.5"/></marker><g data-dediren-line-jump-masks="reference-refresh-service-accesses-wow-reference"><path d="M 2124.5 1110.5 Q 2130.5 1104.5 2136.5 1110.5" fill="none" stroke="#ffffff" stroke-width="6"/></g><path d="M 1352.0 564.0 L 1552.0 564.0 L 1672.0 564.0 Q 1680.0 564.0 1680.0 572.0 L 1680.0 1102.5 Q 1680.0 1110.5 1688.0 1110.5 L 2000.0 1110.5 L 2124.5 1110.5 Q 2130.5 1104.5 2136.5 1110.5 L 2152.0 1110.5 L 2328.0 1110.5 L 2384.0 1110.5 Q 2392.0 1110.5 2392.0 1102.5 L 2392.0 1070.5 Q 2392.0 1062.5 2400.0 1062.5 L 2456.0 1062.5" fill="none" stroke="#15803d" stroke-width="1.5" stroke-linecap="round" stroke-linejoin="round" stroke-dasharray="8 5" marker-end="url(#marker-end-reference-refresh-service-accesses-wow-reference)"/><text x="1452.0" y="582.0" text-anchor="middle" fill="none" font-size="15.4" font-weight="600" stroke="#ffffff" stroke-width="2">write blobs</text><text x="1452.0" y="582.0" text-anchor="middle" fill="#166534" font-size="15.4" font-weight="600">write blobs</text></g><g data-dediren-edge-id="media-cache-service-accesses-wow-media-cache"><marker id="marker-end-media-cache-service-accesses-wow-media-cache" data-dediren-edge-marker-end="open_arrow" markerWidth="10" markerHeight="10" refX="5" refY="5" orient="auto"><path d="M 1 1 L 9 5 L 1 9" fill="none" stroke="#15803d" stroke-width="1.5"/></marker><path d="M 1352.0 772.0 L 1552.0 772.0 L 1608.0 772.0 Q 1616.0 772.0 1616.0 780.0 L 1616.0 1170.5 Q 1616.0 1178.5 1624.0 1178.5 L 1864.0 1178.5 Q 1872.0 1178.5 1872.0 1186.5 L 1872.0 1272.5 Q 1872.0 1280.5 1880.0 1280.5 L 2000.0 1280.5 L 2152.0 1280.5 L 2328.0 1280.5 L 2456.0 1280.5" fill="none" stroke="#15803d" stroke-width="1.5" stroke-linecap="round" stroke-linejoin="round" stroke-dasharray="8 5" marker-end="url(#marker-end-media-cache-service-accesses-wow-media-cache)"/><text x="1452.0" y="790.0" text-anchor="middle" fill="none" font-size="15.4" font-weight="600" stroke="#ffffff" stroke-width="2">read/write image bytes</text><text x="1452.0" y="790.0" text-anchor="middle" fill="#166534" font-size="15.4" font-weight="600">read/write image bytes</text></g><g data-dediren-edge-id="game-data-api-serves-reference-refresh-service"><marker id="marker-end-game-data-api-serves-reference-refresh-service" data-dediren-edge-marker-end="open_arrow" markerWidth="10" markerHeight="10" refX="5" refY="5" orient="auto"><path d="M 1 1 L 9 5 L 1 9" fill="none" stroke="#2563eb" stroke-width="1.5"/></marker><g data-dediren-line-jump-masks="game-data-api-serves-reference-refresh-service"><path d="M 864.0 676.5 Q 870.0 670.5 876.0 676.5" fill="none" stroke="#ffffff" stroke-width="6"/><path d="M 1120.0 676.5 Q 1126.0 670.5 1132.0 676.5" fill="none" stroke="#ffffff" stroke-width="6"/></g><path d="M 116.0 780.5 L 60.0 780.5 Q 52.0 780.5 52.0 772.5 L 52.0 684.5 Q 52.0 676.5 60.0 676.5 L 196.5 676.5 L 349.0 676.5 L 573.0 676.5 L 725.5 676.5 L 864.0 676.5 Q 870.0 670.5 876.0 676.5 L 998.0 676.5 L 1120.0 676.5 Q 1126.0 670.5 1132.0 676.5 L 1271.0 676.5 L 1408.0 676.5 Q 1416.0 676.5 1416.0 668.5 L 1416.0 589.0 Q 1416.0 581.0 1408.0 581.0 L 1352.0 581.0" fill="none" stroke="#2563eb" stroke-width="1.5" stroke-linecap="round" stroke-linejoin="round" marker-end="url(#marker-end-game-data-api-serves-reference-refresh-service)"/><text x="84.0" y="714.5" text-anchor="middle" fill="none" font-size="15.4" font-weight="600" stroke="#ffffff" stroke-width="2">refresh source</text><text x="84.0" y="714.5" text-anchor="middle" fill="#1e3a8a" font-size="15.4" font-weight="600">refresh source</text></g><g data-dediren-edge-id="render-cdn-serves-media-cache-service"><marker id="marker-end-render-cdn-serves-media-cache-service" data-dediren-edge-marker-end="open_arrow" markerWidth="10" markerHeight="10" refX="5" refY="5" orient="auto"><path d="M 1 1 L 9 5 L 1 9" fill="none" stroke="#2563eb" stroke-width="1.5"/></marker><path d="M 116.0 956.5 L 60.0 956.5 Q 52.0 956.5 52.0 964.5 L 52.0 1052.5 Q 52.0 1060.5 60.0 1060.5 L 196.5 1060.5 L 349.0 1060.5 L 501.0 1060.5 Q 509.0 1060.5 509.0 1052.5 L 509.0 892.5 Q 509.0 884.5 517.0 884.5 L 573.0 884.5 L 725.5 884.5 L 998.0 884.5 L 1271.0 884.5 L 1408.0 884.5 Q 1416.0 884.5 1416.0 876.5 L 1416.0 797.0 Q 1416.0 789.0 1408.0 789.0 L 1352.0 789.0" fill="none" stroke="#2563eb" stroke-width="1.5" stroke-linecap="round" stroke-linejoin="round" marker-end="url(#marker-end-render-cdn-serves-media-cache-service)"/><text x="84.0" y="1030.5" text-anchor="middle" fill="none" font-size="15.4" font-weight="600" stroke="#ffffff" stroke-width="2">image bytes</text><text x="84.0" y="1030.5" text-anchor="middle" fill="#1e3a8a" font-size="15.4" font-weight="600">image bytes</text></g><g data-dediren-node-id="reference-ui-entry"><rect data-dediren-node-shape="archimate_rectangle" x="2072.0" y="468.0" width="160.0" height="80.0" rx="0" fill="#e8f3ff" stroke="#2563eb" stroke-width="1.5"/><g data-dediren-node-decorator="archimate_application_component" data-dediren-icon-kind="component" data-dediren-icon-size="22"><rect x="2208.8" y="478.8" width="15.8" height="14.1" fill="#e8f3ff" stroke="#2563eb" stroke-width="1.5"/><rect x="2204.0" y="481.4" width="6.2" height="4.0" fill="#e8f3ff" stroke="#2563eb" stroke-width="1.5"/><rect x="2204.0" y="487.6" width="6.2" height="4.0" fill="#e8f3ff" stroke="#2563eb" stroke-width="1.5"/></g><text x="2152.0" y="512.7" text-anchor="middle" fill="#172554">Reference data consumption UI</text></g><g data-dediren-node-id="reference-refresh-ui-entry"><rect data-dediren-node-shape="archimate_rectangle" x="2072.0" y="52.0" width="160.0" height="80.0" rx="0" fill="#e8f3ff" stroke="#2563eb" stroke-width="1.5"/><g data-dediren-node-decorator="archimate_application_component" data-dediren-icon-kind="component" data-dediren-icon-size="22"><rect x="2208.8" y="62.8" width="15.8" height="14.1" fill="#e8f3ff" stroke="#2563eb" stroke-width="1.5"/><rect x="2204.0" y="65.4" width="6.2" height="4.0" fill="#e8f3ff" stroke="#2563eb" stroke-width="1.5"/><rect x="2204.0" y="71.6" width="6.2" height="4.0" fill="#e8f3ff" stroke="#2563eb" stroke-width="1.5"/></g><text x="2152.0" y="96.7" text-anchor="middle" fill="#172554">Reference refresh UI</text></g><g data-dediren-node-id="wow-reference-service"><rect data-dediren-node-shape="archimate_rounded_rectangle" x="1191.0" y="324.0" width="160.0" height="80.0" rx="4" fill="#e8f3ff" stroke="#2563eb" stroke-width="1.5"/><g data-dediren-node-decorator="archimate_application_service" data-dediren-icon-kind="service" data-dediren-icon-size="22"><rect x="1323.0" y="335.6" width="22.0" height="11.0" rx="4.0" fill="#e8f3ff" stroke="#2563eb" stroke-width="1.5"/></g><text x="1271.0" y="368.7" text-anchor="middle" fill="#172554">WoW reference lookup service</text></g><g data-dediren-node-id="reference-refresh-service"><rect data-dediren-node-shape="archimate_rounded_rectangle" x="1191.0" y="532.5" width="160.0" height="80.0" rx="4" fill="#e8f3ff" stroke="#2563eb" stroke-width="1.5"/><g data-dediren-node-decorator="archimate_application_service" data-dediren-icon-kind="service" data-dediren-icon-size="22"><rect x="1323.0" y="544.1" width="22.0" height="11.0" rx="4.0" fill="#e8f3ff" stroke="#2563eb" stroke-width="1.5"/></g><text x="1271.0" y="577.2" text-anchor="middle" fill="#172554">WoW reference refresh service</text></g><g data-dediren-node-id="wow-media-cache-service"><rect data-dediren-node-shape="archimate_rounded_rectangle" x="1191.0" y="740.5" width="160.0" height="80.0" rx="4" fill="#e8f3ff" stroke="#2563eb" stroke-width="1.5"/><g data-dediren-node-decorator="archimate_application_service" data-dediren-icon-kind="service" data-dediren-icon-size="22"><rect x="1323.0" y="752.1" width="22.0" height="11.0" rx="4.0" fill="#e8f3ff" stroke="#2563eb" stroke-width="1.5"/></g><text x="1271.0" y="785.2" text-anchor="middle" fill="#172554">WoW media cache service</text></g><g data-dediren-node-id="lfm-api"><rect data-dediren-node-shape="archimate_rectangle" x="645.0" y="345.3" width="160.0" height="80.0" rx="0" fill="#e8f3ff" stroke="#2563eb" stroke-width="1.5"/><g data-dediren-node-decorator="archimate_application_component" data-dediren-icon-kind="component" data-dediren-icon-size="22"><rect x="781.8" y="356.0" width="15.8" height="14.1" fill="#e8f3ff" stroke="#2563eb" stroke-width="1.5"/><rect x="777.0" y="358.7" width="6.2" height="4.0" fill="#e8f3ff" stroke="#2563eb" stroke-width="1.5"/><rect x="777.0" y="364.8" width="6.2" height="4.0" fill="#e8f3ff" stroke="#2563eb" stroke-width="1.5"/></g><text x="725.0" y="389.9" text-anchor="middle" fill="#172554">Lfm.Api</text></g><g data-dediren-node-id="storage-account"><rect data-dediren-node-shape="archimate_rectangle" x="2072.0" y="804.0" width="160.0" height="80.0" rx="0" fill="#ecfdf3" stroke="#16a34a" stroke-width="1.5"/><g data-dediren-node-decorator="archimate_technology_node" data-dediren-icon-kind="node" data-dediren-icon-size="22"><rect x="2204.0" y="815.6" width="18.0" height="13.6" fill="#ecfdf3" stroke="#16a34a" stroke-width="1.5"/><path data-dediren-icon-part="node-3d-edges" d="M 2218.1 813.0 L 2226.0 813.0 L 2226.0 825.8 M 2222.0 815.6 L 2226.0 813.0" fill="none" stroke="#16a34a" stroke-width="1.5"/></g><text x="2152.0" y="848.7" text-anchor="middle" fill="#14532d">Storage account</text></g><g data-dediren-node-id="wow-reference-container"><rect data-dediren-node-shape="archimate_rectangle" x="2457.0" y="1014.0" width="160.0" height="80.0" rx="0" fill="#f7fee7" stroke="#65a30d" stroke-width="1.5"/><g data-dediren-node-decorator="archimate_artifact" data-dediren-icon-kind="artifact" data-dediren-icon-size="22"><path data-dediren-icon-part="artifact" d="M 2589 1023 L 2611 1023 L 2600 1038.84 Z" fill="#f7fee7" stroke="#65a30d" stroke-width="1.5"/></g><text x="2537.0" y="1058.7" text-anchor="middle" fill="#365314">wow reference blobs</text></g><g data-dediren-node-id="wow-media-cache-blobs"><rect data-dediren-node-shape="archimate_rectangle" x="2457.0" y="1240.5" width="160.0" height="80.0" rx="0" fill="#f7fee7" stroke="#65a30d" stroke-width="1.5"/><g data-dediren-node-decorator="archimate_artifact" data-dediren-icon-kind="artifact" data-dediren-icon-size="22"><path data-dediren-icon-part="artifact" d="M 2589 1249.5 L 2611 1249.5 L 2600 1265.34 Z" fill="#f7fee7" stroke="#65a30d" stroke-width="1.5"/></g><text x="2537.0" y="1285.2" text-anchor="middle" fill="#365314">wow media-cache blobs</text></g><g data-dediren-node-id="blizzard-game-data-api"><rect data-dediren-node-shape="archimate_rounded_rectangle" x="117.0" y="740.5" width="160.0" height="80.0" rx="4" fill="#e8f3ff" stroke="#2563eb" stroke-width="1.5"/><g data-dediren-node-decorator="archimate_application_service" data-dediren-icon-kind="service" data-dediren-icon-size="22"><rect x="249.0" y="752.1" width="22.0" height="11.0" rx="4.0" fill="#e8f3ff" stroke="#2563eb" stroke-width="1.5"/></g><text x="197.0" y="785.2" text-anchor="middle" fill="#172554">WoW Game Data API</text></g><g data-dediren-node-id="blizzard-render-cdn"><rect data-dediren-node-shape="archimate_rounded_rectangle" x="117.0" y="916.5" width="160.0" height="80.0" rx="4" fill="#e8f3ff" stroke="#2563eb" stroke-width="1.5"/><g data-dediren-node-decorator="archimate_application_service" data-dediren-icon-kind="service" data-dediren-icon-size="22"><rect x="249.0" y="928.1" width="22.0" height="11.0" rx="4.0" fill="#e8f3ff" stroke="#2563eb" stroke-width="1.5"/></g><text x="197.0" y="961.2" text-anchor="middle" fill="#172554">Blizzard Render CDN</text></g></g></svg>
