<svg xmlns="http://www.w3.org/2000/svg" width="2031" height="576" viewBox="-12.0 -12.0 2031.0 575.5"><rect x="-12.0" y="-12.0" width="2031.0" height="575.5" fill="#ffffff"/><style>g.dediren-edge-highlighted &gt; path{stroke:#1f6feb;stroke-width:3;}</style><g font-family="Inter, Arial, sans-serif" font-size="14"><g data-dediren-group-id="account-deletion-ui"><rect x="12.0" y="63.5" width="241.0" height="160.0" rx="4" fill="#f8fafc" stroke="#94a3b8" stroke-width="1"/><text x="20.0" y="79.5" fill="#374151" font-size="12">Account deletion UI</text></g><g data-dediren-group-id="account-deletion-api-host"><rect x="509.0" y="87.5" width="659.0" height="291.3" rx="4" fill="#f8fafc" stroke="#94a3b8" stroke-width="1"/><text x="517.0" y="103.5" fill="#374151" font-size="12">Profile service and account deletion process</text></g><g data-dediren-group-id="account-deletion-data"><rect x="1616.0" y="12.0" width="379.0" height="527.5" rx="4" fill="#f8fafc" stroke="#94a3b8" stroke-width="1"/><text x="1624.0" y="28.0" fill="#374151" font-size="12">Deleted-account data effects</text></g><g data-dediren-edge-id="account-deletion-ui-serves-process" data-dediren-edge-source="account-deletion-ui-entry" data-dediren-edge-target="account-deletion-process"><marker id="marker-end-account-deletion-ui-serves-process" data-dediren-edge-marker-end="open_arrow" markerWidth="10" markerHeight="10" refX="5" refY="5" orient="auto"><path d="M 1 1 L 9 5 L 1 9" fill="none" stroke="#2563eb" stroke-width="1.5"/></marker><path d="M 213.0 143.5 L 285.0 143.5 L 477.0 143.5 L 629.5 143.5 L 838.0 143.5 L 894.0 143.5 Q 902.0 143.5 902.0 151.5 L 902.0 183.5 Q 902.0 191.5 910.0 191.5 L 966.0 191.5" fill="none" stroke="#2563eb" stroke-width="1.5" stroke-linecap="round" stroke-linejoin="round" marker-end="url(#marker-end-account-deletion-ui-serves-process)"/><text x="267.0" y="161.5" text-anchor="middle" fill="none" font-size="15.4" font-weight="600" stroke="#ffffff" stroke-width="2">delete UI</text><text x="267.0" y="161.5" text-anchor="middle" fill="#1e3a8a" font-size="15.4" font-weight="600">delete UI</text></g><g data-dediren-edge-id="raider-service-serves-account-deletion" data-dediren-edge-source="raider-profile-service" data-dediren-edge-target="account-deletion-process"><marker id="marker-end-raider-service-serves-account-deletion" data-dediren-edge-marker-end="open_arrow" markerWidth="10" markerHeight="10" refX="5" refY="5" orient="auto"><path d="M 1 1 L 9 5 L 1 9" fill="none" stroke="#2563eb" stroke-width="1.5"/></marker><path d="M 710.0 283.7 L 766.0 283.7 Q 774.0 283.7 774.0 275.7 L 774.0 216.5 Q 774.0 208.5 782.0 208.5 L 966.0 208.5" fill="none" stroke="#2563eb" stroke-width="1.5" stroke-linecap="round" stroke-linejoin="round" marker-end="url(#marker-end-raider-service-serves-account-deletion)"/><text x="742.0" y="217.7" text-anchor="middle" fill="none" font-size="15.4" font-weight="600" stroke="#ffffff" stroke-width="2">delete account</text><text x="742.0" y="217.7" text-anchor="middle" fill="#1e3a8a" font-size="15.4" font-weight="600">delete account</text></g><g data-dediren-edge-id="account-deletion-accesses-runs" data-dediren-edge-source="account-deletion-process" data-dediren-edge-target="cosmos-runs"><marker id="marker-end-account-deletion-accesses-runs" data-dediren-edge-marker-end="open_arrow" markerWidth="10" markerHeight="10" refX="5" refY="5" orient="auto"><path d="M 1 1 L 9 5 L 1 9" fill="none" stroke="#15803d" stroke-width="1.5"/></marker><path d="M 1128.0 200.0 L 1200.0 200.0 L 1320.0 200.0 Q 1328.0 200.0 1328.0 208.0 L 1328.0 328.0 Q 1328.0 336.0 1336.0 336.0 L 1512.0 336.0 Q 1520.0 336.0 1520.0 344.0 L 1520.0 427.5 Q 1520.0 435.5 1528.0 435.5 L 1584.0 435.5 L 1784.0 435.5" fill="none" stroke="#15803d" stroke-width="1.5" stroke-linecap="round" stroke-linejoin="round" stroke-dasharray="8 5" marker-end="url(#marker-end-account-deletion-accesses-runs)"/><text x="1684.0" y="453.5" text-anchor="middle" fill="none" font-size="15.4" font-weight="600" stroke="#ffffff" stroke-width="2">scrub raider</text><text x="1684.0" y="453.5" text-anchor="middle" fill="#166534" font-size="15.4" font-weight="600">scrub raider</text></g><g data-dediren-edge-id="account-deletion-accesses-raiders" data-dediren-edge-source="account-deletion-process" data-dediren-edge-target="cosmos-raiders"><marker id="marker-end-account-deletion-accesses-raiders" data-dediren-edge-marker-end="open_arrow" markerWidth="10" markerHeight="10" refX="5" refY="5" orient="auto"><path d="M 1 1 L 9 5 L 1 9" fill="none" stroke="#15803d" stroke-width="1.5"/></marker><path d="M 1128.0 200.0 L 1200.0 200.0 L 1320.0 200.0 Q 1328.0 200.0 1328.0 208.0 L 1328.0 260.0 Q 1328.0 268.0 1336.0 268.0 L 1584.0 268.0 L 1784.0 268.0" fill="none" stroke="#15803d" stroke-width="1.5" stroke-linecap="round" stroke-linejoin="round" stroke-dasharray="8 5" marker-end="url(#marker-end-account-deletion-accesses-raiders)"/><text x="1684.0" y="286.0" text-anchor="middle" fill="none" font-size="15.4" font-weight="600" stroke="#ffffff" stroke-width="2">delete raider</text><text x="1684.0" y="286.0" text-anchor="middle" fill="#166534" font-size="15.4" font-weight="600">delete raider</text></g><g data-dediren-edge-id="account-deletion-accesses-idempotency" data-dediren-edge-source="account-deletion-process" data-dediren-edge-target="cosmos-idempotency"><marker id="marker-end-account-deletion-accesses-idempotency" data-dediren-edge-marker-end="open_arrow" markerWidth="10" markerHeight="10" refX="5" refY="5" orient="auto"><path d="M 1 1 L 9 5 L 1 9" fill="none" stroke="#15803d" stroke-width="1.5"/></marker><path d="M 1128.0 200.0 L 1200.0 200.0 L 1448.0 200.0 Q 1456.0 200.0 1456.0 192.0 L 1456.0 100.0 Q 1456.0 92.0 1464.0 92.0 L 1584.0 92.0 L 1784.0 92.0" fill="none" stroke="#15803d" stroke-width="1.5" stroke-linecap="round" stroke-linejoin="round" stroke-dasharray="8 5" marker-end="url(#marker-end-account-deletion-accesses-idempotency)"/><text x="1684.0" y="110.0" text-anchor="middle" fill="none" font-size="15.4" font-weight="600" stroke="#ffffff" stroke-width="2">purge replay cache</text><text x="1684.0" y="110.0" text-anchor="middle" fill="#166534" font-size="15.4" font-weight="600">purge replay cache</text></g><g data-dediren-edge-id="raider-service-accesses-runs" data-dediren-edge-source="raider-profile-service" data-dediren-edge-target="cosmos-runs"><marker id="marker-end-raider-service-accesses-runs" data-dediren-edge-marker-end="open_arrow" markerWidth="10" markerHeight="10" refX="5" refY="5" orient="auto"><path d="M 1 1 L 9 5 L 1 9" fill="none" stroke="#15803d" stroke-width="1.5"/></marker><path d="M 710.0 304.0 L 838.0 304.0 L 1047.0 304.0 L 1200.0 304.0 L 1256.0 304.0 Q 1264.0 304.0 1264.0 312.0 L 1264.0 396.0 Q 1264.0 404.0 1272.0 404.0 L 1448.0 404.0 Q 1456.0 404.0 1456.0 412.0 L 1456.0 475.5 Q 1456.0 483.5 1464.0 483.5 L 1584.0 483.5 L 1712.0 483.5 Q 1720.0 483.5 1720.0 475.5 L 1720.0 460.5 Q 1720.0 452.5 1728.0 452.5 L 1784.0 452.5" fill="none" stroke="#15803d" stroke-width="1.5" stroke-linecap="round" stroke-linejoin="round" stroke-dasharray="8 5" marker-end="url(#marker-end-raider-service-accesses-runs)"/><text x="820.0" y="322.0" text-anchor="middle" fill="none" font-size="15.4" font-weight="600" stroke="#ffffff" stroke-width="2">scrub raider refs</text><text x="820.0" y="322.0" text-anchor="middle" fill="#166534" font-size="15.4" font-weight="600">scrub raider refs</text></g><g data-dediren-node-id="account-deletion-ui-entry"><rect data-dediren-node-shape="archimate_rectangle" x="52.0" y="103.5" width="160.0" height="80.0" rx="0" fill="#e8f3ff" stroke="#2563eb" stroke-width="1.5"/><g data-dediren-node-decorator="archimate_application_component" data-dediren-icon-kind="component" data-dediren-icon-size="22"><rect x="188.0" y="112.5" width="18.0" height="15.8" rx="1.5" fill="#e8f3ff" stroke="#2563eb" stroke-width="1.5"/><rect x="184.0" y="115.1" width="7.9" height="5.7" rx="1.2" fill="#e8f3ff" stroke="#2563eb" stroke-width="1.5"/><rect x="184.0" y="122.2" width="7.9" height="5.7" rx="1.2" fill="#e8f3ff" stroke="#2563eb" stroke-width="1.5"/></g><text x="132.0" y="127.4" text-anchor="middle" dominant-baseline="middle" fill="#172554" font-size="14.0"><tspan x="132.0" dy="0">Account</tspan><tspan x="132.0" dy="16.0">deletion</tspan><tspan x="132.0" dy="16.0">UI</tspan></text></g><g data-dediren-node-id="account-deletion-process"><rect data-dediren-node-shape="archimate_rectangle" x="967.0" y="160.0" width="160.0" height="80.0" rx="4" fill="#f8fafc" stroke="#334155" stroke-width="1.5"/><text x="1047.0" y="200.0" text-anchor="middle" dominant-baseline="middle" fill="#0f172a" font-size="14.0">Delete account</text></g><g data-dediren-node-id="raider-profile-service"><rect data-dediren-node-shape="archimate_rounded_rectangle" x="549.0" y="248.8" width="160.0" height="90.0" rx="4" fill="#e8f3ff" stroke="#2563eb" stroke-width="1.5"/><g data-dediren-node-decorator="archimate_application_service" data-dediren-icon-kind="service" data-dediren-icon-size="22"><rect x="681.0" y="257.8" width="22.0" height="13.6" rx="4.0" fill="#e8f3ff" stroke="#2563eb" stroke-width="1.5"/></g><text x="629.0" y="277.7" text-anchor="middle" dominant-baseline="middle" fill="#172554" font-size="14.0"><tspan x="629.0" dy="0">Raider</tspan><tspan x="629.0" dy="16.0">profile</tspan><tspan x="629.0" dy="16.0">service</tspan></text></g><g data-dediren-node-id="cosmos-runs"><rect data-dediren-node-shape="archimate_rectangle" x="1785.0" y="404.0" width="160.0" height="80.0" rx="0" fill="#f7fee7" stroke="#65a30d" stroke-width="1.5"/><g data-dediren-node-decorator="archimate_artifact" data-dediren-icon-kind="artifact" data-dediren-icon-size="22"><path data-dediren-icon-part="artifact-document" d="M 1919.2 412.0 L 1929.8 412.0 L 1935.9 418.2 L 1935.9 431.8 L 1919.2 431.8 Z M 1929.8 412.0 L 1929.8 418.2 L 1935.9 418.2" fill="#f7fee7" stroke="#65a30d" stroke-width="1.5"/></g><text x="1865.0" y="436.0" text-anchor="middle" dominant-baseline="middle" fill="#365314" font-size="14.0"><tspan x="1865.0" dy="0">runs</tspan><tspan x="1865.0" dy="16.0">container</tspan></text></g><g data-dediren-node-id="cosmos-raiders"><rect data-dediren-node-shape="archimate_rectangle" x="1785.0" y="228.0" width="160.0" height="80.0" rx="0" fill="#f7fee7" stroke="#65a30d" stroke-width="1.5"/><g data-dediren-node-decorator="archimate_artifact" data-dediren-icon-kind="artifact" data-dediren-icon-size="22"><path data-dediren-icon-part="artifact-document" d="M 1919.2 236.0 L 1929.8 236.0 L 1935.9 242.2 L 1935.9 255.8 L 1919.2 255.8 Z M 1929.8 236.0 L 1929.8 242.2 L 1935.9 242.2" fill="#f7fee7" stroke="#65a30d" stroke-width="1.5"/></g><text x="1865.0" y="260.0" text-anchor="middle" dominant-baseline="middle" fill="#365314" font-size="14.0"><tspan x="1865.0" dy="0">raiders</tspan><tspan x="1865.0" dy="16.0">container</tspan></text></g><g data-dediren-node-id="cosmos-idempotency"><rect data-dediren-node-shape="archimate_rectangle" x="1785.0" y="52.0" width="170.0" height="80.0" rx="0" fill="#f7fee7" stroke="#65a30d" stroke-width="1.5"/><g data-dediren-node-decorator="archimate_artifact" data-dediren-icon-kind="artifact" data-dediren-icon-size="22"><path data-dediren-icon-part="artifact-document" d="M 1929.2 60.0 L 1939.8 60.0 L 1945.9 66.2 L 1945.9 79.8 L 1929.2 79.8 Z M 1939.8 60.0 L 1939.8 66.2 L 1945.9 66.2" fill="#f7fee7" stroke="#65a30d" stroke-width="1.5"/></g><text x="1870.0" y="84.0" text-anchor="middle" dominant-baseline="middle" fill="#365314" font-size="14.0"><tspan x="1870.0" dy="0">idempotency</tspan><tspan x="1870.0" dy="16.0">container</tspan></text></g></g><script>//<![CDATA[
(function(){
var root=document.currentScript&&document.currentScript.closest?document.currentScript.closest('svg'):null;
if(!root){root=document.querySelector('svg');}
if(!root){return;}
var selected=null;
function clear(){var hl=root.querySelectorAll('.dediren-edge-highlighted');for(var i=0;i<hl.length;i++){hl[i].classList.remove('dediren-edge-highlighted');}selected=null;}
function select(id){clear();var edges=root.querySelectorAll('[data-dediren-edge-source]');for(var i=0;i<edges.length;i++){var e=edges[i];if(e.getAttribute('data-dediren-edge-source')===id||e.getAttribute('data-dediren-edge-target')===id){e.classList.add('dediren-edge-highlighted');}}selected=id;}
root.addEventListener('click',function(ev){var t=ev.target;var n=t.closest?t.closest('[data-dediren-node-id]'):null;if(n){var id=n.getAttribute('data-dediren-node-id');if(id===selected){clear();}else{select(id);}}else{clear();}});
document.addEventListener('keydown',function(ev){if(ev.key==='Escape'){clear();}});
})();
//]]></script></svg>

