<svg xmlns="http://www.w3.org/2000/svg" role="img" width="1902" height="840" viewBox="-20 -52 1902 872.3" data-arch-a11y="root" data-arch-a11y-viewbox="-20.0 -20.0 1902.0 840.3"><title>Run Maintenance - Application Process</title>
<desc>Which application processes create, edit, and delete runs?</desc>
<text data-arch-a11y="visible-title" x="-12" y="-32" font-family="sans-serif" font-size="16" font-weight="bold">Run Maintenance - Application Process</text><rect x="-20.0" y="-20.0" width="1902.0" height="840.3" fill="#ffffff"/><g font-family="Inter, &quot;Liberation Sans&quot;, &quot;Noto Sans&quot;, Arial, &quot;Helvetica Neue&quot;, &quot;Segoe UI&quot;, sans-serif" font-size="14"><g data-dediren-group-id="run-maintenance-ui"><rect x="12.0" y="447.3" width="251.0" height="170.0" rx="8" fill="#f8fafc" stroke="#94a3b8" stroke-width="1"/><text x="20.0" y="463.3" fill="#334155" font-size="12">Run maintenance UI</text></g><g data-dediren-group-id="run-maintenance-processes"><rect x="551.0" y="260.8" width="418.0" height="527.5" rx="8" fill="#f8fafc" stroke="#94a3b8" stroke-width="1"/><text x="559.0" y="276.8" fill="#334155" font-size="12">Run maintenance application processes</text></g><g data-dediren-group-id="run-maintenance-api-host"><rect x="1481.0" y="12.0" width="241.0" height="170.0" rx="8" fill="#f8fafc" stroke="#94a3b8" stroke-width="1"/><text x="1489.0" y="28.0" fill="#334155" font-size="12">Run management service</text></g><g data-dediren-group-id="run-maintenance-data"><rect x="1481.0" y="278.0" width="369.0" height="351.5" rx="8" fill="#f8fafc" stroke="#94a3b8" stroke-width="1"/><text x="1489.0" y="294.0" fill="#334155" font-size="12">Run maintenance data dependencies</text></g><g data-dediren-edge-id="run-maintenance-ui-serves-create"><marker id="marker-end-run-maintenance-ui-serves-create" data-dediren-edge-marker-end="open_arrow" markerWidth="10" markerHeight="10" refX="9" refY="5" orient="auto"><path d="M 1 1 L 9 5 L 1 9" fill="none" stroke="#475569" stroke-width="1.5"/></marker><path d="M 223.0 532.3 L 295.0 532.3 L 519.0 532.3 L 591.0 532.3" fill="none" stroke="#475569" stroke-width="1.25" stroke-linecap="round" stroke-linejoin="round" marker-end="url(#marker-end-run-maintenance-ui-serves-create)"/><text x="555.0" y="550.3" text-anchor="middle" fill="none" font-size="15.4" font-weight="600" stroke="#ffffff" stroke-width="2">create UI</text><text x="555.0" y="550.3" text-anchor="middle" fill="#374151" font-size="15.4" font-weight="600">create UI</text></g><g data-dediren-edge-id="run-maintenance-ui-serves-edit"><marker id="marker-end-run-maintenance-ui-serves-edit" data-dediren-edge-marker-end="open_arrow" markerWidth="10" markerHeight="10" refX="9" refY="5" orient="auto"><path d="M 1 1 L 9 5 L 1 9" fill="none" stroke="#475569" stroke-width="1.5"/></marker><path d="M 223.0 532.3 L 295.0 532.3 L 351.0 532.3 Q 359.0 532.3 359.0 524.3 L 359.0 364.3 Q 359.0 356.3 367.0 356.3 L 519.0 356.3 L 591.0 356.3" fill="none" stroke="#475569" stroke-width="1.25" stroke-linecap="round" stroke-linejoin="round" marker-end="url(#marker-end-run-maintenance-ui-serves-edit)"/><text x="353.0" y="444.3" text-anchor="end" fill="none" font-size="15.4" font-weight="600" stroke="#ffffff" stroke-width="2">edit UI</text><text x="353.0" y="444.3" text-anchor="end" fill="#374151" font-size="15.4" font-weight="600">edit UI</text></g><g data-dediren-edge-id="run-maintenance-ui-serves-delete"><marker id="marker-end-run-maintenance-ui-serves-delete" data-dediren-edge-marker-end="open_arrow" markerWidth="10" markerHeight="10" refX="9" refY="5" orient="auto"><path d="M 1 1 L 9 5 L 1 9" fill="none" stroke="#475569" stroke-width="1.5"/></marker><path d="M 223.0 532.3 L 295.0 532.3 L 351.0 532.3 Q 359.0 532.3 359.0 540.3 L 359.0 700.3 Q 359.0 708.3 367.0 708.3 L 519.0 708.3 L 591.0 708.3" fill="none" stroke="#475569" stroke-width="1.25" stroke-linecap="round" stroke-linejoin="round" marker-end="url(#marker-end-run-maintenance-ui-serves-delete)"/><text x="353.0" y="620.3" text-anchor="end" fill="none" font-size="15.4" font-weight="600" stroke="#ffffff" stroke-width="2">delete UI</text><text x="353.0" y="620.3" text-anchor="end" fill="#374151" font-size="15.4" font-weight="600">delete UI</text></g><g data-dediren-edge-id="run-service-serves-create"><marker id="marker-end-run-service-serves-create" data-dediren-edge-marker-end="open_arrow" markerWidth="10" markerHeight="10" refX="9" refY="5" orient="auto"><path d="M 1 1 L 9 5 L 1 9" fill="none" stroke="#475569" stroke-width="1.5"/></marker><path d="M 1521.0 97.0 L 1449.0 97.0 L 1249.0 97.0 Q 1241.0 97.0 1241.0 105.0 L 1241.0 418.0 Q 1241.0 426.0 1233.0 426.0 L 1073.0 426.0 Q 1065.0 426.0 1065.0 434.0 L 1065.0 441.0 Q 1065.0 449.0 1057.0 449.0 L 1001.0 449.0 L 825.0 449.0 Q 817.0 449.0 817.0 457.0 L 817.0 511.5 Q 817.0 519.5 809.0 519.5 L 753.0 519.5" fill="none" stroke="#475569" stroke-width="1.25" stroke-linecap="round" stroke-linejoin="round" marker-end="url(#marker-end-run-service-serves-create)"/><text x="785.0" y="509.5" text-anchor="middle" fill="none" font-size="15.4" font-weight="600" stroke="#ffffff" stroke-width="2">create</text><text x="785.0" y="509.5" text-anchor="middle" fill="#374151" font-size="15.4" font-weight="600">create</text></g><g data-dediren-edge-id="run-service-serves-edit"><marker id="marker-end-run-service-serves-edit" data-dediren-edge-marker-end="open_arrow" markerWidth="10" markerHeight="10" refX="9" refY="5" orient="auto"><path d="M 1 1 L 9 5 L 1 9" fill="none" stroke="#475569" stroke-width="1.5"/></marker><path d="M 1521.0 97.0 L 1449.0 97.0 L 1073.0 97.0 Q 1065.0 97.0 1065.0 105.0 L 1065.0 308.8 Q 1065.0 316.8 1057.0 316.8 L 1001.0 316.8 L 825.0 316.8 Q 817.0 316.8 817.0 324.8 L 817.0 339.8 Q 817.0 347.8 809.0 347.8 L 753.0 347.8" fill="none" stroke="#475569" stroke-width="1.25" stroke-linecap="round" stroke-linejoin="round" marker-end="url(#marker-end-run-service-serves-edit)"/><text x="785.0" y="337.8" text-anchor="middle" fill="none" font-size="15.4" font-weight="600" stroke="#ffffff" stroke-width="2">edit</text><text x="785.0" y="337.8" text-anchor="middle" fill="#374151" font-size="15.4" font-weight="600">edit</text></g><g data-dediren-edge-id="run-service-serves-delete"><marker id="marker-end-run-service-serves-delete" data-dediren-edge-marker-end="open_arrow" markerWidth="10" markerHeight="10" refX="9" refY="5" orient="auto"><path d="M 1 1 L 9 5 L 1 9" fill="none" stroke="#475569" stroke-width="1.5"/></marker><path d="M 1521.0 97.0 L 1449.0 97.0 L 1249.0 97.0 Q 1241.0 97.0 1241.0 105.0 L 1241.0 622.0 Q 1241.0 630.0 1233.0 630.0 L 1067.5 630.0 Q 1065.0 630.0 1065.0 627.5 L 1065.0 627.5 Q 1065.0 625.0 1062.5 625.0 L 1001.0 625.0 L 825.0 625.0 Q 817.0 625.0 817.0 633.0 L 817.0 687.5 Q 817.0 695.5 809.0 695.5 L 753.0 695.5" fill="none" stroke="#475569" stroke-width="1.25" stroke-linecap="round" stroke-linejoin="round" marker-end="url(#marker-end-run-service-serves-delete)"/><text x="785.0" y="685.5" text-anchor="middle" fill="none" font-size="15.4" font-weight="600" stroke="#ffffff" stroke-width="2">delete</text><text x="785.0" y="685.5" text-anchor="middle" fill="#374151" font-size="15.4" font-weight="600">delete</text></g><g data-dediren-edge-id="create-run-accesses-runs"><marker id="marker-end-create-run-accesses-runs" data-dediren-edge-marker-end="open_arrow" markerWidth="10" markerHeight="10" refX="9" refY="5" orient="auto"><path d="M 1 1 L 9 5 L 1 9" fill="none" stroke="#475569" stroke-width="1.5"/></marker><g data-dediren-line-jump-masks="create-run-accesses-runs"><path d="M 1235.0 497.0 Q 1241.0 491.0 1247.0 497.0" fill="none" stroke="#ffffff" stroke-width="6"/></g><path d="M 753.0 532.3 L 857.0 532.3 Q 865.0 532.3 865.0 524.3 L 865.0 505.0 Q 865.0 497.0 873.0 497.0 L 1001.0 497.0 L 1235.0 497.0 Q 1241.0 491.0 1247.0 497.0 L 1329.0 497.0 Q 1337.0 497.0 1337.0 489.0 L 1337.0 366.0 Q 1337.0 358.0 1345.0 358.0 L 1449.0 358.0 L 1649.0 358.0" fill="none" stroke="#475569" stroke-width="1.25" stroke-linecap="round" stroke-linejoin="round" stroke-dasharray="8 5" marker-end="url(#marker-end-create-run-accesses-runs)"/><text x="809.0" y="578.3" text-anchor="middle" fill="none" font-size="15.4" font-weight="600" stroke="#ffffff" stroke-width="2">write run</text><text x="809.0" y="578.3" text-anchor="middle" fill="#374151" font-size="15.4" font-weight="600">write run</text></g><g data-dediren-edge-id="create-run-accesses-raiders"><marker id="marker-end-create-run-accesses-raiders" data-dediren-edge-marker-end="open_arrow" markerWidth="10" markerHeight="10" refX="9" refY="5" orient="auto"><path d="M 1 1 L 9 5 L 1 9" fill="none" stroke="#475569" stroke-width="1.5"/></marker><g data-dediren-line-jump-masks="create-run-accesses-raiders"><path d="M 1235.0 562.0 Q 1241.0 556.0 1247.0 562.0" fill="none" stroke="#ffffff" stroke-width="6"/></g><path d="M 753.0 545.0 L 1001.0 545.0 L 1057.0 545.0 Q 1065.0 545.0 1065.0 553.0 L 1065.0 554.0 Q 1065.0 562.0 1073.0 562.0 L 1235.0 562.0 Q 1241.0 556.0 1247.0 562.0 L 1281.0 562.0 Q 1289.0 562.0 1289.0 554.0 L 1289.0 533.5 Q 1289.0 525.5 1297.0 525.5 L 1449.0 525.5 L 1649.0 525.5" fill="none" stroke="#475569" stroke-width="1.25" stroke-linecap="round" stroke-linejoin="round" stroke-dasharray="8 5" marker-end="url(#marker-end-create-run-accesses-raiders)"/><text x="1071.0" y="553.5" text-anchor="start" fill="none" font-size="15.4" font-weight="600" stroke="#ffffff" stroke-width="2">creator guild</text><text x="1071.0" y="553.5" text-anchor="start" fill="#374151" font-size="15.4" font-weight="600">creator guild</text></g><g data-dediren-edge-id="edit-run-accesses-runs"><marker id="marker-end-edit-run-accesses-runs" data-dediren-edge-marker-end="open_arrow" markerWidth="10" markerHeight="10" refX="9" refY="5" orient="auto"><path d="M 1 1 L 9 5 L 1 9" fill="none" stroke="#475569" stroke-width="1.5"/></marker><g data-dediren-line-jump-masks="edit-run-accesses-runs"><path d="M 1235.0 358.0 Q 1241.0 352.0 1247.0 358.0" fill="none" stroke="#ffffff" stroke-width="6"/></g><path d="M 753.0 364.8 L 1001.0 364.8 L 1061.6 364.8 Q 1065.0 364.8 1065.0 361.4 L 1065.0 361.4 Q 1065.0 358.0 1068.4 358.0 L 1235.0 358.0 Q 1241.0 352.0 1247.0 358.0 L 1449.0 358.0 L 1649.0 358.0" fill="none" stroke="#475569" stroke-width="1.25" stroke-linecap="round" stroke-linejoin="round" stroke-dasharray="8 5" marker-end="url(#marker-end-edit-run-accesses-runs)"/><text x="877.0" y="382.8" text-anchor="middle" fill="none" font-size="15.4" font-weight="600" stroke="#ffffff" stroke-width="2">read/write run</text><text x="877.0" y="382.8" text-anchor="middle" fill="#374151" font-size="15.4" font-weight="600">read/write run</text></g><g data-dediren-edge-id="delete-run-accesses-runs"><marker id="marker-end-delete-run-accesses-runs" data-dediren-edge-marker-end="open_arrow" markerWidth="10" markerHeight="10" refX="9" refY="5" orient="auto"><path d="M 1 1 L 9 5 L 1 9" fill="none" stroke="#475569" stroke-width="1.5"/></marker><g data-dediren-line-jump-masks="delete-run-accesses-runs"><path d="M 1337.0 519.5 Q 1343.0 525.5 1337.0 531.5" fill="none" stroke="#ffffff" stroke-width="6"/></g><path d="M 753.0 708.3 L 857.0 708.3 Q 865.0 708.3 865.0 700.3 L 865.0 681.0 Q 865.0 673.0 873.0 673.0 L 1001.0 673.0 L 1105.0 673.0 Q 1113.0 673.0 1113.0 681.0 L 1113.0 693.0 Q 1113.0 701.0 1121.0 701.0 L 1329.0 701.0 Q 1337.0 701.0 1337.0 693.0 L 1337.0 531.5 Q 1343.0 525.5 1337.0 519.5 L 1337.0 366.0 Q 1337.0 358.0 1345.0 358.0 L 1449.0 358.0 L 1649.0 358.0" fill="none" stroke="#475569" stroke-width="1.25" stroke-linecap="round" stroke-linejoin="round" stroke-dasharray="8 5" marker-end="url(#marker-end-delete-run-accesses-runs)"/><text x="809.0" y="754.3" text-anchor="middle" fill="none" font-size="15.4" font-weight="600" stroke="#ffffff" stroke-width="2">delete run</text><text x="809.0" y="754.3" text-anchor="middle" fill="#374151" font-size="15.4" font-weight="600">delete run</text></g><g data-dediren-edge-id="delete-run-accesses-raiders"><marker id="marker-end-delete-run-accesses-raiders" data-dediren-edge-marker-end="open_arrow" markerWidth="10" markerHeight="10" refX="9" refY="5" orient="auto"><path d="M 1 1 L 9 5 L 1 9" fill="none" stroke="#475569" stroke-width="1.5"/></marker><path d="M 753.0 721.0 L 1001.0 721.0 L 1057.0 721.0 Q 1065.0 721.0 1065.0 729.0 L 1065.0 758.0 Q 1065.0 766.0 1073.0 766.0 L 1377.0 766.0 Q 1385.0 766.0 1385.0 758.0 L 1385.0 581.5 Q 1385.0 573.5 1393.0 573.5 L 1449.0 573.5 L 1577.0 573.5 Q 1585.0 573.5 1585.0 565.5 L 1585.0 550.5 Q 1585.0 542.5 1593.0 542.5 L 1649.0 542.5" fill="none" stroke="#475569" stroke-width="1.25" stroke-linecap="round" stroke-linejoin="round" stroke-dasharray="8 5" marker-end="url(#marker-end-delete-run-accesses-raiders)"/><text x="1071.0" y="743.5" text-anchor="start" fill="none" font-size="15.4" font-weight="600" stroke="#ffffff" stroke-width="2">permission context</text><text x="1071.0" y="743.5" text-anchor="start" fill="#374151" font-size="15.4" font-weight="600">permission context</text></g><g data-dediren-node-id="run-maintenance-ui-entry"><rect data-dediren-node-shape="archimate_rectangle" x="52.0" y="487.3" width="170.0" height="90.0" rx="0" fill="#e0f2fe" stroke="#0369a1" stroke-width="1.25"/><g data-dediren-node-decorator="archimate_application_component" data-dediren-icon-kind="component" data-dediren-icon-size="22"><rect x="198.0" y="496.3" width="18.0" height="15.8" rx="1.5" fill="#e0f2fe" stroke="#0369a1" stroke-width="1.25"/><rect x="194.0" y="498.9" width="7.9" height="5.7" rx="1.2" fill="#e0f2fe" stroke="#0369a1" stroke-width="1.25"/><rect x="194.0" y="505.9" width="7.9" height="5.7" rx="1.2" fill="#e0f2fe" stroke="#0369a1" stroke-width="1.25"/></g><text x="137.0" y="531.7" text-anchor="middle" dominant-baseline="middle" fill="#0c4a6e" font-size="14.0"><tspan x="137.0" dy="0" textLength="25.6" lengthAdjust="spacing">Run</tspan><tspan x="137.0" dy="16.0" textLength="98.0" lengthAdjust="spacing">maintenance UI</tspan><tspan x="137.0" dy="16.0" textLength="38.1" lengthAdjust="spacing">pages</tspan></text></g><g data-dediren-node-id="create-run-process"><rect data-dediren-node-shape="archimate_rounded_rectangle" x="592.0" y="492.3" width="160.0" height="80.0" rx="6" fill="#e0f2fe" stroke="#0369a1" stroke-width="1.25"/><g data-dediren-node-decorator="archimate_application_process" data-dediren-icon-kind="process" data-dediren-icon-size="22"><path data-dediren-icon-part="process-arrow" d="M 724.0 506.5 L 737.6 506.5 L 737.6 501.3 L 746.0 509.2 L 737.6 517.1 L 737.6 511.8 L 724.0 511.8 Z" fill="#e0f2fe" stroke="#0369a1" stroke-width="1.25"/></g><text x="672.0" y="547.8" text-anchor="middle" dominant-baseline="middle" fill="#0c4a6e" font-size="14.0" textLength="66.1" lengthAdjust="spacing">Create run</text></g><g data-dediren-node-id="edit-run-process"><rect data-dediren-node-shape="archimate_rounded_rectangle" x="592.0" y="316.3" width="160.0" height="80.0" rx="6" fill="#e0f2fe" stroke="#0369a1" stroke-width="1.25"/><g data-dediren-node-decorator="archimate_application_process" data-dediren-icon-kind="process" data-dediren-icon-size="22"><path data-dediren-icon-part="process-arrow" d="M 724.0 330.5 L 737.6 330.5 L 737.6 325.3 L 746.0 333.2 L 737.6 341.1 L 737.6 335.8 L 724.0 335.8 Z" fill="#e0f2fe" stroke="#0369a1" stroke-width="1.25"/></g><text x="672.0" y="371.8" text-anchor="middle" dominant-baseline="middle" fill="#0c4a6e" font-size="14.0" textLength="48.2" lengthAdjust="spacing">Edit run</text></g><g data-dediren-node-id="delete-run-process"><rect data-dediren-node-shape="archimate_rounded_rectangle" x="592.0" y="668.3" width="160.0" height="80.0" rx="6" fill="#e0f2fe" stroke="#0369a1" stroke-width="1.25"/><g data-dediren-node-decorator="archimate_application_process" data-dediren-icon-kind="process" data-dediren-icon-size="22"><path data-dediren-icon-part="process-arrow" d="M 724.0 682.5 L 737.6 682.5 L 737.6 677.3 L 746.0 685.2 L 737.6 693.1 L 737.6 687.8 L 724.0 687.8 Z" fill="#e0f2fe" stroke="#0369a1" stroke-width="1.25"/></g><text x="672.0" y="723.8" text-anchor="middle" dominant-baseline="middle" fill="#0c4a6e" font-size="14.0" textLength="64.5" lengthAdjust="spacing">Delete run</text></g><g data-dediren-node-id="run-management-service"><rect data-dediren-node-shape="archimate_rounded_rectangle" x="1522.0" y="52.0" width="160.0" height="90.0" rx="6" fill="#e0f2fe" stroke="#0369a1" stroke-width="1.25"/><g data-dediren-node-decorator="archimate_application_service" data-dediren-icon-kind="service" data-dediren-icon-size="22"><rect x="1654.0" y="61.0" width="22.0" height="13.6" rx="4.0" fill="#e0f2fe" stroke="#0369a1" stroke-width="1.25"/></g><text x="1602.0" y="96.4" text-anchor="middle" dominant-baseline="middle" fill="#0c4a6e" font-size="14.0"><tspan x="1602.0" dy="0" textLength="25.6" lengthAdjust="spacing">Run</tspan><tspan x="1602.0" dy="16.0" textLength="81.7" lengthAdjust="spacing">management</tspan><tspan x="1602.0" dy="16.0" textLength="44.3" lengthAdjust="spacing">service</tspan></text></g><g data-dediren-node-id="cosmos-runs"><rect data-dediren-node-shape="archimate_rectangle" x="1650.0" y="318.0" width="160.0" height="80.0" rx="0" fill="#d5e8d4" stroke="#4d7c0f" stroke-width="1.25"/><g data-dediren-node-decorator="archimate_artifact" data-dediren-icon-kind="artifact" data-dediren-icon-size="22"><path data-dediren-icon-part="artifact-document" d="M 1784.2 326.0 L 1794.8 326.0 L 1800.9 332.2 L 1800.9 345.8 L 1784.2 345.8 Z M 1794.8 326.0 L 1794.8 332.2 L 1800.9 332.2" fill="#d5e8d4" stroke="#4d7c0f" stroke-width="1.25"/></g><text x="1730.0" y="373.5" text-anchor="middle" dominant-baseline="middle" fill="#365314" font-size="14.0" textLength="88.7" lengthAdjust="spacing">runs container</text></g><g data-dediren-node-id="cosmos-raiders"><rect data-dediren-node-shape="archimate_rectangle" x="1650.0" y="494.0" width="160.0" height="80.0" rx="0" fill="#d5e8d4" stroke="#4d7c0f" stroke-width="1.25"/><g data-dediren-node-decorator="archimate_artifact" data-dediren-icon-kind="artifact" data-dediren-icon-size="22"><path data-dediren-icon-part="artifact-document" d="M 1784.2 502.0 L 1794.8 502.0 L 1800.9 508.2 L 1800.9 521.8 L 1784.2 521.8 Z M 1794.8 502.0 L 1794.8 508.2 L 1800.9 508.2" fill="#d5e8d4" stroke="#4d7c0f" stroke-width="1.25"/></g><text x="1730.0" y="541.5" text-anchor="middle" dominant-baseline="middle" fill="#365314" font-size="14.0"><tspan x="1730.0" dy="0" textLength="42.7" lengthAdjust="spacing">raiders</tspan><tspan x="1730.0" dy="16.0" textLength="57.5" lengthAdjust="spacing">container</tspan></text></g></g></svg>

