<svg xmlns="http://www.w3.org/2000/svg" width="2464" height="1072" viewBox="-12.0 -12.0 2464.0 1071.7"><rect x="-12.0" y="-12.0" width="2464.0" height="1071.7" fill="#ffffff"/><g font-family="Inter, Arial, sans-serif" font-size="14.0"><g data-dediren-group-id="guild-current-ui"><rect x="2060.0" y="795.7" width="304.0" height="240.0" rx="4.0" fill="#f8fafc" stroke="#94a3b8" stroke-width="1.0"/><text x="2068.0" y="811.7" fill="#374151" font-size="12.0">Current-guild UI</text></g><g data-dediren-group-id="guild-admin-ui"><rect x="2060.0" y="12.0" width="304.0" height="240.0" rx="4.0" fill="#f8fafc" stroke="#94a3b8" stroke-width="1.0"/><text x="2068.0" y="28.0" fill="#374151" font-size="12.0">Site-admin guild UI</text></g><g data-dediren-group-id="guild-api-realization"><rect x="668.0" y="250.7" width="880.0" height="785.0" rx="4.0" fill="#f8fafc" stroke="#94a3b8" stroke-width="1.0"/><text x="676.0" y="266.7" fill="#374151" font-size="12.0">Guild API realization</text></g><g data-dediren-group-id="guild-data"><rect x="2060.0" y="348.0" width="368.0" height="351.7" rx="4.0" fill="#f8fafc" stroke="#94a3b8" stroke-width="1.0"/><text x="2068.0" y="364.0" fill="#374151" font-size="12.0">Guild data dependencies</text></g><g data-dediren-group-id="guild-external"><rect x="12.0" y="651.7" width="368.0" height="320.0" rx="4.0" fill="#f8fafc" stroke="#94a3b8" stroke-width="1.0"/><text x="20.0" y="667.7" fill="#374151" font-size="12.0">Guild refresh dependency</text></g><g data-dediren-edge-id="guild-service-serves-guild-ui"><defs><marker id="marker-end-guild-service-serves-guild-ui" data-dediren-edge-marker-end="open_arrow" markerWidth="9" markerHeight="9" refX="8" refY="4.5" orient="auto" markerUnits="strokeWidth"><path d="M 1 1 L 8 4.5 L 1 8" fill="none" stroke="#2563eb" stroke-width="1.3" stroke-linecap="round" stroke-linejoin="round"/></marker></defs><path d="M 1092.0 811.7 L 1676.0 811.7 L 1676.0 875.7 L 2260.0 875.7" fill="none" stroke="#2563eb" stroke-width="1.5" marker-end="url(#marker-end-guild-service-serves-guild-ui)"/><text x="1384.0" y="828.5" text-anchor="middle" fill="#1e3a8a" stroke="#ffffff" stroke-width="4" stroke-linejoin="round" paint-order="stroke">guild data</text></g><g data-dediren-edge-id="guild-admin-service-serves-guild-admin-ui"><defs><marker id="marker-end-guild-admin-service-serves-guild-admin-ui" data-dediren-edge-marker-end="open_arrow" markerWidth="9" markerHeight="9" refX="8" refY="4.5" orient="auto" markerUnits="strokeWidth"><path d="M 1 1 L 8 4.5 L 1 8" fill="none" stroke="#2563eb" stroke-width="1.3" stroke-linecap="round" stroke-linejoin="round"/></marker></defs><path d="M 1092.0 538.7 L 1676.0 538.7 L 1676.0 92.0 L 2260.0 92.0" fill="none" stroke="#2563eb" stroke-width="1.5" marker-end="url(#marker-end-guild-admin-service-serves-guild-admin-ui)"/><text x="1384.0" y="548.3" text-anchor="middle" fill="#1e3a8a" stroke="#ffffff" stroke-width="4" stroke-linejoin="round" paint-order="stroke">site admin</text></g><g data-dediren-edge-id="api-realizes-guild-service"><defs><marker id="marker-end-api-realizes-guild-service" data-dediren-edge-marker-end="hollow_triangle" markerWidth="10" markerHeight="10" refX="9" refY="5" orient="auto" markerUnits="strokeWidth"><path d="M 1 1 L 9 5 L 1 9 z" fill="#ffffff" stroke="#475569" stroke-width="1.2"/></marker></defs><path d="M 761.3 370.7 L 761.3 687.2 L 1172.0 687.2 L 1172.0 771.7" fill="none" stroke="#475569" stroke-width="1.5" stroke-dasharray="8 5" marker-end="url(#marker-end-api-realizes-guild-service)"/><text x="966.7" y="704.0" text-anchor="middle" fill="#334155" stroke="#ffffff" stroke-width="4" stroke-linejoin="round" paint-order="stroke">realizes</text></g><g data-dediren-edge-id="api-realizes-guild-admin-service"><defs><marker id="marker-end-api-realizes-guild-admin-service" data-dediren-edge-marker-end="hollow_triangle" markerWidth="10" markerHeight="10" refX="9" refY="5" orient="auto" markerUnits="strokeWidth"><path d="M 1 1 L 9 5 L 1 9 z" fill="#ffffff" stroke="#475569" stroke-width="1.2"/></marker></defs><path d="M 814.7 370.7 L 814.7 434.7 L 1172.0 434.7 L 1172.0 498.7" fill="none" stroke="#475569" stroke-width="1.5" stroke-dasharray="8 5" marker-end="url(#marker-end-api-realizes-guild-admin-service)"/><text x="993.3" y="451.5" text-anchor="middle" fill="#334155" stroke="#ffffff" stroke-width="4" stroke-linejoin="round" paint-order="stroke">realizes</text></g><g data-dediren-edge-id="guild-service-accesses-guilds"><defs><marker id="marker-end-guild-service-accesses-guilds" data-dediren-edge-marker-end="open_arrow" markerWidth="9" markerHeight="9" refX="8" refY="4.5" orient="auto" markerUnits="strokeWidth"><path d="M 1 1 L 8 4.5 L 1 8" fill="none" stroke="#15803d" stroke-width="1.3" stroke-linecap="round" stroke-linejoin="round"/></marker></defs><path d="M 1252.0 811.7 Q 1252.0 805.7 1252.0 805.7 L 1676.0 805.7 Q 1682.0 805.7 1682.0 811.7 L 1758.0 811.7 L 1758.0 617.3 L 2228.0 617.3" fill="none" stroke="#15803d" stroke-width="1.5" stroke-dasharray="8 5" marker-end="url(#marker-end-guild-service-accesses-guilds)"/><text x="1505.0" y="839.3" text-anchor="middle" fill="#166534" stroke="#ffffff" stroke-width="4" stroke-linejoin="round" paint-order="stroke">guild state</text></g><g data-dediren-edge-id="guild-service-accesses-raiders"><defs><marker id="marker-end-guild-service-accesses-raiders" data-dediren-edge-marker-end="open_arrow" markerWidth="9" markerHeight="9" refX="8" refY="4.5" orient="auto" markerUnits="strokeWidth"><path d="M 1 1 L 8 4.5 L 1 8" fill="none" stroke="#15803d" stroke-width="1.3" stroke-linecap="round" stroke-linejoin="round"/></marker></defs><path d="M 1252.0 791.7 L 1734.0 791.7 L 1734.0 441.3 L 2228.0 441.3" fill="none" stroke="#15803d" stroke-width="1.5" stroke-dasharray="8 5" marker-end="url(#marker-end-guild-service-accesses-raiders)"/><text x="1493.0" y="783.3" text-anchor="middle" fill="#166534" stroke="#ffffff" stroke-width="4" stroke-linejoin="round" paint-order="stroke">current raider</text></g><g data-dediren-edge-id="guild-admin-service-accesses-guilds"><defs><marker id="marker-end-guild-admin-service-accesses-guilds" data-dediren-edge-marker-end="open_arrow" markerWidth="9" markerHeight="9" refX="8" refY="4.5" orient="auto" markerUnits="strokeWidth"><path d="M 1 1 L 8 4.5 L 1 8" fill="none" stroke="#15803d" stroke-width="1.3" stroke-linecap="round" stroke-linejoin="round"/></marker></defs><g data-dediren-line-jump-masks="guild-admin-service-accesses-guilds"><path d="M 1728.0 558.7 Q 1734.0 552.7 1740.0 558.7" fill="none" stroke="#ffffff" stroke-width="5.5" stroke-linecap="round" stroke-linejoin="round"/></g><path d="M 1252.0 558.7 L 1728.0 558.7 Q 1734.0 552.7 1740.0 558.7 L 1758.0 558.7 L 1758.0 590.7 L 2228.0 590.7" fill="none" stroke="#15803d" stroke-width="1.5" stroke-dasharray="8 5" marker-end="url(#marker-end-guild-admin-service-accesses-guilds)"/><text x="1505.0" y="575.5" text-anchor="middle" fill="#166534" stroke="#ffffff" stroke-width="4" stroke-linejoin="round" paint-order="stroke">admin guild state</text></g><g data-dediren-edge-id="guild-admin-service-accesses-raiders"><defs><marker id="marker-end-guild-admin-service-accesses-raiders" data-dediren-edge-marker-end="open_arrow" markerWidth="9" markerHeight="9" refX="8" refY="4.5" orient="auto" markerUnits="strokeWidth"><path d="M 1 1 L 8 4.5 L 1 8" fill="none" stroke="#15803d" stroke-width="1.3" stroke-linecap="round" stroke-linejoin="round"/></marker></defs><g data-dediren-line-jump-masks="guild-admin-service-accesses-raiders"><path d="M 1670.0 518.7 Q 1676.0 512.7 1682.0 518.7" fill="none" stroke="#ffffff" stroke-width="5.5" stroke-linecap="round" stroke-linejoin="round"/></g><path d="M 1252.0 518.7 L 1670.0 518.7 Q 1676.0 512.7 1682.0 518.7 L 1710.0 518.7 L 1710.0 414.7 L 2228.0 414.7" fill="none" stroke="#15803d" stroke-width="1.5" stroke-dasharray="8 5" marker-end="url(#marker-end-guild-admin-service-accesses-raiders)"/><text x="1481.0" y="510.3" text-anchor="middle" fill="#166534" stroke="#ffffff" stroke-width="4" stroke-linejoin="round" paint-order="stroke">bootstrap context</text></g><g data-dediren-edge-id="profile-api-serves-guild-service"><defs><marker id="marker-end-profile-api-serves-guild-service" data-dediren-edge-marker-end="open_arrow" markerWidth="9" markerHeight="9" refX="8" refY="4.5" orient="auto" markerUnits="strokeWidth"><path d="M 1 1 L 8 4.5 L 1 8" fill="none" stroke="#2563eb" stroke-width="1.3" stroke-linecap="round" stroke-linejoin="round"/></marker></defs><path d="M 180.0 825.0 L 716.0 825.0 L 716.0 831.7 L 1252.0 831.7" fill="none" stroke="#2563eb" stroke-width="1.5" marker-end="url(#marker-end-profile-api-serves-guild-service)"/><text x="448.0" y="841.8" text-anchor="middle" fill="#1e3a8a" stroke="#ffffff" stroke-width="4" stroke-linejoin="round" paint-order="stroke">guild refresh</text></g><g data-dediren-edge-id="profile-api-serves-guild-admin-service"><defs><marker id="marker-end-profile-api-serves-guild-admin-service" data-dediren-edge-marker-end="open_arrow" markerWidth="9" markerHeight="9" refX="8" refY="4.5" orient="auto" markerUnits="strokeWidth"><path d="M 1 1 L 8 4.5 L 1 8" fill="none" stroke="#2563eb" stroke-width="1.3" stroke-linecap="round" stroke-linejoin="round"/></marker></defs><g data-dediren-line-jump-masks="profile-api-serves-guild-admin-service"><path d="M 755.3 538.7 Q 761.3 532.7 767.3 538.7" fill="none" stroke="#ffffff" stroke-width="5.5" stroke-linecap="round" stroke-linejoin="round"/></g><path d="M 180.0 798.3 L 716.0 798.3 L 716.0 538.7 L 1086.0 538.7 Q 1092.0 532.7 1092.0 532.7 L 1252.0 532.7 Q 1252.0 532.7 1252.0 538.7" fill="none" stroke="#2563eb" stroke-width="1.5" marker-end="url(#marker-end-profile-api-serves-guild-admin-service)"/><text x="448.0" y="789.9" text-anchor="middle" fill="#1e3a8a" stroke="#ffffff" stroke-width="4" stroke-linejoin="round" paint-order="stroke">guild refresh</text></g><g data-dediren-node-id="guild-ui-entry"><rect data-dediren-node-shape="archimate_rectangle" x="2100.0" y="835.7" width="160.0" height="80.0" rx="0" fill="#e8f3ff" stroke="#2563eb" stroke-width="1.5"/><g data-dediren-node-decorator="archimate_application_component" data-dediren-icon-kind="component" data-dediren-icon-size="22"><rect x="2236.0" y="844.7" width="18.0" height="15.8" rx="1.5" fill="#e8f3ff" stroke="#2563eb" stroke-width="1.5"/><rect x="2232.0" y="847.3" width="7.9" height="5.7" rx="1.2" fill="#e8f3ff" stroke="#2563eb" stroke-width="1.5"/><rect x="2232.0" y="854.3" width="7.9" height="5.7" rx="1.2" fill="#e8f3ff" stroke="#2563eb" stroke-width="1.5"/></g><text x="2180.0" y="875.7" text-anchor="middle" dominant-baseline="middle" fill="#172554" font-size="14.0">Guild UI pages</text></g><g data-dediren-node-id="guild-admin-ui-entry"><rect data-dediren-node-shape="archimate_rectangle" x="2100.0" y="52.0" width="160.0" height="80.0" rx="0" fill="#e8f3ff" stroke="#2563eb" stroke-width="1.5"/><g data-dediren-node-decorator="archimate_application_component" data-dediren-icon-kind="component" data-dediren-icon-size="22"><rect x="2236.0" y="61.0" width="18.0" height="15.8" rx="1.5" fill="#e8f3ff" stroke="#2563eb" stroke-width="1.5"/><rect x="2232.0" y="63.6" width="7.9" height="5.7" rx="1.2" fill="#e8f3ff" stroke="#2563eb" stroke-width="1.5"/><rect x="2232.0" y="70.7" width="7.9" height="5.7" rx="1.2" fill="#e8f3ff" stroke="#2563eb" stroke-width="1.5"/></g><text x="2180.0" y="84.0" text-anchor="middle" dominant-baseline="middle" fill="#172554" font-size="14.0"><tspan x="2180.0" dy="0">Guild admin UI</tspan><tspan x="2180.0" dy="16.0">pages</tspan></text></g><g data-dediren-node-id="guild-service"><rect data-dediren-node-shape="archimate_rounded_rectangle" x="1092.0" y="771.7" width="160.0" height="80.0" rx="4.0" fill="#e8f3ff" stroke="#2563eb" stroke-width="1.5"/><g data-dediren-node-decorator="archimate_application_service" data-dediren-icon-kind="service" data-dediren-icon-size="22"><rect x="1224.0" y="780.7" width="22.0" height="13.6" rx="4.0" fill="#e8f3ff" stroke="#2563eb" stroke-width="1.5"/></g><text x="1172.0" y="811.7" text-anchor="middle" dominant-baseline="middle" fill="#172554" font-size="14.0">Guild service</text></g><g data-dediren-node-id="guild-admin-service"><rect data-dediren-node-shape="archimate_rounded_rectangle" x="1092.0" y="498.7" width="160.0" height="80.0" rx="4.0" fill="#e8f3ff" stroke="#2563eb" stroke-width="1.5"/><g data-dediren-node-decorator="archimate_application_service" data-dediren-icon-kind="service" data-dediren-icon-size="22"><rect x="1224.0" y="507.7" width="22.0" height="13.6" rx="4.0" fill="#e8f3ff" stroke="#2563eb" stroke-width="1.5"/></g><text x="1172.0" y="530.6" text-anchor="middle" dominant-baseline="middle" fill="#172554" font-size="14.0"><tspan x="1172.0" dy="0">Guild admin</tspan><tspan x="1172.0" dy="16.0">service</tspan></text></g><g data-dediren-node-id="lfm-api"><rect data-dediren-node-shape="archimate_rectangle" x="708.0" y="290.7" width="160.0" height="80.0" rx="0" fill="#e8f3ff" stroke="#2563eb" stroke-width="1.5"/><g data-dediren-node-decorator="archimate_application_component" data-dediren-icon-kind="component" data-dediren-icon-size="22"><rect x="844.0" y="299.7" width="18.0" height="15.8" rx="1.5" fill="#e8f3ff" stroke="#2563eb" stroke-width="1.5"/><rect x="840.0" y="302.3" width="7.9" height="5.7" rx="1.2" fill="#e8f3ff" stroke="#2563eb" stroke-width="1.5"/><rect x="840.0" y="309.3" width="7.9" height="5.7" rx="1.2" fill="#e8f3ff" stroke="#2563eb" stroke-width="1.5"/></g><text x="788.0" y="330.7" text-anchor="middle" dominant-baseline="middle" fill="#172554" font-size="14.0">Lfm.Api</text></g><g data-dediren-node-id="cosmos-guilds"><rect data-dediren-node-shape="archimate_rectangle" x="2228.0" y="564.0" width="160.0" height="80.0" rx="0" fill="#f7fee7" stroke="#65a30d" stroke-width="1.5"/><g data-dediren-node-decorator="archimate_artifact" data-dediren-icon-kind="artifact" data-dediren-icon-size="22"><path data-dediren-icon-part="artifact-document" d="M 2362.2 572.0 L 2372.8 572.0 L 2378.9 578.2 L 2378.9 591.8 L 2362.2 591.8 Z M 2372.8 572.0 L 2372.8 578.2 L 2378.9 578.2" fill="#f7fee7" stroke="#65a30d" stroke-width="1.5"/></g><text x="2308.0" y="604.0" text-anchor="middle" dominant-baseline="middle" fill="#365314" font-size="14.0">guilds container</text></g><g data-dediren-node-id="cosmos-raiders"><rect data-dediren-node-shape="archimate_rectangle" x="2228.0" y="388.0" width="160.0" height="80.0" rx="0" fill="#f7fee7" stroke="#65a30d" stroke-width="1.5"/><g data-dediren-node-decorator="archimate_artifact" data-dediren-icon-kind="artifact" data-dediren-icon-size="22"><path data-dediren-icon-part="artifact-document" d="M 2362.2 396.0 L 2372.8 396.0 L 2378.9 402.2 L 2378.9 415.8 L 2362.2 415.8 Z M 2372.8 396.0 L 2372.8 402.2 L 2378.9 402.2" fill="#f7fee7" stroke="#65a30d" stroke-width="1.5"/></g><text x="2308.0" y="419.9" text-anchor="middle" dominant-baseline="middle" fill="#365314" font-size="14.0"><tspan x="2308.0" dy="0">raiders</tspan><tspan x="2308.0" dy="16.0">container</tspan></text></g><g data-dediren-node-id="blizzard-profile-api"><rect data-dediren-node-shape="archimate_rounded_rectangle" x="180.0" y="771.7" width="160.0" height="80.0" rx="4.0" fill="#e8f3ff" stroke="#2563eb" stroke-width="1.5"/><g data-dediren-node-decorator="archimate_application_service" data-dediren-icon-kind="service" data-dediren-icon-size="22"><rect x="312.0" y="780.7" width="22.0" height="13.6" rx="4.0" fill="#e8f3ff" stroke="#2563eb" stroke-width="1.5"/></g><text x="260.0" y="811.7" text-anchor="middle" dominant-baseline="middle" fill="#172554" font-size="14.0">WoW Profile API</text></g></g></svg>

