<svg xmlns="http://www.w3.org/2000/svg" width="2304" height="752" viewBox="-12.0 -12.0 2304.0 752.0"><rect x="-12.0" y="-12.0" width="2304.0" height="752.0" fill="#ffffff"/><g font-family="Inter, Arial, sans-serif" font-size="14.0"><g data-dediren-group-id="run-maintenance-ui"><rect x="76.0" y="348.0" width="240.0" height="160.0" rx="4.0" fill="#f8fafc" stroke="#94a3b8" stroke-width="1.0"/><text x="84.0" y="364.0" fill="#374151" font-size="12.0">Run maintenance UI</text></g><g data-dediren-group-id="run-maintenance-processes"><rect x="828.0" y="60.0" width="560.0" height="656.0" rx="4.0" fill="#f8fafc" stroke="#94a3b8" stroke-width="1.0"/><text x="836.0" y="76.0" fill="#374151" font-size="12.0">Run maintenance application processes</text></g><g data-dediren-group-id="run-maintenance-api-host"><rect x="12.0" y="12.0" width="304.0" height="240.0" rx="4.0" fill="#f8fafc" stroke="#94a3b8" stroke-width="1.0"/><text x="20.0" y="28.0" fill="#374151" font-size="12.0">Run management service</text></g><g data-dediren-group-id="run-maintenance-data"><rect x="1900.0" y="112.5" width="368.0" height="336.0" rx="4.0" fill="#f8fafc" stroke="#94a3b8" stroke-width="1.0"/><text x="1908.0" y="128.5" fill="#374151" font-size="12.0">Run maintenance data dependencies</text></g><g data-dediren-edge-id="run-maintenance-ui-serves-create"><defs><marker id="marker-end-run-maintenance-ui-serves-create" data-dediren-edge-marker-end="open_arrow" markerWidth="9" markerHeight="9" refX="8" refY="4.5" orient="auto" markerUnits="strokeWidth"><path d="M 1 1 L 8 4.5 L 1 8" fill="none" stroke="#2563eb" stroke-width="1.3" stroke-linecap="round" stroke-linejoin="round"/></marker></defs><path d="M 276.0 428.0 L 868.0 428.0" fill="none" stroke="#2563eb" stroke-width="1.5" marker-end="url(#marker-end-run-maintenance-ui-serves-create)"/><text x="572.0" y="419.6" text-anchor="middle" fill="#1e3a8a" stroke="#ffffff" stroke-width="4" stroke-linejoin="round" paint-order="stroke">create UI</text></g><g data-dediren-edge-id="run-maintenance-ui-serves-edit"><defs><marker id="marker-end-run-maintenance-ui-serves-edit" data-dediren-edge-marker-end="open_arrow" markerWidth="9" markerHeight="9" refX="8" refY="4.5" orient="auto" markerUnits="strokeWidth"><path d="M 1 1 L 8 4.5 L 1 8" fill="none" stroke="#2563eb" stroke-width="1.3" stroke-linecap="round" stroke-linejoin="round"/></marker></defs><path d="M 276.0 428.0 L 572.0 428.0 L 572.0 636.0 L 868.0 636.0" fill="none" stroke="#2563eb" stroke-width="1.5" marker-end="url(#marker-end-run-maintenance-ui-serves-edit)"/><text x="720.0" y="652.8" text-anchor="middle" fill="#1e3a8a" stroke="#ffffff" stroke-width="4" stroke-linejoin="round" paint-order="stroke">edit UI</text></g><g data-dediren-edge-id="run-maintenance-ui-serves-delete"><defs><marker id="marker-end-run-maintenance-ui-serves-delete" data-dediren-edge-marker-end="open_arrow" markerWidth="9" markerHeight="9" refX="8" refY="4.5" orient="auto" markerUnits="strokeWidth"><path d="M 1 1 L 8 4.5 L 1 8" fill="none" stroke="#2563eb" stroke-width="1.3" stroke-linecap="round" stroke-linejoin="round"/></marker></defs><path d="M 276.0 428.0 L 572.0 428.0 L 572.0 220.0 L 868.0 220.0" fill="none" stroke="#2563eb" stroke-width="1.5" marker-end="url(#marker-end-run-maintenance-ui-serves-delete)"/><text x="720.0" y="229.6" text-anchor="middle" fill="#1e3a8a" stroke="#ffffff" stroke-width="4" stroke-linejoin="round" paint-order="stroke">delete UI</text></g><g data-dediren-edge-id="run-service-serves-create"><defs><marker id="marker-end-run-service-serves-create" data-dediren-edge-marker-end="open_arrow" markerWidth="9" markerHeight="9" refX="8" refY="4.5" orient="auto" markerUnits="strokeWidth"><path d="M 1 1 L 8 4.5 L 1 8" fill="none" stroke="#2563eb" stroke-width="1.3" stroke-linecap="round" stroke-linejoin="round"/></marker></defs><g data-dediren-line-jump-masks="run-service-serves-create"><path d="M 620.0 214.0 Q 626.0 220.0 620.0 226.0" fill="none" stroke="#ffffff" stroke-width="5.5" stroke-linecap="round" stroke-linejoin="round"/></g><path d="M 116.0 92.0 L 620.0 92.0 L 620.0 214.0 Q 626.0 220.0 620.0 226.0 L 620.0 422.0 Q 620.0 422.0 620.0 422.0 L 868.0 422.0 Q 874.0 422.0 874.0 428.0 L 1028.0 428.0" fill="none" stroke="#2563eb" stroke-width="1.5" marker-end="url(#marker-end-run-service-serves-create)"/><text x="824.0" y="444.8" text-anchor="middle" fill="#1e3a8a" stroke="#ffffff" stroke-width="4" stroke-linejoin="round" paint-order="stroke">create</text></g><g data-dediren-edge-id="run-service-serves-edit"><defs><marker id="marker-end-run-service-serves-edit" data-dediren-edge-marker-end="open_arrow" markerWidth="9" markerHeight="9" refX="8" refY="4.5" orient="auto" markerUnits="strokeWidth"><path d="M 1 1 L 8 4.5 L 1 8" fill="none" stroke="#2563eb" stroke-width="1.3" stroke-linecap="round" stroke-linejoin="round"/></marker></defs><g data-dediren-line-jump-masks="run-service-serves-edit"><path d="M 524.0 422.0 Q 530.0 428.0 524.0 434.0" fill="none" stroke="#ffffff" stroke-width="5.5" stroke-linecap="round" stroke-linejoin="round"/></g><path d="M 116.0 92.0 L 524.0 92.0 L 524.0 422.0 Q 530.0 428.0 524.0 434.0 L 524.0 636.0 L 566.0 636.0 Q 572.0 630.0 572.0 630.0 L 868.0 630.0 Q 874.0 630.0 874.0 636.0 L 1028.0 636.0" fill="none" stroke="#2563eb" stroke-width="1.5" marker-end="url(#marker-end-run-service-serves-edit)"/><text x="776.0" y="652.8" text-anchor="middle" fill="#1e3a8a" stroke="#ffffff" stroke-width="4" stroke-linejoin="round" paint-order="stroke">edit</text></g><g data-dediren-edge-id="run-service-serves-delete"><defs><marker id="marker-end-run-service-serves-delete" data-dediren-edge-marker-end="open_arrow" markerWidth="9" markerHeight="9" refX="8" refY="4.5" orient="auto" markerUnits="strokeWidth"><path d="M 1 1 L 8 4.5 L 1 8" fill="none" stroke="#2563eb" stroke-width="1.3" stroke-linecap="round" stroke-linejoin="round"/></marker></defs><path d="M 116.0 92.0 L 572.0 92.0 L 572.0 200.0 L 1028.0 200.0" fill="none" stroke="#2563eb" stroke-width="1.5" marker-end="url(#marker-end-run-service-serves-delete)"/><text x="800.0" y="198.8" text-anchor="middle" fill="#1e3a8a" stroke="#ffffff" stroke-width="4" stroke-linejoin="round" paint-order="stroke">delete</text></g><g data-dediren-edge-id="create-run-accesses-runs"><defs><marker id="marker-end-create-run-accesses-runs" data-dediren-edge-marker-end="open_arrow" markerWidth="9" markerHeight="9" refX="8" refY="4.5" orient="auto" markerUnits="strokeWidth"><path d="M 1 1 L 8 4.5 L 1 8" fill="none" stroke="#15803d" stroke-width="1.3" stroke-linecap="round" stroke-linejoin="round"/></marker></defs><path d="M 921.3 388.0 L 921.3 368.5 L 2068.0 368.5" fill="none" stroke="#15803d" stroke-width="1.5" stroke-dasharray="8 5" marker-end="url(#marker-end-create-run-accesses-runs)"/><text x="1494.7" y="360.1" text-anchor="middle" fill="#166534" stroke="#ffffff" stroke-width="4" stroke-linejoin="round" paint-order="stroke">write run</text></g><g data-dediren-edge-id="create-run-accesses-raiders"><defs><marker id="marker-end-create-run-accesses-raiders" data-dediren-edge-marker-end="open_arrow" markerWidth="9" markerHeight="9" refX="8" refY="4.5" orient="auto" markerUnits="strokeWidth"><path d="M 1 1 L 8 4.5 L 1 8" fill="none" stroke="#15803d" stroke-width="1.3" stroke-linecap="round" stroke-linejoin="round"/></marker></defs><g data-dediren-line-jump-masks="create-run-accesses-raiders"><path d="M 974.7 374.5 Q 980.7 368.5 974.7 362.5" fill="none" stroke="#ffffff" stroke-width="5.5" stroke-linecap="round" stroke-linejoin="round"/></g><path d="M 974.7 388.0 L 974.7 374.5 Q 980.7 368.5 974.7 362.5 L 974.7 312.0 L 1548.0 312.0 L 1548.0 205.8 L 2068.0 205.8" fill="none" stroke="#15803d" stroke-width="1.5" stroke-dasharray="8 5" marker-end="url(#marker-end-create-run-accesses-raiders)"/><text x="1261.3" y="303.6" text-anchor="middle" fill="#166534" stroke="#ffffff" stroke-width="4" stroke-linejoin="round" paint-order="stroke">creator guild</text></g><g data-dediren-edge-id="edit-run-accesses-runs"><defs><marker id="marker-end-edit-run-accesses-runs" data-dediren-edge-marker-end="open_arrow" markerWidth="9" markerHeight="9" refX="8" refY="4.5" orient="auto" markerUnits="strokeWidth"><path d="M 1 1 L 8 4.5 L 1 8" fill="none" stroke="#15803d" stroke-width="1.3" stroke-linecap="round" stroke-linejoin="round"/></marker></defs><path d="M 948.0 596.0 L 948.0 520.0 L 1548.0 520.0 L 1548.0 368.5 L 2068.0 368.5" fill="none" stroke="#15803d" stroke-width="1.5" stroke-dasharray="8 5" marker-end="url(#marker-end-edit-run-accesses-runs)"/><text x="1248.0" y="511.6" text-anchor="middle" fill="#166534" stroke="#ffffff" stroke-width="4" stroke-linejoin="round" paint-order="stroke">read/write run</text></g><g data-dediren-edge-id="delete-run-accesses-runs"><defs><marker id="marker-end-delete-run-accesses-runs" data-dediren-edge-marker-end="open_arrow" markerWidth="9" markerHeight="9" refX="8" refY="4.5" orient="auto" markerUnits="strokeWidth"><path d="M 1 1 L 8 4.5 L 1 8" fill="none" stroke="#15803d" stroke-width="1.3" stroke-linecap="round" stroke-linejoin="round"/></marker></defs><g data-dediren-line-jump-masks="delete-run-accesses-runs"><path d="M 1542.0 240.0 Q 1548.0 234.0 1554.0 240.0" fill="none" stroke="#ffffff" stroke-width="5.5" stroke-linecap="round" stroke-linejoin="round"/></g><path d="M 1028.0 240.0 L 1542.0 240.0 Q 1548.0 234.0 1554.0 240.0 L 1572.0 240.0 L 1572.0 368.5 L 2068.0 368.5" fill="none" stroke="#15803d" stroke-width="1.5" stroke-dasharray="8 5" marker-end="url(#marker-end-delete-run-accesses-runs)"/><text x="1300.0" y="256.8" text-anchor="middle" fill="#166534" stroke="#ffffff" stroke-width="4" stroke-linejoin="round" paint-order="stroke">delete run</text></g><g data-dediren-edge-id="delete-run-accesses-raiders"><defs><marker id="marker-end-delete-run-accesses-raiders" data-dediren-edge-marker-end="open_arrow" markerWidth="9" markerHeight="9" refX="8" refY="4.5" orient="auto" markerUnits="strokeWidth"><path d="M 1 1 L 8 4.5 L 1 8" fill="none" stroke="#15803d" stroke-width="1.3" stroke-linecap="round" stroke-linejoin="round"/></marker></defs><path d="M 1028.0 220.0 L 1524.0 220.0 L 1524.0 179.2 L 2068.0 179.2" fill="none" stroke="#15803d" stroke-width="1.5" stroke-dasharray="8 5" marker-end="url(#marker-end-delete-run-accesses-raiders)"/><text x="1276.0" y="211.6" text-anchor="middle" fill="#166534" stroke="#ffffff" stroke-width="4" stroke-linejoin="round" paint-order="stroke">permission context</text></g><g data-dediren-node-id="run-maintenance-ui-entry"><rect data-dediren-node-shape="archimate_rectangle" x="116.0" y="388.0" width="160.0" height="80.0" rx="0" fill="#e8f3ff" stroke="#2563eb" stroke-width="1.5"/><g data-dediren-node-decorator="archimate_application_component" data-dediren-icon-kind="component" data-dediren-icon-size="22"><rect x="252.0" y="397.0" width="18.0" height="15.8" rx="1.5" fill="#e8f3ff" stroke="#2563eb" stroke-width="1.5"/><rect x="248.0" y="399.6" width="7.9" height="5.7" rx="1.2" fill="#e8f3ff" stroke="#2563eb" stroke-width="1.5"/><rect x="248.0" y="406.7" width="7.9" height="5.7" rx="1.2" fill="#e8f3ff" stroke="#2563eb" stroke-width="1.5"/></g><text x="196.0" y="419.9" text-anchor="middle" dominant-baseline="middle" fill="#172554" font-size="14.0"><tspan x="196.0" dy="0">Run maintenance</tspan><tspan x="196.0" dy="16.0">UI pages</tspan></text></g><g data-dediren-node-id="create-run-process"><rect data-dediren-node-shape="archimate_rectangle" x="868.0" y="388.0" width="160.0" height="80.0" rx="4.0" fill="#f8fafc" stroke="#334155" stroke-width="1.5"/><text x="948.0" y="428.0" text-anchor="middle" dominant-baseline="middle" fill="#0f172a" font-size="14.0">Create run</text></g><g data-dediren-node-id="edit-run-process"><rect data-dediren-node-shape="archimate_rectangle" x="868.0" y="596.0" width="160.0" height="80.0" rx="4.0" fill="#f8fafc" stroke="#334155" stroke-width="1.5"/><text x="948.0" y="636.0" text-anchor="middle" dominant-baseline="middle" fill="#0f172a" font-size="14.0">Edit run</text></g><g data-dediren-node-id="delete-run-process"><rect data-dediren-node-shape="archimate_rectangle" x="868.0" y="180.0" width="160.0" height="80.0" rx="4.0" fill="#f8fafc" stroke="#334155" stroke-width="1.5"/><text x="948.0" y="220.0" text-anchor="middle" dominant-baseline="middle" fill="#0f172a" font-size="14.0">Delete run</text></g><g data-dediren-node-id="run-management-service"><rect data-dediren-node-shape="archimate_rounded_rectangle" x="116.0" y="52.0" width="160.0" height="80.0" rx="4.0" fill="#e8f3ff" stroke="#2563eb" stroke-width="1.5"/><g data-dediren-node-decorator="archimate_application_service" data-dediren-icon-kind="service" data-dediren-icon-size="22"><rect x="248.0" y="61.0" width="22.0" height="13.6" rx="4.0" fill="#e8f3ff" stroke="#2563eb" stroke-width="1.5"/></g><text x="196.0" y="84.0" text-anchor="middle" dominant-baseline="middle" fill="#172554" font-size="14.0"><tspan x="196.0" dy="0">Run management</tspan><tspan x="196.0" dy="16.0">service</tspan></text></g><g data-dediren-node-id="cosmos-runs"><rect data-dediren-node-shape="archimate_rectangle" x="2068.0" y="328.5" width="160.0" height="80.0" rx="0" fill="#f7fee7" stroke="#65a30d" stroke-width="1.5"/><g data-dediren-node-decorator="archimate_artifact" data-dediren-icon-kind="artifact" data-dediren-icon-size="22"><path data-dediren-icon-part="artifact-document" d="M 2202.2 336.5 L 2212.8 336.5 L 2218.9 342.7 L 2218.9 356.3 L 2202.2 356.3 Z M 2212.8 336.5 L 2212.8 342.7 L 2218.9 342.7" fill="#f7fee7" stroke="#65a30d" stroke-width="1.5"/></g><text x="2148.0" y="368.5" text-anchor="middle" dominant-baseline="middle" fill="#365314" font-size="14.0">runs container</text></g><g data-dediren-node-id="cosmos-raiders"><rect data-dediren-node-shape="archimate_rectangle" x="2068.0" y="152.5" width="160.0" height="80.0" rx="0" fill="#f7fee7" stroke="#65a30d" stroke-width="1.5"/><g data-dediren-node-decorator="archimate_artifact" data-dediren-icon-kind="artifact" data-dediren-icon-size="22"><path data-dediren-icon-part="artifact-document" d="M 2202.2 160.5 L 2212.8 160.5 L 2218.9 166.7 L 2218.9 180.3 L 2202.2 180.3 Z M 2212.8 160.5 L 2212.8 166.7 L 2218.9 166.7" fill="#f7fee7" stroke="#65a30d" stroke-width="1.5"/></g><text x="2148.0" y="184.4" text-anchor="middle" dominant-baseline="middle" fill="#365314" font-size="14.0"><tspan x="2148.0" dy="0">raiders</tspan><tspan x="2148.0" dy="16.0">container</tspan></text></g></g></svg>

