<svg xmlns="http://www.w3.org/2000/svg" width="1733" height="560" viewBox="-12.0 -12.0 1733.0 560.0"><rect x="-12.0" y="-12.0" width="1733.0" height="560.0" fill="#ffffff"/><g font-family="Inter, Arial, sans-serif" font-size="14.0"><g data-dediren-group-id="account-deletion-ui"><rect x="12.0" y="23.5" width="241.0" height="160.0" rx="4.0" fill="#f8fafc" stroke="#94a3b8" stroke-width="1.0"/><text x="20.0" y="39.5" fill="#374151" font-size="12.0">Account deletion UI</text></g><g data-dediren-group-id="account-deletion-api-host"><rect x="509.0" y="47.5" width="627.0" height="241.0" rx="4.0" fill="#f8fafc" stroke="#94a3b8" stroke-width="1.0"/><text x="517.0" y="63.5" fill="#374151" font-size="12.0">Profile service and account deletion process</text></g><g data-dediren-group-id="account-deletion-data"><rect x="1456.0" y="12.0" width="241.0" height="512.0" rx="4.0" fill="#f8fafc" stroke="#94a3b8" stroke-width="1.0"/><text x="1464.0" y="28.0" fill="#374151" font-size="12.0">Deleted-account data effects</text></g><g data-dediren-edge-id="account-deletion-ui-serves-process"><defs><marker id="marker-end-account-deletion-ui-serves-process" data-dediren-edge-marker-end="open_arrow" markerWidth="9" markerHeight="9" refX="8" refY="4.5" orient="auto" markerUnits="strokeWidth"><path d="M 1 1 L 8 4.5 L 1 8" fill="none" stroke="#2563eb" stroke-width="1.3" stroke-linecap="round" stroke-linejoin="round"/></marker></defs><path d="M 213.0 103.5 L 285.0 103.5 L 477.0 103.5 L 629.5 103.5 L 806.0 103.5 L 862.0 103.5 Q 870.0 103.5 870.0 111.5 L 870.0 183.5 Q 870.0 191.5 878.0 191.5 L 934.0 191.5" fill="none" stroke="#2563eb" stroke-width="1.5" stroke-linecap="round" stroke-linejoin="round" marker-end="url(#marker-end-account-deletion-ui-serves-process)"/><text x="306.1" y="95.1" text-anchor="middle" fill="#1e3a8a" stroke="#ffffff" stroke-width="4" stroke-linejoin="round" paint-order="stroke">delete UI</text></g><g data-dediren-edge-id="raider-service-serves-account-deletion"><defs><marker id="marker-end-raider-service-serves-account-deletion" data-dediren-edge-marker-end="open_arrow" markerWidth="9" markerHeight="9" refX="8" refY="4.5" orient="auto" markerUnits="strokeWidth"><path d="M 1 1 L 8 4.5 L 1 8" fill="none" stroke="#2563eb" stroke-width="1.3" stroke-linecap="round" stroke-linejoin="round"/></marker></defs><path d="M 710.0 208.5 L 934.0 208.5" fill="none" stroke="#2563eb" stroke-width="1.5" stroke-linecap="round" stroke-linejoin="round" marker-end="url(#marker-end-raider-service-serves-account-deletion)"/><text x="822.0" y="218.1" text-anchor="middle" fill="#1e3a8a" stroke="#ffffff" stroke-width="4" stroke-linejoin="round" paint-order="stroke">delete account</text></g><g data-dediren-edge-id="account-deletion-accesses-runs"><defs><marker id="marker-end-account-deletion-accesses-runs" data-dediren-edge-marker-end="open_arrow" markerWidth="9" markerHeight="9" refX="8" refY="4.5" orient="auto" markerUnits="strokeWidth"><path d="M 1 1 L 8 4.5 L 1 8" fill="none" stroke="#15803d" stroke-width="1.3" stroke-linecap="round" stroke-linejoin="round"/></marker></defs><path d="M 1096.0 200.0 L 1168.0 200.0 L 1224.0 200.0 Q 1232.0 200.0 1232.0 208.0 L 1232.0 260.0 Q 1232.0 268.0 1240.0 268.0 L 1424.0 268.0 L 1496.0 268.0" fill="none" stroke="#15803d" stroke-width="1.5" stroke-linecap="round" stroke-linejoin="round" stroke-dasharray="8 5" marker-end="url(#marker-end-account-deletion-accesses-runs)"/><text x="1389.9" y="259.6" text-anchor="middle" fill="#166534" stroke="#ffffff" stroke-width="4" stroke-linejoin="round" paint-order="stroke">scrub raider</text></g><g data-dediren-edge-id="account-deletion-accesses-raiders"><defs><marker id="marker-end-account-deletion-accesses-raiders" data-dediren-edge-marker-end="open_arrow" markerWidth="9" markerHeight="9" refX="8" refY="4.5" orient="auto" markerUnits="strokeWidth"><path d="M 1 1 L 8 4.5 L 1 8" fill="none" stroke="#15803d" stroke-width="1.3" stroke-linecap="round" stroke-linejoin="round"/></marker></defs><path d="M 1096.0 200.0 L 1168.0 200.0 L 1224.0 200.0 Q 1232.0 200.0 1232.0 208.0 L 1232.0 328.0 Q 1232.0 336.0 1240.0 336.0 L 1352.0 336.0 Q 1360.0 336.0 1360.0 344.0 L 1360.0 436.0 Q 1360.0 444.0 1368.0 444.0 L 1424.0 444.0 L 1496.0 444.0" fill="none" stroke="#15803d" stroke-width="1.5" stroke-linecap="round" stroke-linejoin="round" stroke-dasharray="8 5" marker-end="url(#marker-end-account-deletion-accesses-raiders)"/><text x="1385.6" y="435.6" text-anchor="middle" fill="#166534" stroke="#ffffff" stroke-width="4" stroke-linejoin="round" paint-order="stroke">delete raider</text></g><g data-dediren-edge-id="account-deletion-accesses-idempotency"><defs><marker id="marker-end-account-deletion-accesses-idempotency" data-dediren-edge-marker-end="open_arrow" markerWidth="9" markerHeight="9" refX="8" refY="4.5" orient="auto" markerUnits="strokeWidth"><path d="M 1 1 L 8 4.5 L 1 8" fill="none" stroke="#15803d" stroke-width="1.3" stroke-linecap="round" stroke-linejoin="round"/></marker></defs><path d="M 1096.0 200.0 L 1168.0 200.0 L 1352.0 200.0 Q 1360.0 200.0 1360.0 192.0 L 1360.0 100.0 Q 1360.0 92.0 1368.0 92.0 L 1424.0 92.0 L 1496.0 92.0" fill="none" stroke="#15803d" stroke-width="1.5" stroke-linecap="round" stroke-linejoin="round" stroke-dasharray="8 5" marker-end="url(#marker-end-account-deletion-accesses-idempotency)"/><text x="1363.9" y="83.6" text-anchor="middle" fill="#166534" stroke="#ffffff" stroke-width="4" stroke-linejoin="round" paint-order="stroke">purge replay cache</text></g><g data-dediren-node-id="account-deletion-ui-entry"><rect data-dediren-node-shape="archimate_rectangle" x="52.0" y="63.5" width="160.0" height="80.0" rx="0" fill="#e8f3ff" stroke="#2563eb" stroke-width="1.5"/><g data-dediren-node-decorator="archimate_application_component" data-dediren-icon-kind="component" data-dediren-icon-size="22"><rect x="188.0" y="72.5" width="18.0" height="15.8" rx="1.5" fill="#e8f3ff" stroke="#2563eb" stroke-width="1.5"/><rect x="184.0" y="75.1" width="7.9" height="5.7" rx="1.2" fill="#e8f3ff" stroke="#2563eb" stroke-width="1.5"/><rect x="184.0" y="82.2" width="7.9" height="5.7" rx="1.2" fill="#e8f3ff" stroke="#2563eb" stroke-width="1.5"/></g><text x="132.0" y="95.5" text-anchor="middle" dominant-baseline="middle" fill="#172554" font-size="14.0"><tspan x="132.0" dy="0">Account deletion</tspan><tspan x="132.0" dy="16.0">UI</tspan></text></g><g data-dediren-node-id="account-deletion-process"><rect data-dediren-node-shape="archimate_rectangle" x="935.0" y="160.0" width="160.0" height="80.0" rx="4.0" fill="#f8fafc" stroke="#334155" stroke-width="1.5"/><text x="1015.0" y="200.0" text-anchor="middle" dominant-baseline="middle" fill="#0f172a" font-size="14.0">Delete account</text></g><g data-dediren-node-id="raider-profile-service"><rect data-dediren-node-shape="archimate_rounded_rectangle" x="549.0" y="168.5" width="160.0" height="80.0" rx="4.0" fill="#e8f3ff" stroke="#2563eb" stroke-width="1.5"/><g data-dediren-node-decorator="archimate_application_service" data-dediren-icon-kind="service" data-dediren-icon-size="22"><rect x="681.0" y="177.5" width="22.0" height="13.6" rx="4.0" fill="#e8f3ff" stroke="#2563eb" stroke-width="1.5"/></g><text x="629.0" y="200.4" text-anchor="middle" dominant-baseline="middle" fill="#172554" font-size="14.0"><tspan x="629.0" dy="0">Raider profile</tspan><tspan x="629.0" dy="16.0">service</tspan></text></g><g data-dediren-node-id="cosmos-runs"><rect data-dediren-node-shape="archimate_rectangle" x="1497.0" y="228.0" width="160.0" height="80.0" rx="0" fill="#f7fee7" stroke="#65a30d" stroke-width="1.5"/><g data-dediren-node-decorator="archimate_artifact" data-dediren-icon-kind="artifact" data-dediren-icon-size="22"><path data-dediren-icon-part="artifact-document" d="M 1631.2 236.0 L 1641.8 236.0 L 1647.9 242.2 L 1647.9 255.8 L 1631.2 255.8 Z M 1641.8 236.0 L 1641.8 242.2 L 1647.9 242.2" fill="#f7fee7" stroke="#65a30d" stroke-width="1.5"/></g><text x="1577.0" y="268.0" text-anchor="middle" dominant-baseline="middle" fill="#365314" font-size="14.0">runs container</text></g><g data-dediren-node-id="cosmos-raiders"><rect data-dediren-node-shape="archimate_rectangle" x="1497.0" y="404.0" width="160.0" height="80.0" rx="0" fill="#f7fee7" stroke="#65a30d" stroke-width="1.5"/><g data-dediren-node-decorator="archimate_artifact" data-dediren-icon-kind="artifact" data-dediren-icon-size="22"><path data-dediren-icon-part="artifact-document" d="M 1631.2 412.0 L 1641.8 412.0 L 1647.9 418.2 L 1647.9 431.8 L 1631.2 431.8 Z M 1641.8 412.0 L 1641.8 418.2 L 1647.9 418.2" fill="#f7fee7" stroke="#65a30d" stroke-width="1.5"/></g><text x="1577.0" y="435.9" text-anchor="middle" dominant-baseline="middle" fill="#365314" font-size="14.0"><tspan x="1577.0" dy="0">raiders</tspan><tspan x="1577.0" dy="16.0">container</tspan></text></g><g data-dediren-node-id="cosmos-idempotency"><rect data-dediren-node-shape="archimate_rectangle" x="1497.0" y="52.0" width="160.0" height="80.0" rx="0" fill="#f7fee7" stroke="#65a30d" stroke-width="1.5"/><g data-dediren-node-decorator="archimate_artifact" data-dediren-icon-kind="artifact" data-dediren-icon-size="22"><path data-dediren-icon-part="artifact-document" d="M 1631.2 60.0 L 1641.8 60.0 L 1647.9 66.2 L 1647.9 79.8 L 1631.2 79.8 Z M 1641.8 60.0 L 1641.8 66.2 L 1647.9 66.2" fill="#f7fee7" stroke="#65a30d" stroke-width="1.5"/></g><text x="1577.0" y="84.0" text-anchor="middle" dominant-baseline="middle" fill="#365314" font-size="14.0"><tspan x="1577.0" dy="0">idempotency</tspan><tspan x="1577.0" dy="16.0">container</tspan></text></g></g></svg>
