<svg xmlns="http://www.w3.org/2000/svg" width="3469" height="3536" viewBox="-9.0 52.0 3469.0 3536.0"><rect x="-9.0" y="52.0" width="3469.0" height="3536.0" fill="#ffffff"/><style>g.dediren-edge-highlighted &gt; path{stroke:#1f6feb;stroke-width:3;}</style><g font-family="Inter, Arial, sans-serif" font-size="14"><g data-dediren-group-id="api-surface"><rect x="355.0" y="2891.0" width="618.0" height="289.0" rx="4" fill="#f8fafc" stroke="#94a3b8" stroke-width="1"/><text x="363.0" y="2907.0" fill="#374151" font-size="12">API surface</text></g><g data-dediren-group-id="inbound-request-pipeline"><rect x="1493.0" y="300.0" width="558.0" height="2207.0" rx="4" fill="#f8fafc" stroke="#94a3b8" stroke-width="1"/><text x="1501.0" y="316.0" fill="#374151" font-size="12">Inbound request pipeline (ordered)</text></g><g data-dediren-group-id="outbound-blizzard-gateway"><rect x="79.0" y="2208.0" width="1200.0" height="299.0" rx="4" fill="#f8fafc" stroke="#94a3b8" stroke-width="1"/><text x="87.0" y="2224.0" fill="#374151" font-size="12">Outbound Blizzard gateway</text></g><g data-dediren-edge-id="api-performs-request-pipeline" data-dediren-edge-source="lfm-api" data-dediren-edge-target="api-request-pipeline"><marker id="marker-end-api-performs-request-pipeline" data-dediren-edge-marker-end="filled_circle" markerWidth="10" markerHeight="10" refX="5" refY="5" orient="auto"><circle cx="5" cy="5" r="3.5" fill="#64748b" stroke="#64748b" stroke-width="1"/></marker><path d="M 587.8 3012.0 L 587.8 3068.4 Q 587.8 3076.0 595.4 3076.0 L 595.4 3076.0 Q 603.0 3076.0 603.0 3083.6 L 603.0 3212.0 L 603.0 3556.0 Q 603.0 3564.0 611.0 3564.0 L 1410.0 3564.0 Q 1418.0 3564.0 1418.0 3556.0 L 1418.0 3436.0 L 1418.0 3340.0 L 1418.0 3035.5 L 1418.0 2667.0 L 1418.0 1403.5 L 1418.0 140.0 L 1418.0 84.0 Q 1418.0 76.0 1426.0 76.0 L 1901.2 76.0 Q 1909.2 76.0 1909.2 84.0 L 1909.2 268.0 L 1909.2 468.0" fill="none" stroke="#64748b" stroke-width="1.5" stroke-linecap="round" stroke-linejoin="round" marker-end="url(#marker-end-api-performs-request-pipeline)"/><text x="595.4" y="3094.0" text-anchor="middle" fill="none" font-size="15.4" font-weight="600" stroke="#ffffff" stroke-width="2">performs</text><text x="595.4" y="3094.0" text-anchor="middle" fill="#334155" font-size="15.4" font-weight="600">performs</text></g><g data-dediren-edge-id="api-performs-blizzard-rate-limiting" data-dediren-edge-source="lfm-api" data-dediren-edge-target="blizzard-rate-limiting"><marker id="marker-end-api-performs-blizzard-rate-limiting" data-dediren-edge-marker-end="filled_circle" markerWidth="10" markerHeight="10" refX="5" refY="5" orient="auto"><circle cx="5" cy="5" r="3.5" fill="#64748b" stroke="#64748b" stroke-width="1"/></marker><path d="M 555.0 3012.0 L 555.0 3212.0 L 555.0 3268.0 Q 555.0 3276.0 547.0 3276.0 L 23.0 3276.0 Q 15.0 3276.0 15.0 3268.0 L 15.0 3035.5 L 15.0 1403.5 L 15.0 212.0 Q 15.0 204.0 23.0 204.0 L 777.2 204.0 Q 785.2 204.0 785.2 212.0 L 785.2 2176.0 L 785.2 2376.0" fill="none" stroke="#64748b" stroke-width="1.5" stroke-linecap="round" stroke-linejoin="round" marker-end="url(#marker-end-api-performs-blizzard-rate-limiting)"/><text x="285.0" y="3266.0" text-anchor="middle" fill="none" font-size="15.4" font-weight="600" stroke="#ffffff" stroke-width="2">performs</text><text x="285.0" y="3266.0" text-anchor="middle" fill="#334155" font-size="15.4" font-weight="600">performs</text></g><g data-dediren-edge-id="request-pipeline-serves-rest-api" data-dediren-edge-source="api-request-pipeline" data-dediren-edge-target="rest-api"><marker id="marker-end-request-pipeline-serves-rest-api" data-dediren-edge-marker-end="open_arrow" markerWidth="10" markerHeight="10" refX="5" refY="5" orient="auto"><path d="M 1 1 L 9 5 L 1 9" fill="none" stroke="#2563eb" stroke-width="1.5"/></marker><g data-dediren-line-jump-masks="request-pipeline-serves-rest-api"><path d="M 1903.2 404.0 Q 1909.2 398.0 1915.2 404.0" fill="none" stroke="#ffffff" stroke-width="6"/></g><path d="M 1952.8 468.0 L 1952.8 412.0 Q 1952.8 404.0 1944.8 404.0 L 1915.2 404.0 Q 1909.2 398.0 1903.2 404.0 L 1795.0 404.0 Q 1787.0 404.0 1787.0 412.0 L 1787.0 508.5 L 1787.0 645.0 L 1787.0 782.0 L 1787.0 919.0 L 1787.0 1056.0 L 1787.0 1193.0 L 1787.0 1330.0 L 1787.0 1467.0 L 1787.0 1604.0 L 1787.0 1741.0 L 1787.0 1878.0 L 1787.0 2015.0 L 1787.0 2152.0 L 1787.0 2289.0 L 1787.0 2426.0 L 3436.0 1072.0 L 3340.0 1072.0 L 2803.0 1072.0 Q 2795.0 1072.0 2795.0 1064.0 L 2795.0 699.0 L 699.0 2859.0 L 699.0 2971.5 L 699.0 3068.0 Q 699.0 3076.0 707.0 3076.0 L 840.0 3076.0 Q 848.0 3076.0 848.0 3068.0 L 848.0 3012.0" fill="none" stroke="#2563eb" stroke-width="1.5" stroke-linecap="round" stroke-linejoin="round" marker-end="url(#marker-end-request-pipeline-serves-rest-api)"/><text x="1869.9" y="422.0" text-anchor="middle" fill="none" font-size="15.4" font-weight="600" stroke="#ffffff" stroke-width="2">guards</text><text x="1869.9" y="422.0" text-anchor="middle" fill="#1e3a8a" font-size="15.4" font-weight="600">guards</text></g><g data-dediren-edge-id="cors-triggers-security-headers" data-dediren-edge-source="mw-cors" data-dediren-edge-target="mw-security-headers"><marker id="marker-end-cors-triggers-security-headers" data-dediren-edge-marker-end="filled_arrow" markerWidth="10" markerHeight="10" refX="5" refY="5" orient="auto"><path d="M 1 1 L 9 5 L 1 9 Z" fill="#b45309" stroke="#b45309" stroke-width="1"/></marker><path d="M 1628.0 549.0 L 1628.0 741.0" fill="none" stroke="#b45309" stroke-width="1.5" stroke-linecap="round" stroke-linejoin="round" marker-end="url(#marker-end-cors-triggers-security-headers)"/><text x="1622.0" y="645.0" text-anchor="end" fill="none" font-size="15.4" font-weight="600" stroke="#ffffff" stroke-width="2">then</text><text x="1622.0" y="645.0" text-anchor="end" fill="#92400e" font-size="15.4" font-weight="600">then</text></g><g data-dediren-edge-id="security-headers-triggers-request-size-limit" data-dediren-edge-source="mw-security-headers" data-dediren-edge-target="mw-request-size-limit"><marker id="marker-end-security-headers-triggers-request-size-limit" data-dediren-edge-marker-end="filled_arrow" markerWidth="10" markerHeight="10" refX="5" refY="5" orient="auto"><path d="M 1 1 L 9 5 L 1 9 Z" fill="#b45309" stroke="#b45309" stroke-width="1"/></marker><path d="M 1628.0 823.0 L 1628.0 1015.0" fill="none" stroke="#b45309" stroke-width="1.5" stroke-linecap="round" stroke-linejoin="round" marker-end="url(#marker-end-security-headers-triggers-request-size-limit)"/><text x="1622.0" y="919.0" text-anchor="end" fill="none" font-size="15.4" font-weight="600" stroke="#ffffff" stroke-width="2">then</text><text x="1622.0" y="919.0" text-anchor="end" fill="#92400e" font-size="15.4" font-weight="600">then</text></g><g data-dediren-edge-id="request-size-limit-triggers-rate-limit" data-dediren-edge-source="mw-request-size-limit" data-dediren-edge-target="mw-rate-limit"><marker id="marker-end-request-size-limit-triggers-rate-limit" data-dediren-edge-marker-end="filled_arrow" markerWidth="10" markerHeight="10" refX="5" refY="5" orient="auto"><path d="M 1 1 L 9 5 L 1 9 Z" fill="#b45309" stroke="#b45309" stroke-width="1"/></marker><path d="M 1628.0 1097.0 L 1628.0 1289.0" fill="none" stroke="#b45309" stroke-width="1.5" stroke-linecap="round" stroke-linejoin="round" marker-end="url(#marker-end-request-size-limit-triggers-rate-limit)"/><text x="1622.0" y="1193.0" text-anchor="end" fill="none" font-size="15.4" font-weight="600" stroke="#ffffff" stroke-width="2">then</text><text x="1622.0" y="1193.0" text-anchor="end" fill="#92400e" font-size="15.4" font-weight="600">then</text></g><g data-dediren-edge-id="rate-limit-triggers-audit" data-dediren-edge-source="mw-rate-limit" data-dediren-edge-target="mw-audit"><marker id="marker-end-rate-limit-triggers-audit" data-dediren-edge-marker-end="filled_arrow" markerWidth="10" markerHeight="10" refX="5" refY="5" orient="auto"><path d="M 1 1 L 9 5 L 1 9 Z" fill="#b45309" stroke="#b45309" stroke-width="1"/></marker><path d="M 1628.0 1371.0 L 1628.0 1563.0" fill="none" stroke="#b45309" stroke-width="1.5" stroke-linecap="round" stroke-linejoin="round" marker-end="url(#marker-end-rate-limit-triggers-audit)"/><text x="1622.0" y="1467.0" text-anchor="end" fill="none" font-size="15.4" font-weight="600" stroke="#ffffff" stroke-width="2">then</text><text x="1622.0" y="1467.0" text-anchor="end" fill="#92400e" font-size="15.4" font-weight="600">then</text></g><g data-dediren-edge-id="audit-triggers-auth" data-dediren-edge-source="mw-audit" data-dediren-edge-target="mw-auth"><marker id="marker-end-audit-triggers-auth" data-dediren-edge-marker-end="filled_arrow" markerWidth="10" markerHeight="10" refX="5" refY="5" orient="auto"><path d="M 1 1 L 9 5 L 1 9 Z" fill="#b45309" stroke="#b45309" stroke-width="1"/></marker><path d="M 1628.0 1645.0 L 1628.0 1837.0" fill="none" stroke="#b45309" stroke-width="1.5" stroke-linecap="round" stroke-linejoin="round" marker-end="url(#marker-end-audit-triggers-auth)"/><text x="1622.0" y="1741.0" text-anchor="end" fill="none" font-size="15.4" font-weight="600" stroke="#ffffff" stroke-width="2">then</text><text x="1622.0" y="1741.0" text-anchor="end" fill="#92400e" font-size="15.4" font-weight="600">then</text></g><g data-dediren-edge-id="auth-triggers-auth-policy" data-dediren-edge-source="mw-auth" data-dediren-edge-target="mw-auth-policy"><marker id="marker-end-auth-triggers-auth-policy" data-dediren-edge-marker-end="filled_arrow" markerWidth="10" markerHeight="10" refX="5" refY="5" orient="auto"><path d="M 1 1 L 9 5 L 1 9 Z" fill="#b45309" stroke="#b45309" stroke-width="1"/></marker><path d="M 1628.0 1919.0 L 1628.0 2111.0" fill="none" stroke="#b45309" stroke-width="1.5" stroke-linecap="round" stroke-linejoin="round" marker-end="url(#marker-end-auth-triggers-auth-policy)"/><text x="1622.0" y="2015.0" text-anchor="end" fill="none" font-size="15.4" font-weight="600" stroke="#ffffff" stroke-width="2">then</text><text x="1622.0" y="2015.0" text-anchor="end" fill="#92400e" font-size="15.4" font-weight="600">then</text></g><g data-dediren-edge-id="auth-policy-triggers-idempotency" data-dediren-edge-source="mw-auth-policy" data-dediren-edge-target="mw-idempotency"><marker id="marker-end-auth-policy-triggers-idempotency" data-dediren-edge-marker-end="filled_arrow" markerWidth="10" markerHeight="10" refX="5" refY="5" orient="auto"><path d="M 1 1 L 9 5 L 1 9 Z" fill="#b45309" stroke="#b45309" stroke-width="1"/></marker><path d="M 1628.0 2193.0 L 1628.0 2385.0" fill="none" stroke="#b45309" stroke-width="1.5" stroke-linecap="round" stroke-linejoin="round" marker-end="url(#marker-end-auth-policy-triggers-idempotency)"/><text x="1622.0" y="2289.0" text-anchor="end" fill="none" font-size="15.4" font-weight="600" stroke="#ffffff" stroke-width="2">then</text><text x="1622.0" y="2289.0" text-anchor="end" fill="#92400e" font-size="15.4" font-weight="600">then</text></g><g data-dediren-edge-id="idempotency-accesses-idempotency-store" data-dediren-edge-source="mw-idempotency" data-dediren-edge-target="cosmos-idempotency"><marker id="marker-end-idempotency-accesses-idempotency-store" data-dediren-edge-marker-end="open_arrow" markerWidth="10" markerHeight="10" refX="5" refY="5" orient="auto"><path d="M 1 1 L 9 5 L 1 9" fill="none" stroke="#15803d" stroke-width="1.5"/></marker><path d="M 1628.0 2467.0 L 1628.0 2539.0 L 1628.0 2890.0" fill="none" stroke="#15803d" stroke-width="1.5" stroke-linecap="round" stroke-linejoin="round" stroke-dasharray="8 5" marker-end="url(#marker-end-idempotency-accesses-idempotency-store)"/><text x="1622.0" y="2678.5" text-anchor="end" fill="none" font-size="15.4" font-weight="600" stroke="#ffffff" stroke-width="2">reads/writes</text><text x="1622.0" y="2678.5" text-anchor="end" fill="#166534" font-size="15.4" font-weight="600">reads/writes</text></g><g data-dediren-edge-id="blizzard-rate-limiting-serves-api" data-dediren-edge-source="blizzard-rate-limiting" data-dediren-edge-target="lfm-api"><marker id="marker-end-blizzard-rate-limiting-serves-api" data-dediren-edge-marker-end="open_arrow" markerWidth="10" markerHeight="10" refX="5" refY="5" orient="auto"><path d="M 1 1 L 9 5 L 1 9" fill="none" stroke="#2563eb" stroke-width="1.5"/></marker><path d="M 828.8 2376.0 L 828.8 2320.0 Q 828.8 2312.0 836.8 2312.0 L 943.0 2312.0 Q 951.0 2312.0 951.0 2320.0 L 951.0 2421.5 L 951.0 2539.0 L 951.0 2723.0 Q 951.0 2731.0 943.0 2731.0 L 419.0 2731.0 Q 411.0 2731.0 411.0 2739.0 L 411.0 2859.0 L 411.0 2971.5 L 411.0 3068.0 Q 411.0 3076.0 419.0 3076.0 L 514.3 3076.0 Q 522.3 3076.0 522.3 3068.0 L 522.3 3012.0" fill="none" stroke="#2563eb" stroke-width="1.5" stroke-linecap="round" stroke-linejoin="round" marker-end="url(#marker-end-blizzard-rate-limiting-serves-api)"/><text x="889.9" y="2330.0" text-anchor="middle" fill="none" font-size="15.4" font-weight="600" stroke="#ffffff" stroke-width="2">throttles outbound</text><text x="889.9" y="2330.0" text-anchor="middle" fill="#1e3a8a" font-size="15.4" font-weight="600">throttles outbound</text></g><g data-dediren-edge-id="battlenet-oauth-serves-api" data-dediren-edge-source="battlenet-oauth" data-dediren-edge-target="lfm-api"><marker id="marker-end-battlenet-oauth-serves-api" data-dediren-edge-marker-end="open_arrow" markerWidth="10" markerHeight="10" refX="5" refY="5" orient="auto"><path d="M 1 1 L 9 5 L 1 9" fill="none" stroke="#2563eb" stroke-width="1.5"/></marker><path d="M 1159.0 2386.0 L 1159.0 2320.0 Q 1159.0 2312.0 1151.0 2312.0 L 1023.0 2312.0 Q 1015.0 2312.0 1015.0 2320.0 L 1015.0 2421.5 L 1015.0 2539.0 L 1015.0 2601.0 Q 1015.0 2603.0 1017.0 2603.0 L 1017.0 2603.0 Q 1019.0 2603.0 1019.0 2605.0 L 1019.0 2723.0 Q 1019.0 2731.0 1011.0 2731.0 L 419.0 2731.0 Q 411.0 2731.0 411.0 2739.0 L 411.0 2859.0 L 411.0 2971.5 L 411.0 3068.0 Q 411.0 3076.0 419.0 3076.0 L 514.3 3076.0 Q 522.3 3076.0 522.3 3068.0 L 522.3 3012.0" fill="none" stroke="#2563eb" stroke-width="1.5" stroke-linecap="round" stroke-linejoin="round" marker-end="url(#marker-end-battlenet-oauth-serves-api)"/><text x="1087.0" y="2330.0" text-anchor="middle" fill="none" font-size="15.4" font-weight="600" stroke="#ffffff" stroke-width="2">OAuth</text><text x="1087.0" y="2330.0" text-anchor="middle" fill="#1e3a8a" font-size="15.4" font-weight="600">OAuth</text></g><g data-dediren-edge-id="profile-api-serves-api" data-dediren-edge-source="blizzard-profile-api" data-dediren-edge-target="lfm-api"><marker id="marker-end-profile-api-serves-api" data-dediren-edge-marker-end="open_arrow" markerWidth="10" markerHeight="10" refX="5" refY="5" orient="auto"><path d="M 1 1 L 9 5 L 1 9" fill="none" stroke="#2563eb" stroke-width="1.5"/></marker><path d="M 199.0 2386.0 L 199.0 2320.0 Q 199.0 2312.0 207.0 2312.0 L 335.0 2312.0 Q 343.0 2312.0 343.0 2320.0 L 343.0 2421.5 L 343.0 2539.0 L 343.0 2723.0 Q 343.0 2731.0 351.0 2731.0 L 403.0 2731.0 Q 411.0 2731.0 411.0 2739.0 L 411.0 2859.0 L 411.0 2971.5 L 411.0 3068.0 Q 411.0 3076.0 419.0 3076.0 L 514.3 3076.0 Q 522.3 3076.0 522.3 3068.0 L 522.3 3012.0" fill="none" stroke="#2563eb" stroke-width="1.5" stroke-linecap="round" stroke-linejoin="round" marker-end="url(#marker-end-profile-api-serves-api)"/><text x="271.0" y="2330.0" text-anchor="middle" fill="none" font-size="15.4" font-weight="600" stroke="#ffffff" stroke-width="2">profile data</text><text x="271.0" y="2330.0" text-anchor="middle" fill="#1e3a8a" font-size="15.4" font-weight="600">profile data</text></g><g data-dediren-edge-id="game-data-api-serves-api" data-dediren-edge-source="blizzard-game-data-api" data-dediren-edge-target="lfm-api"><marker id="marker-end-game-data-api-serves-api" data-dediren-edge-marker-end="open_arrow" markerWidth="10" markerHeight="10" refX="5" refY="5" orient="auto"><path d="M 1 1 L 9 5 L 1 9" fill="none" stroke="#2563eb" stroke-width="1.5"/></marker><path d="M 551.0 2386.0 L 551.0 2320.0 Q 551.0 2312.0 543.0 2312.0 L 415.0 2312.0 Q 407.0 2312.0 407.0 2320.0 L 407.0 2421.5 L 407.0 2539.0 L 407.0 2601.0 Q 407.0 2603.0 409.0 2603.0 L 409.0 2603.0 Q 411.0 2603.0 411.0 2605.0 L 411.0 2859.0 L 411.0 2971.5 L 411.0 3068.0 Q 411.0 3076.0 419.0 3076.0 L 514.3 3076.0 Q 522.3 3076.0 522.3 3068.0 L 522.3 3012.0" fill="none" stroke="#2563eb" stroke-width="1.5" stroke-linecap="round" stroke-linejoin="round" marker-end="url(#marker-end-game-data-api-serves-api)"/><text x="479.0" y="2330.0" text-anchor="middle" fill="none" font-size="15.4" font-weight="600" stroke="#ffffff" stroke-width="2">game data</text><text x="479.0" y="2330.0" text-anchor="middle" fill="#1e3a8a" font-size="15.4" font-weight="600">game data</text></g><g data-dediren-node-id="lfm-api"><rect data-dediren-node-shape="archimate_rectangle" x="475.0" y="2931.0" width="160.0" height="80.0" rx="0" fill="#e8f3ff" stroke="#2563eb" stroke-width="1.5"/><g data-dediren-node-decorator="archimate_application_component" data-dediren-icon-kind="component" data-dediren-icon-size="22"><rect x="611.0" y="2940.0" width="18.0" height="15.8" rx="1.5" fill="#e8f3ff" stroke="#2563eb" stroke-width="1.5"/><rect x="607.0" y="2942.6" width="7.9" height="5.7" rx="1.2" fill="#e8f3ff" stroke="#2563eb" stroke-width="1.5"/><rect x="607.0" y="2949.7" width="7.9" height="5.7" rx="1.2" fill="#e8f3ff" stroke="#2563eb" stroke-width="1.5"/></g><text x="555.0" y="2971.0" text-anchor="middle" dominant-baseline="middle" fill="#172554" font-size="14.0">Lfm.Api</text></g><g data-dediren-node-id="rest-api"><rect data-dediren-node-shape="archimate_rectangle" x="763.0" y="2931.0" width="170.0" height="80.0" rx="0" fill="#e8f3ff" stroke="#2563eb" stroke-width="1.5"/><g data-dediren-node-decorator="archimate_application_interface" data-dediren-icon-kind="interface" data-dediren-icon-size="22"><ellipse cx="920.8" cy="2946.2" rx="4.0" ry="4.0" fill="#e8f3ff" stroke="#2563eb" stroke-width="1.5"/><path d="M 907.2 2946.2 L 916.9 2946.2" fill="none" stroke="#2563eb" stroke-width="1.5"/></g><text x="848.0" y="2963.0" text-anchor="middle" dominant-baseline="middle" fill="#172554" font-size="14.0"><tspan x="848.0" dy="0">REST API</tspan><tspan x="848.0" dy="16.0">(/api/v1/*)</tspan></text></g><g data-dediren-node-id="api-request-pipeline"><rect data-dediren-node-shape="archimate_rectangle" x="1851.0" y="469.0" width="160.0" height="80.0" rx="4" fill="#f8fafc" stroke="#334155" stroke-width="1.5"/><text x="1931.0" y="501.0" text-anchor="middle" dominant-baseline="middle" fill="#0f172a" font-size="14.0"><tspan x="1931.0" dy="0">API request</tspan><tspan x="1931.0" dy="16.0">pipeline</tspan></text></g><g data-dediren-node-id="mw-cors"><rect data-dediren-node-shape="archimate_rectangle" x="1548.0" y="468.0" width="160.0" height="80.0" rx="4" fill="#f8fafc" stroke="#334155" stroke-width="1.5"/><text x="1628.0" y="508.0" text-anchor="middle" dominant-baseline="middle" fill="#0f172a" font-size="14.0">CORS handling</text></g><g data-dediren-node-id="mw-security-headers"><rect data-dediren-node-shape="archimate_rectangle" x="1548.0" y="742.0" width="160.0" height="80.0" rx="4" fill="#f8fafc" stroke="#334155" stroke-width="1.5"/><text x="1628.0" y="782.0" text-anchor="middle" dominant-baseline="middle" fill="#0f172a" font-size="14.0">Security headers</text></g><g data-dediren-node-id="mw-request-size-limit"><rect data-dediren-node-shape="archimate_rectangle" x="1548.0" y="1016.0" width="160.0" height="80.0" rx="4" fill="#f8fafc" stroke="#334155" stroke-width="1.5"/><text x="1628.0" y="1048.0" text-anchor="middle" dominant-baseline="middle" fill="#0f172a" font-size="14.0"><tspan x="1628.0" dy="0">Request size</tspan><tspan x="1628.0" dy="16.0">limiting</tspan></text></g><g data-dediren-node-id="mw-rate-limit"><rect data-dediren-node-shape="archimate_rectangle" x="1548.0" y="1290.0" width="160.0" height="80.0" rx="4" fill="#f8fafc" stroke="#334155" stroke-width="1.5"/><text x="1628.0" y="1322.0" text-anchor="middle" dominant-baseline="middle" fill="#0f172a" font-size="14.0"><tspan x="1628.0" dy="0">Inbound rate</tspan><tspan x="1628.0" dy="16.0">limiting</tspan></text></g><g data-dediren-node-id="mw-audit"><rect data-dediren-node-shape="archimate_rectangle" x="1548.0" y="1564.0" width="160.0" height="80.0" rx="4" fill="#f8fafc" stroke="#334155" stroke-width="1.5"/><text x="1628.0" y="1596.0" text-anchor="middle" dominant-baseline="middle" fill="#0f172a" font-size="14.0"><tspan x="1628.0" dy="0">Request audit</tspan><tspan x="1628.0" dy="16.0">logging</tspan></text></g><g data-dediren-node-id="mw-auth"><rect data-dediren-node-shape="archimate_rectangle" x="1533.0" y="1838.0" width="190.0" height="80.0" rx="4" fill="#f8fafc" stroke="#334155" stroke-width="1.5"/><text x="1628.0" y="1878.0" text-anchor="middle" dominant-baseline="middle" fill="#0f172a" font-size="14.0">Authentication</text></g><g data-dediren-node-id="mw-auth-policy"><rect data-dediren-node-shape="archimate_rectangle" x="1533.0" y="2112.0" width="190.0" height="80.0" rx="4" fill="#f8fafc" stroke="#334155" stroke-width="1.5"/><text x="1628.0" y="2144.0" text-anchor="middle" dominant-baseline="middle" fill="#0f172a" font-size="14.0"><tspan x="1628.0" dy="0">Authorization</tspan><tspan x="1628.0" dy="16.0">policy</tspan></text></g><g data-dediren-node-id="mw-idempotency"><rect data-dediren-node-shape="archimate_rectangle" x="1548.0" y="2386.0" width="160.0" height="80.0" rx="4" fill="#f8fafc" stroke="#334155" stroke-width="1.5"/><text x="1628.0" y="2418.0" text-anchor="middle" dominant-baseline="middle" fill="#0f172a" font-size="14.0"><tspan x="1628.0" dy="0">Idempotent</tspan><tspan x="1628.0" dy="16.0">replay</tspan></text></g><g data-dediren-node-id="blizzard-rate-limiting"><rect data-dediren-node-shape="archimate_rectangle" x="727.0" y="2377.0" width="160.0" height="90.0" rx="4" fill="#f8fafc" stroke="#334155" stroke-width="1.5"/><text x="807.0" y="2414.0" text-anchor="middle" dominant-baseline="middle" fill="#0f172a" font-size="14.0"><tspan x="807.0" dy="0">Blizzard rate</tspan><tspan x="807.0" dy="16.0">limiting</tspan></text></g><g data-dediren-node-id="battlenet-oauth"><rect data-dediren-node-shape="archimate_rounded_rectangle" x="1079.0" y="2387.0" width="160.0" height="80.0" rx="4" fill="#e8f3ff" stroke="#2563eb" stroke-width="1.5"/><g data-dediren-node-decorator="archimate_application_service" data-dediren-icon-kind="service" data-dediren-icon-size="22"><rect x="1211.0" y="2396.0" width="22.0" height="13.6" rx="4.0" fill="#e8f3ff" stroke="#2563eb" stroke-width="1.5"/></g><text x="1159.0" y="2419.0" text-anchor="middle" dominant-baseline="middle" fill="#172554" font-size="14.0"><tspan x="1159.0" dy="0">Battle.net</tspan><tspan x="1159.0" dy="16.0">OAuth 2.0</tspan></text></g><g data-dediren-node-id="blizzard-profile-api"><rect data-dediren-node-shape="archimate_rounded_rectangle" x="119.0" y="2387.0" width="160.0" height="80.0" rx="4" fill="#e8f3ff" stroke="#2563eb" stroke-width="1.5"/><g data-dediren-node-decorator="archimate_application_service" data-dediren-icon-kind="service" data-dediren-icon-size="22"><rect x="251.0" y="2396.0" width="22.0" height="13.6" rx="4.0" fill="#e8f3ff" stroke="#2563eb" stroke-width="1.5"/></g><text x="199.0" y="2410.9" text-anchor="middle" dominant-baseline="middle" fill="#172554" font-size="14.0"><tspan x="199.0" dy="0">WoW</tspan><tspan x="199.0" dy="16.0">Profile</tspan><tspan x="199.0" dy="16.0">API</tspan></text></g><g data-dediren-node-id="blizzard-game-data-api"><rect data-dediren-node-shape="archimate_rounded_rectangle" x="471.0" y="2387.0" width="160.0" height="80.0" rx="4" fill="#e8f3ff" stroke="#2563eb" stroke-width="1.5"/><g data-dediren-node-decorator="archimate_application_service" data-dediren-icon-kind="service" data-dediren-icon-size="22"><rect x="603.0" y="2396.0" width="22.0" height="13.6" rx="4.0" fill="#e8f3ff" stroke="#2563eb" stroke-width="1.5"/></g><text x="551.0" y="2419.0" text-anchor="middle" dominant-baseline="middle" fill="#172554" font-size="14.0"><tspan x="551.0" dy="0">WoW Game</tspan><tspan x="551.0" dy="16.0">Data API</tspan></text></g><g data-dediren-node-id="cosmos-idempotency"><rect data-dediren-node-shape="archimate_rectangle" x="1543.0" y="2891.0" width="170.0" height="80.0" rx="0" fill="#f7fee7" stroke="#65a30d" stroke-width="1.5"/><g data-dediren-node-decorator="archimate_artifact" data-dediren-icon-kind="artifact" data-dediren-icon-size="22"><path data-dediren-icon-part="artifact-document" d="M 1687.2 2899.0 L 1697.8 2899.0 L 1703.9 2905.2 L 1703.9 2918.8 L 1687.2 2918.8 Z M 1697.8 2899.0 L 1697.8 2905.2 L 1703.9 2905.2" fill="#f7fee7" stroke="#65a30d" stroke-width="1.5"/></g><text x="1628.0" y="2923.0" text-anchor="middle" dominant-baseline="middle" fill="#365314" font-size="14.0"><tspan x="1628.0" dy="0">idempotency</tspan><tspan x="1628.0" dy="16.0">container</tspan></text></g></g><script>//<![CDATA[
(function(){
var root=document.currentScript&&document.currentScript.closest?document.currentScript.closest('svg'):null;
if(!root){root=document.querySelector('svg');}
if(!root){return;}
var selected=null;
function clear(){var hl=root.querySelectorAll('.dediren-edge-highlighted');for(var i=0;i<hl.length;i++){hl[i].classList.remove('dediren-edge-highlighted');}selected=null;}
function select(id){clear();var edges=root.querySelectorAll('[data-dediren-edge-source]');for(var i=0;i<edges.length;i++){var e=edges[i];if(e.getAttribute('data-dediren-edge-source')===id||e.getAttribute('data-dediren-edge-target')===id){e.classList.add('dediren-edge-highlighted');}}selected=id;}
root.addEventListener('click',function(ev){var t=ev.target;var n=t.closest?t.closest('[data-dediren-node-id]'):null;if(n){var id=n.getAttribute('data-dediren-node-id');if(id===selected){clear();}else{select(id);}}else{clear();}});
document.addEventListener('keydown',function(ev){if(ev.key==='Escape'){clear();}});
})();
//]]></script></svg>

