<svg xmlns="http://www.w3.org/2000/svg" role="img" width="2719" height="1423" viewBox="-20 -52 2719 1454.5" data-arch-a11y="root" data-arch-a11y-viewbox="-20.0 -20.0 2719.0 1422.5"><title>WoW Reference Data - Service Realization</title>
<desc>Which components and services realize WoW reference data and refresh?</desc>
<text data-arch-a11y="visible-title" x="-12" y="-32" font-family="sans-serif" font-size="16" font-weight="bold">WoW Reference Data - Service Realization</text><rect x="-20.0" y="-20.0" width="2719.0" height="1422.5" fill="#ffffff"/><g font-family="Inter, &quot;Liberation Sans&quot;, &quot;Noto Sans&quot;, Arial, &quot;Helvetica Neue&quot;, &quot;Segoe UI&quot;, sans-serif" font-size="14"><g data-dediren-group-id="reference-consumption-ui"><rect x="2032.0" y="348.0" width="315.0" height="330.0" rx="8" fill="#f8fafc" stroke="#94a3b8" stroke-width="1"/><text x="2040.0" y="364.0" fill="#334155" font-size="12">Reference consumption UI</text></g><g data-dediren-group-id="reference-refresh-ui"><rect x="2032.0" y="12.0" width="305.0" height="240.0" rx="8" fill="#f8fafc" stroke="#94a3b8" stroke-width="1"/><text x="2040.0" y="28.0" fill="#334155" font-size="12">Reference refresh UI</text></g><g data-dediren-group-id="reference-api-realization"><rect x="605.0" y="140.0" width="915.0" height="830.0" rx="8" fill="#f8fafc" stroke="#94a3b8" stroke-width="1"/><text x="613.0" y="156.0" fill="#334155" font-size="12">Reference API realization</text></g><g data-dediren-group-id="reference-blob-store"><rect x="2032.0" y="774.0" width="635.0" height="596.5" rx="8" fill="#f8fafc" stroke="#94a3b8" stroke-width="1"/><text x="2040.0" y="790.0" fill="#334155" font-size="12">Reference and media blob store</text></g><g data-dediren-group-id="reference-refresh-external"><rect x="12.0" y="640.0" width="305.0" height="496.0" rx="8" fill="#f8fafc" stroke="#94a3b8" stroke-width="1"/><text x="20.0" y="656.0" fill="#334155" font-size="12">Reference and media dependencies</text></g><g data-dediren-edge-id="reference-service-serves-reference-ui"><marker id="marker-end-reference-service-serves-reference-ui" data-dediren-edge-marker-end="open_arrow" markerWidth="10" markerHeight="10" refX="5" refY="5" orient="auto"><path d="M 1 1 L 9 5 L 1 9" fill="none" stroke="#475569" stroke-width="1.5"/></marker><path d="M 1190.0 358.8 L 1134.0 358.8 Q 1126.0 358.8 1126.0 350.8 L 1126.0 268.0 Q 1126.0 260.0 1134.0 260.0 L 1271.0 260.0 L 1552.0 260.0 L 1608.0 260.0 Q 1616.0 260.0 1616.0 268.0 L 1616.0 396.0 Q 1616.0 404.0 1624.0 404.0 L 2000.0 404.0 L 2157.5 404.0 L 2299.0 404.0 Q 2307.0 404.0 2307.0 412.0 L 2307.0 494.8 Q 2307.0 502.8 2299.0 502.8 L 2243.0 502.8" fill="none" stroke="#475569" stroke-width="1.25" stroke-linecap="round" stroke-linejoin="round" marker-end="url(#marker-end-reference-service-serves-reference-ui)"/><text x="1158.0" y="292.8" text-anchor="middle" fill="none" font-size="15.4" font-weight="600" stroke="#ffffff" stroke-width="2">reference data</text><text x="1158.0" y="292.8" text-anchor="middle" fill="#374151" font-size="15.4" font-weight="600">reference data</text></g><g data-dediren-edge-id="reference-refresh-service-serves-ui"><marker id="marker-end-reference-refresh-service-serves-ui" data-dediren-edge-marker-end="open_arrow" markerWidth="10" markerHeight="10" refX="5" refY="5" orient="auto"><path d="M 1 1 L 9 5 L 1 9" fill="none" stroke="#475569" stroke-width="1.5"/></marker><path d="M 1190.0 576.8 L 1070.0 576.8 Q 1062.0 576.8 1062.0 568.8 L 1062.0 204.0 Q 1062.0 196.0 1070.0 196.0 L 1271.0 196.0 L 1552.0 196.0 L 2000.0 196.0 L 2152.5 196.0 L 2289.0 196.0 Q 2297.0 196.0 2297.0 188.0 L 2297.0 100.0 Q 2297.0 92.0 2289.0 92.0 L 2233.0 92.0" fill="none" stroke="#475569" stroke-width="1.25" stroke-linecap="round" stroke-linejoin="round" marker-end="url(#marker-end-reference-refresh-service-serves-ui)"/><text x="1126.0" y="454.8" text-anchor="middle" fill="none" font-size="15.4" font-weight="600" stroke="#ffffff" stroke-width="2">refresh stream</text><text x="1126.0" y="454.8" text-anchor="middle" fill="#374151" font-size="15.4" font-weight="600">refresh stream</text></g><g data-dediren-edge-id="api-realizes-reference-service"><marker id="marker-end-api-realizes-reference-service" data-dediren-edge-marker-end="hollow_triangle" markerWidth="10" markerHeight="10" refX="5" refY="5" orient="auto"><path d="M 1 1 L 9 5 L 1 9 Z" fill="#ffffff" stroke="#374151" stroke-width="1"/></marker><g data-dediren-line-jump-masks="api-realizes-reference-service"><path d="M 1056.0 379.2 Q 1062.0 373.2 1068.0 379.2" fill="none" stroke="#f8fafc" stroke-width="6"/></g><path d="M 806.0 379.2 L 1056.0 379.2 Q 1062.0 373.2 1068.0 379.2 L 1190.0 379.2" fill="none" stroke="#374151" stroke-width="1.5" stroke-linecap="round" stroke-linejoin="round" stroke-dasharray="8 5" marker-end="url(#marker-end-api-realizes-reference-service)"/><text x="998.0" y="397.2" text-anchor="middle" fill="none" font-size="15.4" font-weight="600" stroke="#ffffff" stroke-width="2">realizes</text><text x="998.0" y="397.2" text-anchor="middle" fill="#374151" font-size="15.4" font-weight="600">realizes</text></g><g data-dediren-edge-id="api-realizes-reference-refresh-service"><marker id="marker-end-api-realizes-reference-refresh-service" data-dediren-edge-marker-end="hollow_triangle" markerWidth="10" markerHeight="10" refX="5" refY="5" orient="auto"><path d="M 1 1 L 9 5 L 1 9 Z" fill="#ffffff" stroke="#374151" stroke-width="1"/></marker><path d="M 806.0 391.9 L 926.0 391.9 Q 934.0 391.9 934.0 399.9 L 934.0 589.2 Q 934.0 597.2 942.0 597.2 L 1190.0 597.2" fill="none" stroke="#374151" stroke-width="1.5" stroke-linecap="round" stroke-linejoin="round" stroke-dasharray="8 5" marker-end="url(#marker-end-api-realizes-reference-refresh-service)"/><text x="916.0" y="409.9" text-anchor="middle" fill="none" font-size="15.4" font-weight="600" stroke="#ffffff" stroke-width="2">realizes</text><text x="916.0" y="409.9" text-anchor="middle" fill="#374151" font-size="15.4" font-weight="600">realizes</text></g><g data-dediren-edge-id="api-realizes-media-cache-service"><marker id="marker-end-api-realizes-media-cache-service" data-dediren-edge-marker-end="hollow_triangle" markerWidth="10" markerHeight="10" refX="5" refY="5" orient="auto"><path d="M 1 1 L 9 5 L 1 9 Z" fill="#ffffff" stroke="#374151" stroke-width="1"/></marker><path d="M 806.0 404.7 L 862.0 404.7 Q 870.0 404.7 870.0 412.7 L 870.0 786.8 Q 870.0 794.8 878.0 794.8 L 1190.0 794.8" fill="none" stroke="#374151" stroke-width="1.5" stroke-linecap="round" stroke-linejoin="round" stroke-dasharray="8 5" marker-end="url(#marker-end-api-realizes-media-cache-service)"/><text x="838.0" y="450.7" text-anchor="middle" fill="none" font-size="15.4" font-weight="600" stroke="#ffffff" stroke-width="2">realizes</text><text x="838.0" y="450.7" text-anchor="middle" fill="#374151" font-size="15.4" font-weight="600">realizes</text></g><g data-dediren-edge-id="media-cache-service-serves-reference-ui"><marker id="marker-end-media-cache-service-serves-reference-ui" data-dediren-edge-marker-end="open_arrow" markerWidth="10" markerHeight="10" refX="5" refY="5" orient="auto"><path d="M 1 1 L 9 5 L 1 9" fill="none" stroke="#475569" stroke-width="1.5"/></marker><g data-dediren-line-jump-masks="media-cache-service-serves-reference-ui"><path d="M 1126.0 570.8 Q 1132.0 576.8 1126.0 582.8" fill="none" stroke="#f8fafc" stroke-width="6"/><path d="M 1126.0 591.2 Q 1132.0 597.2 1126.0 603.2" fill="none" stroke="#f8fafc" stroke-width="6"/><path d="M 1126.0 788.8 Q 1132.0 794.8 1126.0 800.8" fill="none" stroke="#f8fafc" stroke-width="6"/></g><path d="M 1190.0 815.2 L 1134.0 815.2 Q 1126.0 815.2 1126.0 807.2 L 1126.0 800.8 Q 1132.0 794.8 1126.0 788.8 L 1126.0 603.2 Q 1132.0 597.2 1126.0 591.2 L 1126.0 582.8 Q 1132.0 576.8 1126.0 570.8 L 1126.0 486.0 Q 1126.0 478.0 1134.0 478.0 L 1271.0 478.0 L 1552.0 478.0 L 1928.0 478.0 Q 1936.0 478.0 1936.0 486.0 L 1936.0 614.0 Q 1936.0 622.0 1944.0 622.0 L 2000.0 622.0 L 2157.5 622.0 L 2299.0 622.0 Q 2307.0 622.0 2307.0 614.0 L 2307.0 531.2 Q 2307.0 523.2 2299.0 523.2 L 2243.0 523.2" fill="none" stroke="#475569" stroke-width="1.25" stroke-linecap="round" stroke-linejoin="round" marker-end="url(#marker-end-media-cache-service-serves-reference-ui)"/><text x="1158.0" y="749.2" text-anchor="middle" fill="none" font-size="15.4" font-weight="600" stroke="#ffffff" stroke-width="2">reference images</text><text x="1158.0" y="749.2" text-anchor="middle" fill="#374151" font-size="15.4" font-weight="600">reference images</text></g><g data-dediren-edge-id="storage-composes-wow-reference"><path d="M 2173.5 895.0 L 2173.5 951.0 Q 2173.5 959.0 2181.5 959.0 L 2529.0 959.0 Q 2537.0 959.0 2537.0 967.0 L 2537.0 1023.0" fill="none" stroke="#475569" stroke-width="1.25" stroke-linecap="round" stroke-linejoin="round"/><text x="2355.3" y="977.0" text-anchor="middle" fill="none" font-size="15.4" font-weight="600" stroke="#ffffff" stroke-width="2">blob path</text><text x="2355.3" y="977.0" text-anchor="middle" fill="#374151" font-size="15.4" font-weight="600">blob path</text></g><g data-dediren-edge-id="storage-composes-wow-media-cache"><path d="M 2130.5 895.0 L 2130.5 1177.5 Q 2130.5 1185.5 2138.5 1185.5 L 2534.0 1185.5 Q 2542.0 1185.5 2542.0 1193.5 L 2542.0 1249.5" fill="none" stroke="#475569" stroke-width="1.25" stroke-linecap="round" stroke-linejoin="round"/><text x="2336.3" y="1203.5" text-anchor="middle" fill="none" font-size="15.4" font-weight="600" stroke="#ffffff" stroke-width="2">blob path</text><text x="2336.3" y="1203.5" text-anchor="middle" fill="#374151" font-size="15.4" font-weight="600">blob path</text></g><g data-dediren-edge-id="reference-service-accesses-wow-reference"><marker id="marker-end-reference-service-accesses-wow-reference" data-dediren-edge-marker-end="open_arrow" markerWidth="10" markerHeight="10" refX="5" refY="5" orient="auto"><path d="M 1 1 L 9 5 L 1 9" fill="none" stroke="#475569" stroke-width="1.5"/></marker><g data-dediren-line-jump-masks="reference-service-accesses-wow-reference"><path d="M 1416.0 472.0 Q 1422.0 478.0 1416.0 484.0" fill="none" stroke="#f8fafc" stroke-width="6"/><path d="M 2124.5 1055.5 Q 2130.5 1049.5 2136.5 1055.5" fill="none" stroke="#f8fafc" stroke-width="6"/></g><path d="M 1352.0 369.0 L 1408.0 369.0 Q 1416.0 369.0 1416.0 377.0 L 1416.0 472.0 Q 1422.0 478.0 1416.0 484.0 L 1416.0 518.0 Q 1416.0 526.0 1424.0 526.0 L 1552.0 526.0 L 1736.0 526.0 Q 1744.0 526.0 1744.0 534.0 L 1744.0 538.0 Q 1744.0 546.0 1752.0 546.0 L 1864.0 546.0 Q 1872.0 546.0 1872.0 554.0 L 1872.0 1047.5 Q 1872.0 1055.5 1880.0 1055.5 L 2000.0 1055.5 L 2124.5 1055.5 Q 2130.5 1049.5 2136.5 1055.5 L 2152.0 1055.5 L 2328.0 1055.5 L 2456.0 1055.5" fill="none" stroke="#475569" stroke-width="1.25" stroke-linecap="round" stroke-linejoin="round" stroke-dasharray="8 5" marker-end="url(#marker-end-reference-service-accesses-wow-reference)"/><text x="1398.0" y="387.0" text-anchor="middle" fill="none" font-size="15.4" font-weight="600" stroke="#ffffff" stroke-width="2">read blobs</text><text x="1398.0" y="387.0" text-anchor="middle" fill="#374151" font-size="15.4" font-weight="600">read blobs</text></g><g data-dediren-edge-id="reference-refresh-service-accesses-wow-reference"><marker id="marker-end-reference-refresh-service-accesses-wow-reference" data-dediren-edge-marker-end="open_arrow" markerWidth="10" markerHeight="10" refX="5" refY="5" orient="auto"><path d="M 1 1 L 9 5 L 1 9" fill="none" stroke="#475569" stroke-width="1.5"/></marker><g data-dediren-line-jump-masks="reference-refresh-service-accesses-wow-reference"><path d="M 2124.5 1120.5 Q 2130.5 1114.5 2136.5 1120.5" fill="none" stroke="#f8fafc" stroke-width="6"/></g><path d="M 1352.0 576.8 L 1552.0 576.8 L 1672.0 576.8 Q 1680.0 576.8 1680.0 584.8 L 1680.0 1112.5 Q 1680.0 1120.5 1688.0 1120.5 L 2000.0 1120.5 L 2124.5 1120.5 Q 2130.5 1114.5 2136.5 1120.5 L 2152.0 1120.5 L 2328.0 1120.5 L 2384.0 1120.5 Q 2392.0 1120.5 2392.0 1112.5 L 2392.0 1080.5 Q 2392.0 1072.5 2400.0 1072.5 L 2456.0 1072.5" fill="none" stroke="#475569" stroke-width="1.25" stroke-linecap="round" stroke-linejoin="round" stroke-dasharray="8 5" marker-end="url(#marker-end-reference-refresh-service-accesses-wow-reference)"/><text x="1452.0" y="566.8" text-anchor="middle" fill="none" font-size="15.4" font-weight="600" stroke="#ffffff" stroke-width="2">write blobs</text><text x="1452.0" y="566.8" text-anchor="middle" fill="#374151" font-size="15.4" font-weight="600">write blobs</text></g><g data-dediren-edge-id="media-cache-service-accesses-wow-media-cache"><marker id="marker-end-media-cache-service-accesses-wow-media-cache" data-dediren-edge-marker-end="open_arrow" markerWidth="10" markerHeight="10" refX="5" refY="5" orient="auto"><path d="M 1 1 L 9 5 L 1 9" fill="none" stroke="#475569" stroke-width="1.5"/></marker><path d="M 1352.0 794.8 L 1552.0 794.8 L 1608.0 794.8 Q 1616.0 794.8 1616.0 802.8 L 1616.0 1180.5 Q 1616.0 1188.5 1624.0 1188.5 L 1864.0 1188.5 Q 1872.0 1188.5 1872.0 1196.5 L 1872.0 1282.5 Q 1872.0 1290.5 1880.0 1290.5 L 2000.0 1290.5 L 2152.0 1290.5 L 2328.0 1290.5 L 2456.0 1290.5" fill="none" stroke="#475569" stroke-width="1.25" stroke-linecap="round" stroke-linejoin="round" stroke-dasharray="8 5" marker-end="url(#marker-end-media-cache-service-accesses-wow-media-cache)"/><text x="1370.0" y="728.8" text-anchor="middle" fill="none" font-size="15.4" font-weight="600" stroke="#ffffff" stroke-width="2">read/write image bytes</text><text x="1370.0" y="728.8" text-anchor="middle" fill="#374151" font-size="15.4" font-weight="600">read/write image bytes</text></g><g data-dediren-edge-id="game-data-api-serves-reference-refresh-service"><marker id="marker-end-game-data-api-serves-reference-refresh-service" data-dediren-edge-marker-end="open_arrow" markerWidth="10" markerHeight="10" refX="5" refY="5" orient="auto"><path d="M 1 1 L 9 5 L 1 9" fill="none" stroke="#475569" stroke-width="1.5"/></marker><g data-dediren-line-jump-masks="game-data-api-serves-reference-refresh-service"><path d="M 864.0 696.0 Q 870.0 690.0 876.0 696.0" fill="none" stroke="#f8fafc" stroke-width="6"/><path d="M 1120.0 696.0 Q 1126.0 690.0 1132.0 696.0" fill="none" stroke="#f8fafc" stroke-width="6"/></g><path d="M 116.0 800.0 L 60.0 800.0 Q 52.0 800.0 52.0 792.0 L 52.0 704.0 Q 52.0 696.0 60.0 696.0 L 196.5 696.0 L 349.0 696.0 L 573.0 696.0 L 725.5 696.0 L 864.0 696.0 Q 870.0 690.0 876.0 696.0 L 998.0 696.0 L 1120.0 696.0 Q 1126.0 690.0 1132.0 696.0 L 1271.0 696.0 L 1408.0 696.0 Q 1416.0 696.0 1416.0 688.0 L 1416.0 605.2 Q 1416.0 597.2 1408.0 597.2 L 1352.0 597.2" fill="none" stroke="#475569" stroke-width="1.25" stroke-linecap="round" stroke-linejoin="round" marker-end="url(#marker-end-game-data-api-serves-reference-refresh-service)"/><text x="84.0" y="734.0" text-anchor="middle" fill="none" font-size="15.4" font-weight="600" stroke="#ffffff" stroke-width="2">refresh source</text><text x="84.0" y="734.0" text-anchor="middle" fill="#374151" font-size="15.4" font-weight="600">refresh source</text></g><g data-dediren-edge-id="render-cdn-serves-media-cache-service"><marker id="marker-end-render-cdn-serves-media-cache-service" data-dediren-edge-marker-end="open_arrow" markerWidth="10" markerHeight="10" refX="5" refY="5" orient="auto"><path d="M 1 1 L 9 5 L 1 9" fill="none" stroke="#475569" stroke-width="1.5"/></marker><path d="M 116.0 976.0 L 60.0 976.0 Q 52.0 976.0 52.0 984.0 L 52.0 1072.0 Q 52.0 1080.0 60.0 1080.0 L 196.5 1080.0 L 349.0 1080.0 L 501.0 1080.0 Q 509.0 1080.0 509.0 1072.0 L 509.0 922.0 Q 509.0 914.0 517.0 914.0 L 573.0 914.0 L 725.5 914.0 L 998.0 914.0 L 1271.0 914.0 L 1408.0 914.0 Q 1416.0 914.0 1416.0 906.0 L 1416.0 823.2 Q 1416.0 815.2 1408.0 815.2 L 1352.0 815.2" fill="none" stroke="#475569" stroke-width="1.25" stroke-linecap="round" stroke-linejoin="round" marker-end="url(#marker-end-render-cdn-serves-media-cache-service)"/><text x="84.0" y="1050.0" text-anchor="middle" fill="none" font-size="15.4" font-weight="600" stroke="#ffffff" stroke-width="2">image bytes</text><text x="84.0" y="1050.0" text-anchor="middle" fill="#374151" font-size="15.4" font-weight="600">image bytes</text></g><g data-dediren-node-id="reference-ui-entry"><rect data-dediren-node-shape="archimate_rectangle" x="2072.0" y="468.0" width="170.0" height="90.0" rx="0" fill="#e0f2fe" stroke="#0369a1" stroke-width="1.25"/><g data-dediren-node-decorator="archimate_application_component" data-dediren-icon-kind="component" data-dediren-icon-size="22"><rect x="2218.0" y="477.0" width="18.0" height="15.8" rx="1.5" fill="#e0f2fe" stroke="#0369a1" stroke-width="1.25"/><rect x="2214.0" y="479.6" width="7.9" height="5.7" rx="1.2" fill="#e0f2fe" stroke="#0369a1" stroke-width="1.25"/><rect x="2214.0" y="486.7" width="7.9" height="5.7" rx="1.2" fill="#e0f2fe" stroke="#0369a1" stroke-width="1.25"/></g><text x="2157.0" y="520.5" text-anchor="middle" dominant-baseline="middle" fill="#0c4a6e" font-size="14.0"><tspan x="2157.0" dy="0" textLength="95.7" lengthAdjust="spacing">Reference data</tspan><tspan x="2157.0" dy="16.0" textLength="97.2" lengthAdjust="spacing">consumption UI</tspan></text></g><g data-dediren-node-id="reference-refresh-ui-entry"><rect data-dediren-node-shape="archimate_rectangle" x="2072.0" y="52.0" width="160.0" height="80.0" rx="0" fill="#e0f2fe" stroke="#0369a1" stroke-width="1.25"/><g data-dediren-node-decorator="archimate_application_component" data-dediren-icon-kind="component" data-dediren-icon-size="22"><rect x="2208.0" y="61.0" width="18.0" height="15.8" rx="1.5" fill="#e0f2fe" stroke="#0369a1" stroke-width="1.25"/><rect x="2204.0" y="63.6" width="7.9" height="5.7" rx="1.2" fill="#e0f2fe" stroke="#0369a1" stroke-width="1.25"/><rect x="2204.0" y="70.7" width="7.9" height="5.7" rx="1.2" fill="#e0f2fe" stroke="#0369a1" stroke-width="1.25"/></g><text x="2152.0" y="99.5" text-anchor="middle" dominant-baseline="middle" fill="#0c4a6e" font-size="14.0"><tspan x="2152.0" dy="0" textLength="64.5" lengthAdjust="spacing">Reference</tspan><tspan x="2152.0" dy="16.0" textLength="61.4" lengthAdjust="spacing">refresh UI</tspan></text></g><g data-dediren-node-id="wow-reference-service"><rect data-dediren-node-shape="archimate_rounded_rectangle" x="1191.0" y="324.0" width="160.0" height="90.0" rx="6" fill="#e0f2fe" stroke="#0369a1" stroke-width="1.25"/><g data-dediren-node-decorator="archimate_application_service" data-dediren-icon-kind="service" data-dediren-icon-size="22"><rect x="1323.0" y="333.0" width="22.0" height="13.6" rx="4.0" fill="#e0f2fe" stroke="#0369a1" stroke-width="1.25"/></g><text x="1271.0" y="368.4" text-anchor="middle" dominant-baseline="middle" fill="#0c4a6e" font-size="14.0"><tspan x="1271.0" dy="0" textLength="34.2" lengthAdjust="spacing">WoW</tspan><tspan x="1271.0" dy="16.0" textLength="59.1" lengthAdjust="spacing">reference</tspan><tspan x="1271.0" dy="16.0" textLength="89.4" lengthAdjust="spacing">lookup service</tspan></text></g><g data-dediren-node-id="reference-refresh-service"><rect data-dediren-node-shape="archimate_rounded_rectangle" x="1191.0" y="542.0" width="160.0" height="90.0" rx="6" fill="#e0f2fe" stroke="#0369a1" stroke-width="1.25"/><g data-dediren-node-decorator="archimate_application_service" data-dediren-icon-kind="service" data-dediren-icon-size="22"><rect x="1323.0" y="551.0" width="22.0" height="13.6" rx="4.0" fill="#e0f2fe" stroke="#0369a1" stroke-width="1.25"/></g><text x="1271.0" y="586.4" text-anchor="middle" dominant-baseline="middle" fill="#0c4a6e" font-size="14.0"><tspan x="1271.0" dy="0" textLength="34.2" lengthAdjust="spacing">WoW</tspan><tspan x="1271.0" dy="16.0" textLength="59.1" lengthAdjust="spacing">reference</tspan><tspan x="1271.0" dy="16.0" textLength="91.7" lengthAdjust="spacing">refresh service</tspan></text></g><g data-dediren-node-id="wow-media-cache-service"><rect data-dediren-node-shape="archimate_rounded_rectangle" x="1191.0" y="760.0" width="160.0" height="90.0" rx="6" fill="#e0f2fe" stroke="#0369a1" stroke-width="1.25"/><g data-dediren-node-decorator="archimate_application_service" data-dediren-icon-kind="service" data-dediren-icon-size="22"><rect x="1323.0" y="769.0" width="22.0" height="13.6" rx="4.0" fill="#e0f2fe" stroke="#0369a1" stroke-width="1.25"/></g><text x="1271.0" y="812.5" text-anchor="middle" dominant-baseline="middle" fill="#0c4a6e" font-size="14.0"><tspan x="1271.0" dy="0" textLength="76.2" lengthAdjust="spacing">WoW media</tspan><tspan x="1271.0" dy="16.0" textLength="85.5" lengthAdjust="spacing">cache service</tspan></text></g><g data-dediren-node-id="lfm-api"><rect data-dediren-node-shape="archimate_rectangle" x="645.0" y="351.9" width="160.0" height="80.0" rx="0" fill="#e0f2fe" stroke="#0369a1" stroke-width="1.25"/><g data-dediren-node-decorator="archimate_application_component" data-dediren-icon-kind="component" data-dediren-icon-size="22"><rect x="781.0" y="360.9" width="18.0" height="15.8" rx="1.5" fill="#e0f2fe" stroke="#0369a1" stroke-width="1.25"/><rect x="777.0" y="363.6" width="7.9" height="5.7" rx="1.2" fill="#e0f2fe" stroke="#0369a1" stroke-width="1.25"/><rect x="777.0" y="370.6" width="7.9" height="5.7" rx="1.2" fill="#e0f2fe" stroke="#0369a1" stroke-width="1.25"/></g><text x="725.0" y="407.4" text-anchor="middle" dominant-baseline="middle" fill="#0c4a6e" font-size="14.0" textLength="47.4" lengthAdjust="spacing">Lfm.Api</text></g><g data-dediren-node-id="storage-account"><rect data-dediren-node-shape="archimate_rectangle" x="2072.0" y="814.0" width="160.0" height="80.0" rx="0" fill="#d5e8d4" stroke="#4d7c0f" stroke-width="1.25"/><g data-dediren-node-decorator="archimate_technology_node" data-dediren-icon-kind="node" data-dediren-icon-size="22"><rect x="2204.0" y="827.0" width="18.0" height="12.8" rx="1.5" fill="#d5e8d4" stroke="#4d7c0f" stroke-width="1.25"/><path data-dediren-icon-part="node-3d-edges" d="M 2204.0 827.0 L 2208.0 823.0 L 2226.0 823.0 L 2222.0 827.0 M 2222.0 827.0 L 2226.0 823.0 M 2222.0 839.7 L 2226.0 835.8 M 2226.0 823.0 L 2226.0 835.8" fill="none" stroke="#4d7c0f" stroke-width="1.25" stroke-linejoin="round"/></g><text x="2152.0" y="861.5" text-anchor="middle" dominant-baseline="middle" fill="#365314" font-size="14.0"><tspan x="2152.0" dy="0" textLength="49.0" lengthAdjust="spacing">Storage</tspan><tspan x="2152.0" dy="16.0" textLength="49.0" lengthAdjust="spacing">account</tspan></text></g><g data-dediren-node-id="wow-reference-container"><rect data-dediren-node-shape="archimate_rectangle" x="2457.0" y="1024.0" width="160.0" height="80.0" rx="0" fill="#d5e8d4" stroke="#4d7c0f" stroke-width="1.25"/><g data-dediren-node-decorator="archimate_artifact" data-dediren-icon-kind="artifact" data-dediren-icon-size="22"><path data-dediren-icon-part="artifact-document" d="M 2591.2 1032.0 L 2601.8 1032.0 L 2607.9 1038.2 L 2607.9 1051.8 L 2591.2 1051.8 Z M 2601.8 1032.0 L 2601.8 1038.2 L 2607.9 1038.2" fill="#d5e8d4" stroke="#4d7c0f" stroke-width="1.25"/></g><text x="2537.0" y="1071.5" text-anchor="middle" dominant-baseline="middle" fill="#365314" font-size="14.0"><tspan x="2537.0" dy="0" textLength="91.0" lengthAdjust="spacing">wow reference</tspan><tspan x="2537.0" dy="16.0" textLength="33.4" lengthAdjust="spacing">blobs</tspan></text></g><g data-dediren-node-id="wow-media-cache-blobs"><rect data-dediren-node-shape="archimate_rectangle" x="2457.0" y="1250.5" width="170.0" height="80.0" rx="0" fill="#d5e8d4" stroke="#4d7c0f" stroke-width="1.25"/><g data-dediren-node-decorator="archimate_artifact" data-dediren-icon-kind="artifact" data-dediren-icon-size="22"><path data-dediren-icon-part="artifact-document" d="M 2601.2 1258.5 L 2611.8 1258.5 L 2617.9 1264.7 L 2617.9 1278.3 L 2601.2 1278.3 Z M 2611.8 1258.5 L 2611.8 1264.7 L 2617.9 1264.7" fill="#d5e8d4" stroke="#4d7c0f" stroke-width="1.25"/></g><text x="2542.0" y="1292.3" text-anchor="middle" dominant-baseline="middle" fill="#365314" font-size="11.8"><tspan x="2542.0" dy="0" textLength="23.7" lengthAdjust="spacing">wow</tspan><tspan x="2542.0" dy="13.6" textLength="68.0" lengthAdjust="spacing">media-cache</tspan><tspan x="2542.0" dy="13.6" textLength="28.4" lengthAdjust="spacing">blobs</tspan></text></g><g data-dediren-node-id="blizzard-game-data-api"><rect data-dediren-node-shape="archimate_rounded_rectangle" x="117.0" y="760.0" width="160.0" height="80.0" rx="6" fill="#e0f2fe" stroke="#0369a1" stroke-width="1.25"/><g data-dediren-node-decorator="archimate_application_service" data-dediren-icon-kind="service" data-dediren-icon-size="22"><rect x="249.0" y="769.0" width="22.0" height="13.6" rx="4.0" fill="#e0f2fe" stroke="#0369a1" stroke-width="1.25"/></g><text x="197.0" y="807.5" text-anchor="middle" dominant-baseline="middle" fill="#0c4a6e" font-size="14.0"><tspan x="197.0" dy="0" textLength="76.2" lengthAdjust="spacing">WoW Game</tspan><tspan x="197.0" dy="16.0" textLength="56.0" lengthAdjust="spacing">Data API</tspan></text></g><g data-dediren-node-id="blizzard-render-cdn"><rect data-dediren-node-shape="archimate_rounded_rectangle" x="117.0" y="936.0" width="160.0" height="80.0" rx="6" fill="#e0f2fe" stroke="#0369a1" stroke-width="1.25"/><g data-dediren-node-decorator="archimate_application_service" data-dediren-icon-kind="service" data-dediren-icon-size="22"><rect x="249.0" y="945.0" width="22.0" height="13.6" rx="4.0" fill="#e0f2fe" stroke="#0369a1" stroke-width="1.25"/></g><text x="197.0" y="983.5" text-anchor="middle" dominant-baseline="middle" fill="#0c4a6e" font-size="14.0"><tspan x="197.0" dy="0" textLength="49.7" lengthAdjust="spacing">Blizzard</tspan><tspan x="197.0" dy="16.0" textLength="80.1" lengthAdjust="spacing">Render CDN</tspan></text></g></g></svg>

