<svg xmlns="http://www.w3.org/2000/svg" role="img" width="5093" height="1902" viewBox="-20 -52 5093 1934" data-arch-a11y="root" data-arch-a11y-viewbox="-20.0 -20.0 5093.0 1902.0"><title>API Request Pipeline - Application Cooperation</title>
<desc>Which middleware functions cooperate in the API request pipeline?</desc>
<text data-arch-a11y="visible-title" x="-12" y="-32" font-family="sans-serif" font-size="16" font-weight="bold">API Request Pipeline - Application Cooperation</text><rect x="-20.0" y="-20.0" width="5093.0" height="1902.0" fill="#ffffff"/><g font-family="Inter, &quot;Liberation Sans&quot;, &quot;Noto Sans&quot;, Arial, &quot;Helvetica Neue&quot;, &quot;Segoe UI&quot;, sans-serif" font-size="14"><g data-dediren-group-id="api-surface"><rect x="989.0" y="225.3" width="443.0" height="448.0" rx="8" fill="#f8fafc" stroke="#94a3b8" stroke-width="1"/><text x="997.0" y="241.3" fill="#334155" font-size="12">API surface</text></g><g data-dediren-group-id="inbound-request-pipeline"><rect x="1720.0" y="12.0" width="2894.0" height="1710.0" rx="8" fill="#f8fafc" stroke="#94a3b8" stroke-width="1"/><text x="1728.0" y="28.0" fill="#334155" font-size="12">Inbound request pipeline (ordered)</text></g><g data-dediren-group-id="outbound-blizzard-gateway"><rect x="108.0" y="880.0" width="369.0" height="906.0" rx="8" fill="#f8fafc" stroke="#94a3b8" stroke-width="1"/><text x="116.0" y="896.0" fill="#334155" font-size="12">Outbound Blizzard gateway</text></g><g data-dediren-edge-id="api-performs-request-pipeline"><marker id="marker-start-api-performs-request-pipeline" data-dediren-edge-marker-start="filled_circle" markerWidth="10" markerHeight="10" refX="5" refY="5" orient="auto"><circle cx="5" cy="5" r="3.5" fill="#475569" stroke="#475569" stroke-width="1"/></marker><marker id="marker-end-api-performs-request-pipeline" data-dediren-edge-marker-end="open_arrow" markerWidth="10" markerHeight="10" refX="5" refY="5" orient="auto"><path d="M 1 1 L 9 5 L 1 9" fill="none" stroke="#475569" stroke-width="1.5"/></marker><path d="M 1197.0 292.5 L 1464.0 292.5 L 1688.0 292.5 L 1888.0 292.5" fill="none" stroke="#475569" stroke-width="1.25" stroke-linecap="round" stroke-linejoin="round" marker-start="url(#marker-start-api-performs-request-pipeline)" marker-end="url(#marker-end-api-performs-request-pipeline)"/><text x="1330.5" y="282.5" text-anchor="middle" fill="none" font-size="15.4" font-weight="600" stroke="#ffffff" stroke-width="2">performs</text><text x="1330.5" y="282.5" text-anchor="middle" fill="#374151" font-size="15.4" font-weight="600">performs</text></g><g data-dediren-edge-id="api-performs-blizzard-rate-limiting"><marker id="marker-start-api-performs-blizzard-rate-limiting" data-dediren-edge-marker-start="filled_circle" markerWidth="10" markerHeight="10" refX="5" refY="5" orient="auto"><circle cx="5" cy="5" r="3.5" fill="#475569" stroke="#475569" stroke-width="1"/></marker><marker id="marker-end-api-performs-blizzard-rate-limiting" data-dediren-edge-marker-end="open_arrow" markerWidth="10" markerHeight="10" refX="5" refY="5" orient="auto"><path d="M 1 1 L 9 5 L 1 9" fill="none" stroke="#475569" stroke-width="1.5"/></marker><path d="M 1197.0 305.3 L 1320.0 305.3 Q 1328.0 305.3 1328.0 313.3 L 1328.0 332.5 Q 1328.0 340.5 1336.0 340.5 L 1464.0 340.5 L 1520.0 340.5 Q 1528.0 340.5 1528.0 348.5 L 1528.0 1842.0 Q 1528.0 1850.0 1520.0 1850.0 L 1210.5 1850.0 L 292.5 1850.0 L 20.0 1850.0 Q 12.0 1850.0 12.0 1842.0 L 12.0 1042.8 Q 12.0 1034.8 20.0 1034.8 L 76.0 1034.8 L 276.0 1034.8" fill="none" stroke="#475569" stroke-width="1.25" stroke-linecap="round" stroke-linejoin="round" marker-start="url(#marker-start-api-performs-blizzard-rate-limiting)" marker-end="url(#marker-end-api-performs-blizzard-rate-limiting)"/><text x="1310.0" y="323.3" text-anchor="middle" fill="none" font-size="15.4" font-weight="600" stroke="#ffffff" stroke-width="2">performs</text><text x="1310.0" y="323.3" text-anchor="middle" fill="#374151" font-size="15.4" font-weight="600">performs</text></g><g data-dediren-edge-id="request-pipeline-serves-rest-api"><marker id="marker-end-request-pipeline-serves-rest-api" data-dediren-edge-marker-end="open_arrow" markerWidth="10" markerHeight="10" refX="5" refY="5" orient="auto"><path d="M 1 1 L 9 5 L 1 9" fill="none" stroke="#475569" stroke-width="1.5"/></marker><g data-dediren-line-jump-masks="request-pipeline-serves-rest-api"><path d="M 1522.0 1786.0 Q 1528.0 1780.0 1534.0 1786.0" fill="none" stroke="#ffffff" stroke-width="6"/></g><path d="M 1888.0 309.5 L 1832.0 309.5 Q 1824.0 309.5 1824.0 317.5 L 1824.0 1658.0 Q 1824.0 1666.0 1832.0 1666.0 L 1968.5 1666.0 L 2145.0 1666.0 L 2321.0 1666.0 L 2497.0 1666.0 L 2673.0 1666.0 L 2849.0 1666.0 L 3025.0 1666.0 L 3201.0 1666.0 L 3377.0 1666.0 L 3553.0 1666.0 L 3744.0 1666.0 L 3935.0 1666.0 L 4126.0 1666.0 L 4317.0 1666.0 L 4493.5 1666.0 L 4646.0 1666.0 L 4702.0 1666.0 Q 4710.0 1666.0 4710.0 1674.0 L 4710.0 1778.0 Q 4710.0 1786.0 4702.0 1786.0 L 3167.0 1786.0 L 1534.0 1786.0 Q 1528.0 1780.0 1522.0 1786.0 L 1210.5 1786.0 L 901.0 1786.0 Q 893.0 1786.0 893.0 1778.0 L 893.0 625.3 Q 893.0 617.3 901.0 617.3 L 957.0 617.3 L 1114.5 617.3 L 1256.0 617.3 Q 1264.0 617.3 1264.0 609.3 L 1264.0 521.3 Q 1264.0 513.3 1256.0 513.3 L 1200.0 513.3" fill="none" stroke="#475569" stroke-width="1.25" stroke-linecap="round" stroke-linejoin="round" marker-end="url(#marker-end-request-pipeline-serves-rest-api)"/><text x="1856.0" y="327.5" text-anchor="middle" fill="none" font-size="15.4" font-weight="600" stroke="#ffffff" stroke-width="2">guards</text><text x="1856.0" y="327.5" text-anchor="middle" fill="#374151" font-size="15.4" font-weight="600">guards</text></g><g data-dediren-edge-id="cors-triggers-security-headers"><marker id="marker-end-cors-triggers-security-headers" data-dediren-edge-marker-end="open_arrow" markerWidth="10" markerHeight="10" refX="5" refY="5" orient="auto"><path d="M 1 1 L 9 5 L 1 9" fill="none" stroke="#475569" stroke-width="1.5"/></marker><path d="M 1968.5 133.0 L 1968.5 189.0 Q 1968.5 197.0 1976.5 197.0 L 2313.0 197.0 Q 2321.0 197.0 2321.0 205.0 L 2321.0 261.0" fill="none" stroke="#475569" stroke-width="1.25" stroke-linecap="round" stroke-linejoin="round" marker-end="url(#marker-end-cors-triggers-security-headers)"/><text x="2144.8" y="215.0" text-anchor="middle" fill="none" font-size="15.4" font-weight="600" stroke="#ffffff" stroke-width="2">then</text><text x="2144.8" y="215.0" text-anchor="middle" fill="#374151" font-size="15.4" font-weight="600">then</text></g><g data-dediren-edge-id="security-headers-triggers-request-size-limit"><marker id="marker-end-security-headers-triggers-request-size-limit" data-dediren-edge-marker-end="open_arrow" markerWidth="10" markerHeight="10" refX="5" refY="5" orient="auto"><path d="M 1 1 L 9 5 L 1 9" fill="none" stroke="#475569" stroke-width="1.5"/></marker><path d="M 2321.0 343.0 L 2321.0 399.0 Q 2321.0 407.0 2329.0 407.0 L 2665.0 407.0 Q 2673.0 407.0 2673.0 415.0 L 2673.0 471.0" fill="none" stroke="#475569" stroke-width="1.25" stroke-linecap="round" stroke-linejoin="round" marker-end="url(#marker-end-security-headers-triggers-request-size-limit)"/><text x="2497.0" y="425.0" text-anchor="middle" fill="none" font-size="15.4" font-weight="600" stroke="#ffffff" stroke-width="2">then</text><text x="2497.0" y="425.0" text-anchor="middle" fill="#374151" font-size="15.4" font-weight="600">then</text></g><g data-dediren-edge-id="request-size-limit-triggers-rate-limit"><marker id="marker-end-request-size-limit-triggers-rate-limit" data-dediren-edge-marker-end="open_arrow" markerWidth="10" markerHeight="10" refX="5" refY="5" orient="auto"><path d="M 1 1 L 9 5 L 1 9" fill="none" stroke="#475569" stroke-width="1.5"/></marker><path d="M 2673.0 553.0 L 2673.0 609.0 Q 2673.0 617.0 2681.0 617.0 L 3017.0 617.0 Q 3025.0 617.0 3025.0 625.0 L 3025.0 681.0" fill="none" stroke="#475569" stroke-width="1.25" stroke-linecap="round" stroke-linejoin="round" marker-end="url(#marker-end-request-size-limit-triggers-rate-limit)"/><text x="2849.0" y="635.0" text-anchor="middle" fill="none" font-size="15.4" font-weight="600" stroke="#ffffff" stroke-width="2">then</text><text x="2849.0" y="635.0" text-anchor="middle" fill="#374151" font-size="15.4" font-weight="600">then</text></g><g data-dediren-edge-id="rate-limit-triggers-audit"><marker id="marker-end-rate-limit-triggers-audit" data-dediren-edge-marker-end="open_arrow" markerWidth="10" markerHeight="10" refX="5" refY="5" orient="auto"><path d="M 1 1 L 9 5 L 1 9" fill="none" stroke="#475569" stroke-width="1.5"/></marker><path d="M 3025.0 763.0 L 3025.0 819.0 Q 3025.0 827.0 3033.0 827.0 L 3369.0 827.0 Q 3377.0 827.0 3377.0 835.0 L 3377.0 891.0" fill="none" stroke="#475569" stroke-width="1.25" stroke-linecap="round" stroke-linejoin="round" marker-end="url(#marker-end-rate-limit-triggers-audit)"/><text x="3201.0" y="845.0" text-anchor="middle" fill="none" font-size="15.4" font-weight="600" stroke="#ffffff" stroke-width="2">then</text><text x="3201.0" y="845.0" text-anchor="middle" fill="#374151" font-size="15.4" font-weight="600">then</text></g><g data-dediren-edge-id="audit-triggers-auth"><marker id="marker-end-audit-triggers-auth" data-dediren-edge-marker-end="open_arrow" markerWidth="10" markerHeight="10" refX="5" refY="5" orient="auto"><path d="M 1 1 L 9 5 L 1 9" fill="none" stroke="#475569" stroke-width="1.5"/></marker><path d="M 3377.0 973.0 L 3377.0 1029.0 Q 3377.0 1037.0 3385.0 1037.0 L 3736.0 1037.0 Q 3744.0 1037.0 3744.0 1045.0 L 3744.0 1101.0" fill="none" stroke="#475569" stroke-width="1.25" stroke-linecap="round" stroke-linejoin="round" marker-end="url(#marker-end-audit-triggers-auth)"/><text x="3560.5" y="1055.0" text-anchor="middle" fill="none" font-size="15.4" font-weight="600" stroke="#ffffff" stroke-width="2">then</text><text x="3560.5" y="1055.0" text-anchor="middle" fill="#374151" font-size="15.4" font-weight="600">then</text></g><g data-dediren-edge-id="auth-triggers-auth-policy"><marker id="marker-end-auth-triggers-auth-policy" data-dediren-edge-marker-end="open_arrow" markerWidth="10" markerHeight="10" refX="5" refY="5" orient="auto"><path d="M 1 1 L 9 5 L 1 9" fill="none" stroke="#475569" stroke-width="1.5"/></marker><path d="M 3744.0 1183.0 L 3744.0 1239.0 Q 3744.0 1247.0 3752.0 1247.0 L 4118.0 1247.0 Q 4126.0 1247.0 4126.0 1255.0 L 4126.0 1311.0" fill="none" stroke="#475569" stroke-width="1.25" stroke-linecap="round" stroke-linejoin="round" marker-end="url(#marker-end-auth-triggers-auth-policy)"/><text x="3935.0" y="1265.0" text-anchor="middle" fill="none" font-size="15.4" font-weight="600" stroke="#ffffff" stroke-width="2">then</text><text x="3935.0" y="1265.0" text-anchor="middle" fill="#374151" font-size="15.4" font-weight="600">then</text></g><g data-dediren-edge-id="auth-policy-triggers-idempotency"><marker id="marker-end-auth-policy-triggers-idempotency" data-dediren-edge-marker-end="open_arrow" markerWidth="10" markerHeight="10" refX="5" refY="5" orient="auto"><path d="M 1 1 L 9 5 L 1 9" fill="none" stroke="#475569" stroke-width="1.5"/></marker><path d="M 4126.0 1393.0 L 4126.0 1449.0 Q 4126.0 1457.0 4134.0 1457.0 L 4485.0 1457.0 Q 4493.0 1457.0 4493.0 1465.0 L 4493.0 1521.0" fill="none" stroke="#475569" stroke-width="1.25" stroke-linecap="round" stroke-linejoin="round" marker-end="url(#marker-end-auth-policy-triggers-idempotency)"/><text x="4309.5" y="1475.0" text-anchor="middle" fill="none" font-size="15.4" font-weight="600" stroke="#ffffff" stroke-width="2">then</text><text x="4309.5" y="1475.0" text-anchor="middle" fill="#374151" font-size="15.4" font-weight="600">then</text></g><g data-dediren-edge-id="idempotency-accesses-idempotency-store"><marker id="marker-end-idempotency-accesses-idempotency-store" data-dediren-edge-marker-end="open_arrow" markerWidth="10" markerHeight="10" refX="5" refY="5" orient="auto"><path d="M 1 1 L 9 5 L 1 9" fill="none" stroke="#475569" stroke-width="1.5"/></marker><path d="M 4574.0 1562.0 L 4646.0 1562.0 L 4870.0 1562.0" fill="none" stroke="#475569" stroke-width="1.25" stroke-linecap="round" stroke-linejoin="round" stroke-dasharray="8 5" marker-end="url(#marker-end-idempotency-accesses-idempotency-store)"/><text x="4610.0" y="1580.0" text-anchor="middle" fill="none" font-size="15.4" font-weight="600" stroke="#ffffff" stroke-width="2">reads/writes</text><text x="4610.0" y="1580.0" text-anchor="middle" fill="#374151" font-size="15.4" font-weight="600">reads/writes</text></g><g data-dediren-edge-id="blizzard-rate-limiting-serves-api"><marker id="marker-end-blizzard-rate-limiting-serves-api" data-dediren-edge-marker-end="open_arrow" markerWidth="10" markerHeight="10" refX="5" refY="5" orient="auto"><path d="M 1 1 L 9 5 L 1 9" fill="none" stroke="#475569" stroke-width="1.5"/></marker><g data-dediren-line-jump-masks="blizzard-rate-limiting-serves-api"><path d="M 212.0 1028.8 Q 218.0 1034.8 212.0 1040.8" fill="none" stroke="#f8fafc" stroke-width="6"/></g><path d="M 276.0 1055.2 L 220.0 1055.2 Q 212.0 1055.2 212.0 1047.2 L 212.0 1040.8 Q 218.0 1034.8 212.0 1028.8 L 212.0 944.0 Q 212.0 936.0 220.0 936.0 L 356.5 936.0 L 509.0 936.0 L 565.0 936.0 Q 573.0 936.0 573.0 928.0 L 573.0 281.3 Q 573.0 273.3 581.0 273.3 L 821.0 273.3 Q 829.0 273.3 829.0 281.3 L 829.0 401.3 Q 829.0 409.3 837.0 409.3 L 957.0 409.3 L 1114.5 409.3 L 1256.0 409.3 Q 1264.0 409.3 1264.0 401.3 L 1264.0 326.0 Q 1264.0 318.0 1256.0 318.0 L 1197.0 318.0" fill="none" stroke="#475569" stroke-width="1.25" stroke-linecap="round" stroke-linejoin="round" marker-end="url(#marker-end-blizzard-rate-limiting-serves-api)"/><text x="244.0" y="989.2" text-anchor="middle" fill="none" font-size="15.4" font-weight="600" stroke="#ffffff" stroke-width="2">throttles outbound</text><text x="244.0" y="989.2" text-anchor="middle" fill="#374151" font-size="15.4" font-weight="600">throttles outbound</text></g><g data-dediren-edge-id="battlenet-oauth-serves-api"><marker id="marker-end-battlenet-oauth-serves-api" data-dediren-edge-marker-end="open_arrow" markerWidth="10" markerHeight="10" refX="5" refY="5" orient="auto"><path d="M 1 1 L 9 5 L 1 9" fill="none" stroke="#475569" stroke-width="1.5"/></marker><path d="M 276.0 1226.0 L 220.0 1226.0 Q 212.0 1226.0 212.0 1234.0 L 212.0 1322.0 Q 212.0 1330.0 220.0 1330.0 L 356.5 1330.0 L 509.0 1330.0 L 629.0 1330.0 Q 637.0 1330.0 637.0 1322.0 L 637.0 349.3 Q 637.0 341.3 645.0 341.3 L 821.0 341.3 Q 829.0 341.3 829.0 349.3 L 829.0 401.3 Q 829.0 409.3 837.0 409.3 L 957.0 409.3 L 1114.5 409.3 L 1256.0 409.3 Q 1264.0 409.3 1264.0 401.3 L 1264.0 326.0 Q 1264.0 318.0 1256.0 318.0 L 1197.0 318.0" fill="none" stroke="#475569" stroke-width="1.25" stroke-linecap="round" stroke-linejoin="round" marker-end="url(#marker-end-battlenet-oauth-serves-api)"/><text x="244.0" y="1244.0" text-anchor="middle" fill="none" font-size="15.4" font-weight="600" stroke="#ffffff" stroke-width="2">OAuth</text><text x="244.0" y="1244.0" text-anchor="middle" fill="#374151" font-size="15.4" font-weight="600">OAuth</text></g><g data-dediren-edge-id="profile-api-serves-api"><marker id="marker-end-profile-api-serves-api" data-dediren-edge-marker-end="open_arrow" markerWidth="10" markerHeight="10" refX="5" refY="5" orient="auto"><path d="M 1 1 L 9 5 L 1 9" fill="none" stroke="#475569" stroke-width="1.5"/></marker><path d="M 276.0 1498.0 L 220.0 1498.0 Q 212.0 1498.0 212.0 1490.0 L 212.0 1402.0 Q 212.0 1394.0 220.0 1394.0 L 356.5 1394.0 L 509.0 1394.0 L 693.0 1394.0 Q 701.0 1394.0 701.0 1386.0 L 701.0 417.3 Q 701.0 409.3 709.0 409.3 L 957.0 409.3 L 1114.5 409.3 L 1256.0 409.3 Q 1264.0 409.3 1264.0 401.3 L 1264.0 326.0 Q 1264.0 318.0 1256.0 318.0 L 1197.0 318.0" fill="none" stroke="#475569" stroke-width="1.25" stroke-linecap="round" stroke-linejoin="round" marker-end="url(#marker-end-profile-api-serves-api)"/><text x="244.0" y="1432.0" text-anchor="middle" fill="none" font-size="15.4" font-weight="600" stroke="#ffffff" stroke-width="2">profile data</text><text x="244.0" y="1432.0" text-anchor="middle" fill="#374151" font-size="15.4" font-weight="600">profile data</text></g><g data-dediren-edge-id="game-data-api-serves-api"><marker id="marker-end-game-data-api-serves-api" data-dediren-edge-marker-end="open_arrow" markerWidth="10" markerHeight="10" refX="5" refY="5" orient="auto"><path d="M 1 1 L 9 5 L 1 9" fill="none" stroke="#475569" stroke-width="1.5"/></marker><path d="M 276.0 1706.0 L 220.0 1706.0 Q 212.0 1706.0 212.0 1698.0 L 212.0 1610.0 Q 212.0 1602.0 220.0 1602.0 L 356.5 1602.0 L 509.0 1602.0 L 821.0 1602.0 Q 829.0 1602.0 829.0 1594.0 L 829.0 417.3 Q 829.0 409.3 837.0 409.3 L 957.0 409.3 L 1114.5 409.3 L 1256.0 409.3 Q 1264.0 409.3 1264.0 401.3 L 1264.0 326.0 Q 1264.0 318.0 1256.0 318.0 L 1197.0 318.0" fill="none" stroke="#475569" stroke-width="1.25" stroke-linecap="round" stroke-linejoin="round" marker-end="url(#marker-end-game-data-api-serves-api)"/><text x="230.0" y="1696.0" text-anchor="middle" fill="none" font-size="15.4" font-weight="600" stroke="#ffffff" stroke-width="2">game data</text><text x="230.0" y="1696.0" text-anchor="middle" fill="#374151" font-size="15.4" font-weight="600">game data</text></g><g data-dediren-node-id="lfm-api"><rect data-dediren-node-shape="archimate_rectangle" x="1036.0" y="265.3" width="160.0" height="80.0" rx="0" fill="#e0f2fe" stroke="#0369a1" stroke-width="1.25"/><g data-dediren-node-decorator="archimate_application_component" data-dediren-icon-kind="component" data-dediren-icon-size="22"><rect x="1172.0" y="274.3" width="18.0" height="15.8" rx="1.5" fill="#e0f2fe" stroke="#0369a1" stroke-width="1.25"/><rect x="1168.0" y="276.9" width="7.9" height="5.7" rx="1.2" fill="#e0f2fe" stroke="#0369a1" stroke-width="1.25"/><rect x="1168.0" y="283.9" width="7.9" height="5.7" rx="1.2" fill="#e0f2fe" stroke="#0369a1" stroke-width="1.25"/></g><text x="1116.0" y="320.8" text-anchor="middle" dominant-baseline="middle" fill="#0c4a6e" font-size="14.0" textLength="47.4" lengthAdjust="spacing">Lfm.Api</text></g><g data-dediren-node-id="rest-api"><rect data-dediren-node-shape="archimate_rectangle" x="1029.0" y="473.3" width="170.0" height="80.0" rx="0" fill="#e0f2fe" stroke="#0369a1" stroke-width="1.25"/><g data-dediren-node-decorator="archimate_application_interface" data-dediren-icon-kind="interface" data-dediren-icon-size="22"><ellipse cx="1186.8" cy="488.4" rx="4.0" ry="4.0" fill="#e0f2fe" stroke="#0369a1" stroke-width="1.25"/><path d="M 1173.2 488.4 L 1182.9 488.4" fill="none" stroke="#0369a1" stroke-width="1.25"/></g><text x="1114.0" y="520.7" text-anchor="middle" dominant-baseline="middle" fill="#0c4a6e" font-size="14.0"><tspan x="1114.0" dy="0" textLength="63.7" lengthAdjust="spacing">REST API</tspan><tspan x="1114.0" dy="16.0" textLength="59.9" lengthAdjust="spacing">(/api/v1/*)</tspan></text></g><g data-dediren-node-id="api-request-pipeline"><rect data-dediren-node-shape="archimate_rounded_rectangle" x="1889.0" y="261.0" width="160.0" height="80.0" rx="6" fill="#e0f2fe" stroke="#0369a1" stroke-width="1.25"/><g data-dediren-node-decorator="archimate_application_function" data-dediren-icon-kind="function" data-dediren-icon-size="22"><path data-dediren-icon-part="function-bookmark" d="M 2025.0 274.4 L 2032.0 271.3 L 2039.0 274.4 L 2039.0 285.4 L 2032.0 282.3 L 2025.0 285.4 Z" fill="#e0f2fe" stroke="#0369a1" stroke-width="1.25"/></g><text x="1969.0" y="308.5" text-anchor="middle" dominant-baseline="middle" fill="#0c4a6e" font-size="14.0"><tspan x="1969.0" dy="0" textLength="73.1" lengthAdjust="spacing">API request</tspan><tspan x="1969.0" dy="16.0" textLength="48.2" lengthAdjust="spacing">pipeline</tspan></text></g><g data-dediren-node-id="mw-cors"><rect data-dediren-node-shape="archimate_rounded_rectangle" x="1888.5" y="52.0" width="160.0" height="80.0" rx="6" fill="#e0f2fe" stroke="#0369a1" stroke-width="1.25"/><g data-dediren-node-decorator="archimate_application_function" data-dediren-icon-kind="function" data-dediren-icon-size="22"><path data-dediren-icon-part="function-bookmark" d="M 2024.5 65.4 L 2031.5 62.3 L 2038.5 65.4 L 2038.5 76.4 L 2031.5 73.3 L 2024.5 76.4 Z" fill="#e0f2fe" stroke="#0369a1" stroke-width="1.25"/></g><text x="1968.5" y="99.5" text-anchor="middle" dominant-baseline="middle" fill="#0c4a6e" font-size="14.0"><tspan x="1968.5" dy="0" textLength="40.4" lengthAdjust="spacing">CORS</tspan><tspan x="1968.5" dy="16.0" textLength="52.9" lengthAdjust="spacing">handling</tspan></text></g><g data-dediren-node-id="mw-security-headers"><rect data-dediren-node-shape="archimate_rounded_rectangle" x="2241.0" y="262.0" width="160.0" height="80.0" rx="6" fill="#e0f2fe" stroke="#0369a1" stroke-width="1.25"/><g data-dediren-node-decorator="archimate_application_function" data-dediren-icon-kind="function" data-dediren-icon-size="22"><path data-dediren-icon-part="function-bookmark" d="M 2377.0 275.4 L 2384.0 272.3 L 2391.0 275.4 L 2391.0 286.4 L 2384.0 283.3 L 2377.0 286.4 Z" fill="#e0f2fe" stroke="#0369a1" stroke-width="1.25"/></g><text x="2321.0" y="309.5" text-anchor="middle" dominant-baseline="middle" fill="#0c4a6e" font-size="14.0"><tspan x="2321.0" dy="0" textLength="50.5" lengthAdjust="spacing">Security</tspan><tspan x="2321.0" dy="16.0" textLength="50.5" lengthAdjust="spacing">headers</tspan></text></g><g data-dediren-node-id="mw-request-size-limit"><rect data-dediren-node-shape="archimate_rounded_rectangle" x="2593.0" y="472.0" width="160.0" height="80.0" rx="6" fill="#e0f2fe" stroke="#0369a1" stroke-width="1.25"/><g data-dediren-node-decorator="archimate_application_function" data-dediren-icon-kind="function" data-dediren-icon-size="22"><path data-dediren-icon-part="function-bookmark" d="M 2729.0 485.4 L 2736.0 482.3 L 2743.0 485.4 L 2743.0 496.4 L 2736.0 493.3 L 2729.0 496.4 Z" fill="#e0f2fe" stroke="#0369a1" stroke-width="1.25"/></g><text x="2673.0" y="519.5" text-anchor="middle" dominant-baseline="middle" fill="#0c4a6e" font-size="14.0"><tspan x="2673.0" dy="0" textLength="80.9" lengthAdjust="spacing">Request size</tspan><tspan x="2673.0" dy="16.0" textLength="43.5" lengthAdjust="spacing">limiting</tspan></text></g><g data-dediren-node-id="mw-rate-limit"><rect data-dediren-node-shape="archimate_rounded_rectangle" x="2945.0" y="682.0" width="160.0" height="80.0" rx="6" fill="#e0f2fe" stroke="#0369a1" stroke-width="1.25"/><g data-dediren-node-decorator="archimate_application_function" data-dediren-icon-kind="function" data-dediren-icon-size="22"><path data-dediren-icon-part="function-bookmark" d="M 3081.0 695.4 L 3088.0 692.3 L 3095.0 695.4 L 3095.0 706.4 L 3088.0 703.3 L 3081.0 706.4 Z" fill="#e0f2fe" stroke="#0369a1" stroke-width="1.25"/></g><text x="3025.0" y="729.5" text-anchor="middle" dominant-baseline="middle" fill="#0c4a6e" font-size="14.0"><tspan x="3025.0" dy="0" textLength="78.6" lengthAdjust="spacing">Inbound rate</tspan><tspan x="3025.0" dy="16.0" textLength="43.5" lengthAdjust="spacing">limiting</tspan></text></g><g data-dediren-node-id="mw-audit"><rect data-dediren-node-shape="archimate_rounded_rectangle" x="3297.0" y="892.0" width="160.0" height="80.0" rx="6" fill="#e0f2fe" stroke="#0369a1" stroke-width="1.25"/><g data-dediren-node-decorator="archimate_application_function" data-dediren-icon-kind="function" data-dediren-icon-size="22"><path data-dediren-icon-part="function-bookmark" d="M 3433.0 905.4 L 3440.0 902.3 L 3447.0 905.4 L 3447.0 916.4 L 3440.0 913.3 L 3433.0 916.4 Z" fill="#e0f2fe" stroke="#0369a1" stroke-width="1.25"/></g><text x="3377.0" y="939.5" text-anchor="middle" dominant-baseline="middle" fill="#0c4a6e" font-size="14.0"><tspan x="3377.0" dy="0" textLength="86.3" lengthAdjust="spacing">Request audit</tspan><tspan x="3377.0" dy="16.0" textLength="45.1" lengthAdjust="spacing">logging</tspan></text></g><g data-dediren-node-id="mw-auth"><rect data-dediren-node-shape="archimate_rounded_rectangle" x="3649.0" y="1102.0" width="190.0" height="80.0" rx="6" fill="#e0f2fe" stroke="#0369a1" stroke-width="1.25"/><g data-dediren-node-decorator="archimate_application_function" data-dediren-icon-kind="function" data-dediren-icon-size="22"><path data-dediren-icon-part="function-bookmark" d="M 3815.0 1115.4 L 3822.0 1112.3 L 3829.0 1115.4 L 3829.0 1126.4 L 3822.0 1123.3 L 3815.0 1126.4 Z" fill="#e0f2fe" stroke="#0369a1" stroke-width="1.25"/></g><text x="3744.0" y="1157.5" text-anchor="middle" dominant-baseline="middle" fill="#0c4a6e" font-size="14.0" textLength="88.7" lengthAdjust="spacing">Authentication</text></g><g data-dediren-node-id="mw-auth-policy"><rect data-dediren-node-shape="archimate_rounded_rectangle" x="4031.0" y="1312.0" width="190.0" height="80.0" rx="6" fill="#e0f2fe" stroke="#0369a1" stroke-width="1.25"/><g data-dediren-node-decorator="archimate_application_function" data-dediren-icon-kind="function" data-dediren-icon-size="22"><path data-dediren-icon-part="function-bookmark" d="M 4197.0 1325.4 L 4204.0 1322.3 L 4211.0 1325.4 L 4211.0 1336.4 L 4204.0 1333.3 L 4197.0 1336.4 Z" fill="#e0f2fe" stroke="#0369a1" stroke-width="1.25"/></g><text x="4126.0" y="1367.5" text-anchor="middle" dominant-baseline="middle" fill="#0c4a6e" font-size="14.0" textLength="121.3" lengthAdjust="spacing">Authorization policy</text></g><g data-dediren-node-id="mw-idempotency"><rect data-dediren-node-shape="archimate_rounded_rectangle" x="4413.0" y="1522.0" width="160.0" height="80.0" rx="6" fill="#e0f2fe" stroke="#0369a1" stroke-width="1.25"/><g data-dediren-node-decorator="archimate_application_function" data-dediren-icon-kind="function" data-dediren-icon-size="22"><path data-dediren-icon-part="function-bookmark" d="M 4549.0 1535.4 L 4556.0 1532.3 L 4563.0 1535.4 L 4563.0 1546.4 L 4556.0 1543.3 L 4549.0 1546.4 Z" fill="#e0f2fe" stroke="#0369a1" stroke-width="1.25"/></g><text x="4493.0" y="1569.5" text-anchor="middle" dominant-baseline="middle" fill="#0c4a6e" font-size="14.0"><tspan x="4493.0" dy="0" textLength="70.0" lengthAdjust="spacing">Idempotent</tspan><tspan x="4493.0" dy="16.0" textLength="38.1" lengthAdjust="spacing">replay</tspan></text></g><g data-dediren-node-id="blizzard-rate-limiting"><rect data-dediren-node-shape="archimate_rounded_rectangle" x="277.0" y="1000.0" width="160.0" height="90.0" rx="6" fill="#e0f2fe" stroke="#0369a1" stroke-width="1.25"/><g data-dediren-node-decorator="archimate_application_function" data-dediren-icon-kind="function" data-dediren-icon-size="22"><path data-dediren-icon-part="function-bookmark" d="M 413.0 1013.4 L 420.0 1010.3 L 427.0 1013.4 L 427.0 1024.4 L 420.0 1021.3 L 413.0 1024.4 Z" fill="#e0f2fe" stroke="#0369a1" stroke-width="1.25"/></g><text x="357.0" y="1052.5" text-anchor="middle" dominant-baseline="middle" fill="#0c4a6e" font-size="14.0"><tspan x="357.0" dy="0" textLength="77.7" lengthAdjust="spacing">Blizzard rate</tspan><tspan x="357.0" dy="16.0" textLength="43.5" lengthAdjust="spacing">limiting</tspan></text></g><g data-dediren-node-id="battlenet-oauth"><rect data-dediren-node-shape="archimate_rounded_rectangle" x="277.0" y="1186.0" width="160.0" height="80.0" rx="6" fill="#e0f2fe" stroke="#0369a1" stroke-width="1.25"/><g data-dediren-node-decorator="archimate_application_service" data-dediren-icon-kind="service" data-dediren-icon-size="22"><rect x="409.0" y="1195.0" width="22.0" height="13.6" rx="4.0" fill="#e0f2fe" stroke="#0369a1" stroke-width="1.25"/></g><text x="357.0" y="1233.5" text-anchor="middle" dominant-baseline="middle" fill="#0c4a6e" font-size="14.0"><tspan x="357.0" dy="0" textLength="59.1" lengthAdjust="spacing">Battle.net</tspan><tspan x="357.0" dy="16.0" textLength="63.0" lengthAdjust="spacing">OAuth 2.0</tspan></text></g><g data-dediren-node-id="blizzard-profile-api"><rect data-dediren-node-shape="archimate_rounded_rectangle" x="277.0" y="1458.0" width="160.0" height="80.0" rx="6" fill="#e0f2fe" stroke="#0369a1" stroke-width="1.25"/><g data-dediren-node-decorator="archimate_application_service" data-dediren-icon-kind="service" data-dediren-icon-size="22"><rect x="409.0" y="1467.0" width="22.0" height="13.6" rx="4.0" fill="#e0f2fe" stroke="#0369a1" stroke-width="1.25"/></g><text x="357.0" y="1505.5" text-anchor="middle" dominant-baseline="middle" fill="#0c4a6e" font-size="14.0"><tspan x="357.0" dy="0" textLength="77.7" lengthAdjust="spacing">WoW Profile</tspan><tspan x="357.0" dy="16.0" textLength="22.5" lengthAdjust="spacing">API</tspan></text></g><g data-dediren-node-id="blizzard-game-data-api"><rect data-dediren-node-shape="archimate_rounded_rectangle" x="277.0" y="1666.0" width="160.0" height="80.0" rx="6" fill="#e0f2fe" stroke="#0369a1" stroke-width="1.25"/><g data-dediren-node-decorator="archimate_application_service" data-dediren-icon-kind="service" data-dediren-icon-size="22"><rect x="409.0" y="1675.0" width="22.0" height="13.6" rx="4.0" fill="#e0f2fe" stroke="#0369a1" stroke-width="1.25"/></g><text x="357.0" y="1713.5" text-anchor="middle" dominant-baseline="middle" fill="#0c4a6e" font-size="14.0"><tspan x="357.0" dy="0" textLength="76.2" lengthAdjust="spacing">WoW Game</tspan><tspan x="357.0" dy="16.0" textLength="56.0" lengthAdjust="spacing">Data API</tspan></text></g><g data-dediren-node-id="cosmos-idempotency"><rect data-dediren-node-shape="archimate_rectangle" x="4871.0" y="1522.0" width="170.0" height="80.0" rx="0" fill="#d5e8d4" stroke="#4d7c0f" stroke-width="1.25"/><g data-dediren-node-decorator="archimate_artifact" data-dediren-icon-kind="artifact" data-dediren-icon-size="22"><path data-dediren-icon-part="artifact-document" d="M 5015.2 1530.0 L 5025.8 1530.0 L 5031.9 1536.2 L 5031.9 1549.8 L 5015.2 1549.8 Z M 5025.8 1530.0 L 5025.8 1536.2 L 5031.9 1536.2" fill="#d5e8d4" stroke="#4d7c0f" stroke-width="1.25"/></g><text x="4956.0" y="1569.5" text-anchor="middle" dominant-baseline="middle" fill="#365314" font-size="14.0"><tspan x="4956.0" dy="0" textLength="79.3" lengthAdjust="spacing">idempotency</tspan><tspan x="4956.0" dy="16.0" textLength="57.5" lengthAdjust="spacing">container</tspan></text></g></g></svg>

