<svg xmlns="http://www.w3.org/2000/svg" role="img" width="1438" height="1073" viewBox="-20 -52 1438 1105" data-arch-a11y="root" data-arch-a11y-viewbox="-20.0 -20.0 1438.0 1073.0"><title>Run Signup - Service Realization</title>
<desc>Which application components and services realize run signup?</desc>
<text data-arch-a11y="visible-title" x="-12" y="-32" font-family="sans-serif" font-size="16" font-weight="bold">Run Signup - Service Realization</text><rect x="-20.0" y="-20.0" width="1438.0" height="1073.0" fill="#ffffff"/><g font-family="Inter, &quot;Liberation Sans&quot;, &quot;Noto Sans&quot;, Arial, &quot;Helvetica Neue&quot;, &quot;Segoe UI&quot;, sans-serif" font-size="14"><g data-dediren-group-id="run-signup-realization-ui-flow"><rect x="779.0" y="340.0" width="607.0" height="681.0" rx="8" fill="#f8fafc" stroke="#94a3b8" stroke-width="1"/><text x="787.0" y="356.0" fill="#334155" font-size="12">Run signup UI flow</text></g><g data-dediren-group-id="run-signup-realization-api-host"><rect x="12.0" y="17.2" width="559.0" height="186.0" rx="8" fill="#f8fafc" stroke="#94a3b8" stroke-width="1"/><text x="20.0" y="33.2" fill="#334155" font-size="12">API realization</text></g><g data-dediren-group-id="run-signup-realization-data"><rect x="779.0" y="12.0" width="209.0" height="268.0" rx="8" fill="#f8fafc" stroke="#94a3b8" stroke-width="1"/><text x="787.0" y="28.0" fill="#334155" font-size="12">Signup data dependencies</text></g><g data-dediren-edge-id="runs-ui-serves-browse"><marker id="marker-end-runs-ui-serves-browse" data-dediren-edge-marker-end="open_arrow" markerWidth="10" markerHeight="10" refX="5" refY="5" orient="auto"><path d="M 1 1 L 9 5 L 1 9" fill="none" stroke="#475569" stroke-width="1.5"/></marker><path d="M 964.0 629.0 L 1128.0 629.0" fill="none" stroke="#475569" stroke-width="1.25" stroke-linecap="round" stroke-linejoin="round" marker-end="url(#marker-end-runs-ui-serves-browse)"/><text x="1110.0" y="647.0" text-anchor="middle" fill="none" font-size="15.4" font-weight="600" stroke="#ffffff" stroke-width="2">UI</text><text x="1110.0" y="647.0" text-anchor="middle" fill="#374151" font-size="15.4" font-weight="600">UI</text></g><g data-dediren-edge-id="runs-ui-serves-inspect"><marker id="marker-end-runs-ui-serves-inspect" data-dediren-edge-marker-end="open_arrow" markerWidth="10" markerHeight="10" refX="5" refY="5" orient="auto"><path d="M 1 1 L 9 5 L 1 9" fill="none" stroke="#475569" stroke-width="1.5"/></marker><path d="M 964.0 641.8 L 1028.0 641.8 Q 1036.0 641.8 1036.0 649.8 L 1036.0 761.0 Q 1036.0 769.0 1044.0 769.0 L 1128.0 769.0" fill="none" stroke="#475569" stroke-width="1.25" stroke-linecap="round" stroke-linejoin="round" marker-end="url(#marker-end-runs-ui-serves-inspect)"/><text x="1018.0" y="659.8" text-anchor="middle" fill="none" font-size="15.4" font-weight="600" stroke="#ffffff" stroke-width="2">UI</text><text x="1018.0" y="659.8" text-anchor="middle" fill="#374151" font-size="15.4" font-weight="600">UI</text></g><g data-dediren-edge-id="runs-ui-serves-signup"><marker id="marker-end-runs-ui-serves-signup" data-dediren-edge-marker-end="open_arrow" markerWidth="10" markerHeight="10" refX="5" refY="5" orient="auto"><path d="M 1 1 L 9 5 L 1 9" fill="none" stroke="#475569" stroke-width="1.5"/></marker><path d="M 964.0 654.5 L 988.0 654.5 Q 996.0 654.5 996.0 662.5 L 996.0 901.0 Q 996.0 909.0 1004.0 909.0 L 1128.0 909.0" fill="none" stroke="#475569" stroke-width="1.25" stroke-linecap="round" stroke-linejoin="round" marker-end="url(#marker-end-runs-ui-serves-signup)"/><text x="980.0" y="672.5" text-anchor="middle" fill="none" font-size="15.4" font-weight="600" stroke="#ffffff" stroke-width="2">UI</text><text x="980.0" y="672.5" text-anchor="middle" fill="#374151" font-size="15.4" font-weight="600">UI</text></g><g data-dediren-edge-id="run-service-serves-browse"><marker id="marker-end-run-service-serves-browse" data-dediren-edge-marker-end="open_arrow" markerWidth="10" markerHeight="10" refX="5" refY="5" orient="auto"><path d="M 1 1 L 9 5 L 1 9" fill="none" stroke="#475569" stroke-width="1.5"/></marker><path d="M 321.0 76.0 L 297.0 76.0 Q 289.0 76.0 289.0 84.0 L 289.0 155.2 Q 289.0 163.2 297.0 163.2 L 402.0 163.2 L 591.0 163.2 L 615.0 163.2 Q 623.0 163.2 623.0 171.2 L 623.0 552.0 Q 623.0 560.0 631.0 560.0 L 687.0 560.0 L 687.0 557.0 L 759.0 557.0 L 883.5 557.0 L 1068.0 557.0 L 1209.0 557.0 L 1314.0 557.0 Q 1322.0 557.0 1322.0 565.0 L 1322.0 621.0 Q 1322.0 629.0 1314.0 629.0 L 1290.0 629.0" fill="none" stroke="#475569" stroke-width="1.25" stroke-linecap="round" stroke-linejoin="round" marker-end="url(#marker-end-run-service-serves-browse)"/><text x="1306.0" y="703.0" text-anchor="middle" fill="none" font-size="15.4" font-weight="600" stroke="#ffffff" stroke-width="2">realization</text><text x="1306.0" y="703.0" text-anchor="middle" fill="#374151" font-size="15.4" font-weight="600">realization</text></g><g data-dediren-edge-id="run-service-serves-inspect"><marker id="marker-end-run-service-serves-inspect" data-dediren-edge-marker-end="open_arrow" markerWidth="10" markerHeight="10" refX="5" refY="5" orient="auto"><path d="M 1 1 L 9 5 L 1 9" fill="none" stroke="#475569" stroke-width="1.5"/></marker><path d="M 321.0 76.0 L 297.0 76.0 Q 289.0 76.0 289.0 84.0 L 289.0 155.2 Q 289.0 163.2 297.0 163.2 L 402.0 163.2 L 591.0 163.2 L 615.0 163.2 Q 623.0 163.2 623.0 171.2 L 623.0 508.0 Q 623.0 516.0 631.0 516.0 L 759.0 516.0 L 883.5 516.0 L 1068.0 516.0 L 1209.0 516.0 L 1354.0 516.0 Q 1362.0 516.0 1362.0 524.0 L 1362.0 761.0 Q 1362.0 769.0 1354.0 769.0 L 1290.0 769.0" fill="none" stroke="#475569" stroke-width="1.25" stroke-linecap="round" stroke-linejoin="round" marker-end="url(#marker-end-run-service-serves-inspect)"/><text x="1326.0" y="843.0" text-anchor="middle" fill="none" font-size="15.4" font-weight="600" stroke="#ffffff" stroke-width="2">realization</text><text x="1326.0" y="843.0" text-anchor="middle" fill="#374151" font-size="15.4" font-weight="600">realization</text></g><g data-dediren-edge-id="run-service-serves-signup"><marker id="marker-end-run-service-serves-signup" data-dediren-edge-marker-end="open_arrow" markerWidth="10" markerHeight="10" refX="5" refY="5" orient="auto"><path d="M 1 1 L 9 5 L 1 9" fill="none" stroke="#475569" stroke-width="1.5"/></marker><path d="M 321.0 76.0 L 297.0 76.0 Q 289.0 76.0 289.0 84.0 L 289.0 155.2 Q 289.0 163.2 297.0 163.2 L 402.0 163.2 L 591.0 163.2 L 615.0 163.2 Q 623.0 163.2 623.0 171.2 L 623.0 596.0 Q 623.0 604.0 631.0 604.0 L 679.0 604.0 Q 687.0 604.0 687.0 612.0 L 687.0 973.0 Q 687.0 981.0 695.0 981.0 L 759.0 981.0 L 883.5 981.0 L 1068.0 981.0 L 1209.0 981.0 L 1314.0 981.0 Q 1322.0 981.0 1322.0 973.0 L 1322.0 917.0 Q 1322.0 909.0 1314.0 909.0 L 1290.0 909.0" fill="none" stroke="#475569" stroke-width="1.25" stroke-linecap="round" stroke-linejoin="round" marker-end="url(#marker-end-run-service-serves-signup)"/><text x="1306.0" y="983.0" text-anchor="middle" fill="none" font-size="15.4" font-weight="600" stroke="#ffffff" stroke-width="2">realization</text><text x="1306.0" y="983.0" text-anchor="middle" fill="#374151" font-size="15.4" font-weight="600">realization</text></g><g data-dediren-edge-id="run-service-serves-cancel"><marker id="marker-end-run-service-serves-cancel" data-dediren-edge-marker-end="open_arrow" markerWidth="10" markerHeight="10" refX="5" refY="5" orient="auto"><path d="M 1 1 L 9 5 L 1 9" fill="none" stroke="#475569" stroke-width="1.5"/></marker><path d="M 321.0 76.0 L 297.0 76.0 Q 289.0 76.0 289.0 84.0 L 289.0 155.2 Q 289.0 163.2 297.0 163.2 L 402.0 163.2 L 591.0 163.2 L 679.0 163.2 Q 687.0 163.2 687.0 171.2 L 687.0 468.0 Q 687.0 476.0 695.0 476.0 L 759.0 476.0 L 883.5 476.0 L 988.0 476.0 Q 996.0 476.0 996.0 468.0 L 996.0 412.0 Q 996.0 404.0 988.0 404.0 L 964.0 404.0" fill="none" stroke="#475569" stroke-width="1.25" stroke-linecap="round" stroke-linejoin="round" marker-end="url(#marker-end-run-service-serves-cancel)"/><text x="980.0" y="478.0" text-anchor="middle" fill="none" font-size="15.4" font-weight="600" stroke="#ffffff" stroke-width="2">realization</text><text x="980.0" y="478.0" text-anchor="middle" fill="#374151" font-size="15.4" font-weight="600">realization</text></g><g data-dediren-edge-id="api-realizes-run-service"><marker id="marker-end-api-realizes-run-service" data-dediren-edge-marker-end="hollow_triangle" markerWidth="10" markerHeight="10" refX="5" refY="5" orient="auto"><path d="M 1 1 L 9 5 L 1 9 Z" fill="#ffffff" stroke="#374151" stroke-width="1"/></marker><g data-dediren-line-jump-masks="api-realizes-run-service"><path d="M 283.0 96.3 Q 289.0 90.3 295.0 96.3" fill="none" stroke="#f8fafc" stroke-width="6"/></g><path d="M 197.0 96.3 L 283.0 96.3 Q 289.0 90.3 295.0 96.3 L 321.0 96.3" fill="none" stroke="#374151" stroke-width="1.5" stroke-linecap="round" stroke-linejoin="round" stroke-dasharray="8 5" marker-end="url(#marker-end-api-realizes-run-service)"/><text x="215.0" y="170.3" text-anchor="middle" fill="none" font-size="15.4" font-weight="600" stroke="#ffffff" stroke-width="2">realizes</text><text x="215.0" y="170.3" text-anchor="middle" fill="#374151" font-size="15.4" font-weight="600">realizes</text></g><g data-dediren-edge-id="run-service-accesses-runs"><marker id="marker-end-run-service-accesses-runs" data-dediren-edge-marker-end="open_arrow" markerWidth="10" markerHeight="10" refX="5" refY="5" orient="auto"><path d="M 1 1 L 9 5 L 1 9" fill="none" stroke="#475569" stroke-width="1.5"/></marker><path d="M 483.0 76.0 L 591.0 76.0 L 759.0 76.0 L 803.0 76.0" fill="none" stroke="#475569" stroke-width="1.25" stroke-linecap="round" stroke-linejoin="round" stroke-dasharray="8 5" marker-end="url(#marker-end-run-service-accesses-runs)"/><text x="501.0" y="150.0" text-anchor="middle" fill="none" font-size="15.4" font-weight="600" stroke="#ffffff" stroke-width="2">reads/writes</text><text x="501.0" y="150.0" text-anchor="middle" fill="#374151" font-size="15.4" font-weight="600">reads/writes</text></g><g data-dediren-edge-id="run-service-accesses-raiders"><marker id="marker-end-run-service-accesses-raiders" data-dediren-edge-marker-end="open_arrow" markerWidth="10" markerHeight="10" refX="5" refY="5" orient="auto"><path d="M 1 1 L 9 5 L 1 9" fill="none" stroke="#475569" stroke-width="1.5"/></marker><path d="M 483.0 96.3 L 509.2 96.3 Q 515.0 96.3 515.0 102.2 L 515.0 102.2 Q 515.0 108.0 520.8 108.0 L 591.0 108.0 L 618.5 108.0 Q 623.0 108.0 623.0 112.5 L 623.0 112.5 Q 623.0 117.0 627.5 117.0 L 719.0 117.0 Q 727.0 117.0 727.0 125.0 L 727.0 208.0 Q 727.0 216.0 735.0 216.0 L 759.0 216.0 L 803.0 216.0" fill="none" stroke="#475569" stroke-width="1.25" stroke-linecap="round" stroke-linejoin="round" stroke-dasharray="8 5" marker-end="url(#marker-end-run-service-accesses-raiders)"/><text x="499.0" y="226.3" text-anchor="middle" fill="none" font-size="15.4" font-weight="600" stroke="#ffffff" stroke-width="2">signup options</text><text x="499.0" y="226.3" text-anchor="middle" fill="#374151" font-size="15.4" font-weight="600">signup options</text></g><g data-dediren-node-id="browse-open-runs"><rect data-dediren-node-shape="archimate_rounded_rectangle" x="1129.0" y="589.0" width="160.0" height="80.0" rx="6" fill="#fff2cc" stroke="#d6b656" stroke-width="1.25"/><g data-dediren-node-decorator="archimate_business_process" data-dediren-icon-kind="process" data-dediren-icon-size="22"><path data-dediren-icon-part="process-arrow" d="M 1261.0 603.3 L 1274.6 603.3 L 1274.6 598.0 L 1283.0 605.9 L 1274.6 613.8 L 1274.6 608.6 L 1261.0 608.6 Z" fill="#fff2cc" stroke="#d6b656" stroke-width="1.25"/></g><text x="1209.0" y="636.5" text-anchor="middle" dominant-baseline="middle" fill="#3f3000" font-size="14.0"><tspan x="1209.0" dy="0" textLength="81.7" lengthAdjust="spacing">Browse open</tspan><tspan x="1209.0" dy="16.0" textLength="27.2" lengthAdjust="spacing">runs</tspan></text></g><g data-dediren-node-id="inspect-run-detail"><rect data-dediren-node-shape="archimate_rounded_rectangle" x="1129.0" y="729.0" width="160.0" height="80.0" rx="6" fill="#fff2cc" stroke="#d6b656" stroke-width="1.25"/><g data-dediren-node-decorator="archimate_business_process" data-dediren-icon-kind="process" data-dediren-icon-size="22"><path data-dediren-icon-part="process-arrow" d="M 1261.0 743.3 L 1274.6 743.3 L 1274.6 738.0 L 1283.0 745.9 L 1274.6 753.8 L 1274.6 748.6 L 1261.0 748.6 Z" fill="#fff2cc" stroke="#d6b656" stroke-width="1.25"/></g><text x="1209.0" y="776.5" text-anchor="middle" dominant-baseline="middle" fill="#3f3000" font-size="14.0"><tspan x="1209.0" dy="0" textLength="69.2" lengthAdjust="spacing">Inspect run</tspan><tspan x="1209.0" dy="16.0" textLength="33.4" lengthAdjust="spacing">detail</tspan></text></g><g data-dediren-node-id="sign-up-for-run"><rect data-dediren-node-shape="archimate_rounded_rectangle" x="1129.0" y="869.0" width="160.0" height="80.0" rx="6" fill="#fff2cc" stroke="#d6b656" stroke-width="1.25"/><g data-dediren-node-decorator="archimate_business_process" data-dediren-icon-kind="process" data-dediren-icon-size="22"><path data-dediren-icon-part="process-arrow" d="M 1261.0 883.3 L 1274.6 883.3 L 1274.6 878.0 L 1283.0 885.9 L 1274.6 893.8 L 1274.6 888.6 L 1261.0 888.6 Z" fill="#fff2cc" stroke="#d6b656" stroke-width="1.25"/></g><text x="1209.0" y="924.5" text-anchor="middle" dominant-baseline="middle" fill="#3f3000" font-size="14.0" textLength="91.8" lengthAdjust="spacing">Sign up for run</text></g><g data-dediren-node-id="cancel-signup"><rect data-dediren-node-shape="archimate_rounded_rectangle" x="803.0" y="364.0" width="160.0" height="80.0" rx="6" fill="#fff2cc" stroke="#d6b656" stroke-width="1.25"/><g data-dediren-node-decorator="archimate_business_process" data-dediren-icon-kind="process" data-dediren-icon-size="22"><path data-dediren-icon-part="process-arrow" d="M 935.0 378.3 L 948.6 378.3 L 948.6 373.0 L 957.0 380.9 L 948.6 388.8 L 948.6 383.6 L 935.0 383.6 Z" fill="#fff2cc" stroke="#d6b656" stroke-width="1.25"/></g><text x="883.0" y="419.5" text-anchor="middle" dominant-baseline="middle" fill="#3f3000" font-size="14.0" textLength="88.7" lengthAdjust="spacing">Cancel signup</text></g><g data-dediren-node-id="runs-ui-entry"><rect data-dediren-node-shape="archimate_rectangle" x="803.0" y="601.8" width="160.0" height="80.0" rx="0" fill="#e0f2fe" stroke="#0369a1" stroke-width="1.25"/><g data-dediren-node-decorator="archimate_application_component" data-dediren-icon-kind="component" data-dediren-icon-size="22"><rect x="939.0" y="610.8" width="18.0" height="15.8" rx="1.5" fill="#e0f2fe" stroke="#0369a1" stroke-width="1.25"/><rect x="935.0" y="613.4" width="7.9" height="5.7" rx="1.2" fill="#e0f2fe" stroke="#0369a1" stroke-width="1.25"/><rect x="935.0" y="620.4" width="7.9" height="5.7" rx="1.2" fill="#e0f2fe" stroke="#0369a1" stroke-width="1.25"/></g><text x="883.0" y="649.2" text-anchor="middle" dominant-baseline="middle" fill="#0c4a6e" font-size="14.0"><tspan x="883.0" dy="0" textLength="88.7" lengthAdjust="spacing">Run signup UI</tspan><tspan x="883.0" dy="16.0" textLength="38.1" lengthAdjust="spacing">pages</tspan></text></g><g data-dediren-node-id="run-management-service"><rect data-dediren-node-shape="archimate_rounded_rectangle" x="322.0" y="41.2" width="160.0" height="90.0" rx="6" fill="#e0f2fe" stroke="#0369a1" stroke-width="1.25"/><g data-dediren-node-decorator="archimate_application_service" data-dediren-icon-kind="service" data-dediren-icon-size="22"><rect x="454.0" y="50.2" width="22.0" height="13.6" rx="4.0" fill="#e0f2fe" stroke="#0369a1" stroke-width="1.25"/></g><text x="402.0" y="85.6" text-anchor="middle" dominant-baseline="middle" fill="#0c4a6e" font-size="14.0"><tspan x="402.0" dy="0" textLength="25.6" lengthAdjust="spacing">Run</tspan><tspan x="402.0" dy="16.0" textLength="81.7" lengthAdjust="spacing">management</tspan><tspan x="402.0" dy="16.0" textLength="44.3" lengthAdjust="spacing">service</tspan></text></g><g data-dediren-node-id="lfm-api"><rect data-dediren-node-shape="archimate_rectangle" x="36.0" y="56.3" width="160.0" height="80.0" rx="0" fill="#e0f2fe" stroke="#0369a1" stroke-width="1.25"/><g data-dediren-node-decorator="archimate_application_component" data-dediren-icon-kind="component" data-dediren-icon-size="22"><rect x="172.0" y="65.3" width="18.0" height="15.8" rx="1.5" fill="#e0f2fe" stroke="#0369a1" stroke-width="1.25"/><rect x="168.0" y="68.0" width="7.9" height="5.7" rx="1.2" fill="#e0f2fe" stroke="#0369a1" stroke-width="1.25"/><rect x="168.0" y="75.0" width="7.9" height="5.7" rx="1.2" fill="#e0f2fe" stroke="#0369a1" stroke-width="1.25"/></g><text x="116.0" y="111.8" text-anchor="middle" dominant-baseline="middle" fill="#0c4a6e" font-size="14.0" textLength="47.4" lengthAdjust="spacing">Lfm.Api</text></g><g data-dediren-node-id="cosmos-runs"><rect data-dediren-node-shape="archimate_rectangle" x="804.0" y="36.0" width="160.0" height="80.0" rx="0" fill="#d5e8d4" stroke="#4d7c0f" stroke-width="1.25"/><g data-dediren-node-decorator="archimate_artifact" data-dediren-icon-kind="artifact" data-dediren-icon-size="22"><path data-dediren-icon-part="artifact-document" d="M 938.2 44.0 L 948.8 44.0 L 954.9 50.2 L 954.9 63.8 L 938.2 63.8 Z M 948.8 44.0 L 948.8 50.2 L 954.9 50.2" fill="#d5e8d4" stroke="#4d7c0f" stroke-width="1.25"/></g><text x="884.0" y="91.5" text-anchor="middle" dominant-baseline="middle" fill="#365314" font-size="14.0" textLength="88.7" lengthAdjust="spacing">runs container</text></g><g data-dediren-node-id="cosmos-raiders"><rect data-dediren-node-shape="archimate_rectangle" x="804.0" y="176.0" width="160.0" height="80.0" rx="0" fill="#d5e8d4" stroke="#4d7c0f" stroke-width="1.25"/><g data-dediren-node-decorator="archimate_artifact" data-dediren-icon-kind="artifact" data-dediren-icon-size="22"><path data-dediren-icon-part="artifact-document" d="M 938.2 184.0 L 948.8 184.0 L 954.9 190.2 L 954.9 203.8 L 938.2 203.8 Z M 948.8 184.0 L 948.8 190.2 L 954.9 190.2" fill="#d5e8d4" stroke="#4d7c0f" stroke-width="1.25"/></g><text x="884.0" y="223.5" text-anchor="middle" dominant-baseline="middle" fill="#365314" font-size="14.0"><tspan x="884.0" dy="0" textLength="42.7" lengthAdjust="spacing">raiders</tspan><tspan x="884.0" dy="16.0" textLength="57.5" lengthAdjust="spacing">container</tspan></text></g></g></svg>

