<svg xmlns="http://www.w3.org/2000/svg" role="img" width="1691" height="656" viewBox="-20 -52 1691 687.9" data-arch-a11y="root" data-arch-a11y-viewbox="-20.0 -20.0 1691.0 655.9"><title>Run Signup - Service Realization</title>
<desc>Which application components and services realize run signup?</desc>
<text data-arch-a11y="visible-title" x="-12" y="-32" font-family="sans-serif" font-size="16" font-weight="bold">Run Signup - Service Realization</text><rect x="-20.0" y="-20.0" width="1691.0" height="655.9" fill="#ffffff"/><g font-family="Inter, &quot;Liberation Sans&quot;, &quot;Noto Sans&quot;, Arial, &quot;Helvetica Neue&quot;, &quot;Segoe UI&quot;, sans-serif" font-size="14"><g data-dediren-group-id="run-signup-realization-ui-flow"><rect x="12.0" y="12.0" width="527.0" height="548.0" rx="8" fill="#f8fafc" stroke="#94a3b8" stroke-width="1"/><text x="20.0" y="28.0" fill="#334155" font-size="12">Run signup UI flow</text></g><g data-dediren-group-id="run-signup-realization-api-host"><rect x="703.0" y="176.0" width="559.0" height="177.0" rx="8" fill="#f8fafc" stroke="#94a3b8" stroke-width="1"/><text x="711.0" y="192.0" fill="#334155" font-size="12">API realization</text></g><g data-dediren-group-id="run-signup-realization-data"><rect x="1430.0" y="193.0" width="209.0" height="268.0" rx="8" fill="#f8fafc" stroke="#94a3b8" stroke-width="1"/><text x="1438.0" y="209.0" fill="#334155" font-size="12">Signup data dependencies</text></g><g data-dediren-edge-id="runs-ui-serves-browse"><marker id="marker-end-runs-ui-serves-browse" data-dediren-edge-marker-end="open_arrow" markerWidth="10" markerHeight="10" refX="9" refY="5" orient="auto"><path d="M 1 1 L 9 5 L 1 9" fill="none" stroke="#475569" stroke-width="1.5"/></marker><path d="M 197.0 76.0 L 353.0 76.0" fill="none" stroke="#475569" stroke-width="1.25" stroke-linecap="round" stroke-linejoin="round" marker-end="url(#marker-end-runs-ui-serves-browse)"/><text x="335.0" y="94.0" text-anchor="middle" fill="none" font-size="15.4" font-weight="600" stroke="#ffffff" stroke-width="2">UI</text><text x="335.0" y="94.0" text-anchor="middle" fill="#374151" font-size="15.4" font-weight="600">UI</text></g><g data-dediren-edge-id="runs-ui-serves-inspect"><marker id="marker-end-runs-ui-serves-inspect" data-dediren-edge-marker-end="open_arrow" markerWidth="10" markerHeight="10" refX="9" refY="5" orient="auto"><path d="M 1 1 L 9 5 L 1 9" fill="none" stroke="#475569" stroke-width="1.5"/></marker><path d="M 197.0 88.8 L 253.0 88.8 Q 261.0 88.8 261.0 96.8 L 261.0 348.0 Q 261.0 356.0 269.0 356.0 L 353.0 356.0" fill="none" stroke="#475569" stroke-width="1.25" stroke-linecap="round" stroke-linejoin="round" marker-end="url(#marker-end-runs-ui-serves-inspect)"/><text x="255.0" y="222.4" text-anchor="end" fill="none" font-size="15.4" font-weight="600" stroke="#ffffff" stroke-width="2">UI</text><text x="255.0" y="222.4" text-anchor="end" fill="#374151" font-size="15.4" font-weight="600">UI</text></g><g data-dediren-edge-id="runs-ui-serves-signup"><marker id="marker-end-runs-ui-serves-signup" data-dediren-edge-marker-end="open_arrow" markerWidth="10" markerHeight="10" refX="9" refY="5" orient="auto"><path d="M 1 1 L 9 5 L 1 9" fill="none" stroke="#475569" stroke-width="1.5"/></marker><path d="M 197.0 101.5 L 221.0 101.5 Q 229.0 101.5 229.0 109.5 L 229.0 488.0 Q 229.0 496.0 237.0 496.0 L 353.0 496.0" fill="none" stroke="#475569" stroke-width="1.25" stroke-linecap="round" stroke-linejoin="round" marker-end="url(#marker-end-runs-ui-serves-signup)"/><text x="213.0" y="119.5" text-anchor="middle" fill="none" font-size="15.4" font-weight="600" stroke="#ffffff" stroke-width="2">UI</text><text x="213.0" y="119.5" text-anchor="middle" fill="#374151" font-size="15.4" font-weight="600">UI</text></g><g data-dediren-edge-id="run-service-serves-browse"><marker id="marker-end-run-service-serves-browse" data-dediren-edge-marker-end="open_arrow" markerWidth="10" markerHeight="10" refX="9" refY="5" orient="auto"><path d="M 1 1 L 9 5 L 1 9" fill="none" stroke="#475569" stroke-width="1.5"/></marker><path d="M 1012.0 268.7 L 988.0 268.7 Q 980.0 268.7 980.0 260.7 L 980.0 224.0 Q 980.0 216.0 972.0 216.0 L 948.0 216.0 L 807.5 216.0 L 683.0 216.0 L 659.0 216.0 Q 651.0 216.0 651.0 208.0 L 651.0 84.0 Q 651.0 76.0 643.0 76.0 L 559.0 76.0 L 515.0 76.0" fill="none" stroke="#475569" stroke-width="1.25" stroke-linecap="round" stroke-linejoin="round" marker-end="url(#marker-end-run-service-serves-browse)"/><text x="946.0" y="242.3" text-anchor="end" fill="none" font-size="15.4" font-weight="600" stroke="#ffffff" stroke-width="2">realization</text><text x="946.0" y="242.3" text-anchor="end" fill="#374151" font-size="15.4" font-weight="600">realization</text></g><g data-dediren-edge-id="run-service-serves-inspect"><marker id="marker-end-run-service-serves-inspect" data-dediren-edge-marker-end="open_arrow" markerWidth="10" markerHeight="10" refX="9" refY="5" orient="auto"><path d="M 1 1 L 9 5 L 1 9" fill="none" stroke="#475569" stroke-width="1.5"/></marker><path d="M 1012.0 268.7 L 988.0 268.7 Q 980.0 268.7 980.0 260.7 L 980.0 224.0 Q 980.0 216.0 972.0 216.0 L 948.0 216.0 L 807.5 216.0 L 683.0 216.0 L 659.0 216.0 Q 651.0 216.0 651.0 224.0 L 651.0 348.0 Q 651.0 356.0 643.0 356.0 L 559.0 356.0 L 515.0 356.0" fill="none" stroke="#475569" stroke-width="1.25" stroke-linecap="round" stroke-linejoin="round" marker-end="url(#marker-end-run-service-serves-inspect)"/><text x="537.0" y="374.0" text-anchor="middle" fill="none" font-size="15.4" font-weight="600" stroke="#ffffff" stroke-width="2">realization</text><text x="537.0" y="374.0" text-anchor="middle" fill="#374151" font-size="15.4" font-weight="600">realization</text></g><g data-dediren-edge-id="run-service-serves-signup"><marker id="marker-end-run-service-serves-signup" data-dediren-edge-marker-end="open_arrow" markerWidth="10" markerHeight="10" refX="9" refY="5" orient="auto"><path d="M 1 1 L 9 5 L 1 9" fill="none" stroke="#475569" stroke-width="1.5"/></marker><path d="M 1012.0 268.7 L 988.0 268.7 Q 980.0 268.7 980.0 260.7 L 980.0 224.0 Q 980.0 216.0 972.0 216.0 L 948.0 216.0 L 807.5 216.0 L 683.0 216.0 L 659.0 216.0 Q 651.0 216.0 651.0 224.0 L 651.0 488.0 Q 651.0 496.0 643.0 496.0 L 559.0 496.0 L 515.0 496.0" fill="none" stroke="#475569" stroke-width="1.25" stroke-linecap="round" stroke-linejoin="round" marker-end="url(#marker-end-run-service-serves-signup)"/><text x="537.0" y="598.0" text-anchor="middle" fill="none" font-size="15.4" font-weight="600" stroke="#ffffff" stroke-width="2">realization</text><text x="537.0" y="598.0" text-anchor="middle" fill="#374151" font-size="15.4" font-weight="600">realization</text></g><g data-dediren-edge-id="run-service-serves-cancel"><marker id="marker-end-run-service-serves-cancel" data-dediren-edge-marker-end="open_arrow" markerWidth="10" markerHeight="10" refX="9" refY="5" orient="auto"><path d="M 1 1 L 9 5 L 1 9" fill="none" stroke="#475569" stroke-width="1.5"/></marker><path d="M 1012.0 268.7 L 988.0 268.7 Q 980.0 268.7 980.0 260.7 L 980.0 224.0 Q 980.0 216.0 972.0 216.0 L 948.0 216.0 L 807.5 216.0 L 683.0 216.0 L 559.0 216.0 L 515.0 216.0" fill="none" stroke="#475569" stroke-width="1.25" stroke-linecap="round" stroke-linejoin="round" marker-end="url(#marker-end-run-service-serves-cancel)"/><text x="537.0" y="234.0" text-anchor="middle" fill="none" font-size="15.4" font-weight="600" stroke="#ffffff" stroke-width="2">realization</text><text x="537.0" y="234.0" text-anchor="middle" fill="#374151" font-size="15.4" font-weight="600">realization</text></g><g data-dediren-edge-id="api-realizes-run-service"><marker id="marker-end-api-realizes-run-service" data-dediren-edge-marker-end="hollow_triangle" markerWidth="10" markerHeight="10" refX="9" refY="5" orient="auto"><path d="M 1 1 L 9 5 L 1 9 Z" fill="#ffffff" stroke="#374151" stroke-width="1"/></marker><path d="M 888.0 289.0 L 1012.0 289.0" fill="none" stroke="#374151" stroke-width="1.5" stroke-linecap="round" stroke-linejoin="round" stroke-dasharray="8 5" marker-end="url(#marker-end-api-realizes-run-service)"/><text x="950.0" y="307.0" text-anchor="middle" fill="none" font-size="15.4" font-weight="600" stroke="#ffffff" stroke-width="2">realizes</text><text x="950.0" y="307.0" text-anchor="middle" fill="#374151" font-size="15.4" font-weight="600">realizes</text></g><g data-dediren-edge-id="run-service-accesses-runs"><marker id="marker-end-run-service-accesses-runs" data-dediren-edge-marker-end="open_arrow" markerWidth="10" markerHeight="10" refX="9" refY="5" orient="auto"><path d="M 1 1 L 9 5 L 1 9" fill="none" stroke="#475569" stroke-width="1.5"/></marker><path d="M 1174.0 268.7 L 1200.2 268.7 Q 1206.0 268.7 1206.0 262.8 L 1206.0 262.8 Q 1206.0 257.0 1211.8 257.0 L 1282.0 257.0 L 1410.0 257.0 L 1454.0 257.0" fill="none" stroke="#475569" stroke-width="1.25" stroke-linecap="round" stroke-linejoin="round" stroke-dasharray="8 5" marker-end="url(#marker-end-run-service-accesses-runs)"/><text x="1268.0" y="262.8" text-anchor="start" fill="none" font-size="15.4" font-weight="600" stroke="#ffffff" stroke-width="2">reads/writes</text><text x="1268.0" y="262.8" text-anchor="start" fill="#374151" font-size="15.4" font-weight="600">reads/writes</text></g><g data-dediren-edge-id="run-service-accesses-raiders"><marker id="marker-end-run-service-accesses-raiders" data-dediren-edge-marker-end="open_arrow" markerWidth="10" markerHeight="10" refX="9" refY="5" orient="auto"><path d="M 1 1 L 9 5 L 1 9" fill="none" stroke="#475569" stroke-width="1.5"/></marker><path d="M 1174.0 289.0 L 1282.0 289.0 L 1309.5 289.0 Q 1314.0 289.0 1314.0 293.5 L 1314.0 293.5 Q 1314.0 298.0 1318.5 298.0 L 1370.0 298.0 Q 1378.0 298.0 1378.0 306.0 L 1378.0 389.0 Q 1378.0 397.0 1386.0 397.0 L 1410.0 397.0 L 1454.0 397.0" fill="none" stroke="#475569" stroke-width="1.25" stroke-linecap="round" stroke-linejoin="round" stroke-dasharray="8 5" marker-end="url(#marker-end-run-service-accesses-raiders)"/><text x="1440.0" y="347.5" text-anchor="start" fill="none" font-size="15.4" font-weight="600" stroke="#ffffff" stroke-width="2">signup options</text><text x="1440.0" y="347.5" text-anchor="start" fill="#374151" font-size="15.4" font-weight="600">signup options</text></g><g data-dediren-node-id="browse-open-runs"><rect data-dediren-node-shape="archimate_rounded_rectangle" x="354.0" y="36.0" width="160.0" height="80.0" rx="6" fill="#fff2cc" stroke="#d6b656" stroke-width="1.25"/><g data-dediren-node-decorator="archimate_business_process" data-dediren-icon-kind="process" data-dediren-icon-size="22"><path data-dediren-icon-part="process-arrow" d="M 486.0 50.3 L 499.6 50.3 L 499.6 45.0 L 508.0 52.9 L 499.6 60.8 L 499.6 55.6 L 486.0 55.6 Z" fill="#fff2cc" stroke="#d6b656" stroke-width="1.25"/></g><text x="434.0" y="83.5" text-anchor="middle" dominant-baseline="middle" fill="#3f3000" font-size="14.0"><tspan x="434.0" dy="0" textLength="81.7" lengthAdjust="spacing">Browse open</tspan><tspan x="434.0" dy="16.0" textLength="27.2" lengthAdjust="spacing">runs</tspan></text></g><g data-dediren-node-id="inspect-run-detail"><rect data-dediren-node-shape="archimate_rounded_rectangle" x="354.0" y="316.0" width="160.0" height="80.0" rx="6" fill="#fff2cc" stroke="#d6b656" stroke-width="1.25"/><g data-dediren-node-decorator="archimate_business_process" data-dediren-icon-kind="process" data-dediren-icon-size="22"><path data-dediren-icon-part="process-arrow" d="M 486.0 330.3 L 499.6 330.3 L 499.6 325.0 L 508.0 332.9 L 499.6 340.8 L 499.6 335.6 L 486.0 335.6 Z" fill="#fff2cc" stroke="#d6b656" stroke-width="1.25"/></g><text x="434.0" y="363.5" text-anchor="middle" dominant-baseline="middle" fill="#3f3000" font-size="14.0"><tspan x="434.0" dy="0" textLength="69.2" lengthAdjust="spacing">Inspect run</tspan><tspan x="434.0" dy="16.0" textLength="33.4" lengthAdjust="spacing">detail</tspan></text></g><g data-dediren-node-id="sign-up-for-run"><rect data-dediren-node-shape="archimate_rounded_rectangle" x="354.0" y="456.0" width="160.0" height="80.0" rx="6" fill="#fff2cc" stroke="#d6b656" stroke-width="1.25"/><g data-dediren-node-decorator="archimate_business_process" data-dediren-icon-kind="process" data-dediren-icon-size="22"><path data-dediren-icon-part="process-arrow" d="M 486.0 470.3 L 499.6 470.3 L 499.6 465.0 L 508.0 472.9 L 499.6 480.8 L 499.6 475.6 L 486.0 475.6 Z" fill="#fff2cc" stroke="#d6b656" stroke-width="1.25"/></g><text x="434.0" y="511.5" text-anchor="middle" dominant-baseline="middle" fill="#3f3000" font-size="14.0" textLength="91.8" lengthAdjust="spacing">Sign up for run</text></g><g data-dediren-node-id="cancel-signup"><rect data-dediren-node-shape="archimate_rounded_rectangle" x="354.0" y="176.0" width="160.0" height="80.0" rx="6" fill="#fff2cc" stroke="#d6b656" stroke-width="1.25"/><g data-dediren-node-decorator="archimate_business_process" data-dediren-icon-kind="process" data-dediren-icon-size="22"><path data-dediren-icon-part="process-arrow" d="M 486.0 190.3 L 499.6 190.3 L 499.6 185.0 L 508.0 192.9 L 499.6 200.8 L 499.6 195.6 L 486.0 195.6 Z" fill="#fff2cc" stroke="#d6b656" stroke-width="1.25"/></g><text x="434.0" y="231.5" text-anchor="middle" dominant-baseline="middle" fill="#3f3000" font-size="14.0" textLength="88.7" lengthAdjust="spacing">Cancel signup</text></g><g data-dediren-node-id="runs-ui-entry"><rect data-dediren-node-shape="archimate_rectangle" x="36.0" y="48.8" width="160.0" height="80.0" rx="0" fill="#e0f2fe" stroke="#0369a1" stroke-width="1.25"/><g data-dediren-node-decorator="archimate_application_component" data-dediren-icon-kind="component" data-dediren-icon-size="22"><rect x="172.0" y="57.8" width="18.0" height="15.8" rx="1.5" fill="#e0f2fe" stroke="#0369a1" stroke-width="1.25"/><rect x="168.0" y="60.4" width="7.9" height="5.7" rx="1.2" fill="#e0f2fe" stroke="#0369a1" stroke-width="1.25"/><rect x="168.0" y="67.4" width="7.9" height="5.7" rx="1.2" fill="#e0f2fe" stroke="#0369a1" stroke-width="1.25"/></g><text x="116.0" y="96.2" text-anchor="middle" dominant-baseline="middle" fill="#0c4a6e" font-size="14.0"><tspan x="116.0" dy="0" textLength="88.7" lengthAdjust="spacing">Run signup UI</tspan><tspan x="116.0" dy="16.0" textLength="38.1" lengthAdjust="spacing">pages</tspan></text></g><g data-dediren-node-id="run-management-service"><rect data-dediren-node-shape="archimate_rounded_rectangle" x="1013.0" y="233.8" width="160.0" height="90.0" rx="6" fill="#e0f2fe" stroke="#0369a1" stroke-width="1.25"/><g data-dediren-node-decorator="archimate_application_service" data-dediren-icon-kind="service" data-dediren-icon-size="22"><rect x="1145.0" y="242.8" width="22.0" height="13.6" rx="4.0" fill="#e0f2fe" stroke="#0369a1" stroke-width="1.25"/></g><text x="1093.0" y="278.2" text-anchor="middle" dominant-baseline="middle" fill="#0c4a6e" font-size="14.0"><tspan x="1093.0" dy="0" textLength="25.6" lengthAdjust="spacing">Run</tspan><tspan x="1093.0" dy="16.0" textLength="81.7" lengthAdjust="spacing">management</tspan><tspan x="1093.0" dy="16.0" textLength="44.3" lengthAdjust="spacing">service</tspan></text></g><g data-dediren-node-id="lfm-api"><rect data-dediren-node-shape="archimate_rectangle" x="727.0" y="249.0" width="160.0" height="80.0" rx="0" fill="#e0f2fe" stroke="#0369a1" stroke-width="1.25"/><g data-dediren-node-decorator="archimate_application_component" data-dediren-icon-kind="component" data-dediren-icon-size="22"><rect x="863.0" y="258.0" width="18.0" height="15.8" rx="1.5" fill="#e0f2fe" stroke="#0369a1" stroke-width="1.25"/><rect x="859.0" y="260.6" width="7.9" height="5.7" rx="1.2" fill="#e0f2fe" stroke="#0369a1" stroke-width="1.25"/><rect x="859.0" y="267.7" width="7.9" height="5.7" rx="1.2" fill="#e0f2fe" stroke="#0369a1" stroke-width="1.25"/></g><text x="807.0" y="304.5" text-anchor="middle" dominant-baseline="middle" fill="#0c4a6e" font-size="14.0" textLength="47.4" lengthAdjust="spacing">Lfm.Api</text></g><g data-dediren-node-id="cosmos-runs"><rect data-dediren-node-shape="archimate_rectangle" x="1455.0" y="217.0" width="160.0" height="80.0" rx="0" fill="#d5e8d4" stroke="#4d7c0f" stroke-width="1.25"/><g data-dediren-node-decorator="archimate_artifact" data-dediren-icon-kind="artifact" data-dediren-icon-size="22"><path data-dediren-icon-part="artifact-document" d="M 1589.2 225.0 L 1599.8 225.0 L 1605.9 231.2 L 1605.9 244.8 L 1589.2 244.8 Z M 1599.8 225.0 L 1599.8 231.2 L 1605.9 231.2" fill="#d5e8d4" stroke="#4d7c0f" stroke-width="1.25"/></g><text x="1535.0" y="272.5" text-anchor="middle" dominant-baseline="middle" fill="#365314" font-size="14.0" textLength="88.7" lengthAdjust="spacing">runs container</text></g><g data-dediren-node-id="cosmos-raiders"><rect data-dediren-node-shape="archimate_rectangle" x="1455.0" y="357.0" width="160.0" height="80.0" rx="0" fill="#d5e8d4" stroke="#4d7c0f" stroke-width="1.25"/><g data-dediren-node-decorator="archimate_artifact" data-dediren-icon-kind="artifact" data-dediren-icon-size="22"><path data-dediren-icon-part="artifact-document" d="M 1589.2 365.0 L 1599.8 365.0 L 1605.9 371.2 L 1605.9 384.8 L 1589.2 384.8 Z M 1599.8 365.0 L 1599.8 371.2 L 1605.9 371.2" fill="#d5e8d4" stroke="#4d7c0f" stroke-width="1.25"/></g><text x="1535.0" y="404.5" text-anchor="middle" dominant-baseline="middle" fill="#365314" font-size="14.0"><tspan x="1535.0" dy="0" textLength="42.7" lengthAdjust="spacing">raiders</tspan><tspan x="1535.0" dy="16.0" textLength="57.5" lengthAdjust="spacing">container</tspan></text></g></g></svg>

