<svg xmlns="http://www.w3.org/2000/svg" width="1863" height="1086" viewBox="-12.0 -12.0 1863.0 1086.0"><rect x="-12.0" y="-12.0" width="1863.0" height="1086.0" fill="#ffffff"/><style>g.dediren-edge-highlighted &gt; path{stroke:#1f6feb;stroke-width:3;}</style><g font-family="Inter, Arial, sans-serif" font-size="14"><g data-dediren-group-id="ops-api-host"><rect x="743.0" y="316.0" width="988.0" height="670.0" rx="4" fill="#f8fafc" stroke="#94a3b8" stroke-width="1"/><text x="751.0" y="332.0" fill="#374151" font-size="12">Readiness API realization and host</text></g><g data-dediren-group-id="ops-readiness-observability"><rect x="108.0" y="12.0" width="379.0" height="416.0" rx="4" fill="#f8fafc" stroke="#94a3b8" stroke-width="1"/><text x="116.0" y="28.0" fill="#374151" font-size="12">Readiness dependency and telemetry</text></g><g data-dediren-edge-id="api-realizes-ops-service" data-dediren-edge-source="lfm-api" data-dediren-edge-target="ops-health-service"><marker id="marker-end-api-realizes-ops-service" data-dediren-edge-marker-end="hollow_triangle" markerWidth="10" markerHeight="10" refX="5" refY="5" orient="auto"><path d="M 1 1 L 9 5 L 1 9 Z" fill="#ffffff" stroke="#475569" stroke-width="1"/></marker><path d="M 1248.0 727.0 L 1248.0 783.0 Q 1248.0 791.0 1256.0 791.0 L 1597.0 791.0 Q 1605.0 791.0 1605.0 799.0 L 1605.0 855.0" fill="none" stroke="#475569" stroke-width="1.5" stroke-linecap="round" stroke-linejoin="round" stroke-dasharray="8 5" marker-end="url(#marker-end-api-realizes-ops-service)"/><text x="1426.5" y="809.0" text-anchor="middle" fill="none" font-size="15.4" font-weight="600" stroke="#ffffff" stroke-width="2">realizes</text><text x="1426.5" y="809.0" text-anchor="middle" fill="#334155" font-size="15.4" font-weight="600">realizes</text></g><g data-dediren-edge-id="function-app-hosts-api" data-dediren-edge-source="function-app" data-dediren-edge-target="lfm-api"><marker id="marker-end-function-app-hosts-api" data-dediren-edge-marker-end="open_arrow" markerWidth="10" markerHeight="10" refX="5" refY="5" orient="auto"><path d="M 1 1 L 9 5 L 1 9" fill="none" stroke="#2563eb" stroke-width="1.5"/></marker><path d="M 863.0 517.0 L 863.0 573.0 Q 863.0 581.0 871.0 581.0 L 1240.0 581.0 Q 1248.0 581.0 1248.0 589.0 L 1248.0 645.0" fill="none" stroke="#2563eb" stroke-width="1.5" stroke-linecap="round" stroke-linejoin="round" marker-end="url(#marker-end-function-app-hosts-api)"/><text x="1055.5" y="599.0" text-anchor="middle" fill="none" font-size="15.4" font-weight="600" stroke="#ffffff" stroke-width="2">hosts</text><text x="1055.5" y="599.0" text-anchor="middle" fill="#1e3a8a" font-size="15.4" font-weight="600">hosts</text></g><g data-dediren-edge-id="ops-service-accesses-cosmos" data-dediren-edge-source="ops-health-service" data-dediren-edge-target="cosmos-database"><marker id="marker-end-ops-service-accesses-cosmos" data-dediren-edge-marker-end="open_arrow" markerWidth="10" markerHeight="10" refX="5" refY="5" orient="auto"><path d="M 1 1 L 9 5 L 1 9" fill="none" stroke="#15803d" stroke-width="1.5"/></marker><path d="M 1691.0 901.0 L 1763.0 901.0 L 1819.0 901.0 Q 1827.0 901.0 1827.0 909.0 L 1827.0 1042.0 Q 1827.0 1050.0 1819.0 1050.0 L 1237.0 1050.0 L 297.5 1050.0 L 20.0 1050.0 Q 12.0 1050.0 12.0 1042.0 L 12.0 100.0 Q 12.0 92.0 20.0 92.0 L 76.0 92.0 L 276.0 92.0" fill="none" stroke="#15803d" stroke-width="1.5" stroke-linecap="round" stroke-linejoin="round" stroke-dasharray="8 5" marker-end="url(#marker-end-ops-service-accesses-cosmos)"/><text x="1745.0" y="919.0" text-anchor="middle" fill="none" font-size="15.4" font-weight="600" stroke="#ffffff" stroke-width="2">readiness</text><text x="1745.0" y="919.0" text-anchor="middle" fill="#166534" font-size="15.4" font-weight="600">readiness</text></g><g data-dediren-edge-id="app-insights-serves-function-app" data-dediren-edge-source="application-insights" data-dediren-edge-target="function-app"><marker id="marker-end-app-insights-serves-function-app" data-dediren-edge-marker-end="open_arrow" markerWidth="10" markerHeight="10" refX="5" refY="5" orient="auto"><path d="M 1 1 L 9 5 L 1 9" fill="none" stroke="#2563eb" stroke-width="1.5"/></marker><path d="M 276.0 268.0 L 220.0 268.0 Q 212.0 268.0 212.0 276.0 L 212.0 364.0 Q 212.0 372.0 220.0 372.0 L 361.5 372.0 L 519.0 372.0 L 711.0 372.0 L 863.5 372.0 L 1000.0 372.0 Q 1008.0 372.0 1008.0 380.0 L 1008.0 468.0 Q 1008.0 476.0 1000.0 476.0 L 944.0 476.0" fill="none" stroke="#2563eb" stroke-width="1.5" stroke-linecap="round" stroke-linejoin="round" marker-end="url(#marker-end-app-insights-serves-function-app)"/><text x="230.0" y="286.0" text-anchor="middle" fill="none" font-size="15.4" font-weight="600" stroke="#ffffff" stroke-width="2">telemetry</text><text x="230.0" y="286.0" text-anchor="middle" fill="#1e3a8a" font-size="15.4" font-weight="600">telemetry</text></g><g data-dediren-node-id="ops-health-service"><rect data-dediren-node-shape="archimate_rounded_rectangle" x="1520.0" y="856.0" width="170.0" height="90.0" rx="4" fill="#e8f3ff" stroke="#2563eb" stroke-width="1.5"/><g data-dediren-node-decorator="archimate_application_service" data-dediren-icon-kind="service" data-dediren-icon-size="22"><rect x="1662.0" y="865.0" width="22.0" height="13.6" rx="4.0" fill="#e8f3ff" stroke="#2563eb" stroke-width="1.5"/></g><text x="1605.0" y="884.9" text-anchor="middle" dominant-baseline="middle" fill="#172554" font-size="14.0"><tspan x="1605.0" dy="0">Operational</tspan><tspan x="1605.0" dy="16.0">readiness</tspan><tspan x="1605.0" dy="16.0">service</tspan></text></g><g data-dediren-node-id="lfm-api"><rect data-dediren-node-shape="archimate_rectangle" x="1168.0" y="646.0" width="160.0" height="80.0" rx="0" fill="#e8f3ff" stroke="#2563eb" stroke-width="1.5"/><g data-dediren-node-decorator="archimate_application_component" data-dediren-icon-kind="component" data-dediren-icon-size="22"><rect x="1304.0" y="655.0" width="18.0" height="15.8" rx="1.5" fill="#e8f3ff" stroke="#2563eb" stroke-width="1.5"/><rect x="1300.0" y="657.6" width="7.9" height="5.7" rx="1.2" fill="#e8f3ff" stroke="#2563eb" stroke-width="1.5"/><rect x="1300.0" y="664.7" width="7.9" height="5.7" rx="1.2" fill="#e8f3ff" stroke="#2563eb" stroke-width="1.5"/></g><text x="1248.0" y="686.0" text-anchor="middle" dominant-baseline="middle" fill="#172554" font-size="14.0">Lfm.Api</text></g><g data-dediren-node-id="function-app"><rect data-dediren-node-shape="archimate_rectangle" x="783.0" y="436.0" width="160.0" height="80.0" rx="0" fill="#ecfdf3" stroke="#16a34a" stroke-width="1.5"/><g data-dediren-node-decorator="archimate_technology_node" data-dediren-icon-kind="node" data-dediren-icon-size="22"><rect x="915.0" y="449.0" width="18.0" height="12.8" rx="1.5" fill="#ecfdf3" stroke="#16a34a" stroke-width="1.5"/><path data-dediren-icon-part="node-3d-edges" d="M 915.0 449.0 L 919.0 445.0 L 937.0 445.0 L 933.0 449.0 M 933.0 449.0 L 937.0 445.0 M 933.0 461.7 L 937.0 457.8 M 937.0 445.0 L 937.0 457.8" fill="none" stroke="#16a34a" stroke-width="1.5" stroke-linejoin="round"/></g><text x="863.0" y="459.9" text-anchor="middle" dominant-baseline="middle" fill="#14532d" font-size="14.0"><tspan x="863.0" dy="0">Azure</tspan><tspan x="863.0" dy="16.0">Function</tspan><tspan x="863.0" dy="16.0">App</tspan></text></g><g data-dediren-node-id="cosmos-database"><rect data-dediren-node-shape="archimate_rectangle" x="277.0" y="52.0" width="160.0" height="80.0" rx="0" fill="#f7fee7" stroke="#65a30d" stroke-width="1.5"/><g data-dediren-node-decorator="archimate_artifact" data-dediren-icon-kind="artifact" data-dediren-icon-size="22"><path data-dediren-icon-part="artifact-document" d="M 411.2 60.0 L 421.8 60.0 L 427.9 66.2 L 427.9 79.8 L 411.2 79.8 Z M 421.8 60.0 L 421.8 66.2 L 427.9 66.2" fill="#f7fee7" stroke="#65a30d" stroke-width="1.5"/></g><text x="357.0" y="84.0" text-anchor="middle" dominant-baseline="middle" fill="#365314" font-size="14.0"><tspan x="357.0" dy="0">Cosmos SQL</tspan><tspan x="357.0" dy="16.0">database</tspan></text></g><g data-dediren-node-id="application-insights"><rect data-dediren-node-shape="archimate_rectangle" x="277.0" y="228.0" width="170.0" height="80.0" rx="0" fill="#ecfdf3" stroke="#16a34a" stroke-width="1.5"/><g data-dediren-node-decorator="archimate_technology_node" data-dediren-icon-kind="node" data-dediren-icon-size="22"><rect x="419.0" y="241.0" width="18.0" height="12.8" rx="1.5" fill="#ecfdf3" stroke="#16a34a" stroke-width="1.5"/><path data-dediren-icon-part="node-3d-edges" d="M 419.0 241.0 L 423.0 237.0 L 441.0 237.0 L 437.0 241.0 M 437.0 241.0 L 441.0 237.0 M 437.0 253.7 L 441.0 249.8 M 441.0 237.0 L 441.0 249.8" fill="none" stroke="#16a34a" stroke-width="1.5" stroke-linejoin="round"/></g><text x="362.0" y="260.0" text-anchor="middle" dominant-baseline="middle" fill="#14532d" font-size="14.0"><tspan x="362.0" dy="0">Application</tspan><tspan x="362.0" dy="16.0">Insights</tspan></text></g></g><script>//<![CDATA[
(function(){
var root=document.currentScript&&document.currentScript.closest?document.currentScript.closest('svg'):null;
if(!root){root=document.querySelector('svg');}
if(!root){return;}
var selected=null;
function clear(){var hl=root.querySelectorAll('.dediren-edge-highlighted');for(var i=0;i<hl.length;i++){hl[i].classList.remove('dediren-edge-highlighted');}selected=null;}
function select(id){clear();var edges=root.querySelectorAll('[data-dediren-edge-source]');for(var i=0;i<edges.length;i++){var e=edges[i];if(e.getAttribute('data-dediren-edge-source')===id||e.getAttribute('data-dediren-edge-target')===id){e.classList.add('dediren-edge-highlighted');}}selected=id;}
root.addEventListener('click',function(ev){var t=ev.target;var n=t.closest?t.closest('[data-dediren-node-id]'):null;if(n){var id=n.getAttribute('data-dediren-node-id');if(id===selected){clear();}else{select(id);}}else{clear();}});
document.addEventListener('keydown',function(ev){if(ev.key==='Escape'){clear();}});
})();
//]]></script></svg>

