<svg xmlns="http://www.w3.org/2000/svg" width="2308" height="704" viewBox="-12.0 -12.0 2308.0 704.0"><rect x="-12.0" y="-12.0" width="2308.0" height="704.0" fill="#ffffff"/><g font-family="Inter, Arial, sans-serif" font-size="14"><g data-dediren-group-id="run-maintenance-ui"><rect x="76.0" y="428.0" width="241.0" height="160.0" rx="4" fill="#f8fafc" stroke="#94a3b8" stroke-width="1"/><text x="84.0" y="444.0" fill="#374151" font-size="12">Run maintenance UI</text></g><g data-dediren-group-id="run-maintenance-processes"><rect x="829.0" y="12.0" width="562.0" height="656.0" rx="4" fill="#f8fafc" stroke="#94a3b8" stroke-width="1"/><text x="837.0" y="28.0" fill="#374151" font-size="12">Run maintenance application processes</text></g><g data-dediren-group-id="run-maintenance-api-host"><rect x="12.0" y="92.0" width="305.0" height="240.0" rx="4" fill="#f8fafc" stroke="#94a3b8" stroke-width="1"/><text x="20.0" y="108.0" fill="#374151" font-size="12">Run management service</text></g><g data-dediren-group-id="run-maintenance-data"><rect x="1903.0" y="80.8" width="369.0" height="351.5" rx="4" fill="#f8fafc" stroke="#94a3b8" stroke-width="1"/><text x="1911.0" y="96.8" fill="#374151" font-size="12">Run maintenance data dependencies</text></g><g data-dediren-edge-id="run-maintenance-ui-serves-create"><marker id="marker-end-run-maintenance-ui-serves-create" data-dediren-edge-marker-end="open_arrow" markerWidth="10" markerHeight="10" refX="5" refY="5" orient="auto"><path d="M 1 1 L 9 5 L 1 9" fill="none" stroke="#2563eb" stroke-width="1.5"/></marker><path d="M 277.0 508.0 L 349.0 508.0 L 405.0 508.0 Q 413.0 508.0 413.0 516.0 L 413.0 636.0 Q 413.0 644.0 421.0 644.0 L 725.0 644.0 Q 733.0 644.0 733.0 636.0 L 733.0 596.0 Q 733.0 588.0 741.0 588.0 L 797.0 588.0 L 869.0 588.0" fill="none" stroke="#2563eb" stroke-width="1.5" stroke-linecap="round" stroke-linejoin="round" marker-end="url(#marker-end-run-maintenance-ui-serves-create)"/><text x="815.0" y="606.0" text-anchor="middle" fill="none" font-size="15.4" font-weight="600" stroke="#ffffff" stroke-width="2">create UI</text><text x="815.0" y="606.0" text-anchor="middle" fill="#1e3a8a" font-size="15.4" font-weight="600">create UI</text></g><g data-dediren-edge-id="run-maintenance-ui-serves-edit"><marker id="marker-end-run-maintenance-ui-serves-edit" data-dediren-edge-marker-end="open_arrow" markerWidth="10" markerHeight="10" refX="5" refY="5" orient="auto"><path d="M 1 1 L 9 5 L 1 9" fill="none" stroke="#2563eb" stroke-width="1.5"/></marker><path d="M 277.0 508.0 L 349.0 508.0 L 405.0 508.0 Q 413.0 508.0 413.0 500.0 L 413.0 180.0 Q 413.0 172.0 421.0 172.0 L 797.0 172.0 L 869.0 172.0" fill="none" stroke="#2563eb" stroke-width="1.5" stroke-linecap="round" stroke-linejoin="round" marker-end="url(#marker-end-run-maintenance-ui-serves-edit)"/><text x="833.0" y="190.0" text-anchor="middle" fill="none" font-size="15.4" font-weight="600" stroke="#ffffff" stroke-width="2">edit UI</text><text x="833.0" y="190.0" text-anchor="middle" fill="#1e3a8a" font-size="15.4" font-weight="600">edit UI</text></g><g data-dediren-edge-id="run-maintenance-ui-serves-delete"><marker id="marker-end-run-maintenance-ui-serves-delete" data-dediren-edge-marker-end="open_arrow" markerWidth="10" markerHeight="10" refX="5" refY="5" orient="auto"><path d="M 1 1 L 9 5 L 1 9" fill="none" stroke="#2563eb" stroke-width="1.5"/></marker><path d="M 277.0 508.0 L 349.0 508.0 L 597.0 508.0 Q 605.0 508.0 605.0 500.0 L 605.0 388.0 Q 605.0 380.0 613.0 380.0 L 797.0 380.0 L 869.0 380.0" fill="none" stroke="#2563eb" stroke-width="1.5" stroke-linecap="round" stroke-linejoin="round" marker-end="url(#marker-end-run-maintenance-ui-serves-delete)"/><text x="815.0" y="398.0" text-anchor="middle" fill="none" font-size="15.4" font-weight="600" stroke="#ffffff" stroke-width="2">delete UI</text><text x="815.0" y="398.0" text-anchor="middle" fill="#1e3a8a" font-size="15.4" font-weight="600">delete UI</text></g><g data-dediren-edge-id="run-service-serves-create"><marker id="marker-end-run-service-serves-create" data-dediren-edge-marker-end="open_arrow" markerWidth="10" markerHeight="10" refX="5" refY="5" orient="auto"><path d="M 1 1 L 9 5 L 1 9" fill="none" stroke="#2563eb" stroke-width="1.5"/></marker><g data-dediren-line-jump-masks="run-service-serves-create"><path d="M 407.0 276.0 Q 413.0 270.0 419.0 276.0" fill="none" stroke="#ffffff" stroke-width="6"/><path d="M 477.0 502.0 Q 483.0 508.0 477.0 514.0" fill="none" stroke="#ffffff" stroke-width="6"/></g><path d="M 116.0 172.0 L 60.0 172.0 Q 52.0 172.0 52.0 180.0 L 52.0 268.0 Q 52.0 276.0 60.0 276.0 L 196.5 276.0 L 349.0 276.0 L 407.0 276.0 Q 413.0 270.0 419.0 276.0 L 469.0 276.0 Q 477.0 276.0 477.0 284.0 L 477.0 502.0 Q 483.0 508.0 477.0 514.0 L 477.0 568.0 Q 477.0 576.0 485.0 576.0 L 661.0 576.0 Q 669.0 576.0 669.0 568.0 L 669.0 492.0 Q 669.0 484.0 677.0 484.0 L 797.0 484.0 L 950.0 484.0 L 1087.0 484.0 Q 1095.0 484.0 1095.0 492.0 L 1095.0 567.3 Q 1095.0 575.3 1087.0 575.3 L 1031.0 575.3" fill="none" stroke="#2563eb" stroke-width="1.5" stroke-linecap="round" stroke-linejoin="round" marker-end="url(#marker-end-run-service-serves-create)"/><text x="1063.0" y="593.3" text-anchor="middle" fill="none" font-size="15.4" font-weight="600" stroke="#ffffff" stroke-width="2">create</text><text x="1063.0" y="593.3" text-anchor="middle" fill="#1e3a8a" font-size="15.4" font-weight="600">create</text></g><g data-dediren-edge-id="run-service-serves-edit"><marker id="marker-end-run-service-serves-edit" data-dediren-edge-marker-end="open_arrow" markerWidth="10" markerHeight="10" refX="5" refY="5" orient="auto"><path d="M 1 1 L 9 5 L 1 9" fill="none" stroke="#2563eb" stroke-width="1.5"/></marker><g data-dediren-line-jump-masks="run-service-serves-edit"><path d="M 407.0 276.0 Q 413.0 270.0 419.0 276.0" fill="none" stroke="#ffffff" stroke-width="6"/><path d="M 477.0 166.0 Q 483.0 172.0 477.0 178.0" fill="none" stroke="#ffffff" stroke-width="6"/></g><path d="M 116.0 172.0 L 60.0 172.0 Q 52.0 172.0 52.0 180.0 L 52.0 268.0 Q 52.0 276.0 60.0 276.0 L 196.5 276.0 L 349.0 276.0 L 407.0 276.0 Q 413.0 270.0 419.0 276.0 L 469.0 276.0 Q 477.0 276.0 477.0 268.0 L 477.0 178.0 Q 483.0 172.0 477.0 166.0 L 477.0 76.0 Q 477.0 68.0 485.0 68.0 L 797.0 68.0 L 950.0 68.0 L 1087.0 68.0 Q 1095.0 68.0 1095.0 76.0 L 1095.0 155.5 Q 1095.0 163.5 1087.0 163.5 L 1031.0 163.5" fill="none" stroke="#2563eb" stroke-width="1.5" stroke-linecap="round" stroke-linejoin="round" marker-end="url(#marker-end-run-service-serves-edit)"/><text x="1063.0" y="181.5" text-anchor="middle" fill="none" font-size="15.4" font-weight="600" stroke="#ffffff" stroke-width="2">edit</text><text x="1063.0" y="181.5" text-anchor="middle" fill="#1e3a8a" font-size="15.4" font-weight="600">edit</text></g><g data-dediren-edge-id="run-service-serves-delete"><marker id="marker-end-run-service-serves-delete" data-dediren-edge-marker-end="open_arrow" markerWidth="10" markerHeight="10" refX="5" refY="5" orient="auto"><path d="M 1 1 L 9 5 L 1 9" fill="none" stroke="#2563eb" stroke-width="1.5"/></marker><g data-dediren-line-jump-masks="run-service-serves-delete"><path d="M 407.0 276.0 Q 413.0 270.0 419.0 276.0" fill="none" stroke="#ffffff" stroke-width="6"/></g><path d="M 116.0 172.0 L 60.0 172.0 Q 52.0 172.0 52.0 180.0 L 52.0 268.0 Q 52.0 276.0 60.0 276.0 L 196.5 276.0 L 349.0 276.0 L 407.0 276.0 Q 413.0 270.0 419.0 276.0 L 797.0 276.0 L 950.0 276.0 L 1087.0 276.0 Q 1095.0 276.0 1095.0 284.0 L 1095.0 359.3 Q 1095.0 367.3 1087.0 367.3 L 1031.0 367.3" fill="none" stroke="#2563eb" stroke-width="1.5" stroke-linecap="round" stroke-linejoin="round" marker-end="url(#marker-end-run-service-serves-delete)"/><text x="1063.0" y="385.3" text-anchor="middle" fill="none" font-size="15.4" font-weight="600" stroke="#ffffff" stroke-width="2">delete</text><text x="1063.0" y="385.3" text-anchor="middle" fill="#1e3a8a" font-size="15.4" font-weight="600">delete</text></g><g data-dediren-edge-id="create-run-accesses-runs"><marker id="marker-end-create-run-accesses-runs" data-dediren-edge-marker-end="open_arrow" markerWidth="10" markerHeight="10" refX="5" refY="5" orient="auto"><path d="M 1 1 L 9 5 L 1 9" fill="none" stroke="#15803d" stroke-width="1.5"/></marker><path d="M 1031.0 588.0 L 1215.0 588.0 Q 1223.0 588.0 1223.0 580.0 L 1223.0 304.8 Q 1223.0 296.8 1231.0 296.8 L 1423.0 296.8 L 1671.0 296.8 Q 1679.0 296.8 1679.0 288.8 L 1679.0 168.8 Q 1679.0 160.8 1687.0 160.8 L 1871.0 160.8 L 2071.0 160.8" fill="none" stroke="#15803d" stroke-width="1.5" stroke-linecap="round" stroke-linejoin="round" stroke-dasharray="8 5" marker-end="url(#marker-end-create-run-accesses-runs)"/><text x="1205.0" y="578.0" text-anchor="middle" fill="none" font-size="15.4" font-weight="600" stroke="#ffffff" stroke-width="2">write run</text><text x="1205.0" y="578.0" text-anchor="middle" fill="#166534" font-size="15.4" font-weight="600">write run</text></g><g data-dediren-edge-id="create-run-accesses-raiders"><marker id="marker-end-create-run-accesses-raiders" data-dediren-edge-marker-end="open_arrow" markerWidth="10" markerHeight="10" refX="5" refY="5" orient="auto"><path d="M 1 1 L 9 5 L 1 9" fill="none" stroke="#15803d" stroke-width="1.5"/></marker><path d="M 1031.0 600.8 L 1279.0 600.8 Q 1287.0 600.8 1287.0 592.8 L 1287.0 352.8 Q 1287.0 344.8 1295.0 344.8 L 1423.0 344.8 L 1543.0 344.8 Q 1551.0 344.8 1551.0 352.8 L 1551.0 356.8 Q 1551.0 364.8 1559.0 364.8 L 1735.0 364.8 Q 1743.0 364.8 1743.0 356.8 L 1743.0 336.3 Q 1743.0 328.3 1751.0 328.3 L 1871.0 328.3 L 2071.0 328.3" fill="none" stroke="#15803d" stroke-width="1.5" stroke-linecap="round" stroke-linejoin="round" stroke-dasharray="8 5" marker-end="url(#marker-end-create-run-accesses-raiders)"/><text x="1159.0" y="618.8" text-anchor="middle" fill="none" font-size="15.4" font-weight="600" stroke="#ffffff" stroke-width="2">creator guild</text><text x="1159.0" y="618.8" text-anchor="middle" fill="#166534" font-size="15.4" font-weight="600">creator guild</text></g><g data-dediren-edge-id="edit-run-accesses-runs"><marker id="marker-end-edit-run-accesses-runs" data-dediren-edge-marker-end="open_arrow" markerWidth="10" markerHeight="10" refX="5" refY="5" orient="auto"><path d="M 1 1 L 9 5 L 1 9" fill="none" stroke="#15803d" stroke-width="1.5"/></marker><path d="M 1031.0 180.5 L 1423.0 180.5 L 1479.0 180.5 Q 1487.0 180.5 1487.0 188.5 L 1487.0 220.8 Q 1487.0 228.8 1495.0 228.8 L 1671.0 228.8 Q 1679.0 228.8 1679.0 220.8 L 1679.0 168.8 Q 1679.0 160.8 1687.0 160.8 L 1871.0 160.8 L 2071.0 160.8" fill="none" stroke="#15803d" stroke-width="1.5" stroke-linecap="round" stroke-linejoin="round" stroke-dasharray="8 5" marker-end="url(#marker-end-edit-run-accesses-runs)"/><text x="1227.0" y="198.5" text-anchor="middle" fill="none" font-size="15.4" font-weight="600" stroke="#ffffff" stroke-width="2">read/write run</text><text x="1227.0" y="198.5" text-anchor="middle" fill="#166534" font-size="15.4" font-weight="600">read/write run</text></g><g data-dediren-edge-id="delete-run-accesses-runs"><marker id="marker-end-delete-run-accesses-runs" data-dediren-edge-marker-end="open_arrow" markerWidth="10" markerHeight="10" refX="5" refY="5" orient="auto"><path d="M 1 1 L 9 5 L 1 9" fill="none" stroke="#15803d" stroke-width="1.5"/></marker><path d="M 1031.0 380.0 L 1151.0 380.0 Q 1159.0 380.0 1159.0 372.0 L 1159.0 140.5 Q 1159.0 132.5 1167.0 132.5 L 1423.0 132.5 L 1543.0 132.5 Q 1551.0 132.5 1551.0 140.5 L 1551.0 152.8 Q 1551.0 160.8 1559.0 160.8 L 1871.0 160.8 L 2071.0 160.8" fill="none" stroke="#15803d" stroke-width="1.5" stroke-linecap="round" stroke-linejoin="round" stroke-dasharray="8 5" marker-end="url(#marker-end-delete-run-accesses-runs)"/><text x="1141.0" y="370.0" text-anchor="middle" fill="none" font-size="15.4" font-weight="600" stroke="#ffffff" stroke-width="2">delete run</text><text x="1141.0" y="370.0" text-anchor="middle" fill="#166534" font-size="15.4" font-weight="600">delete run</text></g><g data-dediren-edge-id="delete-run-accesses-raiders"><marker id="marker-end-delete-run-accesses-raiders" data-dediren-edge-marker-end="open_arrow" markerWidth="10" markerHeight="10" refX="5" refY="5" orient="auto"><path d="M 1 1 L 9 5 L 1 9" fill="none" stroke="#15803d" stroke-width="1.5"/></marker><g data-dediren-line-jump-masks="delete-run-accesses-raiders"><path d="M 1217.0 392.8 Q 1223.0 386.8 1229.0 392.8" fill="none" stroke="#ffffff" stroke-width="6"/><path d="M 1281.0 392.8 Q 1287.0 386.8 1293.0 392.8" fill="none" stroke="#ffffff" stroke-width="6"/></g><path d="M 1031.0 392.8 L 1217.0 392.8 Q 1223.0 386.8 1229.0 392.8 L 1281.0 392.8 Q 1287.0 386.8 1293.0 392.8 L 1423.0 392.8 L 1479.0 392.8 Q 1487.0 392.8 1487.0 400.8 L 1487.0 424.8 Q 1487.0 432.8 1495.0 432.8 L 1799.0 432.8 Q 1807.0 432.8 1807.0 424.8 L 1807.0 384.3 Q 1807.0 376.3 1815.0 376.3 L 1871.0 376.3 L 1999.0 376.3 Q 2007.0 376.3 2007.0 368.3 L 2007.0 353.3 Q 2007.0 345.3 2015.0 345.3 L 2071.0 345.3" fill="none" stroke="#15803d" stroke-width="1.5" stroke-linecap="round" stroke-linejoin="round" stroke-dasharray="8 5" marker-end="url(#marker-end-delete-run-accesses-raiders)"/><text x="1227.0" y="410.8" text-anchor="middle" fill="none" font-size="15.4" font-weight="600" stroke="#ffffff" stroke-width="2">permission context</text><text x="1227.0" y="410.8" text-anchor="middle" fill="#166534" font-size="15.4" font-weight="600">permission context</text></g><g data-dediren-node-id="run-maintenance-ui-entry"><rect data-dediren-node-shape="archimate_rectangle" x="116.0" y="468.0" width="160.0" height="80.0" rx="0" fill="#e8f3ff" stroke="#2563eb" stroke-width="1.5"/><g data-dediren-node-decorator="archimate_application_component" data-dediren-icon-kind="component" data-dediren-icon-size="22"><rect x="252.8" y="478.8" width="15.8" height="14.1" fill="#e8f3ff" stroke="#2563eb" stroke-width="1.5"/><rect x="248.0" y="481.4" width="6.2" height="4.0" fill="#e8f3ff" stroke="#2563eb" stroke-width="1.5"/><rect x="248.0" y="487.6" width="6.2" height="4.0" fill="#e8f3ff" stroke="#2563eb" stroke-width="1.5"/></g><text x="196.0" y="512.7" text-anchor="middle" fill="#172554">Run maintenance UI pages</text></g><g data-dediren-node-id="create-run-process"><rect data-dediren-node-shape="archimate_rectangle" x="870.0" y="548.0" width="160.0" height="80.0" rx="4" fill="#f8fafc" stroke="#334155" stroke-width="1.5"/><text x="950.0" y="592.7" text-anchor="middle" fill="#0f172a">Create run</text></g><g data-dediren-node-id="edit-run-process"><rect data-dediren-node-shape="archimate_rectangle" x="870.0" y="132.0" width="160.0" height="80.0" rx="4" fill="#f8fafc" stroke="#334155" stroke-width="1.5"/><text x="950.0" y="176.7" text-anchor="middle" fill="#0f172a">Edit run</text></g><g data-dediren-node-id="delete-run-process"><rect data-dediren-node-shape="archimate_rectangle" x="870.0" y="340.0" width="160.0" height="80.0" rx="4" fill="#f8fafc" stroke="#334155" stroke-width="1.5"/><text x="950.0" y="384.7" text-anchor="middle" fill="#0f172a">Delete run</text></g><g data-dediren-node-id="run-management-service"><rect data-dediren-node-shape="archimate_rounded_rectangle" x="117.0" y="132.0" width="160.0" height="80.0" rx="4" fill="#e8f3ff" stroke="#2563eb" stroke-width="1.5"/><g data-dediren-node-decorator="archimate_application_service" data-dediren-icon-kind="service" data-dediren-icon-size="22"><rect x="249.0" y="143.6" width="22.0" height="11.0" rx="4.0" fill="#e8f3ff" stroke="#2563eb" stroke-width="1.5"/></g><text x="197.0" y="176.7" text-anchor="middle" fill="#172554">Run management service</text></g><g data-dediren-node-id="cosmos-runs"><rect data-dediren-node-shape="archimate_rectangle" x="2072.0" y="120.8" width="160.0" height="80.0" rx="0" fill="#f7fee7" stroke="#65a30d" stroke-width="1.5"/><g data-dediren-node-decorator="archimate_artifact" data-dediren-icon-kind="artifact" data-dediren-icon-size="22"><path data-dediren-icon-part="artifact" d="M 2204 129.75 L 2226 129.75 L 2215 145.59 Z" fill="#f7fee7" stroke="#65a30d" stroke-width="1.5"/></g><text x="2152.0" y="165.4" text-anchor="middle" fill="#365314">runs container</text></g><g data-dediren-node-id="cosmos-raiders"><rect data-dediren-node-shape="archimate_rectangle" x="2072.0" y="296.8" width="160.0" height="80.0" rx="0" fill="#f7fee7" stroke="#65a30d" stroke-width="1.5"/><g data-dediren-node-decorator="archimate_artifact" data-dediren-icon-kind="artifact" data-dediren-icon-size="22"><path data-dediren-icon-part="artifact" d="M 2204 305.75 L 2226 305.75 L 2215 321.59 Z" fill="#f7fee7" stroke="#65a30d" stroke-width="1.5"/></g><text x="2152.0" y="341.4" text-anchor="middle" fill="#365314">raiders container</text></g></g></svg>
