<svg xmlns="http://www.w3.org/2000/svg" width="1475" height="1057" viewBox="-12.0 -12.0 1475.5 1057.0"><rect x="-12.0" y="-12.0" width="1475.5" height="1057.0" fill="#ffffff"/><g font-family="Inter, Arial, sans-serif" font-size="14.0"><g data-dediren-group-id="run-signup-realization-ui-flow"><rect x="779.0" y="340.0" width="607.0" height="681.0" rx="4.0" fill="#f8fafc" stroke="#94a3b8" stroke-width="1.0"/><text x="787.0" y="356.0" fill="#374151" font-size="12.0">Run signup UI flow</text></g><g data-dediren-group-id="run-signup-realization-api-host"><rect x="12.0" y="20.5" width="559.0" height="176.0" rx="4.0" fill="#f8fafc" stroke="#94a3b8" stroke-width="1.0"/><text x="20.0" y="36.5" fill="#374151" font-size="12.0">API realization</text></g><g data-dediren-group-id="run-signup-realization-data"><rect x="779.0" y="12.0" width="209.0" height="268.0" rx="4.0" fill="#f8fafc" stroke="#94a3b8" stroke-width="1.0"/><text x="787.0" y="28.0" fill="#374151" font-size="12.0">Signup data dependencies</text></g><g data-dediren-edge-id="runs-ui-serves-browse"><defs><marker id="marker-end-runs-ui-serves-browse" data-dediren-edge-marker-end="open_arrow" markerWidth="9" markerHeight="9" refX="8" refY="4.5" orient="auto" markerUnits="strokeWidth"><path d="M 1 1 L 8 4.5 L 1 8" fill="none" stroke="#2563eb" stroke-width="1.3" stroke-linecap="round" stroke-linejoin="round"/></marker></defs><path d="M 964.0 629.0 L 1128.0 629.0" fill="none" stroke="#2563eb" stroke-width="1.5" stroke-linecap="round" stroke-linejoin="round" marker-end="url(#marker-end-runs-ui-serves-browse)"/><text x="1046.0" y="620.6" text-anchor="middle" fill="#1e3a8a" stroke="#ffffff" stroke-width="4" stroke-linejoin="round" paint-order="stroke">UI</text></g><g data-dediren-edge-id="runs-ui-serves-inspect"><defs><marker id="marker-end-runs-ui-serves-inspect" data-dediren-edge-marker-end="open_arrow" markerWidth="9" markerHeight="9" refX="8" refY="4.5" orient="auto" markerUnits="strokeWidth"><path d="M 1 1 L 8 4.5 L 1 8" fill="none" stroke="#2563eb" stroke-width="1.3" stroke-linecap="round" stroke-linejoin="round"/></marker></defs><path d="M 964.0 641.8 L 1028.0 641.8 Q 1036.0 641.8 1036.0 649.8 L 1036.0 761.0 Q 1036.0 769.0 1044.0 769.0 L 1128.0 769.0" fill="none" stroke="#2563eb" stroke-width="1.5" stroke-linecap="round" stroke-linejoin="round" marker-end="url(#marker-end-runs-ui-serves-inspect)"/><text x="1026.7" y="658.5" text-anchor="middle" fill="#1e3a8a" stroke="#ffffff" stroke-width="4" stroke-linejoin="round" paint-order="stroke">UI</text></g><g data-dediren-edge-id="runs-ui-serves-signup"><defs><marker id="marker-end-runs-ui-serves-signup" data-dediren-edge-marker-end="open_arrow" markerWidth="9" markerHeight="9" refX="8" refY="4.5" orient="auto" markerUnits="strokeWidth"><path d="M 1 1 L 8 4.5 L 1 8" fill="none" stroke="#2563eb" stroke-width="1.3" stroke-linecap="round" stroke-linejoin="round"/></marker></defs><path d="M 964.0 654.5 L 988.0 654.5 Q 996.0 654.5 996.0 662.5 L 996.0 901.0 Q 996.0 909.0 1004.0 909.0 L 1128.0 909.0" fill="none" stroke="#2563eb" stroke-width="1.5" stroke-linecap="round" stroke-linejoin="round" marker-end="url(#marker-end-runs-ui-serves-signup)"/><text x="980.0" y="671.3" text-anchor="middle" fill="#1e3a8a" stroke="#ffffff" stroke-width="4" stroke-linejoin="round" paint-order="stroke">UI</text></g><g data-dediren-edge-id="run-service-serves-browse"><defs><marker id="marker-end-run-service-serves-browse" data-dediren-edge-marker-end="open_arrow" markerWidth="9" markerHeight="9" refX="8" refY="4.5" orient="auto" markerUnits="strokeWidth"><path d="M 1 1 L 8 4.5 L 1 8" fill="none" stroke="#2563eb" stroke-width="1.3" stroke-linecap="round" stroke-linejoin="round"/></marker></defs><path d="M 321.0 76.0 L 297.0 76.0 Q 289.0 76.0 289.0 84.0 L 289.0 148.5 Q 289.0 156.5 297.0 156.5 L 402.0 156.5 L 591.0 156.5 L 615.0 156.5 Q 623.0 156.5 623.0 164.5 L 623.0 552.0 Q 623.0 560.0 631.0 560.0 L 685.5 560.0 Q 687.0 560.0 687.0 558.5 L 687.0 557.0 L 759.0 557.0 L 883.5 557.0 L 1068.0 557.0 L 1209.0 557.0 L 1314.0 557.0 Q 1322.0 557.0 1322.0 565.0 L 1322.0 621.0 Q 1322.0 629.0 1314.0 629.0 L 1290.0 629.0" fill="none" stroke="#2563eb" stroke-width="1.5" stroke-linecap="round" stroke-linejoin="round" marker-end="url(#marker-end-run-service-serves-browse)"/><text x="1371.7" y="645.8" text-anchor="middle" fill="#1e3a8a" stroke="#ffffff" stroke-width="4" stroke-linejoin="round" paint-order="stroke">realization</text></g><g data-dediren-edge-id="run-service-serves-inspect"><defs><marker id="marker-end-run-service-serves-inspect" data-dediren-edge-marker-end="open_arrow" markerWidth="9" markerHeight="9" refX="8" refY="4.5" orient="auto" markerUnits="strokeWidth"><path d="M 1 1 L 8 4.5 L 1 8" fill="none" stroke="#2563eb" stroke-width="1.3" stroke-linecap="round" stroke-linejoin="round"/></marker></defs><path d="M 321.0 76.0 L 297.0 76.0 Q 289.0 76.0 289.0 84.0 L 289.0 148.5 Q 289.0 156.5 297.0 156.5 L 402.0 156.5 L 591.0 156.5 L 615.0 156.5 Q 623.0 156.5 623.0 164.5 L 623.0 508.0 Q 623.0 516.0 631.0 516.0 L 759.0 516.0 L 883.5 516.0 L 1068.0 516.0 L 1209.0 516.0 L 1354.0 516.0 Q 1362.0 516.0 1362.0 524.0 L 1362.0 761.0 Q 1362.0 769.0 1354.0 769.0 L 1290.0 769.0" fill="none" stroke="#2563eb" stroke-width="1.5" stroke-linecap="round" stroke-linejoin="round" marker-end="url(#marker-end-run-service-serves-inspect)"/><text x="1391.7" y="785.8" text-anchor="middle" fill="#1e3a8a" stroke="#ffffff" stroke-width="4" stroke-linejoin="round" paint-order="stroke">realization</text></g><g data-dediren-edge-id="run-service-serves-signup"><defs><marker id="marker-end-run-service-serves-signup" data-dediren-edge-marker-end="open_arrow" markerWidth="9" markerHeight="9" refX="8" refY="4.5" orient="auto" markerUnits="strokeWidth"><path d="M 1 1 L 8 4.5 L 1 8" fill="none" stroke="#2563eb" stroke-width="1.3" stroke-linecap="round" stroke-linejoin="round"/></marker></defs><path d="M 321.0 76.0 L 297.0 76.0 Q 289.0 76.0 289.0 84.0 L 289.0 148.5 Q 289.0 156.5 297.0 156.5 L 402.0 156.5 L 591.0 156.5 L 615.0 156.5 Q 623.0 156.5 623.0 164.5 L 623.0 596.0 Q 623.0 604.0 631.0 604.0 L 679.0 604.0 Q 687.0 604.0 687.0 612.0 L 687.0 973.0 Q 687.0 981.0 695.0 981.0 L 759.0 981.0 L 883.5 981.0 L 1068.0 981.0 L 1209.0 981.0 L 1314.0 981.0 Q 1322.0 981.0 1322.0 973.0 L 1322.0 917.0 Q 1322.0 909.0 1314.0 909.0 L 1290.0 909.0" fill="none" stroke="#2563eb" stroke-width="1.5" stroke-linecap="round" stroke-linejoin="round" marker-end="url(#marker-end-run-service-serves-signup)"/><text x="1371.7" y="900.6" text-anchor="middle" fill="#1e3a8a" stroke="#ffffff" stroke-width="4" stroke-linejoin="round" paint-order="stroke">realization</text></g><g data-dediren-edge-id="run-service-serves-cancel"><defs><marker id="marker-end-run-service-serves-cancel" data-dediren-edge-marker-end="open_arrow" markerWidth="9" markerHeight="9" refX="8" refY="4.5" orient="auto" markerUnits="strokeWidth"><path d="M 1 1 L 8 4.5 L 1 8" fill="none" stroke="#2563eb" stroke-width="1.3" stroke-linecap="round" stroke-linejoin="round"/></marker></defs><path d="M 321.0 76.0 L 297.0 76.0 Q 289.0 76.0 289.0 84.0 L 289.0 148.5 Q 289.0 156.5 297.0 156.5 L 402.0 156.5 L 591.0 156.5 L 620.8 156.5 Q 623.0 156.5 623.0 158.8 L 623.0 159.9 Q 623.0 161.0 624.1 161.0 L 679.0 161.0 Q 687.0 161.0 687.0 169.0 L 687.0 468.0 Q 687.0 476.0 695.0 476.0 L 759.0 476.0 L 883.5 476.0 L 988.0 476.0 Q 996.0 476.0 996.0 468.0 L 996.0 412.0 Q 996.0 404.0 988.0 404.0 L 964.0 404.0" fill="none" stroke="#2563eb" stroke-width="1.5" stroke-linecap="round" stroke-linejoin="round" marker-end="url(#marker-end-run-service-serves-cancel)"/><text x="1045.7" y="395.6" text-anchor="middle" fill="#1e3a8a" stroke="#ffffff" stroke-width="4" stroke-linejoin="round" paint-order="stroke">realization</text></g><g data-dediren-edge-id="api-realizes-run-service"><defs><marker id="marker-end-api-realizes-run-service" data-dediren-edge-marker-end="hollow_triangle" markerWidth="10" markerHeight="10" refX="9" refY="5" orient="auto" markerUnits="strokeWidth"><path d="M 1 1 L 9 5 L 1 9 z" fill="#ffffff" stroke="#475569" stroke-width="1.2"/></marker></defs><g data-dediren-line-jump-masks="api-realizes-run-service"><path d="M 283.0 93.0 Q 289.0 87.0 295.0 93.0" fill="none" stroke="#ffffff" stroke-width="5.5" stroke-linecap="round" stroke-linejoin="round"/></g><path d="M 197.0 93.0 L 283.0 93.0 Q 289.0 87.0 295.0 93.0 L 321.0 93.0" fill="none" stroke="#475569" stroke-width="1.5" stroke-linecap="round" stroke-linejoin="round" stroke-dasharray="8 5" marker-end="url(#marker-end-api-realizes-run-service)"/><text x="259.0" y="66.6" text-anchor="middle" fill="#334155" stroke="#ffffff" stroke-width="4" stroke-linejoin="round" paint-order="stroke">realizes</text></g><g data-dediren-edge-id="run-service-accesses-runs"><defs><marker id="marker-end-run-service-accesses-runs" data-dediren-edge-marker-end="open_arrow" markerWidth="9" markerHeight="9" refX="8" refY="4.5" orient="auto" markerUnits="strokeWidth"><path d="M 1 1 L 8 4.5 L 1 8" fill="none" stroke="#15803d" stroke-width="1.3" stroke-linecap="round" stroke-linejoin="round"/></marker></defs><path d="M 483.0 76.0 L 591.0 76.0 L 759.0 76.0 L 803.0 76.0" fill="none" stroke="#15803d" stroke-width="1.5" stroke-linecap="round" stroke-linejoin="round" stroke-dasharray="8 5" marker-end="url(#marker-end-run-service-accesses-runs)"/><text x="537.0" y="67.6" text-anchor="middle" fill="#166534" stroke="#ffffff" stroke-width="4" stroke-linejoin="round" paint-order="stroke">reads/writes</text></g><g data-dediren-edge-id="run-service-accesses-raiders"><defs><marker id="marker-end-run-service-accesses-raiders" data-dediren-edge-marker-end="open_arrow" markerWidth="9" markerHeight="9" refX="8" refY="4.5" orient="auto" markerUnits="strokeWidth"><path d="M 1 1 L 8 4.5 L 1 8" fill="none" stroke="#15803d" stroke-width="1.3" stroke-linecap="round" stroke-linejoin="round"/></marker></defs><path d="M 483.0 93.0 L 507.5 93.0 Q 515.0 93.0 515.0 100.5 L 515.0 104.2 Q 515.0 108.0 518.8 108.0 L 591.0 108.0 L 618.5 108.0 Q 623.0 108.0 623.0 112.5 L 623.0 114.8 Q 623.0 117.0 625.2 117.0 L 719.0 117.0 Q 727.0 117.0 727.0 125.0 L 727.0 208.0 Q 727.0 216.0 735.0 216.0 L 759.0 216.0 L 803.0 216.0" fill="none" stroke="#15803d" stroke-width="1.5" stroke-linecap="round" stroke-linejoin="round" stroke-dasharray="8 5" marker-end="url(#marker-end-run-service-accesses-raiders)"/><text x="577.8" y="109.8" text-anchor="middle" fill="#166534" stroke="#ffffff" stroke-width="4" stroke-linejoin="round" paint-order="stroke">signup options</text></g><g data-dediren-node-id="browse-open-runs"><rect data-dediren-node-shape="archimate_rounded_rectangle" x="1129.0" y="589.0" width="160.0" height="80.0" rx="4.0" fill="#fefce8" stroke="#a16207" stroke-width="1.5"/><g data-dediren-node-decorator="archimate_business_process" data-dediren-icon-kind="process" data-dediren-icon-size="22"><path data-dediren-icon-part="process-arrow" d="M 1261.0 603.3 L 1274.6 603.3 L 1274.6 598.0 L 1283.0 605.9 L 1274.6 613.8 L 1274.6 608.6 L 1261.0 608.6 Z" fill="#fefce8" stroke="#a16207" stroke-width="1.5"/></g><text x="1209.0" y="629.0" text-anchor="middle" dominant-baseline="middle" fill="#713f12" font-size="14.0">Browse open runs</text></g><g data-dediren-node-id="inspect-run-detail"><rect data-dediren-node-shape="archimate_rounded_rectangle" x="1129.0" y="729.0" width="160.0" height="80.0" rx="4.0" fill="#fefce8" stroke="#a16207" stroke-width="1.5"/><g data-dediren-node-decorator="archimate_business_process" data-dediren-icon-kind="process" data-dediren-icon-size="22"><path data-dediren-icon-part="process-arrow" d="M 1261.0 743.3 L 1274.6 743.3 L 1274.6 738.0 L 1283.0 745.9 L 1274.6 753.8 L 1274.6 748.6 L 1261.0 748.6 Z" fill="#fefce8" stroke="#a16207" stroke-width="1.5"/></g><text x="1209.0" y="761.0" text-anchor="middle" dominant-baseline="middle" fill="#713f12" font-size="14.0"><tspan x="1209.0" dy="0">Inspect run</tspan><tspan x="1209.0" dy="16.0">detail</tspan></text></g><g data-dediren-node-id="sign-up-for-run"><rect data-dediren-node-shape="archimate_rounded_rectangle" x="1129.0" y="869.0" width="160.0" height="80.0" rx="4.0" fill="#fefce8" stroke="#a16207" stroke-width="1.5"/><g data-dediren-node-decorator="archimate_business_process" data-dediren-icon-kind="process" data-dediren-icon-size="22"><path data-dediren-icon-part="process-arrow" d="M 1261.0 883.3 L 1274.6 883.3 L 1274.6 878.0 L 1283.0 885.9 L 1274.6 893.8 L 1274.6 888.6 L 1261.0 888.6 Z" fill="#fefce8" stroke="#a16207" stroke-width="1.5"/></g><text x="1209.0" y="909.0" text-anchor="middle" dominant-baseline="middle" fill="#713f12" font-size="14.0">Sign up for run</text></g><g data-dediren-node-id="cancel-signup"><rect data-dediren-node-shape="archimate_rounded_rectangle" x="803.0" y="364.0" width="160.0" height="80.0" rx="4.0" fill="#fefce8" stroke="#a16207" stroke-width="1.5"/><g data-dediren-node-decorator="archimate_business_process" data-dediren-icon-kind="process" data-dediren-icon-size="22"><path data-dediren-icon-part="process-arrow" d="M 935.0 378.3 L 948.6 378.3 L 948.6 373.0 L 957.0 380.9 L 948.6 388.8 L 948.6 383.6 L 935.0 383.6 Z" fill="#fefce8" stroke="#a16207" stroke-width="1.5"/></g><text x="883.0" y="404.0" text-anchor="middle" dominant-baseline="middle" fill="#713f12" font-size="14.0">Cancel signup</text></g><g data-dediren-node-id="runs-ui-entry"><rect data-dediren-node-shape="archimate_rectangle" x="803.0" y="601.8" width="160.0" height="80.0" rx="0" fill="#e8f3ff" stroke="#2563eb" stroke-width="1.5"/><g data-dediren-node-decorator="archimate_application_component" data-dediren-icon-kind="component" data-dediren-icon-size="22"><rect x="939.0" y="610.8" width="18.0" height="15.8" rx="1.5" fill="#e8f3ff" stroke="#2563eb" stroke-width="1.5"/><rect x="935.0" y="613.4" width="7.9" height="5.7" rx="1.2" fill="#e8f3ff" stroke="#2563eb" stroke-width="1.5"/><rect x="935.0" y="620.4" width="7.9" height="5.7" rx="1.2" fill="#e8f3ff" stroke="#2563eb" stroke-width="1.5"/></g><text x="883.0" y="633.7" text-anchor="middle" dominant-baseline="middle" fill="#172554" font-size="14.0"><tspan x="883.0" dy="0">Run signup UI</tspan><tspan x="883.0" dy="16.0">pages</tspan></text></g><g data-dediren-node-id="run-management-service"><rect data-dediren-node-shape="archimate_rounded_rectangle" x="322.0" y="44.5" width="160.0" height="80.0" rx="4.0" fill="#e8f3ff" stroke="#2563eb" stroke-width="1.5"/><g data-dediren-node-decorator="archimate_application_service" data-dediren-icon-kind="service" data-dediren-icon-size="22"><rect x="454.0" y="53.5" width="22.0" height="13.6" rx="4.0" fill="#e8f3ff" stroke="#2563eb" stroke-width="1.5"/></g><text x="402.0" y="76.5" text-anchor="middle" dominant-baseline="middle" fill="#172554" font-size="14.0"><tspan x="402.0" dy="0">Run management</tspan><tspan x="402.0" dy="16.0">service</tspan></text></g><g data-dediren-node-id="lfm-api"><rect data-dediren-node-shape="archimate_rectangle" x="36.0" y="53.0" width="160.0" height="80.0" rx="0" fill="#e8f3ff" stroke="#2563eb" stroke-width="1.5"/><g data-dediren-node-decorator="archimate_application_component" data-dediren-icon-kind="component" data-dediren-icon-size="22"><rect x="172.0" y="62.0" width="18.0" height="15.8" rx="1.5" fill="#e8f3ff" stroke="#2563eb" stroke-width="1.5"/><rect x="168.0" y="64.6" width="7.9" height="5.7" rx="1.2" fill="#e8f3ff" stroke="#2563eb" stroke-width="1.5"/><rect x="168.0" y="71.7" width="7.9" height="5.7" rx="1.2" fill="#e8f3ff" stroke="#2563eb" stroke-width="1.5"/></g><text x="116.0" y="93.0" text-anchor="middle" dominant-baseline="middle" fill="#172554" font-size="14.0">Lfm.Api</text></g><g data-dediren-node-id="cosmos-runs"><rect data-dediren-node-shape="archimate_rectangle" x="804.0" y="36.0" width="160.0" height="80.0" rx="0" fill="#f7fee7" stroke="#65a30d" stroke-width="1.5"/><g data-dediren-node-decorator="archimate_artifact" data-dediren-icon-kind="artifact" data-dediren-icon-size="22"><path data-dediren-icon-part="artifact-document" d="M 938.2 44.0 L 948.8 44.0 L 954.9 50.2 L 954.9 63.8 L 938.2 63.8 Z M 948.8 44.0 L 948.8 50.2 L 954.9 50.2" fill="#f7fee7" stroke="#65a30d" stroke-width="1.5"/></g><text x="884.0" y="76.0" text-anchor="middle" dominant-baseline="middle" fill="#365314" font-size="14.0">runs container</text></g><g data-dediren-node-id="cosmos-raiders"><rect data-dediren-node-shape="archimate_rectangle" x="804.0" y="176.0" width="160.0" height="80.0" rx="0" fill="#f7fee7" stroke="#65a30d" stroke-width="1.5"/><g data-dediren-node-decorator="archimate_artifact" data-dediren-icon-kind="artifact" data-dediren-icon-size="22"><path data-dediren-icon-part="artifact-document" d="M 938.2 184.0 L 948.8 184.0 L 954.9 190.2 L 954.9 203.8 L 938.2 203.8 Z M 948.8 184.0 L 948.8 190.2 L 954.9 190.2" fill="#f7fee7" stroke="#65a30d" stroke-width="1.5"/></g><text x="884.0" y="207.9" text-anchor="middle" dominant-baseline="middle" fill="#365314" font-size="14.0"><tspan x="884.0" dy="0">raiders</tspan><tspan x="884.0" dy="16.0">container</tspan></text></g></g></svg>
