<svg xmlns="http://www.w3.org/2000/svg" width="1429" height="1057" viewBox="-12.0 -12.0 1429.4 1057.0"><rect x="-12.0" y="-12.0" width="1429.4" height="1057.0" fill="#ffffff"/><g font-family="Inter, Arial, sans-serif" font-size="14"><g data-dediren-group-id="run-signup-realization-ui-flow"><rect x="779.0" y="340.0" width="607.0" height="681.0" rx="4" fill="#f8fafc" stroke="#94a3b8" stroke-width="1"/><text x="787.0" y="356.0" fill="#374151" font-size="12">Run signup UI flow</text></g><g data-dediren-group-id="run-signup-realization-api-host"><rect x="12.0" y="20.5" width="559.0" height="176.0" rx="4" fill="#f8fafc" stroke="#94a3b8" stroke-width="1"/><text x="20.0" y="36.5" fill="#374151" font-size="12">API realization</text></g><g data-dediren-group-id="run-signup-realization-data"><rect x="779.0" y="12.0" width="209.0" height="268.0" rx="4" fill="#f8fafc" stroke="#94a3b8" stroke-width="1"/><text x="787.0" y="28.0" fill="#374151" font-size="12">Signup data dependencies</text></g><g data-dediren-edge-id="runs-ui-serves-browse"><marker id="marker-end-runs-ui-serves-browse" data-dediren-edge-marker-end="open_arrow" markerWidth="10" markerHeight="10" refX="5" refY="5" orient="auto"><path d="M 1 1 L 9 5 L 1 9" fill="none" stroke="#2563eb" stroke-width="1.5"/></marker><path d="M 964.0 629.0 L 1128.0 629.0" fill="none" stroke="#2563eb" stroke-width="1.5" stroke-linecap="round" stroke-linejoin="round" marker-end="url(#marker-end-runs-ui-serves-browse)"/><text x="1046.0" y="647.0" text-anchor="middle" fill="none" font-size="15.4" font-weight="600" stroke="#ffffff" stroke-width="2">UI</text><text x="1046.0" y="647.0" text-anchor="middle" fill="#1e3a8a" font-size="15.4" font-weight="600">UI</text></g><g data-dediren-edge-id="runs-ui-serves-inspect"><marker id="marker-end-runs-ui-serves-inspect" data-dediren-edge-marker-end="open_arrow" markerWidth="10" markerHeight="10" refX="5" refY="5" orient="auto"><path d="M 1 1 L 9 5 L 1 9" fill="none" stroke="#2563eb" stroke-width="1.5"/></marker><path d="M 964.0 641.8 L 1028.0 641.8 Q 1036.0 641.8 1036.0 649.8 L 1036.0 761.0 Q 1036.0 769.0 1044.0 769.0 L 1128.0 769.0" fill="none" stroke="#2563eb" stroke-width="1.5" stroke-linecap="round" stroke-linejoin="round" marker-end="url(#marker-end-runs-ui-serves-inspect)"/><text x="1000.0" y="659.8" text-anchor="middle" fill="none" font-size="15.4" font-weight="600" stroke="#ffffff" stroke-width="2">UI</text><text x="1000.0" y="659.8" text-anchor="middle" fill="#1e3a8a" font-size="15.4" font-weight="600">UI</text></g><g data-dediren-edge-id="runs-ui-serves-signup"><marker id="marker-end-runs-ui-serves-signup" data-dediren-edge-marker-end="open_arrow" markerWidth="10" markerHeight="10" refX="5" refY="5" orient="auto"><path d="M 1 1 L 9 5 L 1 9" fill="none" stroke="#2563eb" stroke-width="1.5"/></marker><path d="M 964.0 654.5 L 988.0 654.5 Q 996.0 654.5 996.0 662.5 L 996.0 901.0 Q 996.0 909.0 1004.0 909.0 L 1128.0 909.0" fill="none" stroke="#2563eb" stroke-width="1.5" stroke-linecap="round" stroke-linejoin="round" marker-end="url(#marker-end-runs-ui-serves-signup)"/><text x="978.0" y="672.5" text-anchor="middle" fill="none" font-size="15.4" font-weight="600" stroke="#ffffff" stroke-width="2">UI</text><text x="978.0" y="672.5" text-anchor="middle" fill="#1e3a8a" font-size="15.4" font-weight="600">UI</text></g><g data-dediren-edge-id="run-service-serves-browse"><marker id="marker-end-run-service-serves-browse" data-dediren-edge-marker-end="open_arrow" markerWidth="10" markerHeight="10" refX="5" refY="5" orient="auto"><path d="M 1 1 L 9 5 L 1 9" fill="none" stroke="#2563eb" stroke-width="1.5"/></marker><path d="M 321.0 76.0 L 297.0 76.0 Q 289.0 76.0 289.0 84.0 L 289.0 148.5 Q 289.0 156.5 297.0 156.5 L 402.0 156.5 L 591.0 156.5 L 615.0 156.5 Q 623.0 156.5 623.0 164.5 L 623.0 552.0 Q 623.0 560.0 631.0 560.0 L 687.0 560.0 L 687.0 557.0 L 759.0 557.0 L 883.5 557.0 L 1068.0 557.0 L 1209.0 557.0 L 1314.0 557.0 Q 1322.0 557.0 1322.0 565.0 L 1322.0 621.0 Q 1322.0 629.0 1314.0 629.0 L 1290.0 629.0" fill="none" stroke="#2563eb" stroke-width="1.5" stroke-linecap="round" stroke-linejoin="round" marker-end="url(#marker-end-run-service-serves-browse)"/><text x="1306.0" y="703.0" text-anchor="middle" fill="none" font-size="15.4" font-weight="600" stroke="#ffffff" stroke-width="2">realization</text><text x="1306.0" y="703.0" text-anchor="middle" fill="#1e3a8a" font-size="15.4" font-weight="600">realization</text></g><g data-dediren-edge-id="run-service-serves-inspect"><marker id="marker-end-run-service-serves-inspect" data-dediren-edge-marker-end="open_arrow" markerWidth="10" markerHeight="10" refX="5" refY="5" orient="auto"><path d="M 1 1 L 9 5 L 1 9" fill="none" stroke="#2563eb" stroke-width="1.5"/></marker><path d="M 321.0 76.0 L 297.0 76.0 Q 289.0 76.0 289.0 84.0 L 289.0 148.5 Q 289.0 156.5 297.0 156.5 L 402.0 156.5 L 591.0 156.5 L 615.0 156.5 Q 623.0 156.5 623.0 164.5 L 623.0 508.0 Q 623.0 516.0 631.0 516.0 L 759.0 516.0 L 883.5 516.0 L 1068.0 516.0 L 1209.0 516.0 L 1354.0 516.0 Q 1362.0 516.0 1362.0 524.0 L 1362.0 761.0 Q 1362.0 769.0 1354.0 769.0 L 1290.0 769.0" fill="none" stroke="#2563eb" stroke-width="1.5" stroke-linecap="round" stroke-linejoin="round" marker-end="url(#marker-end-run-service-serves-inspect)"/><text x="1344.0" y="787.0" text-anchor="middle" fill="none" font-size="15.4" font-weight="600" stroke="#ffffff" stroke-width="2">realization</text><text x="1344.0" y="787.0" text-anchor="middle" fill="#1e3a8a" font-size="15.4" font-weight="600">realization</text></g><g data-dediren-edge-id="run-service-serves-signup"><marker id="marker-end-run-service-serves-signup" data-dediren-edge-marker-end="open_arrow" markerWidth="10" markerHeight="10" refX="5" refY="5" orient="auto"><path d="M 1 1 L 9 5 L 1 9" fill="none" stroke="#2563eb" stroke-width="1.5"/></marker><path d="M 321.0 76.0 L 297.0 76.0 Q 289.0 76.0 289.0 84.0 L 289.0 148.5 Q 289.0 156.5 297.0 156.5 L 402.0 156.5 L 591.0 156.5 L 615.0 156.5 Q 623.0 156.5 623.0 164.5 L 623.0 596.0 Q 623.0 604.0 631.0 604.0 L 679.0 604.0 Q 687.0 604.0 687.0 612.0 L 687.0 973.0 Q 687.0 981.0 695.0 981.0 L 759.0 981.0 L 883.5 981.0 L 1068.0 981.0 L 1209.0 981.0 L 1314.0 981.0 Q 1322.0 981.0 1322.0 973.0 L 1322.0 917.0 Q 1322.0 909.0 1314.0 909.0 L 1290.0 909.0" fill="none" stroke="#2563eb" stroke-width="1.5" stroke-linecap="round" stroke-linejoin="round" marker-end="url(#marker-end-run-service-serves-signup)"/><text x="1306.0" y="983.0" text-anchor="middle" fill="none" font-size="15.4" font-weight="600" stroke="#ffffff" stroke-width="2">realization</text><text x="1306.0" y="983.0" text-anchor="middle" fill="#1e3a8a" font-size="15.4" font-weight="600">realization</text></g><g data-dediren-edge-id="run-service-serves-cancel"><marker id="marker-end-run-service-serves-cancel" data-dediren-edge-marker-end="open_arrow" markerWidth="10" markerHeight="10" refX="5" refY="5" orient="auto"><path d="M 1 1 L 9 5 L 1 9" fill="none" stroke="#2563eb" stroke-width="1.5"/></marker><path d="M 321.0 76.0 L 297.0 76.0 Q 289.0 76.0 289.0 84.0 L 289.0 148.5 Q 289.0 156.5 297.0 156.5 L 402.0 156.5 L 591.0 156.5 L 620.8 156.5 Q 623.0 156.5 623.0 158.8 L 623.0 158.8 Q 623.0 161.0 625.3 161.0 L 679.0 161.0 Q 687.0 161.0 687.0 169.0 L 687.0 468.0 Q 687.0 476.0 695.0 476.0 L 759.0 476.0 L 883.5 476.0 L 988.0 476.0 Q 996.0 476.0 996.0 468.0 L 996.0 412.0 Q 996.0 404.0 988.0 404.0 L 964.0 404.0" fill="none" stroke="#2563eb" stroke-width="1.5" stroke-linecap="round" stroke-linejoin="round" marker-end="url(#marker-end-run-service-serves-cancel)"/><text x="980.0" y="478.0" text-anchor="middle" fill="none" font-size="15.4" font-weight="600" stroke="#ffffff" stroke-width="2">realization</text><text x="980.0" y="478.0" text-anchor="middle" fill="#1e3a8a" font-size="15.4" font-weight="600">realization</text></g><g data-dediren-edge-id="api-realizes-run-service"><marker id="marker-end-api-realizes-run-service" data-dediren-edge-marker-end="hollow_triangle" markerWidth="10" markerHeight="10" refX="5" refY="5" orient="auto"><path d="M 1 1 L 9 5 L 1 9 Z" fill="#ffffff" stroke="#475569" stroke-width="1"/></marker><g data-dediren-line-jump-masks="api-realizes-run-service"><path d="M 283.0 93.0 Q 289.0 87.0 295.0 93.0" fill="none" stroke="#ffffff" stroke-width="6"/></g><path d="M 197.0 93.0 L 283.0 93.0 Q 289.0 87.0 295.0 93.0 L 321.0 93.0" fill="none" stroke="#475569" stroke-width="1.5" stroke-linecap="round" stroke-linejoin="round" stroke-dasharray="8 5" marker-end="url(#marker-end-api-realizes-run-service)"/><text x="259.0" y="111.0" text-anchor="middle" fill="none" font-size="15.4" font-weight="600" stroke="#ffffff" stroke-width="2">realizes</text><text x="259.0" y="111.0" text-anchor="middle" fill="#334155" font-size="15.4" font-weight="600">realizes</text></g><g data-dediren-edge-id="run-service-accesses-runs"><marker id="marker-end-run-service-accesses-runs" data-dediren-edge-marker-end="open_arrow" markerWidth="10" markerHeight="10" refX="5" refY="5" orient="auto"><path d="M 1 1 L 9 5 L 1 9" fill="none" stroke="#15803d" stroke-width="1.5"/></marker><path d="M 483.0 76.0 L 591.0 76.0 L 759.0 76.0 L 803.0 76.0" fill="none" stroke="#15803d" stroke-width="1.5" stroke-linecap="round" stroke-linejoin="round" stroke-dasharray="8 5" marker-end="url(#marker-end-run-service-accesses-runs)"/><text x="537.0" y="94.0" text-anchor="middle" fill="none" font-size="15.4" font-weight="600" stroke="#ffffff" stroke-width="2">reads/writes</text><text x="537.0" y="94.0" text-anchor="middle" fill="#166534" font-size="15.4" font-weight="600">reads/writes</text></g><g data-dediren-edge-id="run-service-accesses-raiders"><marker id="marker-end-run-service-accesses-raiders" data-dediren-edge-marker-end="open_arrow" markerWidth="10" markerHeight="10" refX="5" refY="5" orient="auto"><path d="M 1 1 L 9 5 L 1 9" fill="none" stroke="#15803d" stroke-width="1.5"/></marker><path d="M 483.0 93.0 L 507.5 93.0 Q 515.0 93.0 515.0 100.5 L 515.0 100.5 Q 515.0 108.0 522.5 108.0 L 591.0 108.0 L 618.5 108.0 Q 623.0 108.0 623.0 112.5 L 623.0 112.5 Q 623.0 117.0 627.5 117.0 L 719.0 117.0 Q 727.0 117.0 727.0 125.0 L 727.0 208.0 Q 727.0 216.0 735.0 216.0 L 759.0 216.0 L 803.0 216.0" fill="none" stroke="#15803d" stroke-width="1.5" stroke-linecap="round" stroke-linejoin="round" stroke-dasharray="8 5" marker-end="url(#marker-end-run-service-accesses-raiders)"/><text x="499.0" y="167.0" text-anchor="middle" fill="none" font-size="15.4" font-weight="600" stroke="#ffffff" stroke-width="2">signup options</text><text x="499.0" y="167.0" text-anchor="middle" fill="#166534" font-size="15.4" font-weight="600">signup options</text></g><g data-dediren-node-id="browse-open-runs"><rect data-dediren-node-shape="archimate_rounded_rectangle" x="1129.0" y="589.0" width="160.0" height="80.0" rx="4" fill="#fefce8" stroke="#a16207" stroke-width="1.5"/><g data-dediren-node-decorator="archimate_business_process" data-dediren-icon-kind="business_process" data-dediren-icon-size="22"><path data-dediren-icon-part="business_process" d="M 1261 598 L 1283 598 L 1272 613.84 Z" fill="#fefce8" stroke="#a16207" stroke-width="1.5"/></g><text x="1209.0" y="633.7" text-anchor="middle" fill="#713f12">Browse open runs</text></g><g data-dediren-node-id="inspect-run-detail"><rect data-dediren-node-shape="archimate_rounded_rectangle" x="1129.0" y="729.0" width="160.0" height="80.0" rx="4" fill="#fefce8" stroke="#a16207" stroke-width="1.5"/><g data-dediren-node-decorator="archimate_business_process" data-dediren-icon-kind="business_process" data-dediren-icon-size="22"><path data-dediren-icon-part="business_process" d="M 1261 738 L 1283 738 L 1272 753.84 Z" fill="#fefce8" stroke="#a16207" stroke-width="1.5"/></g><text x="1209.0" y="773.7" text-anchor="middle" fill="#713f12">Inspect run detail</text></g><g data-dediren-node-id="sign-up-for-run"><rect data-dediren-node-shape="archimate_rounded_rectangle" x="1129.0" y="869.0" width="160.0" height="80.0" rx="4" fill="#fefce8" stroke="#a16207" stroke-width="1.5"/><g data-dediren-node-decorator="archimate_business_process" data-dediren-icon-kind="business_process" data-dediren-icon-size="22"><path data-dediren-icon-part="business_process" d="M 1261 878 L 1283 878 L 1272 893.84 Z" fill="#fefce8" stroke="#a16207" stroke-width="1.5"/></g><text x="1209.0" y="913.7" text-anchor="middle" fill="#713f12">Sign up for run</text></g><g data-dediren-node-id="cancel-signup"><rect data-dediren-node-shape="archimate_rounded_rectangle" x="803.0" y="364.0" width="160.0" height="80.0" rx="4" fill="#fefce8" stroke="#a16207" stroke-width="1.5"/><g data-dediren-node-decorator="archimate_business_process" data-dediren-icon-kind="business_process" data-dediren-icon-size="22"><path data-dediren-icon-part="business_process" d="M 935 373 L 957 373 L 946 388.84 Z" fill="#fefce8" stroke="#a16207" stroke-width="1.5"/></g><text x="883.0" y="408.7" text-anchor="middle" fill="#713f12">Cancel signup</text></g><g data-dediren-node-id="runs-ui-entry"><rect data-dediren-node-shape="archimate_rectangle" x="803.0" y="601.8" width="160.0" height="80.0" rx="0" fill="#e8f3ff" stroke="#2563eb" stroke-width="1.5"/><g data-dediren-node-decorator="archimate_application_component" data-dediren-icon-kind="component" data-dediren-icon-size="22"><rect x="939.8" y="612.5" width="15.8" height="14.1" fill="#e8f3ff" stroke="#2563eb" stroke-width="1.5"/><rect x="935.0" y="615.2" width="6.2" height="4.0" fill="#e8f3ff" stroke="#2563eb" stroke-width="1.5"/><rect x="935.0" y="621.3" width="6.2" height="4.0" fill="#e8f3ff" stroke="#2563eb" stroke-width="1.5"/></g><text x="883.0" y="646.4" text-anchor="middle" fill="#172554">Run signup UI pages</text></g><g data-dediren-node-id="run-management-service"><rect data-dediren-node-shape="archimate_rounded_rectangle" x="322.0" y="44.5" width="160.0" height="80.0" rx="4" fill="#e8f3ff" stroke="#2563eb" stroke-width="1.5"/><g data-dediren-node-decorator="archimate_application_service" data-dediren-icon-kind="service" data-dediren-icon-size="22"><rect x="454.0" y="56.1" width="22.0" height="11.0" rx="4.0" fill="#e8f3ff" stroke="#2563eb" stroke-width="1.5"/></g><text x="402.0" y="89.2" text-anchor="middle" fill="#172554">Run management service</text></g><g data-dediren-node-id="lfm-api"><rect data-dediren-node-shape="archimate_rectangle" x="36.0" y="53.0" width="160.0" height="80.0" rx="0" fill="#e8f3ff" stroke="#2563eb" stroke-width="1.5"/><g data-dediren-node-decorator="archimate_application_component" data-dediren-icon-kind="component" data-dediren-icon-size="22"><rect x="172.8" y="63.8" width="15.8" height="14.1" fill="#e8f3ff" stroke="#2563eb" stroke-width="1.5"/><rect x="168.0" y="66.4" width="6.2" height="4.0" fill="#e8f3ff" stroke="#2563eb" stroke-width="1.5"/><rect x="168.0" y="72.6" width="6.2" height="4.0" fill="#e8f3ff" stroke="#2563eb" stroke-width="1.5"/></g><text x="116.0" y="97.7" text-anchor="middle" fill="#172554">Lfm.Api</text></g><g data-dediren-node-id="cosmos-runs"><rect data-dediren-node-shape="archimate_rectangle" x="804.0" y="36.0" width="160.0" height="80.0" rx="0" fill="#f7fee7" stroke="#65a30d" stroke-width="1.5"/><g data-dediren-node-decorator="archimate_artifact" data-dediren-icon-kind="artifact" data-dediren-icon-size="22"><path data-dediren-icon-part="artifact" d="M 936 45 L 958 45 L 947 60.84 Z" fill="#f7fee7" stroke="#65a30d" stroke-width="1.5"/></g><text x="884.0" y="80.7" text-anchor="middle" fill="#365314">runs container</text></g><g data-dediren-node-id="cosmos-raiders"><rect data-dediren-node-shape="archimate_rectangle" x="804.0" y="176.0" width="160.0" height="80.0" rx="0" fill="#f7fee7" stroke="#65a30d" stroke-width="1.5"/><g data-dediren-node-decorator="archimate_artifact" data-dediren-icon-kind="artifact" data-dediren-icon-size="22"><path data-dediren-icon-part="artifact" d="M 936 185 L 958 185 L 947 200.84 Z" fill="#f7fee7" stroke="#65a30d" stroke-width="1.5"/></g><text x="884.0" y="220.7" text-anchor="middle" fill="#365314">raiders container</text></g></g></svg>
