<svg xmlns="http://www.w3.org/2000/svg" role="img" width="1559" height="685" viewBox="-20 -83.4 1559 717.4" data-arch-a11y="root" data-arch-a11y-viewbox="-20.0 -51.4 1559.0 685.4"><title>Operational Readiness - Service Realization</title>
<desc>Which components and services realize operational readiness and privacy contact?</desc>
<text data-arch-a11y="visible-title" x="-12" y="-63.4" font-family="sans-serif" font-size="16" font-weight="bold">Operational Readiness - Service Realization</text><rect x="-20.0" y="-51.4" width="1559.0" height="685.4" fill="#ffffff"/><g font-family="Inter, &quot;Liberation Sans&quot;, &quot;Noto Sans&quot;, Arial, &quot;Helvetica Neue&quot;, &quot;Segoe UI&quot;, sans-serif" font-size="14"><g data-dediren-group-id="ops-api-host"><rect x="12.0" y="12.0" width="956.0" height="590.0" rx="8" fill="#f8fafc" stroke="#94a3b8" stroke-width="1"/><text x="20.0" y="28.0" fill="#334155" font-size="12">Readiness API realization and host</text></g><g data-dediren-group-id="ops-readiness-observability"><rect x="1256.0" y="12.0" width="251.0" height="336.0" rx="8" fill="#f8fafc" stroke="#94a3b8" stroke-width="1"/><text x="1264.0" y="28.0" fill="#334155" font-size="12">Readiness dependency and telemetry</text></g><g data-dediren-edge-id="api-realizes-ops-service"><marker id="marker-end-api-realizes-ops-service" data-dediren-edge-marker-end="hollow_triangle" markerWidth="10" markerHeight="10" refX="9" refY="5" orient="auto"><path d="M 1 1 L 9 5 L 1 9 Z" fill="#ffffff" stroke="#374151" stroke-width="1"/></marker><path d="M 485.0 343.0 L 485.0 399.0 Q 485.0 407.0 493.0 407.0 L 834.0 407.0 Q 842.0 407.0 842.0 415.0 L 842.0 471.0" fill="none" stroke="#374151" stroke-width="1.5" stroke-linecap="round" stroke-linejoin="round" stroke-dasharray="8 5" marker-end="url(#marker-end-api-realizes-ops-service)"/><text x="663.5" y="425.0" text-anchor="middle" fill="none" font-size="15.4" font-weight="600" stroke="#ffffff" stroke-width="2">realizes</text><text x="663.5" y="425.0" text-anchor="middle" fill="#374151" font-size="15.4" font-weight="600">realizes</text></g><g data-dediren-edge-id="function-app-hosts-api"><marker id="marker-end-function-app-hosts-api" data-dediren-edge-marker-end="open_arrow" markerWidth="10" markerHeight="10" refX="9" refY="5" orient="auto"><path d="M 1 1 L 9 5 L 1 9" fill="none" stroke="#475569" stroke-width="1.5"/></marker><path d="M 132.0 133.0 L 132.0 189.0 Q 132.0 197.0 140.0 197.0 L 477.0 197.0 Q 485.0 197.0 485.0 205.0 L 485.0 261.0" fill="none" stroke="#475569" stroke-width="1.25" stroke-linecap="round" stroke-linejoin="round" marker-end="url(#marker-end-function-app-hosts-api)"/><text x="308.5" y="215.0" text-anchor="middle" fill="none" font-size="15.4" font-weight="600" stroke="#ffffff" stroke-width="2">hosts</text><text x="308.5" y="215.0" text-anchor="middle" fill="#374151" font-size="15.4" font-weight="600">hosts</text></g><g data-dediren-edge-id="ops-service-accesses-cosmos"><marker id="marker-end-ops-service-accesses-cosmos" data-dediren-edge-marker-end="open_arrow" markerWidth="10" markerHeight="10" refX="9" refY="5" orient="auto"><path d="M 1 1 L 9 5 L 1 9" fill="none" stroke="#475569" stroke-width="1.5"/></marker><path d="M 928.0 517.0 L 1000.0 517.0 L 1152.0 517.0 Q 1160.0 517.0 1160.0 509.0 L 1160.0 276.0 Q 1160.0 268.0 1168.0 268.0 L 1224.0 268.0 L 1296.0 268.0" fill="none" stroke="#475569" stroke-width="1.25" stroke-linecap="round" stroke-linejoin="round" stroke-dasharray="8 5" marker-end="url(#marker-end-ops-service-accesses-cosmos)"/><text x="1154.0" y="392.5" text-anchor="end" fill="none" font-size="15.4" font-weight="600" stroke="#ffffff" stroke-width="2">readiness</text><text x="1154.0" y="392.5" text-anchor="end" fill="#374151" font-size="15.4" font-weight="600">readiness</text></g><g data-dediren-edge-id="app-insights-serves-function-app"><marker id="marker-end-app-insights-serves-function-app" data-dediren-edge-marker-end="open_arrow" markerWidth="10" markerHeight="10" refX="9" refY="5" orient="auto"><path d="M 1 1 L 9 5 L 1 9" fill="none" stroke="#475569" stroke-width="1.5"/></marker><path d="M 1296.0 92.0 L 1224.0 92.0 L 1000.0 92.0 L 842.5 92.0 L 661.0 92.0 L 485.0 92.0 L 309.0 92.0 L 213.0 92.0" fill="none" stroke="#475569" stroke-width="1.25" stroke-linecap="round" stroke-linejoin="round" marker-end="url(#marker-end-app-insights-serves-function-app)"/><text x="1260.0" y="-2.0" text-anchor="middle" fill="none" font-size="15.4" font-weight="600" stroke="#ffffff" stroke-width="2">telemetry</text><text x="1260.0" y="-2.0" text-anchor="middle" fill="#374151" font-size="15.4" font-weight="600">telemetry</text></g><g data-dediren-node-id="ops-health-service"><rect data-dediren-node-shape="archimate_rounded_rectangle" x="757.0" y="472.0" width="170.0" height="90.0" rx="6" fill="#e0f2fe" stroke="#0369a1" stroke-width="1.25"/><g data-dediren-node-decorator="archimate_application_service" data-dediren-icon-kind="service" data-dediren-icon-size="22"><rect x="899.0" y="481.0" width="22.0" height="13.6" rx="4.0" fill="#e0f2fe" stroke="#0369a1" stroke-width="1.25"/></g><text x="842.0" y="516.4" text-anchor="middle" dominant-baseline="middle" fill="#0c4a6e" font-size="14.0"><tspan x="842.0" dy="0" textLength="72.3" lengthAdjust="spacing">Operational</tspan><tspan x="842.0" dy="16.0" textLength="60.6" lengthAdjust="spacing">readiness</tspan><tspan x="842.0" dy="16.0" textLength="44.3" lengthAdjust="spacing">service</tspan></text></g><g data-dediren-node-id="lfm-api"><rect data-dediren-node-shape="archimate_rectangle" x="405.0" y="262.0" width="160.0" height="80.0" rx="0" fill="#e0f2fe" stroke="#0369a1" stroke-width="1.25"/><g data-dediren-node-decorator="archimate_application_component" data-dediren-icon-kind="component" data-dediren-icon-size="22"><rect x="541.0" y="271.0" width="18.0" height="15.8" rx="1.5" fill="#e0f2fe" stroke="#0369a1" stroke-width="1.25"/><rect x="537.0" y="273.6" width="7.9" height="5.7" rx="1.2" fill="#e0f2fe" stroke="#0369a1" stroke-width="1.25"/><rect x="537.0" y="280.7" width="7.9" height="5.7" rx="1.2" fill="#e0f2fe" stroke="#0369a1" stroke-width="1.25"/></g><text x="485.0" y="317.5" text-anchor="middle" dominant-baseline="middle" fill="#0c4a6e" font-size="14.0" textLength="47.4" lengthAdjust="spacing">Lfm.Api</text></g><g data-dediren-node-id="function-app"><rect data-dediren-node-shape="archimate_rectangle" x="52.0" y="52.0" width="160.0" height="80.0" rx="0" fill="#d5e8d4" stroke="#4d7c0f" stroke-width="1.25"/><g data-dediren-node-decorator="archimate_technology_node" data-dediren-icon-kind="node" data-dediren-icon-size="22"><rect x="184.0" y="65.0" width="18.0" height="12.8" rx="1.5" fill="#d5e8d4" stroke="#4d7c0f" stroke-width="1.25"/><path data-dediren-icon-part="node-3d-edges" d="M 184.0 65.0 L 188.0 61.0 L 206.0 61.0 L 202.0 65.0 M 202.0 65.0 L 206.0 61.0 M 202.0 77.7 L 206.0 73.8 M 206.0 61.0 L 206.0 73.8" fill="none" stroke="#4d7c0f" stroke-width="1.25" stroke-linejoin="round"/></g><text x="132.0" y="99.5" text-anchor="middle" dominant-baseline="middle" fill="#365314" font-size="14.0"><tspan x="132.0" dy="0" textLength="36.5" lengthAdjust="spacing">Azure</tspan><tspan x="132.0" dy="16.0" textLength="82.4" lengthAdjust="spacing">Function App</tspan></text></g><g data-dediren-node-id="cosmos-database"><rect data-dediren-node-shape="archimate_rectangle" x="1297.0" y="228.0" width="160.0" height="80.0" rx="0" fill="#d5e8d4" stroke="#4d7c0f" stroke-width="1.25"/><g data-dediren-node-decorator="archimate_artifact" data-dediren-icon-kind="artifact" data-dediren-icon-size="22"><path data-dediren-icon-part="artifact-document" d="M 1431.2 236.0 L 1441.8 236.0 L 1447.9 242.2 L 1447.9 255.8 L 1431.2 255.8 Z M 1441.8 236.0 L 1441.8 242.2 L 1447.9 242.2" fill="#d5e8d4" stroke="#4d7c0f" stroke-width="1.25"/></g><text x="1377.0" y="275.5" text-anchor="middle" dominant-baseline="middle" fill="#365314" font-size="14.0"><tspan x="1377.0" dy="0" textLength="83.2" lengthAdjust="spacing">Cosmos SQL</tspan><tspan x="1377.0" dy="16.0" textLength="57.5" lengthAdjust="spacing">database</tspan></text></g><g data-dediren-node-id="application-insights"><rect data-dediren-node-shape="archimate_rectangle" x="1297.0" y="52.0" width="170.0" height="80.0" rx="0" fill="#d5e8d4" stroke="#4d7c0f" stroke-width="1.25"/><g data-dediren-node-decorator="archimate_technology_node" data-dediren-icon-kind="node" data-dediren-icon-size="22"><rect x="1439.0" y="65.0" width="18.0" height="12.8" rx="1.5" fill="#d5e8d4" stroke="#4d7c0f" stroke-width="1.25"/><path data-dediren-icon-part="node-3d-edges" d="M 1439.0 65.0 L 1443.0 61.0 L 1461.0 61.0 L 1457.0 65.0 M 1457.0 65.0 L 1461.0 61.0 M 1457.0 77.7 L 1461.0 73.8 M 1461.0 61.0 L 1461.0 73.8" fill="none" stroke="#4d7c0f" stroke-width="1.25" stroke-linejoin="round"/></g><text x="1382.0" y="99.5" text-anchor="middle" dominant-baseline="middle" fill="#365314" font-size="14.0"><tspan x="1382.0" dy="0" textLength="68.4" lengthAdjust="spacing">Application</tspan><tspan x="1382.0" dy="16.0" textLength="48.2" lengthAdjust="spacing">Insights</tspan></text></g></g></svg>

