<svg xmlns="http://www.w3.org/2000/svg" role="img" width="2324" height="687" viewBox="-20 -52 2324 719" data-arch-a11y="root" data-arch-a11y-viewbox="-20.0 -20.0 2324.0 687.0"><title>Guild - Service Realization</title>
<desc>Which components and services realize guild read and admin?</desc>
<text data-arch-a11y="visible-title" x="-12" y="-32" font-family="sans-serif" font-size="16" font-weight="bold">Guild - Service Realization</text><rect x="-20.0" y="-20.0" width="2324.0" height="687.0" fill="#ffffff"/><g font-family="Inter, &quot;Liberation Sans&quot;, &quot;Noto Sans&quot;, Arial, &quot;Helvetica Neue&quot;, &quot;Segoe UI&quot;, sans-serif" font-size="14"><g data-dediren-group-id="guild-current-ui"><rect x="12.0" y="215.8" width="241.0" height="160.0" rx="8" fill="#f8fafc" stroke="#94a3b8" stroke-width="1"/><text x="20.0" y="231.8" fill="#334155" font-size="12">Current-guild UI</text></g><g data-dediren-group-id="guild-admin-ui"><rect x="12.0" y="471.8" width="241.0" height="160.0" rx="8" fill="#f8fafc" stroke="#94a3b8" stroke-width="1"/><text x="20.0" y="487.8" fill="#334155" font-size="12">Site-admin guild UI</text></g><g data-dediren-group-id="guild-api-realization"><rect x="541.0" y="52.8" width="914.0" height="579.0" rx="8" fill="#f8fafc" stroke="#94a3b8" stroke-width="1"/><text x="549.0" y="68.8" fill="#334155" font-size="12">Guild API realization</text></g><g data-dediren-group-id="guild-data"><rect x="1903.0" y="12.0" width="369.0" height="351.5" rx="8" fill="#f8fafc" stroke="#94a3b8" stroke-width="1"/><text x="1911.0" y="28.0" fill="#334155" font-size="12">Guild data dependencies</text></g><g data-dediren-group-id="guild-external"><rect x="1903.0" y="459.5" width="369.0" height="175.5" rx="8" fill="#f8fafc" stroke="#94a3b8" stroke-width="1"/><text x="1911.0" y="475.5" fill="#334155" font-size="12">Guild refresh dependency</text></g><g data-dediren-edge-id="guild-service-serves-guild-ui"><marker id="marker-end-guild-service-serves-guild-ui" data-dediren-edge-marker-end="open_arrow" markerWidth="10" markerHeight="10" refX="9" refY="5" orient="auto"><path d="M 1 1 L 9 5 L 1 9" fill="none" stroke="#475569" stroke-width="1.5"/></marker><path d="M 933.0 342.8 L 837.0 342.8 L 661.0 342.8 L 509.0 342.8 L 453.0 342.8 Q 445.0 342.8 445.0 334.8 L 445.0 303.8 Q 445.0 295.8 437.0 295.8 L 285.0 295.8 L 213.0 295.8" fill="none" stroke="#475569" stroke-width="1.25" stroke-linecap="round" stroke-linejoin="round" marker-end="url(#marker-end-guild-service-serves-guild-ui)"/><text x="885.0" y="360.8" text-anchor="middle" fill="none" font-size="15.4" font-weight="600" stroke="#ffffff" stroke-width="2">guild data</text><text x="885.0" y="360.8" text-anchor="middle" fill="#374151" font-size="15.4" font-weight="600">guild data</text></g><g data-dediren-edge-id="guild-admin-service-serves-guild-admin-ui"><marker id="marker-end-guild-admin-service-serves-guild-admin-ui" data-dediren-edge-marker-end="open_arrow" markerWidth="10" markerHeight="10" refX="9" refY="5" orient="auto"><path d="M 1 1 L 9 5 L 1 9" fill="none" stroke="#475569" stroke-width="1.5"/></marker><path d="M 933.0 551.8 L 837.0 551.8 L 661.0 551.8 L 509.0 551.8 L 285.0 551.8 L 213.0 551.8" fill="none" stroke="#475569" stroke-width="1.25" stroke-linecap="round" stroke-linejoin="round" marker-end="url(#marker-end-guild-admin-service-serves-guild-admin-ui)"/><text x="885.0" y="569.8" text-anchor="middle" fill="none" font-size="15.4" font-weight="600" stroke="#ffffff" stroke-width="2">site admin</text><text x="885.0" y="569.8" text-anchor="middle" fill="#374151" font-size="15.4" font-weight="600">site admin</text></g><g data-dediren-edge-id="api-realizes-guild-service"><marker id="marker-end-api-realizes-guild-service" data-dediren-edge-marker-end="hollow_triangle" markerWidth="10" markerHeight="10" refX="9" refY="5" orient="auto"><path d="M 1 1 L 9 5 L 1 9 Z" fill="#ffffff" stroke="#374151" stroke-width="1"/></marker><path d="M 682.5 173.8 L 682.5 229.8 Q 682.5 237.8 690.5 237.8 L 1006.0 237.8 Q 1014.0 237.8 1014.0 245.8 L 1014.0 301.8" fill="none" stroke="#374151" stroke-width="1.5" stroke-linecap="round" stroke-linejoin="round" stroke-dasharray="8 5" marker-end="url(#marker-end-api-realizes-guild-service)"/><text x="848.3" y="255.8" text-anchor="middle" fill="none" font-size="15.4" font-weight="600" stroke="#ffffff" stroke-width="2">realizes</text><text x="848.3" y="255.8" text-anchor="middle" fill="#374151" font-size="15.4" font-weight="600">realizes</text></g><g data-dediren-edge-id="api-realizes-guild-admin-service"><marker id="marker-end-api-realizes-guild-admin-service" data-dediren-edge-marker-end="hollow_triangle" markerWidth="10" markerHeight="10" refX="9" refY="5" orient="auto"><path d="M 1 1 L 9 5 L 1 9 Z" fill="#ffffff" stroke="#374151" stroke-width="1"/></marker><g data-dediren-line-jump-masks="api-realizes-guild-admin-service"><path d="M 639.5 336.8 Q 645.5 342.8 639.5 348.8" fill="none" stroke="#f8fafc" stroke-width="6"/></g><path d="M 639.5 173.8 L 639.5 336.8 Q 645.5 342.8 639.5 348.8 L 639.5 438.8 Q 639.5 446.8 647.5 446.8 L 1006.0 446.8 Q 1014.0 446.8 1014.0 454.8 L 1014.0 510.8" fill="none" stroke="#374151" stroke-width="1.5" stroke-linecap="round" stroke-linejoin="round" stroke-dasharray="8 5" marker-end="url(#marker-end-api-realizes-guild-admin-service)"/><text x="826.8" y="464.8" text-anchor="middle" fill="none" font-size="15.4" font-weight="600" stroke="#ffffff" stroke-width="2">realizes</text><text x="826.8" y="464.8" text-anchor="middle" fill="#374151" font-size="15.4" font-weight="600">realizes</text></g><g data-dediren-edge-id="guild-service-accesses-guilds"><marker id="marker-end-guild-service-accesses-guilds" data-dediren-edge-marker-end="open_arrow" markerWidth="10" markerHeight="10" refX="9" refY="5" orient="auto"><path d="M 1 1 L 9 5 L 1 9" fill="none" stroke="#475569" stroke-width="1.5"/></marker><path d="M 1095.0 330.0 L 1151.0 330.0 Q 1159.0 330.0 1159.0 322.0 L 1159.0 171.5 Q 1159.0 163.5 1167.0 163.5 L 1487.0 163.5 L 1543.0 163.5 Q 1551.0 163.5 1551.0 155.5 L 1551.0 71.5 Q 1551.0 63.5 1559.0 63.5 L 1799.0 63.5 Q 1807.0 63.5 1807.0 71.5 L 1807.0 75.5 Q 1807.0 83.5 1815.0 83.5 L 1871.0 83.5 L 2071.0 83.5" fill="none" stroke="#475569" stroke-width="1.25" stroke-linecap="round" stroke-linejoin="round" stroke-dasharray="8 5" marker-end="url(#marker-end-guild-service-accesses-guilds)"/><text x="1127.0" y="292.0" text-anchor="middle" fill="none" font-size="15.4" font-weight="600" stroke="#ffffff" stroke-width="2">guild state</text><text x="1127.0" y="292.0" text-anchor="middle" fill="#374151" font-size="15.4" font-weight="600">guild state</text></g><g data-dediren-edge-id="guild-service-accesses-raiders"><marker id="marker-end-guild-service-accesses-raiders" data-dediren-edge-marker-end="open_arrow" markerWidth="10" markerHeight="10" refX="9" refY="5" orient="auto"><path d="M 1 1 L 9 5 L 1 9" fill="none" stroke="#475569" stroke-width="1.5"/></marker><path d="M 1095.0 342.8 L 1279.0 342.8 Q 1287.0 342.8 1287.0 334.8 L 1287.0 267.5 Q 1287.0 259.5 1295.0 259.5 L 1487.0 259.5 L 1671.0 259.5 Q 1679.0 259.5 1679.0 251.5 L 1679.0 247.5 Q 1679.0 239.5 1687.0 239.5 L 1799.0 239.5 Q 1807.0 239.5 1807.0 247.5 L 1807.0 251.5 Q 1807.0 259.5 1815.0 259.5 L 1871.0 259.5 L 2071.0 259.5" fill="none" stroke="#475569" stroke-width="1.25" stroke-linecap="round" stroke-linejoin="round" stroke-dasharray="8 5" marker-end="url(#marker-end-guild-service-accesses-raiders)"/><text x="1673.0" y="249.5" text-anchor="end" fill="none" font-size="15.4" font-weight="600" stroke="#ffffff" stroke-width="2">current raider</text><text x="1673.0" y="249.5" text-anchor="end" fill="#374151" font-size="15.4" font-weight="600">current raider</text></g><g data-dediren-edge-id="guild-admin-service-accesses-guilds"><marker id="marker-end-guild-admin-service-accesses-guilds" data-dediren-edge-marker-end="open_arrow" markerWidth="10" markerHeight="10" refX="9" refY="5" orient="auto"><path d="M 1 1 L 9 5 L 1 9" fill="none" stroke="#475569" stroke-width="1.5"/></marker><g data-dediren-line-jump-masks="guild-admin-service-accesses-guilds"><path d="M 1223.0 336.8 Q 1229.0 342.8 1223.0 348.8" fill="none" stroke="#f8fafc" stroke-width="6"/></g><path d="M 1095.0 539.0 L 1215.0 539.0 Q 1223.0 539.0 1223.0 531.0 L 1223.0 348.8 Q 1229.0 342.8 1223.0 336.8 L 1223.0 219.5 Q 1223.0 211.5 1231.0 211.5 L 1487.0 211.5 L 1607.0 211.5 Q 1615.0 211.5 1615.0 203.5 L 1615.0 139.5 Q 1615.0 131.5 1623.0 131.5 L 1871.0 131.5 L 1999.0 131.5 Q 2007.0 131.5 2007.0 123.5 L 2007.0 108.5 Q 2007.0 100.5 2015.0 100.5 L 2071.0 100.5" fill="none" stroke="#475569" stroke-width="1.25" stroke-linecap="round" stroke-linejoin="round" stroke-dasharray="8 5" marker-end="url(#marker-end-guild-admin-service-accesses-guilds)"/><text x="1205.0" y="529.0" text-anchor="middle" fill="none" font-size="15.4" font-weight="600" stroke="#ffffff" stroke-width="2">admin guild state</text><text x="1205.0" y="529.0" text-anchor="middle" fill="#374151" font-size="15.4" font-weight="600">admin guild state</text></g><g data-dediren-edge-id="guild-admin-service-accesses-raiders"><marker id="marker-end-guild-admin-service-accesses-raiders" data-dediren-edge-marker-end="open_arrow" markerWidth="10" markerHeight="10" refX="9" refY="5" orient="auto"><path d="M 1 1 L 9 5 L 1 9" fill="none" stroke="#475569" stroke-width="1.5"/></marker><path d="M 1095.0 551.8 L 1343.0 551.8 Q 1351.0 551.8 1351.0 543.8 L 1351.0 315.5 Q 1351.0 307.5 1359.0 307.5 L 1487.0 307.5 L 1871.0 307.5 L 1999.0 307.5 Q 2007.0 307.5 2007.0 299.5 L 2007.0 284.5 Q 2007.0 276.5 2015.0 276.5 L 2071.0 276.5" fill="none" stroke="#475569" stroke-width="1.25" stroke-linecap="round" stroke-linejoin="round" stroke-dasharray="8 5" marker-end="url(#marker-end-guild-admin-service-accesses-raiders)"/><text x="1223.0" y="597.8" text-anchor="middle" fill="none" font-size="15.4" font-weight="600" stroke="#ffffff" stroke-width="2">bootstrap context</text><text x="1223.0" y="597.8" text-anchor="middle" fill="#374151" font-size="15.4" font-weight="600">bootstrap context</text></g><g data-dediren-edge-id="profile-api-serves-guild-service"><marker id="marker-end-profile-api-serves-guild-service" data-dediren-edge-marker-end="open_arrow" markerWidth="10" markerHeight="10" refX="9" refY="5" orient="auto"><path d="M 1 1 L 9 5 L 1 9" fill="none" stroke="#475569" stroke-width="1.5"/></marker><g data-dediren-line-jump-masks="profile-api-serves-guild-service"><path d="M 1217.0 355.5 Q 1223.0 349.5 1229.0 355.5" fill="none" stroke="#f8fafc" stroke-width="6"/><path d="M 1345.0 355.5 Q 1351.0 349.5 1357.0 355.5" fill="none" stroke="#f8fafc" stroke-width="6"/></g><path d="M 2071.0 531.0 L 1871.0 531.0 L 1815.0 531.0 Q 1807.0 531.0 1807.0 523.0 L 1807.0 522.0 Q 1807.0 514.0 1799.0 514.0 L 1559.0 514.0 Q 1551.0 514.0 1551.0 506.0 L 1551.0 363.5 Q 1551.0 355.5 1543.0 355.5 L 1487.0 355.5 L 1357.0 355.5 Q 1351.0 349.5 1345.0 355.5 L 1229.0 355.5 Q 1223.0 349.5 1217.0 355.5 L 1095.0 355.5" fill="none" stroke="#475569" stroke-width="1.25" stroke-linecap="round" stroke-linejoin="round" marker-end="url(#marker-end-profile-api-serves-guild-service)"/><text x="1971.0" y="521.0" text-anchor="middle" fill="none" font-size="15.4" font-weight="600" stroke="#ffffff" stroke-width="2">guild refresh</text><text x="1971.0" y="521.0" text-anchor="middle" fill="#374151" font-size="15.4" font-weight="600">guild refresh</text></g><g data-dediren-edge-id="profile-api-serves-guild-admin-service"><marker id="marker-end-profile-api-serves-guild-admin-service" data-dediren-edge-marker-end="open_arrow" markerWidth="10" markerHeight="10" refX="9" refY="5" orient="auto"><path d="M 1 1 L 9 5 L 1 9" fill="none" stroke="#475569" stroke-width="1.5"/></marker><path d="M 2071.0 548.0 L 2015.0 548.0 Q 2007.0 548.0 2007.0 556.0 L 2007.0 571.0 Q 2007.0 579.0 1999.0 579.0 L 1871.0 579.0 L 1558.3 579.0 Q 1551.0 579.0 1551.0 571.8 L 1551.0 571.8 Q 1551.0 564.5 1543.8 564.5 L 1487.0 564.5 L 1095.0 564.5" fill="none" stroke="#475569" stroke-width="1.25" stroke-linecap="round" stroke-linejoin="round" marker-end="url(#marker-end-profile-api-serves-guild-admin-service)"/><text x="1557.0" y="571.8" text-anchor="start" fill="none" font-size="15.4" font-weight="600" stroke="#ffffff" stroke-width="2">guild refresh</text><text x="1557.0" y="571.8" text-anchor="start" fill="#374151" font-size="15.4" font-weight="600">guild refresh</text></g><g data-dediren-node-id="guild-ui-entry"><rect data-dediren-node-shape="archimate_rectangle" x="52.0" y="255.8" width="160.0" height="80.0" rx="0" fill="#e0f2fe" stroke="#0369a1" stroke-width="1.25"/><g data-dediren-node-decorator="archimate_application_component" data-dediren-icon-kind="component" data-dediren-icon-size="22"><rect x="188.0" y="264.8" width="18.0" height="15.8" rx="1.5" fill="#e0f2fe" stroke="#0369a1" stroke-width="1.25"/><rect x="184.0" y="267.4" width="7.9" height="5.7" rx="1.2" fill="#e0f2fe" stroke="#0369a1" stroke-width="1.25"/><rect x="184.0" y="274.4" width="7.9" height="5.7" rx="1.2" fill="#e0f2fe" stroke="#0369a1" stroke-width="1.25"/></g><text x="132.0" y="303.2" text-anchor="middle" dominant-baseline="middle" fill="#0c4a6e" font-size="14.0"><tspan x="132.0" dy="0" textLength="50.5" lengthAdjust="spacing">Guild UI</tspan><tspan x="132.0" dy="16.0" textLength="38.1" lengthAdjust="spacing">pages</tspan></text></g><g data-dediren-node-id="guild-admin-ui-entry"><rect data-dediren-node-shape="archimate_rectangle" x="52.0" y="511.8" width="160.0" height="80.0" rx="0" fill="#e0f2fe" stroke="#0369a1" stroke-width="1.25"/><g data-dediren-node-decorator="archimate_application_component" data-dediren-icon-kind="component" data-dediren-icon-size="22"><rect x="188.0" y="520.8" width="18.0" height="15.8" rx="1.5" fill="#e0f2fe" stroke="#0369a1" stroke-width="1.25"/><rect x="184.0" y="523.4" width="7.9" height="5.7" rx="1.2" fill="#e0f2fe" stroke="#0369a1" stroke-width="1.25"/><rect x="184.0" y="530.4" width="7.9" height="5.7" rx="1.2" fill="#e0f2fe" stroke="#0369a1" stroke-width="1.25"/></g><text x="132.0" y="559.2" text-anchor="middle" dominant-baseline="middle" fill="#0c4a6e" font-size="14.0"><tspan x="132.0" dy="0" textLength="74.6" lengthAdjust="spacing">Guild admin</tspan><tspan x="132.0" dy="16.0" textLength="56.0" lengthAdjust="spacing">UI pages</tspan></text></g><g data-dediren-node-id="guild-service"><rect data-dediren-node-shape="archimate_rounded_rectangle" x="934.0" y="302.8" width="160.0" height="80.0" rx="6" fill="#e0f2fe" stroke="#0369a1" stroke-width="1.25"/><g data-dediren-node-decorator="archimate_application_service" data-dediren-icon-kind="service" data-dediren-icon-size="22"><rect x="1066.0" y="311.8" width="22.0" height="13.6" rx="4.0" fill="#e0f2fe" stroke="#0369a1" stroke-width="1.25"/></g><text x="1014.0" y="358.3" text-anchor="middle" dominant-baseline="middle" fill="#0c4a6e" font-size="14.0" textLength="80.9" lengthAdjust="spacing">Guild service</text></g><g data-dediren-node-id="guild-admin-service"><rect data-dediren-node-shape="archimate_rounded_rectangle" x="934.0" y="511.8" width="160.0" height="80.0" rx="6" fill="#e0f2fe" stroke="#0369a1" stroke-width="1.25"/><g data-dediren-node-decorator="archimate_application_service" data-dediren-icon-kind="service" data-dediren-icon-size="22"><rect x="1066.0" y="520.8" width="22.0" height="13.6" rx="4.0" fill="#e0f2fe" stroke="#0369a1" stroke-width="1.25"/></g><text x="1014.0" y="559.2" text-anchor="middle" dominant-baseline="middle" fill="#0c4a6e" font-size="14.0"><tspan x="1014.0" dy="0" textLength="74.6" lengthAdjust="spacing">Guild admin</tspan><tspan x="1014.0" dy="16.0" textLength="44.3" lengthAdjust="spacing">service</tspan></text></g><g data-dediren-node-id="lfm-api"><rect data-dediren-node-shape="archimate_rectangle" x="581.0" y="92.8" width="160.0" height="80.0" rx="0" fill="#e0f2fe" stroke="#0369a1" stroke-width="1.25"/><g data-dediren-node-decorator="archimate_application_component" data-dediren-icon-kind="component" data-dediren-icon-size="22"><rect x="717.0" y="101.8" width="18.0" height="15.8" rx="1.5" fill="#e0f2fe" stroke="#0369a1" stroke-width="1.25"/><rect x="713.0" y="104.4" width="7.9" height="5.7" rx="1.2" fill="#e0f2fe" stroke="#0369a1" stroke-width="1.25"/><rect x="713.0" y="111.4" width="7.9" height="5.7" rx="1.2" fill="#e0f2fe" stroke="#0369a1" stroke-width="1.25"/></g><text x="661.0" y="148.3" text-anchor="middle" dominant-baseline="middle" fill="#0c4a6e" font-size="14.0" textLength="47.4" lengthAdjust="spacing">Lfm.Api</text></g><g data-dediren-node-id="cosmos-guilds"><rect data-dediren-node-shape="archimate_rectangle" x="2072.0" y="52.0" width="160.0" height="80.0" rx="0" fill="#d5e8d4" stroke="#4d7c0f" stroke-width="1.25"/><g data-dediren-node-decorator="archimate_artifact" data-dediren-icon-kind="artifact" data-dediren-icon-size="22"><path data-dediren-icon-part="artifact-document" d="M 2206.2 60.0 L 2216.8 60.0 L 2222.9 66.2 L 2222.9 79.8 L 2206.2 79.8 Z M 2216.8 60.0 L 2216.8 66.2 L 2222.9 66.2" fill="#d5e8d4" stroke="#4d7c0f" stroke-width="1.25"/></g><text x="2152.0" y="99.5" text-anchor="middle" dominant-baseline="middle" fill="#365314" font-size="14.0"><tspan x="2152.0" dy="0" textLength="36.5" lengthAdjust="spacing">guilds</tspan><tspan x="2152.0" dy="16.0" textLength="57.5" lengthAdjust="spacing">container</tspan></text></g><g data-dediren-node-id="cosmos-raiders"><rect data-dediren-node-shape="archimate_rectangle" x="2072.0" y="228.0" width="160.0" height="80.0" rx="0" fill="#d5e8d4" stroke="#4d7c0f" stroke-width="1.25"/><g data-dediren-node-decorator="archimate_artifact" data-dediren-icon-kind="artifact" data-dediren-icon-size="22"><path data-dediren-icon-part="artifact-document" d="M 2206.2 236.0 L 2216.8 236.0 L 2222.9 242.2 L 2222.9 255.8 L 2206.2 255.8 Z M 2216.8 236.0 L 2216.8 242.2 L 2222.9 242.2" fill="#d5e8d4" stroke="#4d7c0f" stroke-width="1.25"/></g><text x="2152.0" y="275.5" text-anchor="middle" dominant-baseline="middle" fill="#365314" font-size="14.0"><tspan x="2152.0" dy="0" textLength="42.7" lengthAdjust="spacing">raiders</tspan><tspan x="2152.0" dy="16.0" textLength="57.5" lengthAdjust="spacing">container</tspan></text></g><g data-dediren-node-id="blizzard-profile-api"><rect data-dediren-node-shape="archimate_rounded_rectangle" x="2072.0" y="499.5" width="160.0" height="80.0" rx="6" fill="#e0f2fe" stroke="#0369a1" stroke-width="1.25"/><g data-dediren-node-decorator="archimate_application_service" data-dediren-icon-kind="service" data-dediren-icon-size="22"><rect x="2204.0" y="508.5" width="22.0" height="13.6" rx="4.0" fill="#e0f2fe" stroke="#0369a1" stroke-width="1.25"/></g><text x="2152.0" y="547.0" text-anchor="middle" dominant-baseline="middle" fill="#0c4a6e" font-size="14.0"><tspan x="2152.0" dy="0" textLength="77.7" lengthAdjust="spacing">WoW Profile</tspan><tspan x="2152.0" dy="16.0" textLength="22.5" lengthAdjust="spacing">API</tspan></text></g></g></svg>

