<svg xmlns="http://www.w3.org/2000/svg" width="2463" height="1072" viewBox="-70.8 -12.0 2462.8 1071.5"><rect x="-70.8" y="-12.0" width="2462.8" height="1071.5" fill="#ffffff"/><g font-family="Inter, Arial, sans-serif" font-size="14.0"><g data-dediren-group-id="guild-current-ui"><rect x="1999.0" y="12.0" width="305.0" height="240.0" rx="4.0" fill="#f8fafc" stroke="#94a3b8" stroke-width="1.0"/><text x="2007.0" y="28.0" fill="#374151" font-size="12.0">Current-guild UI</text></g><g data-dediren-group-id="guild-admin-ui"><rect x="1999.0" y="795.5" width="305.0" height="240.0" rx="4.0" fill="#f8fafc" stroke="#94a3b8" stroke-width="1.0"/><text x="2007.0" y="811.5" fill="#374151" font-size="12.0">Site-admin guild UI</text></g><g data-dediren-group-id="guild-api-realization"><rect x="605.0" y="247.5" width="882.0" height="788.0" rx="4.0" fill="#f8fafc" stroke="#94a3b8" stroke-width="1.0"/><text x="613.0" y="263.5" fill="#374151" font-size="12.0">Guild API realization</text></g><g data-dediren-group-id="guild-data"><rect x="1999.0" y="348.0" width="369.0" height="351.5" rx="4.0" fill="#f8fafc" stroke="#94a3b8" stroke-width="1.0"/><text x="2007.0" y="364.0" fill="#374151" font-size="12.0">Guild data dependencies</text></g><g data-dediren-group-id="guild-external"><rect x="12.0" y="651.5" width="305.0" height="320.0" rx="4.0" fill="#f8fafc" stroke="#94a3b8" stroke-width="1.0"/><text x="20.0" y="667.5" fill="#374151" font-size="12.0">Guild refresh dependency</text></g><g data-dediren-edge-id="guild-service-serves-guild-ui"><defs><marker id="marker-end-guild-service-serves-guild-ui" data-dediren-edge-marker-end="open_arrow" markerWidth="9" markerHeight="9" refX="8" refY="4.5" orient="auto" markerUnits="strokeWidth"><path d="M 1 1 L 8 4.5 L 1 8" fill="none" stroke="#2563eb" stroke-width="1.3" stroke-linecap="round" stroke-linejoin="round"/></marker></defs><path d="M 1029.0 537.5 L 973.0 537.5 Q 965.0 537.5 965.0 529.5 L 965.0 344.5 Q 965.0 336.5 973.0 336.5 L 1110.0 336.5 L 1519.0 336.5 L 1575.0 336.5 Q 1583.0 336.5 1583.0 328.5 L 1583.0 204.0 Q 1583.0 196.0 1591.0 196.0 L 1967.0 196.0 L 2119.5 196.0 L 2256.0 196.0 Q 2264.0 196.0 2264.0 188.0 L 2264.0 100.0 Q 2264.0 92.0 2256.0 92.0 L 2200.0 92.0" fill="none" stroke="#2563eb" stroke-width="1.5" stroke-linecap="round" stroke-linejoin="round" marker-end="url(#marker-end-guild-service-serves-guild-ui)"/><text x="935.6" y="529.1" text-anchor="middle" fill="#1e3a8a" stroke="#ffffff" stroke-width="4" stroke-linejoin="round" paint-order="stroke">guild data</text></g><g data-dediren-edge-id="guild-admin-service-serves-guild-admin-ui"><defs><marker id="marker-end-guild-admin-service-serves-guild-admin-ui" data-dediren-edge-marker-end="open_arrow" markerWidth="9" markerHeight="9" refX="8" refY="4.5" orient="auto" markerUnits="strokeWidth"><path d="M 1 1 L 8 4.5 L 1 8" fill="none" stroke="#2563eb" stroke-width="1.3" stroke-linecap="round" stroke-linejoin="round"/></marker></defs><path d="M 1029.0 811.5 L 973.0 811.5 Q 965.0 811.5 965.0 819.5 L 965.0 971.5 Q 965.0 979.5 973.0 979.5 L 1110.0 979.5 L 1519.0 979.5 L 1967.0 979.5 L 2119.5 979.5 L 2256.0 979.5 Q 2264.0 979.5 2264.0 971.5 L 2264.0 883.5 Q 2264.0 875.5 2256.0 875.5 L 2200.0 875.5" fill="none" stroke="#2563eb" stroke-width="1.5" stroke-linecap="round" stroke-linejoin="round" marker-end="url(#marker-end-guild-admin-service-serves-guild-admin-ui)"/><text x="935.6" y="828.3" text-anchor="middle" fill="#1e3a8a" stroke="#ffffff" stroke-width="4" stroke-linejoin="round" paint-order="stroke">site admin</text></g><g data-dediren-edge-id="api-realizes-guild-service"><defs><marker id="marker-end-api-realizes-guild-service" data-dediren-edge-marker-end="hollow_triangle" markerWidth="10" markerHeight="10" refX="9" refY="5" orient="auto" markerUnits="strokeWidth"><path d="M 1 1 L 9 5 L 1 9 z" fill="#ffffff" stroke="#475569" stroke-width="1.2"/></marker></defs><g data-dediren-line-jump-masks="api-realizes-guild-service"><path d="M 959.0 432.5 Q 965.0 426.5 971.0 432.5" fill="none" stroke="#ffffff" stroke-width="5.5" stroke-linecap="round" stroke-linejoin="round"/></g><path d="M 746.5 368.5 L 746.5 424.5 Q 746.5 432.5 754.5 432.5 L 959.0 432.5 Q 965.0 426.5 971.0 432.5 L 1110.0 432.5 L 1110.0 496.5" fill="none" stroke="#475569" stroke-width="1.5" stroke-linecap="round" stroke-linejoin="round" stroke-dasharray="8 5" marker-end="url(#marker-end-api-realizes-guild-service)"/><text x="928.2" y="449.3" text-anchor="middle" fill="#334155" stroke="#ffffff" stroke-width="4" stroke-linejoin="round" paint-order="stroke">realizes</text></g><g data-dediren-edge-id="api-realizes-guild-admin-service"><defs><marker id="marker-end-api-realizes-guild-admin-service" data-dediren-edge-marker-end="hollow_triangle" markerWidth="10" markerHeight="10" refX="9" refY="5" orient="auto" markerUnits="strokeWidth"><path d="M 1 1 L 9 5 L 1 9 z" fill="#ffffff" stroke="#475569" stroke-width="1.2"/></marker></defs><path d="M 703.5 368.5 L 703.5 698.5 Q 703.5 706.5 711.5 706.5 L 1102.0 706.5 Q 1110.0 706.5 1110.0 714.5 L 1110.0 770.5" fill="none" stroke="#475569" stroke-width="1.5" stroke-linecap="round" stroke-linejoin="round" stroke-dasharray="8 5" marker-end="url(#marker-end-api-realizes-guild-admin-service)"/><text x="906.8" y="723.3" text-anchor="middle" fill="#334155" stroke="#ffffff" stroke-width="4" stroke-linejoin="round" paint-order="stroke">realizes</text></g><g data-dediren-edge-id="guild-service-accesses-guilds"><defs><marker id="marker-end-guild-service-accesses-guilds" data-dediren-edge-marker-end="open_arrow" markerWidth="9" markerHeight="9" refX="8" refY="4.5" orient="auto" markerUnits="strokeWidth"><path d="M 1 1 L 8 4.5 L 1 8" fill="none" stroke="#15803d" stroke-width="1.3" stroke-linecap="round" stroke-linejoin="round"/></marker></defs><path d="M 1191.0 524.8 L 1375.0 524.8 Q 1383.0 524.8 1383.0 532.8 L 1383.0 851.5 Q 1383.0 859.5 1391.0 859.5 L 1519.0 859.5 L 1703.0 859.5 Q 1711.0 859.5 1711.0 851.5 L 1711.0 603.5 Q 1711.0 595.5 1719.0 595.5 L 1967.0 595.5 L 2167.0 595.5" fill="none" stroke="#15803d" stroke-width="1.5" stroke-linecap="round" stroke-linejoin="round" stroke-dasharray="8 5" marker-end="url(#marker-end-guild-service-accesses-guilds)"/><text x="1287.0" y="523.5" text-anchor="middle" fill="#166534" stroke="#ffffff" stroke-width="4" stroke-linejoin="round" paint-order="stroke">guild state</text></g><g data-dediren-edge-id="guild-service-accesses-raiders"><defs><marker id="marker-end-guild-service-accesses-raiders" data-dediren-edge-marker-end="open_arrow" markerWidth="9" markerHeight="9" refX="8" refY="4.5" orient="auto" markerUnits="strokeWidth"><path d="M 1 1 L 8 4.5 L 1 8" fill="none" stroke="#15803d" stroke-width="1.3" stroke-linecap="round" stroke-linejoin="round"/></marker></defs><g data-dediren-line-jump-masks="guild-service-accesses-raiders"><path d="M 1377.0 537.5 Q 1383.0 531.5 1389.0 537.5" fill="none" stroke="#ffffff" stroke-width="5.5" stroke-linecap="round" stroke-linejoin="round"/></g><path d="M 1191.0 537.5 L 1377.0 537.5 Q 1383.0 531.5 1389.0 537.5 L 1519.0 537.5 L 1575.0 537.5 Q 1583.0 537.5 1583.0 529.5 L 1583.0 467.5 Q 1583.0 459.5 1591.0 459.5 L 1831.0 459.5 Q 1839.0 459.5 1839.0 451.5 L 1839.0 427.5 Q 1839.0 419.5 1847.0 419.5 L 1967.0 419.5 L 2167.0 419.5" fill="none" stroke="#15803d" stroke-width="1.5" stroke-linecap="round" stroke-linejoin="round" stroke-dasharray="8 5" marker-end="url(#marker-end-guild-service-accesses-raiders)"/><text x="1355.0" y="547.1" text-anchor="middle" fill="#166534" stroke="#ffffff" stroke-width="4" stroke-linejoin="round" paint-order="stroke">current raider</text></g><g data-dediren-edge-id="guild-admin-service-accesses-guilds"><defs><marker id="marker-end-guild-admin-service-accesses-guilds" data-dediren-edge-marker-end="open_arrow" markerWidth="9" markerHeight="9" refX="8" refY="4.5" orient="auto" markerUnits="strokeWidth"><path d="M 1 1 L 8 4.5 L 1 8" fill="none" stroke="#15803d" stroke-width="1.3" stroke-linecap="round" stroke-linejoin="round"/></marker></defs><path d="M 1191.0 798.8 L 1311.0 798.8 Q 1319.0 798.8 1319.0 806.8 L 1319.0 899.5 Q 1319.0 907.5 1327.0 907.5 L 1519.0 907.5 L 1831.0 907.5 Q 1839.0 907.5 1839.0 899.5 L 1839.0 651.5 Q 1839.0 643.5 1847.0 643.5 L 1967.0 643.5 L 2095.0 643.5 Q 2103.0 643.5 2103.0 635.5 L 2103.0 620.5 Q 2103.0 612.5 2111.0 612.5 L 2167.0 612.5" fill="none" stroke="#15803d" stroke-width="1.5" stroke-linecap="round" stroke-linejoin="round" stroke-dasharray="8 5" marker-end="url(#marker-end-guild-admin-service-accesses-guilds)"/><text x="1255.0" y="761.5" text-anchor="middle" fill="#166534" stroke="#ffffff" stroke-width="4" stroke-linejoin="round" paint-order="stroke">admin guild state</text></g><g data-dediren-edge-id="guild-admin-service-accesses-raiders"><defs><marker id="marker-end-guild-admin-service-accesses-raiders" data-dediren-edge-marker-end="open_arrow" markerWidth="9" markerHeight="9" refX="8" refY="4.5" orient="auto" markerUnits="strokeWidth"><path d="M 1 1 L 8 4.5 L 1 8" fill="none" stroke="#15803d" stroke-width="1.3" stroke-linecap="round" stroke-linejoin="round"/></marker></defs><g data-dediren-line-jump-masks="guild-admin-service-accesses-raiders"><path d="M 1313.0 811.5 Q 1319.0 805.5 1325.0 811.5" fill="none" stroke="#ffffff" stroke-width="5.5" stroke-linecap="round" stroke-linejoin="round"/><path d="M 1377.0 811.5 Q 1383.0 805.5 1389.0 811.5" fill="none" stroke="#ffffff" stroke-width="5.5" stroke-linecap="round" stroke-linejoin="round"/></g><path d="M 1191.0 811.5 L 1313.0 811.5 Q 1319.0 805.5 1325.0 811.5 L 1377.0 811.5 Q 1383.0 805.5 1389.0 811.5 L 1519.0 811.5 L 1639.0 811.5 Q 1647.0 811.5 1647.0 803.5 L 1647.0 535.5 Q 1647.0 527.5 1655.0 527.5 L 1895.0 527.5 Q 1903.0 527.5 1903.0 519.5 L 1903.0 475.5 Q 1903.0 467.5 1911.0 467.5 L 1967.0 467.5 L 2095.0 467.5 Q 2103.0 467.5 2103.0 459.5 L 2103.0 444.5 Q 2103.0 436.5 2111.0 436.5 L 2167.0 436.5" fill="none" stroke="#15803d" stroke-width="1.5" stroke-linecap="round" stroke-linejoin="round" stroke-dasharray="8 5" marker-end="url(#marker-end-guild-admin-service-accesses-raiders)"/><text x="1355.0" y="785.1" text-anchor="middle" fill="#166534" stroke="#ffffff" stroke-width="4" stroke-linejoin="round" paint-order="stroke">bootstrap context</text></g><g data-dediren-edge-id="profile-api-serves-guild-service"><defs><marker id="marker-end-profile-api-serves-guild-service" data-dediren-edge-marker-end="open_arrow" markerWidth="9" markerHeight="9" refX="8" refY="4.5" orient="auto" markerUnits="strokeWidth"><path d="M 1 1 L 8 4.5 L 1 8" fill="none" stroke="#2563eb" stroke-width="1.3" stroke-linecap="round" stroke-linejoin="round"/></marker></defs><g data-dediren-line-jump-masks="profile-api-serves-guild-service"><path d="M 697.5 641.5 Q 703.5 635.5 709.5 641.5" fill="none" stroke="#ffffff" stroke-width="5.5" stroke-linecap="round" stroke-linejoin="round"/></g><path d="M 116.0 803.0 L 60.0 803.0 Q 52.0 803.0 52.0 795.0 L 52.0 715.5 Q 52.0 707.5 60.0 707.5 L 196.5 707.5 L 349.0 707.5 L 501.0 707.5 Q 509.0 707.5 509.0 699.5 L 509.0 649.5 Q 509.0 641.5 517.0 641.5 L 573.0 641.5 L 697.5 641.5 Q 703.5 635.5 709.5 641.5 L 725.0 641.5 L 901.0 641.5 L 1110.0 641.5 L 1247.0 641.5 Q 1255.0 641.5 1255.0 633.5 L 1255.0 558.2 Q 1255.0 550.2 1247.0 550.2 L 1191.0 550.2" fill="none" stroke="#2563eb" stroke-width="1.5" stroke-linecap="round" stroke-linejoin="round" marker-end="url(#marker-end-profile-api-serves-guild-service)"/><text x="9.6" y="794.6" text-anchor="middle" fill="#1e3a8a" stroke="#ffffff" stroke-width="4" stroke-linejoin="round" paint-order="stroke">guild refresh</text></g><g data-dediren-edge-id="profile-api-serves-guild-admin-service"><defs><marker id="marker-end-profile-api-serves-guild-admin-service" data-dediren-edge-marker-end="open_arrow" markerWidth="9" markerHeight="9" refX="8" refY="4.5" orient="auto" markerUnits="strokeWidth"><path d="M 1 1 L 8 4.5 L 1 8" fill="none" stroke="#2563eb" stroke-width="1.3" stroke-linecap="round" stroke-linejoin="round"/></marker></defs><g data-dediren-line-jump-masks="profile-api-serves-guild-admin-service"><path d="M 959.0 915.5 Q 965.0 909.5 971.0 915.5" fill="none" stroke="#ffffff" stroke-width="5.5" stroke-linecap="round" stroke-linejoin="round"/></g><path d="M 116.0 820.0 L 60.0 820.0 Q 52.0 820.0 52.0 828.0 L 52.0 907.5 Q 52.0 915.5 60.0 915.5 L 196.5 915.5 L 349.0 915.5 L 573.0 915.5 L 725.0 915.5 L 901.0 915.5 L 959.0 915.5 Q 965.0 909.5 971.0 915.5 L 1110.0 915.5 L 1247.0 915.5 Q 1255.0 915.5 1255.0 907.5 L 1255.0 832.2 Q 1255.0 824.2 1247.0 824.2 L 1191.0 824.2" fill="none" stroke="#2563eb" stroke-width="1.5" stroke-linecap="round" stroke-linejoin="round" marker-end="url(#marker-end-profile-api-serves-guild-admin-service)"/><text x="9.6" y="836.8" text-anchor="middle" fill="#1e3a8a" stroke="#ffffff" stroke-width="4" stroke-linejoin="round" paint-order="stroke">guild refresh</text></g><g data-dediren-node-id="guild-ui-entry"><rect data-dediren-node-shape="archimate_rectangle" x="2039.0" y="52.0" width="160.0" height="80.0" rx="0" fill="#e8f3ff" stroke="#2563eb" stroke-width="1.5"/><g data-dediren-node-decorator="archimate_application_component" data-dediren-icon-kind="component" data-dediren-icon-size="22"><rect x="2175.0" y="61.0" width="18.0" height="15.8" rx="1.5" fill="#e8f3ff" stroke="#2563eb" stroke-width="1.5"/><rect x="2171.0" y="63.6" width="7.9" height="5.7" rx="1.2" fill="#e8f3ff" stroke="#2563eb" stroke-width="1.5"/><rect x="2171.0" y="70.7" width="7.9" height="5.7" rx="1.2" fill="#e8f3ff" stroke="#2563eb" stroke-width="1.5"/></g><text x="2119.0" y="92.0" text-anchor="middle" dominant-baseline="middle" fill="#172554" font-size="14.0">Guild UI pages</text></g><g data-dediren-node-id="guild-admin-ui-entry"><rect data-dediren-node-shape="archimate_rectangle" x="2039.0" y="835.5" width="160.0" height="80.0" rx="0" fill="#e8f3ff" stroke="#2563eb" stroke-width="1.5"/><g data-dediren-node-decorator="archimate_application_component" data-dediren-icon-kind="component" data-dediren-icon-size="22"><rect x="2175.0" y="844.5" width="18.0" height="15.8" rx="1.5" fill="#e8f3ff" stroke="#2563eb" stroke-width="1.5"/><rect x="2171.0" y="847.1" width="7.9" height="5.7" rx="1.2" fill="#e8f3ff" stroke="#2563eb" stroke-width="1.5"/><rect x="2171.0" y="854.2" width="7.9" height="5.7" rx="1.2" fill="#e8f3ff" stroke="#2563eb" stroke-width="1.5"/></g><text x="2119.0" y="867.5" text-anchor="middle" dominant-baseline="middle" fill="#172554" font-size="14.0"><tspan x="2119.0" dy="0">Guild admin UI</tspan><tspan x="2119.0" dy="16.0">pages</tspan></text></g><g data-dediren-node-id="guild-service"><rect data-dediren-node-shape="archimate_rounded_rectangle" x="1030.0" y="497.5" width="160.0" height="80.0" rx="4.0" fill="#e8f3ff" stroke="#2563eb" stroke-width="1.5"/><g data-dediren-node-decorator="archimate_application_service" data-dediren-icon-kind="service" data-dediren-icon-size="22"><rect x="1162.0" y="506.5" width="22.0" height="13.6" rx="4.0" fill="#e8f3ff" stroke="#2563eb" stroke-width="1.5"/></g><text x="1110.0" y="537.5" text-anchor="middle" dominant-baseline="middle" fill="#172554" font-size="14.0">Guild service</text></g><g data-dediren-node-id="guild-admin-service"><rect data-dediren-node-shape="archimate_rounded_rectangle" x="1030.0" y="771.5" width="160.0" height="80.0" rx="4.0" fill="#e8f3ff" stroke="#2563eb" stroke-width="1.5"/><g data-dediren-node-decorator="archimate_application_service" data-dediren-icon-kind="service" data-dediren-icon-size="22"><rect x="1162.0" y="780.5" width="22.0" height="13.6" rx="4.0" fill="#e8f3ff" stroke="#2563eb" stroke-width="1.5"/></g><text x="1110.0" y="803.5" text-anchor="middle" dominant-baseline="middle" fill="#172554" font-size="14.0"><tspan x="1110.0" dy="0">Guild admin</tspan><tspan x="1110.0" dy="16.0">service</tspan></text></g><g data-dediren-node-id="lfm-api"><rect data-dediren-node-shape="archimate_rectangle" x="645.0" y="287.5" width="160.0" height="80.0" rx="0" fill="#e8f3ff" stroke="#2563eb" stroke-width="1.5"/><g data-dediren-node-decorator="archimate_application_component" data-dediren-icon-kind="component" data-dediren-icon-size="22"><rect x="781.0" y="296.5" width="18.0" height="15.8" rx="1.5" fill="#e8f3ff" stroke="#2563eb" stroke-width="1.5"/><rect x="777.0" y="299.1" width="7.9" height="5.7" rx="1.2" fill="#e8f3ff" stroke="#2563eb" stroke-width="1.5"/><rect x="777.0" y="306.2" width="7.9" height="5.7" rx="1.2" fill="#e8f3ff" stroke="#2563eb" stroke-width="1.5"/></g><text x="725.0" y="327.5" text-anchor="middle" dominant-baseline="middle" fill="#172554" font-size="14.0">Lfm.Api</text></g><g data-dediren-node-id="cosmos-guilds"><rect data-dediren-node-shape="archimate_rectangle" x="2168.0" y="564.0" width="160.0" height="80.0" rx="0" fill="#f7fee7" stroke="#65a30d" stroke-width="1.5"/><g data-dediren-node-decorator="archimate_artifact" data-dediren-icon-kind="artifact" data-dediren-icon-size="22"><path data-dediren-icon-part="artifact-document" d="M 2302.2 572.0 L 2312.8 572.0 L 2318.9 578.2 L 2318.9 591.8 L 2302.2 591.8 Z M 2312.8 572.0 L 2312.8 578.2 L 2318.9 578.2" fill="#f7fee7" stroke="#65a30d" stroke-width="1.5"/></g><text x="2248.0" y="604.0" text-anchor="middle" dominant-baseline="middle" fill="#365314" font-size="14.0">guilds container</text></g><g data-dediren-node-id="cosmos-raiders"><rect data-dediren-node-shape="archimate_rectangle" x="2168.0" y="388.0" width="160.0" height="80.0" rx="0" fill="#f7fee7" stroke="#65a30d" stroke-width="1.5"/><g data-dediren-node-decorator="archimate_artifact" data-dediren-icon-kind="artifact" data-dediren-icon-size="22"><path data-dediren-icon-part="artifact-document" d="M 2302.2 396.0 L 2312.8 396.0 L 2318.9 402.2 L 2318.9 415.8 L 2302.2 415.8 Z M 2312.8 396.0 L 2312.8 402.2 L 2318.9 402.2" fill="#f7fee7" stroke="#65a30d" stroke-width="1.5"/></g><text x="2248.0" y="419.9" text-anchor="middle" dominant-baseline="middle" fill="#365314" font-size="14.0"><tspan x="2248.0" dy="0">raiders</tspan><tspan x="2248.0" dy="16.0">container</tspan></text></g><g data-dediren-node-id="blizzard-profile-api"><rect data-dediren-node-shape="archimate_rounded_rectangle" x="117.0" y="771.5" width="160.0" height="80.0" rx="4.0" fill="#e8f3ff" stroke="#2563eb" stroke-width="1.5"/><g data-dediren-node-decorator="archimate_application_service" data-dediren-icon-kind="service" data-dediren-icon-size="22"><rect x="249.0" y="780.5" width="22.0" height="13.6" rx="4.0" fill="#e8f3ff" stroke="#2563eb" stroke-width="1.5"/></g><text x="197.0" y="811.5" text-anchor="middle" dominant-baseline="middle" fill="#172554" font-size="14.0">WoW Profile API</text></g></g></svg>
