<svg xmlns="http://www.w3.org/2000/svg" width="1843" height="1076" viewBox="-12.0 -12.0 1843.0 1076.0"><rect x="-12.0" y="-12.0" width="1843.0" height="1076.0" fill="#ffffff"/><g font-family="Inter, Arial, sans-serif" font-size="14"><g data-dediren-group-id="ops-api-host"><rect x="733.0" y="316.0" width="978.0" height="660.0" rx="4" fill="#f8fafc" stroke="#94a3b8" stroke-width="1"/><text x="741.0" y="332.0" fill="#374151" font-size="12">Readiness API realization and host</text></g><g data-dediren-group-id="ops-readiness-observability"><rect x="108.0" y="12.0" width="369.0" height="416.0" rx="4" fill="#f8fafc" stroke="#94a3b8" stroke-width="1"/><text x="116.0" y="28.0" fill="#374151" font-size="12">Readiness dependency and telemetry</text></g><g data-dediren-edge-id="api-realizes-ops-service"><marker id="marker-end-api-realizes-ops-service" data-dediren-edge-marker-end="hollow_triangle" markerWidth="10" markerHeight="10" refX="5" refY="5" orient="auto"><path d="M 1 1 L 9 5 L 1 9 Z" fill="#ffffff" stroke="#475569" stroke-width="1"/></marker><path d="M 1238.0 727.0 L 1238.0 783.0 Q 1238.0 791.0 1246.0 791.0 L 1582.0 791.0 Q 1590.0 791.0 1590.0 799.0 L 1590.0 855.0" fill="none" stroke="#475569" stroke-width="1.5" stroke-linecap="round" stroke-linejoin="round" stroke-dasharray="8 5" marker-end="url(#marker-end-api-realizes-ops-service)"/><text x="1414.0" y="809.0" text-anchor="middle" fill="none" font-size="15.4" font-weight="600" stroke="#ffffff" stroke-width="2">realizes</text><text x="1414.0" y="809.0" text-anchor="middle" fill="#334155" font-size="15.4" font-weight="600">realizes</text></g><g data-dediren-edge-id="function-app-hosts-api"><marker id="marker-end-function-app-hosts-api" data-dediren-edge-marker-end="open_arrow" markerWidth="10" markerHeight="10" refX="5" refY="5" orient="auto"><path d="M 1 1 L 9 5 L 1 9" fill="none" stroke="#2563eb" stroke-width="1.5"/></marker><path d="M 853.0 517.0 L 853.0 573.0 Q 853.0 581.0 861.0 581.0 L 1230.0 581.0 Q 1238.0 581.0 1238.0 589.0 L 1238.0 645.0" fill="none" stroke="#2563eb" stroke-width="1.5" stroke-linecap="round" stroke-linejoin="round" marker-end="url(#marker-end-function-app-hosts-api)"/><text x="1045.5" y="599.0" text-anchor="middle" fill="none" font-size="15.4" font-weight="600" stroke="#ffffff" stroke-width="2">hosts</text><text x="1045.5" y="599.0" text-anchor="middle" fill="#1e3a8a" font-size="15.4" font-weight="600">hosts</text></g><g data-dediren-edge-id="ops-service-accesses-cosmos"><marker id="marker-end-ops-service-accesses-cosmos" data-dediren-edge-marker-end="open_arrow" markerWidth="10" markerHeight="10" refX="5" refY="5" orient="auto"><path d="M 1 1 L 9 5 L 1 9" fill="none" stroke="#15803d" stroke-width="1.5"/></marker><path d="M 1671.0 896.0 L 1743.0 896.0 L 1799.0 896.0 Q 1807.0 896.0 1807.0 904.0 L 1807.0 1032.0 Q 1807.0 1040.0 1799.0 1040.0 L 1222.0 1040.0 L 292.5 1040.0 L 20.0 1040.0 Q 12.0 1040.0 12.0 1032.0 L 12.0 100.0 Q 12.0 92.0 20.0 92.0 L 76.0 92.0 L 276.0 92.0" fill="none" stroke="#15803d" stroke-width="1.5" stroke-linecap="round" stroke-linejoin="round" stroke-dasharray="8 5" marker-end="url(#marker-end-ops-service-accesses-cosmos)"/><text x="1725.0" y="914.0" text-anchor="middle" fill="none" font-size="15.4" font-weight="600" stroke="#ffffff" stroke-width="2">readiness</text><text x="1725.0" y="914.0" text-anchor="middle" fill="#166534" font-size="15.4" font-weight="600">readiness</text></g><g data-dediren-edge-id="app-insights-serves-function-app"><marker id="marker-end-app-insights-serves-function-app" data-dediren-edge-marker-end="open_arrow" markerWidth="10" markerHeight="10" refX="5" refY="5" orient="auto"><path d="M 1 1 L 9 5 L 1 9" fill="none" stroke="#2563eb" stroke-width="1.5"/></marker><path d="M 276.0 268.0 L 220.0 268.0 Q 212.0 268.0 212.0 276.0 L 212.0 364.0 Q 212.0 372.0 220.0 372.0 L 356.5 372.0 L 509.0 372.0 L 701.0 372.0 L 853.5 372.0 L 990.0 372.0 Q 998.0 372.0 998.0 380.0 L 998.0 468.0 Q 998.0 476.0 990.0 476.0 L 934.0 476.0" fill="none" stroke="#2563eb" stroke-width="1.5" stroke-linecap="round" stroke-linejoin="round" marker-end="url(#marker-end-app-insights-serves-function-app)"/><text x="230.0" y="286.0" text-anchor="middle" fill="none" font-size="15.4" font-weight="600" stroke="#ffffff" stroke-width="2">telemetry</text><text x="230.0" y="286.0" text-anchor="middle" fill="#1e3a8a" font-size="15.4" font-weight="600">telemetry</text></g><g data-dediren-node-id="ops-health-service"><rect data-dediren-node-shape="archimate_rounded_rectangle" x="1510.0" y="856.0" width="160.0" height="80.0" rx="4" fill="#e8f3ff" stroke="#2563eb" stroke-width="1.5"/><g data-dediren-node-decorator="archimate_application_service" data-dediren-icon-kind="service" data-dediren-icon-size="22"><rect x="1642.0" y="867.6" width="22.0" height="11.0" rx="4.0" fill="#e8f3ff" stroke="#2563eb" stroke-width="1.5"/></g><text x="1590.0" y="900.7" text-anchor="middle" fill="#172554">Operational readiness service</text></g><g data-dediren-node-id="lfm-api"><rect data-dediren-node-shape="archimate_rectangle" x="1158.0" y="646.0" width="160.0" height="80.0" rx="0" fill="#e8f3ff" stroke="#2563eb" stroke-width="1.5"/><g data-dediren-node-decorator="archimate_application_component" data-dediren-icon-kind="component" data-dediren-icon-size="22"><rect x="1294.8" y="656.8" width="15.8" height="14.1" fill="#e8f3ff" stroke="#2563eb" stroke-width="1.5"/><rect x="1290.0" y="659.4" width="6.2" height="4.0" fill="#e8f3ff" stroke="#2563eb" stroke-width="1.5"/><rect x="1290.0" y="665.6" width="6.2" height="4.0" fill="#e8f3ff" stroke="#2563eb" stroke-width="1.5"/></g><text x="1238.0" y="690.7" text-anchor="middle" fill="#172554">Lfm.Api</text></g><g data-dediren-node-id="function-app"><rect data-dediren-node-shape="archimate_rectangle" x="773.0" y="436.0" width="160.0" height="80.0" rx="0" fill="#ecfdf3" stroke="#16a34a" stroke-width="1.5"/><g data-dediren-node-decorator="archimate_technology_node" data-dediren-icon-kind="node" data-dediren-icon-size="22"><rect x="905.0" y="447.6" width="18.0" height="13.6" fill="#ecfdf3" stroke="#16a34a" stroke-width="1.5"/><path data-dediren-icon-part="node-3d-edges" d="M 919.1 445.0 L 927.0 445.0 L 927.0 457.8 M 923.0 447.6 L 927.0 445.0" fill="none" stroke="#16a34a" stroke-width="1.5"/></g><text x="853.0" y="480.7" text-anchor="middle" fill="#14532d">Azure Function App</text></g><g data-dediren-node-id="cosmos-database"><rect data-dediren-node-shape="archimate_rectangle" x="277.0" y="52.0" width="160.0" height="80.0" rx="0" fill="#f7fee7" stroke="#65a30d" stroke-width="1.5"/><g data-dediren-node-decorator="archimate_artifact" data-dediren-icon-kind="artifact" data-dediren-icon-size="22"><path data-dediren-icon-part="artifact" d="M 409 61 L 431 61 L 420 76.84 Z" fill="#f7fee7" stroke="#65a30d" stroke-width="1.5"/></g><text x="357.0" y="96.7" text-anchor="middle" fill="#365314">Cosmos SQL database</text></g><g data-dediren-node-id="application-insights"><rect data-dediren-node-shape="archimate_rectangle" x="277.0" y="228.0" width="160.0" height="80.0" rx="0" fill="#ecfdf3" stroke="#16a34a" stroke-width="1.5"/><g data-dediren-node-decorator="archimate_technology_node" data-dediren-icon-kind="node" data-dediren-icon-size="22"><rect x="409.0" y="239.6" width="18.0" height="13.6" fill="#ecfdf3" stroke="#16a34a" stroke-width="1.5"/><path data-dediren-icon-part="node-3d-edges" d="M 423.1 237.0 L 431.0 237.0 L 431.0 249.8 M 427.0 239.6 L 431.0 237.0" fill="none" stroke="#16a34a" stroke-width="1.5"/></g><text x="357.0" y="272.7" text-anchor="middle" fill="#14532d">Application Insights</text></g></g></svg>
