<svg xmlns="http://www.w3.org/2000/svg" width="2377" height="1025" viewBox="-79.5 -12.0 2376.5 1025.0"><rect x="-79.5" y="-12.0" width="2376.5" height="1025.0" fill="#ffffff"/><g font-family="Inter, Arial, sans-serif" font-size="14.0"><g data-dediren-group-id="reference-consumption-ui"><rect x="1647.0" y="12.0" width="305.0" height="240.0" rx="4.0" fill="#f8fafc" stroke="#94a3b8" stroke-width="1.0"/><text x="1655.0" y="28.0" fill="#374151" font-size="12.0">Reference consumption UI</text></g><g data-dediren-group-id="reference-refresh-ui"><rect x="1647.0" y="749.0" width="305.0" height="240.0" rx="4.0" fill="#f8fafc" stroke="#94a3b8" stroke-width="1.0"/><text x="1655.0" y="765.0" fill="#374151" font-size="12.0">Reference refresh UI</text></g><g data-dediren-group-id="reference-api-realization"><rect x="573.0" y="107.0" width="754.0" height="723.0" rx="4.0" fill="#f8fafc" stroke="#94a3b8" stroke-width="1.0"/><text x="581.0" y="123.0" fill="#374151" font-size="12.0">Reference API realization</text></g><g data-dediren-group-id="reference-blob-store"><rect x="1647.0" y="348.0" width="626.0" height="305.0" rx="4.0" fill="#f8fafc" stroke="#94a3b8" stroke-width="1.0"/><text x="1655.0" y="364.0" fill="#374151" font-size="12.0">Reference blob store</text></g><g data-dediren-group-id="reference-refresh-external"><rect x="12.0" y="526.0" width="305.0" height="240.0" rx="4.0" fill="#f8fafc" stroke="#94a3b8" stroke-width="1.0"/><text x="20.0" y="542.0" fill="#374151" font-size="12.0">Reference refresh dependency</text></g><g data-dediren-edge-id="reference-service-serves-reference-ui"><defs><marker id="marker-end-reference-service-serves-reference-ui" data-dediren-edge-marker-end="open_arrow" markerWidth="9" markerHeight="9" refX="8" refY="4.5" orient="auto" markerUnits="strokeWidth"><path d="M 1 1 L 8 4.5 L 1 8" fill="none" stroke="#2563eb" stroke-width="1.3" stroke-linecap="round" stroke-linejoin="round"/></marker></defs><path d="M 997.0 397.0 L 941.0 397.0 Q 933.0 397.0 933.0 389.0 L 933.0 204.0 Q 933.0 196.0 941.0 196.0 L 1078.0 196.0 L 1359.0 196.0 L 1615.0 196.0 L 1767.5 196.0 L 1904.0 196.0 Q 1912.0 196.0 1912.0 188.0 L 1912.0 100.0 Q 1912.0 92.0 1904.0 92.0 L 1848.0 92.0" fill="none" stroke="#2563eb" stroke-width="1.5" stroke-linecap="round" stroke-linejoin="round" marker-end="url(#marker-end-reference-service-serves-reference-ui)"/><text x="886.2" y="388.6" text-anchor="middle" fill="#1e3a8a" stroke="#ffffff" stroke-width="4" stroke-linejoin="round" paint-order="stroke">reference data</text></g><g data-dediren-edge-id="reference-refresh-service-serves-ui"><defs><marker id="marker-end-reference-refresh-service-serves-ui" data-dediren-edge-marker-end="open_arrow" markerWidth="9" markerHeight="9" refX="8" refY="4.5" orient="auto" markerUnits="strokeWidth"><path d="M 1 1 L 8 4.5 L 1 8" fill="none" stroke="#2563eb" stroke-width="1.3" stroke-linecap="round" stroke-linejoin="round"/></marker></defs><path d="M 997.0 606.0 L 941.0 606.0 Q 933.0 606.0 933.0 614.0 L 933.0 766.0 Q 933.0 774.0 941.0 774.0 L 1078.0 774.0 L 1359.0 774.0 L 1415.0 774.0 Q 1423.0 774.0 1423.0 782.0 L 1423.0 925.0 Q 1423.0 933.0 1431.0 933.0 L 1615.0 933.0 L 1767.5 933.0 L 1904.0 933.0 Q 1912.0 933.0 1912.0 925.0 L 1912.0 837.0 Q 1912.0 829.0 1904.0 829.0 L 1848.0 829.0" fill="none" stroke="#2563eb" stroke-width="1.5" stroke-linecap="round" stroke-linejoin="round" marker-end="url(#marker-end-reference-refresh-service-serves-ui)"/><text x="886.2" y="622.8" text-anchor="middle" fill="#1e3a8a" stroke="#ffffff" stroke-width="4" stroke-linejoin="round" paint-order="stroke">refresh stream</text></g><g data-dediren-edge-id="api-realizes-reference-service"><defs><marker id="marker-end-api-realizes-reference-service" data-dediren-edge-marker-end="hollow_triangle" markerWidth="10" markerHeight="10" refX="9" refY="5" orient="auto" markerUnits="strokeWidth"><path d="M 1 1 L 9 5 L 1 9 z" fill="#ffffff" stroke="#475569" stroke-width="1.2"/></marker></defs><g data-dediren-line-jump-masks="api-realizes-reference-service"><path d="M 927.0 292.0 Q 933.0 286.0 939.0 292.0" fill="none" stroke="#ffffff" stroke-width="5.5" stroke-linecap="round" stroke-linejoin="round"/></g><path d="M 714.5 228.0 L 714.5 284.0 Q 714.5 292.0 722.5 292.0 L 927.0 292.0 Q 933.0 286.0 939.0 292.0 L 1078.0 292.0 L 1078.0 356.0" fill="none" stroke="#475569" stroke-width="1.5" stroke-linecap="round" stroke-linejoin="round" stroke-dasharray="8 5" marker-end="url(#marker-end-api-realizes-reference-service)"/><text x="896.2" y="308.8" text-anchor="middle" fill="#334155" stroke="#ffffff" stroke-width="4" stroke-linejoin="round" paint-order="stroke">realizes</text></g><g data-dediren-edge-id="api-realizes-reference-refresh-service"><defs><marker id="marker-end-api-realizes-reference-refresh-service" data-dediren-edge-marker-end="hollow_triangle" markerWidth="10" markerHeight="10" refX="9" refY="5" orient="auto" markerUnits="strokeWidth"><path d="M 1 1 L 9 5 L 1 9 z" fill="#ffffff" stroke="#475569" stroke-width="1.2"/></marker></defs><path d="M 671.5 228.0 L 671.5 493.0 Q 671.5 501.0 679.5 501.0 L 1070.0 501.0 Q 1078.0 501.0 1078.0 509.0 L 1078.0 565.0" fill="none" stroke="#475569" stroke-width="1.5" stroke-linecap="round" stroke-linejoin="round" stroke-dasharray="8 5" marker-end="url(#marker-end-api-realizes-reference-refresh-service)"/><text x="874.8" y="517.8" text-anchor="middle" fill="#334155" stroke="#ffffff" stroke-width="4" stroke-linejoin="round" paint-order="stroke">realizes</text></g><g data-dediren-edge-id="storage-composes-wow-reference"><path d="M 1848.0 428.0 L 2000.0 428.0 Q 2008.0 428.0 2008.0 436.0 L 2008.0 511.2 Q 2008.0 519.2 2016.0 519.2 L 2072.0 519.2" fill="none" stroke="#64748b" stroke-width="1.5" stroke-linecap="round" stroke-linejoin="round"/><text x="1928.0" y="444.8" text-anchor="middle" fill="#374151" stroke="#ffffff" stroke-width="4" stroke-linejoin="round" paint-order="stroke">blob container</text></g><g data-dediren-edge-id="reference-service-accesses-wow-reference"><defs><marker id="marker-end-reference-service-accesses-wow-reference" data-dediren-edge-marker-end="open_arrow" markerWidth="9" markerHeight="9" refX="8" refY="4.5" orient="auto" markerUnits="strokeWidth"><path d="M 1 1 L 8 4.5 L 1 8" fill="none" stroke="#15803d" stroke-width="1.3" stroke-linecap="round" stroke-linejoin="round"/></marker></defs><path d="M 1159.0 397.0 L 1359.0 397.0 L 1415.0 397.0 Q 1423.0 397.0 1423.0 405.0 L 1423.0 524.0 Q 1423.0 532.0 1431.0 532.0 L 1615.0 532.0 L 1767.5 532.0 L 1944.0 532.0 L 2072.0 532.0" fill="none" stroke="#15803d" stroke-width="1.5" stroke-linecap="round" stroke-linejoin="round" stroke-dasharray="8 5" marker-end="url(#marker-end-reference-service-accesses-wow-reference)"/><text x="1259.0" y="388.6" text-anchor="middle" fill="#166534" stroke="#ffffff" stroke-width="4" stroke-linejoin="round" paint-order="stroke">read blobs</text></g><g data-dediren-edge-id="reference-refresh-service-accesses-wow-reference"><defs><marker id="marker-end-reference-refresh-service-accesses-wow-reference" data-dediren-edge-marker-end="open_arrow" markerWidth="9" markerHeight="9" refX="8" refY="4.5" orient="auto" markerUnits="strokeWidth"><path d="M 1 1 L 8 4.5 L 1 8" fill="none" stroke="#15803d" stroke-width="1.3" stroke-linecap="round" stroke-linejoin="round"/></marker></defs><path d="M 1159.0 597.5 L 1359.0 597.5 L 1551.0 597.5 L 1551.0 597.0 L 1615.0 597.0 L 1767.5 597.0 L 1944.0 597.0 L 2000.0 597.0 Q 2008.0 597.0 2008.0 589.0 L 2008.0 552.8 Q 2008.0 544.8 2016.0 544.8 L 2072.0 544.8" fill="none" stroke="#15803d" stroke-width="1.5" stroke-linecap="round" stroke-linejoin="round" stroke-dasharray="8 5" marker-end="url(#marker-end-reference-refresh-service-accesses-wow-reference)"/><text x="1259.0" y="589.1" text-anchor="middle" fill="#166534" stroke="#ffffff" stroke-width="4" stroke-linejoin="round" paint-order="stroke">write blobs</text></g><g data-dediren-edge-id="game-data-api-serves-reference-refresh-service"><defs><marker id="marker-end-game-data-api-serves-reference-refresh-service" data-dediren-edge-marker-end="open_arrow" markerWidth="9" markerHeight="9" refX="8" refY="4.5" orient="auto" markerUnits="strokeWidth"><path d="M 1 1 L 8 4.5 L 1 8" fill="none" stroke="#2563eb" stroke-width="1.3" stroke-linecap="round" stroke-linejoin="round"/></marker></defs><g data-dediren-line-jump-masks="game-data-api-serves-reference-refresh-service"><path d="M 927.0 710.0 Q 933.0 704.0 939.0 710.0" fill="none" stroke="#ffffff" stroke-width="5.5" stroke-linecap="round" stroke-linejoin="round"/></g><path d="M 116.0 606.0 L 60.0 606.0 Q 52.0 606.0 52.0 614.0 L 52.0 702.0 Q 52.0 710.0 60.0 710.0 L 196.5 710.0 L 349.0 710.0 L 541.0 710.0 L 693.0 710.0 L 869.0 710.0 L 927.0 710.0 Q 933.0 704.0 939.0 710.0 L 1078.0 710.0 L 1215.0 710.0 Q 1223.0 710.0 1223.0 702.0 L 1223.0 622.5 Q 1223.0 614.5 1215.0 614.5 L 1159.0 614.5" fill="none" stroke="#2563eb" stroke-width="1.5" stroke-linecap="round" stroke-linejoin="round" marker-end="url(#marker-end-game-data-api-serves-reference-refresh-service)"/><text x="5.2" y="622.8" text-anchor="middle" fill="#1e3a8a" stroke="#ffffff" stroke-width="4" stroke-linejoin="round" paint-order="stroke">refresh source</text></g><g data-dediren-node-id="reference-ui-entry"><rect data-dediren-node-shape="archimate_rectangle" x="1687.0" y="52.0" width="160.0" height="80.0" rx="0" fill="#e8f3ff" stroke="#2563eb" stroke-width="1.5"/><g data-dediren-node-decorator="archimate_application_component" data-dediren-icon-kind="component" data-dediren-icon-size="22"><rect x="1823.0" y="61.0" width="18.0" height="15.8" rx="1.5" fill="#e8f3ff" stroke="#2563eb" stroke-width="1.5"/><rect x="1819.0" y="63.6" width="7.9" height="5.7" rx="1.2" fill="#e8f3ff" stroke="#2563eb" stroke-width="1.5"/><rect x="1819.0" y="70.7" width="7.9" height="5.7" rx="1.2" fill="#e8f3ff" stroke="#2563eb" stroke-width="1.5"/></g><text x="1767.0" y="84.0" text-anchor="middle" dominant-baseline="middle" fill="#172554" font-size="14.0"><tspan x="1767.0" dy="0">Reference data</tspan><tspan x="1767.0" dy="16.0">consumption UI</tspan></text></g><g data-dediren-node-id="reference-refresh-ui-entry"><rect data-dediren-node-shape="archimate_rectangle" x="1687.0" y="789.0" width="160.0" height="80.0" rx="0" fill="#e8f3ff" stroke="#2563eb" stroke-width="1.5"/><g data-dediren-node-decorator="archimate_application_component" data-dediren-icon-kind="component" data-dediren-icon-size="22"><rect x="1823.0" y="798.0" width="18.0" height="15.8" rx="1.5" fill="#e8f3ff" stroke="#2563eb" stroke-width="1.5"/><rect x="1819.0" y="800.6" width="7.9" height="5.7" rx="1.2" fill="#e8f3ff" stroke="#2563eb" stroke-width="1.5"/><rect x="1819.0" y="807.7" width="7.9" height="5.7" rx="1.2" fill="#e8f3ff" stroke="#2563eb" stroke-width="1.5"/></g><text x="1767.0" y="821.0" text-anchor="middle" dominant-baseline="middle" fill="#172554" font-size="14.0"><tspan x="1767.0" dy="0">Reference</tspan><tspan x="1767.0" dy="16.0">refresh UI</tspan></text></g><g data-dediren-node-id="wow-reference-service"><rect data-dediren-node-shape="archimate_rounded_rectangle" x="998.0" y="357.0" width="160.0" height="80.0" rx="4.0" fill="#e8f3ff" stroke="#2563eb" stroke-width="1.5"/><g data-dediren-node-decorator="archimate_application_service" data-dediren-icon-kind="service" data-dediren-icon-size="22"><rect x="1130.0" y="366.0" width="22.0" height="13.6" rx="4.0" fill="#e8f3ff" stroke="#2563eb" stroke-width="1.5"/></g><text x="1078.0" y="388.9" text-anchor="middle" dominant-baseline="middle" fill="#172554" font-size="14.0"><tspan x="1078.0" dy="0">WoW reference</tspan><tspan x="1078.0" dy="16.0">lookup service</tspan></text></g><g data-dediren-node-id="reference-refresh-service"><rect data-dediren-node-shape="archimate_rounded_rectangle" x="998.0" y="566.0" width="160.0" height="80.0" rx="4.0" fill="#e8f3ff" stroke="#2563eb" stroke-width="1.5"/><g data-dediren-node-decorator="archimate_application_service" data-dediren-icon-kind="service" data-dediren-icon-size="22"><rect x="1130.0" y="575.0" width="22.0" height="13.6" rx="4.0" fill="#e8f3ff" stroke="#2563eb" stroke-width="1.5"/></g><text x="1078.0" y="598.0" text-anchor="middle" dominant-baseline="middle" fill="#172554" font-size="14.0"><tspan x="1078.0" dy="0">WoW reference</tspan><tspan x="1078.0" dy="16.0">refresh service</tspan></text></g><g data-dediren-node-id="lfm-api"><rect data-dediren-node-shape="archimate_rectangle" x="613.0" y="147.0" width="160.0" height="80.0" rx="0" fill="#e8f3ff" stroke="#2563eb" stroke-width="1.5"/><g data-dediren-node-decorator="archimate_application_component" data-dediren-icon-kind="component" data-dediren-icon-size="22"><rect x="749.0" y="156.0" width="18.0" height="15.8" rx="1.5" fill="#e8f3ff" stroke="#2563eb" stroke-width="1.5"/><rect x="745.0" y="158.6" width="7.9" height="5.7" rx="1.2" fill="#e8f3ff" stroke="#2563eb" stroke-width="1.5"/><rect x="745.0" y="165.7" width="7.9" height="5.7" rx="1.2" fill="#e8f3ff" stroke="#2563eb" stroke-width="1.5"/></g><text x="693.0" y="187.0" text-anchor="middle" dominant-baseline="middle" fill="#172554" font-size="14.0">Lfm.Api</text></g><g data-dediren-node-id="storage-account"><rect data-dediren-node-shape="archimate_rectangle" x="1687.0" y="388.0" width="160.0" height="80.0" rx="0" fill="#ecfdf3" stroke="#16a34a" stroke-width="1.5"/><g data-dediren-node-decorator="archimate_technology_node" data-dediren-icon-kind="node" data-dediren-icon-size="22"><rect x="1819.0" y="401.0" width="18.0" height="12.8" rx="1.5" fill="#ecfdf3" stroke="#16a34a" stroke-width="1.5"/><path data-dediren-icon-part="node-3d-edges" d="M 1819.0 401.0 L 1823.0 397.0 L 1841.0 397.0 L 1837.0 401.0 M 1837.0 401.0 L 1841.0 397.0 M 1837.0 413.7 L 1841.0 409.8 M 1841.0 397.0 L 1841.0 409.8" fill="none" stroke="#16a34a" stroke-width="1.5" stroke-linejoin="round"/></g><text x="1767.0" y="428.0" text-anchor="middle" dominant-baseline="middle" fill="#14532d" font-size="14.0">Storage account</text></g><g data-dediren-node-id="wow-reference-container"><rect data-dediren-node-shape="archimate_rectangle" x="2073.0" y="492.0" width="160.0" height="80.0" rx="0" fill="#f7fee7" stroke="#65a30d" stroke-width="1.5"/><g data-dediren-node-decorator="archimate_artifact" data-dediren-icon-kind="artifact" data-dediren-icon-size="22"><path data-dediren-icon-part="artifact-document" d="M 2207.2 500.0 L 2217.8 500.0 L 2223.9 506.2 L 2223.9 519.8 L 2207.2 519.8 Z M 2217.8 500.0 L 2217.8 506.2 L 2223.9 506.2" fill="#f7fee7" stroke="#65a30d" stroke-width="1.5"/></g><text x="2153.0" y="524.0" text-anchor="middle" dominant-baseline="middle" fill="#365314" font-size="14.0"><tspan x="2153.0" dy="0">wow reference</tspan><tspan x="2153.0" dy="16.0">blobs</tspan></text></g><g data-dediren-node-id="blizzard-game-data-api"><rect data-dediren-node-shape="archimate_rounded_rectangle" x="117.0" y="566.0" width="160.0" height="80.0" rx="4.0" fill="#e8f3ff" stroke="#2563eb" stroke-width="1.5"/><g data-dediren-node-decorator="archimate_application_service" data-dediren-icon-kind="service" data-dediren-icon-size="22"><rect x="249.0" y="575.0" width="22.0" height="13.6" rx="4.0" fill="#e8f3ff" stroke="#2563eb" stroke-width="1.5"/></g><text x="197.0" y="598.0" text-anchor="middle" dominant-baseline="middle" fill="#172554" font-size="14.0"><tspan x="197.0" dy="0">WoW Game Data</tspan><tspan x="197.0" dy="16.0">API</tspan></text></g></g></svg>
