<svg xmlns="http://www.w3.org/2000/svg" role="img" width="3102" height="1184" viewBox="-20 -52 3102 1216" data-arch-a11y="root" data-arch-a11y-viewbox="-20.0 -20.0 3102.0 1184.0"><title>Auth and Profile - Service Realization</title>
<desc>Which components and services realize Battle.net auth and character profile?</desc>
<text data-arch-a11y="visible-title" x="-12" y="-32" font-family="sans-serif" font-size="16" font-weight="bold">Auth and Profile - Service Realization</text><rect x="-20.0" y="-20.0" width="3102.0" height="1184.0" fill="#ffffff"/><g font-family="Inter, &quot;Liberation Sans&quot;, &quot;Noto Sans&quot;, Arial, &quot;Helvetica Neue&quot;, &quot;Segoe UI&quot;, sans-serif" font-size="14"><g data-dediren-group-id="auth-profile-ui"><rect x="12.0" y="530.5" width="722.0" height="484.0" rx="8" fill="#f8fafc" stroke="#94a3b8" stroke-width="1"/><text x="20.0" y="546.5" fill="#334155" font-size="12">Auth and profile UI</text></g><g data-dediren-group-id="auth-profile-api-host"><rect x="1198.0" y="412.2" width="979.0" height="671.7" rx="8" fill="#f8fafc" stroke="#94a3b8" stroke-width="1"/><text x="1206.0" y="428.2" fill="#334155" font-size="12">API realization</text></g><g data-dediren-group-id="auth-profile-data"><rect x="2641.0" y="12.0" width="409.0" height="512.0" rx="8" fill="#f8fafc" stroke="#94a3b8" stroke-width="1"/><text x="2649.0" y="28.0" fill="#334155" font-size="12">Session, profile, and media state</text></g><g data-dediren-group-id="auth-profile-external"><rect x="2641.0" y="620.0" width="241.0" height="512.0" rx="8" fill="#f8fafc" stroke="#94a3b8" stroke-width="1"/><text x="2649.0" y="636.0" fill="#334155" font-size="12">External Blizzard dependencies</text></g><g data-dediren-edge-id="auth-service-serves-auth-ui"><marker id="marker-end-auth-service-serves-auth-ui" data-dediren-edge-marker-end="open_arrow" markerWidth="10" markerHeight="10" refX="9" refY="5" orient="auto"><path d="M 1 1 L 9 5 L 1 9" fill="none" stroke="#475569" stroke-width="1.5"/></marker><path d="M 1703.0 538.8 L 1647.0 538.8 Q 1639.0 538.8 1639.0 530.8 L 1639.0 497.0 Q 1639.0 489.0 1631.0 489.0 L 1575.0 489.0 L 1318.5 489.0 L 1166.0 489.0 L 1062.0 489.0 Q 1054.0 489.0 1054.0 497.0 L 1054.0 543.0 Q 1054.0 551.0 1046.0 551.0 L 838.0 551.0 Q 830.0 551.0 830.0 559.0 L 830.0 602.5 Q 830.0 610.5 822.0 610.5 L 766.0 610.5 L 485.5 610.5 L 309.0 610.5 L 213.0 610.5" fill="none" stroke="#475569" stroke-width="1.25" stroke-linecap="round" stroke-linejoin="round" marker-end="url(#marker-end-auth-service-serves-auth-ui)"/><text x="1657.0" y="528.8" text-anchor="middle" fill="none" font-size="15.4" font-weight="600" stroke="#ffffff" stroke-width="2">auth flow</text><text x="1657.0" y="528.8" text-anchor="middle" fill="#374151" font-size="15.4" font-weight="600">auth flow</text></g><g data-dediren-edge-id="auth-ui-performs-session-expiry-detection"><marker id="marker-start-auth-ui-performs-session-expiry-detection" data-dediren-edge-marker-start="filled_circle" markerWidth="10" markerHeight="10" refX="1" refY="5" orient="auto"><circle cx="5" cy="5" r="3.5" fill="#475569" stroke="#475569" stroke-width="1"/></marker><marker id="marker-end-auth-ui-performs-session-expiry-detection" data-dediren-edge-marker-end="open_arrow" markerWidth="10" markerHeight="10" refX="9" refY="5" orient="auto"><path d="M 1 1 L 9 5 L 1 9" fill="none" stroke="#475569" stroke-width="1.5"/></marker><path d="M 132.0 651.5 L 132.0 811.5 Q 132.0 819.5 140.0 819.5 L 477.0 819.5 Q 485.0 819.5 485.0 827.5 L 485.0 883.5" fill="none" stroke="#475569" stroke-width="1.25" stroke-linecap="round" stroke-linejoin="round" marker-start="url(#marker-start-auth-ui-performs-session-expiry-detection)" marker-end="url(#marker-end-auth-ui-performs-session-expiry-detection)"/><text x="308.5" y="837.5" text-anchor="middle" fill="none" font-size="15.4" font-weight="600" stroke="#ffffff" stroke-width="2">monitors</text><text x="308.5" y="837.5" text-anchor="middle" fill="#374151" font-size="15.4" font-weight="600">monitors</text></g><g data-dediren-edge-id="auth-service-serves-session-expiry-detection"><marker id="marker-end-auth-service-serves-session-expiry-detection" data-dediren-edge-marker-end="open_arrow" markerWidth="10" markerHeight="10" refX="9" refY="5" orient="auto"><path d="M 1 1 L 9 5 L 1 9" fill="none" stroke="#475569" stroke-width="1.5"/></marker><path d="M 1703.0 554.0 L 1575.0 554.0 L 1318.5 554.0 L 1166.0 554.0 L 1110.0 554.0 Q 1102.0 554.0 1102.0 562.0 L 1102.0 611.0 Q 1102.0 619.0 1094.0 619.0 L 886.0 619.0 Q 878.0 619.0 878.0 627.0 L 878.0 921.5 Q 878.0 929.5 870.0 929.5 L 766.0 929.5 L 566.0 929.5" fill="none" stroke="#475569" stroke-width="1.25" stroke-linecap="round" stroke-linejoin="round" marker-end="url(#marker-end-auth-service-serves-session-expiry-detection)"/><text x="1096.0" y="586.5" text-anchor="end" fill="none" font-size="15.4" font-weight="600" stroke="#ffffff" stroke-width="2">probes session</text><text x="1096.0" y="586.5" text-anchor="end" fill="#374151" font-size="15.4" font-weight="600">probes session</text></g><g data-dediren-edge-id="raider-service-serves-profile-ui"><marker id="marker-end-raider-service-serves-profile-ui" data-dediren-edge-marker-end="open_arrow" markerWidth="10" markerHeight="10" refX="9" refY="5" orient="auto"><path d="M 1 1 L 9 5 L 1 9" fill="none" stroke="#475569" stroke-width="1.5"/></marker><g data-dediren-line-jump-masks="raider-service-serves-profile-ui"><path d="M 872.0 707.0 Q 878.0 701.0 884.0 707.0" fill="none" stroke="#ffffff" stroke-width="6"/></g><path d="M 1703.0 737.6 L 1647.0 737.6 Q 1639.0 737.6 1639.0 729.6 L 1639.0 695.0 Q 1639.0 687.0 1631.0 687.0 L 1575.0 687.0 L 1318.5 687.0 L 1166.0 687.0 L 934.0 687.0 Q 926.0 687.0 926.0 695.0 L 926.0 699.0 Q 926.0 707.0 918.0 707.0 L 884.0 707.0 Q 878.0 701.0 872.0 707.0 L 766.0 707.0 L 566.0 707.0" fill="none" stroke="#475569" stroke-width="1.25" stroke-linecap="round" stroke-linejoin="round" marker-end="url(#marker-end-raider-service-serves-profile-ui)"/><text x="1633.0" y="712.3" text-anchor="end" fill="none" font-size="15.4" font-weight="600" stroke="#ffffff" stroke-width="2">profile data</text><text x="1633.0" y="712.3" text-anchor="end" fill="#374151" font-size="15.4" font-weight="600">profile data</text></g><g data-dediren-edge-id="api-realizes-auth-service"><marker id="marker-end-api-realizes-auth-service" data-dediren-edge-marker-end="hollow_triangle" markerWidth="10" markerHeight="10" refX="9" refY="5" orient="auto"><path d="M 1 1 L 9 5 L 1 9 Z" fill="#ffffff" stroke="#374151" stroke-width="1"/></marker><g data-dediren-line-jump-masks="api-realizes-auth-service"><path d="M 1463.0 681.0 Q 1469.0 687.0 1463.0 693.0" fill="none" stroke="#f8fafc" stroke-width="6"/></g><path d="M 1399.0 786.3 L 1455.0 786.3 Q 1463.0 786.3 1463.0 778.3 L 1463.0 693.0 Q 1469.0 687.0 1463.0 681.0 L 1463.0 627.0 Q 1463.0 619.0 1471.0 619.0 L 1631.0 619.0 Q 1639.0 619.0 1639.0 611.0 L 1639.0 577.3 Q 1639.0 569.3 1647.0 569.3 L 1703.0 569.3" fill="none" stroke="#374151" stroke-width="1.5" stroke-linecap="round" stroke-linejoin="round" stroke-dasharray="8 5" marker-end="url(#marker-end-api-realizes-auth-service)"/><text x="1445.0" y="776.3" text-anchor="middle" fill="none" font-size="15.4" font-weight="600" stroke="#ffffff" stroke-width="2">realizes</text><text x="1445.0" y="776.3" text-anchor="middle" fill="#374151" font-size="15.4" font-weight="600">realizes</text></g><g data-dediren-edge-id="api-realizes-raider-service"><marker id="marker-end-api-realizes-raider-service" data-dediren-edge-marker-end="hollow_triangle" markerWidth="10" markerHeight="10" refX="9" refY="5" orient="auto"><path d="M 1 1 L 9 5 L 1 9 Z" fill="#ffffff" stroke="#374151" stroke-width="1"/></marker><path d="M 1399.0 806.1 L 1503.0 806.1 Q 1511.0 806.1 1511.0 798.1 L 1511.0 765.9 Q 1511.0 757.9 1519.0 757.9 L 1703.0 757.9" fill="none" stroke="#374151" stroke-width="1.5" stroke-linecap="round" stroke-linejoin="round" stroke-dasharray="8 5" marker-end="url(#marker-end-api-realizes-raider-service)"/><text x="1517.0" y="782.0" text-anchor="start" fill="none" font-size="15.4" font-weight="600" stroke="#ffffff" stroke-width="2">realizes</text><text x="1517.0" y="782.0" text-anchor="start" fill="#374151" font-size="15.4" font-weight="600">realizes</text></g><g data-dediren-edge-id="api-realizes-media-cache-service"><marker id="marker-end-api-realizes-media-cache-service" data-dediren-edge-marker-end="hollow_triangle" markerWidth="10" markerHeight="10" refX="9" refY="5" orient="auto"><path d="M 1 1 L 9 5 L 1 9 Z" fill="#ffffff" stroke="#374151" stroke-width="1"/></marker><path d="M 1399.0 825.9 L 1631.0 825.9 Q 1639.0 825.9 1639.0 833.9 L 1639.0 915.7 Q 1639.0 923.7 1647.0 923.7 L 1703.0 923.7" fill="none" stroke="#374151" stroke-width="1.5" stroke-linecap="round" stroke-linejoin="round" stroke-dasharray="8 5" marker-end="url(#marker-end-api-realizes-media-cache-service)"/><text x="1519.0" y="843.9" text-anchor="middle" fill="none" font-size="15.4" font-weight="600" stroke="#ffffff" stroke-width="2">realizes</text><text x="1519.0" y="843.9" text-anchor="middle" fill="#374151" font-size="15.4" font-weight="600">realizes</text></g><g data-dediren-edge-id="auth-service-accesses-raiders"><marker id="marker-end-auth-service-accesses-raiders" data-dediren-edge-marker-end="open_arrow" markerWidth="10" markerHeight="10" refX="9" refY="5" orient="auto"><path d="M 1 1 L 9 5 L 1 9" fill="none" stroke="#475569" stroke-width="1.5"/></marker><path d="M 1865.0 543.8 L 1921.0 543.8 Q 1929.0 543.8 1929.0 535.8 L 1929.0 476.2 Q 1929.0 468.2 1937.0 468.2 L 2209.0 468.2 L 2265.0 468.2 Q 2273.0 468.2 2273.0 460.2 L 2273.0 140.0 Q 2273.0 132.0 2281.0 132.0 L 2489.0 132.0 Q 2497.0 132.0 2497.0 124.0 L 2497.0 91.5 Q 2497.0 83.5 2505.0 83.5 L 2609.0 83.5 L 2809.0 83.5" fill="none" stroke="#475569" stroke-width="1.25" stroke-linecap="round" stroke-linejoin="round" stroke-dasharray="8 5" marker-end="url(#marker-end-auth-service-accesses-raiders)"/><text x="2267.0" y="300.1" text-anchor="end" fill="none" font-size="15.4" font-weight="600" stroke="#ffffff" stroke-width="2">session profile</text><text x="2267.0" y="300.1" text-anchor="end" fill="#374151" font-size="15.4" font-weight="600">session profile</text></g><g data-dediren-edge-id="auth-service-accesses-data-protection"><marker id="marker-end-auth-service-accesses-data-protection" data-dediren-edge-marker-end="open_arrow" markerWidth="10" markerHeight="10" refX="9" refY="5" orient="auto"><path d="M 1 1 L 9 5 L 1 9" fill="none" stroke="#475569" stroke-width="1.5"/></marker><path d="M 1865.0 564.2 L 2209.0 564.2 L 2361.0 564.2 Q 2369.0 564.2 2369.0 556.2 L 2369.0 276.0 Q 2369.0 268.0 2377.0 268.0 L 2609.0 268.0 L 2809.0 268.0" fill="none" stroke="#475569" stroke-width="1.25" stroke-linecap="round" stroke-linejoin="round" stroke-dasharray="8 5" marker-end="url(#marker-end-auth-service-accesses-data-protection)"/><text x="2037.0" y="582.2" text-anchor="middle" fill="none" font-size="15.4" font-weight="600" stroke="#ffffff" stroke-width="2">cookie keys</text><text x="2037.0" y="582.2" text-anchor="middle" fill="#374151" font-size="15.4" font-weight="600">cookie keys</text></g><g data-dediren-edge-id="raider-service-accesses-raiders"><marker id="marker-end-raider-service-accesses-raiders" data-dediren-edge-marker-end="open_arrow" markerWidth="10" markerHeight="10" refX="9" refY="5" orient="auto"><path d="M 1 1 L 9 5 L 1 9" fill="none" stroke="#475569" stroke-width="1.5"/></marker><g data-dediren-line-jump-masks="raider-service-accesses-raiders"><path d="M 1977.0 558.2 Q 1983.0 564.2 1977.0 570.2" fill="none" stroke="#f8fafc" stroke-width="6"/></g><path d="M 1865.0 737.6 L 1969.0 737.6 Q 1977.0 737.6 1977.0 729.6 L 1977.0 570.2 Q 1983.0 564.2 1977.0 558.2 L 1977.0 524.2 Q 1977.0 516.2 1985.0 516.2 L 2209.0 516.2 L 2313.0 516.2 Q 2321.0 516.2 2321.0 508.2 L 2321.0 208.0 Q 2321.0 200.0 2329.0 200.0 L 2537.0 200.0 Q 2545.0 200.0 2545.0 192.0 L 2545.0 139.5 Q 2545.0 131.5 2553.0 131.5 L 2609.0 131.5 L 2737.0 131.5 Q 2745.0 131.5 2745.0 123.5 L 2745.0 108.5 Q 2745.0 100.5 2753.0 100.5 L 2809.0 100.5" fill="none" stroke="#475569" stroke-width="1.25" stroke-linecap="round" stroke-linejoin="round" stroke-dasharray="8 5" marker-end="url(#marker-end-raider-service-accesses-raiders)"/><text x="1921.0" y="727.6" text-anchor="middle" fill="none" font-size="15.4" font-weight="600" stroke="#ffffff" stroke-width="2">characters</text><text x="1921.0" y="727.6" text-anchor="middle" fill="#374151" font-size="15.4" font-weight="600">characters</text></g><g data-dediren-edge-id="media-cache-service-serves-profile-ui"><marker id="marker-end-media-cache-service-serves-profile-ui" data-dediren-edge-marker-end="open_arrow" markerWidth="10" markerHeight="10" refX="9" refY="5" orient="auto"><path d="M 1 1 L 9 5 L 1 9" fill="none" stroke="#475569" stroke-width="1.5"/></marker><g data-dediren-line-jump-masks="media-cache-service-serves-profile-ui"><path d="M 872.0 755.0 Q 878.0 749.0 884.0 755.0" fill="none" stroke="#ffffff" stroke-width="6"/></g><path d="M 1703.0 944.0 L 1575.0 944.0 L 1318.5 944.0 L 1166.0 944.0 L 1062.0 944.0 Q 1054.0 944.0 1054.0 936.0 L 1054.0 763.0 Q 1054.0 755.0 1046.0 755.0 L 884.0 755.0 Q 878.0 749.0 872.0 755.0 L 766.0 755.0 L 638.0 755.0 Q 630.0 755.0 630.0 747.0 L 630.0 732.0 Q 630.0 724.0 622.0 724.0 L 566.0 724.0" fill="none" stroke="#475569" stroke-width="1.25" stroke-linecap="round" stroke-linejoin="round" marker-end="url(#marker-end-media-cache-service-serves-profile-ui)"/><text x="1639.0" y="962.0" text-anchor="middle" fill="none" font-size="15.4" font-weight="600" stroke="#ffffff" stroke-width="2">portraits</text><text x="1639.0" y="962.0" text-anchor="middle" fill="#374151" font-size="15.4" font-weight="600">portraits</text></g><g data-dediren-edge-id="media-cache-service-accesses-wow-media-cache"><marker id="marker-end-media-cache-service-accesses-wow-media-cache" data-dediren-edge-marker-end="open_arrow" markerWidth="10" markerHeight="10" refX="9" refY="5" orient="auto"><path d="M 1 1 L 9 5 L 1 9" fill="none" stroke="#475569" stroke-width="1.5"/></marker><path d="M 1865.0 923.7 L 2017.0 923.7 Q 2025.0 923.7 2025.0 915.7 L 2025.0 717.9 Q 2025.0 709.9 2033.0 709.9 L 2209.0 709.9 L 2265.0 709.9 Q 2273.0 709.9 2273.0 701.9 L 2273.0 697.9 Q 2273.0 689.9 2281.0 689.9 L 2489.0 689.9 Q 2497.0 689.9 2497.0 681.9 L 2497.0 452.0 Q 2497.0 444.0 2505.0 444.0 L 2609.0 444.0 L 2809.0 444.0" fill="none" stroke="#475569" stroke-width="1.25" stroke-linecap="round" stroke-linejoin="round" stroke-dasharray="8 5" marker-end="url(#marker-end-media-cache-service-accesses-wow-media-cache)"/><text x="2019.0" y="816.8" text-anchor="end" fill="none" font-size="15.4" font-weight="600" stroke="#ffffff" stroke-width="2">read/write image bytes</text><text x="2019.0" y="816.8" text-anchor="end" fill="#374151" font-size="15.4" font-weight="600">read/write image bytes</text></g><g data-dediren-edge-id="battlenet-oauth-serves-api"><marker id="marker-end-battlenet-oauth-serves-api" data-dediren-edge-marker-end="open_arrow" markerWidth="10" markerHeight="10" refX="9" refY="5" orient="auto"><path d="M 1 1 L 9 5 L 1 9" fill="none" stroke="#475569" stroke-width="1.5"/></marker><g data-dediren-line-jump-masks="battlenet-oauth-serves-api"><path d="M 1463.0 938.0 Q 1469.0 944.0 1463.0 950.0" fill="none" stroke="#f8fafc" stroke-width="6"/></g><path d="M 2681.0 876.0 L 2609.0 876.0 L 2281.0 876.0 Q 2273.0 876.0 2273.0 884.0 L 2273.0 888.0 Q 2273.0 896.0 2265.0 896.0 L 2209.0 896.0 L 2081.0 896.0 Q 2073.0 896.0 2073.0 904.0 L 2073.0 1034.8 Q 2073.0 1042.8 2065.0 1042.8 L 1784.0 1042.8 L 1575.0 1042.8 L 1471.0 1042.8 Q 1463.0 1042.8 1463.0 1034.8 L 1463.0 950.0 Q 1469.0 944.0 1463.0 938.0 L 1463.0 853.7 Q 1463.0 845.7 1455.0 845.7 L 1399.0 845.7" fill="none" stroke="#475569" stroke-width="1.25" stroke-linecap="round" stroke-linejoin="round" marker-end="url(#marker-end-battlenet-oauth-serves-api)"/><text x="2267.0" y="886.0" text-anchor="end" fill="none" font-size="15.4" font-weight="600" stroke="#ffffff" stroke-width="2">OAuth</text><text x="2267.0" y="886.0" text-anchor="end" fill="#374151" font-size="15.4" font-weight="600">OAuth</text></g><g data-dediren-edge-id="profile-api-serves-raider-service"><marker id="marker-end-profile-api-serves-raider-service" data-dediren-edge-marker-end="open_arrow" markerWidth="10" markerHeight="10" refX="9" refY="5" orient="auto"><path d="M 1 1 L 9 5 L 1 9" fill="none" stroke="#475569" stroke-width="1.5"/></marker><g data-dediren-line-jump-masks="profile-api-serves-raider-service"><path d="M 2019.0 757.9 Q 2025.0 751.9 2031.0 757.9" fill="none" stroke="#f8fafc" stroke-width="6"/></g><path d="M 2681.0 700.0 L 2609.0 700.0 L 2553.0 700.0 Q 2545.0 700.0 2545.0 708.0 L 2545.0 749.9 Q 2545.0 757.9 2537.0 757.9 L 2209.0 757.9 L 2031.0 757.9 Q 2025.0 751.9 2019.0 757.9 L 1865.0 757.9" fill="none" stroke="#475569" stroke-width="1.25" stroke-linecap="round" stroke-linejoin="round" marker-end="url(#marker-end-profile-api-serves-raider-service)"/><text x="2539.0" y="729.0" text-anchor="end" fill="none" font-size="15.4" font-weight="600" stroke="#ffffff" stroke-width="2">character data</text><text x="2539.0" y="729.0" text-anchor="end" fill="#374151" font-size="15.4" font-weight="600">character data</text></g><g data-dediren-edge-id="render-cdn-serves-media-cache-service"><marker id="marker-end-render-cdn-serves-media-cache-service" data-dediren-edge-marker-end="open_arrow" markerWidth="10" markerHeight="10" refX="9" refY="5" orient="auto"><path d="M 1 1 L 9 5 L 1 9" fill="none" stroke="#475569" stroke-width="1.5"/></marker><g data-dediren-line-jump-masks="render-cdn-serves-media-cache-service"><path d="M 2067.0 944.0 Q 2073.0 938.0 2079.0 944.0" fill="none" stroke="#f8fafc" stroke-width="6"/></g><path d="M 2681.0 1052.0 L 2609.0 1052.0 L 2505.0 1052.0 Q 2497.0 1052.0 2497.0 1044.0 L 2497.0 952.0 Q 2497.0 944.0 2489.0 944.0 L 2209.0 944.0 L 2079.0 944.0 Q 2073.0 938.0 2067.0 944.0 L 1865.0 944.0" fill="none" stroke="#475569" stroke-width="1.25" stroke-linecap="round" stroke-linejoin="round" marker-end="url(#marker-end-render-cdn-serves-media-cache-service)"/><text x="2491.0" y="998.0" text-anchor="end" fill="none" font-size="15.4" font-weight="600" stroke="#ffffff" stroke-width="2">image bytes</text><text x="2491.0" y="998.0" text-anchor="end" fill="#374151" font-size="15.4" font-weight="600">image bytes</text></g><g data-dediren-node-id="auth-ui-entry"><rect data-dediren-node-shape="archimate_rectangle" x="52.0" y="570.5" width="160.0" height="80.0" rx="0" fill="#e0f2fe" stroke="#0369a1" stroke-width="1.25"/><g data-dediren-node-decorator="archimate_application_component" data-dediren-icon-kind="component" data-dediren-icon-size="22"><rect x="188.0" y="579.5" width="18.0" height="15.8" rx="1.5" fill="#e0f2fe" stroke="#0369a1" stroke-width="1.25"/><rect x="184.0" y="582.1" width="7.9" height="5.7" rx="1.2" fill="#e0f2fe" stroke="#0369a1" stroke-width="1.25"/><rect x="184.0" y="589.2" width="7.9" height="5.7" rx="1.2" fill="#e0f2fe" stroke="#0369a1" stroke-width="1.25"/></g><text x="132.0" y="626.0" text-anchor="middle" dominant-baseline="middle" fill="#0c4a6e" font-size="14.0" textLength="88.7" lengthAdjust="spacing">Auth UI pages</text></g><g data-dediren-node-id="profile-ui-entry"><rect data-dediren-node-shape="archimate_rectangle" x="405.0" y="675.5" width="160.0" height="80.0" rx="0" fill="#e0f2fe" stroke="#0369a1" stroke-width="1.25"/><g data-dediren-node-decorator="archimate_application_component" data-dediren-icon-kind="component" data-dediren-icon-size="22"><rect x="541.0" y="684.5" width="18.0" height="15.8" rx="1.5" fill="#e0f2fe" stroke="#0369a1" stroke-width="1.25"/><rect x="537.0" y="687.1" width="7.9" height="5.7" rx="1.2" fill="#e0f2fe" stroke="#0369a1" stroke-width="1.25"/><rect x="537.0" y="694.2" width="7.9" height="5.7" rx="1.2" fill="#e0f2fe" stroke="#0369a1" stroke-width="1.25"/></g><text x="485.0" y="723.0" text-anchor="middle" dominant-baseline="middle" fill="#0c4a6e" font-size="14.0"><tspan x="485.0" dy="0" textLength="61.4" lengthAdjust="spacing">Character</tspan><tspan x="485.0" dy="16.0" textLength="56.0" lengthAdjust="spacing">profile UI</tspan></text></g><g data-dediren-node-id="session-expiry-detection-process"><rect data-dediren-node-shape="archimate_rounded_rectangle" x="405.0" y="884.5" width="160.0" height="90.0" rx="6" fill="#e0f2fe" stroke="#0369a1" stroke-width="1.25"/><g data-dediren-node-decorator="archimate_application_process" data-dediren-icon-kind="process" data-dediren-icon-size="22"><path data-dediren-icon-part="process-arrow" d="M 537.0 898.8 L 550.6 898.8 L 550.6 893.5 L 559.0 901.4 L 550.6 909.3 L 550.6 904.1 L 537.0 904.1 Z" fill="#e0f2fe" stroke="#0369a1" stroke-width="1.25"/></g><text x="485.0" y="937.0" text-anchor="middle" dominant-baseline="middle" fill="#0c4a6e" font-size="14.0"><tspan x="485.0" dy="0" textLength="90.2" lengthAdjust="spacing">Detect expired</tspan><tspan x="485.0" dy="16.0" textLength="47.4" lengthAdjust="spacing">session</tspan></text></g><g data-dediren-node-id="auth-session-service"><rect data-dediren-node-shape="archimate_rounded_rectangle" x="1704.0" y="509.0" width="160.0" height="90.0" rx="6" fill="#e0f2fe" stroke="#0369a1" stroke-width="1.25"/><g data-dediren-node-decorator="archimate_application_service" data-dediren-icon-kind="service" data-dediren-icon-size="22"><rect x="1836.0" y="518.0" width="22.0" height="13.6" rx="4.0" fill="#e0f2fe" stroke="#0369a1" stroke-width="1.25"/></g><text x="1784.0" y="553.4" text-anchor="middle" dominant-baseline="middle" fill="#0c4a6e" font-size="14.0"><tspan x="1784.0" dy="0" textLength="56.0" lengthAdjust="spacing">Auth and</tspan><tspan x="1784.0" dy="16.0" textLength="47.4" lengthAdjust="spacing">session</tspan><tspan x="1784.0" dy="16.0" textLength="44.3" lengthAdjust="spacing">service</tspan></text></g><g data-dediren-node-id="raider-profile-service"><rect data-dediren-node-shape="archimate_rounded_rectangle" x="1704.0" y="702.7" width="160.0" height="90.0" rx="6" fill="#e0f2fe" stroke="#0369a1" stroke-width="1.25"/><g data-dediren-node-decorator="archimate_application_service" data-dediren-icon-kind="service" data-dediren-icon-size="22"><rect x="1836.0" y="711.7" width="22.0" height="13.6" rx="4.0" fill="#e0f2fe" stroke="#0369a1" stroke-width="1.25"/></g><text x="1784.0" y="755.2" text-anchor="middle" dominant-baseline="middle" fill="#0c4a6e" font-size="14.0"><tspan x="1784.0" dy="0" textLength="83.2" lengthAdjust="spacing">Raider profile</tspan><tspan x="1784.0" dy="16.0" textLength="44.3" lengthAdjust="spacing">service</tspan></text></g><g data-dediren-node-id="wow-media-cache-service"><rect data-dediren-node-shape="archimate_rounded_rectangle" x="1704.0" y="888.8" width="160.0" height="90.0" rx="6" fill="#e0f2fe" stroke="#0369a1" stroke-width="1.25"/><g data-dediren-node-decorator="archimate_application_service" data-dediren-icon-kind="service" data-dediren-icon-size="22"><rect x="1836.0" y="897.8" width="22.0" height="13.6" rx="4.0" fill="#e0f2fe" stroke="#0369a1" stroke-width="1.25"/></g><text x="1784.0" y="941.3" text-anchor="middle" dominant-baseline="middle" fill="#0c4a6e" font-size="14.0"><tspan x="1784.0" dy="0" textLength="76.2" lengthAdjust="spacing">WoW media</tspan><tspan x="1784.0" dy="16.0" textLength="85.5" lengthAdjust="spacing">cache service</tspan></text></g><g data-dediren-node-id="lfm-api"><rect data-dediren-node-shape="archimate_rectangle" x="1238.0" y="752.0" width="160.0" height="128.0" rx="0" fill="#e0f2fe" stroke="#0369a1" stroke-width="1.25"/><g data-dediren-node-decorator="archimate_application_component" data-dediren-icon-kind="component" data-dediren-icon-size="22"><rect x="1374.0" y="761.0" width="18.0" height="15.8" rx="1.5" fill="#e0f2fe" stroke="#0369a1" stroke-width="1.25"/><rect x="1370.0" y="763.6" width="7.9" height="5.7" rx="1.2" fill="#e0f2fe" stroke="#0369a1" stroke-width="1.25"/><rect x="1370.0" y="770.7" width="7.9" height="5.7" rx="1.2" fill="#e0f2fe" stroke="#0369a1" stroke-width="1.25"/></g><text x="1318.0" y="831.5" text-anchor="middle" dominant-baseline="middle" fill="#0c4a6e" font-size="14.0" textLength="47.4" lengthAdjust="spacing">Lfm.Api</text></g><g data-dediren-node-id="cosmos-raiders"><rect data-dediren-node-shape="archimate_rectangle" x="2810.0" y="52.0" width="160.0" height="80.0" rx="0" fill="#d5e8d4" stroke="#4d7c0f" stroke-width="1.25"/><g data-dediren-node-decorator="archimate_artifact" data-dediren-icon-kind="artifact" data-dediren-icon-size="22"><path data-dediren-icon-part="artifact-document" d="M 2944.2 60.0 L 2954.8 60.0 L 2960.9 66.2 L 2960.9 79.8 L 2944.2 79.8 Z M 2954.8 60.0 L 2954.8 66.2 L 2960.9 66.2" fill="#d5e8d4" stroke="#4d7c0f" stroke-width="1.25"/></g><text x="2890.0" y="99.5" text-anchor="middle" dominant-baseline="middle" fill="#365314" font-size="14.0"><tspan x="2890.0" dy="0" textLength="42.7" lengthAdjust="spacing">raiders</tspan><tspan x="2890.0" dy="16.0" textLength="57.5" lengthAdjust="spacing">container</tspan></text></g><g data-dediren-node-id="wow-media-cache-blobs"><rect data-dediren-node-shape="archimate_rectangle" x="2810.0" y="404.0" width="170.0" height="80.0" rx="0" fill="#d5e8d4" stroke="#4d7c0f" stroke-width="1.25"/><g data-dediren-node-decorator="archimate_artifact" data-dediren-icon-kind="artifact" data-dediren-icon-size="22"><path data-dediren-icon-part="artifact-document" d="M 2954.2 412.0 L 2964.8 412.0 L 2970.9 418.2 L 2970.9 431.8 L 2954.2 431.8 Z M 2964.8 412.0 L 2964.8 418.2 L 2970.9 418.2" fill="#d5e8d4" stroke="#4d7c0f" stroke-width="1.25"/></g><text x="2895.0" y="445.8" text-anchor="middle" dominant-baseline="middle" fill="#365314" font-size="11.8"><tspan x="2895.0" dy="0" textLength="23.7" lengthAdjust="spacing">wow</tspan><tspan x="2895.0" dy="13.6" textLength="68.0" lengthAdjust="spacing">media-cache</tspan><tspan x="2895.0" dy="13.6" textLength="28.4" lengthAdjust="spacing">blobs</tspan></text></g><g data-dediren-node-id="data-protection-container"><rect data-dediren-node-shape="archimate_rectangle" x="2810.0" y="228.0" width="200.0" height="80.0" rx="0" fill="#d5e8d4" stroke="#4d7c0f" stroke-width="1.25"/><g data-dediren-node-decorator="archimate_artifact" data-dediren-icon-kind="artifact" data-dediren-icon-size="22"><path data-dediren-icon-part="artifact-document" d="M 2984.2 236.0 L 2994.8 236.0 L 3000.9 242.2 L 3000.9 255.8 L 2984.2 255.8 Z M 2994.8 236.0 L 2994.8 242.2 L 3000.9 242.2" fill="#d5e8d4" stroke="#4d7c0f" stroke-width="1.25"/></g><text x="2910.0" y="275.5" text-anchor="middle" dominant-baseline="middle" fill="#365314" font-size="14.0"><tspan x="2910.0" dy="0" textLength="119.0" lengthAdjust="spacing">data-protection key</tspan><tspan x="2910.0" dy="16.0" textLength="53.6" lengthAdjust="spacing">ring blob</tspan></text></g><g data-dediren-node-id="battlenet-oauth"><rect data-dediren-node-shape="archimate_rounded_rectangle" x="2682.0" y="836.0" width="160.0" height="80.0" rx="6" fill="#e0f2fe" stroke="#0369a1" stroke-width="1.25"/><g data-dediren-node-decorator="archimate_application_service" data-dediren-icon-kind="service" data-dediren-icon-size="22"><rect x="2814.0" y="845.0" width="22.0" height="13.6" rx="4.0" fill="#e0f2fe" stroke="#0369a1" stroke-width="1.25"/></g><text x="2762.0" y="883.5" text-anchor="middle" dominant-baseline="middle" fill="#0c4a6e" font-size="14.0"><tspan x="2762.0" dy="0" textLength="59.1" lengthAdjust="spacing">Battle.net</tspan><tspan x="2762.0" dy="16.0" textLength="63.0" lengthAdjust="spacing">OAuth 2.0</tspan></text></g><g data-dediren-node-id="blizzard-profile-api"><rect data-dediren-node-shape="archimate_rounded_rectangle" x="2682.0" y="660.0" width="160.0" height="80.0" rx="6" fill="#e0f2fe" stroke="#0369a1" stroke-width="1.25"/><g data-dediren-node-decorator="archimate_application_service" data-dediren-icon-kind="service" data-dediren-icon-size="22"><rect x="2814.0" y="669.0" width="22.0" height="13.6" rx="4.0" fill="#e0f2fe" stroke="#0369a1" stroke-width="1.25"/></g><text x="2762.0" y="707.5" text-anchor="middle" dominant-baseline="middle" fill="#0c4a6e" font-size="14.0"><tspan x="2762.0" dy="0" textLength="77.7" lengthAdjust="spacing">WoW Profile</tspan><tspan x="2762.0" dy="16.0" textLength="22.5" lengthAdjust="spacing">API</tspan></text></g><g data-dediren-node-id="blizzard-render-cdn"><rect data-dediren-node-shape="archimate_rounded_rectangle" x="2682.0" y="1012.0" width="160.0" height="80.0" rx="6" fill="#e0f2fe" stroke="#0369a1" stroke-width="1.25"/><g data-dediren-node-decorator="archimate_application_service" data-dediren-icon-kind="service" data-dediren-icon-size="22"><rect x="2814.0" y="1021.0" width="22.0" height="13.6" rx="4.0" fill="#e0f2fe" stroke="#0369a1" stroke-width="1.25"/></g><text x="2762.0" y="1059.5" text-anchor="middle" dominant-baseline="middle" fill="#0c4a6e" font-size="14.0"><tspan x="2762.0" dy="0" textLength="49.7" lengthAdjust="spacing">Blizzard</tspan><tspan x="2762.0" dy="16.0" textLength="80.1" lengthAdjust="spacing">Render CDN</tspan></text></g></g></svg>

