<svg xmlns="http://www.w3.org/2000/svg" width="1843" height="1076" viewBox="-12.0 -12.0 1843.0 1076.0"><rect x="-12.0" y="-12.0" width="1843.0" height="1076.0" fill="#ffffff"/><g font-family="Inter, Arial, sans-serif" font-size="14.0"><g data-dediren-group-id="ops-api-host"><rect x="733.0" y="316.0" width="978.0" height="660.0" rx="4.0" fill="#f8fafc" stroke="#94a3b8" stroke-width="1.0"/><text x="741.0" y="332.0" fill="#374151" font-size="12.0">Readiness API realization and host</text></g><g data-dediren-group-id="ops-readiness-observability"><rect x="108.0" y="12.0" width="369.0" height="416.0" rx="4.0" fill="#f8fafc" stroke="#94a3b8" stroke-width="1.0"/><text x="116.0" y="28.0" fill="#374151" font-size="12.0">Readiness dependency and telemetry</text></g><g data-dediren-edge-id="api-realizes-ops-service"><defs><marker id="marker-end-api-realizes-ops-service" data-dediren-edge-marker-end="hollow_triangle" markerWidth="10" markerHeight="10" refX="9" refY="5" orient="auto" markerUnits="strokeWidth"><path d="M 1 1 L 9 5 L 1 9 z" fill="#ffffff" stroke="#475569" stroke-width="1.2"/></marker></defs><path d="M 1238.0 727.0 L 1238.0 783.0 Q 1238.0 791.0 1246.0 791.0 L 1582.0 791.0 Q 1590.0 791.0 1590.0 799.0 L 1590.0 855.0" fill="none" stroke="#475569" stroke-width="1.5" stroke-linecap="round" stroke-linejoin="round" stroke-dasharray="8 5" marker-end="url(#marker-end-api-realizes-ops-service)"/><text x="1414.0" y="807.8" text-anchor="middle" fill="#334155" stroke="#ffffff" stroke-width="4" stroke-linejoin="round" paint-order="stroke">realizes</text></g><g data-dediren-edge-id="function-app-hosts-api"><defs><marker id="marker-end-function-app-hosts-api" data-dediren-edge-marker-end="open_arrow" markerWidth="9" markerHeight="9" refX="8" refY="4.5" orient="auto" markerUnits="strokeWidth"><path d="M 1 1 L 8 4.5 L 1 8" fill="none" stroke="#2563eb" stroke-width="1.3" stroke-linecap="round" stroke-linejoin="round"/></marker></defs><path d="M 853.0 517.0 L 853.0 573.0 Q 853.0 581.0 861.0 581.0 L 1230.0 581.0 Q 1238.0 581.0 1238.0 589.0 L 1238.0 645.0" fill="none" stroke="#2563eb" stroke-width="1.5" stroke-linecap="round" stroke-linejoin="round" marker-end="url(#marker-end-function-app-hosts-api)"/><text x="1045.5" y="597.8" text-anchor="middle" fill="#1e3a8a" stroke="#ffffff" stroke-width="4" stroke-linejoin="round" paint-order="stroke">hosts</text></g><g data-dediren-edge-id="ops-service-accesses-cosmos"><defs><marker id="marker-end-ops-service-accesses-cosmos" data-dediren-edge-marker-end="open_arrow" markerWidth="9" markerHeight="9" refX="8" refY="4.5" orient="auto" markerUnits="strokeWidth"><path d="M 1 1 L 8 4.5 L 1 8" fill="none" stroke="#15803d" stroke-width="1.3" stroke-linecap="round" stroke-linejoin="round"/></marker></defs><path d="M 1671.0 896.0 L 1743.0 896.0 L 1799.0 896.0 Q 1807.0 896.0 1807.0 904.0 L 1807.0 1032.0 Q 1807.0 1040.0 1799.0 1040.0 L 1222.0 1040.0 L 292.5 1040.0 L 20.0 1040.0 Q 12.0 1040.0 12.0 1032.0 L 12.0 100.0 Q 12.0 92.0 20.0 92.0 L 76.0 92.0 L 276.0 92.0" fill="none" stroke="#15803d" stroke-width="1.5" stroke-linecap="round" stroke-linejoin="round" stroke-dasharray="8 5" marker-end="url(#marker-end-ops-service-accesses-cosmos)"/><text x="1764.1" y="887.6" text-anchor="middle" fill="#166534" stroke="#ffffff" stroke-width="4" stroke-linejoin="round" paint-order="stroke">readiness</text></g><g data-dediren-edge-id="app-insights-serves-function-app"><defs><marker id="marker-end-app-insights-serves-function-app" data-dediren-edge-marker-end="open_arrow" markerWidth="9" markerHeight="9" refX="8" refY="4.5" orient="auto" markerUnits="strokeWidth"><path d="M 1 1 L 8 4.5 L 1 8" fill="none" stroke="#2563eb" stroke-width="1.3" stroke-linecap="round" stroke-linejoin="round"/></marker></defs><path d="M 276.0 268.0 L 220.0 268.0 Q 212.0 268.0 212.0 276.0 L 212.0 364.0 Q 212.0 372.0 220.0 372.0 L 356.5 372.0 L 509.0 372.0 L 701.0 372.0 L 853.5 372.0 L 990.0 372.0 Q 998.0 372.0 998.0 380.0 L 998.0 468.0 Q 998.0 476.0 990.0 476.0 L 934.0 476.0" fill="none" stroke="#2563eb" stroke-width="1.5" stroke-linecap="round" stroke-linejoin="round" marker-end="url(#marker-end-app-insights-serves-function-app)"/><text x="186.9" y="284.8" text-anchor="middle" fill="#1e3a8a" stroke="#ffffff" stroke-width="4" stroke-linejoin="round" paint-order="stroke">telemetry</text></g><g data-dediren-node-id="ops-health-service"><rect data-dediren-node-shape="archimate_rounded_rectangle" x="1510.0" y="856.0" width="160.0" height="80.0" rx="4.0" fill="#e8f3ff" stroke="#2563eb" stroke-width="1.5"/><g data-dediren-node-decorator="archimate_application_service" data-dediren-icon-kind="service" data-dediren-icon-size="22"><rect x="1642.0" y="865.0" width="22.0" height="13.6" rx="4.0" fill="#e8f3ff" stroke="#2563eb" stroke-width="1.5"/></g><text x="1590.0" y="879.9" text-anchor="middle" dominant-baseline="middle" fill="#172554" font-size="14.0"><tspan x="1590.0" dy="0">Operational</tspan><tspan x="1590.0" dy="16.0">readiness</tspan><tspan x="1590.0" dy="16.0">service</tspan></text></g><g data-dediren-node-id="lfm-api"><rect data-dediren-node-shape="archimate_rectangle" x="1158.0" y="646.0" width="160.0" height="80.0" rx="0" fill="#e8f3ff" stroke="#2563eb" stroke-width="1.5"/><g data-dediren-node-decorator="archimate_application_component" data-dediren-icon-kind="component" data-dediren-icon-size="22"><rect x="1294.0" y="655.0" width="18.0" height="15.8" rx="1.5" fill="#e8f3ff" stroke="#2563eb" stroke-width="1.5"/><rect x="1290.0" y="657.6" width="7.9" height="5.7" rx="1.2" fill="#e8f3ff" stroke="#2563eb" stroke-width="1.5"/><rect x="1290.0" y="664.7" width="7.9" height="5.7" rx="1.2" fill="#e8f3ff" stroke="#2563eb" stroke-width="1.5"/></g><text x="1238.0" y="686.0" text-anchor="middle" dominant-baseline="middle" fill="#172554" font-size="14.0">Lfm.Api</text></g><g data-dediren-node-id="function-app"><rect data-dediren-node-shape="archimate_rectangle" x="773.0" y="436.0" width="160.0" height="80.0" rx="0" fill="#ecfdf3" stroke="#16a34a" stroke-width="1.5"/><g data-dediren-node-decorator="archimate_technology_node" data-dediren-icon-kind="node" data-dediren-icon-size="22"><rect x="905.0" y="449.0" width="18.0" height="12.8" rx="1.5" fill="#ecfdf3" stroke="#16a34a" stroke-width="1.5"/><path data-dediren-icon-part="node-3d-edges" d="M 905.0 449.0 L 909.0 445.0 L 927.0 445.0 L 923.0 449.0 M 923.0 449.0 L 927.0 445.0 M 923.0 461.7 L 927.0 457.8 M 927.0 445.0 L 927.0 457.8" fill="none" stroke="#16a34a" stroke-width="1.5" stroke-linejoin="round"/></g><text x="853.0" y="467.9" text-anchor="middle" dominant-baseline="middle" fill="#14532d" font-size="14.0"><tspan x="853.0" dy="0">Azure Function</tspan><tspan x="853.0" dy="16.0">App</tspan></text></g><g data-dediren-node-id="cosmos-database"><rect data-dediren-node-shape="archimate_rectangle" x="277.0" y="52.0" width="160.0" height="80.0" rx="0" fill="#f7fee7" stroke="#65a30d" stroke-width="1.5"/><g data-dediren-node-decorator="archimate_artifact" data-dediren-icon-kind="artifact" data-dediren-icon-size="22"><path data-dediren-icon-part="artifact-document" d="M 411.2 60.0 L 421.8 60.0 L 427.9 66.2 L 427.9 79.8 L 411.2 79.8 Z M 421.8 60.0 L 421.8 66.2 L 427.9 66.2" fill="#f7fee7" stroke="#65a30d" stroke-width="1.5"/></g><text x="357.0" y="84.0" text-anchor="middle" dominant-baseline="middle" fill="#365314" font-size="14.0"><tspan x="357.0" dy="0">Cosmos SQL</tspan><tspan x="357.0" dy="16.0">database</tspan></text></g><g data-dediren-node-id="application-insights"><rect data-dediren-node-shape="archimate_rectangle" x="277.0" y="228.0" width="160.0" height="80.0" rx="0" fill="#ecfdf3" stroke="#16a34a" stroke-width="1.5"/><g data-dediren-node-decorator="archimate_technology_node" data-dediren-icon-kind="node" data-dediren-icon-size="22"><rect x="409.0" y="241.0" width="18.0" height="12.8" rx="1.5" fill="#ecfdf3" stroke="#16a34a" stroke-width="1.5"/><path data-dediren-icon-part="node-3d-edges" d="M 409.0 241.0 L 413.0 237.0 L 431.0 237.0 L 427.0 241.0 M 427.0 241.0 L 431.0 237.0 M 427.0 253.7 L 431.0 249.8 M 431.0 237.0 L 431.0 249.8" fill="none" stroke="#16a34a" stroke-width="1.5" stroke-linejoin="round"/></g><text x="357.0" y="259.9" text-anchor="middle" dominant-baseline="middle" fill="#14532d" font-size="14.0"><tspan x="357.0" dy="0">Application</tspan><tspan x="357.0" dy="16.0">Insights</tspan></text></g></g></svg>
