<svg xmlns="http://www.w3.org/2000/svg" role="img" width="1215" height="2121" viewBox="-20 -52 1214.5 2153" data-arch-a11y="root" data-arch-a11y-viewbox="-20.0 -20.0 1214.5 2121.0"><title>WoW Reference Data - Service Realization</title>
<desc>Which components and services realize WoW reference data and refresh?</desc>
<text data-arch-a11y="visible-title" x="-12" y="-32" font-family="sans-serif" font-size="16" font-weight="bold">WoW Reference Data - Service Realization</text><rect x="-20.0" y="-20.0" width="1214.5" height="2121.0" fill="#ffffff"/><g font-family="Inter, &quot;Liberation Sans&quot;, &quot;Noto Sans&quot;, Arial, &quot;Helvetica Neue&quot;, &quot;Segoe UI&quot;, sans-serif" font-size="14"><g data-dediren-group-id="reference-consumption-ui"><rect x="870.2" y="12.0" width="250.0" height="299.0" rx="8" fill="#f8fafc" stroke="#94a3b8" stroke-width="1"/><text x="878.2" y="28.0" fill="#334155" font-size="12">Reference consumption UI</text></g><g data-dediren-group-id="reference-refresh-ui"><rect x="107.7" y="150.0" width="240.0" height="161.0" rx="8" fill="#f8fafc" stroke="#94a3b8" stroke-width="1"/><text x="115.7" y="166.0" fill="#334155" font-size="12">Reference refresh UI</text></g><g data-dediren-group-id="reference-api-realization"><rect x="42.7" y="599.0" width="1097.0" height="604.0" rx="8" fill="#f8fafc" stroke="#94a3b8" stroke-width="1"/><text x="50.7" y="615.0" fill="#334155" font-size="12">Reference API realization</text></g><g data-dediren-group-id="reference-blob-store"><rect x="604.0" y="1571.0" width="558.5" height="498.0" rx="8" fill="#f8fafc" stroke="#94a3b8" stroke-width="1"/><text x="612.0" y="1587.0" fill="#334155" font-size="12">Reference and media blob store</text></g><g data-dediren-group-id="reference-refresh-external"><rect x="12.0" y="1571.0" width="496.0" height="161.0" rx="8" fill="#f8fafc" stroke="#94a3b8" stroke-width="1"/><text x="20.0" y="1587.0" fill="#334155" font-size="12">Reference and media dependencies</text></g><g data-dediren-edge-id="reference-service-serves-reference-ui"><marker id="marker-end-reference-service-serves-reference-ui" data-dediren-edge-marker-end="open_arrow" markerWidth="10" markerHeight="10" refX="9" refY="5" orient="auto"><path d="M 1 1 L 9 5 L 1 9" fill="none" stroke="#475569" stroke-width="1.5"/></marker><path d="M 1019.7 943.0 L 1019.7 815.0 L 1019.7 679.0 L 1019.7 567.0 L 1019.7 343.0 L 1019.7 207.0 L 1018.7 207.0 L 1018.7 143.0" fill="none" stroke="#475569" stroke-width="1.25" stroke-linecap="round" stroke-linejoin="round" marker-end="url(#marker-end-reference-service-serves-reference-ui)"/><text x="1025.7" y="455.0" text-anchor="start" fill="none" font-size="15.4" font-weight="600" stroke="#ffffff" stroke-width="2">reference data</text><text x="1025.7" y="455.0" text-anchor="start" fill="#374151" font-size="15.4" font-weight="600">reference data</text></g><g data-dediren-edge-id="reference-refresh-service-serves-ui"><marker id="marker-end-reference-refresh-service-serves-ui" data-dediren-edge-marker-end="open_arrow" markerWidth="10" markerHeight="10" refX="9" refY="5" orient="auto"><path d="M 1 1 L 9 5 L 1 9" fill="none" stroke="#475569" stroke-width="1.5"/></marker><path d="M 227.7 943.0 L 227.7 815.0 L 227.7 679.0 L 227.7 567.0 L 227.7 343.0 L 227.7 271.0" fill="none" stroke="#475569" stroke-width="1.25" stroke-linecap="round" stroke-linejoin="round" marker-end="url(#marker-end-reference-refresh-service-serves-ui)"/><text x="221.7" y="607.0" text-anchor="end" fill="none" font-size="15.4" font-weight="600" stroke="#ffffff" stroke-width="2">refresh stream</text><text x="221.7" y="607.0" text-anchor="end" fill="#374151" font-size="15.4" font-weight="600">refresh stream</text></g><g data-dediren-edge-id="api-realizes-reference-service"><marker id="marker-end-api-realizes-reference-service" data-dediren-edge-marker-end="hollow_triangle" markerWidth="10" markerHeight="10" refX="9" refY="5" orient="auto"><path d="M 1 1 L 9 5 L 1 9 Z" fill="#ffffff" stroke="#374151" stroke-width="1"/></marker><path d="M 453.7 666.8 L 866.7 666.8 Q 874.7 666.8 874.7 674.8 L 874.7 981.0 Q 874.7 989.0 882.7 989.0 L 938.7 989.0" fill="none" stroke="#374151" stroke-width="1.5" stroke-linecap="round" stroke-linejoin="round" stroke-dasharray="8 5" marker-end="url(#marker-end-api-realizes-reference-service)"/><text x="664.2" y="684.8" text-anchor="middle" fill="none" font-size="15.4" font-weight="600" stroke="#ffffff" stroke-width="2">realizes</text><text x="664.2" y="684.8" text-anchor="middle" fill="#374151" font-size="15.4" font-weight="600">realizes</text></g><g data-dediren-edge-id="api-realizes-reference-refresh-service"><marker id="marker-end-api-realizes-reference-refresh-service" data-dediren-edge-marker-end="hollow_triangle" markerWidth="10" markerHeight="10" refX="9" refY="5" orient="auto"><path d="M 1 1 L 9 5 L 1 9 Z" fill="#ffffff" stroke="#374151" stroke-width="1"/></marker><g data-dediren-line-jump-masks="api-realizes-reference-refresh-service"><path d="M 221.7 879.0 Q 227.7 873.0 233.7 879.0" fill="none" stroke="#f8fafc" stroke-width="6"/></g><path d="M 453.7 679.0 L 509.7 679.0 Q 517.7 679.0 517.7 687.0 L 517.7 871.0 Q 517.7 879.0 509.7 879.0 L 233.7 879.0 Q 227.7 873.0 221.7 879.0 L 90.7 879.0 Q 82.7 879.0 82.7 887.0 L 82.7 981.0 Q 82.7 989.0 90.7 989.0 L 146.7 989.0" fill="none" stroke="#374151" stroke-width="1.5" stroke-linecap="round" stroke-linejoin="round" stroke-dasharray="8 5" marker-end="url(#marker-end-api-realizes-reference-refresh-service)"/><text x="499.7" y="725.0" text-anchor="middle" fill="none" font-size="15.4" font-weight="600" stroke="#ffffff" stroke-width="2">realizes</text><text x="499.7" y="725.0" text-anchor="middle" fill="#374151" font-size="15.4" font-weight="600">realizes</text></g><g data-dediren-edge-id="api-realizes-media-cache-service"><marker id="marker-end-api-realizes-media-cache-service" data-dediren-edge-marker-end="hollow_triangle" markerWidth="10" markerHeight="10" refX="9" refY="5" orient="auto"><path d="M 1 1 L 9 5 L 1 9 Z" fill="#ffffff" stroke="#374151" stroke-width="1"/></marker><g data-dediren-line-jump-masks="api-realizes-media-cache-service"><path d="M 511.7 691.3 Q 517.7 685.3 523.7 691.3" fill="none" stroke="#f8fafc" stroke-width="6"/></g><path d="M 453.7 691.3 L 511.7 691.3 Q 517.7 685.3 523.7 691.3 L 577.7 691.3 Q 585.7 691.3 585.7 699.3 L 585.7 981.0 Q 585.7 989.0 593.7 989.0 L 649.7 989.0" fill="none" stroke="#374151" stroke-width="1.5" stroke-linecap="round" stroke-linejoin="round" stroke-dasharray="8 5" marker-end="url(#marker-end-api-realizes-media-cache-service)"/><text x="519.7" y="653.3" text-anchor="middle" fill="none" font-size="15.4" font-weight="600" stroke="#ffffff" stroke-width="2">realizes</text><text x="519.7" y="653.3" text-anchor="middle" fill="#374151" font-size="15.4" font-weight="600">realizes</text></g><g data-dediren-edge-id="media-cache-service-serves-reference-ui"><marker id="marker-end-media-cache-service-serves-reference-ui" data-dediren-edge-marker-end="open_arrow" markerWidth="10" markerHeight="10" refX="9" refY="5" orient="auto"><path d="M 1 1 L 9 5 L 1 9" fill="none" stroke="#475569" stroke-width="1.5"/></marker><g data-dediren-line-jump-masks="media-cache-service-serves-reference-ui"><path d="M 868.7 879.0 Q 874.7 873.0 880.7 879.0" fill="none" stroke="#f8fafc" stroke-width="6"/></g><path d="M 730.7 943.0 L 730.7 887.0 Q 730.7 879.0 738.7 879.0 L 868.7 879.0 Q 874.7 873.0 880.7 879.0 L 946.7 879.0 Q 954.7 879.0 954.7 871.0 L 954.7 815.0 L 954.7 679.0 L 954.7 567.0 L 954.7 415.0 Q 954.7 407.0 962.7 407.0 L 963.7 407.0 Q 971.7 407.0 971.7 399.0 L 971.7 343.0 L 971.7 143.0" fill="none" stroke="#475569" stroke-width="1.25" stroke-linecap="round" stroke-linejoin="round" marker-end="url(#marker-end-media-cache-service-serves-reference-ui)"/><text x="748.7" y="869.0" text-anchor="middle" fill="none" font-size="15.4" font-weight="600" stroke="#ffffff" stroke-width="2">reference images</text><text x="748.7" y="869.0" text-anchor="middle" fill="#374151" font-size="15.4" font-weight="600">reference images</text></g><g data-dediren-edge-id="storage-composes-wow-reference"><path d="M 919.3 1692.0 L 919.3 1876.0 Q 919.3 1884.0 927.3 1884.0 L 1000.8 1884.0 Q 1008.8 1884.0 1008.8 1892.0 L 1008.8 1948.0" fill="none" stroke="#475569" stroke-width="1.25" stroke-linecap="round" stroke-linejoin="round"/><text x="964.0" y="1902.0" text-anchor="middle" fill="none" font-size="15.4" font-weight="600" stroke="#ffffff" stroke-width="2">blob path</text><text x="964.0" y="1902.0" text-anchor="middle" fill="#374151" font-size="15.4" font-weight="600">blob path</text></g><g data-dediren-edge-id="storage-composes-wow-media-cache"><path d="M 875.7 1692.0 L 875.7 1748.0 Q 875.7 1756.0 867.7 1756.0 L 695.5 1756.0 Q 687.5 1756.0 687.5 1764.0 L 687.5 1876.0 Q 687.5 1884.0 695.5 1884.0 L 697.5 1884.0 Q 705.5 1884.0 705.5 1892.0 L 705.5 1948.0" fill="none" stroke="#475569" stroke-width="1.25" stroke-linecap="round" stroke-linejoin="round"/><text x="857.7" y="1774.0" text-anchor="middle" fill="none" font-size="15.4" font-weight="600" stroke="#ffffff" stroke-width="2">blob path</text><text x="857.7" y="1774.0" text-anchor="middle" fill="#374151" font-size="15.4" font-weight="600">blob path</text></g><g data-dediren-edge-id="reference-service-accesses-wow-reference"><marker id="marker-end-reference-service-accesses-wow-reference" data-dediren-edge-marker-end="open_arrow" markerWidth="10" markerHeight="10" refX="9" refY="5" orient="auto"><path d="M 1 1 L 9 5 L 1 9" fill="none" stroke="#475569" stroke-width="1.5"/></marker><path d="M 1019.7 1035.0 L 1019.7 1235.0 L 1019.7 1419.0 Q 1019.7 1427.0 1027.7 1427.0 L 1033.5 1427.0 Q 1041.5 1427.0 1041.5 1435.0 L 1041.5 1539.0 L 1041.5 1651.5 L 1041.5 1820.0 L 1041.5 1948.0" fill="none" stroke="#475569" stroke-width="1.25" stroke-linecap="round" stroke-linejoin="round" stroke-dasharray="8 5" marker-end="url(#marker-end-reference-service-accesses-wow-reference)"/><text x="1030.6" y="1445.0" text-anchor="middle" fill="none" font-size="15.4" font-weight="600" stroke="#ffffff" stroke-width="2">read blobs</text><text x="1030.6" y="1445.0" text-anchor="middle" fill="#374151" font-size="15.4" font-weight="600">read blobs</text></g><g data-dediren-edge-id="reference-refresh-service-accesses-wow-reference"><marker id="marker-end-reference-refresh-service-accesses-wow-reference" data-dediren-edge-marker-end="open_arrow" markerWidth="10" markerHeight="10" refX="9" refY="5" orient="auto"><path d="M 1 1 L 9 5 L 1 9" fill="none" stroke="#475569" stroke-width="1.5"/></marker><g data-dediren-line-jump-masks="reference-refresh-service-accesses-wow-reference"><path d="M 1035.5 1475.0 Q 1041.5 1469.0 1047.5 1475.0" fill="none" stroke="#ffffff" stroke-width="6"/></g><path d="M 249.5 1035.0 L 249.5 1235.0 L 249.5 1467.0 Q 249.5 1475.0 257.5 1475.0 L 1035.5 1475.0 Q 1041.5 1469.0 1047.5 1475.0 L 1098.5 1475.0 Q 1106.5 1475.0 1106.5 1483.0 L 1106.5 1539.0 L 1106.5 1651.5 L 1106.5 1820.0 L 1106.5 1876.0 Q 1106.5 1884.0 1098.5 1884.0 L 1082.3 1884.0 Q 1074.3 1884.0 1074.3 1892.0 L 1074.3 1948.0" fill="none" stroke="#475569" stroke-width="1.25" stroke-linecap="round" stroke-linejoin="round" stroke-dasharray="8 5" marker-end="url(#marker-end-reference-refresh-service-accesses-wow-reference)"/><text x="678.0" y="1493.0" text-anchor="middle" fill="none" font-size="15.4" font-weight="600" stroke="#ffffff" stroke-width="2">write blobs</text><text x="678.0" y="1493.0" text-anchor="middle" fill="#374151" font-size="15.4" font-weight="600">write blobs</text></g><g data-dediren-edge-id="media-cache-service-accesses-wow-media-cache"><marker id="marker-end-media-cache-service-accesses-wow-media-cache" data-dediren-edge-marker-end="open_arrow" markerWidth="10" markerHeight="10" refX="9" refY="5" orient="auto"><path d="M 1 1 L 9 5 L 1 9" fill="none" stroke="#475569" stroke-width="1.5"/></marker><g data-dediren-line-jump-masks="media-cache-service-accesses-wow-media-cache"><path d="M 752.5 1469.0 Q 758.5 1475.0 752.5 1481.0" fill="none" stroke="#ffffff" stroke-width="6"/><path d="M 752.5 1750.0 Q 758.5 1756.0 752.5 1762.0" fill="none" stroke="#f8fafc" stroke-width="6"/></g><path d="M 752.5 1035.0 L 752.5 1235.0 L 752.5 1469.0 Q 758.5 1475.0 752.5 1481.0 L 752.5 1539.0 L 752.5 1651.5 L 752.5 1750.0 Q 758.5 1756.0 752.5 1762.0 L 752.5 1820.0 L 752.5 1948.0" fill="none" stroke="#475569" stroke-width="1.25" stroke-linecap="round" stroke-linejoin="round" stroke-dasharray="8 5" marker-end="url(#marker-end-media-cache-service-accesses-wow-media-cache)"/><text x="746.5" y="1491.5" text-anchor="end" fill="none" font-size="15.4" font-weight="600" stroke="#ffffff" stroke-width="2">read/write image bytes</text><text x="746.5" y="1491.5" text-anchor="end" fill="#374151" font-size="15.4" font-weight="600">read/write image bytes</text></g><g data-dediren-edge-id="game-data-api-serves-reference-refresh-service"><marker id="marker-end-game-data-api-serves-reference-refresh-service" data-dediren-edge-marker-end="open_arrow" markerWidth="10" markerHeight="10" refX="9" refY="5" orient="auto"><path d="M 1 1 L 9 5 L 1 9" fill="none" stroke="#475569" stroke-width="1.5"/></marker><path d="M 132.0 1611.0 L 132.0 1539.0 L 132.0 1435.0 Q 132.0 1427.0 140.0 1427.0 L 173.5 1427.0 Q 181.5 1427.0 181.5 1419.0 L 181.5 1307.0 Q 181.5 1299.0 189.5 1299.0 L 193.5 1299.0 Q 201.5 1299.0 201.5 1291.0 L 201.5 1235.0 L 201.5 1101.2 Q 201.5 1099.0 203.7 1099.0 L 203.7 1099.0 Q 205.8 1099.0 205.8 1096.8 L 205.8 1035.0" fill="none" stroke="#475569" stroke-width="1.25" stroke-linecap="round" stroke-linejoin="round" marker-end="url(#marker-end-game-data-api-serves-reference-refresh-service)"/><text x="156.8" y="1417.0" text-anchor="middle" fill="none" font-size="15.4" font-weight="600" stroke="#ffffff" stroke-width="2">refresh source</text><text x="156.8" y="1417.0" text-anchor="middle" fill="#374151" font-size="15.4" font-weight="600">refresh source</text></g><g data-dediren-edge-id="render-cdn-serves-media-cache-service"><marker id="marker-end-render-cdn-serves-media-cache-service" data-dediren-edge-marker-end="open_arrow" markerWidth="10" markerHeight="10" refX="9" refY="5" orient="auto"><path d="M 1 1 L 9 5 L 1 9" fill="none" stroke="#475569" stroke-width="1.5"/></marker><g data-dediren-line-jump-masks="render-cdn-serves-media-cache-service"><path d="M 388.0 1469.0 Q 394.0 1475.0 388.0 1481.0" fill="none" stroke="#ffffff" stroke-width="6"/></g><path d="M 388.0 1611.0 L 388.0 1539.0 L 388.0 1481.0 Q 394.0 1475.0 388.0 1469.0 L 388.0 1307.0 Q 388.0 1299.0 396.0 1299.0 L 696.5 1299.0 Q 704.5 1299.0 704.5 1291.0 L 704.5 1235.0 L 704.5 1101.2 Q 704.5 1099.0 706.7 1099.0 L 706.7 1099.0 Q 708.8 1099.0 708.8 1096.8 L 708.8 1035.0" fill="none" stroke="#475569" stroke-width="1.25" stroke-linecap="round" stroke-linejoin="round" marker-end="url(#marker-end-render-cdn-serves-media-cache-service)"/><text x="546.3" y="1289.0" text-anchor="middle" fill="none" font-size="15.4" font-weight="600" stroke="#ffffff" stroke-width="2">image bytes</text><text x="546.3" y="1289.0" text-anchor="middle" fill="#374151" font-size="15.4" font-weight="600">image bytes</text></g><g data-dediren-node-id="reference-ui-entry"><rect data-dediren-node-shape="archimate_rectangle" x="910.2" y="52.0" width="170.0" height="90.0" rx="0" fill="#e0f2fe" stroke="#0369a1" stroke-width="1.25"/><g data-dediren-node-decorator="archimate_application_component" data-dediren-icon-kind="component" data-dediren-icon-size="22"><rect x="1056.1" y="61.0" width="18.0" height="15.8" rx="1.5" fill="#e0f2fe" stroke="#0369a1" stroke-width="1.25"/><rect x="1052.2" y="63.6" width="7.9" height="5.7" rx="1.2" fill="#e0f2fe" stroke="#0369a1" stroke-width="1.25"/><rect x="1052.2" y="70.7" width="7.9" height="5.7" rx="1.2" fill="#e0f2fe" stroke="#0369a1" stroke-width="1.25"/></g><text x="995.2" y="104.5" text-anchor="middle" dominant-baseline="middle" fill="#0c4a6e" font-size="14.0"><tspan x="995.2" dy="0" textLength="95.7" lengthAdjust="spacing">Reference data</tspan><tspan x="995.2" dy="16.0" textLength="97.2" lengthAdjust="spacing">consumption UI</tspan></text></g><g data-dediren-node-id="reference-refresh-ui-entry"><rect data-dediren-node-shape="archimate_rectangle" x="147.7" y="190.0" width="160.0" height="80.0" rx="0" fill="#e0f2fe" stroke="#0369a1" stroke-width="1.25"/><g data-dediren-node-decorator="archimate_application_component" data-dediren-icon-kind="component" data-dediren-icon-size="22"><rect x="283.6" y="199.0" width="18.0" height="15.8" rx="1.5" fill="#e0f2fe" stroke="#0369a1" stroke-width="1.25"/><rect x="279.7" y="201.6" width="7.9" height="5.7" rx="1.2" fill="#e0f2fe" stroke="#0369a1" stroke-width="1.25"/><rect x="279.7" y="208.7" width="7.9" height="5.7" rx="1.2" fill="#e0f2fe" stroke="#0369a1" stroke-width="1.25"/></g><text x="227.7" y="237.5" text-anchor="middle" dominant-baseline="middle" fill="#0c4a6e" font-size="14.0"><tspan x="227.7" dy="0" textLength="64.5" lengthAdjust="spacing">Reference</tspan><tspan x="227.7" dy="16.0" textLength="61.4" lengthAdjust="spacing">refresh UI</tspan></text></g><g data-dediren-node-id="wow-reference-service"><rect data-dediren-node-shape="archimate_rounded_rectangle" x="939.7" y="944.0" width="160.0" height="90.0" rx="6" fill="#e0f2fe" stroke="#0369a1" stroke-width="1.25"/><g data-dediren-node-decorator="archimate_application_service" data-dediren-icon-kind="service" data-dediren-icon-size="22"><rect x="1071.7" y="953.0" width="22.0" height="13.6" rx="4.0" fill="#e0f2fe" stroke="#0369a1" stroke-width="1.25"/></g><text x="1019.7" y="988.4" text-anchor="middle" dominant-baseline="middle" fill="#0c4a6e" font-size="14.0"><tspan x="1019.7" dy="0" textLength="34.2" lengthAdjust="spacing">WoW</tspan><tspan x="1019.7" dy="16.0" textLength="59.1" lengthAdjust="spacing">reference</tspan><tspan x="1019.7" dy="16.0" textLength="89.4" lengthAdjust="spacing">lookup service</tspan></text></g><g data-dediren-node-id="reference-refresh-service"><rect data-dediren-node-shape="archimate_rounded_rectangle" x="147.7" y="944.0" width="160.0" height="90.0" rx="6" fill="#e0f2fe" stroke="#0369a1" stroke-width="1.25"/><g data-dediren-node-decorator="archimate_application_service" data-dediren-icon-kind="service" data-dediren-icon-size="22"><rect x="279.7" y="953.0" width="22.0" height="13.6" rx="4.0" fill="#e0f2fe" stroke="#0369a1" stroke-width="1.25"/></g><text x="227.7" y="988.4" text-anchor="middle" dominant-baseline="middle" fill="#0c4a6e" font-size="14.0"><tspan x="227.7" dy="0" textLength="34.2" lengthAdjust="spacing">WoW</tspan><tspan x="227.7" dy="16.0" textLength="59.1" lengthAdjust="spacing">reference</tspan><tspan x="227.7" dy="16.0" textLength="91.7" lengthAdjust="spacing">refresh service</tspan></text></g><g data-dediren-node-id="wow-media-cache-service"><rect data-dediren-node-shape="archimate_rounded_rectangle" x="650.7" y="944.0" width="160.0" height="90.0" rx="6" fill="#e0f2fe" stroke="#0369a1" stroke-width="1.25"/><g data-dediren-node-decorator="archimate_application_service" data-dediren-icon-kind="service" data-dediren-icon-size="22"><rect x="782.7" y="953.0" width="22.0" height="13.6" rx="4.0" fill="#e0f2fe" stroke="#0369a1" stroke-width="1.25"/></g><text x="730.7" y="996.5" text-anchor="middle" dominant-baseline="middle" fill="#0c4a6e" font-size="14.0"><tspan x="730.7" dy="0" textLength="76.2" lengthAdjust="spacing">WoW media</tspan><tspan x="730.7" dy="16.0" textLength="85.5" lengthAdjust="spacing">cache service</tspan></text></g><g data-dediren-node-id="lfm-api"><rect data-dediren-node-shape="archimate_rectangle" x="292.7" y="639.0" width="160.0" height="80.0" rx="0" fill="#e0f2fe" stroke="#0369a1" stroke-width="1.25"/><g data-dediren-node-decorator="archimate_application_component" data-dediren-icon-kind="component" data-dediren-icon-size="22"><rect x="428.6" y="648.0" width="18.0" height="15.8" rx="1.5" fill="#e0f2fe" stroke="#0369a1" stroke-width="1.25"/><rect x="424.7" y="650.6" width="7.9" height="5.7" rx="1.2" fill="#e0f2fe" stroke="#0369a1" stroke-width="1.25"/><rect x="424.7" y="657.7" width="7.9" height="5.7" rx="1.2" fill="#e0f2fe" stroke="#0369a1" stroke-width="1.25"/></g><text x="372.7" y="694.5" text-anchor="middle" dominant-baseline="middle" fill="#0c4a6e" font-size="14.0" textLength="47.4" lengthAdjust="spacing">Lfm.Api</text></g><g data-dediren-node-id="storage-account"><rect data-dediren-node-shape="archimate_rectangle" x="817.5" y="1611.0" width="160.0" height="80.0" rx="0" fill="#d5e8d4" stroke="#4d7c0f" stroke-width="1.25"/><g data-dediren-node-decorator="archimate_technology_node" data-dediren-icon-kind="node" data-dediren-icon-size="22"><rect x="949.5" y="1624.0" width="18.0" height="12.8" rx="1.5" fill="#d5e8d4" stroke="#4d7c0f" stroke-width="1.25"/><path data-dediren-icon-part="node-3d-edges" d="M 949.5 1624.0 L 953.5 1620.0 L 971.5 1620.0 L 967.5 1624.0 M 967.5 1624.0 L 971.5 1620.0 M 967.5 1636.7 L 971.5 1632.8 M 971.5 1620.0 L 971.5 1632.8" fill="none" stroke="#4d7c0f" stroke-width="1.25" stroke-linejoin="round"/></g><text x="897.5" y="1658.5" text-anchor="middle" dominant-baseline="middle" fill="#365314" font-size="14.0"><tspan x="897.5" dy="0" textLength="49.0" lengthAdjust="spacing">Storage</tspan><tspan x="897.5" dy="16.0" textLength="49.0" lengthAdjust="spacing">account</tspan></text></g><g data-dediren-node-id="wow-reference-container"><rect data-dediren-node-shape="archimate_rectangle" x="961.5" y="1949.0" width="160.0" height="80.0" rx="0" fill="#d5e8d4" stroke="#4d7c0f" stroke-width="1.25"/><g data-dediren-node-decorator="archimate_artifact" data-dediren-icon-kind="artifact" data-dediren-icon-size="22"><path data-dediren-icon-part="artifact-document" d="M 1095.7 1957.0 L 1106.3 1957.0 L 1112.4 1963.2 L 1112.4 1976.8 L 1095.7 1976.8 Z M 1106.3 1957.0 L 1106.3 1963.2 L 1112.4 1963.2" fill="#d5e8d4" stroke="#4d7c0f" stroke-width="1.25"/></g><text x="1041.5" y="1996.5" text-anchor="middle" dominant-baseline="middle" fill="#365314" font-size="14.0"><tspan x="1041.5" dy="0" textLength="91.0" lengthAdjust="spacing">wow reference</tspan><tspan x="1041.5" dy="16.0" textLength="33.4" lengthAdjust="spacing">blobs</tspan></text></g><g data-dediren-node-id="wow-media-cache-blobs"><rect data-dediren-node-shape="archimate_rectangle" x="644.0" y="1949.0" width="170.0" height="80.0" rx="0" fill="#d5e8d4" stroke="#4d7c0f" stroke-width="1.25"/><g data-dediren-node-decorator="archimate_artifact" data-dediren-icon-kind="artifact" data-dediren-icon-size="22"><path data-dediren-icon-part="artifact-document" d="M 788.2 1957.0 L 798.8 1957.0 L 804.9 1963.2 L 804.9 1976.8 L 788.2 1976.8 Z M 798.8 1957.0 L 798.8 1963.2 L 804.9 1963.2" fill="#d5e8d4" stroke="#4d7c0f" stroke-width="1.25"/></g><text x="729.0" y="1990.8" text-anchor="middle" dominant-baseline="middle" fill="#365314" font-size="11.8"><tspan x="729.0" dy="0" textLength="23.7" lengthAdjust="spacing">wow</tspan><tspan x="729.0" dy="13.6" textLength="68.0" lengthAdjust="spacing">media-cache</tspan><tspan x="729.0" dy="13.6" textLength="28.4" lengthAdjust="spacing">blobs</tspan></text></g><g data-dediren-node-id="blizzard-game-data-api"><rect data-dediren-node-shape="archimate_rounded_rectangle" x="52.0" y="1612.0" width="160.0" height="80.0" rx="6" fill="#e0f2fe" stroke="#0369a1" stroke-width="1.25"/><g data-dediren-node-decorator="archimate_application_service" data-dediren-icon-kind="service" data-dediren-icon-size="22"><rect x="184.0" y="1621.0" width="22.0" height="13.6" rx="4.0" fill="#e0f2fe" stroke="#0369a1" stroke-width="1.25"/></g><text x="132.0" y="1659.5" text-anchor="middle" dominant-baseline="middle" fill="#0c4a6e" font-size="14.0"><tspan x="132.0" dy="0" textLength="76.2" lengthAdjust="spacing">WoW Game</tspan><tspan x="132.0" dy="16.0" textLength="56.0" lengthAdjust="spacing">Data API</tspan></text></g><g data-dediren-node-id="blizzard-render-cdn"><rect data-dediren-node-shape="archimate_rounded_rectangle" x="308.0" y="1612.0" width="160.0" height="80.0" rx="6" fill="#e0f2fe" stroke="#0369a1" stroke-width="1.25"/><g data-dediren-node-decorator="archimate_application_service" data-dediren-icon-kind="service" data-dediren-icon-size="22"><rect x="440.0" y="1621.0" width="22.0" height="13.6" rx="4.0" fill="#e0f2fe" stroke="#0369a1" stroke-width="1.25"/></g><text x="388.0" y="1659.5" text-anchor="middle" dominant-baseline="middle" fill="#0c4a6e" font-size="14.0"><tspan x="388.0" dy="0" textLength="49.7" lengthAdjust="spacing">Blizzard</tspan><tspan x="388.0" dy="16.0" textLength="80.1" lengthAdjust="spacing">Render CDN</tspan></text></g></g></svg>

