<svg xmlns="http://www.w3.org/2000/svg" role="img" width="1356" height="284" viewBox="-20 -52 1356 316" data-arch-a11y="root" data-arch-a11y-viewbox="-20.0 -20.0 1356.0 284.0"><title>Run Signup - Business Process Candidate</title>
<desc>Which business process steps take a player from wanting a run to a confirmed signup?</desc>
<text data-arch-a11y="visible-title" x="-12" y="-32" font-family="sans-serif" font-size="16" font-weight="bold">Run Signup - Business Process Candidate</text><rect x="-20.0" y="-20.0" width="1356.0" height="284.0" fill="#ffffff"/><g font-family="Inter, &quot;Liberation Sans&quot;, &quot;Noto Sans&quot;, Arial, &quot;Helvetica Neue&quot;, &quot;Segoe UI&quot;, sans-serif" font-size="14"><g data-dediren-edge-id="player-event-triggers-browse"><marker id="marker-end-player-event-triggers-browse" data-dediren-edge-marker-end="open_arrow" markerWidth="10" markerHeight="10" refX="5" refY="5" orient="auto"><path d="M 1 1 L 9 5 L 1 9" fill="none" stroke="#475569" stroke-width="1.5"/></marker><path d="M 173.0 60.5 L 293.0 60.5" fill="none" stroke="#475569" stroke-width="1.25" stroke-linecap="round" stroke-linejoin="round" marker-end="url(#marker-end-player-event-triggers-browse)"/><text x="233.0" y="78.5" text-anchor="middle" fill="none" font-size="15.4" font-weight="600" stroke="#ffffff" stroke-width="2">starts</text><text x="233.0" y="78.5" text-anchor="middle" fill="#374151" font-size="15.4" font-weight="600">starts</text></g><g data-dediren-edge-id="browse-triggers-inspect"><marker id="marker-end-browse-triggers-inspect" data-dediren-edge-marker-end="open_arrow" markerWidth="10" markerHeight="10" refX="5" refY="5" orient="auto"><path d="M 1 1 L 9 5 L 1 9" fill="none" stroke="#475569" stroke-width="1.5"/></marker><path d="M 455.0 60.5 L 575.0 60.5" fill="none" stroke="#475569" stroke-width="1.25" stroke-linecap="round" stroke-linejoin="round" marker-end="url(#marker-end-browse-triggers-inspect)"/><text x="515.0" y="78.5" text-anchor="middle" fill="none" font-size="15.4" font-weight="600" stroke="#ffffff" stroke-width="2">selects</text><text x="515.0" y="78.5" text-anchor="middle" fill="#374151" font-size="15.4" font-weight="600">selects</text></g><g data-dediren-edge-id="inspect-triggers-signup"><marker id="marker-end-inspect-triggers-signup" data-dediren-edge-marker-end="open_arrow" markerWidth="10" markerHeight="10" refX="5" refY="5" orient="auto"><path d="M 1 1 L 9 5 L 1 9" fill="none" stroke="#475569" stroke-width="1.5"/></marker><path d="M 737.0 60.5 L 857.0 60.5" fill="none" stroke="#475569" stroke-width="1.25" stroke-linecap="round" stroke-linejoin="round" marker-end="url(#marker-end-inspect-triggers-signup)"/><text x="797.0" y="78.5" text-anchor="middle" fill="none" font-size="15.4" font-weight="600" stroke="#ffffff" stroke-width="2">joins</text><text x="797.0" y="78.5" text-anchor="middle" fill="#374151" font-size="15.4" font-weight="600">joins</text></g><g data-dediren-edge-id="signup-triggers-confirmed"><marker id="marker-end-signup-triggers-confirmed" data-dediren-edge-marker-end="open_arrow" markerWidth="10" markerHeight="10" refX="5" refY="5" orient="auto"><path d="M 1 1 L 9 5 L 1 9" fill="none" stroke="#475569" stroke-width="1.5"/></marker><path d="M 1019.0 52.0 L 1143.0 52.0" fill="none" stroke="#475569" stroke-width="1.25" stroke-linecap="round" stroke-linejoin="round" marker-end="url(#marker-end-signup-triggers-confirmed)"/><text x="1081.0" y="42.0" text-anchor="middle" fill="none" font-size="15.4" font-weight="600" stroke="#ffffff" stroke-width="2">confirms</text><text x="1081.0" y="42.0" text-anchor="middle" fill="#374151" font-size="15.4" font-weight="600">confirms</text></g><g data-dediren-edge-id="signup-flows-to-cancel"><marker id="marker-end-signup-flows-to-cancel" data-dediren-edge-marker-end="open_arrow" markerWidth="10" markerHeight="10" refX="5" refY="5" orient="auto"><path d="M 1 1 L 9 5 L 1 9" fill="none" stroke="#475569" stroke-width="1.5"/></marker><path d="M 1019.0 69.0 L 1043.0 69.0 Q 1051.0 69.0 1051.0 77.0 L 1051.0 184.0 Q 1051.0 192.0 1059.0 192.0 L 1143.0 192.0" fill="none" stroke="#475569" stroke-width="1.25" stroke-linecap="round" stroke-linejoin="round" marker-end="url(#marker-end-signup-flows-to-cancel)"/><text x="1035.0" y="143.0" text-anchor="middle" fill="none" font-size="15.4" font-weight="600" stroke="#ffffff" stroke-width="2">alternate path</text><text x="1035.0" y="143.0" text-anchor="middle" fill="#374151" font-size="15.4" font-weight="600">alternate path</text></g><g data-dediren-node-id="player-wants-run"><rect data-dediren-node-shape="archimate_rounded_rectangle" x="12.0" y="15.5" width="160.0" height="90.0" rx="6" fill="#fff2cc" stroke="#d6b656" stroke-width="1.25"/><g data-dediren-node-decorator="archimate_business_event" data-dediren-icon-kind="event" data-dediren-icon-size="22"><path data-dediren-icon-part="event-pill" d="M 148.0 25.4 L 160.3 25.4 C 164.7 25.4, 166.0 28.9, 166.0 32.4 C 166.0 35.9, 164.7 39.5, 160.3 39.5 L 148.0 39.5 L 151.5 32.4 L 148.0 25.4 Z" fill="#fff2cc" stroke="#d6b656" stroke-width="1.25"/></g><text x="92.0" y="68.0" text-anchor="middle" dominant-baseline="middle" fill="#3f3000" font-size="14.0"><tspan x="92.0" dy="0" textLength="80.1" lengthAdjust="spacing">Player wants</tspan><tspan x="92.0" dy="16.0" textLength="73.1" lengthAdjust="spacing">to join a run</tspan></text></g><g data-dediren-node-id="browse-open-runs"><rect data-dediren-node-shape="archimate_rounded_rectangle" x="294.0" y="20.5" width="160.0" height="80.0" rx="6" fill="#fff2cc" stroke="#d6b656" stroke-width="1.25"/><g data-dediren-node-decorator="archimate_business_process" data-dediren-icon-kind="process" data-dediren-icon-size="22"><path data-dediren-icon-part="process-arrow" d="M 426.0 34.8 L 439.6 34.8 L 439.6 29.5 L 448.0 37.4 L 439.6 45.3 L 439.6 40.1 L 426.0 40.1 Z" fill="#fff2cc" stroke="#d6b656" stroke-width="1.25"/></g><text x="374.0" y="68.0" text-anchor="middle" dominant-baseline="middle" fill="#3f3000" font-size="14.0"><tspan x="374.0" dy="0" textLength="81.7" lengthAdjust="spacing">Browse open</tspan><tspan x="374.0" dy="16.0" textLength="27.2" lengthAdjust="spacing">runs</tspan></text></g><g data-dediren-node-id="inspect-run-detail"><rect data-dediren-node-shape="archimate_rounded_rectangle" x="576.0" y="20.5" width="160.0" height="80.0" rx="6" fill="#fff2cc" stroke="#d6b656" stroke-width="1.25"/><g data-dediren-node-decorator="archimate_business_process" data-dediren-icon-kind="process" data-dediren-icon-size="22"><path data-dediren-icon-part="process-arrow" d="M 708.0 34.8 L 721.6 34.8 L 721.6 29.5 L 730.0 37.4 L 721.6 45.3 L 721.6 40.1 L 708.0 40.1 Z" fill="#fff2cc" stroke="#d6b656" stroke-width="1.25"/></g><text x="656.0" y="68.0" text-anchor="middle" dominant-baseline="middle" fill="#3f3000" font-size="14.0"><tspan x="656.0" dy="0" textLength="69.2" lengthAdjust="spacing">Inspect run</tspan><tspan x="656.0" dy="16.0" textLength="33.4" lengthAdjust="spacing">detail</tspan></text></g><g data-dediren-node-id="sign-up-for-run"><rect data-dediren-node-shape="archimate_rounded_rectangle" x="858.0" y="20.5" width="160.0" height="80.0" rx="6" fill="#fff2cc" stroke="#d6b656" stroke-width="1.25"/><g data-dediren-node-decorator="archimate_business_process" data-dediren-icon-kind="process" data-dediren-icon-size="22"><path data-dediren-icon-part="process-arrow" d="M 990.0 34.8 L 1003.6 34.8 L 1003.6 29.5 L 1012.0 37.4 L 1003.6 45.3 L 1003.6 40.1 L 990.0 40.1 Z" fill="#fff2cc" stroke="#d6b656" stroke-width="1.25"/></g><text x="938.0" y="76.0" text-anchor="middle" dominant-baseline="middle" fill="#3f3000" font-size="14.0" textLength="91.8" lengthAdjust="spacing">Sign up for run</text></g><g data-dediren-node-id="cancel-signup"><rect data-dediren-node-shape="archimate_rounded_rectangle" x="1144.0" y="152.0" width="160.0" height="80.0" rx="6" fill="#fff2cc" stroke="#d6b656" stroke-width="1.25"/><g data-dediren-node-decorator="archimate_business_process" data-dediren-icon-kind="process" data-dediren-icon-size="22"><path data-dediren-icon-part="process-arrow" d="M 1276.0 166.3 L 1289.6 166.3 L 1289.6 161.0 L 1298.0 168.9 L 1289.6 176.8 L 1289.6 171.6 L 1276.0 171.6 Z" fill="#fff2cc" stroke="#d6b656" stroke-width="1.25"/></g><text x="1224.0" y="207.5" text-anchor="middle" dominant-baseline="middle" fill="#3f3000" font-size="14.0" textLength="88.7" lengthAdjust="spacing">Cancel signup</text></g><g data-dediren-node-id="signup-confirmed"><rect data-dediren-node-shape="archimate_rounded_rectangle" x="1144.0" y="12.0" width="160.0" height="80.0" rx="6" fill="#fff2cc" stroke="#d6b656" stroke-width="1.25"/><g data-dediren-node-decorator="archimate_business_event" data-dediren-icon-kind="event" data-dediren-icon-size="22"><path data-dediren-icon-part="event-pill" d="M 1280.0 21.9 L 1292.3 21.9 C 1296.7 21.9, 1298.0 25.4, 1298.0 28.9 C 1298.0 32.4, 1296.7 36.0, 1292.3 36.0 L 1280.0 36.0 L 1283.5 28.9 L 1280.0 21.9 Z" fill="#fff2cc" stroke="#d6b656" stroke-width="1.25"/></g><text x="1224.0" y="59.5" text-anchor="middle" dominant-baseline="middle" fill="#3f3000" font-size="14.0"><tspan x="1224.0" dy="0" textLength="43.5" lengthAdjust="spacing">Signup</tspan><tspan x="1224.0" dy="16.0" textLength="61.4" lengthAdjust="spacing">confirmed</tspan></text></g></g></svg>

