<svg xmlns="http://www.w3.org/2000/svg" width="1340" height="268" viewBox="-12.0 -12.0 1340.0 268.0"><rect x="-12.0" y="-12.0" width="1340.0" height="268.0" fill="#ffffff"/><g font-family="Inter, Arial, sans-serif" font-size="14.0"><g data-dediren-edge-id="player-event-triggers-browse"><defs><marker id="marker-end-player-event-triggers-browse" data-dediren-edge-marker-end="filled_arrow" markerWidth="8" markerHeight="8" refX="8" refY="4" orient="auto" markerUnits="strokeWidth"><path d="M 0 0 L 8 4 L 0 8 z" fill="#b45309"/></marker></defs><path d="M 173.0 60.5 L 293.0 60.5" fill="none" stroke="#b45309" stroke-width="1.5" stroke-linecap="round" stroke-linejoin="round" marker-end="url(#marker-end-player-event-triggers-browse)"/><text x="233.0" y="52.1" text-anchor="middle" fill="#92400e" stroke="#ffffff" stroke-width="4" stroke-linejoin="round" paint-order="stroke">starts</text></g><g data-dediren-edge-id="browse-triggers-inspect"><defs><marker id="marker-end-browse-triggers-inspect" data-dediren-edge-marker-end="filled_arrow" markerWidth="8" markerHeight="8" refX="8" refY="4" orient="auto" markerUnits="strokeWidth"><path d="M 0 0 L 8 4 L 0 8 z" fill="#b45309"/></marker></defs><path d="M 455.0 60.5 L 575.0 60.5" fill="none" stroke="#b45309" stroke-width="1.5" stroke-linecap="round" stroke-linejoin="round" marker-end="url(#marker-end-browse-triggers-inspect)"/><text x="515.0" y="52.1" text-anchor="middle" fill="#92400e" stroke="#ffffff" stroke-width="4" stroke-linejoin="round" paint-order="stroke">selects</text></g><g data-dediren-edge-id="inspect-triggers-signup"><defs><marker id="marker-end-inspect-triggers-signup" data-dediren-edge-marker-end="filled_arrow" markerWidth="8" markerHeight="8" refX="8" refY="4" orient="auto" markerUnits="strokeWidth"><path d="M 0 0 L 8 4 L 0 8 z" fill="#b45309"/></marker></defs><path d="M 737.0 60.5 L 857.0 60.5" fill="none" stroke="#b45309" stroke-width="1.5" stroke-linecap="round" stroke-linejoin="round" marker-end="url(#marker-end-inspect-triggers-signup)"/><text x="797.0" y="52.1" text-anchor="middle" fill="#92400e" stroke="#ffffff" stroke-width="4" stroke-linejoin="round" paint-order="stroke">joins</text></g><g data-dediren-edge-id="signup-triggers-confirmed"><defs><marker id="marker-end-signup-triggers-confirmed" data-dediren-edge-marker-end="filled_arrow" markerWidth="8" markerHeight="8" refX="8" refY="4" orient="auto" markerUnits="strokeWidth"><path d="M 0 0 L 8 4 L 0 8 z" fill="#b45309"/></marker></defs><path d="M 1019.0 52.0 L 1143.0 52.0" fill="none" stroke="#b45309" stroke-width="1.5" stroke-linecap="round" stroke-linejoin="round" marker-end="url(#marker-end-signup-triggers-confirmed)"/><text x="1081.0" y="43.6" text-anchor="middle" fill="#92400e" stroke="#ffffff" stroke-width="4" stroke-linejoin="round" paint-order="stroke">confirms</text></g><g data-dediren-edge-id="signup-flows-to-cancel"><defs><marker id="marker-end-signup-flows-to-cancel" data-dediren-edge-marker-end="filled_arrow" markerWidth="8" markerHeight="8" refX="8" refY="4" orient="auto" markerUnits="strokeWidth"><path d="M 0 0 L 8 4 L 0 8 z" fill="#b45309"/></marker></defs><path d="M 1019.0 69.0 L 1043.0 69.0 Q 1051.0 69.0 1051.0 77.0 L 1051.0 184.0 Q 1051.0 192.0 1059.0 192.0 L 1143.0 192.0" fill="none" stroke="#b45309" stroke-width="1.5" stroke-linecap="round" stroke-linejoin="round" stroke-dasharray="8 5" marker-end="url(#marker-end-signup-flows-to-cancel)"/><text x="1035.0" y="103.8" text-anchor="middle" fill="#92400e" stroke="#ffffff" stroke-width="4" stroke-linejoin="round" paint-order="stroke">alternate path</text></g><g data-dediren-node-id="player-wants-run"><rect data-dediren-node-shape="archimate_rounded_rectangle" x="12.0" y="20.5" width="160.0" height="80.0" rx="4.0" fill="#fefce8" stroke="#a16207" stroke-width="1.5"/><g data-dediren-node-decorator="archimate_business_event" data-dediren-icon-kind="event" data-dediren-icon-size="22"><path data-dediren-icon-part="event-pill" d="M 148.0 30.4 L 160.3 30.4 C 164.7 30.4, 166.0 33.9, 166.0 37.4 C 166.0 40.9, 164.7 44.5, 160.3 44.5 L 148.0 44.5 L 151.5 37.4 L 148.0 30.4 Z" fill="#fefce8" stroke="#a16207" stroke-width="1.5"/></g><text x="92.0" y="52.5" text-anchor="middle" dominant-baseline="middle" fill="#713f12" font-size="14.0"><tspan x="92.0" dy="0">Player wants to</tspan><tspan x="92.0" dy="16.0">join a run</tspan></text></g><g data-dediren-node-id="browse-open-runs"><rect data-dediren-node-shape="archimate_rounded_rectangle" x="294.0" y="20.5" width="160.0" height="80.0" rx="4.0" fill="#fefce8" stroke="#a16207" stroke-width="1.5"/><g data-dediren-node-decorator="archimate_business_process" data-dediren-icon-kind="process" data-dediren-icon-size="22"><path data-dediren-icon-part="process-arrow" d="M 426.0 34.8 L 439.6 34.8 L 439.6 29.5 L 448.0 37.4 L 439.6 45.3 L 439.6 40.1 L 426.0 40.1 Z" fill="#fefce8" stroke="#a16207" stroke-width="1.5"/></g><text x="374.0" y="60.5" text-anchor="middle" dominant-baseline="middle" fill="#713f12" font-size="14.0">Browse open runs</text></g><g data-dediren-node-id="inspect-run-detail"><rect data-dediren-node-shape="archimate_rounded_rectangle" x="576.0" y="20.5" width="160.0" height="80.0" rx="4.0" fill="#fefce8" stroke="#a16207" stroke-width="1.5"/><g data-dediren-node-decorator="archimate_business_process" data-dediren-icon-kind="process" data-dediren-icon-size="22"><path data-dediren-icon-part="process-arrow" d="M 708.0 34.8 L 721.6 34.8 L 721.6 29.5 L 730.0 37.4 L 721.6 45.3 L 721.6 40.1 L 708.0 40.1 Z" fill="#fefce8" stroke="#a16207" stroke-width="1.5"/></g><text x="656.0" y="52.5" text-anchor="middle" dominant-baseline="middle" fill="#713f12" font-size="14.0"><tspan x="656.0" dy="0">Inspect run</tspan><tspan x="656.0" dy="16.0">detail</tspan></text></g><g data-dediren-node-id="sign-up-for-run"><rect data-dediren-node-shape="archimate_rounded_rectangle" x="858.0" y="20.5" width="160.0" height="80.0" rx="4.0" fill="#fefce8" stroke="#a16207" stroke-width="1.5"/><g data-dediren-node-decorator="archimate_business_process" data-dediren-icon-kind="process" data-dediren-icon-size="22"><path data-dediren-icon-part="process-arrow" d="M 990.0 34.8 L 1003.6 34.8 L 1003.6 29.5 L 1012.0 37.4 L 1003.6 45.3 L 1003.6 40.1 L 990.0 40.1 Z" fill="#fefce8" stroke="#a16207" stroke-width="1.5"/></g><text x="938.0" y="60.5" text-anchor="middle" dominant-baseline="middle" fill="#713f12" font-size="14.0">Sign up for run</text></g><g data-dediren-node-id="cancel-signup"><rect data-dediren-node-shape="archimate_rounded_rectangle" x="1144.0" y="152.0" width="160.0" height="80.0" rx="4.0" fill="#fefce8" stroke="#a16207" stroke-width="1.5"/><g data-dediren-node-decorator="archimate_business_process" data-dediren-icon-kind="process" data-dediren-icon-size="22"><path data-dediren-icon-part="process-arrow" d="M 1276.0 166.3 L 1289.6 166.3 L 1289.6 161.0 L 1298.0 168.9 L 1289.6 176.8 L 1289.6 171.6 L 1276.0 171.6 Z" fill="#fefce8" stroke="#a16207" stroke-width="1.5"/></g><text x="1224.0" y="192.0" text-anchor="middle" dominant-baseline="middle" fill="#713f12" font-size="14.0">Cancel signup</text></g><g data-dediren-node-id="signup-confirmed"><rect data-dediren-node-shape="archimate_rounded_rectangle" x="1144.0" y="12.0" width="160.0" height="80.0" rx="4.0" fill="#fefce8" stroke="#a16207" stroke-width="1.5"/><g data-dediren-node-decorator="archimate_business_event" data-dediren-icon-kind="event" data-dediren-icon-size="22"><path data-dediren-icon-part="event-pill" d="M 1280.0 21.9 L 1292.3 21.9 C 1296.7 21.9, 1298.0 25.4, 1298.0 28.9 C 1298.0 32.4, 1296.7 36.0, 1292.3 36.0 L 1280.0 36.0 L 1283.5 28.9 L 1280.0 21.9 Z" fill="#fefce8" stroke="#a16207" stroke-width="1.5"/></g><text x="1224.0" y="52.0" text-anchor="middle" dominant-baseline="middle" fill="#713f12" font-size="14.0">Signup confirmed</text></g></g></svg>
