<svg xmlns="http://www.w3.org/2000/svg" width="3202" height="800" viewBox="-12.0 -9.0 3202.0 800.0"><rect x="-12.0" y="-9.0" width="3202.0" height="800.0" fill="#ffffff"/><g font-family="Inter, Arial, sans-serif" font-size="14.0"><g data-dediren-group-id="production-release-local-gates"><rect x="12.0" y="104.5" width="273.0" height="268.0" rx="4.0" fill="#f8fafc" stroke="#94a3b8" stroke-width="1.0"/><text x="20.0" y="120.5" fill="#374151" font-size="12.0">Local repository gates</text></g><g data-dediren-group-id="production-release-orchestration"><rect x="453.0" y="186.0" width="775.0" height="565.0" rx="4.0" fill="#f8fafc" stroke="#94a3b8" stroke-width="1.0"/><text x="461.0" y="202.0" fill="#374151" font-size="12.0">Deploy orchestration</text></g><g data-dediren-group-id="production-release-quality-gates"><rect x="1436.0" y="159.5" width="338.0" height="268.0" rx="4.0" fill="#f8fafc" stroke="#94a3b8" stroke-width="1.0"/><text x="1444.0" y="175.5" fill="#374151" font-size="12.0">Deployment quality gates</text></g><g data-dediren-group-id="production-release-build-and-deploy"><rect x="2062.0" y="58.5" width="623.0" height="636.0" rx="4.0" fill="#f8fafc" stroke="#94a3b8" stroke-width="1.0"/><text x="2070.0" y="74.5" fill="#374151" font-size="12.0">Build and deploy stages</text></g><g data-dediren-group-id="production-release-deployed-runtime"><rect x="2893.0" y="79.0" width="273.0" height="688.0" rx="4.0" fill="#f8fafc" stroke="#94a3b8" stroke-width="1.0"/><text x="2901.0" y="95.0" fill="#374151" font-size="12.0">Production runtime</text></g><g data-dediren-edge-id="pre-commit-guards-repository"><path d="M 197.0 160.0 L 221.0 160.0 Q 229.0 160.0 229.0 168.0 L 229.0 201.0 Q 229.0 209.0 237.0 209.0 L 305.0 209.0 L 393.0 209.0 Q 401.0 209.0 401.0 217.0 L 401.0 242.0 Q 401.0 250.0 409.0 250.0 L 433.0 250.0 L 477.0 250.0" fill="none" stroke="#64748b" stroke-width="1.5" stroke-linecap="round" stroke-linejoin="round"/><text x="213.0" y="122.8" text-anchor="middle" fill="#374151" stroke="#ffffff" stroke-width="4" stroke-linejoin="round" paint-order="stroke">blocks secret staging</text></g><g data-dediren-edge-id="pre-commit-complements-secret-scan"><g data-dediren-line-jump-masks="pre-commit-complements-secret-scan"><path d="M 223.0 177.0 Q 229.0 171.0 235.0 177.0" fill="none" stroke="#ffffff" stroke-width="5.5" stroke-linecap="round" stroke-linejoin="round"/></g><path d="M 197.0 177.0 L 223.0 177.0 Q 229.0 171.0 235.0 177.0 L 305.0 177.0 L 329.0 177.0 Q 337.0 177.0 337.0 169.0 L 337.0 133.0 Q 337.0 125.0 345.0 125.0 L 369.0 125.0 L 1352.0 125.0 L 1376.0 125.0 Q 1384.0 125.0 1384.0 133.0 L 1384.0 207.0 Q 1384.0 215.0 1392.0 215.0 L 1416.0 215.0 L 1524.0 215.0" fill="none" stroke="#64748b" stroke-width="1.5" stroke-linecap="round" stroke-linejoin="round"/><text x="381.8" y="168.6" text-anchor="middle" fill="#374151" stroke="#ffffff" stroke-width="4" stroke-linejoin="round" paint-order="stroke">local + CI secret controls</text></g><g data-dediren-edge-id="pre-push-guards-repository"><path d="M 197.0 308.5 L 305.0 308.5 L 329.0 308.5 Q 337.0 308.5 337.0 300.5 L 337.0 258.0 Q 337.0 250.0 345.0 250.0 L 433.0 250.0 L 477.0 250.0" fill="none" stroke="#64748b" stroke-width="1.5" stroke-linecap="round" stroke-linejoin="round"/><text x="347.1" y="300.1" text-anchor="middle" fill="#374151" stroke="#ffffff" stroke-width="4" stroke-linejoin="round" paint-order="stroke">local verification</text></g><g data-dediren-edge-id="repository-triggers-deploy-workflow"><defs><marker id="marker-end-repository-triggers-deploy-workflow" data-dediren-edge-marker-end="filled_arrow" markerWidth="8" markerHeight="8" refX="8" refY="4" orient="auto" markerUnits="strokeWidth"><path d="M 0 0 L 8 4 L 0 8 z" fill="#b45309"/></marker></defs><path d="M 558.0 291.0 L 558.0 315.0 Q 558.0 323.0 566.0 323.0 L 830.0 323.0 Q 838.0 323.0 838.0 331.0 L 838.0 355.0" fill="none" stroke="#b45309" stroke-width="1.5" stroke-linecap="round" stroke-linejoin="round" marker-end="url(#marker-end-repository-triggers-deploy-workflow)"/><text x="698.0" y="339.8" text-anchor="middle" fill="#92400e" stroke="#ffffff" stroke-width="4" stroke-linejoin="round" paint-order="stroke">push/manual</text></g><g data-dediren-edge-id="deploy-workflow-composes-change-detection"><defs><marker id="marker-start-deploy-workflow-composes-change-detection" data-dediren-edge-marker-start="filled_diamond" markerWidth="10" markerHeight="10" refX="1" refY="5" orient="auto" markerUnits="strokeWidth"><path d="M 1 5 L 5 1 L 9 5 L 5 9 z" fill="#475569" stroke="#475569" stroke-width="1.1"/></marker></defs><path d="M 859.5 437.0 L 859.5 461.0 Q 859.5 469.0 867.5 469.0 L 1115.5 469.0 Q 1123.5 469.0 1123.5 477.0 L 1123.5 501.0" fill="none" stroke="#475569" stroke-width="1.5" stroke-linecap="round" stroke-linejoin="round" marker-start="url(#marker-start-deploy-workflow-composes-change-detection)"/><text x="991.5" y="485.8" text-anchor="middle" fill="#334155" stroke="#ffffff" stroke-width="4" stroke-linejoin="round" paint-order="stroke">change filter</text></g><g data-dediren-edge-id="deploy-workflow-composes-infra"><defs><marker id="marker-start-deploy-workflow-composes-infra" data-dediren-edge-marker-start="filled_diamond" markerWidth="10" markerHeight="10" refX="1" refY="5" orient="auto" markerUnits="strokeWidth"><path d="M 1 5 L 5 1 L 9 5 L 5 9 z" fill="#475569" stroke="#475569" stroke-width="1.1"/></marker></defs><g data-dediren-line-jump-masks="deploy-workflow-composes-infra"><path d="M 1320.0 131.0 Q 1326.0 125.0 1320.0 119.0" fill="none" stroke="#ffffff" stroke-width="5.5" stroke-linecap="round" stroke-linejoin="round"/></g><path d="M 919.0 387.5 L 943.0 387.5 Q 951.0 387.5 951.0 379.5 L 951.0 371.5 Q 951.0 363.5 959.0 363.5 L 983.0 363.5 L 1123.5 363.5 L 1248.0 363.5 L 1312.0 363.5 Q 1320.0 363.5 1320.0 355.5 L 1320.0 131.0 Q 1326.0 125.0 1320.0 119.0 L 1320.0 84.0 L 1352.0 84.0 L 1858.0 84.0 L 1922.0 84.0 Q 1930.0 84.0 1930.0 92.0 L 1930.0 404.5 Q 1930.0 412.5 1938.0 412.5 L 2042.0 412.5 L 2110.0 412.5 Q 2118.0 412.5 2118.0 420.5 L 2118.0 426.1 Q 2118.0 431.8 2123.6 431.8 L 2150.0 431.8" fill="none" stroke="#475569" stroke-width="1.5" stroke-linecap="round" stroke-linejoin="round" marker-start="url(#marker-start-deploy-workflow-composes-infra)"/><text x="2094.3" y="412.6" text-anchor="middle" fill="#334155" stroke="#ffffff" stroke-width="4" stroke-linejoin="round" paint-order="stroke">infra</text></g><g data-dediren-edge-id="deploy-workflow-composes-secret-scan"><defs><marker id="marker-start-deploy-workflow-composes-secret-scan" data-dediren-edge-marker-start="filled_diamond" markerWidth="10" markerHeight="10" refX="1" refY="5" orient="auto" markerUnits="strokeWidth"><path d="M 1 5 L 5 1 L 9 5 L 5 9 z" fill="#475569" stroke="#475569" stroke-width="1.1"/></marker></defs><path d="M 919.0 387.5 L 943.0 387.5 Q 951.0 387.5 951.0 379.5 L 951.0 371.5 Q 951.0 363.5 959.0 363.5 L 983.0 363.5 L 1123.5 363.5 L 1248.0 363.5 L 1312.0 363.5 Q 1320.0 363.5 1320.0 355.5 L 1320.0 255.0 Q 1320.0 247.0 1328.0 247.0 L 1416.0 247.0 L 1484.5 247.0 Q 1492.0 247.0 1492.0 239.5 L 1492.0 235.8 Q 1492.0 232.0 1495.8 232.0 L 1524.0 232.0" fill="none" stroke="#475569" stroke-width="1.5" stroke-linecap="round" stroke-linejoin="round" marker-start="url(#marker-start-deploy-workflow-composes-secret-scan)"/><text x="1442.3" y="259.6" text-anchor="middle" fill="#334155" stroke="#ffffff" stroke-width="4" stroke-linejoin="round" paint-order="stroke">secret gate</text></g><g data-dediren-edge-id="deploy-workflow-composes-infra-analysis"><defs><marker id="marker-start-deploy-workflow-composes-infra-analysis" data-dediren-edge-marker-start="filled_diamond" markerWidth="10" markerHeight="10" refX="1" refY="5" orient="auto" markerUnits="strokeWidth"><path d="M 1 5 L 5 1 L 9 5 L 5 9 z" fill="#475569" stroke="#475569" stroke-width="1.1"/></marker></defs><path d="M 919.0 387.5 L 943.0 387.5 Q 951.0 387.5 951.0 379.5 L 951.0 371.5 Q 951.0 363.5 959.0 363.5 L 983.0 363.5 L 1123.5 363.5 L 1248.0 363.5 L 1416.0 363.5 L 1524.0 363.5" fill="none" stroke="#475569" stroke-width="1.5" stroke-linecap="round" stroke-linejoin="round" marker-start="url(#marker-start-deploy-workflow-composes-infra-analysis)"/><text x="1391.2" y="355.1" text-anchor="middle" fill="#334155" stroke="#ffffff" stroke-width="4" stroke-linejoin="round" paint-order="stroke">infra analysis</text></g><g data-dediren-edge-id="deploy-workflow-composes-build"><defs><marker id="marker-start-deploy-workflow-composes-build" data-dediren-edge-marker-start="filled_diamond" markerWidth="10" markerHeight="10" refX="1" refY="5" orient="auto" markerUnits="strokeWidth"><path d="M 1 5 L 5 1 L 9 5 L 5 9 z" fill="#475569" stroke="#475569" stroke-width="1.1"/></marker></defs><g data-dediren-line-jump-masks="deploy-workflow-composes-build"><path d="M 1320.0 131.0 Q 1326.0 125.0 1320.0 119.0" fill="none" stroke="#ffffff" stroke-width="5.5" stroke-linecap="round" stroke-linejoin="round"/></g><path d="M 919.0 387.5 L 943.0 387.5 Q 951.0 387.5 951.0 379.5 L 951.0 371.5 Q 951.0 363.5 959.0 363.5 L 983.0 363.5 L 1123.5 363.5 L 1248.0 363.5 L 1312.0 363.5 Q 1320.0 363.5 1320.0 355.5 L 1320.0 131.0 Q 1326.0 125.0 1320.0 119.0 L 1320.0 84.0 L 1352.0 84.0 L 1376.0 84.0 Q 1384.0 84.0 1384.0 76.0 L 1384.0 23.0 Q 1384.0 15.0 1392.0 15.0 L 1858.0 15.0 L 2002.0 15.0 Q 2010.0 15.0 2010.0 23.0 L 2010.0 123.0 Q 2010.0 131.0 2018.0 131.0 L 2042.0 131.0 L 2110.5 131.0 Q 2118.0 131.0 2118.0 138.5 L 2118.0 142.2 Q 2118.0 146.0 2121.8 146.0 L 2150.0 146.0" fill="none" stroke="#475569" stroke-width="1.5" stroke-linecap="round" stroke-linejoin="round" marker-start="url(#marker-start-deploy-workflow-composes-build)"/><text x="2094.3" y="126.8" text-anchor="middle" fill="#334155" stroke="#ffffff" stroke-width="4" stroke-linejoin="round" paint-order="stroke">build</text></g><g data-dediren-edge-id="deploy-workflow-composes-app"><defs><marker id="marker-start-deploy-workflow-composes-app" data-dediren-edge-marker-start="filled_diamond" markerWidth="10" markerHeight="10" refX="1" refY="5" orient="auto" markerUnits="strokeWidth"><path d="M 1 5 L 5 1 L 9 5 L 5 9 z" fill="#475569" stroke="#475569" stroke-width="1.1"/></marker></defs><path d="M 919.0 387.5 L 943.0 387.5 Q 951.0 387.5 951.0 379.5 L 951.0 371.5 Q 951.0 363.5 959.0 363.5 L 983.0 363.5 L 1123.5 363.5 L 1248.0 363.5 L 1312.0 363.5 Q 1320.0 363.5 1320.0 371.5 L 1320.0 622.5 Q 1320.0 630.5 1328.0 630.5 L 1352.0 630.5 L 1858.0 630.5 L 2042.0 630.5 L 2230.5 630.5 L 2375.0 630.5 L 2435.0 630.5" fill="none" stroke="#475569" stroke-width="1.5" stroke-linecap="round" stroke-linejoin="round" marker-start="url(#marker-start-deploy-workflow-composes-app)"/><text x="2405.0" y="622.1" text-anchor="middle" fill="#334155" stroke="#ffffff" stroke-width="4" stroke-linejoin="round" paint-order="stroke">app</text></g><g data-dediren-edge-id="deploy-infra-realizes-bicep"><defs><marker id="marker-end-deploy-infra-realizes-bicep" data-dediren-edge-marker-end="hollow_triangle" markerWidth="10" markerHeight="10" refX="9" refY="5" orient="auto" markerUnits="strokeWidth"><path d="M 1 1 L 9 5 L 1 9 z" fill="#ffffff" stroke="#475569" stroke-width="1.2"/></marker></defs><path d="M 2252.5 485.5 L 2252.5 509.5 Q 2252.5 517.5 2260.5 517.5 L 2335.0 517.5 Q 2343.0 517.5 2343.0 509.5 L 2343.0 90.5 Q 2343.0 82.5 2351.0 82.5 L 2508.0 82.5 Q 2516.0 82.5 2516.0 90.5 L 2516.0 114.5" fill="none" stroke="#475569" stroke-width="1.5" stroke-linecap="round" stroke-linejoin="round" stroke-dasharray="8 5" marker-end="url(#marker-end-deploy-infra-realizes-bicep)"/><text x="2297.8" y="509.1" text-anchor="middle" fill="#334155" stroke="#ffffff" stroke-width="4" stroke-linejoin="round" paint-order="stroke">applies</text></g><g data-dediren-edge-id="deploy-build-realizes-functions-package"><defs><marker id="marker-end-deploy-build-realizes-functions-package" data-dediren-edge-marker-end="hollow_triangle" markerWidth="10" markerHeight="10" refX="9" refY="5" orient="auto" markerUnits="strokeWidth"><path d="M 1 1 L 9 5 L 1 9 z" fill="#ffffff" stroke="#475569" stroke-width="1.2"/></marker></defs><g data-dediren-line-jump-masks="deploy-build-realizes-functions-package"><path d="M 2337.0 372.5 Q 2343.0 366.5 2349.0 372.5" fill="none" stroke="#ffffff" stroke-width="5.5" stroke-linecap="round" stroke-linejoin="round"/></g><path d="M 2252.5 195.5 L 2252.5 364.5 Q 2252.5 372.5 2260.5 372.5 L 2337.0 372.5 Q 2343.0 366.5 2349.0 372.5 L 2516.0 372.5 L 2516.0 444.5" fill="none" stroke="#475569" stroke-width="1.5" stroke-linecap="round" stroke-linejoin="round" stroke-dasharray="8 5" marker-end="url(#marker-end-deploy-build-realizes-functions-package)"/><text x="2384.2" y="389.3" text-anchor="middle" fill="#334155" stroke="#ffffff" stroke-width="4" stroke-linejoin="round" paint-order="stroke">builds</text></g><g data-dediren-edge-id="deploy-build-realizes-spa-package"><defs><marker id="marker-end-deploy-build-realizes-spa-package" data-dediren-edge-marker-end="hollow_triangle" markerWidth="10" markerHeight="10" refX="9" refY="5" orient="auto" markerUnits="strokeWidth"><path d="M 1 1 L 9 5 L 1 9 z" fill="#ffffff" stroke="#475569" stroke-width="1.2"/></marker></defs><g data-dediren-line-jump-masks="deploy-build-realizes-spa-package"><path d="M 2246.5 227.5 Q 2252.5 221.5 2258.5 227.5" fill="none" stroke="#ffffff" stroke-width="5.5" stroke-linecap="round" stroke-linejoin="round"/><path d="M 2337.0 227.5 Q 2343.0 221.5 2349.0 227.5" fill="none" stroke="#ffffff" stroke-width="5.5" stroke-linecap="round" stroke-linejoin="round"/></g><path d="M 2209.5 195.5 L 2209.5 219.5 Q 2209.5 227.5 2217.5 227.5 L 2246.5 227.5 Q 2252.5 221.5 2258.5 227.5 L 2337.0 227.5 Q 2343.0 221.5 2349.0 227.5 L 2516.0 227.5 L 2516.0 259.5" fill="none" stroke="#475569" stroke-width="1.5" stroke-linecap="round" stroke-linejoin="round" stroke-dasharray="8 5" marker-end="url(#marker-end-deploy-build-realizes-spa-package)"/><text x="2406.8" y="244.3" text-anchor="middle" fill="#334155" stroke="#ffffff" stroke-width="4" stroke-linejoin="round" paint-order="stroke">builds</text></g><g data-dediren-edge-id="secret-scan-triggers-build"><defs><marker id="marker-end-secret-scan-triggers-build" data-dediren-edge-marker-end="filled_arrow" markerWidth="8" markerHeight="8" refX="8" refY="4" orient="auto" markerUnits="strokeWidth"><path d="M 0 0 L 8 4 L 0 8 z" fill="#b45309"/></marker></defs><g data-dediren-line-jump-masks="secret-scan-triggers-build"><path d="M 1826.0 90.0 Q 1832.0 84.0 1826.0 78.0" fill="none" stroke="#ffffff" stroke-width="5.5" stroke-linecap="round" stroke-linejoin="round"/></g><path d="M 1686.0 215.0 L 1794.0 215.0 L 1818.0 215.0 Q 1826.0 215.0 1826.0 207.0 L 1826.0 90.0 Q 1832.0 84.0 1826.0 78.0 L 1826.0 48.0 L 1962.0 48.0 Q 1970.0 48.0 1970.0 56.0 L 1970.0 155.0 Q 1970.0 163.0 1978.0 163.0 L 2042.0 163.0 L 2150.0 163.0" fill="none" stroke="#b45309" stroke-width="1.5" stroke-linecap="round" stroke-linejoin="round" marker-end="url(#marker-end-secret-scan-triggers-build)"/><text x="1740.0" y="206.6" text-anchor="middle" fill="#92400e" stroke="#ffffff" stroke-width="4" stroke-linejoin="round" paint-order="stroke">gate</text></g><g data-dediren-edge-id="secret-scan-triggers-infra-deploy"><defs><marker id="marker-end-secret-scan-triggers-infra-deploy" data-dediren-edge-marker-end="filled_arrow" markerWidth="8" markerHeight="8" refX="8" refY="4" orient="auto" markerUnits="strokeWidth"><path d="M 0 0 L 8 4 L 0 8 z" fill="#b45309"/></marker></defs><path d="M 1686.0 232.0 L 1710.5 232.0 Q 1718.0 232.0 1718.0 239.5 L 1718.0 243.2 Q 1718.0 247.0 1721.8 247.0 L 1794.0 247.0 L 1882.0 247.0 Q 1890.0 247.0 1890.0 255.0 L 1890.0 436.5 Q 1890.0 444.5 1898.0 444.5 L 2042.0 444.5 L 2150.0 444.5" fill="none" stroke="#b45309" stroke-width="1.5" stroke-linecap="round" stroke-linejoin="round" marker-end="url(#marker-end-secret-scan-triggers-infra-deploy)"/><text x="1702.0" y="248.8" text-anchor="middle" fill="#92400e" stroke="#ffffff" stroke-width="4" stroke-linejoin="round" paint-order="stroke">gate</text></g><g data-dediren-edge-id="infrastructure-analysis-triggers-infra-deploy"><defs><marker id="marker-end-infrastructure-analysis-triggers-infra-deploy" data-dediren-edge-marker-end="filled_arrow" markerWidth="8" markerHeight="8" refX="8" refY="4" orient="auto" markerUnits="strokeWidth"><path d="M 0 0 L 8 4 L 0 8 z" fill="#b45309"/></marker></defs><path d="M 1686.0 363.5 L 1794.0 363.5 L 1818.0 363.5 Q 1826.0 363.5 1826.0 371.5 L 1826.0 468.5 Q 1826.0 476.5 1834.0 476.5 L 2042.0 476.5 L 2110.0 476.5 Q 2118.0 476.5 2118.0 468.5 L 2118.0 462.9 Q 2118.0 457.2 2123.6 457.2 L 2150.0 457.2" fill="none" stroke="#b45309" stroke-width="1.5" stroke-linecap="round" stroke-linejoin="round" marker-end="url(#marker-end-infrastructure-analysis-triggers-infra-deploy)"/><text x="1740.0" y="355.1" text-anchor="middle" fill="#92400e" stroke="#ffffff" stroke-width="4" stroke-linejoin="round" paint-order="stroke">gate</text></g><g data-dediren-edge-id="deploy-infra-triggers-app-deploy"><defs><marker id="marker-end-deploy-infra-triggers-app-deploy" data-dediren-edge-marker-end="filled_arrow" markerWidth="8" markerHeight="8" refX="8" refY="4" orient="auto" markerUnits="strokeWidth"><path d="M 0 0 L 8 4 L 0 8 z" fill="#b45309"/></marker></defs><path d="M 2209.5 485.5 L 2209.5 549.5 Q 2209.5 557.5 2217.5 557.5 L 2508.0 557.5 Q 2516.0 557.5 2516.0 565.5 L 2516.0 589.5" fill="none" stroke="#b45309" stroke-width="1.5" stroke-linecap="round" stroke-linejoin="round" marker-end="url(#marker-end-deploy-infra-triggers-app-deploy)"/><text x="2362.8" y="574.3" text-anchor="middle" fill="#92400e" stroke="#ffffff" stroke-width="4" stroke-linejoin="round" paint-order="stroke">before app</text></g><g data-dediren-edge-id="deploy-app-realizes-production"><defs><marker id="marker-end-deploy-app-realizes-production" data-dediren-edge-marker-end="hollow_triangle" markerWidth="10" markerHeight="10" refX="9" refY="5" orient="auto" markerUnits="strokeWidth"><path d="M 1 1 L 9 5 L 1 9 z" fill="#ffffff" stroke="#475569" stroke-width="1.2"/></marker></defs><path d="M 2597.0 630.5 L 2705.0 630.5 L 2729.0 630.5 Q 2737.0 630.5 2737.0 638.5 L 2737.0 682.5 Q 2737.0 690.5 2745.0 690.5 L 2799.0 690.5 Q 2801.0 690.5 2801.0 692.5 L 2801.0 693.5 Q 2801.0 694.5 2802.0 694.5 L 2873.0 694.5 L 2981.0 694.5" fill="none" stroke="#475569" stroke-width="1.5" stroke-linecap="round" stroke-linejoin="round" stroke-dasharray="8 5" marker-end="url(#marker-end-deploy-app-realizes-production)"/><text x="2651.0" y="622.1" text-anchor="middle" fill="#334155" stroke="#ffffff" stroke-width="4" stroke-linejoin="round" paint-order="stroke">updates</text></g><g data-dediren-edge-id="release-gap-realized-by-deploy"><g data-dediren-line-jump-masks="release-gap-realized-by-deploy"><path d="M 1314.0 527.5 Q 1320.0 521.5 1326.0 527.5" fill="none" stroke="#ffffff" stroke-width="5.5" stroke-linecap="round" stroke-linejoin="round"/></g><path d="M 919.0 404.5 L 983.0 404.5 L 1123.5 404.5 L 1248.0 404.5 L 1272.0 404.5 Q 1280.0 404.5 1280.0 412.5 L 1280.0 519.5 Q 1280.0 527.5 1288.0 527.5 L 1314.0 527.5 Q 1320.0 521.5 1326.0 527.5 L 1435.0 527.5" fill="none" stroke="#64748b" stroke-width="1.5" stroke-linecap="round" stroke-linejoin="round"/><text x="995.0" y="396.1" text-anchor="middle" fill="#374151" stroke="#ffffff" stroke-width="4" stroke-linejoin="round" paint-order="stroke">closes</text></g><g data-dediren-edge-id="deploy-workflow-triggers-event"><defs><marker id="marker-end-deploy-workflow-triggers-event" data-dediren-edge-marker-end="filled_arrow" markerWidth="8" markerHeight="8" refX="8" refY="4" orient="auto" markerUnits="strokeWidth"><path d="M 0 0 L 8 4 L 0 8 z" fill="#b45309"/></marker></defs><path d="M 816.5 437.0 L 816.5 606.0 Q 816.5 614.0 824.5 614.0 L 1115.0 614.0 Q 1123.0 614.0 1123.0 622.0 L 1123.0 646.0" fill="none" stroke="#b45309" stroke-width="1.5" stroke-linecap="round" stroke-linejoin="round" marker-end="url(#marker-end-deploy-workflow-triggers-event)"/><text x="969.8" y="630.8" text-anchor="middle" fill="#92400e" stroke="#ffffff" stroke-width="4" stroke-linejoin="round" paint-order="stroke">deploys</text></g><g data-dediren-edge-id="deploy-event-realizes-production"><path d="M 1204.0 687.0 L 1248.0 687.0 L 1272.0 687.0 Q 1280.0 687.0 1280.0 695.0 L 1280.0 718.5 Q 1280.0 726.5 1288.0 726.5 L 1352.0 726.5 L 1605.0 726.5 L 2373.5 726.5 L 2769.0 726.5 L 2873.0 726.5 L 2941.5 726.5 Q 2949.0 726.5 2949.0 719.0 L 2949.0 715.2 Q 2949.0 711.5 2952.8 711.5 L 2981.0 711.5" fill="none" stroke="#64748b" stroke-width="1.5" stroke-linecap="round" stroke-linejoin="round"/><text x="1274.4" y="678.6" text-anchor="middle" fill="#374151" stroke="#ffffff" stroke-width="4" stroke-linejoin="round" paint-order="stroke">reaches</text></g><g data-dediren-edge-id="bicep-deploys-static-web-apps"><defs><marker id="marker-end-bicep-deploys-static-web-apps" data-dediren-edge-marker-end="hollow_triangle" markerWidth="10" markerHeight="10" refX="9" refY="5" orient="auto" markerUnits="strokeWidth"><path d="M 1 1 L 9 5 L 1 9 z" fill="#ffffff" stroke="#475569" stroke-width="1.2"/></marker></defs><path d="M 2597.0 147.0 L 2621.5 147.0 Q 2629.0 147.0 2629.0 139.5 L 2629.0 135.8 Q 2629.0 132.0 2632.8 132.0 L 2705.0 132.0 L 2731.5 132.0 Q 2737.0 132.0 2737.0 137.5 L 2737.0 140.2 Q 2737.0 143.0 2739.8 143.0 L 2873.0 143.0 L 2981.0 143.0" fill="none" stroke="#475569" stroke-width="1.5" stroke-linecap="round" stroke-linejoin="round" stroke-dasharray="8 5" marker-end="url(#marker-end-bicep-deploys-static-web-apps)"/><text x="2674.4" y="138.6" text-anchor="middle" fill="#334155" stroke="#ffffff" stroke-width="4" stroke-linejoin="round" paint-order="stroke">provisions</text></g><g data-dediren-edge-id="bicep-deploys-function-app"><defs><marker id="marker-end-bicep-deploys-function-app" data-dediren-edge-marker-end="hollow_triangle" markerWidth="10" markerHeight="10" refX="9" refY="5" orient="auto" markerUnits="strokeWidth"><path d="M 1 1 L 9 5 L 1 9 z" fill="#ffffff" stroke="#475569" stroke-width="1.2"/></marker></defs><path d="M 2597.0 164.0 L 2705.0 164.0 L 2729.0 164.0 Q 2737.0 164.0 2737.0 172.0 L 2737.0 248.5 Q 2737.0 256.5 2745.0 256.5 L 2833.0 256.5 Q 2841.0 256.5 2841.0 264.5 L 2841.0 275.0 Q 2841.0 283.0 2849.0 283.0 L 2873.0 283.0 L 2981.0 283.0" fill="none" stroke="#475569" stroke-width="1.5" stroke-linecap="round" stroke-linejoin="round" stroke-dasharray="8 5" marker-end="url(#marker-end-bicep-deploys-function-app)"/><text x="2651.0" y="173.6" text-anchor="middle" fill="#334155" stroke="#ffffff" stroke-width="4" stroke-linejoin="round" paint-order="stroke">provisions</text></g><g data-dediren-edge-id="function-package-deploys-api"><defs><marker id="marker-end-function-package-deploys-api" data-dediren-edge-marker-end="hollow_triangle" markerWidth="10" markerHeight="10" refX="9" refY="5" orient="auto" markerUnits="strokeWidth"><path d="M 1 1 L 9 5 L 1 9 z" fill="#ffffff" stroke="#475569" stroke-width="1.2"/></marker></defs><path d="M 2597.0 485.5 L 2705.0 485.5 L 2729.0 485.5 Q 2737.0 485.5 2737.0 493.5 L 2737.0 555.0 Q 2737.0 563.0 2745.0 563.0 L 2873.0 563.0 L 2981.0 563.0" fill="none" stroke="#475569" stroke-width="1.5" stroke-linecap="round" stroke-linejoin="round" stroke-dasharray="8 5" marker-end="url(#marker-end-function-package-deploys-api)"/><text x="2651.0" y="477.1" text-anchor="middle" fill="#334155" stroke="#ffffff" stroke-width="4" stroke-linejoin="round" paint-order="stroke">deploys</text></g><g data-dediren-edge-id="spa-package-deploys-app"><defs><marker id="marker-end-spa-package-deploys-app" data-dediren-edge-marker-end="hollow_triangle" markerWidth="10" markerHeight="10" refX="9" refY="5" orient="auto" markerUnits="strokeWidth"><path d="M 1 1 L 9 5 L 1 9 z" fill="#ffffff" stroke="#475569" stroke-width="1.2"/></marker></defs><path d="M 2597.0 300.5 L 2705.0 300.5 L 2793.0 300.5 Q 2801.0 300.5 2801.0 308.5 L 2801.0 415.0 Q 2801.0 423.0 2809.0 423.0 L 2873.0 423.0 L 2981.0 423.0" fill="none" stroke="#475569" stroke-width="1.5" stroke-linecap="round" stroke-linejoin="round" stroke-dasharray="8 5" marker-end="url(#marker-end-spa-package-deploys-app)"/><text x="2651.0" y="292.1" text-anchor="middle" fill="#334155" stroke="#ffffff" stroke-width="4" stroke-linejoin="round" paint-order="stroke">deploys</text></g><g data-dediren-node-id="pre-commit-secret-guard"><rect data-dediren-node-shape="archimate_rounded_rectangle" x="36.0" y="128.5" width="160.0" height="80.0" rx="4.0" fill="#ffedd5" stroke="#ea580c" stroke-width="1.5"/><g data-dediren-node-decorator="archimate_work_package" data-dediren-icon-kind="work_package" data-dediren-icon-size="22"><path data-dediren-icon-part="work-package-loop-arrow" d="M 177.7 142.3 A 5.7 5.7 0 1 0 176.8 146.7 L 183.8 146.7 M 183.8 146.7 L 181.2 144.5 M 183.8 146.7 L 181.2 148.9" fill="none" stroke="#ea580c" stroke-width="1.5" stroke-linecap="round" stroke-linejoin="round"/></g><text x="116.0" y="160.4" text-anchor="middle" dominant-baseline="middle" fill="#7c2d12" font-size="14.0"><tspan x="116.0" dy="0">Pre-commit</tspan><tspan x="116.0" dy="16.0">secret guard</tspan></text></g><g data-dediren-node-id="pre-push-verification-gate"><rect data-dediren-node-shape="archimate_rounded_rectangle" x="36.0" y="268.5" width="160.0" height="80.0" rx="4.0" fill="#ffedd5" stroke="#ea580c" stroke-width="1.5"/><g data-dediren-node-decorator="archimate_work_package" data-dediren-icon-kind="work_package" data-dediren-icon-size="22"><path data-dediren-icon-part="work-package-loop-arrow" d="M 177.7 282.3 A 5.7 5.7 0 1 0 176.8 286.7 L 183.8 286.7 M 183.8 286.7 L 181.2 284.5 M 183.8 286.7 L 181.2 288.9" fill="none" stroke="#ea580c" stroke-width="1.5" stroke-linecap="round" stroke-linejoin="round"/></g><text x="116.0" y="292.4" text-anchor="middle" dominant-baseline="middle" fill="#7c2d12" font-size="14.0"><tspan x="116.0" dy="0">Pre-push</tspan><tspan x="116.0" dy="16.0">verification</tspan><tspan x="116.0" dy="16.0">gate</tspan></text></g><g data-dediren-node-id="repository-baseline"><rect data-dediren-node-shape="archimate_rectangle" x="478.0" y="210.0" width="160.0" height="80.0" rx="0" fill="#fef9c3" stroke="#ca8a04" stroke-width="1.5"/><g data-dediren-node-decorator="archimate_plateau" data-dediren-icon-kind="plateau" data-dediren-icon-size="22"><path d="M 615.7 223.0 L 629.4 223.0 M 612.6 226.9 L 626.3 226.9 M 610.0 230.9 L 623.6 230.9" fill="none" stroke="#ca8a04" stroke-width="1.5" stroke-linecap="square"/></g><text x="558.0" y="241.9" text-anchor="middle" dominant-baseline="middle" fill="#713f12" font-size="14.0"><tspan x="558.0" dy="0">Repository</tspan><tspan x="558.0" dy="16.0">baseline</tspan></text></g><g data-dediren-node-id="production-plateau"><rect data-dediren-node-shape="archimate_rectangle" x="2982.0" y="663.0" width="160.0" height="80.0" rx="0" fill="#fef9c3" stroke="#ca8a04" stroke-width="1.5"/><g data-dediren-node-decorator="archimate_plateau" data-dediren-icon-kind="plateau" data-dediren-icon-size="22"><path d="M 3119.7 676.0 L 3133.4 676.0 M 3116.6 679.9 L 3130.3 679.9 M 3114.0 683.9 L 3127.6 683.9" fill="none" stroke="#ca8a04" stroke-width="1.5" stroke-linecap="square"/></g><text x="3062.0" y="695.0" text-anchor="middle" dominant-baseline="middle" fill="#713f12" font-size="14.0"><tspan x="3062.0" dy="0">Production</tspan><tspan x="3062.0" dy="16.0">plateau</tspan></text></g><g data-dediren-node-id="release-to-production-gap"><rect data-dediren-node-shape="archimate_rectangle" x="1436.0" y="487.5" width="160.0" height="80.0" rx="0" fill="#fef3c7" stroke="#d97706" stroke-width="1.5"/><g data-dediren-node-decorator="archimate_gap" data-dediren-icon-kind="gap" data-dediren-icon-size="22"><ellipse cx="1579.4" cy="504.0" rx="4.8" ry="4.8" fill="none" stroke="#d97706" stroke-width="1.5"/><path data-dediren-icon-part="gap-lines" d="M 1570.2 502.2 L 1588.7 502.2 M 1570.2 505.7 L 1588.7 505.7" fill="none" stroke="#d97706" stroke-width="1.5" stroke-linecap="round"/></g><text x="1516.0" y="519.5" text-anchor="middle" dominant-baseline="middle" fill="#78350f" font-size="14.0"><tspan x="1516.0" dy="0">Release to</tspan><tspan x="1516.0" dy="16.0">production gap</tspan></text></g><g data-dediren-node-id="deploy-to-production-event"><rect data-dediren-node-shape="archimate_rounded_rectangle" x="1043.0" y="647.0" width="160.0" height="80.0" rx="4.0" fill="#ffedd5" stroke="#ea580c" stroke-width="1.5"/><g data-dediren-node-decorator="archimate_implementation_event" data-dediren-icon-kind="event" data-dediren-icon-size="22"><path data-dediren-icon-part="event-pill" d="M 1179.0 656.9 L 1191.3 656.9 C 1195.7 656.9, 1197.0 660.4, 1197.0 663.9 C 1197.0 667.4, 1195.7 671.0, 1191.3 671.0 L 1179.0 671.0 L 1182.5 663.9 L 1179.0 656.9 Z" fill="#ffedd5" stroke="#ea580c" stroke-width="1.5"/></g><text x="1123.0" y="679.0" text-anchor="middle" dominant-baseline="middle" fill="#7c2d12" font-size="14.0"><tspan x="1123.0" dy="0">Deploy to</tspan><tspan x="1123.0" dy="16.0">production</tspan></text></g><g data-dediren-node-id="deploy-workflow"><rect data-dediren-node-shape="archimate_rounded_rectangle" x="758.0" y="356.0" width="160.0" height="80.0" rx="4.0" fill="#ffedd5" stroke="#ea580c" stroke-width="1.5"/><g data-dediren-node-decorator="archimate_work_package" data-dediren-icon-kind="work_package" data-dediren-icon-size="22"><path data-dediren-icon-part="work-package-loop-arrow" d="M 899.7 369.8 A 5.7 5.7 0 1 0 898.8 374.2 L 905.8 374.2 M 905.8 374.2 L 903.2 372.0 M 905.8 374.2 L 903.2 376.4" fill="none" stroke="#ea580c" stroke-width="1.5" stroke-linecap="round" stroke-linejoin="round"/></g><text x="838.0" y="396.0" text-anchor="middle" dominant-baseline="middle" fill="#7c2d12" font-size="14.0">Deploy workflow</text></g><g data-dediren-node-id="deploy-change-detection"><rect data-dediren-node-shape="archimate_rounded_rectangle" x="1043.5" y="502.0" width="160.0" height="80.0" rx="4.0" fill="#ffedd5" stroke="#ea580c" stroke-width="1.5"/><g data-dediren-node-decorator="archimate_work_package" data-dediren-icon-kind="work_package" data-dediren-icon-size="22"><path data-dediren-icon-part="work-package-loop-arrow" d="M 1185.2 515.8 A 5.7 5.7 0 1 0 1184.3 520.2 L 1191.3 520.2 M 1191.3 520.2 L 1188.7 518.0 M 1191.3 520.2 L 1188.7 522.4" fill="none" stroke="#ea580c" stroke-width="1.5" stroke-linecap="round" stroke-linejoin="round"/></g><text x="1123.5" y="534.0" text-anchor="middle" dominant-baseline="middle" fill="#7c2d12" font-size="14.0"><tspan x="1123.5" dy="0">Detect deploy</tspan><tspan x="1123.5" dy="16.0">changes</tspan></text></g><g data-dediren-node-id="secret-scan-workflow"><rect data-dediren-node-shape="archimate_rounded_rectangle" x="1525.0" y="183.5" width="160.0" height="80.0" rx="4.0" fill="#ffedd5" stroke="#ea580c" stroke-width="1.5"/><g data-dediren-node-decorator="archimate_work_package" data-dediren-icon-kind="work_package" data-dediren-icon-size="22"><path data-dediren-icon-part="work-package-loop-arrow" d="M 1666.7 197.3 A 5.7 5.7 0 1 0 1665.8 201.7 L 1672.8 201.7 M 1672.8 201.7 L 1670.2 199.5 M 1672.8 201.7 L 1670.2 203.9" fill="none" stroke="#ea580c" stroke-width="1.5" stroke-linecap="round" stroke-linejoin="round"/></g><text x="1605.0" y="223.5" text-anchor="middle" dominant-baseline="middle" fill="#7c2d12" font-size="14.0">Secret Scanning</text></g><g data-dediren-node-id="infrastructure-analysis-workflow"><rect data-dediren-node-shape="archimate_rounded_rectangle" x="1525.0" y="323.5" width="160.0" height="80.0" rx="4.0" fill="#ffedd5" stroke="#ea580c" stroke-width="1.5"/><g data-dediren-node-decorator="archimate_work_package" data-dediren-icon-kind="work_package" data-dediren-icon-size="22"><path data-dediren-icon-part="work-package-loop-arrow" d="M 1666.7 337.3 A 5.7 5.7 0 1 0 1665.8 341.7 L 1672.8 341.7 M 1672.8 341.7 L 1670.2 339.5 M 1672.8 341.7 L 1670.2 343.9" fill="none" stroke="#ea580c" stroke-width="1.5" stroke-linecap="round" stroke-linejoin="round"/></g><text x="1605.0" y="355.4" text-anchor="middle" dominant-baseline="middle" fill="#7c2d12" font-size="14.0"><tspan x="1605.0" dy="0">Analyze</tspan><tspan x="1605.0" dy="16.0">Infrastructure</tspan></text></g><g data-dediren-node-id="deploy-infra-workflow"><rect data-dediren-node-shape="archimate_rounded_rectangle" x="2151.0" y="404.5" width="160.0" height="80.0" rx="4.0" fill="#ffedd5" stroke="#ea580c" stroke-width="1.5"/><g data-dediren-node-decorator="archimate_work_package" data-dediren-icon-kind="work_package" data-dediren-icon-size="22"><path data-dediren-icon-part="work-package-loop-arrow" d="M 2292.7 418.3 A 5.7 5.7 0 1 0 2291.8 422.7 L 2298.8 422.7 M 2298.8 422.7 L 2296.2 420.5 M 2298.8 422.7 L 2296.2 424.9" fill="none" stroke="#ea580c" stroke-width="1.5" stroke-linecap="round" stroke-linejoin="round"/></g><text x="2231.0" y="436.4" text-anchor="middle" dominant-baseline="middle" fill="#7c2d12" font-size="14.0"><tspan x="2231.0" dy="0">Deploy</tspan><tspan x="2231.0" dy="16.0">Infrastructure</tspan></text></g><g data-dediren-node-id="deploy-app-build-workflow"><rect data-dediren-node-shape="archimate_rounded_rectangle" x="2151.0" y="114.5" width="160.0" height="80.0" rx="4.0" fill="#ffedd5" stroke="#ea580c" stroke-width="1.5"/><g data-dediren-node-decorator="archimate_work_package" data-dediren-icon-kind="work_package" data-dediren-icon-size="22"><path data-dediren-icon-part="work-package-loop-arrow" d="M 2292.7 128.3 A 5.7 5.7 0 1 0 2291.8 132.7 L 2298.8 132.7 M 2298.8 132.7 L 2296.2 130.5 M 2298.8 132.7 L 2296.2 134.9" fill="none" stroke="#ea580c" stroke-width="1.5" stroke-linecap="round" stroke-linejoin="round"/></g><text x="2231.0" y="146.4" text-anchor="middle" dominant-baseline="middle" fill="#7c2d12" font-size="14.0"><tspan x="2231.0" dy="0">Deploy App -</tspan><tspan x="2231.0" dy="16.0">Build</tspan></text></g><g data-dediren-node-id="deploy-app-workflow"><rect data-dediren-node-shape="archimate_rounded_rectangle" x="2436.0" y="590.5" width="160.0" height="80.0" rx="4.0" fill="#ffedd5" stroke="#ea580c" stroke-width="1.5"/><g data-dediren-node-decorator="archimate_work_package" data-dediren-icon-kind="work_package" data-dediren-icon-size="22"><path data-dediren-icon-part="work-package-loop-arrow" d="M 2577.7 604.3 A 5.7 5.7 0 1 0 2576.8 608.7 L 2583.8 608.7 M 2583.8 608.7 L 2581.2 606.5 M 2583.8 608.7 L 2581.2 610.9" fill="none" stroke="#ea580c" stroke-width="1.5" stroke-linecap="round" stroke-linejoin="round"/></g><text x="2516.0" y="630.5" text-anchor="middle" dominant-baseline="middle" fill="#7c2d12" font-size="14.0">Deploy App</text></g><g data-dediren-node-id="bicep-template"><rect data-dediren-node-shape="archimate_rectangle" x="2436.0" y="115.5" width="160.0" height="80.0" rx="0" fill="#fef3c7" stroke="#d97706" stroke-width="1.5"/><g data-dediren-node-decorator="archimate_deliverable" data-dediren-icon-kind="deliverable" data-dediren-icon-size="22"><path data-dediren-icon-part="wavy-document" d="M 2568.0 124.5 L 2590.0 124.5 L 2590.0 137.3 C 2586.0 135.5, 2582.5 135.5, 2579.0 137.3 C 2575.5 139.0, 2572.0 139.0, 2568.0 137.3 L 2568.0 124.5 Z" fill="#fef3c7" stroke="#d97706" stroke-width="1.5" stroke-linejoin="round"/></g><text x="2516.0" y="155.5" text-anchor="middle" dominant-baseline="middle" fill="#78350f" font-size="14.0">Bicep deployment</text></g><g data-dediren-node-id="function-app-package"><rect data-dediren-node-shape="archimate_rectangle" x="2436.0" y="445.5" width="160.0" height="80.0" rx="0" fill="#fef3c7" stroke="#d97706" stroke-width="1.5"/><g data-dediren-node-decorator="archimate_deliverable" data-dediren-icon-kind="deliverable" data-dediren-icon-size="22"><path data-dediren-icon-part="wavy-document" d="M 2568.0 454.5 L 2590.0 454.5 L 2590.0 467.3 C 2586.0 465.5, 2582.5 465.5, 2579.0 467.3 C 2575.5 469.0, 2572.0 469.0, 2568.0 467.3 L 2568.0 454.5 Z" fill="#fef3c7" stroke="#d97706" stroke-width="1.5" stroke-linejoin="round"/></g><text x="2516.0" y="485.5" text-anchor="middle" dominant-baseline="middle" fill="#78350f" font-size="14.0">Functions zip</text></g><g data-dediren-node-id="spa-wwwroot-package"><rect data-dediren-node-shape="archimate_rectangle" x="2436.0" y="260.5" width="160.0" height="80.0" rx="0" fill="#fef3c7" stroke="#d97706" stroke-width="1.5"/><g data-dediren-node-decorator="archimate_deliverable" data-dediren-icon-kind="deliverable" data-dediren-icon-size="22"><path data-dediren-icon-part="wavy-document" d="M 2568.0 269.5 L 2590.0 269.5 L 2590.0 282.3 C 2586.0 280.5, 2582.5 280.5, 2579.0 282.3 C 2575.5 284.0, 2572.0 284.0, 2568.0 282.3 L 2568.0 269.5 Z" fill="#fef3c7" stroke="#d97706" stroke-width="1.5" stroke-linejoin="round"/></g><text x="2516.0" y="292.4" text-anchor="middle" dominant-baseline="middle" fill="#78350f" font-size="14.0"><tspan x="2516.0" dy="0">SPA wwwroot</tspan><tspan x="2516.0" dy="16.0">bundle</tspan></text></g><g data-dediren-node-id="static-web-apps"><rect data-dediren-node-shape="archimate_rectangle" x="2982.0" y="103.0" width="160.0" height="80.0" rx="0" fill="#ecfdf3" stroke="#16a34a" stroke-width="1.5"/><g data-dediren-node-decorator="archimate_technology_node" data-dediren-icon-kind="node" data-dediren-icon-size="22"><rect x="3114.0" y="116.0" width="18.0" height="12.8" rx="1.5" fill="#ecfdf3" stroke="#16a34a" stroke-width="1.5"/><path data-dediren-icon-part="node-3d-edges" d="M 3114.0 116.0 L 3118.0 112.0 L 3136.0 112.0 L 3132.0 116.0 M 3132.0 116.0 L 3136.0 112.0 M 3132.0 128.7 L 3136.0 124.8 M 3136.0 112.0 L 3136.0 124.8" fill="none" stroke="#16a34a" stroke-width="1.5" stroke-linejoin="round"/></g><text x="3062.0" y="134.9" text-anchor="middle" dominant-baseline="middle" fill="#14532d" font-size="14.0"><tspan x="3062.0" dy="0">Azure Static Web</tspan><tspan x="3062.0" dy="16.0">Apps</tspan></text></g><g data-dediren-node-id="function-app"><rect data-dediren-node-shape="archimate_rectangle" x="2982.0" y="243.0" width="160.0" height="80.0" rx="0" fill="#ecfdf3" stroke="#16a34a" stroke-width="1.5"/><g data-dediren-node-decorator="archimate_technology_node" data-dediren-icon-kind="node" data-dediren-icon-size="22"><rect x="3114.0" y="256.0" width="18.0" height="12.8" rx="1.5" fill="#ecfdf3" stroke="#16a34a" stroke-width="1.5"/><path data-dediren-icon-part="node-3d-edges" d="M 3114.0 256.0 L 3118.0 252.0 L 3136.0 252.0 L 3132.0 256.0 M 3132.0 256.0 L 3136.0 252.0 M 3132.0 268.7 L 3136.0 264.8 M 3136.0 252.0 L 3136.0 264.8" fill="none" stroke="#16a34a" stroke-width="1.5" stroke-linejoin="round"/></g><text x="3062.0" y="274.9" text-anchor="middle" dominant-baseline="middle" fill="#14532d" font-size="14.0"><tspan x="3062.0" dy="0">Azure Function</tspan><tspan x="3062.0" dy="16.0">App</tspan></text></g><g data-dediren-node-id="lfm-app"><rect data-dediren-node-shape="archimate_rectangle" x="2982.0" y="383.0" width="160.0" height="80.0" rx="0" fill="#e8f3ff" stroke="#2563eb" stroke-width="1.5"/><g data-dediren-node-decorator="archimate_application_component" data-dediren-icon-kind="component" data-dediren-icon-size="22"><rect x="3118.0" y="392.0" width="18.0" height="15.8" rx="1.5" fill="#e8f3ff" stroke="#2563eb" stroke-width="1.5"/><rect x="3114.0" y="394.6" width="7.9" height="5.7" rx="1.2" fill="#e8f3ff" stroke="#2563eb" stroke-width="1.5"/><rect x="3114.0" y="401.7" width="7.9" height="5.7" rx="1.2" fill="#e8f3ff" stroke="#2563eb" stroke-width="1.5"/></g><text x="3062.0" y="423.0" text-anchor="middle" dominant-baseline="middle" fill="#172554" font-size="14.0">Lfm.App</text></g><g data-dediren-node-id="lfm-api"><rect data-dediren-node-shape="archimate_rectangle" x="2982.0" y="523.0" width="160.0" height="80.0" rx="0" fill="#e8f3ff" stroke="#2563eb" stroke-width="1.5"/><g data-dediren-node-decorator="archimate_application_component" data-dediren-icon-kind="component" data-dediren-icon-size="22"><rect x="3118.0" y="532.0" width="18.0" height="15.8" rx="1.5" fill="#e8f3ff" stroke="#2563eb" stroke-width="1.5"/><rect x="3114.0" y="534.6" width="7.9" height="5.7" rx="1.2" fill="#e8f3ff" stroke="#2563eb" stroke-width="1.5"/><rect x="3114.0" y="541.7" width="7.9" height="5.7" rx="1.2" fill="#e8f3ff" stroke="#2563eb" stroke-width="1.5"/></g><text x="3062.0" y="563.0" text-anchor="middle" dominant-baseline="middle" fill="#172554" font-size="14.0">Lfm.Api</text></g></g></svg>
