<svg xmlns="http://www.w3.org/2000/svg" role="img" width="5178" height="1478" viewBox="-20 -52 5178 1510" data-arch-a11y="root" data-arch-a11y-viewbox="-20.0 -20.0 5178.0 1478.0"><title>LFM - Production Release Migration</title>
<desc>Which work packages and plateaus move LFM from repository baseline to production?</desc>
<text data-arch-a11y="visible-title" x="-12" y="-32" font-family="sans-serif" font-size="16" font-weight="bold">LFM - Production Release Migration</text><rect x="-20.0" y="-20.0" width="5178.0" height="1478.0" fill="#ffffff"/><g font-family="Inter, &quot;Liberation Sans&quot;, &quot;Noto Sans&quot;, Arial, &quot;Helvetica Neue&quot;, &quot;Segoe UI&quot;, sans-serif" font-size="14"><g data-dediren-group-id="production-release-local-gates"><rect x="12.0" y="310.5" width="389.0" height="356.0" rx="8" fill="#f8fafc" stroke="#94a3b8" stroke-width="1"/><text x="20.0" y="326.5" fill="#334155" font-size="12">Local repository gates</text></g><g data-dediren-group-id="production-release-orchestration"><rect x="721.0" y="477.5" width="1299.0" height="948.5" rx="8" fill="#f8fafc" stroke="#94a3b8" stroke-width="1"/><text x="729.0" y="493.5" fill="#334155" font-size="12">Deploy orchestration</text></g><g data-dediren-group-id="production-release-quality-gates"><rect x="2532.0" y="347.6" width="528.0" height="336.0" rx="8" fill="#f8fafc" stroke="#94a3b8" stroke-width="1"/><text x="2540.0" y="363.6" fill="#334155" font-size="12">Deployment quality gates</text></g><g data-dediren-group-id="production-release-build-and-deploy"><rect x="3476.0" y="12.0" width="913.0" height="1061.0" rx="8" fill="#f8fafc" stroke="#94a3b8" stroke-width="1"/><text x="3484.0" y="28.0" fill="#334155" font-size="12">Build and deploy stages</text></g><g data-dediren-group-id="production-release-deployed-runtime"><rect x="4757.0" y="176.0" width="369.0" height="879.5" rx="8" fill="#f8fafc" stroke="#94a3b8" stroke-width="1"/><text x="4765.0" y="192.0" fill="#334155" font-size="12">Production runtime</text></g><g data-dediren-edge-id="pre-commit-guards-repository"><path d="M 233.0 385.3 L 289.0 385.3 Q 297.0 385.3 297.0 393.3 L 297.0 445.7 Q 297.0 453.7 305.0 453.7 L 433.0 453.7 L 617.0 453.7 Q 625.0 453.7 625.0 461.7 L 625.0 525.5 Q 625.0 533.5 633.0 533.5 L 689.0 533.5 L 817.0 533.5 Q 825.0 533.5 825.0 541.5 L 825.0 556.5 Q 825.0 564.5 833.0 564.5 L 889.0 564.5" fill="none" stroke="#475569" stroke-width="1.25" stroke-linecap="round" stroke-linejoin="round"/><text x="619.0" y="493.6" text-anchor="end" fill="none" font-size="15.4" font-weight="600" stroke="#ffffff" stroke-width="2">blocks secret staging</text><text x="619.0" y="493.6" text-anchor="end" fill="#374151" font-size="15.4" font-weight="600">blocks secret staging</text></g><g data-dediren-edge-id="pre-commit-complements-secret-scan"><g data-dediren-line-jump-masks="pre-commit-complements-secret-scan"><path d="M 291.0 405.7 Q 297.0 399.7 303.0 405.7" fill="none" stroke="#f8fafc" stroke-width="6"/></g><path d="M 233.0 405.7 L 291.0 405.7 Q 297.0 399.7 303.0 405.7 L 433.0 405.7 L 489.0 405.7 Q 497.0 405.7 497.0 397.7 L 497.0 388.5 Q 497.0 380.5 505.0 380.5 L 561.0 380.5 L 2372.0 380.5 L 2428.0 380.5 Q 2436.0 380.5 2436.0 388.5 L 2436.0 411.1 Q 2436.0 419.1 2444.0 419.1 L 2500.0 419.1 L 2715.0 419.1" fill="none" stroke="#475569" stroke-width="1.25" stroke-linecap="round" stroke-linejoin="round"/><text x="503.0" y="393.1" text-anchor="start" fill="none" font-size="15.4" font-weight="600" stroke="#ffffff" stroke-width="2">local + CI secret controls</text><text x="503.0" y="393.1" text-anchor="start" fill="#374151" font-size="15.4" font-weight="600">local + CI secret controls</text></g><g data-dediren-edge-id="pre-push-guards-repository"><path d="M 233.0 581.5 L 433.0 581.5 L 689.0 581.5 L 889.0 581.5" fill="none" stroke="#475569" stroke-width="1.25" stroke-linecap="round" stroke-linejoin="round"/><text x="251.0" y="655.5" text-anchor="middle" fill="none" font-size="15.4" font-weight="600" stroke="#ffffff" stroke-width="2">local verification</text><text x="251.0" y="655.5" text-anchor="middle" fill="#374151" font-size="15.4" font-weight="600">local verification</text></g><g data-dediren-edge-id="repository-triggers-deploy-workflow"><marker id="marker-end-repository-triggers-deploy-workflow" data-dediren-edge-marker-end="open_arrow" markerWidth="10" markerHeight="10" refX="9" refY="5" orient="auto"><path d="M 1 1 L 9 5 L 1 9" fill="none" stroke="#475569" stroke-width="1.5"/></marker><path d="M 970.0 614.0 L 970.0 670.0 Q 970.0 678.0 978.0 678.0 L 1314.0 678.0 Q 1322.0 678.0 1322.0 686.0 L 1322.0 742.0" fill="none" stroke="#475569" stroke-width="1.25" stroke-linecap="round" stroke-linejoin="round" marker-end="url(#marker-end-repository-triggers-deploy-workflow)"/><text x="1146.0" y="696.0" text-anchor="middle" fill="none" font-size="15.4" font-weight="600" stroke="#ffffff" stroke-width="2">push/manual</text><text x="1146.0" y="696.0" text-anchor="middle" fill="#374151" font-size="15.4" font-weight="600">push/manual</text></g><g data-dediren-edge-id="deploy-workflow-composes-change-detection"><marker id="marker-start-deploy-workflow-composes-change-detection" data-dediren-edge-marker-start="filled_diamond" markerWidth="10" markerHeight="10" refX="1" refY="5" orient="auto"><path d="M 1 5 L 5 1 L 9 5 L 5 9 Z" fill="#475569" stroke="#475569" stroke-width="1"/></marker><path d="M 1343.5 968.0 L 1343.5 1233.0 Q 1343.5 1241.0 1351.5 1241.0 L 1891.5 1241.0 Q 1899.5 1241.0 1899.5 1249.0 L 1899.5 1305.0" fill="none" stroke="#475569" stroke-width="1.25" stroke-linecap="round" stroke-linejoin="round" marker-start="url(#marker-start-deploy-workflow-composes-change-detection)"/><text x="1621.5" y="1259.0" text-anchor="middle" fill="none" font-size="15.4" font-weight="600" stroke="#ffffff" stroke-width="2">change filter</text><text x="1621.5" y="1259.0" text-anchor="middle" fill="#374151" font-size="15.4" font-weight="600">change filter</text></g><g data-dediren-edge-id="deploy-workflow-composes-infra"><marker id="marker-start-deploy-workflow-composes-infra" data-dediren-edge-marker-start="filled_diamond" markerWidth="10" markerHeight="10" refX="1" refY="5" orient="auto"><path d="M 1 5 L 5 1 L 9 5 L 5 9 Z" fill="#475569" stroke="#475569" stroke-width="1"/></marker><g data-dediren-line-jump-masks="deploy-workflow-composes-infra"><path d="M 2164.0 374.5 Q 2170.0 380.5 2164.0 386.5" fill="none" stroke="#ffffff" stroke-width="6"/></g><path d="M 1403.0 785.4 L 1459.0 785.4 Q 1467.0 785.4 1467.0 777.4 L 1467.0 672.6 Q 1467.0 664.6 1475.0 664.6 L 1723.0 664.6 L 1899.5 664.6 L 2052.0 664.6 L 2156.0 664.6 Q 2164.0 664.6 2164.0 656.6 L 2164.0 386.5 Q 2170.0 380.5 2164.0 374.5 L 2164.0 255.6 Q 2164.0 247.6 2172.0 247.6 L 2372.0 247.6 L 3268.0 247.6 L 3324.0 247.6 Q 3332.0 247.6 3332.0 255.6 L 3332.0 309.0 Q 3332.0 317.0 3340.0 317.0 L 3444.0 317.0 L 3572.0 317.0 Q 3580.0 317.0 3580.0 325.0 L 3580.0 344.3 Q 3580.0 352.3 3588.0 352.3 L 3644.0 352.3" fill="none" stroke="#475569" stroke-width="1.25" stroke-linecap="round" stroke-linejoin="round" marker-start="url(#marker-start-deploy-workflow-composes-infra)"/><text x="1435.0" y="775.4" text-anchor="middle" fill="none" font-size="15.4" font-weight="600" stroke="#ffffff" stroke-width="2">infra</text><text x="1435.0" y="775.4" text-anchor="middle" fill="#374151" font-size="15.4" font-weight="600">infra</text></g><g data-dediren-edge-id="deploy-workflow-composes-secret-scan"><marker id="marker-start-deploy-workflow-composes-secret-scan" data-dediren-edge-marker-start="filled_diamond" markerWidth="10" markerHeight="10" refX="1" refY="5" orient="auto"><path d="M 1 5 L 5 1 L 9 5 L 5 9 Z" fill="#475569" stroke="#475569" stroke-width="1"/></marker><path d="M 1403.0 813.2 L 1555.0 813.2 Q 1563.0 813.2 1563.0 805.2 L 1563.0 737.6 Q 1563.0 729.6 1571.0 729.6 L 1723.0 729.6 L 1899.5 729.6 L 2052.0 729.6 L 2204.0 729.6 Q 2212.0 729.6 2212.0 721.6 L 2212.0 475.1 Q 2212.0 467.1 2220.0 467.1 L 2500.0 467.1 L 2628.0 467.1 Q 2636.0 467.1 2636.0 459.1 L 2636.0 444.1 Q 2636.0 436.1 2644.0 436.1 L 2715.0 436.1" fill="none" stroke="#475569" stroke-width="1.25" stroke-linecap="round" stroke-linejoin="round" marker-start="url(#marker-start-deploy-workflow-composes-secret-scan)"/><text x="1569.0" y="771.4" text-anchor="start" fill="none" font-size="15.4" font-weight="600" stroke="#ffffff" stroke-width="2">secret gate</text><text x="1569.0" y="771.4" text-anchor="start" fill="#374151" font-size="15.4" font-weight="600">secret gate</text></g><g data-dediren-edge-id="deploy-workflow-composes-infra-analysis"><marker id="marker-start-deploy-workflow-composes-infra-analysis" data-dediren-edge-marker-start="filled_diamond" markerWidth="10" markerHeight="10" refX="1" refY="5" orient="auto"><path d="M 1 5 L 5 1 L 9 5 L 5 9 Z" fill="#475569" stroke="#475569" stroke-width="1"/></marker><path d="M 1403.0 841.1 L 1603.0 841.1 Q 1611.0 841.1 1611.0 833.1 L 1611.0 802.6 Q 1611.0 794.6 1619.0 794.6 L 1723.0 794.6 L 1899.5 794.6 L 2052.0 794.6 L 2252.0 794.6 Q 2260.0 794.6 2260.0 786.6 L 2260.0 719.6 Q 2260.0 711.6 2268.0 711.6 L 2428.0 711.6 Q 2436.0 711.6 2436.0 703.6 L 2436.0 611.6 Q 2436.0 603.6 2444.0 603.6 L 2500.0 603.6 L 2700.0 603.6" fill="none" stroke="#475569" stroke-width="1.25" stroke-linecap="round" stroke-linejoin="round" marker-start="url(#marker-start-deploy-workflow-composes-infra-analysis)"/><text x="1617.0" y="817.9" text-anchor="start" fill="none" font-size="15.4" font-weight="600" stroke="#ffffff" stroke-width="2">infra analysis</text><text x="1617.0" y="817.9" text-anchor="start" fill="#374151" font-size="15.4" font-weight="600">infra analysis</text></g><g data-dediren-edge-id="deploy-workflow-composes-build"><marker id="marker-start-deploy-workflow-composes-build" data-dediren-edge-marker-start="filled_diamond" markerWidth="10" markerHeight="10" refX="1" refY="5" orient="auto"><path d="M 1 5 L 5 1 L 9 5 L 5 9 Z" fill="#475569" stroke="#475569" stroke-width="1"/></marker><g data-dediren-line-jump-masks="deploy-workflow-composes-build"><path d="M 1515.0 658.6 Q 1521.0 664.6 1515.0 670.6" fill="none" stroke="#f8fafc" stroke-width="6"/><path d="M 1515.0 807.2 Q 1521.0 813.2 1515.0 819.2" fill="none" stroke="#f8fafc" stroke-width="6"/><path d="M 1515.0 835.1 Q 1521.0 841.1 1515.0 847.1" fill="none" stroke="#f8fafc" stroke-width="6"/><path d="M 2116.0 374.5 Q 2122.0 380.5 2116.0 386.5" fill="none" stroke="#ffffff" stroke-width="6"/></g><path d="M 1403.0 868.9 L 1507.0 868.9 Q 1515.0 868.9 1515.0 860.9 L 1515.0 847.1 Q 1521.0 841.1 1515.0 835.1 L 1515.0 819.2 Q 1521.0 813.2 1515.0 807.2 L 1515.0 670.6 Q 1521.0 664.6 1515.0 658.6 L 1515.0 607.6 Q 1515.0 599.6 1523.0 599.6 L 1723.0 599.6 L 1899.5 599.6 L 2052.0 599.6 L 2108.0 599.6 Q 2116.0 599.6 2116.0 591.6 L 2116.0 386.5 Q 2122.0 380.5 2116.0 374.5 L 2116.0 122.6 Q 2116.0 114.6 2124.0 114.6 L 2372.0 114.6 L 3268.0 114.6 L 3324.0 114.6 Q 3332.0 114.6 3332.0 106.6 L 3332.0 91.5 Q 3332.0 83.5 3340.0 83.5 L 3444.0 83.5 L 3644.0 83.5" fill="none" stroke="#475569" stroke-width="1.25" stroke-linecap="round" stroke-linejoin="round" marker-start="url(#marker-start-deploy-workflow-composes-build)"/><text x="1453.0" y="734.3" text-anchor="end" fill="none" font-size="15.4" font-weight="600" stroke="#ffffff" stroke-width="2">build</text><text x="1453.0" y="734.3" text-anchor="end" fill="#374151" font-size="15.4" font-weight="600">build</text></g><g data-dediren-edge-id="deploy-workflow-composes-app"><marker id="marker-start-deploy-workflow-composes-app" data-dediren-edge-marker-start="filled_diamond" markerWidth="10" markerHeight="10" refX="1" refY="5" orient="auto"><path d="M 1 5 L 5 1 L 9 5 L 5 9 Z" fill="#475569" stroke="#475569" stroke-width="1"/></marker><path d="M 1403.0 896.8 L 1651.0 896.8 Q 1659.0 896.8 1659.0 888.8 L 1659.0 867.6 Q 1659.0 859.6 1667.0 859.6 L 1723.0 859.6 L 1899.5 859.6 L 2052.0 859.6 L 2300.0 859.6 Q 2308.0 859.6 2308.0 851.6 L 2308.0 787.6 Q 2308.0 779.6 2316.0 779.6 L 2372.0 779.6 L 3268.0 779.6 L 3324.0 779.6 Q 3332.0 779.6 3332.0 787.6 L 3332.0 985.0 Q 3332.0 993.0 3340.0 993.0 L 3444.0 993.0 L 3739.5 993.0 L 3963.0 993.0 L 4059.0 993.0" fill="none" stroke="#475569" stroke-width="1.25" stroke-linecap="round" stroke-linejoin="round" marker-start="url(#marker-start-deploy-workflow-composes-app)"/><text x="1641.0" y="886.8" text-anchor="middle" fill="none" font-size="15.4" font-weight="600" stroke="#ffffff" stroke-width="2">app</text><text x="1641.0" y="886.8" text-anchor="middle" fill="#374151" font-size="15.4" font-weight="600">app</text></g><g data-dediren-edge-id="deploy-infra-realizes-bicep"><marker id="marker-end-deploy-infra-realizes-bicep" data-dediren-edge-marker-end="hollow_triangle" markerWidth="10" markerHeight="10" refX="9" refY="5" orient="auto"><path d="M 1 1 L 9 5 L 1 9 Z" fill="#ffffff" stroke="#374151" stroke-width="1"/></marker><path d="M 3766.5 406.0 L 3766.5 462.0 Q 3766.5 470.0 3774.5 470.0 L 4132.0 470.0 Q 4140.0 470.0 4140.0 478.0 L 4140.0 534.0" fill="none" stroke="#374151" stroke-width="1.5" stroke-linecap="round" stroke-linejoin="round" stroke-dasharray="8 5" marker-end="url(#marker-end-deploy-infra-realizes-bicep)"/><text x="3953.3" y="488.0" text-anchor="middle" fill="none" font-size="15.4" font-weight="600" stroke="#ffffff" stroke-width="2">applies</text><text x="3953.3" y="488.0" text-anchor="middle" fill="#374151" font-size="15.4" font-weight="600">applies</text></g><g data-dediren-edge-id="deploy-build-realizes-functions-package"><marker id="marker-end-deploy-build-realizes-functions-package" data-dediren-edge-marker-end="hollow_triangle" markerWidth="10" markerHeight="10" refX="9" refY="5" orient="auto"><path d="M 1 1 L 9 5 L 1 9 Z" fill="#ffffff" stroke="#374151" stroke-width="1"/></marker><path d="M 3746.5 133.0 L 3746.5 189.0 Q 3746.5 197.0 3754.5 197.0 L 4132.0 197.0 Q 4140.0 197.0 4140.0 205.0 L 4140.0 261.0" fill="none" stroke="#374151" stroke-width="1.5" stroke-linecap="round" stroke-linejoin="round" stroke-dasharray="8 5" marker-end="url(#marker-end-deploy-build-realizes-functions-package)"/><text x="3943.3" y="215.0" text-anchor="middle" fill="none" font-size="15.4" font-weight="600" stroke="#ffffff" stroke-width="2">builds</text><text x="3943.3" y="215.0" text-anchor="middle" fill="#374151" font-size="15.4" font-weight="600">builds</text></g><g data-dediren-edge-id="deploy-build-realizes-spa-package"><marker id="marker-end-deploy-build-realizes-spa-package" data-dediren-edge-marker-end="hollow_triangle" markerWidth="10" markerHeight="10" refX="9" refY="5" orient="auto"><path d="M 1 1 L 9 5 L 1 9 Z" fill="#ffffff" stroke="#374151" stroke-width="1"/></marker><g data-dediren-line-jump-masks="deploy-build-realizes-spa-package"><path d="M 3899.0 464.0 Q 3905.0 470.0 3899.0 476.0" fill="none" stroke="#f8fafc" stroke-width="6"/></g><path d="M 3703.5 133.0 L 3703.5 253.0 Q 3703.5 261.0 3711.5 261.0 L 3891.0 261.0 Q 3899.0 261.0 3899.0 269.0 L 3899.0 464.0 Q 3905.0 470.0 3899.0 476.0 L 3899.0 671.0 Q 3899.0 679.0 3907.0 679.0 L 4132.0 679.0 Q 4140.0 679.0 4140.0 687.0 L 4140.0 743.0" fill="none" stroke="#374151" stroke-width="1.5" stroke-linecap="round" stroke-linejoin="round" stroke-dasharray="8 5" marker-end="url(#marker-end-deploy-build-realizes-spa-package)"/><text x="3801.3" y="279.0" text-anchor="middle" fill="none" font-size="15.4" font-weight="600" stroke="#ffffff" stroke-width="2">builds</text><text x="3801.3" y="279.0" text-anchor="middle" fill="#374151" font-size="15.4" font-weight="600">builds</text></g><g data-dediren-edge-id="secret-scan-triggers-build"><marker id="marker-end-secret-scan-triggers-build" data-dediren-edge-marker-end="open_arrow" markerWidth="10" markerHeight="10" refX="9" refY="5" orient="auto"><path d="M 1 1 L 9 5 L 1 9" fill="none" stroke="#475569" stroke-width="1.5"/></marker><g data-dediren-line-jump-masks="secret-scan-triggers-build"><path d="M 3156.0 241.6 Q 3162.0 247.6 3156.0 253.6" fill="none" stroke="#ffffff" stroke-width="6"/></g><path d="M 2877.0 419.1 L 3092.0 419.1 L 3148.0 419.1 Q 3156.0 419.1 3156.0 411.1 L 3156.0 253.6 Q 3162.0 247.6 3156.0 241.6 L 3156.0 187.6 Q 3156.0 179.6 3164.0 179.6 L 3372.0 179.6 Q 3380.0 179.6 3380.0 171.6 L 3380.0 139.5 Q 3380.0 131.5 3388.0 131.5 L 3444.0 131.5 L 3572.0 131.5 Q 3580.0 131.5 3580.0 123.5 L 3580.0 108.5 Q 3580.0 100.5 3588.0 100.5 L 3644.0 100.5" fill="none" stroke="#475569" stroke-width="1.25" stroke-linecap="round" stroke-linejoin="round" marker-end="url(#marker-end-secret-scan-triggers-build)"/><text x="2984.5" y="437.1" text-anchor="middle" fill="none" font-size="15.4" font-weight="600" stroke="#ffffff" stroke-width="2">gate</text><text x="2984.5" y="437.1" text-anchor="middle" fill="#374151" font-size="15.4" font-weight="600">gate</text></g><g data-dediren-edge-id="secret-scan-triggers-infra-deploy"><marker id="marker-end-secret-scan-triggers-infra-deploy" data-dediren-edge-marker-end="open_arrow" markerWidth="10" markerHeight="10" refX="9" refY="5" orient="auto"><path d="M 1 1 L 9 5 L 1 9" fill="none" stroke="#475569" stroke-width="1.5"/></marker><path d="M 2877.0 436.1 L 2948.0 436.1 Q 2956.0 436.1 2956.0 444.1 L 2956.0 459.1 Q 2956.0 467.1 2964.0 467.1 L 3092.0 467.1 L 3196.0 467.1 Q 3204.0 467.1 3204.0 459.1 L 3204.0 373.0 Q 3204.0 365.0 3212.0 365.0 L 3444.0 365.0 L 3644.0 365.0" fill="none" stroke="#475569" stroke-width="1.25" stroke-linecap="round" stroke-linejoin="round" marker-end="url(#marker-end-secret-scan-triggers-infra-deploy)"/><text x="2916.5" y="454.1" text-anchor="middle" fill="none" font-size="15.4" font-weight="600" stroke="#ffffff" stroke-width="2">gate</text><text x="2916.5" y="454.1" text-anchor="middle" fill="#374151" font-size="15.4" font-weight="600">gate</text></g><g data-dediren-edge-id="infrastructure-analysis-triggers-infra-deploy"><marker id="marker-end-infrastructure-analysis-triggers-infra-deploy" data-dediren-edge-marker-end="open_arrow" markerWidth="10" markerHeight="10" refX="9" refY="5" orient="auto"><path d="M 1 1 L 9 5 L 1 9" fill="none" stroke="#475569" stroke-width="1.5"/></marker><path d="M 2892.0 603.6 L 3092.0 603.6 L 3324.0 603.6 Q 3332.0 603.6 3332.0 595.6 L 3332.0 421.0 Q 3332.0 413.0 3340.0 413.0 L 3444.0 413.0 L 3572.0 413.0 Q 3580.0 413.0 3580.0 405.0 L 3580.0 385.8 Q 3580.0 377.8 3588.0 377.8 L 3644.0 377.8" fill="none" stroke="#475569" stroke-width="1.25" stroke-linecap="round" stroke-linejoin="round" marker-end="url(#marker-end-infrastructure-analysis-triggers-infra-deploy)"/><text x="2992.0" y="621.6" text-anchor="middle" fill="none" font-size="15.4" font-weight="600" stroke="#ffffff" stroke-width="2">gate</text><text x="2992.0" y="621.6" text-anchor="middle" fill="#374151" font-size="15.4" font-weight="600">gate</text></g><g data-dediren-edge-id="deploy-infra-triggers-app-deploy"><marker id="marker-end-deploy-infra-triggers-app-deploy" data-dediren-edge-marker-end="open_arrow" markerWidth="10" markerHeight="10" refX="9" refY="5" orient="auto"><path d="M 1 1 L 9 5 L 1 9" fill="none" stroke="#475569" stroke-width="1.5"/></marker><path d="M 3713.5 406.0 L 3713.5 880.0 Q 3713.5 888.0 3721.5 888.0 L 4132.0 888.0 Q 4140.0 888.0 4140.0 896.0 L 4140.0 952.0" fill="none" stroke="#475569" stroke-width="1.25" stroke-linecap="round" stroke-linejoin="round" marker-end="url(#marker-end-deploy-infra-triggers-app-deploy)"/><text x="3926.8" y="906.0" text-anchor="middle" fill="none" font-size="15.4" font-weight="600" stroke="#ffffff" stroke-width="2">before app</text><text x="3926.8" y="906.0" text-anchor="middle" fill="#374151" font-size="15.4" font-weight="600">before app</text></g><g data-dediren-edge-id="deploy-app-realizes-production"><marker id="marker-end-deploy-app-realizes-production" data-dediren-edge-marker-end="hollow_triangle" markerWidth="10" markerHeight="10" refX="9" refY="5" orient="auto"><path d="M 1 1 L 9 5 L 1 9 Z" fill="#ffffff" stroke="#374151" stroke-width="1"/></marker><path d="M 4221.0 993.0 L 4421.0 993.0 L 4605.0 993.0 Q 4613.0 993.0 4613.0 985.0 L 4613.0 959.5 Q 4613.0 951.5 4621.0 951.5 L 4725.0 951.5 L 4925.0 951.5" fill="none" stroke="#374151" stroke-width="1.5" stroke-linecap="round" stroke-linejoin="round" stroke-dasharray="8 5" marker-end="url(#marker-end-deploy-app-realizes-production)"/><text x="4321.0" y="1011.0" text-anchor="middle" fill="none" font-size="15.4" font-weight="600" stroke="#ffffff" stroke-width="2">updates</text><text x="4321.0" y="1011.0" text-anchor="middle" fill="#374151" font-size="15.4" font-weight="600">updates</text></g><g data-dediren-edge-id="release-gap-realized-by-deploy"><path d="M 1403.0 924.6 L 1723.0 924.6 L 1899.5 924.6 L 2052.0 924.6 L 2531.0 924.6" fill="none" stroke="#475569" stroke-width="1.25" stroke-linecap="round" stroke-linejoin="round"/><text x="1563.0" y="942.6" text-anchor="middle" fill="none" font-size="15.4" font-weight="600" stroke="#ffffff" stroke-width="2">closes</text><text x="1563.0" y="942.6" text-anchor="middle" fill="#374151" font-size="15.4" font-weight="600">closes</text></g><g data-dediren-edge-id="deploy-workflow-triggers-event"><marker id="marker-end-deploy-workflow-triggers-event" data-dediren-edge-marker-end="open_arrow" markerWidth="10" markerHeight="10" refX="9" refY="5" orient="auto"><path d="M 1 1 L 9 5 L 1 9" fill="none" stroke="#475569" stroke-width="1.5"/></marker><g data-dediren-line-jump-masks="deploy-workflow-triggers-event"><path d="M 1337.5 1032.0 Q 1343.5 1026.0 1349.5 1032.0" fill="none" stroke="#f8fafc" stroke-width="6"/></g><path d="M 1300.5 968.0 L 1300.5 1024.0 Q 1300.5 1032.0 1308.5 1032.0 L 1337.5 1032.0 Q 1343.5 1026.0 1349.5 1032.0 L 1891.0 1032.0 Q 1899.0 1032.0 1899.0 1040.0 L 1899.0 1096.0" fill="none" stroke="#475569" stroke-width="1.25" stroke-linecap="round" stroke-linejoin="round" marker-end="url(#marker-end-deploy-workflow-triggers-event)"/><text x="1599.8" y="1050.0" text-anchor="middle" fill="none" font-size="15.4" font-weight="600" stroke="#ffffff" stroke-width="2">deploys</text><text x="1599.8" y="1050.0" text-anchor="middle" fill="#374151" font-size="15.4" font-weight="600">deploys</text></g><g data-dediren-edge-id="deploy-event-realizes-production"><path d="M 1980.0 1137.0 L 2052.0 1137.0 L 2372.0 1137.0 L 2796.0 1137.0 L 3932.5 1137.0 L 4549.0 1137.0 L 4653.0 1137.0 Q 4661.0 1137.0 4661.0 1129.0 L 4661.0 1007.5 Q 4661.0 999.5 4669.0 999.5 L 4725.0 999.5 L 4853.0 999.5 Q 4861.0 999.5 4861.0 991.5 L 4861.0 976.5 Q 4861.0 968.5 4869.0 968.5 L 4925.0 968.5" fill="none" stroke="#475569" stroke-width="1.25" stroke-linecap="round" stroke-linejoin="round"/><text x="4655.0" y="1068.3" text-anchor="end" fill="none" font-size="15.4" font-weight="600" stroke="#ffffff" stroke-width="2">reaches</text><text x="4655.0" y="1068.3" text-anchor="end" fill="#374151" font-size="15.4" font-weight="600">reaches</text></g><g data-dediren-edge-id="bicep-deploys-static-web-apps"><marker id="marker-end-bicep-deploys-static-web-apps" data-dediren-edge-marker-end="hollow_triangle" markerWidth="10" markerHeight="10" refX="9" refY="5" orient="auto"><path d="M 1 1 L 9 5 L 1 9 Z" fill="#ffffff" stroke="#374151" stroke-width="1"/></marker><path d="M 4221.0 566.5 L 4277.0 566.5 Q 4285.0 566.5 4285.0 574.5 L 4285.0 623.5 Q 4285.0 631.5 4293.0 631.5 L 4421.0 631.5 L 4605.0 631.5 Q 4613.0 631.5 4613.0 623.5 L 4613.0 616.0 Q 4613.0 608.0 4621.0 608.0 L 4725.0 608.0 L 4925.0 608.0" fill="none" stroke="#374151" stroke-width="1.5" stroke-linecap="round" stroke-linejoin="round" stroke-dasharray="8 5" marker-end="url(#marker-end-bicep-deploys-static-web-apps)"/><text x="4267.0" y="556.5" text-anchor="middle" fill="none" font-size="15.4" font-weight="600" stroke="#ffffff" stroke-width="2">provisions</text><text x="4267.0" y="556.5" text-anchor="middle" fill="#374151" font-size="15.4" font-weight="600">provisions</text></g><g data-dediren-edge-id="bicep-deploys-function-app"><marker id="marker-end-bicep-deploys-function-app" data-dediren-edge-marker-end="hollow_triangle" markerWidth="10" markerHeight="10" refX="9" refY="5" orient="auto"><path d="M 1 1 L 9 5 L 1 9 Z" fill="#ffffff" stroke="#374151" stroke-width="1"/></marker><g data-dediren-line-jump-masks="bicep-deploys-function-app"><path d="M 4279.0 583.5 Q 4285.0 577.5 4291.0 583.5" fill="none" stroke="#f8fafc" stroke-width="6"/></g><path d="M 4221.0 583.5 L 4279.0 583.5 Q 4285.0 577.5 4291.0 583.5 L 4421.0 583.5 L 4477.0 583.5 Q 4485.0 583.5 4485.0 575.5 L 4485.0 571.5 Q 4485.0 563.5 4493.0 563.5 L 4605.0 563.5 Q 4613.0 563.5 4613.0 555.5 L 4613.0 440.0 Q 4613.0 432.0 4621.0 432.0 L 4725.0 432.0 L 4925.0 432.0" fill="none" stroke="#374151" stroke-width="1.5" stroke-linecap="round" stroke-linejoin="round" stroke-dasharray="8 5" marker-end="url(#marker-end-bicep-deploys-function-app)"/><text x="4491.0" y="573.5" text-anchor="start" fill="none" font-size="15.4" font-weight="600" stroke="#ffffff" stroke-width="2">provisions</text><text x="4491.0" y="573.5" text-anchor="start" fill="#374151" font-size="15.4" font-weight="600">provisions</text></g><g data-dediren-edge-id="function-package-deploys-api"><marker id="marker-end-function-package-deploys-api" data-dediren-edge-marker-end="hollow_triangle" markerWidth="10" markerHeight="10" refX="9" refY="5" orient="auto"><path d="M 1 1 L 9 5 L 1 9 Z" fill="#ffffff" stroke="#374151" stroke-width="1"/></marker><path d="M 4221.0 302.0 L 4421.0 302.0 L 4605.0 302.0 Q 4613.0 302.0 4613.0 294.0 L 4613.0 264.0 Q 4613.0 256.0 4621.0 256.0 L 4725.0 256.0 L 4925.0 256.0" fill="none" stroke="#374151" stroke-width="1.5" stroke-linecap="round" stroke-linejoin="round" stroke-dasharray="8 5" marker-end="url(#marker-end-function-package-deploys-api)"/><text x="4321.0" y="320.0" text-anchor="middle" fill="none" font-size="15.4" font-weight="600" stroke="#ffffff" stroke-width="2">deploys</text><text x="4321.0" y="320.0" text-anchor="middle" fill="#374151" font-size="15.4" font-weight="600">deploys</text></g><g data-dediren-edge-id="spa-package-deploys-app"><marker id="marker-end-spa-package-deploys-app" data-dediren-edge-marker-end="hollow_triangle" markerWidth="10" markerHeight="10" refX="9" refY="5" orient="auto"><path d="M 1 1 L 9 5 L 1 9 Z" fill="#ffffff" stroke="#374151" stroke-width="1"/></marker><path d="M 4221.0 784.0 L 4421.0 784.0 L 4725.0 784.0 L 4925.0 784.0" fill="none" stroke="#374151" stroke-width="1.5" stroke-linecap="round" stroke-linejoin="round" stroke-dasharray="8 5" marker-end="url(#marker-end-spa-package-deploys-app)"/><text x="4321.0" y="802.0" text-anchor="middle" fill="none" font-size="15.4" font-weight="600" stroke="#ffffff" stroke-width="2">deploys</text><text x="4321.0" y="802.0" text-anchor="middle" fill="#374151" font-size="15.4" font-weight="600">deploys</text></g><g data-dediren-node-id="pre-commit-secret-guard"><rect data-dediren-node-shape="archimate_rounded_rectangle" x="72.0" y="350.5" width="160.0" height="90.0" rx="6" fill="#f8cecc" stroke="#b85450" stroke-width="1.25"/><g data-dediren-node-decorator="archimate_work_package" data-dediren-icon-kind="work_package" data-dediren-icon-size="22"><path data-dediren-icon-part="work-package-loop-arrow" d="M 213.7 364.3 A 5.7 5.7 0 1 0 212.8 368.7 L 219.8 368.7 M 219.8 368.7 L 217.2 366.5 M 219.8 368.7 L 217.2 370.9" fill="none" stroke="#b85450" stroke-width="1.25" stroke-linecap="round" stroke-linejoin="round"/></g><text x="152.0" y="403.0" text-anchor="middle" dominant-baseline="middle" fill="#5f1f1b" font-size="14.0"><tspan x="152.0" dy="0" textLength="71.5" lengthAdjust="spacing">Pre-commit</tspan><tspan x="152.0" dy="16.0" textLength="77.8" lengthAdjust="spacing">secret guard</tspan></text></g><g data-dediren-node-id="pre-push-verification-gate"><rect data-dediren-node-shape="archimate_rounded_rectangle" x="52.0" y="536.5" width="180.0" height="90.0" rx="6" fill="#f8cecc" stroke="#b85450" stroke-width="1.25"/><g data-dediren-node-decorator="archimate_work_package" data-dediren-icon-kind="work_package" data-dediren-icon-size="22"><path data-dediren-icon-part="work-package-loop-arrow" d="M 213.7 550.3 A 5.7 5.7 0 1 0 212.8 554.7 L 219.8 554.7 M 219.8 554.7 L 217.2 552.5 M 219.8 554.7 L 217.2 556.9" fill="none" stroke="#b85450" stroke-width="1.25" stroke-linecap="round" stroke-linejoin="round"/></g><text x="142.0" y="589.0" text-anchor="middle" dominant-baseline="middle" fill="#5f1f1b" font-size="14.0"><tspan x="142.0" dy="0" textLength="56.7" lengthAdjust="spacing">Pre-push</tspan><tspan x="142.0" dy="16.0" textLength="98.0" lengthAdjust="spacing">verification gate</tspan></text></g><g data-dediren-node-id="repository-baseline"><rect data-dediren-node-shape="archimate_rectangle" x="890.0" y="533.0" width="160.0" height="80.0" rx="0" fill="#f8cecc" stroke="#b85450" stroke-width="1.25"/><g data-dediren-node-decorator="archimate_plateau" data-dediren-icon-kind="plateau" data-dediren-icon-size="22"><path d="M 1027.7 546.0 L 1041.4 546.0 M 1024.6 549.9 L 1038.3 549.9 M 1022.0 553.9 L 1035.6 553.9" fill="none" stroke="#b85450" stroke-width="1.25" stroke-linecap="square"/></g><text x="970.0" y="580.5" text-anchor="middle" dominant-baseline="middle" fill="#5f1f1b" font-size="14.0"><tspan x="970.0" dy="0" textLength="66.9" lengthAdjust="spacing">Repository</tspan><tspan x="970.0" dy="16.0" textLength="52.1" lengthAdjust="spacing">baseline</tspan></text></g><g data-dediren-node-id="production-plateau"><rect data-dediren-node-shape="archimate_rectangle" x="4926.0" y="920.0" width="160.0" height="80.0" rx="0" fill="#f8cecc" stroke="#b85450" stroke-width="1.25"/><g data-dediren-node-decorator="archimate_plateau" data-dediren-icon-kind="plateau" data-dediren-icon-size="22"><path d="M 5063.7 933.0 L 5077.4 933.0 M 5060.6 936.9 L 5074.3 936.9 M 5058.0 940.9 L 5071.6 940.9" fill="none" stroke="#b85450" stroke-width="1.25" stroke-linecap="square"/></g><text x="5006.0" y="967.5" text-anchor="middle" dominant-baseline="middle" fill="#5f1f1b" font-size="14.0"><tspan x="5006.0" dy="0" textLength="66.9" lengthAdjust="spacing">Production</tspan><tspan x="5006.0" dy="16.0" textLength="45.9" lengthAdjust="spacing">plateau</tspan></text></g><g data-dediren-node-id="release-to-production-gap"><rect data-dediren-node-shape="archimate_rectangle" x="2532.0" y="879.6" width="160.0" height="90.0" rx="0" fill="#f8cecc" stroke="#b85450" stroke-width="1.25"/><g data-dediren-node-decorator="archimate_gap" data-dediren-icon-kind="gap" data-dediren-icon-size="22"><ellipse cx="2675.4" cy="896.1" rx="4.8" ry="4.8" fill="none" stroke="#b85450" stroke-width="1.25"/><path data-dediren-icon-part="gap-lines" d="M 2666.2 894.4 L 2684.7 894.4 M 2666.2 897.9 L 2684.7 897.9" fill="none" stroke="#b85450" stroke-width="1.25" stroke-linecap="round"/></g><text x="2612.0" y="924.0" text-anchor="middle" dominant-baseline="middle" fill="#5f1f1b" font-size="14.0"><tspan x="2612.0" dy="0" textLength="66.9" lengthAdjust="spacing">Release to</tspan><tspan x="2612.0" dy="16.0" textLength="65.3" lengthAdjust="spacing">production</tspan><tspan x="2612.0" dy="16.0" textLength="23.3" lengthAdjust="spacing">gap</tspan></text></g><g data-dediren-node-id="deploy-to-production-event"><rect data-dediren-node-shape="archimate_rounded_rectangle" x="1819.0" y="1097.0" width="160.0" height="80.0" rx="6" fill="#f8cecc" stroke="#b85450" stroke-width="1.25"/><g data-dediren-node-decorator="archimate_implementation_event" data-dediren-icon-kind="event" data-dediren-icon-size="22"><path data-dediren-icon-part="event-pill" d="M 1955.0 1106.9 L 1967.3 1106.9 C 1971.7 1106.9, 1973.0 1110.4, 1973.0 1113.9 C 1973.0 1117.4, 1971.7 1121.0, 1967.3 1121.0 L 1955.0 1121.0 L 1958.5 1113.9 L 1955.0 1106.9 Z" fill="#f8cecc" stroke="#b85450" stroke-width="1.25"/></g><text x="1899.0" y="1144.5" text-anchor="middle" dominant-baseline="middle" fill="#5f1f1b" font-size="14.0"><tspan x="1899.0" dy="0" textLength="59.1" lengthAdjust="spacing">Deploy to</tspan><tspan x="1899.0" dy="16.0" textLength="65.3" lengthAdjust="spacing">production</tspan></text></g><g data-dediren-node-id="deploy-workflow"><rect data-dediren-node-shape="archimate_rounded_rectangle" x="1242.0" y="743.0" width="160.0" height="224.0" rx="6" fill="#f8cecc" stroke="#b85450" stroke-width="1.25"/><g data-dediren-node-decorator="archimate_work_package" data-dediren-icon-kind="work_package" data-dediren-icon-size="22"><path data-dediren-icon-part="work-package-loop-arrow" d="M 1383.7 756.8 A 5.7 5.7 0 1 0 1382.8 761.2 L 1389.8 761.2 M 1389.8 761.2 L 1387.2 759.0 M 1389.8 761.2 L 1387.2 763.4" fill="none" stroke="#b85450" stroke-width="1.25" stroke-linecap="round" stroke-linejoin="round"/></g><text x="1322.0" y="862.5" text-anchor="middle" dominant-baseline="middle" fill="#5f1f1b" font-size="14.0"><tspan x="1322.0" dy="0" textLength="43.5" lengthAdjust="spacing">Deploy</tspan><tspan x="1322.0" dy="16.0" textLength="54.4" lengthAdjust="spacing">workflow</tspan></text></g><g data-dediren-node-id="deploy-change-detection"><rect data-dediren-node-shape="archimate_rounded_rectangle" x="1819.5" y="1306.0" width="160.0" height="80.0" rx="6" fill="#f8cecc" stroke="#b85450" stroke-width="1.25"/><g data-dediren-node-decorator="archimate_work_package" data-dediren-icon-kind="work_package" data-dediren-icon-size="22"><path data-dediren-icon-part="work-package-loop-arrow" d="M 1961.2 1319.8 A 5.7 5.7 0 1 0 1960.3 1324.2 L 1967.3 1324.2 M 1967.3 1324.2 L 1964.7 1322.0 M 1967.3 1324.2 L 1964.7 1326.4" fill="none" stroke="#b85450" stroke-width="1.25" stroke-linecap="round" stroke-linejoin="round"/></g><text x="1899.5" y="1353.5" text-anchor="middle" dominant-baseline="middle" fill="#5f1f1b" font-size="14.0"><tspan x="1899.5" dy="0" textLength="85.5" lengthAdjust="spacing">Detect deploy</tspan><tspan x="1899.5" dy="16.0" textLength="52.9" lengthAdjust="spacing">changes</tspan></text></g><g data-dediren-node-id="secret-scan-workflow"><rect data-dediren-node-shape="archimate_rounded_rectangle" x="2716.0" y="387.6" width="160.0" height="80.0" rx="6" fill="#f8cecc" stroke="#b85450" stroke-width="1.25"/><g data-dediren-node-decorator="archimate_work_package" data-dediren-icon-kind="work_package" data-dediren-icon-size="22"><path data-dediren-icon-part="work-package-loop-arrow" d="M 2857.7 401.5 A 5.7 5.7 0 1 0 2856.8 405.9 L 2863.8 405.9 M 2863.8 405.9 L 2861.2 403.7 M 2863.8 405.9 L 2861.2 408.1" fill="none" stroke="#b85450" stroke-width="1.25" stroke-linecap="round" stroke-linejoin="round"/></g><text x="2796.0" y="435.1" text-anchor="middle" dominant-baseline="middle" fill="#5f1f1b" font-size="14.0"><tspan x="2796.0" dy="0" textLength="40.4" lengthAdjust="spacing">Secret</tspan><tspan x="2796.0" dy="16.0" textLength="58.3" lengthAdjust="spacing">Scanning</tspan></text></g><g data-dediren-node-id="infrastructure-analysis-workflow"><rect data-dediren-node-shape="archimate_rounded_rectangle" x="2701.0" y="563.6" width="190.0" height="80.0" rx="6" fill="#f8cecc" stroke="#b85450" stroke-width="1.25"/><g data-dediren-node-decorator="archimate_work_package" data-dediren-icon-kind="work_package" data-dediren-icon-size="22"><path data-dediren-icon-part="work-package-loop-arrow" d="M 2872.7 577.5 A 5.7 5.7 0 1 0 2871.8 581.9 L 2878.8 581.9 M 2878.8 581.9 L 2876.2 579.7 M 2878.8 581.9 L 2876.2 584.1" fill="none" stroke="#b85450" stroke-width="1.25" stroke-linecap="round" stroke-linejoin="round"/></g><text x="2796.0" y="611.1" text-anchor="middle" dominant-baseline="middle" fill="#5f1f1b" font-size="14.0"><tspan x="2796.0" dy="0" textLength="49.7" lengthAdjust="spacing">Analyze</tspan><tspan x="2796.0" dy="16.0" textLength="82.4" lengthAdjust="spacing">Infrastructure</tspan></text></g><g data-dediren-node-id="deploy-infra-workflow"><rect data-dediren-node-shape="archimate_rounded_rectangle" x="3645.0" y="325.0" width="190.0" height="80.0" rx="6" fill="#f8cecc" stroke="#b85450" stroke-width="1.25"/><g data-dediren-node-decorator="archimate_work_package" data-dediren-icon-kind="work_package" data-dediren-icon-size="22"><path data-dediren-icon-part="work-package-loop-arrow" d="M 3816.7 338.8 A 5.7 5.7 0 1 0 3815.8 343.2 L 3822.8 343.2 M 3822.8 343.2 L 3820.2 341.0 M 3822.8 343.2 L 3820.2 345.4" fill="none" stroke="#b85450" stroke-width="1.25" stroke-linecap="round" stroke-linejoin="round"/></g><text x="3740.0" y="372.5" text-anchor="middle" dominant-baseline="middle" fill="#5f1f1b" font-size="14.0"><tspan x="3740.0" dy="0" textLength="43.5" lengthAdjust="spacing">Deploy</tspan><tspan x="3740.0" dy="16.0" textLength="82.4" lengthAdjust="spacing">Infrastructure</tspan></text></g><g data-dediren-node-id="deploy-app-build-workflow"><rect data-dediren-node-shape="archimate_rounded_rectangle" x="3645.0" y="52.0" width="160.0" height="80.0" rx="6" fill="#f8cecc" stroke="#b85450" stroke-width="1.25"/><g data-dediren-node-decorator="archimate_work_package" data-dediren-icon-kind="work_package" data-dediren-icon-size="22"><path data-dediren-icon-part="work-package-loop-arrow" d="M 3786.7 65.8 A 5.7 5.7 0 1 0 3785.8 70.2 L 3792.8 70.2 M 3792.8 70.2 L 3790.2 68.0 M 3792.8 70.2 L 3790.2 72.4" fill="none" stroke="#b85450" stroke-width="1.25" stroke-linecap="round" stroke-linejoin="round"/></g><text x="3725.0" y="99.5" text-anchor="middle" dominant-baseline="middle" fill="#5f1f1b" font-size="14.0"><tspan x="3725.0" dy="0" textLength="80.9" lengthAdjust="spacing">Deploy App -</tspan><tspan x="3725.0" dy="16.0" textLength="31.1" lengthAdjust="spacing">Build</tspan></text></g><g data-dediren-node-id="deploy-app-workflow"><rect data-dediren-node-shape="archimate_rounded_rectangle" x="4060.0" y="953.0" width="160.0" height="80.0" rx="6" fill="#f8cecc" stroke="#b85450" stroke-width="1.25"/><g data-dediren-node-decorator="archimate_work_package" data-dediren-icon-kind="work_package" data-dediren-icon-size="22"><path data-dediren-icon-part="work-package-loop-arrow" d="M 4201.7 966.8 A 5.7 5.7 0 1 0 4200.8 971.2 L 4207.8 971.2 M 4207.8 971.2 L 4205.2 969.0 M 4207.8 971.2 L 4205.2 973.4" fill="none" stroke="#b85450" stroke-width="1.25" stroke-linecap="round" stroke-linejoin="round"/></g><text x="4140.0" y="1008.5" text-anchor="middle" dominant-baseline="middle" fill="#5f1f1b" font-size="14.0" textLength="72.3" lengthAdjust="spacing">Deploy App</text></g><g data-dediren-node-id="bicep-template"><rect data-dediren-node-shape="archimate_rectangle" x="4060.0" y="535.0" width="160.0" height="80.0" rx="0" fill="#f8cecc" stroke="#b85450" stroke-width="1.25"/><g data-dediren-node-decorator="archimate_deliverable" data-dediren-icon-kind="deliverable" data-dediren-icon-size="22"><path data-dediren-icon-part="wavy-document" d="M 4192.0 544.0 L 4214.0 544.0 L 4214.0 556.8 C 4210.0 555.0, 4206.5 555.0, 4203.0 556.8 C 4199.5 558.5, 4196.0 558.5, 4192.0 556.8 L 4192.0 544.0 Z" fill="#f8cecc" stroke="#b85450" stroke-width="1.25" stroke-linejoin="round"/></g><text x="4140.0" y="582.5" text-anchor="middle" dominant-baseline="middle" fill="#5f1f1b" font-size="14.0"><tspan x="4140.0" dy="0" textLength="35.0" lengthAdjust="spacing">Bicep</tspan><tspan x="4140.0" dy="16.0" textLength="72.3" lengthAdjust="spacing">deployment</tspan></text></g><g data-dediren-node-id="function-app-package"><rect data-dediren-node-shape="archimate_rectangle" x="4060.0" y="262.0" width="160.0" height="80.0" rx="0" fill="#f8cecc" stroke="#b85450" stroke-width="1.25"/><g data-dediren-node-decorator="archimate_deliverable" data-dediren-icon-kind="deliverable" data-dediren-icon-size="22"><path data-dediren-icon-part="wavy-document" d="M 4192.0 271.0 L 4214.0 271.0 L 4214.0 283.8 C 4210.0 282.0, 4206.5 282.0, 4203.0 283.8 C 4199.5 285.5, 4196.0 285.5, 4192.0 283.8 L 4192.0 271.0 Z" fill="#f8cecc" stroke="#b85450" stroke-width="1.25" stroke-linejoin="round"/></g><text x="4140.0" y="317.5" text-anchor="middle" dominant-baseline="middle" fill="#5f1f1b" font-size="14.0" textLength="82.4" lengthAdjust="spacing">Functions zip</text></g><g data-dediren-node-id="spa-wwwroot-package"><rect data-dediren-node-shape="archimate_rectangle" x="4060.0" y="744.0" width="160.0" height="80.0" rx="0" fill="#f8cecc" stroke="#b85450" stroke-width="1.25"/><g data-dediren-node-decorator="archimate_deliverable" data-dediren-icon-kind="deliverable" data-dediren-icon-size="22"><path data-dediren-icon-part="wavy-document" d="M 4192.0 753.0 L 4214.0 753.0 L 4214.0 765.8 C 4210.0 764.0, 4206.5 764.0, 4203.0 765.8 C 4199.5 767.5, 4196.0 767.5, 4192.0 765.8 L 4192.0 753.0 Z" fill="#f8cecc" stroke="#b85450" stroke-width="1.25" stroke-linejoin="round"/></g><text x="4140.0" y="791.5" text-anchor="middle" dominant-baseline="middle" fill="#5f1f1b" font-size="14.0"><tspan x="4140.0" dy="0" textLength="86.3" lengthAdjust="spacing">SPA wwwroot</tspan><tspan x="4140.0" dy="16.0" textLength="42.0" lengthAdjust="spacing">bundle</tspan></text></g><g data-dediren-node-id="static-web-apps"><rect data-dediren-node-shape="archimate_rectangle" x="4926.0" y="568.0" width="160.0" height="80.0" rx="0" fill="#d5e8d4" stroke="#4d7c0f" stroke-width="1.25"/><g data-dediren-node-decorator="archimate_technology_node" data-dediren-icon-kind="node" data-dediren-icon-size="22"><rect x="5058.0" y="581.0" width="18.0" height="12.8" rx="1.5" fill="#d5e8d4" stroke="#4d7c0f" stroke-width="1.25"/><path data-dediren-icon-part="node-3d-edges" d="M 5058.0 581.0 L 5062.0 577.0 L 5080.0 577.0 L 5076.0 581.0 M 5076.0 581.0 L 5080.0 577.0 M 5076.0 593.7 L 5080.0 589.8 M 5080.0 577.0 L 5080.0 589.8" fill="none" stroke="#4d7c0f" stroke-width="1.25" stroke-linejoin="round"/></g><text x="5006.0" y="615.5" text-anchor="middle" dominant-baseline="middle" fill="#365314" font-size="14.0"><tspan x="5006.0" dy="0" textLength="75.4" lengthAdjust="spacing">Azure Static</tspan><tspan x="5006.0" dy="16.0" textLength="64.5" lengthAdjust="spacing">Web Apps</tspan></text></g><g data-dediren-node-id="function-app"><rect data-dediren-node-shape="archimate_rectangle" x="4926.0" y="392.0" width="160.0" height="80.0" rx="0" fill="#d5e8d4" stroke="#4d7c0f" stroke-width="1.25"/><g data-dediren-node-decorator="archimate_technology_node" data-dediren-icon-kind="node" data-dediren-icon-size="22"><rect x="5058.0" y="405.0" width="18.0" height="12.8" rx="1.5" fill="#d5e8d4" stroke="#4d7c0f" stroke-width="1.25"/><path data-dediren-icon-part="node-3d-edges" d="M 5058.0 405.0 L 5062.0 401.0 L 5080.0 401.0 L 5076.0 405.0 M 5076.0 405.0 L 5080.0 401.0 M 5076.0 417.7 L 5080.0 413.8 M 5080.0 401.0 L 5080.0 413.8" fill="none" stroke="#4d7c0f" stroke-width="1.25" stroke-linejoin="round"/></g><text x="5006.0" y="439.5" text-anchor="middle" dominant-baseline="middle" fill="#365314" font-size="14.0"><tspan x="5006.0" dy="0" textLength="36.5" lengthAdjust="spacing">Azure</tspan><tspan x="5006.0" dy="16.0" textLength="82.4" lengthAdjust="spacing">Function App</tspan></text></g><g data-dediren-node-id="lfm-app"><rect data-dediren-node-shape="archimate_rectangle" x="4926.0" y="744.0" width="160.0" height="80.0" rx="0" fill="#e0f2fe" stroke="#0369a1" stroke-width="1.25"/><g data-dediren-node-decorator="archimate_application_component" data-dediren-icon-kind="component" data-dediren-icon-size="22"><rect x="5062.0" y="753.0" width="18.0" height="15.8" rx="1.5" fill="#e0f2fe" stroke="#0369a1" stroke-width="1.25"/><rect x="5058.0" y="755.6" width="7.9" height="5.7" rx="1.2" fill="#e0f2fe" stroke="#0369a1" stroke-width="1.25"/><rect x="5058.0" y="762.7" width="7.9" height="5.7" rx="1.2" fill="#e0f2fe" stroke="#0369a1" stroke-width="1.25"/></g><text x="5006.0" y="799.5" text-anchor="middle" dominant-baseline="middle" fill="#0c4a6e" font-size="14.0" textLength="52.1" lengthAdjust="spacing">Lfm.App</text></g><g data-dediren-node-id="lfm-api"><rect data-dediren-node-shape="archimate_rectangle" x="4926.0" y="216.0" width="160.0" height="80.0" rx="0" fill="#e0f2fe" stroke="#0369a1" stroke-width="1.25"/><g data-dediren-node-decorator="archimate_application_component" data-dediren-icon-kind="component" data-dediren-icon-size="22"><rect x="5062.0" y="225.0" width="18.0" height="15.8" rx="1.5" fill="#e0f2fe" stroke="#0369a1" stroke-width="1.25"/><rect x="5058.0" y="227.6" width="7.9" height="5.7" rx="1.2" fill="#e0f2fe" stroke="#0369a1" stroke-width="1.25"/><rect x="5058.0" y="234.7" width="7.9" height="5.7" rx="1.2" fill="#e0f2fe" stroke="#0369a1" stroke-width="1.25"/></g><text x="5006.0" y="271.5" text-anchor="middle" dominant-baseline="middle" fill="#0c4a6e" font-size="14.0" textLength="47.4" lengthAdjust="spacing">Lfm.Api</text></g></g></svg>

