<svg xmlns="http://www.w3.org/2000/svg" width="3202" height="800" viewBox="-12.0 -9.0 3202.0 800.0"><rect x="-12.0" y="-9.0" width="3202.0" height="800.0" fill="#ffffff"/><g font-family="Inter, Arial, sans-serif" font-size="14"><g data-dediren-group-id="production-release-local-gates"><rect x="12.0" y="104.5" width="273.0" height="268.0" rx="4" fill="#f8fafc" stroke="#94a3b8" stroke-width="1"/><text x="20.0" y="120.5" fill="#374151" font-size="12">Local repository gates</text></g><g data-dediren-group-id="production-release-orchestration"><rect x="453.0" y="186.0" width="775.0" height="565.0" rx="4" fill="#f8fafc" stroke="#94a3b8" stroke-width="1"/><text x="461.0" y="202.0" fill="#374151" font-size="12">Deploy orchestration</text></g><g data-dediren-group-id="production-release-quality-gates"><rect x="1436.0" y="159.5" width="338.0" height="268.0" rx="4" fill="#f8fafc" stroke="#94a3b8" stroke-width="1"/><text x="1444.0" y="175.5" fill="#374151" font-size="12">Deployment quality gates</text></g><g data-dediren-group-id="production-release-build-and-deploy"><rect x="2062.0" y="58.5" width="623.0" height="636.0" rx="4" fill="#f8fafc" stroke="#94a3b8" stroke-width="1"/><text x="2070.0" y="74.5" fill="#374151" font-size="12">Build and deploy stages</text></g><g data-dediren-group-id="production-release-deployed-runtime"><rect x="2893.0" y="79.0" width="273.0" height="688.0" rx="4" fill="#f8fafc" stroke="#94a3b8" stroke-width="1"/><text x="2901.0" y="95.0" fill="#374151" font-size="12">Production runtime</text></g><g data-dediren-edge-id="pre-commit-guards-repository"><path d="M 197.0 160.0 L 221.0 160.0 Q 229.0 160.0 229.0 168.0 L 229.0 201.0 Q 229.0 209.0 237.0 209.0 L 305.0 209.0 L 393.0 209.0 Q 401.0 209.0 401.0 217.0 L 401.0 242.0 Q 401.0 250.0 409.0 250.0 L 433.0 250.0 L 477.0 250.0" fill="none" stroke="#64748b" stroke-width="1.5" stroke-linecap="round" stroke-linejoin="round"/><text x="213.0" y="234.0" text-anchor="middle" fill="none" font-size="15.4" font-weight="600" stroke="#ffffff" stroke-width="2">blocks secret staging</text><text x="213.0" y="234.0" text-anchor="middle" fill="#374151" font-size="15.4" font-weight="600">blocks secret staging</text></g><g data-dediren-edge-id="pre-commit-complements-secret-scan"><g data-dediren-line-jump-masks="pre-commit-complements-secret-scan"><path d="M 223.0 177.0 Q 229.0 171.0 235.0 177.0" fill="none" stroke="#ffffff" stroke-width="6"/></g><path d="M 197.0 177.0 L 223.0 177.0 Q 229.0 171.0 235.0 177.0 L 305.0 177.0 L 329.0 177.0 Q 337.0 177.0 337.0 169.0 L 337.0 133.0 Q 337.0 125.0 345.0 125.0 L 369.0 125.0 L 1352.0 125.0 L 1376.0 125.0 Q 1384.0 125.0 1384.0 133.0 L 1384.0 207.0 Q 1384.0 215.0 1392.0 215.0 L 1416.0 215.0 L 1524.0 215.0" fill="none" stroke="#64748b" stroke-width="1.5" stroke-linecap="round" stroke-linejoin="round"/><text x="251.0" y="195.0" text-anchor="middle" fill="none" font-size="15.4" font-weight="600" stroke="#ffffff" stroke-width="2">local + CI secret controls</text><text x="251.0" y="195.0" text-anchor="middle" fill="#374151" font-size="15.4" font-weight="600">local + CI secret controls</text></g><g data-dediren-edge-id="pre-push-guards-repository"><path d="M 197.0 308.5 L 305.0 308.5 L 329.0 308.5 Q 337.0 308.5 337.0 300.5 L 337.0 258.0 Q 337.0 250.0 345.0 250.0 L 433.0 250.0 L 477.0 250.0" fill="none" stroke="#64748b" stroke-width="1.5" stroke-linecap="round" stroke-linejoin="round"/><text x="287.0" y="326.5" text-anchor="middle" fill="none" font-size="15.4" font-weight="600" stroke="#ffffff" stroke-width="2">local verification</text><text x="287.0" y="326.5" text-anchor="middle" fill="#374151" font-size="15.4" font-weight="600">local verification</text></g><g data-dediren-edge-id="repository-triggers-deploy-workflow"><marker id="marker-end-repository-triggers-deploy-workflow" data-dediren-edge-marker-end="filled_arrow" markerWidth="10" markerHeight="10" refX="5" refY="5" orient="auto"><path d="M 1 1 L 9 5 L 1 9 Z" fill="#b45309" stroke="#b45309" stroke-width="1"/></marker><path d="M 558.0 291.0 L 558.0 315.0 Q 558.0 323.0 566.0 323.0 L 830.0 323.0 Q 838.0 323.0 838.0 331.0 L 838.0 355.0" fill="none" stroke="#b45309" stroke-width="1.5" stroke-linecap="round" stroke-linejoin="round" marker-end="url(#marker-end-repository-triggers-deploy-workflow)"/><text x="698.0" y="341.0" text-anchor="middle" fill="none" font-size="15.4" font-weight="600" stroke="#ffffff" stroke-width="2">push/manual</text><text x="698.0" y="341.0" text-anchor="middle" fill="#92400e" font-size="15.4" font-weight="600">push/manual</text></g><g data-dediren-edge-id="deploy-workflow-composes-change-detection"><marker id="marker-start-deploy-workflow-composes-change-detection" data-dediren-edge-marker-start="filled_diamond" markerWidth="10" markerHeight="10" refX="5" refY="5" orient="auto"><path d="M 1 5 L 5 1 L 9 5 L 5 9 Z" fill="#475569" stroke="#475569" stroke-width="1"/></marker><path d="M 859.5 437.0 L 859.5 461.0 Q 859.5 469.0 867.5 469.0 L 1115.5 469.0 Q 1123.5 469.0 1123.5 477.0 L 1123.5 501.0" fill="none" stroke="#475569" stroke-width="1.5" stroke-linecap="round" stroke-linejoin="round" marker-start="url(#marker-start-deploy-workflow-composes-change-detection)"/><text x="991.5" y="487.0" text-anchor="middle" fill="none" font-size="15.4" font-weight="600" stroke="#ffffff" stroke-width="2">change filter</text><text x="991.5" y="487.0" text-anchor="middle" fill="#334155" font-size="15.4" font-weight="600">change filter</text></g><g data-dediren-edge-id="deploy-workflow-composes-infra"><marker id="marker-start-deploy-workflow-composes-infra" data-dediren-edge-marker-start="filled_diamond" markerWidth="10" markerHeight="10" refX="5" refY="5" orient="auto"><path d="M 1 5 L 5 1 L 9 5 L 5 9 Z" fill="#475569" stroke="#475569" stroke-width="1"/></marker><g data-dediren-line-jump-masks="deploy-workflow-composes-infra"><path d="M 1320.0 119.0 Q 1326.0 125.0 1320.0 131.0" fill="none" stroke="#ffffff" stroke-width="6"/></g><path d="M 919.0 387.5 L 943.0 387.5 Q 951.0 387.5 951.0 379.5 L 951.0 371.5 Q 951.0 363.5 959.0 363.5 L 983.0 363.5 L 1123.5 363.5 L 1248.0 363.5 L 1312.0 363.5 Q 1320.0 363.5 1320.0 355.5 L 1320.0 131.0 Q 1326.0 125.0 1320.0 119.0 L 1320.0 92.0 Q 1320.0 84.0 1328.0 84.0 L 1352.0 84.0 L 1858.0 84.0 L 1922.0 84.0 Q 1930.0 84.0 1930.0 92.0 L 1930.0 404.5 Q 1930.0 412.5 1938.0 412.5 L 2042.0 412.5 L 2110.0 412.5 Q 2118.0 412.5 2118.0 420.5 L 2118.0 423.8 Q 2118.0 431.8 2126.0 431.8 L 2150.0 431.8" fill="none" stroke="#475569" stroke-width="1.5" stroke-linecap="round" stroke-linejoin="round" marker-start="url(#marker-start-deploy-workflow-composes-infra)"/><text x="2134.0" y="505.8" text-anchor="middle" fill="none" font-size="15.4" font-weight="600" stroke="#ffffff" stroke-width="2">infra</text><text x="2134.0" y="505.8" text-anchor="middle" fill="#334155" font-size="15.4" font-weight="600">infra</text></g><g data-dediren-edge-id="deploy-workflow-composes-secret-scan"><marker id="marker-start-deploy-workflow-composes-secret-scan" data-dediren-edge-marker-start="filled_diamond" markerWidth="10" markerHeight="10" refX="5" refY="5" orient="auto"><path d="M 1 5 L 5 1 L 9 5 L 5 9 Z" fill="#475569" stroke="#475569" stroke-width="1"/></marker><path d="M 919.0 387.5 L 943.0 387.5 Q 951.0 387.5 951.0 379.5 L 951.0 371.5 Q 951.0 363.5 959.0 363.5 L 983.0 363.5 L 1123.5 363.5 L 1248.0 363.5 L 1312.0 363.5 Q 1320.0 363.5 1320.0 355.5 L 1320.0 255.0 Q 1320.0 247.0 1328.0 247.0 L 1416.0 247.0 L 1484.5 247.0 Q 1492.0 247.0 1492.0 239.5 L 1492.0 239.5 Q 1492.0 232.0 1499.5 232.0 L 1524.0 232.0" fill="none" stroke="#475569" stroke-width="1.5" stroke-linecap="round" stroke-linejoin="round" marker-start="url(#marker-start-deploy-workflow-composes-secret-scan)"/><text x="1508.0" y="306.0" text-anchor="middle" fill="none" font-size="15.4" font-weight="600" stroke="#ffffff" stroke-width="2">secret gate</text><text x="1508.0" y="306.0" text-anchor="middle" fill="#334155" font-size="15.4" font-weight="600">secret gate</text></g><g data-dediren-edge-id="deploy-workflow-composes-infra-analysis"><marker id="marker-start-deploy-workflow-composes-infra-analysis" data-dediren-edge-marker-start="filled_diamond" markerWidth="10" markerHeight="10" refX="5" refY="5" orient="auto"><path d="M 1 5 L 5 1 L 9 5 L 5 9 Z" fill="#475569" stroke="#475569" stroke-width="1"/></marker><path d="M 919.0 387.5 L 943.0 387.5 Q 951.0 387.5 951.0 379.5 L 951.0 371.5 Q 951.0 363.5 959.0 363.5 L 983.0 363.5 L 1123.5 363.5 L 1248.0 363.5 L 1416.0 363.5 L 1524.0 363.5" fill="none" stroke="#475569" stroke-width="1.5" stroke-linecap="round" stroke-linejoin="round" marker-start="url(#marker-start-deploy-workflow-composes-infra-analysis)"/><text x="1434.0" y="381.5" text-anchor="middle" fill="none" font-size="15.4" font-weight="600" stroke="#ffffff" stroke-width="2">infra analysis</text><text x="1434.0" y="381.5" text-anchor="middle" fill="#334155" font-size="15.4" font-weight="600">infra analysis</text></g><g data-dediren-edge-id="deploy-workflow-composes-build"><marker id="marker-start-deploy-workflow-composes-build" data-dediren-edge-marker-start="filled_diamond" markerWidth="10" markerHeight="10" refX="5" refY="5" orient="auto"><path d="M 1 5 L 5 1 L 9 5 L 5 9 Z" fill="#475569" stroke="#475569" stroke-width="1"/></marker><g data-dediren-line-jump-masks="deploy-workflow-composes-build"><path d="M 1320.0 119.0 Q 1326.0 125.0 1320.0 131.0" fill="none" stroke="#ffffff" stroke-width="6"/></g><path d="M 919.0 387.5 L 943.0 387.5 Q 951.0 387.5 951.0 379.5 L 951.0 371.5 Q 951.0 363.5 959.0 363.5 L 983.0 363.5 L 1123.5 363.5 L 1248.0 363.5 L 1312.0 363.5 Q 1320.0 363.5 1320.0 355.5 L 1320.0 131.0 Q 1326.0 125.0 1320.0 119.0 L 1320.0 92.0 Q 1320.0 84.0 1328.0 84.0 L 1352.0 84.0 L 1376.0 84.0 Q 1384.0 84.0 1384.0 76.0 L 1384.0 23.0 Q 1384.0 15.0 1392.0 15.0 L 1858.0 15.0 L 2002.0 15.0 Q 2010.0 15.0 2010.0 23.0 L 2010.0 123.0 Q 2010.0 131.0 2018.0 131.0 L 2042.0 131.0 L 2110.5 131.0 Q 2118.0 131.0 2118.0 138.5 L 2118.0 138.5 Q 2118.0 146.0 2125.5 146.0 L 2150.0 146.0" fill="none" stroke="#475569" stroke-width="1.5" stroke-linecap="round" stroke-linejoin="round" marker-start="url(#marker-start-deploy-workflow-composes-build)"/><text x="2134.0" y="220.0" text-anchor="middle" fill="none" font-size="15.4" font-weight="600" stroke="#ffffff" stroke-width="2">build</text><text x="2134.0" y="220.0" text-anchor="middle" fill="#334155" font-size="15.4" font-weight="600">build</text></g><g data-dediren-edge-id="deploy-workflow-composes-app"><marker id="marker-start-deploy-workflow-composes-app" data-dediren-edge-marker-start="filled_diamond" markerWidth="10" markerHeight="10" refX="5" refY="5" orient="auto"><path d="M 1 5 L 5 1 L 9 5 L 5 9 Z" fill="#475569" stroke="#475569" stroke-width="1"/></marker><path d="M 919.0 387.5 L 943.0 387.5 Q 951.0 387.5 951.0 379.5 L 951.0 371.5 Q 951.0 363.5 959.0 363.5 L 983.0 363.5 L 1123.5 363.5 L 1248.0 363.5 L 1312.0 363.5 Q 1320.0 363.5 1320.0 371.5 L 1320.0 622.5 Q 1320.0 630.5 1328.0 630.5 L 1352.0 630.5 L 1858.0 630.5 L 2042.0 630.5 L 2230.5 630.5 L 2375.0 630.5 L 2435.0 630.5" fill="none" stroke="#475569" stroke-width="1.5" stroke-linecap="round" stroke-linejoin="round" marker-start="url(#marker-start-deploy-workflow-composes-app)"/><text x="2405.0" y="648.5" text-anchor="middle" fill="none" font-size="15.4" font-weight="600" stroke="#ffffff" stroke-width="2">app</text><text x="2405.0" y="648.5" text-anchor="middle" fill="#334155" font-size="15.4" font-weight="600">app</text></g><g data-dediren-edge-id="deploy-infra-realizes-bicep"><marker id="marker-end-deploy-infra-realizes-bicep" data-dediren-edge-marker-end="hollow_triangle" markerWidth="10" markerHeight="10" refX="5" refY="5" orient="auto"><path d="M 1 1 L 9 5 L 1 9 Z" fill="#ffffff" stroke="#475569" stroke-width="1"/></marker><path d="M 2252.5 485.5 L 2252.5 509.5 Q 2252.5 517.5 2260.5 517.5 L 2335.0 517.5 Q 2343.0 517.5 2343.0 509.5 L 2343.0 90.5 Q 2343.0 82.5 2351.0 82.5 L 2508.0 82.5 Q 2516.0 82.5 2516.0 90.5 L 2516.0 114.5" fill="none" stroke="#475569" stroke-width="1.5" stroke-linecap="round" stroke-linejoin="round" stroke-dasharray="8 5" marker-end="url(#marker-end-deploy-infra-realizes-bicep)"/><text x="2297.8" y="507.5" text-anchor="middle" fill="none" font-size="15.4" font-weight="600" stroke="#ffffff" stroke-width="2">applies</text><text x="2297.8" y="507.5" text-anchor="middle" fill="#334155" font-size="15.4" font-weight="600">applies</text></g><g data-dediren-edge-id="deploy-build-realizes-functions-package"><marker id="marker-end-deploy-build-realizes-functions-package" data-dediren-edge-marker-end="hollow_triangle" markerWidth="10" markerHeight="10" refX="5" refY="5" orient="auto"><path d="M 1 1 L 9 5 L 1 9 Z" fill="#ffffff" stroke="#475569" stroke-width="1"/></marker><g data-dediren-line-jump-masks="deploy-build-realizes-functions-package"><path d="M 2337.0 372.5 Q 2343.0 366.5 2349.0 372.5" fill="none" stroke="#ffffff" stroke-width="6"/></g><path d="M 2252.5 195.5 L 2252.5 364.5 Q 2252.5 372.5 2260.5 372.5 L 2337.0 372.5 Q 2343.0 366.5 2349.0 372.5 L 2508.0 372.5 Q 2516.0 372.5 2516.0 380.5 L 2516.0 444.5" fill="none" stroke="#475569" stroke-width="1.5" stroke-linecap="round" stroke-linejoin="round" stroke-dasharray="8 5" marker-end="url(#marker-end-deploy-build-realizes-functions-package)"/><text x="2384.3" y="390.5" text-anchor="middle" fill="none" font-size="15.4" font-weight="600" stroke="#ffffff" stroke-width="2">builds</text><text x="2384.3" y="390.5" text-anchor="middle" fill="#334155" font-size="15.4" font-weight="600">builds</text></g><g data-dediren-edge-id="deploy-build-realizes-spa-package"><marker id="marker-end-deploy-build-realizes-spa-package" data-dediren-edge-marker-end="hollow_triangle" markerWidth="10" markerHeight="10" refX="5" refY="5" orient="auto"><path d="M 1 1 L 9 5 L 1 9 Z" fill="#ffffff" stroke="#475569" stroke-width="1"/></marker><g data-dediren-line-jump-masks="deploy-build-realizes-spa-package"><path d="M 2337.0 227.5 Q 2343.0 221.5 2349.0 227.5" fill="none" stroke="#ffffff" stroke-width="6"/><path d="M 2246.5 227.5 Q 2252.5 221.5 2258.5 227.5" fill="none" stroke="#ffffff" stroke-width="6"/></g><path d="M 2209.5 195.5 L 2209.5 219.5 Q 2209.5 227.5 2217.5 227.5 L 2246.5 227.5 Q 2252.5 221.5 2258.5 227.5 L 2337.0 227.5 Q 2343.0 221.5 2349.0 227.5 L 2508.0 227.5 Q 2516.0 227.5 2516.0 235.5 L 2516.0 259.5" fill="none" stroke="#475569" stroke-width="1.5" stroke-linecap="round" stroke-linejoin="round" stroke-dasharray="8 5" marker-end="url(#marker-end-deploy-build-realizes-spa-package)"/><text x="2362.8" y="245.5" text-anchor="middle" fill="none" font-size="15.4" font-weight="600" stroke="#ffffff" stroke-width="2">builds</text><text x="2362.8" y="245.5" text-anchor="middle" fill="#334155" font-size="15.4" font-weight="600">builds</text></g><g data-dediren-edge-id="secret-scan-triggers-build"><marker id="marker-end-secret-scan-triggers-build" data-dediren-edge-marker-end="filled_arrow" markerWidth="10" markerHeight="10" refX="5" refY="5" orient="auto"><path d="M 1 1 L 9 5 L 1 9 Z" fill="#b45309" stroke="#b45309" stroke-width="1"/></marker><g data-dediren-line-jump-masks="secret-scan-triggers-build"><path d="M 1826.0 78.0 Q 1832.0 84.0 1826.0 90.0" fill="none" stroke="#ffffff" stroke-width="6"/></g><path d="M 1686.0 215.0 L 1794.0 215.0 L 1818.0 215.0 Q 1826.0 215.0 1826.0 207.0 L 1826.0 90.0 Q 1832.0 84.0 1826.0 78.0 L 1826.0 56.0 Q 1826.0 48.0 1834.0 48.0 L 1962.0 48.0 Q 1970.0 48.0 1970.0 56.0 L 1970.0 155.0 Q 1970.0 163.0 1978.0 163.0 L 2042.0 163.0 L 2150.0 163.0" fill="none" stroke="#b45309" stroke-width="1.5" stroke-linecap="round" stroke-linejoin="round" marker-end="url(#marker-end-secret-scan-triggers-build)"/><text x="1740.0" y="233.0" text-anchor="middle" fill="none" font-size="15.4" font-weight="600" stroke="#ffffff" stroke-width="2">gate</text><text x="1740.0" y="233.0" text-anchor="middle" fill="#92400e" font-size="15.4" font-weight="600">gate</text></g><g data-dediren-edge-id="secret-scan-triggers-infra-deploy"><marker id="marker-end-secret-scan-triggers-infra-deploy" data-dediren-edge-marker-end="filled_arrow" markerWidth="10" markerHeight="10" refX="5" refY="5" orient="auto"><path d="M 1 1 L 9 5 L 1 9 Z" fill="#b45309" stroke="#b45309" stroke-width="1"/></marker><path d="M 1686.0 232.0 L 1710.5 232.0 Q 1718.0 232.0 1718.0 239.5 L 1718.0 239.5 Q 1718.0 247.0 1725.5 247.0 L 1794.0 247.0 L 1882.0 247.0 Q 1890.0 247.0 1890.0 255.0 L 1890.0 436.5 Q 1890.0 444.5 1898.0 444.5 L 2042.0 444.5 L 2150.0 444.5" fill="none" stroke="#b45309" stroke-width="1.5" stroke-linecap="round" stroke-linejoin="round" marker-end="url(#marker-end-secret-scan-triggers-infra-deploy)"/><text x="1702.0" y="306.0" text-anchor="middle" fill="none" font-size="15.4" font-weight="600" stroke="#ffffff" stroke-width="2">gate</text><text x="1702.0" y="306.0" text-anchor="middle" fill="#92400e" font-size="15.4" font-weight="600">gate</text></g><g data-dediren-edge-id="infrastructure-analysis-triggers-infra-deploy"><marker id="marker-end-infrastructure-analysis-triggers-infra-deploy" data-dediren-edge-marker-end="filled_arrow" markerWidth="10" markerHeight="10" refX="5" refY="5" orient="auto"><path d="M 1 1 L 9 5 L 1 9 Z" fill="#b45309" stroke="#b45309" stroke-width="1"/></marker><path d="M 1686.0 363.5 L 1794.0 363.5 L 1818.0 363.5 Q 1826.0 363.5 1826.0 371.5 L 1826.0 468.5 Q 1826.0 476.5 1834.0 476.5 L 2042.0 476.5 L 2110.0 476.5 Q 2118.0 476.5 2118.0 468.5 L 2118.0 465.3 Q 2118.0 457.3 2126.0 457.3 L 2150.0 457.3" fill="none" stroke="#b45309" stroke-width="1.5" stroke-linecap="round" stroke-linejoin="round" marker-end="url(#marker-end-infrastructure-analysis-triggers-infra-deploy)"/><text x="1740.0" y="381.5" text-anchor="middle" fill="none" font-size="15.4" font-weight="600" stroke="#ffffff" stroke-width="2">gate</text><text x="1740.0" y="381.5" text-anchor="middle" fill="#92400e" font-size="15.4" font-weight="600">gate</text></g><g data-dediren-edge-id="deploy-infra-triggers-app-deploy"><marker id="marker-end-deploy-infra-triggers-app-deploy" data-dediren-edge-marker-end="filled_arrow" markerWidth="10" markerHeight="10" refX="5" refY="5" orient="auto"><path d="M 1 1 L 9 5 L 1 9 Z" fill="#b45309" stroke="#b45309" stroke-width="1"/></marker><path d="M 2209.5 485.5 L 2209.5 549.5 Q 2209.5 557.5 2217.5 557.5 L 2508.0 557.5 Q 2516.0 557.5 2516.0 565.5 L 2516.0 589.5" fill="none" stroke="#b45309" stroke-width="1.5" stroke-linecap="round" stroke-linejoin="round" marker-end="url(#marker-end-deploy-infra-triggers-app-deploy)"/><text x="2362.8" y="575.5" text-anchor="middle" fill="none" font-size="15.4" font-weight="600" stroke="#ffffff" stroke-width="2">before app</text><text x="2362.8" y="575.5" text-anchor="middle" fill="#92400e" font-size="15.4" font-weight="600">before app</text></g><g data-dediren-edge-id="deploy-app-realizes-production"><marker id="marker-end-deploy-app-realizes-production" data-dediren-edge-marker-end="hollow_triangle" markerWidth="10" markerHeight="10" refX="5" refY="5" orient="auto"><path d="M 1 1 L 9 5 L 1 9 Z" fill="#ffffff" stroke="#475569" stroke-width="1"/></marker><path d="M 2597.0 630.5 L 2705.0 630.5 L 2729.0 630.5 Q 2737.0 630.5 2737.0 638.5 L 2737.0 682.5 Q 2737.0 690.5 2745.0 690.5 L 2799.0 690.5 Q 2801.0 690.5 2801.0 692.5 L 2801.0 692.5 Q 2801.0 694.5 2803.0 694.5 L 2873.0 694.5 L 2981.0 694.5" fill="none" stroke="#475569" stroke-width="1.5" stroke-linecap="round" stroke-linejoin="round" stroke-dasharray="8 5" marker-end="url(#marker-end-deploy-app-realizes-production)"/><text x="2651.0" y="648.5" text-anchor="middle" fill="none" font-size="15.4" font-weight="600" stroke="#ffffff" stroke-width="2">updates</text><text x="2651.0" y="648.5" text-anchor="middle" fill="#334155" font-size="15.4" font-weight="600">updates</text></g><g data-dediren-edge-id="release-gap-realized-by-deploy"><g data-dediren-line-jump-masks="release-gap-realized-by-deploy"><path d="M 1314.0 527.5 Q 1320.0 521.5 1326.0 527.5" fill="none" stroke="#ffffff" stroke-width="6"/></g><path d="M 919.0 404.5 L 983.0 404.5 L 1123.5 404.5 L 1248.0 404.5 L 1272.0 404.5 Q 1280.0 404.5 1280.0 412.5 L 1280.0 519.5 Q 1280.0 527.5 1288.0 527.5 L 1314.0 527.5 Q 1320.0 521.5 1326.0 527.5 L 1435.0 527.5" fill="none" stroke="#64748b" stroke-width="1.5" stroke-linecap="round" stroke-linejoin="round"/><text x="951.0" y="422.5" text-anchor="middle" fill="none" font-size="15.4" font-weight="600" stroke="#ffffff" stroke-width="2">closes</text><text x="951.0" y="422.5" text-anchor="middle" fill="#374151" font-size="15.4" font-weight="600">closes</text></g><g data-dediren-edge-id="deploy-workflow-triggers-event"><marker id="marker-end-deploy-workflow-triggers-event" data-dediren-edge-marker-end="filled_arrow" markerWidth="10" markerHeight="10" refX="5" refY="5" orient="auto"><path d="M 1 1 L 9 5 L 1 9 Z" fill="#b45309" stroke="#b45309" stroke-width="1"/></marker><path d="M 816.5 437.0 L 816.5 606.0 Q 816.5 614.0 824.5 614.0 L 1115.0 614.0 Q 1123.0 614.0 1123.0 622.0 L 1123.0 646.0" fill="none" stroke="#b45309" stroke-width="1.5" stroke-linecap="round" stroke-linejoin="round" marker-end="url(#marker-end-deploy-workflow-triggers-event)"/><text x="969.8" y="632.0" text-anchor="middle" fill="none" font-size="15.4" font-weight="600" stroke="#ffffff" stroke-width="2">deploys</text><text x="969.8" y="632.0" text-anchor="middle" fill="#92400e" font-size="15.4" font-weight="600">deploys</text></g><g data-dediren-edge-id="deploy-event-realizes-production"><path d="M 1204.0 687.0 L 1248.0 687.0 L 1272.0 687.0 Q 1280.0 687.0 1280.0 695.0 L 1280.0 718.5 Q 1280.0 726.5 1288.0 726.5 L 1352.0 726.5 L 1605.0 726.5 L 2373.5 726.5 L 2769.0 726.5 L 2873.0 726.5 L 2941.5 726.5 Q 2949.0 726.5 2949.0 719.0 L 2949.0 719.0 Q 2949.0 711.5 2956.5 711.5 L 2981.0 711.5" fill="none" stroke="#64748b" stroke-width="1.5" stroke-linecap="round" stroke-linejoin="round"/><text x="1226.0" y="761.0" text-anchor="middle" fill="none" font-size="15.4" font-weight="600" stroke="#ffffff" stroke-width="2">reaches</text><text x="1226.0" y="761.0" text-anchor="middle" fill="#374151" font-size="15.4" font-weight="600">reaches</text></g><g data-dediren-edge-id="bicep-deploys-static-web-apps"><marker id="marker-end-bicep-deploys-static-web-apps" data-dediren-edge-marker-end="hollow_triangle" markerWidth="10" markerHeight="10" refX="5" refY="5" orient="auto"><path d="M 1 1 L 9 5 L 1 9 Z" fill="#ffffff" stroke="#475569" stroke-width="1"/></marker><path d="M 2597.0 147.0 L 2621.5 147.0 Q 2629.0 147.0 2629.0 139.5 L 2629.0 139.5 Q 2629.0 132.0 2636.5 132.0 L 2705.0 132.0 L 2731.5 132.0 Q 2737.0 132.0 2737.0 137.5 L 2737.0 137.5 Q 2737.0 143.0 2742.5 143.0 L 2873.0 143.0 L 2981.0 143.0" fill="none" stroke="#475569" stroke-width="1.5" stroke-linecap="round" stroke-linejoin="round" stroke-dasharray="8 5" marker-end="url(#marker-end-bicep-deploys-static-web-apps)"/><text x="2613.0" y="109.0" text-anchor="middle" fill="none" font-size="15.4" font-weight="600" stroke="#ffffff" stroke-width="2">provisions</text><text x="2613.0" y="109.0" text-anchor="middle" fill="#334155" font-size="15.4" font-weight="600">provisions</text></g><g data-dediren-edge-id="bicep-deploys-function-app"><marker id="marker-end-bicep-deploys-function-app" data-dediren-edge-marker-end="hollow_triangle" markerWidth="10" markerHeight="10" refX="5" refY="5" orient="auto"><path d="M 1 1 L 9 5 L 1 9 Z" fill="#ffffff" stroke="#475569" stroke-width="1"/></marker><path d="M 2597.0 164.0 L 2705.0 164.0 L 2729.0 164.0 Q 2737.0 164.0 2737.0 172.0 L 2737.0 248.5 Q 2737.0 256.5 2745.0 256.5 L 2833.0 256.5 Q 2841.0 256.5 2841.0 264.5 L 2841.0 275.0 Q 2841.0 283.0 2849.0 283.0 L 2873.0 283.0 L 2981.0 283.0" fill="none" stroke="#475569" stroke-width="1.5" stroke-linecap="round" stroke-linejoin="round" stroke-dasharray="8 5" marker-end="url(#marker-end-bicep-deploys-function-app)"/><text x="2651.0" y="182.0" text-anchor="middle" fill="none" font-size="15.4" font-weight="600" stroke="#ffffff" stroke-width="2">provisions</text><text x="2651.0" y="182.0" text-anchor="middle" fill="#334155" font-size="15.4" font-weight="600">provisions</text></g><g data-dediren-edge-id="function-package-deploys-api"><marker id="marker-end-function-package-deploys-api" data-dediren-edge-marker-end="hollow_triangle" markerWidth="10" markerHeight="10" refX="5" refY="5" orient="auto"><path d="M 1 1 L 9 5 L 1 9 Z" fill="#ffffff" stroke="#475569" stroke-width="1"/></marker><path d="M 2597.0 485.5 L 2705.0 485.5 L 2729.0 485.5 Q 2737.0 485.5 2737.0 493.5 L 2737.0 555.0 Q 2737.0 563.0 2745.0 563.0 L 2873.0 563.0 L 2981.0 563.0" fill="none" stroke="#475569" stroke-width="1.5" stroke-linecap="round" stroke-linejoin="round" stroke-dasharray="8 5" marker-end="url(#marker-end-function-package-deploys-api)"/><text x="2651.0" y="503.5" text-anchor="middle" fill="none" font-size="15.4" font-weight="600" stroke="#ffffff" stroke-width="2">deploys</text><text x="2651.0" y="503.5" text-anchor="middle" fill="#334155" font-size="15.4" font-weight="600">deploys</text></g><g data-dediren-edge-id="spa-package-deploys-app"><marker id="marker-end-spa-package-deploys-app" data-dediren-edge-marker-end="hollow_triangle" markerWidth="10" markerHeight="10" refX="5" refY="5" orient="auto"><path d="M 1 1 L 9 5 L 1 9 Z" fill="#ffffff" stroke="#475569" stroke-width="1"/></marker><path d="M 2597.0 300.5 L 2705.0 300.5 L 2793.0 300.5 Q 2801.0 300.5 2801.0 308.5 L 2801.0 415.0 Q 2801.0 423.0 2809.0 423.0 L 2873.0 423.0 L 2981.0 423.0" fill="none" stroke="#475569" stroke-width="1.5" stroke-linecap="round" stroke-linejoin="round" stroke-dasharray="8 5" marker-end="url(#marker-end-spa-package-deploys-app)"/><text x="2651.0" y="318.5" text-anchor="middle" fill="none" font-size="15.4" font-weight="600" stroke="#ffffff" stroke-width="2">deploys</text><text x="2651.0" y="318.5" text-anchor="middle" fill="#334155" font-size="15.4" font-weight="600">deploys</text></g><g data-dediren-node-id="pre-commit-secret-guard"><rect data-dediren-node-shape="archimate_rounded_rectangle" x="36.0" y="128.5" width="160.0" height="80.0" rx="4" fill="#ffedd5" stroke="#ea580c" stroke-width="1.5"/><g data-dediren-node-decorator="archimate_work_package" data-dediren-icon-kind="work_package" data-dediren-icon-size="22"><path data-dediren-icon-part="work_package" d="M 168 137.5 L 190 137.5 L 179 153.34 Z" fill="#ffedd5" stroke="#ea580c" stroke-width="1.5"/></g><text x="116.0" y="173.2" text-anchor="middle" fill="#7c2d12">Pre-commit secret guard</text></g><g data-dediren-node-id="pre-push-verification-gate"><rect data-dediren-node-shape="archimate_rounded_rectangle" x="36.0" y="268.5" width="160.0" height="80.0" rx="4" fill="#ffedd5" stroke="#ea580c" stroke-width="1.5"/><g data-dediren-node-decorator="archimate_work_package" data-dediren-icon-kind="work_package" data-dediren-icon-size="22"><path data-dediren-icon-part="work_package" d="M 168 277.5 L 190 277.5 L 179 293.34 Z" fill="#ffedd5" stroke="#ea580c" stroke-width="1.5"/></g><text x="116.0" y="313.2" text-anchor="middle" fill="#7c2d12">Pre-push verification gate</text></g><g data-dediren-node-id="repository-baseline"><rect data-dediren-node-shape="archimate_rectangle" x="478.0" y="210.0" width="160.0" height="80.0" rx="0" fill="#fef9c3" stroke="#ca8a04" stroke-width="1.5"/><g data-dediren-node-decorator="archimate_plateau" data-dediren-icon-kind="plateau" data-dediren-icon-size="22"><path data-dediren-icon-part="plateau" d="M 610 219 L 632 219 L 621 234.84 Z" fill="#fef9c3" stroke="#ca8a04" stroke-width="1.5"/></g><text x="558.0" y="254.7" text-anchor="middle" fill="#713f12">Repository baseline</text></g><g data-dediren-node-id="production-plateau"><rect data-dediren-node-shape="archimate_rectangle" x="2982.0" y="663.0" width="160.0" height="80.0" rx="0" fill="#fef9c3" stroke="#ca8a04" stroke-width="1.5"/><g data-dediren-node-decorator="archimate_plateau" data-dediren-icon-kind="plateau" data-dediren-icon-size="22"><path data-dediren-icon-part="plateau" d="M 3114 672 L 3136 672 L 3125 687.84 Z" fill="#fef9c3" stroke="#ca8a04" stroke-width="1.5"/></g><text x="3062.0" y="707.7" text-anchor="middle" fill="#713f12">Production plateau</text></g><g data-dediren-node-id="release-to-production-gap"><rect data-dediren-node-shape="archimate_rectangle" x="1436.0" y="487.5" width="160.0" height="80.0" rx="0" fill="#fef3c7" stroke="#d97706" stroke-width="1.5"/><g data-dediren-node-decorator="archimate_gap" data-dediren-icon-kind="gap" data-dediren-icon-size="22"><path data-dediren-icon-part="gap" d="M 1568 496.5 L 1590 496.5 L 1579 512.34 Z" fill="#fef3c7" stroke="#d97706" stroke-width="1.5"/></g><text x="1516.0" y="532.2" text-anchor="middle" fill="#78350f">Release to production gap</text></g><g data-dediren-node-id="deploy-to-production-event"><rect data-dediren-node-shape="archimate_rounded_rectangle" x="1043.0" y="647.0" width="160.0" height="80.0" rx="4" fill="#ffedd5" stroke="#ea580c" stroke-width="1.5"/><g data-dediren-node-decorator="archimate_implementation_event" data-dediren-icon-kind="implementation_event" data-dediren-icon-size="22"><path data-dediren-icon-part="implementation_event" d="M 1175 656 L 1197 656 L 1186 671.84 Z" fill="#ffedd5" stroke="#ea580c" stroke-width="1.5"/></g><text x="1123.0" y="691.7" text-anchor="middle" fill="#7c2d12">Deploy to production</text></g><g data-dediren-node-id="deploy-workflow"><rect data-dediren-node-shape="archimate_rounded_rectangle" x="758.0" y="356.0" width="160.0" height="80.0" rx="4" fill="#ffedd5" stroke="#ea580c" stroke-width="1.5"/><g data-dediren-node-decorator="archimate_work_package" data-dediren-icon-kind="work_package" data-dediren-icon-size="22"><path data-dediren-icon-part="work_package" d="M 890 365 L 912 365 L 901 380.84 Z" fill="#ffedd5" stroke="#ea580c" stroke-width="1.5"/></g><text x="838.0" y="400.7" text-anchor="middle" fill="#7c2d12">Deploy workflow</text></g><g data-dediren-node-id="deploy-change-detection"><rect data-dediren-node-shape="archimate_rounded_rectangle" x="1043.5" y="502.0" width="160.0" height="80.0" rx="4" fill="#ffedd5" stroke="#ea580c" stroke-width="1.5"/><g data-dediren-node-decorator="archimate_work_package" data-dediren-icon-kind="work_package" data-dediren-icon-size="22"><path data-dediren-icon-part="work_package" d="M 1175.5 511 L 1197.5 511 L 1186.5 526.84 Z" fill="#ffedd5" stroke="#ea580c" stroke-width="1.5"/></g><text x="1123.5" y="546.7" text-anchor="middle" fill="#7c2d12">Detect deploy changes</text></g><g data-dediren-node-id="secret-scan-workflow"><rect data-dediren-node-shape="archimate_rounded_rectangle" x="1525.0" y="183.5" width="160.0" height="80.0" rx="4" fill="#ffedd5" stroke="#ea580c" stroke-width="1.5"/><g data-dediren-node-decorator="archimate_work_package" data-dediren-icon-kind="work_package" data-dediren-icon-size="22"><path data-dediren-icon-part="work_package" d="M 1657 192.5 L 1679 192.5 L 1668 208.34 Z" fill="#ffedd5" stroke="#ea580c" stroke-width="1.5"/></g><text x="1605.0" y="228.2" text-anchor="middle" fill="#7c2d12">Secret Scanning</text></g><g data-dediren-node-id="infrastructure-analysis-workflow"><rect data-dediren-node-shape="archimate_rounded_rectangle" x="1525.0" y="323.5" width="160.0" height="80.0" rx="4" fill="#ffedd5" stroke="#ea580c" stroke-width="1.5"/><g data-dediren-node-decorator="archimate_work_package" data-dediren-icon-kind="work_package" data-dediren-icon-size="22"><path data-dediren-icon-part="work_package" d="M 1657 332.5 L 1679 332.5 L 1668 348.34 Z" fill="#ffedd5" stroke="#ea580c" stroke-width="1.5"/></g><text x="1605.0" y="368.2" text-anchor="middle" fill="#7c2d12">Analyze Infrastructure</text></g><g data-dediren-node-id="deploy-infra-workflow"><rect data-dediren-node-shape="archimate_rounded_rectangle" x="2151.0" y="404.5" width="160.0" height="80.0" rx="4" fill="#ffedd5" stroke="#ea580c" stroke-width="1.5"/><g data-dediren-node-decorator="archimate_work_package" data-dediren-icon-kind="work_package" data-dediren-icon-size="22"><path data-dediren-icon-part="work_package" d="M 2283 413.5 L 2305 413.5 L 2294 429.34 Z" fill="#ffedd5" stroke="#ea580c" stroke-width="1.5"/></g><text x="2231.0" y="449.2" text-anchor="middle" fill="#7c2d12">Deploy Infrastructure</text></g><g data-dediren-node-id="deploy-app-build-workflow"><rect data-dediren-node-shape="archimate_rounded_rectangle" x="2151.0" y="114.5" width="160.0" height="80.0" rx="4" fill="#ffedd5" stroke="#ea580c" stroke-width="1.5"/><g data-dediren-node-decorator="archimate_work_package" data-dediren-icon-kind="work_package" data-dediren-icon-size="22"><path data-dediren-icon-part="work_package" d="M 2283 123.5 L 2305 123.5 L 2294 139.34 Z" fill="#ffedd5" stroke="#ea580c" stroke-width="1.5"/></g><text x="2231.0" y="159.2" text-anchor="middle" fill="#7c2d12">Deploy App - Build</text></g><g data-dediren-node-id="deploy-app-workflow"><rect data-dediren-node-shape="archimate_rounded_rectangle" x="2436.0" y="590.5" width="160.0" height="80.0" rx="4" fill="#ffedd5" stroke="#ea580c" stroke-width="1.5"/><g data-dediren-node-decorator="archimate_work_package" data-dediren-icon-kind="work_package" data-dediren-icon-size="22"><path data-dediren-icon-part="work_package" d="M 2568 599.5 L 2590 599.5 L 2579 615.34 Z" fill="#ffedd5" stroke="#ea580c" stroke-width="1.5"/></g><text x="2516.0" y="635.2" text-anchor="middle" fill="#7c2d12">Deploy App</text></g><g data-dediren-node-id="bicep-template"><rect data-dediren-node-shape="archimate_rectangle" x="2436.0" y="115.5" width="160.0" height="80.0" rx="0" fill="#fef3c7" stroke="#d97706" stroke-width="1.5"/><g data-dediren-node-decorator="archimate_deliverable" data-dediren-icon-kind="deliverable" data-dediren-icon-size="22"><path data-dediren-icon-part="deliverable" d="M 2568 124.5 L 2590 124.5 L 2579 140.34 Z" fill="#fef3c7" stroke="#d97706" stroke-width="1.5"/></g><text x="2516.0" y="160.2" text-anchor="middle" fill="#78350f">Bicep deployment</text></g><g data-dediren-node-id="function-app-package"><rect data-dediren-node-shape="archimate_rectangle" x="2436.0" y="445.5" width="160.0" height="80.0" rx="0" fill="#fef3c7" stroke="#d97706" stroke-width="1.5"/><g data-dediren-node-decorator="archimate_deliverable" data-dediren-icon-kind="deliverable" data-dediren-icon-size="22"><path data-dediren-icon-part="deliverable" d="M 2568 454.5 L 2590 454.5 L 2579 470.34 Z" fill="#fef3c7" stroke="#d97706" stroke-width="1.5"/></g><text x="2516.0" y="490.2" text-anchor="middle" fill="#78350f">Functions zip</text></g><g data-dediren-node-id="spa-wwwroot-package"><rect data-dediren-node-shape="archimate_rectangle" x="2436.0" y="260.5" width="160.0" height="80.0" rx="0" fill="#fef3c7" stroke="#d97706" stroke-width="1.5"/><g data-dediren-node-decorator="archimate_deliverable" data-dediren-icon-kind="deliverable" data-dediren-icon-size="22"><path data-dediren-icon-part="deliverable" d="M 2568 269.5 L 2590 269.5 L 2579 285.34 Z" fill="#fef3c7" stroke="#d97706" stroke-width="1.5"/></g><text x="2516.0" y="305.2" text-anchor="middle" fill="#78350f">SPA wwwroot bundle</text></g><g data-dediren-node-id="static-web-apps"><rect data-dediren-node-shape="archimate_rectangle" x="2982.0" y="103.0" width="160.0" height="80.0" rx="0" fill="#ecfdf3" stroke="#16a34a" stroke-width="1.5"/><g data-dediren-node-decorator="archimate_technology_node" data-dediren-icon-kind="node" data-dediren-icon-size="22"><rect x="3114.0" y="114.6" width="18.0" height="13.6" fill="#ecfdf3" stroke="#16a34a" stroke-width="1.5"/><path data-dediren-icon-part="node-3d-edges" d="M 3128.1 112.0 L 3136.0 112.0 L 3136.0 124.8 M 3132.0 114.6 L 3136.0 112.0" fill="none" stroke="#16a34a" stroke-width="1.5"/></g><text x="3062.0" y="147.7" text-anchor="middle" fill="#14532d">Azure Static Web Apps</text></g><g data-dediren-node-id="function-app"><rect data-dediren-node-shape="archimate_rectangle" x="2982.0" y="243.0" width="160.0" height="80.0" rx="0" fill="#ecfdf3" stroke="#16a34a" stroke-width="1.5"/><g data-dediren-node-decorator="archimate_technology_node" data-dediren-icon-kind="node" data-dediren-icon-size="22"><rect x="3114.0" y="254.6" width="18.0" height="13.6" fill="#ecfdf3" stroke="#16a34a" stroke-width="1.5"/><path data-dediren-icon-part="node-3d-edges" d="M 3128.1 252.0 L 3136.0 252.0 L 3136.0 264.8 M 3132.0 254.6 L 3136.0 252.0" fill="none" stroke="#16a34a" stroke-width="1.5"/></g><text x="3062.0" y="287.7" text-anchor="middle" fill="#14532d">Azure Function App</text></g><g data-dediren-node-id="lfm-app"><rect data-dediren-node-shape="archimate_rectangle" x="2982.0" y="383.0" width="160.0" height="80.0" rx="0" fill="#e8f3ff" stroke="#2563eb" stroke-width="1.5"/><g data-dediren-node-decorator="archimate_application_component" data-dediren-icon-kind="component" data-dediren-icon-size="22"><rect x="3118.8" y="393.8" width="15.8" height="14.1" fill="#e8f3ff" stroke="#2563eb" stroke-width="1.5"/><rect x="3114.0" y="396.4" width="6.2" height="4.0" fill="#e8f3ff" stroke="#2563eb" stroke-width="1.5"/><rect x="3114.0" y="402.6" width="6.2" height="4.0" fill="#e8f3ff" stroke="#2563eb" stroke-width="1.5"/></g><text x="3062.0" y="427.7" text-anchor="middle" fill="#172554">Lfm.App</text></g><g data-dediren-node-id="lfm-api"><rect data-dediren-node-shape="archimate_rectangle" x="2982.0" y="523.0" width="160.0" height="80.0" rx="0" fill="#e8f3ff" stroke="#2563eb" stroke-width="1.5"/><g data-dediren-node-decorator="archimate_application_component" data-dediren-icon-kind="component" data-dediren-icon-size="22"><rect x="3118.8" y="533.8" width="15.8" height="14.1" fill="#e8f3ff" stroke="#2563eb" stroke-width="1.5"/><rect x="3114.0" y="536.4" width="6.2" height="4.0" fill="#e8f3ff" stroke="#2563eb" stroke-width="1.5"/><rect x="3114.0" y="542.6" width="6.2" height="4.0" fill="#e8f3ff" stroke="#2563eb" stroke-width="1.5"/></g><text x="3062.0" y="567.7" text-anchor="middle" fill="#172554">Lfm.Api</text></g></g></svg>
