<svg xmlns="http://www.w3.org/2000/svg" role="img" width="3298" height="826" viewBox="-20 -49 3298 858" data-arch-a11y="root" data-arch-a11y-viewbox="-20.0 -17.0 3298.0 826.0"><title>LFM - Production Release Migration</title>
<desc>Which work packages and plateaus move LFM from repository baseline to production?</desc>
<text data-arch-a11y="visible-title" x="-12" y="-29" font-family="sans-serif" font-size="16" font-weight="bold">LFM - Production Release Migration</text><rect x="-20.0" y="-17.0" width="3298.0" height="826.0" fill="#ffffff"/><g font-family="Inter, &quot;Liberation Sans&quot;, &quot;Noto Sans&quot;, Arial, &quot;Helvetica Neue&quot;, &quot;Segoe UI&quot;, sans-serif" font-size="14"><g data-dediren-group-id="production-release-local-gates"><rect x="12.0" y="97.8" width="293.0" height="288.0" rx="8" fill="#f8fafc" stroke="#94a3b8" stroke-width="1"/><text x="20.0" y="113.8" fill="#334155" font-size="12">Local repository gates</text></g><g data-dediren-group-id="production-release-orchestration"><rect x="473.0" y="186.0" width="775.0" height="565.0" rx="8" fill="#f8fafc" stroke="#94a3b8" stroke-width="1"/><text x="481.0" y="202.0" fill="#334155" font-size="12">Deploy orchestration</text></g><g data-dediren-group-id="production-release-quality-gates"><rect x="1456.0" y="159.5" width="368.0" height="268.0" rx="8" fill="#f8fafc" stroke="#94a3b8" stroke-width="1"/><text x="1464.0" y="175.5" fill="#334155" font-size="12">Deployment quality gates</text></g><g data-dediren-group-id="production-release-build-and-deploy"><rect x="2112.0" y="68.5" width="653.0" height="636.0" rx="8" fill="#f8fafc" stroke="#94a3b8" stroke-width="1"/><text x="2120.0" y="84.5" fill="#334155" font-size="12">Build and deploy stages</text></g><g data-dediren-group-id="production-release-deployed-runtime"><rect x="2973.0" y="89.0" width="273.0" height="688.0" rx="8" fill="#f8fafc" stroke="#94a3b8" stroke-width="1"/><text x="2981.0" y="105.0" fill="#334155" font-size="12">Production runtime</text></g><g data-dediren-edge-id="pre-commit-guards-repository"><path d="M 217.0 156.7 L 241.0 156.7 Q 249.0 156.7 249.0 164.7 L 249.0 201.0 Q 249.0 209.0 257.0 209.0 L 325.0 209.0 L 413.0 209.0 Q 421.0 209.0 421.0 217.0 L 421.0 242.0 Q 421.0 250.0 429.0 250.0 L 453.0 250.0 L 497.0 250.0" fill="none" stroke="#475569" stroke-width="1.25" stroke-linecap="round" stroke-linejoin="round"/><text x="233.0" y="62.7" text-anchor="middle" fill="none" font-size="15.4" font-weight="600" stroke="#ffffff" stroke-width="2">blocks secret staging</text><text x="233.0" y="62.7" text-anchor="middle" fill="#374151" font-size="15.4" font-weight="600">blocks secret staging</text></g><g data-dediren-edge-id="pre-commit-complements-secret-scan"><g data-dediren-line-jump-masks="pre-commit-complements-secret-scan"><path d="M 243.0 177.0 Q 249.0 171.0 255.0 177.0" fill="none" stroke="#f8fafc" stroke-width="6"/></g><path d="M 217.0 177.0 L 243.0 177.0 Q 249.0 171.0 255.0 177.0 L 325.0 177.0 L 349.0 177.0 Q 357.0 177.0 357.0 169.0 L 357.0 133.0 Q 357.0 125.0 365.0 125.0 L 389.0 125.0 L 1372.0 125.0 L 1396.0 125.0 Q 1404.0 125.0 1404.0 133.0 L 1404.0 207.0 Q 1404.0 215.0 1412.0 215.0 L 1436.0 215.0 L 1559.0 215.0" fill="none" stroke="#475569" stroke-width="1.25" stroke-linecap="round" stroke-linejoin="round"/><text x="363.0" y="151.0" text-anchor="start" fill="none" font-size="15.4" font-weight="600" stroke="#ffffff" stroke-width="2">local + CI secret controls</text><text x="363.0" y="151.0" text-anchor="start" fill="#374151" font-size="15.4" font-weight="600">local + CI secret controls</text></g><g data-dediren-edge-id="pre-push-guards-repository"><path d="M 217.0 316.8 L 325.0 316.8 L 349.0 316.8 Q 357.0 316.8 357.0 308.8 L 357.0 258.0 Q 357.0 250.0 365.0 250.0 L 453.0 250.0 L 497.0 250.0" fill="none" stroke="#475569" stroke-width="1.25" stroke-linecap="round" stroke-linejoin="round"/><text x="271.0" y="418.8" text-anchor="middle" fill="none" font-size="15.4" font-weight="600" stroke="#ffffff" stroke-width="2">local verification</text><text x="271.0" y="418.8" text-anchor="middle" fill="#374151" font-size="15.4" font-weight="600">local verification</text></g><g data-dediren-edge-id="repository-triggers-deploy-workflow"><marker id="marker-end-repository-triggers-deploy-workflow" data-dediren-edge-marker-end="open_arrow" markerWidth="10" markerHeight="10" refX="9" refY="5" orient="auto"><path d="M 1 1 L 9 5 L 1 9" fill="none" stroke="#475569" stroke-width="1.5"/></marker><path d="M 578.0 291.0 L 578.0 315.0 Q 578.0 323.0 586.0 323.0 L 850.0 323.0 Q 858.0 323.0 858.0 331.0 L 858.0 355.0" fill="none" stroke="#475569" stroke-width="1.25" stroke-linecap="round" stroke-linejoin="round" marker-end="url(#marker-end-repository-triggers-deploy-workflow)"/><text x="718.0" y="341.0" text-anchor="middle" fill="none" font-size="15.4" font-weight="600" stroke="#ffffff" stroke-width="2">push/manual</text><text x="718.0" y="341.0" text-anchor="middle" fill="#374151" font-size="15.4" font-weight="600">push/manual</text></g><g data-dediren-edge-id="deploy-workflow-composes-change-detection"><marker id="marker-start-deploy-workflow-composes-change-detection" data-dediren-edge-marker-start="filled_diamond" markerWidth="10" markerHeight="10" refX="1" refY="5" orient="auto"><path d="M 1 5 L 5 1 L 9 5 L 5 9 Z" fill="#475569" stroke="#475569" stroke-width="1"/></marker><path d="M 879.5 437.0 L 879.5 461.0 Q 879.5 469.0 887.5 469.0 L 1135.5 469.0 Q 1143.5 469.0 1143.5 477.0 L 1143.5 501.0" fill="none" stroke="#475569" stroke-width="1.25" stroke-linecap="round" stroke-linejoin="round" marker-start="url(#marker-start-deploy-workflow-composes-change-detection)"/><text x="1011.5" y="487.0" text-anchor="middle" fill="none" font-size="15.4" font-weight="600" stroke="#ffffff" stroke-width="2">change filter</text><text x="1011.5" y="487.0" text-anchor="middle" fill="#374151" font-size="15.4" font-weight="600">change filter</text></g><g data-dediren-edge-id="deploy-workflow-composes-infra"><marker id="marker-start-deploy-workflow-composes-infra" data-dediren-edge-marker-start="filled_diamond" markerWidth="10" markerHeight="10" refX="1" refY="5" orient="auto"><path d="M 1 5 L 5 1 L 9 5 L 5 9 Z" fill="#475569" stroke="#475569" stroke-width="1"/></marker><g data-dediren-line-jump-masks="deploy-workflow-composes-infra"><path d="M 1340.0 119.0 Q 1346.0 125.0 1340.0 131.0" fill="none" stroke="#ffffff" stroke-width="6"/></g><path d="M 939.0 387.5 L 963.0 387.5 Q 971.0 387.5 971.0 379.5 L 971.0 371.5 Q 971.0 363.5 979.0 363.5 L 1003.0 363.5 L 1143.5 363.5 L 1268.0 363.5 L 1332.0 363.5 Q 1340.0 363.5 1340.0 355.5 L 1340.0 131.0 Q 1346.0 125.0 1340.0 119.0 L 1340.0 92.0 Q 1340.0 84.0 1348.0 84.0 L 1372.0 84.0 L 1908.0 84.0 L 1972.0 84.0 Q 1980.0 84.0 1980.0 92.0 L 1980.0 414.5 Q 1980.0 422.5 1988.0 422.5 L 2092.0 422.5 L 2160.0 422.5 Q 2168.0 422.5 2168.0 430.5 L 2168.0 433.8 Q 2168.0 441.8 2176.0 441.8 L 2200.0 441.8" fill="none" stroke="#475569" stroke-width="1.25" stroke-linecap="round" stroke-linejoin="round" marker-start="url(#marker-start-deploy-workflow-composes-infra)"/><text x="2184.0" y="403.8" text-anchor="middle" fill="none" font-size="15.4" font-weight="600" stroke="#ffffff" stroke-width="2">infra</text><text x="2184.0" y="403.8" text-anchor="middle" fill="#374151" font-size="15.4" font-weight="600">infra</text></g><g data-dediren-edge-id="deploy-workflow-composes-secret-scan"><marker id="marker-start-deploy-workflow-composes-secret-scan" data-dediren-edge-marker-start="filled_diamond" markerWidth="10" markerHeight="10" refX="1" refY="5" orient="auto"><path d="M 1 5 L 5 1 L 9 5 L 5 9 Z" fill="#475569" stroke="#475569" stroke-width="1"/></marker><path d="M 939.0 387.5 L 963.0 387.5 Q 971.0 387.5 971.0 379.5 L 971.0 371.5 Q 971.0 363.5 979.0 363.5 L 1003.0 363.5 L 1143.5 363.5 L 1268.0 363.5 L 1332.0 363.5 Q 1340.0 363.5 1340.0 355.5 L 1340.0 255.0 Q 1340.0 247.0 1348.0 247.0 L 1436.0 247.0 L 1504.5 247.0 Q 1512.0 247.0 1512.0 239.5 L 1512.0 239.5 Q 1512.0 232.0 1519.5 232.0 L 1559.0 232.0" fill="none" stroke="#475569" stroke-width="1.25" stroke-linecap="round" stroke-linejoin="round" marker-start="url(#marker-start-deploy-workflow-composes-secret-scan)"/><text x="1450.0" y="239.5" text-anchor="end" fill="none" font-size="15.4" font-weight="600" stroke="#ffffff" stroke-width="2">secret gate</text><text x="1450.0" y="239.5" text-anchor="end" fill="#374151" font-size="15.4" font-weight="600">secret gate</text></g><g data-dediren-edge-id="deploy-workflow-composes-infra-analysis"><marker id="marker-start-deploy-workflow-composes-infra-analysis" data-dediren-edge-marker-start="filled_diamond" markerWidth="10" markerHeight="10" refX="1" refY="5" orient="auto"><path d="M 1 5 L 5 1 L 9 5 L 5 9 Z" fill="#475569" stroke="#475569" stroke-width="1"/></marker><path d="M 939.0 387.5 L 963.0 387.5 Q 971.0 387.5 971.0 379.5 L 971.0 371.5 Q 971.0 363.5 979.0 363.5 L 1003.0 363.5 L 1143.5 363.5 L 1268.0 363.5 L 1436.0 363.5 L 1544.0 363.5" fill="none" stroke="#475569" stroke-width="1.25" stroke-linecap="round" stroke-linejoin="round" marker-start="url(#marker-start-deploy-workflow-composes-infra-analysis)"/><text x="1490.0" y="465.5" text-anchor="middle" fill="none" font-size="15.4" font-weight="600" stroke="#ffffff" stroke-width="2">infra analysis</text><text x="1490.0" y="465.5" text-anchor="middle" fill="#374151" font-size="15.4" font-weight="600">infra analysis</text></g><g data-dediren-edge-id="deploy-workflow-composes-build"><marker id="marker-start-deploy-workflow-composes-build" data-dediren-edge-marker-start="filled_diamond" markerWidth="10" markerHeight="10" refX="1" refY="5" orient="auto"><path d="M 1 5 L 5 1 L 9 5 L 5 9 Z" fill="#475569" stroke="#475569" stroke-width="1"/></marker><g data-dediren-line-jump-masks="deploy-workflow-composes-build"><path d="M 1340.0 119.0 Q 1346.0 125.0 1340.0 131.0" fill="none" stroke="#ffffff" stroke-width="6"/></g><path d="M 939.0 387.5 L 963.0 387.5 Q 971.0 387.5 971.0 379.5 L 971.0 371.5 Q 971.0 363.5 979.0 363.5 L 1003.0 363.5 L 1143.5 363.5 L 1268.0 363.5 L 1332.0 363.5 Q 1340.0 363.5 1340.0 355.5 L 1340.0 131.0 Q 1346.0 125.0 1340.0 119.0 L 1340.0 92.0 Q 1340.0 84.0 1348.0 84.0 L 1372.0 84.0 L 1396.0 84.0 Q 1404.0 84.0 1404.0 76.0 L 1404.0 23.0 Q 1404.0 15.0 1412.0 15.0 L 1908.0 15.0 L 2052.0 15.0 Q 2060.0 15.0 2060.0 23.0 L 2060.0 133.0 Q 2060.0 141.0 2068.0 141.0 L 2092.0 141.0 L 2160.5 141.0 Q 2168.0 141.0 2168.0 148.5 L 2168.0 148.5 Q 2168.0 156.0 2175.5 156.0 L 2200.0 156.0" fill="none" stroke="#475569" stroke-width="1.25" stroke-linecap="round" stroke-linejoin="round" marker-start="url(#marker-start-deploy-workflow-composes-build)"/><text x="2184.0" y="118.0" text-anchor="middle" fill="none" font-size="15.4" font-weight="600" stroke="#ffffff" stroke-width="2">build</text><text x="2184.0" y="118.0" text-anchor="middle" fill="#374151" font-size="15.4" font-weight="600">build</text></g><g data-dediren-edge-id="deploy-workflow-composes-app"><marker id="marker-start-deploy-workflow-composes-app" data-dediren-edge-marker-start="filled_diamond" markerWidth="10" markerHeight="10" refX="1" refY="5" orient="auto"><path d="M 1 5 L 5 1 L 9 5 L 5 9 Z" fill="#475569" stroke="#475569" stroke-width="1"/></marker><path d="M 939.0 387.5 L 963.0 387.5 Q 971.0 387.5 971.0 379.5 L 971.0 371.5 Q 971.0 363.5 979.0 363.5 L 1003.0 363.5 L 1143.5 363.5 L 1268.0 363.5 L 1332.0 363.5 Q 1340.0 363.5 1340.0 371.5 L 1340.0 632.5 Q 1340.0 640.5 1348.0 640.5 L 1372.0 640.5 L 1908.0 640.5 L 2092.0 640.5 L 2295.5 640.5 L 2455.0 640.5 L 2515.0 640.5" fill="none" stroke="#475569" stroke-width="1.25" stroke-linecap="round" stroke-linejoin="round" marker-start="url(#marker-start-deploy-workflow-composes-app)"/><text x="2485.0" y="658.5" text-anchor="middle" fill="none" font-size="15.4" font-weight="600" stroke="#ffffff" stroke-width="2">app</text><text x="2485.0" y="658.5" text-anchor="middle" fill="#374151" font-size="15.4" font-weight="600">app</text></g><g data-dediren-edge-id="deploy-infra-realizes-bicep"><marker id="marker-end-deploy-infra-realizes-bicep" data-dediren-edge-marker-end="hollow_triangle" markerWidth="10" markerHeight="10" refX="9" refY="5" orient="auto"><path d="M 1 1 L 9 5 L 1 9 Z" fill="#ffffff" stroke="#374151" stroke-width="1"/></marker><path d="M 2322.5 495.5 L 2322.5 519.5 Q 2322.5 527.5 2330.5 527.5 L 2415.0 527.5 Q 2423.0 527.5 2423.0 519.5 L 2423.0 100.5 Q 2423.0 92.5 2431.0 92.5 L 2588.0 92.5 Q 2596.0 92.5 2596.0 100.5 L 2596.0 124.5" fill="none" stroke="#374151" stroke-width="1.5" stroke-linecap="round" stroke-linejoin="round" stroke-dasharray="8 5" marker-end="url(#marker-end-deploy-infra-realizes-bicep)"/><text x="2372.8" y="517.5" text-anchor="middle" fill="none" font-size="15.4" font-weight="600" stroke="#ffffff" stroke-width="2">applies</text><text x="2372.8" y="517.5" text-anchor="middle" fill="#374151" font-size="15.4" font-weight="600">applies</text></g><g data-dediren-edge-id="deploy-build-realizes-functions-package"><marker id="marker-end-deploy-build-realizes-functions-package" data-dediren-edge-marker-end="hollow_triangle" markerWidth="10" markerHeight="10" refX="9" refY="5" orient="auto"><path d="M 1 1 L 9 5 L 1 9 Z" fill="#ffffff" stroke="#374151" stroke-width="1"/></marker><g data-dediren-line-jump-masks="deploy-build-realizes-functions-package"><path d="M 2417.0 382.5 Q 2423.0 376.5 2429.0 382.5" fill="none" stroke="#f8fafc" stroke-width="6"/></g><path d="M 2302.5 205.5 L 2302.5 374.5 Q 2302.5 382.5 2310.5 382.5 L 2417.0 382.5 Q 2423.0 376.5 2429.0 382.5 L 2588.0 382.5 Q 2596.0 382.5 2596.0 390.5 L 2596.0 454.5" fill="none" stroke="#374151" stroke-width="1.5" stroke-linecap="round" stroke-linejoin="round" stroke-dasharray="8 5" marker-end="url(#marker-end-deploy-build-realizes-functions-package)"/><text x="2320.5" y="400.5" text-anchor="middle" fill="none" font-size="15.4" font-weight="600" stroke="#ffffff" stroke-width="2">builds</text><text x="2320.5" y="400.5" text-anchor="middle" fill="#374151" font-size="15.4" font-weight="600">builds</text></g><g data-dediren-edge-id="deploy-build-realizes-spa-package"><marker id="marker-end-deploy-build-realizes-spa-package" data-dediren-edge-marker-end="hollow_triangle" markerWidth="10" markerHeight="10" refX="9" refY="5" orient="auto"><path d="M 1 1 L 9 5 L 1 9 Z" fill="#ffffff" stroke="#374151" stroke-width="1"/></marker><g data-dediren-line-jump-masks="deploy-build-realizes-spa-package"><path d="M 2417.0 237.5 Q 2423.0 231.5 2429.0 237.5" fill="none" stroke="#f8fafc" stroke-width="6"/><path d="M 2296.5 237.5 Q 2302.5 231.5 2308.5 237.5" fill="none" stroke="#f8fafc" stroke-width="6"/></g><path d="M 2259.5 205.5 L 2259.5 229.5 Q 2259.5 237.5 2267.5 237.5 L 2296.5 237.5 Q 2302.5 231.5 2308.5 237.5 L 2417.0 237.5 Q 2423.0 231.5 2429.0 237.5 L 2588.0 237.5 Q 2596.0 237.5 2596.0 245.5 L 2596.0 269.5" fill="none" stroke="#374151" stroke-width="1.5" stroke-linecap="round" stroke-linejoin="round" stroke-dasharray="8 5" marker-end="url(#marker-end-deploy-build-realizes-spa-package)"/><text x="2578.0" y="255.5" text-anchor="middle" fill="none" font-size="15.4" font-weight="600" stroke="#ffffff" stroke-width="2">builds</text><text x="2578.0" y="255.5" text-anchor="middle" fill="#374151" font-size="15.4" font-weight="600">builds</text></g><g data-dediren-edge-id="secret-scan-triggers-build"><marker id="marker-end-secret-scan-triggers-build" data-dediren-edge-marker-end="open_arrow" markerWidth="10" markerHeight="10" refX="9" refY="5" orient="auto"><path d="M 1 1 L 9 5 L 1 9" fill="none" stroke="#475569" stroke-width="1.5"/></marker><g data-dediren-line-jump-masks="secret-scan-triggers-build"><path d="M 1876.0 78.0 Q 1882.0 84.0 1876.0 90.0" fill="none" stroke="#ffffff" stroke-width="6"/></g><path d="M 1721.0 215.0 L 1844.0 215.0 L 1868.0 215.0 Q 1876.0 215.0 1876.0 207.0 L 1876.0 90.0 Q 1882.0 84.0 1876.0 78.0 L 1876.0 56.0 Q 1876.0 48.0 1884.0 48.0 L 2012.0 48.0 Q 2020.0 48.0 2020.0 56.0 L 2020.0 165.0 Q 2020.0 173.0 2028.0 173.0 L 2092.0 173.0 L 2200.0 173.0" fill="none" stroke="#475569" stroke-width="1.25" stroke-linecap="round" stroke-linejoin="round" marker-end="url(#marker-end-secret-scan-triggers-build)"/><text x="1782.5" y="205.0" text-anchor="middle" fill="none" font-size="15.4" font-weight="600" stroke="#ffffff" stroke-width="2">gate</text><text x="1782.5" y="205.0" text-anchor="middle" fill="#374151" font-size="15.4" font-weight="600">gate</text></g><g data-dediren-edge-id="secret-scan-triggers-infra-deploy"><marker id="marker-end-secret-scan-triggers-infra-deploy" data-dediren-edge-marker-end="open_arrow" markerWidth="10" markerHeight="10" refX="9" refY="5" orient="auto"><path d="M 1 1 L 9 5 L 1 9" fill="none" stroke="#475569" stroke-width="1.5"/></marker><path d="M 1721.0 232.0 L 1760.5 232.0 Q 1768.0 232.0 1768.0 239.5 L 1768.0 239.5 Q 1768.0 247.0 1775.5 247.0 L 1844.0 247.0 L 1932.0 247.0 Q 1940.0 247.0 1940.0 255.0 L 1940.0 446.5 Q 1940.0 454.5 1948.0 454.5 L 2092.0 454.5 L 2200.0 454.5" fill="none" stroke="#475569" stroke-width="1.25" stroke-linecap="round" stroke-linejoin="round" marker-end="url(#marker-end-secret-scan-triggers-infra-deploy)"/><text x="1744.5" y="250.0" text-anchor="middle" fill="none" font-size="15.4" font-weight="600" stroke="#ffffff" stroke-width="2">gate</text><text x="1744.5" y="250.0" text-anchor="middle" fill="#374151" font-size="15.4" font-weight="600">gate</text></g><g data-dediren-edge-id="infrastructure-analysis-triggers-infra-deploy"><marker id="marker-end-infrastructure-analysis-triggers-infra-deploy" data-dediren-edge-marker-end="open_arrow" markerWidth="10" markerHeight="10" refX="9" refY="5" orient="auto"><path d="M 1 1 L 9 5 L 1 9" fill="none" stroke="#475569" stroke-width="1.5"/></marker><path d="M 1736.0 363.5 L 1844.0 363.5 L 1868.0 363.5 Q 1876.0 363.5 1876.0 371.5 L 1876.0 478.5 Q 1876.0 486.5 1884.0 486.5 L 2092.0 486.5 L 2160.0 486.5 Q 2168.0 486.5 2168.0 478.5 L 2168.0 475.3 Q 2168.0 467.3 2176.0 467.3 L 2200.0 467.3" fill="none" stroke="#475569" stroke-width="1.25" stroke-linecap="round" stroke-linejoin="round" marker-end="url(#marker-end-infrastructure-analysis-triggers-infra-deploy)"/><text x="1790.0" y="381.5" text-anchor="middle" fill="none" font-size="15.4" font-weight="600" stroke="#ffffff" stroke-width="2">gate</text><text x="1790.0" y="381.5" text-anchor="middle" fill="#374151" font-size="15.4" font-weight="600">gate</text></g><g data-dediren-edge-id="deploy-infra-triggers-app-deploy"><marker id="marker-end-deploy-infra-triggers-app-deploy" data-dediren-edge-marker-end="open_arrow" markerWidth="10" markerHeight="10" refX="9" refY="5" orient="auto"><path d="M 1 1 L 9 5 L 1 9" fill="none" stroke="#475569" stroke-width="1.5"/></marker><path d="M 2269.5 495.5 L 2269.5 559.5 Q 2269.5 567.5 2277.5 567.5 L 2588.0 567.5 Q 2596.0 567.5 2596.0 575.5 L 2596.0 599.5" fill="none" stroke="#475569" stroke-width="1.25" stroke-linecap="round" stroke-linejoin="round" marker-end="url(#marker-end-deploy-infra-triggers-app-deploy)"/><text x="2432.8" y="585.5" text-anchor="middle" fill="none" font-size="15.4" font-weight="600" stroke="#ffffff" stroke-width="2">before app</text><text x="2432.8" y="585.5" text-anchor="middle" fill="#374151" font-size="15.4" font-weight="600">before app</text></g><g data-dediren-edge-id="deploy-app-realizes-production"><marker id="marker-end-deploy-app-realizes-production" data-dediren-edge-marker-end="hollow_triangle" markerWidth="10" markerHeight="10" refX="9" refY="5" orient="auto"><path d="M 1 1 L 9 5 L 1 9 Z" fill="#ffffff" stroke="#374151" stroke-width="1"/></marker><path d="M 2677.0 640.5 L 2785.0 640.5 L 2809.0 640.5 Q 2817.0 640.5 2817.0 648.5 L 2817.0 692.5 Q 2817.0 700.5 2825.0 700.5 L 2879.0 700.5 Q 2881.0 700.5 2881.0 702.5 L 2881.0 702.5 Q 2881.0 704.5 2883.0 704.5 L 2953.0 704.5 L 3061.0 704.5" fill="none" stroke="#374151" stroke-width="1.5" stroke-linecap="round" stroke-linejoin="round" stroke-dasharray="8 5" marker-end="url(#marker-end-deploy-app-realizes-production)"/><text x="2823.0" y="670.5" text-anchor="start" fill="none" font-size="15.4" font-weight="600" stroke="#ffffff" stroke-width="2">updates</text><text x="2823.0" y="670.5" text-anchor="start" fill="#374151" font-size="15.4" font-weight="600">updates</text></g><g data-dediren-edge-id="release-gap-realized-by-deploy"><g data-dediren-line-jump-masks="release-gap-realized-by-deploy"><path d="M 1334.0 532.5 Q 1340.0 526.5 1346.0 532.5" fill="none" stroke="#ffffff" stroke-width="6"/></g><path d="M 939.0 404.5 L 1003.0 404.5 L 1143.5 404.5 L 1268.0 404.5 L 1292.0 404.5 Q 1300.0 404.5 1300.0 412.5 L 1300.0 524.5 Q 1300.0 532.5 1308.0 532.5 L 1334.0 532.5 Q 1340.0 526.5 1346.0 532.5 L 1455.0 532.5" fill="none" stroke="#475569" stroke-width="1.25" stroke-linecap="round" stroke-linejoin="round"/><text x="971.0" y="422.5" text-anchor="middle" fill="none" font-size="15.4" font-weight="600" stroke="#ffffff" stroke-width="2">closes</text><text x="971.0" y="422.5" text-anchor="middle" fill="#374151" font-size="15.4" font-weight="600">closes</text></g><g data-dediren-edge-id="deploy-workflow-triggers-event"><marker id="marker-end-deploy-workflow-triggers-event" data-dediren-edge-marker-end="open_arrow" markerWidth="10" markerHeight="10" refX="9" refY="5" orient="auto"><path d="M 1 1 L 9 5 L 1 9" fill="none" stroke="#475569" stroke-width="1.5"/></marker><path d="M 836.5 437.0 L 836.5 606.0 Q 836.5 614.0 844.5 614.0 L 1135.0 614.0 Q 1143.0 614.0 1143.0 622.0 L 1143.0 646.0" fill="none" stroke="#475569" stroke-width="1.25" stroke-linecap="round" stroke-linejoin="round" marker-end="url(#marker-end-deploy-workflow-triggers-event)"/><text x="989.8" y="632.0" text-anchor="middle" fill="none" font-size="15.4" font-weight="600" stroke="#ffffff" stroke-width="2">deploys</text><text x="989.8" y="632.0" text-anchor="middle" fill="#374151" font-size="15.4" font-weight="600">deploys</text></g><g data-dediren-edge-id="deploy-event-realizes-production"><path d="M 1224.0 687.0 L 1268.0 687.0 L 1292.0 687.0 Q 1300.0 687.0 1300.0 695.0 L 1300.0 728.5 Q 1300.0 736.5 1308.0 736.5 L 1372.0 736.5 L 1640.0 736.5 L 2438.5 736.5 L 2849.0 736.5 L 2953.0 736.5 L 3021.5 736.5 Q 3029.0 736.5 3029.0 729.0 L 3029.0 729.0 Q 3029.0 721.5 3036.5 721.5 L 3061.0 721.5" fill="none" stroke="#475569" stroke-width="1.25" stroke-linecap="round" stroke-linejoin="round"/><text x="1306.0" y="711.8" text-anchor="start" fill="none" font-size="15.4" font-weight="600" stroke="#ffffff" stroke-width="2">reaches</text><text x="1306.0" y="711.8" text-anchor="start" fill="#374151" font-size="15.4" font-weight="600">reaches</text></g><g data-dediren-edge-id="bicep-deploys-static-web-apps"><marker id="marker-end-bicep-deploys-static-web-apps" data-dediren-edge-marker-end="hollow_triangle" markerWidth="10" markerHeight="10" refX="9" refY="5" orient="auto"><path d="M 1 1 L 9 5 L 1 9 Z" fill="#ffffff" stroke="#374151" stroke-width="1"/></marker><path d="M 2677.0 157.0 L 2701.5 157.0 Q 2709.0 157.0 2709.0 149.5 L 2709.0 149.5 Q 2709.0 142.0 2716.5 142.0 L 2785.0 142.0 L 2811.5 142.0 Q 2817.0 142.0 2817.0 147.5 L 2817.0 147.5 Q 2817.0 153.0 2822.5 153.0 L 2953.0 153.0 L 3061.0 153.0" fill="none" stroke="#374151" stroke-width="1.5" stroke-linecap="round" stroke-linejoin="round" stroke-dasharray="8 5" marker-end="url(#marker-end-bicep-deploys-static-web-apps)"/><text x="2693.0" y="119.0" text-anchor="middle" fill="none" font-size="15.4" font-weight="600" stroke="#ffffff" stroke-width="2">provisions</text><text x="2693.0" y="119.0" text-anchor="middle" fill="#374151" font-size="15.4" font-weight="600">provisions</text></g><g data-dediren-edge-id="bicep-deploys-function-app"><marker id="marker-end-bicep-deploys-function-app" data-dediren-edge-marker-end="hollow_triangle" markerWidth="10" markerHeight="10" refX="9" refY="5" orient="auto"><path d="M 1 1 L 9 5 L 1 9 Z" fill="#ffffff" stroke="#374151" stroke-width="1"/></marker><path d="M 2677.0 174.0 L 2785.0 174.0 L 2809.0 174.0 Q 2817.0 174.0 2817.0 182.0 L 2817.0 258.5 Q 2817.0 266.5 2825.0 266.5 L 2913.0 266.5 Q 2921.0 266.5 2921.0 274.5 L 2921.0 285.0 Q 2921.0 293.0 2929.0 293.0 L 2953.0 293.0 L 3061.0 293.0" fill="none" stroke="#374151" stroke-width="1.5" stroke-linecap="round" stroke-linejoin="round" stroke-dasharray="8 5" marker-end="url(#marker-end-bicep-deploys-function-app)"/><text x="2823.0" y="220.3" text-anchor="start" fill="none" font-size="15.4" font-weight="600" stroke="#ffffff" stroke-width="2">provisions</text><text x="2823.0" y="220.3" text-anchor="start" fill="#374151" font-size="15.4" font-weight="600">provisions</text></g><g data-dediren-edge-id="function-package-deploys-api"><marker id="marker-end-function-package-deploys-api" data-dediren-edge-marker-end="hollow_triangle" markerWidth="10" markerHeight="10" refX="9" refY="5" orient="auto"><path d="M 1 1 L 9 5 L 1 9 Z" fill="#ffffff" stroke="#374151" stroke-width="1"/></marker><path d="M 2677.0 495.5 L 2785.0 495.5 L 2809.0 495.5 Q 2817.0 495.5 2817.0 503.5 L 2817.0 565.0 Q 2817.0 573.0 2825.0 573.0 L 2953.0 573.0 L 3061.0 573.0" fill="none" stroke="#374151" stroke-width="1.5" stroke-linecap="round" stroke-linejoin="round" stroke-dasharray="8 5" marker-end="url(#marker-end-function-package-deploys-api)"/><text x="2823.0" y="534.3" text-anchor="start" fill="none" font-size="15.4" font-weight="600" stroke="#ffffff" stroke-width="2">deploys</text><text x="2823.0" y="534.3" text-anchor="start" fill="#374151" font-size="15.4" font-weight="600">deploys</text></g><g data-dediren-edge-id="spa-package-deploys-app"><marker id="marker-end-spa-package-deploys-app" data-dediren-edge-marker-end="hollow_triangle" markerWidth="10" markerHeight="10" refX="9" refY="5" orient="auto"><path d="M 1 1 L 9 5 L 1 9 Z" fill="#ffffff" stroke="#374151" stroke-width="1"/></marker><path d="M 2677.0 310.5 L 2785.0 310.5 L 2873.0 310.5 Q 2881.0 310.5 2881.0 318.5 L 2881.0 425.0 Q 2881.0 433.0 2889.0 433.0 L 2953.0 433.0 L 3061.0 433.0" fill="none" stroke="#374151" stroke-width="1.5" stroke-linecap="round" stroke-linejoin="round" stroke-dasharray="8 5" marker-end="url(#marker-end-spa-package-deploys-app)"/><text x="2875.0" y="371.8" text-anchor="end" fill="none" font-size="15.4" font-weight="600" stroke="#ffffff" stroke-width="2">deploys</text><text x="2875.0" y="371.8" text-anchor="end" fill="#374151" font-size="15.4" font-weight="600">deploys</text></g><g data-dediren-node-id="pre-commit-secret-guard"><rect data-dediren-node-shape="archimate_rounded_rectangle" x="56.0" y="121.8" width="160.0" height="90.0" rx="6" fill="#f8cecc" stroke="#b85450" stroke-width="1.25"/><g data-dediren-node-decorator="archimate_work_package" data-dediren-icon-kind="work_package" data-dediren-icon-size="22"><path data-dediren-icon-part="work-package-loop-arrow" d="M 197.7 135.7 A 5.7 5.7 0 1 0 196.8 140.1 L 203.8 140.1 M 203.8 140.1 L 201.2 137.9 M 203.8 140.1 L 201.2 142.3" fill="none" stroke="#b85450" stroke-width="1.25" stroke-linecap="round" stroke-linejoin="round"/></g><text x="136.0" y="174.3" text-anchor="middle" dominant-baseline="middle" fill="#5f1f1b" font-size="14.0"><tspan x="136.0" dy="0" textLength="71.5" lengthAdjust="spacing">Pre-commit</tspan><tspan x="136.0" dy="16.0" textLength="77.8" lengthAdjust="spacing">secret guard</tspan></text></g><g data-dediren-node-id="pre-push-verification-gate"><rect data-dediren-node-shape="archimate_rounded_rectangle" x="36.0" y="271.8" width="180.0" height="90.0" rx="6" fill="#f8cecc" stroke="#b85450" stroke-width="1.25"/><g data-dediren-node-decorator="archimate_work_package" data-dediren-icon-kind="work_package" data-dediren-icon-size="22"><path data-dediren-icon-part="work-package-loop-arrow" d="M 197.7 285.7 A 5.7 5.7 0 1 0 196.8 290.1 L 203.8 290.1 M 203.8 290.1 L 201.2 287.9 M 203.8 290.1 L 201.2 292.3" fill="none" stroke="#b85450" stroke-width="1.25" stroke-linecap="round" stroke-linejoin="round"/></g><text x="126.0" y="324.3" text-anchor="middle" dominant-baseline="middle" fill="#5f1f1b" font-size="14.0"><tspan x="126.0" dy="0" textLength="56.7" lengthAdjust="spacing">Pre-push</tspan><tspan x="126.0" dy="16.0" textLength="98.0" lengthAdjust="spacing">verification gate</tspan></text></g><g data-dediren-node-id="repository-baseline"><rect data-dediren-node-shape="archimate_rectangle" x="498.0" y="210.0" width="160.0" height="80.0" rx="0" fill="#f8cecc" stroke="#b85450" stroke-width="1.25"/><g data-dediren-node-decorator="archimate_plateau" data-dediren-icon-kind="plateau" data-dediren-icon-size="22"><path d="M 635.7 223.0 L 649.4 223.0 M 632.6 226.9 L 646.3 226.9 M 630.0 230.9 L 643.6 230.9" fill="none" stroke="#b85450" stroke-width="1.25" stroke-linecap="square"/></g><text x="578.0" y="257.5" text-anchor="middle" dominant-baseline="middle" fill="#5f1f1b" font-size="14.0"><tspan x="578.0" dy="0" textLength="66.9" lengthAdjust="spacing">Repository</tspan><tspan x="578.0" dy="16.0" textLength="52.1" lengthAdjust="spacing">baseline</tspan></text></g><g data-dediren-node-id="production-plateau"><rect data-dediren-node-shape="archimate_rectangle" x="3062.0" y="673.0" width="160.0" height="80.0" rx="0" fill="#f8cecc" stroke="#b85450" stroke-width="1.25"/><g data-dediren-node-decorator="archimate_plateau" data-dediren-icon-kind="plateau" data-dediren-icon-size="22"><path d="M 3199.7 686.0 L 3213.4 686.0 M 3196.6 689.9 L 3210.3 689.9 M 3194.0 693.9 L 3207.6 693.9" fill="none" stroke="#b85450" stroke-width="1.25" stroke-linecap="square"/></g><text x="3142.0" y="720.5" text-anchor="middle" dominant-baseline="middle" fill="#5f1f1b" font-size="14.0"><tspan x="3142.0" dy="0" textLength="66.9" lengthAdjust="spacing">Production</tspan><tspan x="3142.0" dy="16.0" textLength="45.9" lengthAdjust="spacing">plateau</tspan></text></g><g data-dediren-node-id="release-to-production-gap"><rect data-dediren-node-shape="archimate_rectangle" x="1456.0" y="487.5" width="160.0" height="90.0" rx="0" fill="#f8cecc" stroke="#b85450" stroke-width="1.25"/><g data-dediren-node-decorator="archimate_gap" data-dediren-icon-kind="gap" data-dediren-icon-size="22"><ellipse cx="1599.4" cy="504.0" rx="4.8" ry="4.8" fill="none" stroke="#b85450" stroke-width="1.25"/><path data-dediren-icon-part="gap-lines" d="M 1590.2 502.2 L 1608.7 502.2 M 1590.2 505.7 L 1608.7 505.7" fill="none" stroke="#b85450" stroke-width="1.25" stroke-linecap="round"/></g><text x="1536.0" y="531.9" text-anchor="middle" dominant-baseline="middle" fill="#5f1f1b" font-size="14.0"><tspan x="1536.0" dy="0" textLength="66.9" lengthAdjust="spacing">Release to</tspan><tspan x="1536.0" dy="16.0" textLength="65.3" lengthAdjust="spacing">production</tspan><tspan x="1536.0" dy="16.0" textLength="23.3" lengthAdjust="spacing">gap</tspan></text></g><g data-dediren-node-id="deploy-to-production-event"><rect data-dediren-node-shape="archimate_rounded_rectangle" x="1063.0" y="647.0" width="160.0" height="80.0" rx="6" fill="#f8cecc" stroke="#b85450" stroke-width="1.25"/><g data-dediren-node-decorator="archimate_implementation_event" data-dediren-icon-kind="event" data-dediren-icon-size="22"><path data-dediren-icon-part="event-pill" d="M 1199.0 656.9 L 1211.3 656.9 C 1215.7 656.9, 1217.0 660.4, 1217.0 663.9 C 1217.0 667.4, 1215.7 671.0, 1211.3 671.0 L 1199.0 671.0 L 1202.5 663.9 L 1199.0 656.9 Z" fill="#f8cecc" stroke="#b85450" stroke-width="1.25"/></g><text x="1143.0" y="694.5" text-anchor="middle" dominant-baseline="middle" fill="#5f1f1b" font-size="14.0"><tspan x="1143.0" dy="0" textLength="59.1" lengthAdjust="spacing">Deploy to</tspan><tspan x="1143.0" dy="16.0" textLength="65.3" lengthAdjust="spacing">production</tspan></text></g><g data-dediren-node-id="deploy-workflow"><rect data-dediren-node-shape="archimate_rounded_rectangle" x="778.0" y="356.0" width="160.0" height="80.0" rx="6" fill="#f8cecc" stroke="#b85450" stroke-width="1.25"/><g data-dediren-node-decorator="archimate_work_package" data-dediren-icon-kind="work_package" data-dediren-icon-size="22"><path data-dediren-icon-part="work-package-loop-arrow" d="M 919.7 369.8 A 5.7 5.7 0 1 0 918.8 374.2 L 925.8 374.2 M 925.8 374.2 L 923.2 372.0 M 925.8 374.2 L 923.2 376.4" fill="none" stroke="#b85450" stroke-width="1.25" stroke-linecap="round" stroke-linejoin="round"/></g><text x="858.0" y="403.5" text-anchor="middle" dominant-baseline="middle" fill="#5f1f1b" font-size="14.0"><tspan x="858.0" dy="0" textLength="43.5" lengthAdjust="spacing">Deploy</tspan><tspan x="858.0" dy="16.0" textLength="54.4" lengthAdjust="spacing">workflow</tspan></text></g><g data-dediren-node-id="deploy-change-detection"><rect data-dediren-node-shape="archimate_rounded_rectangle" x="1063.5" y="502.0" width="160.0" height="80.0" rx="6" fill="#f8cecc" stroke="#b85450" stroke-width="1.25"/><g data-dediren-node-decorator="archimate_work_package" data-dediren-icon-kind="work_package" data-dediren-icon-size="22"><path data-dediren-icon-part="work-package-loop-arrow" d="M 1205.2 515.8 A 5.7 5.7 0 1 0 1204.3 520.2 L 1211.3 520.2 M 1211.3 520.2 L 1208.7 518.0 M 1211.3 520.2 L 1208.7 522.4" fill="none" stroke="#b85450" stroke-width="1.25" stroke-linecap="round" stroke-linejoin="round"/></g><text x="1143.5" y="549.5" text-anchor="middle" dominant-baseline="middle" fill="#5f1f1b" font-size="14.0"><tspan x="1143.5" dy="0" textLength="85.5" lengthAdjust="spacing">Detect deploy</tspan><tspan x="1143.5" dy="16.0" textLength="52.9" lengthAdjust="spacing">changes</tspan></text></g><g data-dediren-node-id="secret-scan-workflow"><rect data-dediren-node-shape="archimate_rounded_rectangle" x="1560.0" y="183.5" width="160.0" height="80.0" rx="6" fill="#f8cecc" stroke="#b85450" stroke-width="1.25"/><g data-dediren-node-decorator="archimate_work_package" data-dediren-icon-kind="work_package" data-dediren-icon-size="22"><path data-dediren-icon-part="work-package-loop-arrow" d="M 1701.7 197.3 A 5.7 5.7 0 1 0 1700.8 201.7 L 1707.8 201.7 M 1707.8 201.7 L 1705.2 199.5 M 1707.8 201.7 L 1705.2 203.9" fill="none" stroke="#b85450" stroke-width="1.25" stroke-linecap="round" stroke-linejoin="round"/></g><text x="1640.0" y="231.0" text-anchor="middle" dominant-baseline="middle" fill="#5f1f1b" font-size="14.0"><tspan x="1640.0" dy="0" textLength="40.4" lengthAdjust="spacing">Secret</tspan><tspan x="1640.0" dy="16.0" textLength="58.3" lengthAdjust="spacing">Scanning</tspan></text></g><g data-dediren-node-id="infrastructure-analysis-workflow"><rect data-dediren-node-shape="archimate_rounded_rectangle" x="1545.0" y="323.5" width="190.0" height="80.0" rx="6" fill="#f8cecc" stroke="#b85450" stroke-width="1.25"/><g data-dediren-node-decorator="archimate_work_package" data-dediren-icon-kind="work_package" data-dediren-icon-size="22"><path data-dediren-icon-part="work-package-loop-arrow" d="M 1716.7 337.3 A 5.7 5.7 0 1 0 1715.8 341.7 L 1722.8 341.7 M 1722.8 341.7 L 1720.2 339.5 M 1722.8 341.7 L 1720.2 343.9" fill="none" stroke="#b85450" stroke-width="1.25" stroke-linecap="round" stroke-linejoin="round"/></g><text x="1640.0" y="371.0" text-anchor="middle" dominant-baseline="middle" fill="#5f1f1b" font-size="14.0"><tspan x="1640.0" dy="0" textLength="49.7" lengthAdjust="spacing">Analyze</tspan><tspan x="1640.0" dy="16.0" textLength="82.4" lengthAdjust="spacing">Infrastructure</tspan></text></g><g data-dediren-node-id="deploy-infra-workflow"><rect data-dediren-node-shape="archimate_rounded_rectangle" x="2201.0" y="414.5" width="190.0" height="80.0" rx="6" fill="#f8cecc" stroke="#b85450" stroke-width="1.25"/><g data-dediren-node-decorator="archimate_work_package" data-dediren-icon-kind="work_package" data-dediren-icon-size="22"><path data-dediren-icon-part="work-package-loop-arrow" d="M 2372.7 428.3 A 5.7 5.7 0 1 0 2371.8 432.7 L 2378.8 432.7 M 2378.8 432.7 L 2376.2 430.5 M 2378.8 432.7 L 2376.2 434.9" fill="none" stroke="#b85450" stroke-width="1.25" stroke-linecap="round" stroke-linejoin="round"/></g><text x="2296.0" y="462.0" text-anchor="middle" dominant-baseline="middle" fill="#5f1f1b" font-size="14.0"><tspan x="2296.0" dy="0" textLength="43.5" lengthAdjust="spacing">Deploy</tspan><tspan x="2296.0" dy="16.0" textLength="82.4" lengthAdjust="spacing">Infrastructure</tspan></text></g><g data-dediren-node-id="deploy-app-build-workflow"><rect data-dediren-node-shape="archimate_rounded_rectangle" x="2201.0" y="124.5" width="160.0" height="80.0" rx="6" fill="#f8cecc" stroke="#b85450" stroke-width="1.25"/><g data-dediren-node-decorator="archimate_work_package" data-dediren-icon-kind="work_package" data-dediren-icon-size="22"><path data-dediren-icon-part="work-package-loop-arrow" d="M 2342.7 138.3 A 5.7 5.7 0 1 0 2341.8 142.7 L 2348.8 142.7 M 2348.8 142.7 L 2346.2 140.5 M 2348.8 142.7 L 2346.2 144.9" fill="none" stroke="#b85450" stroke-width="1.25" stroke-linecap="round" stroke-linejoin="round"/></g><text x="2281.0" y="172.0" text-anchor="middle" dominant-baseline="middle" fill="#5f1f1b" font-size="14.0"><tspan x="2281.0" dy="0" textLength="80.9" lengthAdjust="spacing">Deploy App -</tspan><tspan x="2281.0" dy="16.0" textLength="31.1" lengthAdjust="spacing">Build</tspan></text></g><g data-dediren-node-id="deploy-app-workflow"><rect data-dediren-node-shape="archimate_rounded_rectangle" x="2516.0" y="600.5" width="160.0" height="80.0" rx="6" fill="#f8cecc" stroke="#b85450" stroke-width="1.25"/><g data-dediren-node-decorator="archimate_work_package" data-dediren-icon-kind="work_package" data-dediren-icon-size="22"><path data-dediren-icon-part="work-package-loop-arrow" d="M 2657.7 614.3 A 5.7 5.7 0 1 0 2656.8 618.7 L 2663.8 618.7 M 2663.8 618.7 L 2661.2 616.5 M 2663.8 618.7 L 2661.2 620.9" fill="none" stroke="#b85450" stroke-width="1.25" stroke-linecap="round" stroke-linejoin="round"/></g><text x="2596.0" y="656.0" text-anchor="middle" dominant-baseline="middle" fill="#5f1f1b" font-size="14.0" textLength="72.3" lengthAdjust="spacing">Deploy App</text></g><g data-dediren-node-id="bicep-template"><rect data-dediren-node-shape="archimate_rectangle" x="2516.0" y="125.5" width="160.0" height="80.0" rx="0" fill="#f8cecc" stroke="#b85450" stroke-width="1.25"/><g data-dediren-node-decorator="archimate_deliverable" data-dediren-icon-kind="deliverable" data-dediren-icon-size="22"><path data-dediren-icon-part="wavy-document" d="M 2648.0 134.5 L 2670.0 134.5 L 2670.0 147.3 C 2666.0 145.5, 2662.5 145.5, 2659.0 147.3 C 2655.5 149.0, 2652.0 149.0, 2648.0 147.3 L 2648.0 134.5 Z" fill="#f8cecc" stroke="#b85450" stroke-width="1.25" stroke-linejoin="round"/></g><text x="2596.0" y="173.0" text-anchor="middle" dominant-baseline="middle" fill="#5f1f1b" font-size="14.0"><tspan x="2596.0" dy="0" textLength="35.0" lengthAdjust="spacing">Bicep</tspan><tspan x="2596.0" dy="16.0" textLength="72.3" lengthAdjust="spacing">deployment</tspan></text></g><g data-dediren-node-id="function-app-package"><rect data-dediren-node-shape="archimate_rectangle" x="2516.0" y="455.5" width="160.0" height="80.0" rx="0" fill="#f8cecc" stroke="#b85450" stroke-width="1.25"/><g data-dediren-node-decorator="archimate_deliverable" data-dediren-icon-kind="deliverable" data-dediren-icon-size="22"><path data-dediren-icon-part="wavy-document" d="M 2648.0 464.5 L 2670.0 464.5 L 2670.0 477.3 C 2666.0 475.5, 2662.5 475.5, 2659.0 477.3 C 2655.5 479.0, 2652.0 479.0, 2648.0 477.3 L 2648.0 464.5 Z" fill="#f8cecc" stroke="#b85450" stroke-width="1.25" stroke-linejoin="round"/></g><text x="2596.0" y="511.0" text-anchor="middle" dominant-baseline="middle" fill="#5f1f1b" font-size="14.0" textLength="82.4" lengthAdjust="spacing">Functions zip</text></g><g data-dediren-node-id="spa-wwwroot-package"><rect data-dediren-node-shape="archimate_rectangle" x="2516.0" y="270.5" width="160.0" height="80.0" rx="0" fill="#f8cecc" stroke="#b85450" stroke-width="1.25"/><g data-dediren-node-decorator="archimate_deliverable" data-dediren-icon-kind="deliverable" data-dediren-icon-size="22"><path data-dediren-icon-part="wavy-document" d="M 2648.0 279.5 L 2670.0 279.5 L 2670.0 292.3 C 2666.0 290.5, 2662.5 290.5, 2659.0 292.3 C 2655.5 294.0, 2652.0 294.0, 2648.0 292.3 L 2648.0 279.5 Z" fill="#f8cecc" stroke="#b85450" stroke-width="1.25" stroke-linejoin="round"/></g><text x="2596.0" y="318.0" text-anchor="middle" dominant-baseline="middle" fill="#5f1f1b" font-size="14.0"><tspan x="2596.0" dy="0" textLength="86.3" lengthAdjust="spacing">SPA wwwroot</tspan><tspan x="2596.0" dy="16.0" textLength="42.0" lengthAdjust="spacing">bundle</tspan></text></g><g data-dediren-node-id="static-web-apps"><rect data-dediren-node-shape="archimate_rectangle" x="3062.0" y="113.0" width="160.0" height="80.0" rx="0" fill="#d5e8d4" stroke="#4d7c0f" stroke-width="1.25"/><g data-dediren-node-decorator="archimate_technology_node" data-dediren-icon-kind="node" data-dediren-icon-size="22"><rect x="3194.0" y="126.0" width="18.0" height="12.8" rx="1.5" fill="#d5e8d4" stroke="#4d7c0f" stroke-width="1.25"/><path data-dediren-icon-part="node-3d-edges" d="M 3194.0 126.0 L 3198.0 122.0 L 3216.0 122.0 L 3212.0 126.0 M 3212.0 126.0 L 3216.0 122.0 M 3212.0 138.7 L 3216.0 134.8 M 3216.0 122.0 L 3216.0 134.8" fill="none" stroke="#4d7c0f" stroke-width="1.25" stroke-linejoin="round"/></g><text x="3142.0" y="160.5" text-anchor="middle" dominant-baseline="middle" fill="#365314" font-size="14.0"><tspan x="3142.0" dy="0" textLength="75.4" lengthAdjust="spacing">Azure Static</tspan><tspan x="3142.0" dy="16.0" textLength="64.5" lengthAdjust="spacing">Web Apps</tspan></text></g><g data-dediren-node-id="function-app"><rect data-dediren-node-shape="archimate_rectangle" x="3062.0" y="253.0" width="160.0" height="80.0" rx="0" fill="#d5e8d4" stroke="#4d7c0f" stroke-width="1.25"/><g data-dediren-node-decorator="archimate_technology_node" data-dediren-icon-kind="node" data-dediren-icon-size="22"><rect x="3194.0" y="266.0" width="18.0" height="12.8" rx="1.5" fill="#d5e8d4" stroke="#4d7c0f" stroke-width="1.25"/><path data-dediren-icon-part="node-3d-edges" d="M 3194.0 266.0 L 3198.0 262.0 L 3216.0 262.0 L 3212.0 266.0 M 3212.0 266.0 L 3216.0 262.0 M 3212.0 278.7 L 3216.0 274.8 M 3216.0 262.0 L 3216.0 274.8" fill="none" stroke="#4d7c0f" stroke-width="1.25" stroke-linejoin="round"/></g><text x="3142.0" y="300.5" text-anchor="middle" dominant-baseline="middle" fill="#365314" font-size="14.0"><tspan x="3142.0" dy="0" textLength="36.5" lengthAdjust="spacing">Azure</tspan><tspan x="3142.0" dy="16.0" textLength="82.4" lengthAdjust="spacing">Function App</tspan></text></g><g data-dediren-node-id="lfm-app"><rect data-dediren-node-shape="archimate_rectangle" x="3062.0" y="393.0" width="160.0" height="80.0" rx="0" fill="#e0f2fe" stroke="#0369a1" stroke-width="1.25"/><g data-dediren-node-decorator="archimate_application_component" data-dediren-icon-kind="component" data-dediren-icon-size="22"><rect x="3198.0" y="402.0" width="18.0" height="15.8" rx="1.5" fill="#e0f2fe" stroke="#0369a1" stroke-width="1.25"/><rect x="3194.0" y="404.6" width="7.9" height="5.7" rx="1.2" fill="#e0f2fe" stroke="#0369a1" stroke-width="1.25"/><rect x="3194.0" y="411.7" width="7.9" height="5.7" rx="1.2" fill="#e0f2fe" stroke="#0369a1" stroke-width="1.25"/></g><text x="3142.0" y="448.5" text-anchor="middle" dominant-baseline="middle" fill="#0c4a6e" font-size="14.0" textLength="52.1" lengthAdjust="spacing">Lfm.App</text></g><g data-dediren-node-id="lfm-api"><rect data-dediren-node-shape="archimate_rectangle" x="3062.0" y="533.0" width="160.0" height="80.0" rx="0" fill="#e0f2fe" stroke="#0369a1" stroke-width="1.25"/><g data-dediren-node-decorator="archimate_application_component" data-dediren-icon-kind="component" data-dediren-icon-size="22"><rect x="3198.0" y="542.0" width="18.0" height="15.8" rx="1.5" fill="#e0f2fe" stroke="#0369a1" stroke-width="1.25"/><rect x="3194.0" y="544.6" width="7.9" height="5.7" rx="1.2" fill="#e0f2fe" stroke="#0369a1" stroke-width="1.25"/><rect x="3194.0" y="551.7" width="7.9" height="5.7" rx="1.2" fill="#e0f2fe" stroke="#0369a1" stroke-width="1.25"/></g><text x="3142.0" y="588.5" text-anchor="middle" dominant-baseline="middle" fill="#0c4a6e" font-size="14.0" textLength="47.4" lengthAdjust="spacing">Lfm.Api</text></g></g></svg>

