<svg xmlns="http://www.w3.org/2000/svg" role="img" width="2501" height="1845" viewBox="-20 -52 2501 1877" data-arch-a11y="root" data-arch-a11y-viewbox="-20.0 -20.0 2501.0 1845.0"><title>LFM - System Landscape</title>
<desc>At a glance, which applications make up LFM, which external systems they depend on, and which Azure platform hosts them?</desc>
<text data-arch-a11y="visible-title" x="-12" y="-32" font-family="sans-serif" font-size="16" font-weight="bold">LFM - System Landscape</text><rect x="-20.0" y="-20.0" width="2501.0" height="1845.0" fill="#ffffff"/><g font-family="Inter, &quot;Liberation Sans&quot;, &quot;Noto Sans&quot;, Arial, &quot;Helvetica Neue&quot;, &quot;Segoe UI&quot;, sans-serif" font-size="14"><g data-dediren-group-id="system-landscape-applications"><rect x="12.0" y="72.0" width="1418.0" height="917.0" rx="8" fill="#f8fafc" stroke="#94a3b8" stroke-width="1"/><text x="20.0" y="88.0" fill="#334155" font-size="12">LFM applications</text></g><g data-dediren-group-id="system-landscape-platform"><rect x="1798.0" y="620.0" width="651.0" height="1173.0" rx="8" fill="#f8fafc" stroke="#94a3b8" stroke-width="1"/><text x="1806.0" y="636.0" fill="#334155" font-size="12">Azure hosting platform</text></g><g data-dediren-group-id="system-landscape-external"><rect x="1798.0" y="12.0" width="241.0" height="512.0" rx="8" fill="#f8fafc" stroke="#94a3b8" stroke-width="1"/><text x="1806.0" y="28.0" fill="#334155" font-size="12">Battle.net &amp; Blizzard services</text></g><g data-dediren-edge-id="contracts-serve-app"><marker id="marker-end-contracts-serve-app" data-dediren-edge-marker-end="open_arrow" markerWidth="10" markerHeight="10" refX="9" refY="5" orient="auto"><path d="M 1 1 L 9 5 L 1 9" fill="none" stroke="#475569" stroke-width="1.5"/></marker><path d="M 173.5 193.0 L 173.5 796.0 Q 173.5 804.0 181.5 804.0 L 338.0 804.0 L 514.5 804.0 L 952.0 804.0 L 1133.0 804.0 L 1279.5 804.0 Q 1287.5 804.0 1287.5 812.0 L 1287.5 868.0" fill="none" stroke="#475569" stroke-width="1.25" stroke-linecap="round" stroke-linejoin="round" marker-end="url(#marker-end-contracts-serve-app)"/><text x="255.8" y="822.0" text-anchor="middle" fill="none" font-size="15.4" font-weight="600" stroke="#ffffff" stroke-width="2">contracts</text><text x="255.8" y="822.0" text-anchor="middle" fill="#374151" font-size="15.4" font-weight="600">contracts</text></g><g data-dediren-edge-id="contracts-serve-api"><marker id="marker-end-contracts-serve-api" data-dediren-edge-marker-end="open_arrow" markerWidth="10" markerHeight="10" refX="9" refY="5" orient="auto"><path d="M 1 1 L 9 5 L 1 9" fill="none" stroke="#475569" stroke-width="1.5"/></marker><g data-dediren-line-jump-masks="contracts-serve-api"><path d="M 167.5 257.0 Q 173.5 251.0 179.5 257.0" fill="none" stroke="#f8fafc" stroke-width="6"/></g><path d="M 120.5 193.0 L 120.5 249.0 Q 120.5 257.0 128.5 257.0 L 167.5 257.0 Q 173.5 251.0 179.5 257.0 L 506.0 257.0 Q 514.0 257.0 514.0 265.0 L 514.0 321.0" fill="none" stroke="#475569" stroke-width="1.25" stroke-linecap="round" stroke-linejoin="round" marker-end="url(#marker-end-contracts-serve-api)"/><text x="317.3" y="275.0" text-anchor="middle" fill="none" font-size="15.4" font-weight="600" stroke="#ffffff" stroke-width="2">contracts</text><text x="317.3" y="275.0" text-anchor="middle" fill="#374151" font-size="15.4" font-weight="600">contracts</text></g><g data-dediren-edge-id="api-realizes-rest-api"><marker id="marker-end-api-realizes-rest-api" data-dediren-edge-marker-end="hollow_triangle" markerWidth="10" markerHeight="10" refX="9" refY="5" orient="auto"><path d="M 1 1 L 9 5 L 1 9 Z" fill="#ffffff" stroke="#374151" stroke-width="1"/></marker><path d="M 514.0 451.0 L 514.0 518.0 Q 514.0 526.0 522.0 526.0 L 944.0 526.0 Q 952.0 526.0 952.0 534.0 L 952.0 590.0" fill="none" stroke="#374151" stroke-width="1.5" stroke-linecap="round" stroke-linejoin="round" stroke-dasharray="8 5" marker-end="url(#marker-end-api-realizes-rest-api)"/><text x="733.0" y="544.0" text-anchor="middle" fill="none" font-size="15.4" font-weight="600" stroke="#ffffff" stroke-width="2">exposes</text><text x="733.0" y="544.0" text-anchor="middle" fill="#374151" font-size="15.4" font-weight="600">exposes</text></g><g data-dediren-edge-id="rest-api-serves-app"><marker id="marker-end-rest-api-serves-app" data-dediren-edge-marker-end="open_arrow" markerWidth="10" markerHeight="10" refX="9" refY="5" orient="auto"><path d="M 1 1 L 9 5 L 1 9" fill="none" stroke="#475569" stroke-width="1.5"/></marker><path d="M 952.0 672.0 L 952.0 728.0 Q 952.0 736.0 960.0 736.0 L 1322.5 736.0 Q 1330.5 736.0 1330.5 744.0 L 1330.5 868.0" fill="none" stroke="#475569" stroke-width="1.25" stroke-linecap="round" stroke-linejoin="round" marker-end="url(#marker-end-rest-api-serves-app)"/><text x="1141.3" y="754.0" text-anchor="middle" fill="none" font-size="15.4" font-weight="600" stroke="#ffffff" stroke-width="2">serves</text><text x="1141.3" y="754.0" text-anchor="middle" fill="#374151" font-size="15.4" font-weight="600">serves</text></g><g data-dediren-edge-id="battlenet-oauth-serves-api"><marker id="marker-end-battlenet-oauth-serves-api" data-dediren-edge-marker-end="open_arrow" markerWidth="10" markerHeight="10" refX="9" refY="5" orient="auto"><path d="M 1 1 L 9 5 L 1 9" fill="none" stroke="#475569" stroke-width="1.5"/></marker><path d="M 1838.0 92.0 L 1766.0 92.0 L 1534.0 92.0 Q 1526.0 92.0 1526.0 100.0 L 1526.0 258.0 Q 1526.0 266.0 1518.0 266.0 L 1462.0 266.0 L 1309.5 266.0 L 1133.0 266.0 L 952.0 266.0 L 771.0 266.0 L 667.0 266.0 Q 659.0 266.0 659.0 274.0 L 659.0 348.0 Q 659.0 356.0 651.0 356.0 L 595.0 356.0" fill="none" stroke="#475569" stroke-width="1.25" stroke-linecap="round" stroke-linejoin="round" marker-end="url(#marker-end-battlenet-oauth-serves-api)"/><text x="1520.0" y="179.0" text-anchor="end" fill="none" font-size="15.4" font-weight="600" stroke="#ffffff" stroke-width="2">OAuth</text><text x="1520.0" y="179.0" text-anchor="end" fill="#374151" font-size="15.4" font-weight="600">OAuth</text></g><g data-dediren-edge-id="profile-api-serves-api"><marker id="marker-end-profile-api-serves-api" data-dediren-edge-marker-end="open_arrow" markerWidth="10" markerHeight="10" refX="9" refY="5" orient="auto"><path d="M 1 1 L 9 5 L 1 9" fill="none" stroke="#475569" stroke-width="1.5"/></marker><path d="M 1838.0 268.0 L 1766.0 268.0 L 1582.0 268.0 Q 1574.0 268.0 1574.0 276.0 L 1574.0 323.0 Q 1574.0 331.0 1566.0 331.0 L 1462.0 331.0 L 1309.5 331.0 L 1133.0 331.0 L 952.0 331.0 L 771.0 331.0 L 715.0 331.0 Q 707.0 331.0 707.0 339.0 L 707.0 368.0 Q 707.0 376.0 699.0 376.0 L 595.0 376.0" fill="none" stroke="#475569" stroke-width="1.25" stroke-linecap="round" stroke-linejoin="round" marker-end="url(#marker-end-profile-api-serves-api)"/><text x="1568.0" y="299.5" text-anchor="end" fill="none" font-size="15.4" font-weight="600" stroke="#ffffff" stroke-width="2">profile data</text><text x="1568.0" y="299.5" text-anchor="end" fill="#374151" font-size="15.4" font-weight="600">profile data</text></g><g data-dediren-edge-id="game-data-api-serves-api"><marker id="marker-end-game-data-api-serves-api" data-dediren-edge-marker-end="open_arrow" markerWidth="10" markerHeight="10" refX="9" refY="5" orient="auto"><path d="M 1 1 L 9 5 L 1 9" fill="none" stroke="#475569" stroke-width="1.5"/></marker><path d="M 1838.0 444.0 L 1766.0 444.0 L 1710.0 444.0 Q 1702.0 444.0 1702.0 436.0 L 1702.0 404.0 Q 1702.0 396.0 1694.0 396.0 L 1462.0 396.0 L 1309.5 396.0 L 1133.0 396.0 L 952.0 396.0 L 771.0 396.0 L 595.0 396.0" fill="none" stroke="#475569" stroke-width="1.25" stroke-linecap="round" stroke-linejoin="round" marker-end="url(#marker-end-game-data-api-serves-api)"/><text x="1696.0" y="420.0" text-anchor="end" fill="none" font-size="15.4" font-weight="600" stroke="#ffffff" stroke-width="2">game data</text><text x="1696.0" y="420.0" text-anchor="end" fill="#374151" font-size="15.4" font-weight="600">game data</text></g><g data-dediren-edge-id="swa-hosts-app"><marker id="marker-end-swa-hosts-app" data-dediren-edge-marker-end="open_arrow" markerWidth="10" markerHeight="10" refX="9" refY="5" orient="auto"><path d="M 1 1 L 9 5 L 1 9" fill="none" stroke="#475569" stroke-width="1.5"/></marker><path d="M 1838.0 909.0 L 1766.0 909.0 L 1462.0 909.0 L 1390.0 909.0" fill="none" stroke="#475569" stroke-width="1.25" stroke-linecap="round" stroke-linejoin="round" marker-end="url(#marker-end-swa-hosts-app)"/><text x="1802.0" y="927.0" text-anchor="middle" fill="none" font-size="15.4" font-weight="600" stroke="#ffffff" stroke-width="2">hosts</text><text x="1802.0" y="927.0" text-anchor="middle" fill="#374151" font-size="15.4" font-weight="600">hosts</text></g><g data-dediren-edge-id="function-app-hosts-api"><marker id="marker-end-function-app-hosts-api" data-dediren-edge-marker-end="open_arrow" markerWidth="10" markerHeight="10" refX="9" refY="5" orient="auto"><path d="M 1 1 L 9 5 L 1 9" fill="none" stroke="#475569" stroke-width="1.5"/></marker><g data-dediren-line-jump-masks="function-app-hosts-api"><path d="M 1702.0 903.0 Q 1708.0 909.0 1702.0 915.0" fill="none" stroke="#ffffff" stroke-width="6"/></g><path d="M 2200.0 1713.0 L 2104.0 1713.0 L 1923.0 1713.0 L 1766.0 1713.0 L 1710.0 1713.0 Q 1702.0 1713.0 1702.0 1705.0 L 1702.0 915.0 Q 1708.0 909.0 1702.0 903.0 L 1702.0 852.0 Q 1702.0 844.0 1694.0 844.0 L 1534.0 844.0 Q 1526.0 844.0 1526.0 836.0 L 1526.0 469.0 Q 1526.0 461.0 1518.0 461.0 L 1462.0 461.0 L 1309.5 461.0 L 1133.0 461.0 L 952.0 461.0 L 771.0 461.0 L 667.0 461.0 Q 659.0 461.0 659.0 453.0 L 659.0 424.0 Q 659.0 416.0 651.0 416.0 L 595.0 416.0" fill="none" stroke="#475569" stroke-width="1.25" stroke-linecap="round" stroke-linejoin="round" marker-end="url(#marker-end-function-app-hosts-api)"/><text x="2152.0" y="1731.0" text-anchor="middle" fill="none" font-size="15.4" font-weight="600" stroke="#ffffff" stroke-width="2">hosts</text><text x="2152.0" y="1731.0" text-anchor="middle" fill="#374151" font-size="15.4" font-weight="600">hosts</text></g><g data-dediren-edge-id="cosmos-serves-function-app"><marker id="marker-end-cosmos-serves-function-app" data-dediren-edge-marker-end="open_arrow" markerWidth="10" markerHeight="10" refX="9" refY="5" orient="auto"><path d="M 1 1 L 9 5 L 1 9" fill="none" stroke="#475569" stroke-width="1.5"/></marker><path d="M 1923.0 1544.0 L 1923.0 1600.0 Q 1923.0 1608.0 1931.0 1608.0 L 2243.9 1608.0 Q 2251.9 1608.0 2251.9 1616.0 L 2251.9 1672.0" fill="none" stroke="#475569" stroke-width="1.25" stroke-linecap="round" stroke-linejoin="round" marker-end="url(#marker-end-cosmos-serves-function-app)"/><text x="2087.5" y="1626.0" text-anchor="middle" fill="none" font-size="15.4" font-weight="600" stroke="#ffffff" stroke-width="2">data plane</text><text x="2087.5" y="1626.0" text-anchor="middle" fill="#374151" font-size="15.4" font-weight="600">data plane</text></g><g data-dediren-edge-id="storage-serves-function-app"><marker id="marker-end-storage-serves-function-app" data-dediren-edge-marker-end="open_arrow" markerWidth="10" markerHeight="10" refX="9" refY="5" orient="auto"><path d="M 1 1 L 9 5 L 1 9" fill="none" stroke="#475569" stroke-width="1.5"/></marker><path d="M 1923.0 741.0 L 1923.0 797.0 Q 1923.0 805.0 1931.0 805.0 L 2279.3 805.0 Q 2287.3 805.0 2287.3 813.0 L 2287.3 1672.0" fill="none" stroke="#475569" stroke-width="1.25" stroke-linecap="round" stroke-linejoin="round" marker-end="url(#marker-end-storage-serves-function-app)"/><text x="2105.2" y="823.0" text-anchor="middle" fill="none" font-size="15.4" font-weight="600" stroke="#ffffff" stroke-width="2">blob data</text><text x="2105.2" y="823.0" text-anchor="middle" fill="#374151" font-size="15.4" font-weight="600">blob data</text></g><g data-dediren-edge-id="key-vault-serves-function-app"><marker id="marker-end-key-vault-serves-function-app" data-dediren-edge-marker-end="open_arrow" markerWidth="10" markerHeight="10" refX="9" refY="5" orient="auto"><path d="M 1 1 L 9 5 L 1 9" fill="none" stroke="#475569" stroke-width="1.5"/></marker><g data-dediren-line-jump-masks="key-vault-serves-function-app"><path d="M 2281.3 1399.0 Q 2287.3 1393.0 2293.3 1399.0" fill="none" stroke="#f8fafc" stroke-width="6"/></g><path d="M 1923.0 1335.0 L 1923.0 1391.0 Q 1923.0 1399.0 1931.0 1399.0 L 2281.3 1399.0 Q 2287.3 1393.0 2293.3 1399.0 L 2314.7 1399.0 Q 2322.7 1399.0 2322.7 1407.0 L 2322.7 1672.0" fill="none" stroke="#475569" stroke-width="1.25" stroke-linecap="round" stroke-linejoin="round" marker-end="url(#marker-end-key-vault-serves-function-app)"/><text x="2122.9" y="1417.0" text-anchor="middle" fill="none" font-size="15.4" font-weight="600" stroke="#ffffff" stroke-width="2">secrets</text><text x="2122.9" y="1417.0" text-anchor="middle" fill="#374151" font-size="15.4" font-weight="600">secrets</text></g><g data-dediren-edge-id="app-insights-serves-function-app"><marker id="marker-end-app-insights-serves-function-app" data-dediren-edge-marker-end="open_arrow" markerWidth="10" markerHeight="10" refX="9" refY="5" orient="auto"><path d="M 1 1 L 9 5 L 1 9" fill="none" stroke="#475569" stroke-width="1.5"/></marker><g data-dediren-line-jump-masks="app-insights-serves-function-app"><path d="M 2281.3 1190.0 Q 2287.3 1184.0 2293.3 1190.0" fill="none" stroke="#f8fafc" stroke-width="6"/></g><path d="M 1923.0 1126.0 L 1923.0 1182.0 Q 1923.0 1190.0 1931.0 1190.0 L 2281.3 1190.0 Q 2287.3 1184.0 2293.3 1190.0 L 2350.1 1190.0 Q 2358.1 1190.0 2358.1 1198.0 L 2358.1 1672.0" fill="none" stroke="#475569" stroke-width="1.25" stroke-linecap="round" stroke-linejoin="round" marker-end="url(#marker-end-app-insights-serves-function-app)"/><text x="2140.6" y="1208.0" text-anchor="middle" fill="none" font-size="15.4" font-weight="600" stroke="#ffffff" stroke-width="2">telemetry</text><text x="2140.6" y="1208.0" text-anchor="middle" fill="#374151" font-size="15.4" font-weight="600">telemetry</text></g><g data-dediren-node-id="lfm-app"><rect data-dediren-node-shape="archimate_rectangle" x="1229.0" y="869.0" width="160.0" height="80.0" rx="0" fill="#e0f2fe" stroke="#0369a1" stroke-width="1.25"/><g data-dediren-node-decorator="archimate_application_component" data-dediren-icon-kind="component" data-dediren-icon-size="22"><rect x="1365.0" y="878.0" width="18.0" height="15.8" rx="1.5" fill="#e0f2fe" stroke="#0369a1" stroke-width="1.25"/><rect x="1361.0" y="880.6" width="7.9" height="5.7" rx="1.2" fill="#e0f2fe" stroke="#0369a1" stroke-width="1.25"/><rect x="1361.0" y="887.7" width="7.9" height="5.7" rx="1.2" fill="#e0f2fe" stroke="#0369a1" stroke-width="1.25"/></g><text x="1309.0" y="924.5" text-anchor="middle" dominant-baseline="middle" fill="#0c4a6e" font-size="14.0" textLength="52.1" lengthAdjust="spacing">Lfm.App</text></g><g data-dediren-node-id="lfm-api"><rect data-dediren-node-shape="archimate_rectangle" x="434.0" y="322.0" width="160.0" height="128.0" rx="0" fill="#e0f2fe" stroke="#0369a1" stroke-width="1.25"/><g data-dediren-node-decorator="archimate_application_component" data-dediren-icon-kind="component" data-dediren-icon-size="22"><rect x="570.0" y="331.0" width="18.0" height="15.8" rx="1.5" fill="#e0f2fe" stroke="#0369a1" stroke-width="1.25"/><rect x="566.0" y="333.6" width="7.9" height="5.7" rx="1.2" fill="#e0f2fe" stroke="#0369a1" stroke-width="1.25"/><rect x="566.0" y="340.7" width="7.9" height="5.7" rx="1.2" fill="#e0f2fe" stroke="#0369a1" stroke-width="1.25"/></g><text x="514.0" y="401.5" text-anchor="middle" dominant-baseline="middle" fill="#0c4a6e" font-size="14.0" textLength="47.4" lengthAdjust="spacing">Lfm.Api</text></g><g data-dediren-node-id="lfm-contracts"><rect data-dediren-node-shape="archimate_rectangle" x="52.0" y="112.0" width="190.0" height="80.0" rx="0" fill="#e0f2fe" stroke="#0369a1" stroke-width="1.25"/><g data-dediren-node-decorator="archimate_application_component" data-dediren-icon-kind="component" data-dediren-icon-size="22"><rect x="218.0" y="121.0" width="18.0" height="15.8" rx="1.5" fill="#e0f2fe" stroke="#0369a1" stroke-width="1.25"/><rect x="214.0" y="123.6" width="7.9" height="5.7" rx="1.2" fill="#e0f2fe" stroke="#0369a1" stroke-width="1.25"/><rect x="214.0" y="130.7" width="7.9" height="5.7" rx="1.2" fill="#e0f2fe" stroke="#0369a1" stroke-width="1.25"/></g><text x="147.0" y="167.5" text-anchor="middle" dominant-baseline="middle" fill="#0c4a6e" font-size="14.0" textLength="87.1" lengthAdjust="spacing">Lfm.Contracts</text></g><g data-dediren-node-id="rest-api"><rect data-dediren-node-shape="archimate_rectangle" x="867.0" y="591.0" width="170.0" height="80.0" rx="0" fill="#e0f2fe" stroke="#0369a1" stroke-width="1.25"/><g data-dediren-node-decorator="archimate_application_interface" data-dediren-icon-kind="interface" data-dediren-icon-size="22"><ellipse cx="1024.8" cy="606.2" rx="4.0" ry="4.0" fill="#e0f2fe" stroke="#0369a1" stroke-width="1.25"/><path d="M 1011.2 606.2 L 1020.9 606.2" fill="none" stroke="#0369a1" stroke-width="1.25"/></g><text x="952.0" y="638.5" text-anchor="middle" dominant-baseline="middle" fill="#0c4a6e" font-size="14.0"><tspan x="952.0" dy="0" textLength="63.7" lengthAdjust="spacing">REST API</tspan><tspan x="952.0" dy="16.0" textLength="59.9" lengthAdjust="spacing">(/api/v1/*)</tspan></text></g><g data-dediren-node-id="battlenet-oauth"><rect data-dediren-node-shape="archimate_rounded_rectangle" x="1839.0" y="52.0" width="160.0" height="80.0" rx="6" fill="#e0f2fe" stroke="#0369a1" stroke-width="1.25"/><g data-dediren-node-decorator="archimate_application_service" data-dediren-icon-kind="service" data-dediren-icon-size="22"><rect x="1971.0" y="61.0" width="22.0" height="13.6" rx="4.0" fill="#e0f2fe" stroke="#0369a1" stroke-width="1.25"/></g><text x="1919.0" y="99.5" text-anchor="middle" dominant-baseline="middle" fill="#0c4a6e" font-size="14.0"><tspan x="1919.0" dy="0" textLength="59.1" lengthAdjust="spacing">Battle.net</tspan><tspan x="1919.0" dy="16.0" textLength="63.0" lengthAdjust="spacing">OAuth 2.0</tspan></text></g><g data-dediren-node-id="blizzard-profile-api"><rect data-dediren-node-shape="archimate_rounded_rectangle" x="1839.0" y="228.0" width="160.0" height="80.0" rx="6" fill="#e0f2fe" stroke="#0369a1" stroke-width="1.25"/><g data-dediren-node-decorator="archimate_application_service" data-dediren-icon-kind="service" data-dediren-icon-size="22"><rect x="1971.0" y="237.0" width="22.0" height="13.6" rx="4.0" fill="#e0f2fe" stroke="#0369a1" stroke-width="1.25"/></g><text x="1919.0" y="275.5" text-anchor="middle" dominant-baseline="middle" fill="#0c4a6e" font-size="14.0"><tspan x="1919.0" dy="0" textLength="77.7" lengthAdjust="spacing">WoW Profile</tspan><tspan x="1919.0" dy="16.0" textLength="22.5" lengthAdjust="spacing">API</tspan></text></g><g data-dediren-node-id="blizzard-game-data-api"><rect data-dediren-node-shape="archimate_rounded_rectangle" x="1839.0" y="404.0" width="160.0" height="80.0" rx="6" fill="#e0f2fe" stroke="#0369a1" stroke-width="1.25"/><g data-dediren-node-decorator="archimate_application_service" data-dediren-icon-kind="service" data-dediren-icon-size="22"><rect x="1971.0" y="413.0" width="22.0" height="13.6" rx="4.0" fill="#e0f2fe" stroke="#0369a1" stroke-width="1.25"/></g><text x="1919.0" y="451.5" text-anchor="middle" dominant-baseline="middle" fill="#0c4a6e" font-size="14.0"><tspan x="1919.0" dy="0" textLength="76.2" lengthAdjust="spacing">WoW Game</tspan><tspan x="1919.0" dy="16.0" textLength="56.0" lengthAdjust="spacing">Data API</tspan></text></g><g data-dediren-node-id="static-web-apps"><rect data-dediren-node-shape="archimate_rectangle" x="1839.0" y="869.0" width="160.0" height="80.0" rx="0" fill="#d5e8d4" stroke="#4d7c0f" stroke-width="1.25"/><g data-dediren-node-decorator="archimate_technology_node" data-dediren-icon-kind="node" data-dediren-icon-size="22"><rect x="1971.0" y="882.0" width="18.0" height="12.8" rx="1.5" fill="#d5e8d4" stroke="#4d7c0f" stroke-width="1.25"/><path data-dediren-icon-part="node-3d-edges" d="M 1971.0 882.0 L 1975.0 878.0 L 1993.0 878.0 L 1989.0 882.0 M 1989.0 882.0 L 1993.0 878.0 M 1989.0 894.7 L 1993.0 890.8 M 1993.0 878.0 L 1993.0 890.8" fill="none" stroke="#4d7c0f" stroke-width="1.25" stroke-linejoin="round"/></g><text x="1919.0" y="916.5" text-anchor="middle" dominant-baseline="middle" fill="#365314" font-size="14.0"><tspan x="1919.0" dy="0" textLength="75.4" lengthAdjust="spacing">Azure Static</tspan><tspan x="1919.0" dy="16.0" textLength="64.5" lengthAdjust="spacing">Web Apps</tspan></text></g><g data-dediren-node-id="function-app"><rect data-dediren-node-shape="archimate_rectangle" x="2201.0" y="1673.0" width="208.0" height="80.0" rx="0" fill="#d5e8d4" stroke="#4d7c0f" stroke-width="1.25"/><g data-dediren-node-decorator="archimate_technology_node" data-dediren-icon-kind="node" data-dediren-icon-size="22"><rect x="2381.0" y="1686.0" width="18.0" height="12.8" rx="1.5" fill="#d5e8d4" stroke="#4d7c0f" stroke-width="1.25"/><path data-dediren-icon-part="node-3d-edges" d="M 2381.0 1686.0 L 2385.0 1682.0 L 2403.0 1682.0 L 2399.0 1686.0 M 2399.0 1686.0 L 2403.0 1682.0 M 2399.0 1698.7 L 2403.0 1694.8 M 2403.0 1682.0 L 2403.0 1694.8" fill="none" stroke="#4d7c0f" stroke-width="1.25" stroke-linejoin="round"/></g><text x="2305.0" y="1728.5" text-anchor="middle" dominant-baseline="middle" fill="#365314" font-size="14.0" textLength="122.9" lengthAdjust="spacing">Azure Function App</text></g><g data-dediren-node-id="cosmos-account"><rect data-dediren-node-shape="archimate_rectangle" x="1843.0" y="1463.0" width="160.0" height="80.0" rx="0" fill="#d5e8d4" stroke="#4d7c0f" stroke-width="1.25"/><g data-dediren-node-decorator="archimate_technology_node" data-dediren-icon-kind="node" data-dediren-icon-size="22"><rect x="1975.0" y="1476.0" width="18.0" height="12.8" rx="1.5" fill="#d5e8d4" stroke="#4d7c0f" stroke-width="1.25"/><path data-dediren-icon-part="node-3d-edges" d="M 1975.0 1476.0 L 1979.0 1472.0 L 1997.0 1472.0 L 1993.0 1476.0 M 1993.0 1476.0 L 1997.0 1472.0 M 1993.0 1488.7 L 1997.0 1484.8 M 1997.0 1472.0 L 1997.0 1484.8" fill="none" stroke="#4d7c0f" stroke-width="1.25" stroke-linejoin="round"/></g><text x="1923.0" y="1510.5" text-anchor="middle" dominant-baseline="middle" fill="#365314" font-size="14.0"><tspan x="1923.0" dy="0" textLength="74.6" lengthAdjust="spacing">Cosmos DB</tspan><tspan x="1923.0" dy="16.0" textLength="49.0" lengthAdjust="spacing">account</tspan></text></g><g data-dediren-node-id="storage-account"><rect data-dediren-node-shape="archimate_rectangle" x="1843.0" y="660.0" width="160.0" height="80.0" rx="0" fill="#d5e8d4" stroke="#4d7c0f" stroke-width="1.25"/><g data-dediren-node-decorator="archimate_technology_node" data-dediren-icon-kind="node" data-dediren-icon-size="22"><rect x="1975.0" y="673.0" width="18.0" height="12.8" rx="1.5" fill="#d5e8d4" stroke="#4d7c0f" stroke-width="1.25"/><path data-dediren-icon-part="node-3d-edges" d="M 1975.0 673.0 L 1979.0 669.0 L 1997.0 669.0 L 1993.0 673.0 M 1993.0 673.0 L 1997.0 669.0 M 1993.0 685.7 L 1997.0 681.8 M 1997.0 669.0 L 1997.0 681.8" fill="none" stroke="#4d7c0f" stroke-width="1.25" stroke-linejoin="round"/></g><text x="1923.0" y="707.5" text-anchor="middle" dominant-baseline="middle" fill="#365314" font-size="14.0"><tspan x="1923.0" dy="0" textLength="49.0" lengthAdjust="spacing">Storage</tspan><tspan x="1923.0" dy="16.0" textLength="49.0" lengthAdjust="spacing">account</tspan></text></g><g data-dediren-node-id="key-vault"><rect data-dediren-node-shape="archimate_rectangle" x="1843.0" y="1254.0" width="160.0" height="80.0" rx="0" fill="#d5e8d4" stroke="#4d7c0f" stroke-width="1.25"/><g data-dediren-node-decorator="archimate_technology_node" data-dediren-icon-kind="node" data-dediren-icon-size="22"><rect x="1975.0" y="1267.0" width="18.0" height="12.8" rx="1.5" fill="#d5e8d4" stroke="#4d7c0f" stroke-width="1.25"/><path data-dediren-icon-part="node-3d-edges" d="M 1975.0 1267.0 L 1979.0 1263.0 L 1997.0 1263.0 L 1993.0 1267.0 M 1993.0 1267.0 L 1997.0 1263.0 M 1993.0 1279.7 L 1997.0 1275.8 M 1997.0 1263.0 L 1997.0 1275.8" fill="none" stroke="#4d7c0f" stroke-width="1.25" stroke-linejoin="round"/></g><text x="1923.0" y="1309.5" text-anchor="middle" dominant-baseline="middle" fill="#365314" font-size="14.0" textLength="59.9" lengthAdjust="spacing">Key Vault</text></g><g data-dediren-node-id="application-insights"><rect data-dediren-node-shape="archimate_rectangle" x="1838.0" y="1045.0" width="170.0" height="80.0" rx="0" fill="#d5e8d4" stroke="#4d7c0f" stroke-width="1.25"/><g data-dediren-node-decorator="archimate_technology_node" data-dediren-icon-kind="node" data-dediren-icon-size="22"><rect x="1980.0" y="1058.0" width="18.0" height="12.8" rx="1.5" fill="#d5e8d4" stroke="#4d7c0f" stroke-width="1.25"/><path data-dediren-icon-part="node-3d-edges" d="M 1980.0 1058.0 L 1984.0 1054.0 L 2002.0 1054.0 L 1998.0 1058.0 M 1998.0 1058.0 L 2002.0 1054.0 M 1998.0 1070.7 L 2002.0 1066.8 M 2002.0 1054.0 L 2002.0 1066.8" fill="none" stroke="#4d7c0f" stroke-width="1.25" stroke-linejoin="round"/></g><text x="1923.0" y="1092.5" text-anchor="middle" dominant-baseline="middle" fill="#365314" font-size="14.0"><tspan x="1923.0" dy="0" textLength="68.4" lengthAdjust="spacing">Application</tspan><tspan x="1923.0" dy="16.0" textLength="48.2" lengthAdjust="spacing">Insights</tspan></text></g></g></svg>

