<svg xmlns="http://www.w3.org/2000/svg" role="img" width="1889" height="1433" viewBox="-20 -52 1889 1465" data-arch-a11y="root" data-arch-a11y-viewbox="-20.0 -20.0 1889.0 1433.0"><title>LFM - System Landscape</title>
<desc>At a glance, which applications make up LFM, which external systems they depend on, and which Azure platform hosts them?</desc>
<text data-arch-a11y="visible-title" x="-12" y="-32" font-family="sans-serif" font-size="16" font-weight="bold">LFM - System Landscape</text><rect x="-20.0" y="-20.0" width="1889.0" height="1433.0" fill="#ffffff"/><g font-family="Inter, &quot;Liberation Sans&quot;, &quot;Noto Sans&quot;, Arial, &quot;Helvetica Neue&quot;, &quot;Segoe UI&quot;, sans-serif" font-size="14"><g data-dediren-group-id="system-landscape-applications"><rect x="12.0" y="775.0" width="1090.0" height="606.0" rx="8" fill="#f8fafc" stroke="#94a3b8" stroke-width="1"/><text x="20.0" y="791.0" fill="#334155" font-size="12">LFM applications</text></g><g data-dediren-group-id="system-landscape-platform"><rect x="1306.0" y="12.0" width="531.0" height="849.0" rx="8" fill="#f8fafc" stroke="#94a3b8" stroke-width="1"/><text x="1314.0" y="28.0" fill="#334155" font-size="12">Azure hosting platform</text></g><g data-dediren-group-id="system-landscape-external"><rect x="1306.0" y="921.0" width="209.0" height="408.0" rx="8" fill="#f8fafc" stroke="#94a3b8" stroke-width="1"/><text x="1314.0" y="937.0" fill="#334155" font-size="12">Battle.net &amp; Blizzard services</text></g><g data-dediren-edge-id="contracts-serve-app"><marker id="marker-end-contracts-serve-app" data-dediren-edge-marker-end="open_arrow" markerWidth="10" markerHeight="10" refX="9" refY="5" orient="auto"><path d="M 1 1 L 9 5 L 1 9" fill="none" stroke="#475569" stroke-width="1.5"/></marker><path d="M 157.5 880.0 L 157.5 1236.0 Q 157.5 1244.0 165.5 1244.0 L 286.0 1244.0 L 426.5 1244.0 L 712.0 1244.0 L 857.0 1244.0 L 967.5 1244.0 Q 975.5 1244.0 975.5 1252.0 L 975.5 1276.0" fill="none" stroke="#475569" stroke-width="1.25" stroke-linecap="round" stroke-linejoin="round" marker-end="url(#marker-end-contracts-serve-app)"/><text x="221.8" y="1262.0" text-anchor="middle" fill="none" font-size="15.4" font-weight="600" stroke="#ffffff" stroke-width="2">contracts</text><text x="221.8" y="1262.0" text-anchor="middle" fill="#374151" font-size="15.4" font-weight="600">contracts</text></g><g data-dediren-edge-id="contracts-serve-api"><marker id="marker-end-contracts-serve-api" data-dediren-edge-marker-end="open_arrow" markerWidth="10" markerHeight="10" refX="9" refY="5" orient="auto"><path d="M 1 1 L 9 5 L 1 9" fill="none" stroke="#475569" stroke-width="1.5"/></marker><g data-dediren-line-jump-masks="contracts-serve-api"><path d="M 151.5 912.0 Q 157.5 906.0 163.5 912.0" fill="none" stroke="#f8fafc" stroke-width="6"/></g><path d="M 104.5 880.0 L 104.5 904.0 Q 104.5 912.0 112.5 912.0 L 151.5 912.0 Q 157.5 906.0 163.5 912.0 L 418.0 912.0 Q 426.0 912.0 426.0 920.0 L 426.0 944.0" fill="none" stroke="#475569" stroke-width="1.25" stroke-linecap="round" stroke-linejoin="round" marker-end="url(#marker-end-contracts-serve-api)"/><text x="265.3" y="930.0" text-anchor="middle" fill="none" font-size="15.4" font-weight="600" stroke="#ffffff" stroke-width="2">contracts</text><text x="265.3" y="930.0" text-anchor="middle" fill="#374151" font-size="15.4" font-weight="600">contracts</text></g><g data-dediren-edge-id="api-realizes-rest-api"><marker id="marker-end-api-realizes-rest-api" data-dediren-edge-marker-end="hollow_triangle" markerWidth="10" markerHeight="10" refX="9" refY="5" orient="auto"><path d="M 1 1 L 9 5 L 1 9 Z" fill="#ffffff" stroke="#374151" stroke-width="1"/></marker><path d="M 426.0 1026.0 L 426.0 1050.0 Q 426.0 1058.0 434.0 1058.0 L 704.0 1058.0 Q 712.0 1058.0 712.0 1066.0 L 712.0 1090.0" fill="none" stroke="#374151" stroke-width="1.5" stroke-linecap="round" stroke-linejoin="round" stroke-dasharray="8 5" marker-end="url(#marker-end-api-realizes-rest-api)"/><text x="569.0" y="1076.0" text-anchor="middle" fill="none" font-size="15.4" font-weight="600" stroke="#ffffff" stroke-width="2">exposes</text><text x="569.0" y="1076.0" text-anchor="middle" fill="#374151" font-size="15.4" font-weight="600">exposes</text></g><g data-dediren-edge-id="rest-api-serves-app"><marker id="marker-end-rest-api-serves-app" data-dediren-edge-marker-end="open_arrow" markerWidth="10" markerHeight="10" refX="9" refY="5" orient="auto"><path d="M 1 1 L 9 5 L 1 9" fill="none" stroke="#475569" stroke-width="1.5"/></marker><path d="M 712.0 1172.0 L 712.0 1196.0 Q 712.0 1204.0 720.0 1204.0 L 1010.5 1204.0 Q 1018.5 1204.0 1018.5 1212.0 L 1018.5 1276.0" fill="none" stroke="#475569" stroke-width="1.25" stroke-linecap="round" stroke-linejoin="round" marker-end="url(#marker-end-rest-api-serves-app)"/><text x="865.3" y="1222.0" text-anchor="middle" fill="none" font-size="15.4" font-weight="600" stroke="#ffffff" stroke-width="2">serves</text><text x="865.3" y="1222.0" text-anchor="middle" fill="#374151" font-size="15.4" font-weight="600">serves</text></g><g data-dediren-edge-id="battlenet-oauth-serves-api"><marker id="marker-end-battlenet-oauth-serves-api" data-dediren-edge-marker-end="open_arrow" markerWidth="10" markerHeight="10" refX="9" refY="5" orient="auto"><path d="M 1 1 L 9 5 L 1 9" fill="none" stroke="#475569" stroke-width="1.5"/></marker><path d="M 1330.0 1125.0 L 1286.0 1125.0 L 1202.0 1125.0 Q 1194.0 1125.0 1194.0 1117.0 L 1194.0 993.0 Q 1194.0 985.0 1186.0 985.0 L 1122.0 985.0 L 997.5 985.0 L 857.0 985.0 L 712.0 985.0 L 567.0 985.0 L 507.0 985.0" fill="none" stroke="#475569" stroke-width="1.25" stroke-linecap="round" stroke-linejoin="round" marker-end="url(#marker-end-battlenet-oauth-serves-api)"/><text x="1228.0" y="1055.0" text-anchor="start" fill="none" font-size="15.4" font-weight="600" stroke="#ffffff" stroke-width="2">OAuth</text><text x="1228.0" y="1055.0" text-anchor="start" fill="#374151" font-size="15.4" font-weight="600">OAuth</text></g><g data-dediren-edge-id="profile-api-serves-api"><marker id="marker-end-profile-api-serves-api" data-dediren-edge-marker-end="open_arrow" markerWidth="10" markerHeight="10" refX="9" refY="5" orient="auto"><path d="M 1 1 L 9 5 L 1 9" fill="none" stroke="#475569" stroke-width="1.5"/></marker><path d="M 1330.0 1265.0 L 1286.0 1265.0 L 1202.0 1265.0 Q 1194.0 1265.0 1194.0 1257.0 L 1194.0 993.0 Q 1194.0 985.0 1186.0 985.0 L 1122.0 985.0 L 997.5 985.0 L 857.0 985.0 L 712.0 985.0 L 567.0 985.0 L 507.0 985.0" fill="none" stroke="#475569" stroke-width="1.25" stroke-linecap="round" stroke-linejoin="round" marker-end="url(#marker-end-profile-api-serves-api)"/><text x="1308.0" y="1367.0" text-anchor="middle" fill="none" font-size="15.4" font-weight="600" stroke="#ffffff" stroke-width="2">profile data</text><text x="1308.0" y="1367.0" text-anchor="middle" fill="#374151" font-size="15.4" font-weight="600">profile data</text></g><g data-dediren-edge-id="game-data-api-serves-api"><marker id="marker-end-game-data-api-serves-api" data-dediren-edge-marker-end="open_arrow" markerWidth="10" markerHeight="10" refX="9" refY="5" orient="auto"><path d="M 1 1 L 9 5 L 1 9" fill="none" stroke="#475569" stroke-width="1.5"/></marker><path d="M 1330.0 985.0 L 1286.0 985.0 L 1122.0 985.0 L 997.5 985.0 L 857.0 985.0 L 712.0 985.0 L 567.0 985.0 L 507.0 985.0" fill="none" stroke="#475569" stroke-width="1.25" stroke-linecap="round" stroke-linejoin="round" marker-end="url(#marker-end-game-data-api-serves-api)"/><text x="1308.0" y="891.0" text-anchor="middle" fill="none" font-size="15.4" font-weight="600" stroke="#ffffff" stroke-width="2">game data</text><text x="1308.0" y="891.0" text-anchor="middle" fill="#374151" font-size="15.4" font-weight="600">game data</text></g><g data-dediren-edge-id="swa-hosts-app"><marker id="marker-end-swa-hosts-app" data-dediren-edge-marker-end="open_arrow" markerWidth="10" markerHeight="10" refX="9" refY="5" orient="auto"><path d="M 1 1 L 9 5 L 1 9" fill="none" stroke="#475569" stroke-width="1.5"/></marker><g data-dediren-line-jump-masks="swa-hosts-app"><path d="M 1154.0 979.0 Q 1160.0 985.0 1154.0 991.0" fill="none" stroke="#ffffff" stroke-width="6"/></g><path d="M 1330.0 221.0 L 1286.0 221.0 L 1162.0 221.0 Q 1154.0 221.0 1154.0 229.0 L 1154.0 979.0 Q 1160.0 985.0 1154.0 991.0 L 1154.0 1309.0 Q 1154.0 1317.0 1146.0 1317.0 L 1122.0 1317.0 L 1078.0 1317.0" fill="none" stroke="#475569" stroke-width="1.25" stroke-linecap="round" stroke-linejoin="round" marker-end="url(#marker-end-swa-hosts-app)"/><text x="1160.0" y="769.0" text-anchor="start" fill="none" font-size="15.4" font-weight="600" stroke="#ffffff" stroke-width="2">hosts</text><text x="1160.0" y="769.0" text-anchor="start" fill="#374151" font-size="15.4" font-weight="600">hosts</text></g><g data-dediren-edge-id="function-app-hosts-api"><marker id="marker-end-function-app-hosts-api" data-dediren-edge-marker-end="open_arrow" markerWidth="10" markerHeight="10" refX="9" refY="5" orient="auto"><path d="M 1 1 L 9 5 L 1 9" fill="none" stroke="#475569" stroke-width="1.5"/></marker><g data-dediren-line-jump-masks="function-app-hosts-api"><path d="M 1148.0 985.0 Q 1154.0 979.0 1160.0 985.0" fill="none" stroke="#ffffff" stroke-width="6"/></g><path d="M 1620.0 797.0 L 1560.0 797.0 L 1415.0 797.0 L 1286.0 797.0 L 1202.0 797.0 Q 1194.0 797.0 1194.0 805.0 L 1194.0 977.0 Q 1194.0 985.0 1186.0 985.0 L 1160.0 985.0 Q 1154.0 979.0 1148.0 985.0 L 1122.0 985.0 L 997.5 985.0 L 857.0 985.0 L 712.0 985.0 L 567.0 985.0 L 507.0 985.0" fill="none" stroke="#475569" stroke-width="1.25" stroke-linecap="round" stroke-linejoin="round" marker-end="url(#marker-end-function-app-hosts-api)"/><text x="1590.0" y="815.0" text-anchor="middle" fill="none" font-size="15.4" font-weight="600" stroke="#ffffff" stroke-width="2">hosts</text><text x="1590.0" y="815.0" text-anchor="middle" fill="#374151" font-size="15.4" font-weight="600">hosts</text></g><g data-dediren-edge-id="cosmos-serves-function-app"><marker id="marker-end-cosmos-serves-function-app" data-dediren-edge-marker-end="open_arrow" markerWidth="10" markerHeight="10" refX="9" refY="5" orient="auto"><path d="M 1 1 L 9 5 L 1 9" fill="none" stroke="#475569" stroke-width="1.5"/></marker><path d="M 1415.0 692.0 L 1415.0 716.0 Q 1415.0 724.0 1423.0 724.0 L 1660.7 724.0 Q 1668.7 724.0 1668.7 732.0 L 1668.7 756.0" fill="none" stroke="#475569" stroke-width="1.25" stroke-linecap="round" stroke-linejoin="round" marker-end="url(#marker-end-cosmos-serves-function-app)"/><text x="1541.9" y="742.0" text-anchor="middle" fill="none" font-size="15.4" font-weight="600" stroke="#ffffff" stroke-width="2">data plane</text><text x="1541.9" y="742.0" text-anchor="middle" fill="#374151" font-size="15.4" font-weight="600">data plane</text></g><g data-dediren-edge-id="storage-serves-function-app"><marker id="marker-end-storage-serves-function-app" data-dediren-edge-marker-end="open_arrow" markerWidth="10" markerHeight="10" refX="9" refY="5" orient="auto"><path d="M 1 1 L 9 5 L 1 9" fill="none" stroke="#475569" stroke-width="1.5"/></marker><path d="M 1415.0 117.0 L 1415.0 141.0 Q 1415.0 149.0 1423.0 149.0 L 1692.9 149.0 Q 1700.9 149.0 1700.9 157.0 L 1700.9 756.0" fill="none" stroke="#475569" stroke-width="1.25" stroke-linecap="round" stroke-linejoin="round" marker-end="url(#marker-end-storage-serves-function-app)"/><text x="1558.0" y="167.0" text-anchor="middle" fill="none" font-size="15.4" font-weight="600" stroke="#ffffff" stroke-width="2">blob data</text><text x="1558.0" y="167.0" text-anchor="middle" fill="#374151" font-size="15.4" font-weight="600">blob data</text></g><g data-dediren-edge-id="key-vault-serves-function-app"><marker id="marker-end-key-vault-serves-function-app" data-dediren-edge-marker-end="open_arrow" markerWidth="10" markerHeight="10" refX="9" refY="5" orient="auto"><path d="M 1 1 L 9 5 L 1 9" fill="none" stroke="#475569" stroke-width="1.5"/></marker><g data-dediren-line-jump-masks="key-vault-serves-function-app"><path d="M 1694.9 579.0 Q 1700.9 573.0 1706.9 579.0" fill="none" stroke="#f8fafc" stroke-width="6"/></g><path d="M 1415.0 547.0 L 1415.0 571.0 Q 1415.0 579.0 1423.0 579.0 L 1694.9 579.0 Q 1700.9 573.0 1706.9 579.0 L 1725.1 579.0 Q 1733.1 579.0 1733.1 587.0 L 1733.1 756.0" fill="none" stroke="#475569" stroke-width="1.25" stroke-linecap="round" stroke-linejoin="round" marker-end="url(#marker-end-key-vault-serves-function-app)"/><text x="1574.1" y="597.0" text-anchor="middle" fill="none" font-size="15.4" font-weight="600" stroke="#ffffff" stroke-width="2">secrets</text><text x="1574.1" y="597.0" text-anchor="middle" fill="#374151" font-size="15.4" font-weight="600">secrets</text></g><g data-dediren-edge-id="app-insights-serves-function-app"><marker id="marker-end-app-insights-serves-function-app" data-dediren-edge-marker-end="open_arrow" markerWidth="10" markerHeight="10" refX="9" refY="5" orient="auto"><path d="M 1 1 L 9 5 L 1 9" fill="none" stroke="#475569" stroke-width="1.5"/></marker><g data-dediren-line-jump-masks="app-insights-serves-function-app"><path d="M 1694.9 434.0 Q 1700.9 428.0 1706.9 434.0" fill="none" stroke="#f8fafc" stroke-width="6"/></g><path d="M 1415.0 402.0 L 1415.0 426.0 Q 1415.0 434.0 1423.0 434.0 L 1694.9 434.0 Q 1700.9 428.0 1706.9 434.0 L 1757.3 434.0 Q 1765.3 434.0 1765.3 442.0 L 1765.3 756.0" fill="none" stroke="#475569" stroke-width="1.25" stroke-linecap="round" stroke-linejoin="round" marker-end="url(#marker-end-app-insights-serves-function-app)"/><text x="1590.2" y="452.0" text-anchor="middle" fill="none" font-size="15.4" font-weight="600" stroke="#ffffff" stroke-width="2">telemetry</text><text x="1590.2" y="452.0" text-anchor="middle" fill="#374151" font-size="15.4" font-weight="600">telemetry</text></g><g data-dediren-node-id="lfm-app"><rect data-dediren-node-shape="archimate_rectangle" x="917.0" y="1277.0" width="160.0" height="80.0" rx="0" fill="#e0f2fe" stroke="#0369a1" stroke-width="1.25"/><g data-dediren-node-decorator="archimate_application_component" data-dediren-icon-kind="component" data-dediren-icon-size="22"><rect x="1053.0" y="1286.0" width="18.0" height="15.8" rx="1.5" fill="#e0f2fe" stroke="#0369a1" stroke-width="1.25"/><rect x="1049.0" y="1288.6" width="7.9" height="5.7" rx="1.2" fill="#e0f2fe" stroke="#0369a1" stroke-width="1.25"/><rect x="1049.0" y="1295.7" width="7.9" height="5.7" rx="1.2" fill="#e0f2fe" stroke="#0369a1" stroke-width="1.25"/></g><text x="997.0" y="1332.5" text-anchor="middle" dominant-baseline="middle" fill="#0c4a6e" font-size="14.0" textLength="52.1" lengthAdjust="spacing">Lfm.App</text></g><g data-dediren-node-id="lfm-api"><rect data-dediren-node-shape="archimate_rectangle" x="346.0" y="945.0" width="160.0" height="80.0" rx="0" fill="#e0f2fe" stroke="#0369a1" stroke-width="1.25"/><g data-dediren-node-decorator="archimate_application_component" data-dediren-icon-kind="component" data-dediren-icon-size="22"><rect x="482.0" y="954.0" width="18.0" height="15.8" rx="1.5" fill="#e0f2fe" stroke="#0369a1" stroke-width="1.25"/><rect x="478.0" y="956.6" width="7.9" height="5.7" rx="1.2" fill="#e0f2fe" stroke="#0369a1" stroke-width="1.25"/><rect x="478.0" y="963.7" width="7.9" height="5.7" rx="1.2" fill="#e0f2fe" stroke="#0369a1" stroke-width="1.25"/></g><text x="426.0" y="1000.5" text-anchor="middle" dominant-baseline="middle" fill="#0c4a6e" font-size="14.0" textLength="47.4" lengthAdjust="spacing">Lfm.Api</text></g><g data-dediren-node-id="lfm-contracts"><rect data-dediren-node-shape="archimate_rectangle" x="36.0" y="799.0" width="190.0" height="80.0" rx="0" fill="#e0f2fe" stroke="#0369a1" stroke-width="1.25"/><g data-dediren-node-decorator="archimate_application_component" data-dediren-icon-kind="component" data-dediren-icon-size="22"><rect x="202.0" y="808.0" width="18.0" height="15.8" rx="1.5" fill="#e0f2fe" stroke="#0369a1" stroke-width="1.25"/><rect x="198.0" y="810.6" width="7.9" height="5.7" rx="1.2" fill="#e0f2fe" stroke="#0369a1" stroke-width="1.25"/><rect x="198.0" y="817.7" width="7.9" height="5.7" rx="1.2" fill="#e0f2fe" stroke="#0369a1" stroke-width="1.25"/></g><text x="131.0" y="854.5" text-anchor="middle" dominant-baseline="middle" fill="#0c4a6e" font-size="14.0" textLength="87.1" lengthAdjust="spacing">Lfm.Contracts</text></g><g data-dediren-node-id="rest-api"><rect data-dediren-node-shape="archimate_rectangle" x="627.0" y="1091.0" width="170.0" height="80.0" rx="0" fill="#e0f2fe" stroke="#0369a1" stroke-width="1.25"/><g data-dediren-node-decorator="archimate_application_interface" data-dediren-icon-kind="interface" data-dediren-icon-size="22"><ellipse cx="784.8" cy="1106.2" rx="4.0" ry="4.0" fill="#e0f2fe" stroke="#0369a1" stroke-width="1.25"/><path d="M 771.2 1106.2 L 780.9 1106.2" fill="none" stroke="#0369a1" stroke-width="1.25"/></g><text x="712.0" y="1138.5" text-anchor="middle" dominant-baseline="middle" fill="#0c4a6e" font-size="14.0"><tspan x="712.0" dy="0" textLength="63.7" lengthAdjust="spacing">REST API</tspan><tspan x="712.0" dy="16.0" textLength="59.9" lengthAdjust="spacing">(/api/v1/*)</tspan></text></g><g data-dediren-node-id="battlenet-oauth"><rect data-dediren-node-shape="archimate_rounded_rectangle" x="1331.0" y="1085.0" width="160.0" height="80.0" rx="6" fill="#e0f2fe" stroke="#0369a1" stroke-width="1.25"/><g data-dediren-node-decorator="archimate_application_service" data-dediren-icon-kind="service" data-dediren-icon-size="22"><rect x="1463.0" y="1094.0" width="22.0" height="13.6" rx="4.0" fill="#e0f2fe" stroke="#0369a1" stroke-width="1.25"/></g><text x="1411.0" y="1132.5" text-anchor="middle" dominant-baseline="middle" fill="#0c4a6e" font-size="14.0"><tspan x="1411.0" dy="0" textLength="59.1" lengthAdjust="spacing">Battle.net</tspan><tspan x="1411.0" dy="16.0" textLength="63.0" lengthAdjust="spacing">OAuth 2.0</tspan></text></g><g data-dediren-node-id="blizzard-profile-api"><rect data-dediren-node-shape="archimate_rounded_rectangle" x="1331.0" y="1225.0" width="160.0" height="80.0" rx="6" fill="#e0f2fe" stroke="#0369a1" stroke-width="1.25"/><g data-dediren-node-decorator="archimate_application_service" data-dediren-icon-kind="service" data-dediren-icon-size="22"><rect x="1463.0" y="1234.0" width="22.0" height="13.6" rx="4.0" fill="#e0f2fe" stroke="#0369a1" stroke-width="1.25"/></g><text x="1411.0" y="1272.5" text-anchor="middle" dominant-baseline="middle" fill="#0c4a6e" font-size="14.0"><tspan x="1411.0" dy="0" textLength="77.7" lengthAdjust="spacing">WoW Profile</tspan><tspan x="1411.0" dy="16.0" textLength="22.5" lengthAdjust="spacing">API</tspan></text></g><g data-dediren-node-id="blizzard-game-data-api"><rect data-dediren-node-shape="archimate_rounded_rectangle" x="1331.0" y="945.0" width="160.0" height="80.0" rx="6" fill="#e0f2fe" stroke="#0369a1" stroke-width="1.25"/><g data-dediren-node-decorator="archimate_application_service" data-dediren-icon-kind="service" data-dediren-icon-size="22"><rect x="1463.0" y="954.0" width="22.0" height="13.6" rx="4.0" fill="#e0f2fe" stroke="#0369a1" stroke-width="1.25"/></g><text x="1411.0" y="992.5" text-anchor="middle" dominant-baseline="middle" fill="#0c4a6e" font-size="14.0"><tspan x="1411.0" dy="0" textLength="76.2" lengthAdjust="spacing">WoW Game</tspan><tspan x="1411.0" dy="16.0" textLength="56.0" lengthAdjust="spacing">Data API</tspan></text></g><g data-dediren-node-id="static-web-apps"><rect data-dediren-node-shape="archimate_rectangle" x="1331.0" y="181.0" width="160.0" height="80.0" rx="0" fill="#d5e8d4" stroke="#4d7c0f" stroke-width="1.25"/><g data-dediren-node-decorator="archimate_technology_node" data-dediren-icon-kind="node" data-dediren-icon-size="22"><rect x="1463.0" y="194.0" width="18.0" height="12.8" rx="1.5" fill="#d5e8d4" stroke="#4d7c0f" stroke-width="1.25"/><path data-dediren-icon-part="node-3d-edges" d="M 1463.0 194.0 L 1467.0 190.0 L 1485.0 190.0 L 1481.0 194.0 M 1481.0 194.0 L 1485.0 190.0 M 1481.0 206.7 L 1485.0 202.8 M 1485.0 190.0 L 1485.0 202.8" fill="none" stroke="#4d7c0f" stroke-width="1.25" stroke-linejoin="round"/></g><text x="1411.0" y="228.5" text-anchor="middle" dominant-baseline="middle" fill="#365314" font-size="14.0"><tspan x="1411.0" dy="0" textLength="75.4" lengthAdjust="spacing">Azure Static</tspan><tspan x="1411.0" dy="16.0" textLength="64.5" lengthAdjust="spacing">Web Apps</tspan></text></g><g data-dediren-node-id="function-app"><rect data-dediren-node-shape="archimate_rectangle" x="1621.0" y="757.0" width="192.0" height="80.0" rx="0" fill="#d5e8d4" stroke="#4d7c0f" stroke-width="1.25"/><g data-dediren-node-decorator="archimate_technology_node" data-dediren-icon-kind="node" data-dediren-icon-size="22"><rect x="1785.0" y="770.0" width="18.0" height="12.8" rx="1.5" fill="#d5e8d4" stroke="#4d7c0f" stroke-width="1.25"/><path data-dediren-icon-part="node-3d-edges" d="M 1785.0 770.0 L 1789.0 766.0 L 1807.0 766.0 L 1803.0 770.0 M 1803.0 770.0 L 1807.0 766.0 M 1803.0 782.7 L 1807.0 778.8 M 1807.0 766.0 L 1807.0 778.8" fill="none" stroke="#4d7c0f" stroke-width="1.25" stroke-linejoin="round"/></g><text x="1717.0" y="812.5" text-anchor="middle" dominant-baseline="middle" fill="#365314" font-size="14.0" textLength="122.9" lengthAdjust="spacing">Azure Function App</text></g><g data-dediren-node-id="cosmos-account"><rect data-dediren-node-shape="archimate_rectangle" x="1335.0" y="611.0" width="160.0" height="80.0" rx="0" fill="#d5e8d4" stroke="#4d7c0f" stroke-width="1.25"/><g data-dediren-node-decorator="archimate_technology_node" data-dediren-icon-kind="node" data-dediren-icon-size="22"><rect x="1467.0" y="624.0" width="18.0" height="12.8" rx="1.5" fill="#d5e8d4" stroke="#4d7c0f" stroke-width="1.25"/><path data-dediren-icon-part="node-3d-edges" d="M 1467.0 624.0 L 1471.0 620.0 L 1489.0 620.0 L 1485.0 624.0 M 1485.0 624.0 L 1489.0 620.0 M 1485.0 636.7 L 1489.0 632.8 M 1489.0 620.0 L 1489.0 632.8" fill="none" stroke="#4d7c0f" stroke-width="1.25" stroke-linejoin="round"/></g><text x="1415.0" y="658.5" text-anchor="middle" dominant-baseline="middle" fill="#365314" font-size="14.0"><tspan x="1415.0" dy="0" textLength="74.6" lengthAdjust="spacing">Cosmos DB</tspan><tspan x="1415.0" dy="16.0" textLength="49.0" lengthAdjust="spacing">account</tspan></text></g><g data-dediren-node-id="storage-account"><rect data-dediren-node-shape="archimate_rectangle" x="1335.0" y="36.0" width="160.0" height="80.0" rx="0" fill="#d5e8d4" stroke="#4d7c0f" stroke-width="1.25"/><g data-dediren-node-decorator="archimate_technology_node" data-dediren-icon-kind="node" data-dediren-icon-size="22"><rect x="1467.0" y="49.0" width="18.0" height="12.8" rx="1.5" fill="#d5e8d4" stroke="#4d7c0f" stroke-width="1.25"/><path data-dediren-icon-part="node-3d-edges" d="M 1467.0 49.0 L 1471.0 45.0 L 1489.0 45.0 L 1485.0 49.0 M 1485.0 49.0 L 1489.0 45.0 M 1485.0 61.7 L 1489.0 57.8 M 1489.0 45.0 L 1489.0 57.8" fill="none" stroke="#4d7c0f" stroke-width="1.25" stroke-linejoin="round"/></g><text x="1415.0" y="83.5" text-anchor="middle" dominant-baseline="middle" fill="#365314" font-size="14.0"><tspan x="1415.0" dy="0" textLength="49.0" lengthAdjust="spacing">Storage</tspan><tspan x="1415.0" dy="16.0" textLength="49.0" lengthAdjust="spacing">account</tspan></text></g><g data-dediren-node-id="key-vault"><rect data-dediren-node-shape="archimate_rectangle" x="1335.0" y="466.0" width="160.0" height="80.0" rx="0" fill="#d5e8d4" stroke="#4d7c0f" stroke-width="1.25"/><g data-dediren-node-decorator="archimate_technology_node" data-dediren-icon-kind="node" data-dediren-icon-size="22"><rect x="1467.0" y="479.0" width="18.0" height="12.8" rx="1.5" fill="#d5e8d4" stroke="#4d7c0f" stroke-width="1.25"/><path data-dediren-icon-part="node-3d-edges" d="M 1467.0 479.0 L 1471.0 475.0 L 1489.0 475.0 L 1485.0 479.0 M 1485.0 479.0 L 1489.0 475.0 M 1485.0 491.7 L 1489.0 487.8 M 1489.0 475.0 L 1489.0 487.8" fill="none" stroke="#4d7c0f" stroke-width="1.25" stroke-linejoin="round"/></g><text x="1415.0" y="521.5" text-anchor="middle" dominant-baseline="middle" fill="#365314" font-size="14.0" textLength="59.9" lengthAdjust="spacing">Key Vault</text></g><g data-dediren-node-id="application-insights"><rect data-dediren-node-shape="archimate_rectangle" x="1330.0" y="321.0" width="170.0" height="80.0" rx="0" fill="#d5e8d4" stroke="#4d7c0f" stroke-width="1.25"/><g data-dediren-node-decorator="archimate_technology_node" data-dediren-icon-kind="node" data-dediren-icon-size="22"><rect x="1472.0" y="334.0" width="18.0" height="12.8" rx="1.5" fill="#d5e8d4" stroke="#4d7c0f" stroke-width="1.25"/><path data-dediren-icon-part="node-3d-edges" d="M 1472.0 334.0 L 1476.0 330.0 L 1494.0 330.0 L 1490.0 334.0 M 1490.0 334.0 L 1494.0 330.0 M 1490.0 346.7 L 1494.0 342.8 M 1494.0 330.0 L 1494.0 342.8" fill="none" stroke="#4d7c0f" stroke-width="1.25" stroke-linejoin="round"/></g><text x="1415.0" y="368.5" text-anchor="middle" dominant-baseline="middle" fill="#365314" font-size="14.0"><tspan x="1415.0" dy="0" textLength="68.4" lengthAdjust="spacing">Application</tspan><tspan x="1415.0" dy="16.0" textLength="48.2" lengthAdjust="spacing">Insights</tspan></text></g></g></svg>

