<svg xmlns="http://www.w3.org/2000/svg" role="img" width="1933" height="1428" viewBox="-20 -52 1933 1460" data-arch-a11y="root" data-arch-a11y-viewbox="-20.0 -20.0 1933.0 1428.0"><title>LFM - System Landscape</title>
<desc>At a glance, which applications make up LFM, which external systems they depend on, and which Azure platform hosts them?</desc>
<text data-arch-a11y="visible-title" x="-12" y="-32" font-family="sans-serif" font-size="16" font-weight="bold">LFM - System Landscape</text><rect x="-20.0" y="-20.0" width="1933.0" height="1428.0" fill="#ffffff"/><g font-family="Inter, &quot;Liberation Sans&quot;, &quot;Noto Sans&quot;, Arial, &quot;Helvetica Neue&quot;, &quot;Segoe UI&quot;, sans-serif" font-size="14"><g data-dediren-group-id="system-landscape-applications"><rect x="755.0" y="432.0" width="1126.0" height="703.0" rx="8" fill="#f8fafc" stroke="#94a3b8" stroke-width="1"/><text x="763.0" y="448.0" fill="#334155" font-size="12">LFM applications</text></g><g data-dediren-group-id="system-landscape-platform"><rect x="12.0" y="572.0" width="535.0" height="804.0" rx="8" fill="#f8fafc" stroke="#94a3b8" stroke-width="1"/><text x="20.0" y="588.0" fill="#334155" font-size="12">Azure hosting platform</text></g><g data-dediren-group-id="system-landscape-external"><rect x="266.0" y="12.0" width="281.0" height="500.0" rx="8" fill="#f8fafc" stroke="#94a3b8" stroke-width="1"/><text x="274.0" y="28.0" fill="#334155" font-size="12">Battle.net &amp; Blizzard services</text></g><g data-dediren-edge-id="contracts-serve-app"><marker id="marker-end-contracts-serve-app" data-dediren-edge-marker-end="open_arrow" markerWidth="10" markerHeight="10" refX="5" refY="5" orient="auto"><path d="M 1 1 L 9 5 L 1 9" fill="none" stroke="#475569" stroke-width="1.5"/></marker><path d="M 900.5 586.0 L 900.5 942.0 Q 900.5 950.0 908.5 950.0 L 1029.0 950.0 L 1169.5 950.0 L 1459.0 950.0 L 1604.0 950.0 L 1714.5 950.0 Q 1722.5 950.0 1722.5 958.0 L 1722.5 982.0" fill="none" stroke="#475569" stroke-width="1.25" stroke-linecap="round" stroke-linejoin="round" marker-end="url(#marker-end-contracts-serve-app)"/><text x="964.8" y="968.0" text-anchor="middle" fill="none" font-size="15.4" font-weight="600" stroke="#ffffff" stroke-width="2">contracts</text><text x="964.8" y="968.0" text-anchor="middle" fill="#374151" font-size="15.4" font-weight="600">contracts</text></g><g data-dediren-edge-id="contracts-serve-api"><marker id="marker-end-contracts-serve-api" data-dediren-edge-marker-end="open_arrow" markerWidth="10" markerHeight="10" refX="5" refY="5" orient="auto"><path d="M 1 1 L 9 5 L 1 9" fill="none" stroke="#475569" stroke-width="1.5"/></marker><g data-dediren-line-jump-masks="contracts-serve-api"><path d="M 894.5 618.0 Q 900.5 612.0 906.5 618.0" fill="none" stroke="#f8fafc" stroke-width="6"/></g><path d="M 847.5 586.0 L 847.5 610.0 Q 847.5 618.0 855.5 618.0 L 894.5 618.0 Q 900.5 612.0 906.5 618.0 L 1161.0 618.0 Q 1169.0 618.0 1169.0 626.0 L 1169.0 650.0" fill="none" stroke="#475569" stroke-width="1.25" stroke-linecap="round" stroke-linejoin="round" marker-end="url(#marker-end-contracts-serve-api)"/><text x="1008.3" y="636.0" text-anchor="middle" fill="none" font-size="15.4" font-weight="600" stroke="#ffffff" stroke-width="2">contracts</text><text x="1008.3" y="636.0" text-anchor="middle" fill="#374151" font-size="15.4" font-weight="600">contracts</text></g><g data-dediren-edge-id="api-realizes-rest-api"><marker id="marker-end-api-realizes-rest-api" data-dediren-edge-marker-end="hollow_triangle" markerWidth="10" markerHeight="10" refX="5" refY="5" orient="auto"><path d="M 1 1 L 9 5 L 1 9 Z" fill="#ffffff" stroke="#374151" stroke-width="1"/></marker><path d="M 1169.0 732.0 L 1169.0 756.0 Q 1169.0 764.0 1177.0 764.0 L 1451.0 764.0 Q 1459.0 764.0 1459.0 772.0 L 1459.0 796.0" fill="none" stroke="#374151" stroke-width="1.5" stroke-linecap="round" stroke-linejoin="round" stroke-dasharray="8 5" marker-end="url(#marker-end-api-realizes-rest-api)"/><text x="1314.0" y="782.0" text-anchor="middle" fill="none" font-size="15.4" font-weight="600" stroke="#ffffff" stroke-width="2">exposes</text><text x="1314.0" y="782.0" text-anchor="middle" fill="#374151" font-size="15.4" font-weight="600">exposes</text></g><g data-dediren-edge-id="rest-api-serves-app"><marker id="marker-end-rest-api-serves-app" data-dediren-edge-marker-end="open_arrow" markerWidth="10" markerHeight="10" refX="5" refY="5" orient="auto"><path d="M 1 1 L 9 5 L 1 9" fill="none" stroke="#475569" stroke-width="1.5"/></marker><path d="M 1459.0 878.0 L 1459.0 902.0 Q 1459.0 910.0 1467.0 910.0 L 1757.5 910.0 Q 1765.5 910.0 1765.5 918.0 L 1765.5 982.0" fill="none" stroke="#475569" stroke-width="1.25" stroke-linecap="round" stroke-linejoin="round" marker-end="url(#marker-end-rest-api-serves-app)"/><text x="1612.3" y="928.0" text-anchor="middle" fill="none" font-size="15.4" font-weight="600" stroke="#ffffff" stroke-width="2">serves</text><text x="1612.3" y="928.0" text-anchor="middle" fill="#374151" font-size="15.4" font-weight="600">serves</text></g><g data-dediren-edge-id="battlenet-oauth-serves-api"><marker id="marker-end-battlenet-oauth-serves-api" data-dediren-edge-marker-end="open_arrow" markerWidth="10" markerHeight="10" refX="5" refY="5" orient="auto"><path d="M 1 1 L 9 5 L 1 9" fill="none" stroke="#475569" stroke-width="1.5"/></marker><path d="M 362.0 360.0 L 338.0 360.0 Q 330.0 360.0 330.0 368.0 L 330.0 424.0 Q 330.0 432.0 338.0 432.0 L 442.5 432.0 L 567.0 432.0 L 597.0 432.0 Q 599.0 432.0 599.0 430.0 L 599.0 430.0 Q 599.0 428.0 601.0 428.0 L 695.0 428.0 Q 703.0 428.0 703.0 436.0 L 703.0 464.0 Q 703.0 472.0 711.0 472.0 L 735.0 472.0 L 874.0 472.0 L 1029.0 472.0 L 1169.5 472.0 L 1274.0 472.0 Q 1282.0 472.0 1282.0 480.0 L 1282.0 683.0 Q 1282.0 691.0 1274.0 691.0 L 1250.0 691.0" fill="none" stroke="#475569" stroke-width="1.25" stroke-linecap="round" stroke-linejoin="round" marker-end="url(#marker-end-battlenet-oauth-serves-api)"/><text x="346.0" y="434.0" text-anchor="middle" fill="none" font-size="15.4" font-weight="600" stroke="#ffffff" stroke-width="2">OAuth</text><text x="346.0" y="434.0" text-anchor="middle" fill="#374151" font-size="15.4" font-weight="600">OAuth</text></g><g data-dediren-edge-id="profile-api-serves-api"><marker id="marker-end-profile-api-serves-api" data-dediren-edge-marker-end="open_arrow" markerWidth="10" markerHeight="10" refX="5" refY="5" orient="auto"><path d="M 1 1 L 9 5 L 1 9" fill="none" stroke="#475569" stroke-width="1.5"/></marker><path d="M 362.0 220.0 L 298.0 220.0 Q 290.0 220.0 290.0 228.0 L 290.0 464.0 Q 290.0 472.0 298.0 472.0 L 442.5 472.0 L 567.0 472.0 L 735.0 472.0 L 874.0 472.0 L 1029.0 472.0 L 1169.5 472.0 L 1274.0 472.0 Q 1282.0 472.0 1282.0 480.0 L 1282.0 683.0 Q 1282.0 691.0 1274.0 691.0 L 1250.0 691.0" fill="none" stroke="#475569" stroke-width="1.25" stroke-linecap="round" stroke-linejoin="round" marker-end="url(#marker-end-profile-api-serves-api)"/><text x="326.0" y="294.0" text-anchor="middle" fill="none" font-size="15.4" font-weight="600" stroke="#ffffff" stroke-width="2">profile data</text><text x="326.0" y="294.0" text-anchor="middle" fill="#374151" font-size="15.4" font-weight="600">profile data</text></g><g data-dediren-edge-id="game-data-api-serves-api"><marker id="marker-end-game-data-api-serves-api" data-dediren-edge-marker-end="open_arrow" markerWidth="10" markerHeight="10" refX="5" refY="5" orient="auto"><path d="M 1 1 L 9 5 L 1 9" fill="none" stroke="#475569" stroke-width="1.5"/></marker><path d="M 362.0 76.0 L 338.0 76.0 Q 330.0 76.0 330.0 84.0 L 330.0 140.0 Q 330.0 148.0 338.0 148.0 L 442.5 148.0 L 567.0 148.0 L 695.0 148.0 Q 703.0 148.0 703.0 156.0 L 703.0 464.0 Q 703.0 472.0 711.0 472.0 L 735.0 472.0 L 874.0 472.0 L 1029.0 472.0 L 1169.5 472.0 L 1274.0 472.0 Q 1282.0 472.0 1282.0 480.0 L 1282.0 683.0 Q 1282.0 691.0 1274.0 691.0 L 1250.0 691.0" fill="none" stroke="#475569" stroke-width="1.25" stroke-linecap="round" stroke-linejoin="round" marker-end="url(#marker-end-game-data-api-serves-api)"/><text x="346.0" y="150.0" text-anchor="middle" fill="none" font-size="15.4" font-weight="600" stroke="#ffffff" stroke-width="2">game data</text><text x="346.0" y="150.0" text-anchor="middle" fill="#374151" font-size="15.4" font-weight="600">game data</text></g><g data-dediren-edge-id="swa-hosts-app"><marker id="marker-end-swa-hosts-app" data-dediren-edge-marker-end="open_arrow" markerWidth="10" markerHeight="10" refX="5" refY="5" orient="auto"><path d="M 1 1 L 9 5 L 1 9" fill="none" stroke="#475569" stroke-width="1.5"/></marker><path d="M 362.0 684.0 L 306.0 684.0 Q 298.0 684.0 298.0 676.0 L 298.0 620.0 Q 298.0 612.0 306.0 612.0 L 426.5 612.0 L 567.0 612.0 L 655.0 612.0 Q 663.0 612.0 663.0 620.0 L 663.0 1087.0 Q 663.0 1095.0 671.0 1095.0 L 735.0 1095.0 L 874.0 1095.0 L 1029.0 1095.0 L 1169.5 1095.0 L 1314.0 1095.0 L 1459.0 1095.0 L 1604.0 1095.0 L 1744.5 1095.0 L 1849.0 1095.0 Q 1857.0 1095.0 1857.0 1087.0 L 1857.0 1031.0 Q 1857.0 1023.0 1849.0 1023.0 L 1825.0 1023.0" fill="none" stroke="#475569" stroke-width="1.25" stroke-linecap="round" stroke-linejoin="round" marker-end="url(#marker-end-swa-hosts-app)"/><text x="330.0" y="674.0" text-anchor="middle" fill="none" font-size="15.4" font-weight="600" stroke="#ffffff" stroke-width="2">hosts</text><text x="330.0" y="674.0" text-anchor="middle" fill="#374151" font-size="15.4" font-weight="600">hosts</text></g><g data-dediren-edge-id="function-app-hosts-api"><marker id="marker-end-function-app-hosts-api" data-dediren-edge-marker-end="open_arrow" markerWidth="10" markerHeight="10" refX="5" refY="5" orient="auto"><path d="M 1 1 L 9 5 L 1 9" fill="none" stroke="#475569" stroke-width="1.5"/></marker><g data-dediren-line-jump-masks="function-app-hosts-api"><path d="M 703.0 1089.0 Q 709.0 1095.0 703.0 1101.0" fill="none" stroke="#ffffff" stroke-width="6"/></g><path d="M 330.0 1264.0 L 306.0 1264.0 Q 298.0 1264.0 298.0 1272.0 L 298.0 1328.0 Q 298.0 1336.0 306.0 1336.0 L 426.5 1336.0 L 567.0 1336.0 L 695.0 1336.0 Q 703.0 1336.0 703.0 1328.0 L 703.0 1101.0 Q 709.0 1095.0 703.0 1089.0 L 703.0 480.0 Q 703.0 472.0 711.0 472.0 L 735.0 472.0 L 874.0 472.0 L 1029.0 472.0 L 1169.5 472.0 L 1274.0 472.0 Q 1282.0 472.0 1282.0 480.0 L 1282.0 683.0 Q 1282.0 691.0 1274.0 691.0 L 1250.0 691.0" fill="none" stroke="#475569" stroke-width="1.25" stroke-linecap="round" stroke-linejoin="round" marker-end="url(#marker-end-function-app-hosts-api)"/><text x="314.0" y="1338.0" text-anchor="middle" fill="none" font-size="15.4" font-weight="600" stroke="#ffffff" stroke-width="2">hosts</text><text x="314.0" y="1338.0" text-anchor="middle" fill="#374151" font-size="15.4" font-weight="600">hosts</text></g><g data-dediren-edge-id="cosmos-serves-function-app"><marker id="marker-end-cosmos-serves-function-app" data-dediren-edge-marker-end="open_arrow" markerWidth="10" markerHeight="10" refX="5" refY="5" orient="auto"><path d="M 1 1 L 9 5 L 1 9" fill="none" stroke="#475569" stroke-width="1.5"/></marker><path d="M 121.0 724.0 L 121.0 748.0 Q 121.0 756.0 129.0 756.0 L 370.7 756.0 Q 378.7 756.0 378.7 764.0 L 378.7 1223.0" fill="none" stroke="#475569" stroke-width="1.25" stroke-linecap="round" stroke-linejoin="round" marker-end="url(#marker-end-cosmos-serves-function-app)"/><text x="249.9" y="774.0" text-anchor="middle" fill="none" font-size="15.4" font-weight="600" stroke="#ffffff" stroke-width="2">data plane</text><text x="249.9" y="774.0" text-anchor="middle" fill="#374151" font-size="15.4" font-weight="600">data plane</text></g><g data-dediren-edge-id="storage-serves-function-app"><marker id="marker-end-storage-serves-function-app" data-dediren-edge-marker-end="open_arrow" markerWidth="10" markerHeight="10" refX="5" refY="5" orient="auto"><path d="M 1 1 L 9 5 L 1 9" fill="none" stroke="#475569" stroke-width="1.5"/></marker><g data-dediren-line-jump-masks="storage-serves-function-app"><path d="M 372.7 1191.0 Q 378.7 1185.0 384.7 1191.0" fill="none" stroke="#f8fafc" stroke-width="6"/></g><path d="M 121.0 1159.0 L 121.0 1183.0 Q 121.0 1191.0 129.0 1191.0 L 372.7 1191.0 Q 378.7 1185.0 384.7 1191.0 L 402.9 1191.0 Q 410.9 1191.0 410.9 1199.0 L 410.9 1223.0" fill="none" stroke="#475569" stroke-width="1.25" stroke-linecap="round" stroke-linejoin="round" marker-end="url(#marker-end-storage-serves-function-app)"/><text x="266.0" y="1209.0" text-anchor="middle" fill="none" font-size="15.4" font-weight="600" stroke="#ffffff" stroke-width="2">blob data</text><text x="266.0" y="1209.0" text-anchor="middle" fill="#374151" font-size="15.4" font-weight="600">blob data</text></g><g data-dediren-edge-id="key-vault-serves-function-app"><marker id="marker-end-key-vault-serves-function-app" data-dediren-edge-marker-end="open_arrow" markerWidth="10" markerHeight="10" refX="5" refY="5" orient="auto"><path d="M 1 1 L 9 5 L 1 9" fill="none" stroke="#475569" stroke-width="1.5"/></marker><g data-dediren-line-jump-masks="key-vault-serves-function-app"><path d="M 372.7 901.0 Q 378.7 895.0 384.7 901.0" fill="none" stroke="#f8fafc" stroke-width="6"/></g><path d="M 121.0 869.0 L 121.0 893.0 Q 121.0 901.0 129.0 901.0 L 372.7 901.0 Q 378.7 895.0 384.7 901.0 L 435.1 901.0 Q 443.1 901.0 443.1 909.0 L 443.1 1223.0" fill="none" stroke="#475569" stroke-width="1.25" stroke-linecap="round" stroke-linejoin="round" marker-end="url(#marker-end-key-vault-serves-function-app)"/><text x="282.1" y="919.0" text-anchor="middle" fill="none" font-size="15.4" font-weight="600" stroke="#ffffff" stroke-width="2">secrets</text><text x="282.1" y="919.0" text-anchor="middle" fill="#374151" font-size="15.4" font-weight="600">secrets</text></g><g data-dediren-edge-id="app-insights-serves-function-app"><marker id="marker-end-app-insights-serves-function-app" data-dediren-edge-marker-end="open_arrow" markerWidth="10" markerHeight="10" refX="5" refY="5" orient="auto"><path d="M 1 1 L 9 5 L 1 9" fill="none" stroke="#475569" stroke-width="1.5"/></marker><g data-dediren-line-jump-masks="app-insights-serves-function-app"><path d="M 372.7 1046.0 Q 378.7 1040.0 384.7 1046.0" fill="none" stroke="#f8fafc" stroke-width="6"/><path d="M 437.1 1046.0 Q 443.1 1040.0 449.1 1046.0" fill="none" stroke="#f8fafc" stroke-width="6"/></g><path d="M 121.0 1014.0 L 121.0 1038.0 Q 121.0 1046.0 129.0 1046.0 L 372.7 1046.0 Q 378.7 1040.0 384.7 1046.0 L 437.1 1046.0 Q 443.1 1040.0 449.1 1046.0 L 467.3 1046.0 Q 475.3 1046.0 475.3 1054.0 L 475.3 1223.0" fill="none" stroke="#475569" stroke-width="1.25" stroke-linecap="round" stroke-linejoin="round" marker-end="url(#marker-end-app-insights-serves-function-app)"/><text x="298.2" y="1064.0" text-anchor="middle" fill="none" font-size="15.4" font-weight="600" stroke="#ffffff" stroke-width="2">telemetry</text><text x="298.2" y="1064.0" text-anchor="middle" fill="#374151" font-size="15.4" font-weight="600">telemetry</text></g><g data-dediren-node-id="lfm-app"><rect data-dediren-node-shape="archimate_rectangle" x="1664.0" y="983.0" width="160.0" height="80.0" rx="0" fill="#e0f2fe" stroke="#0369a1" stroke-width="1.25"/><g data-dediren-node-decorator="archimate_application_component" data-dediren-icon-kind="component" data-dediren-icon-size="22"><rect x="1800.0" y="992.0" width="18.0" height="15.8" rx="1.5" fill="#e0f2fe" stroke="#0369a1" stroke-width="1.25"/><rect x="1796.0" y="994.6" width="7.9" height="5.7" rx="1.2" fill="#e0f2fe" stroke="#0369a1" stroke-width="1.25"/><rect x="1796.0" y="1001.7" width="7.9" height="5.7" rx="1.2" fill="#e0f2fe" stroke="#0369a1" stroke-width="1.25"/></g><text x="1744.0" y="1038.5" text-anchor="middle" dominant-baseline="middle" fill="#0c4a6e" font-size="14.0" textLength="52.1" lengthAdjust="spacing">Lfm.App</text></g><g data-dediren-node-id="lfm-api"><rect data-dediren-node-shape="archimate_rectangle" x="1089.0" y="651.0" width="160.0" height="80.0" rx="0" fill="#e0f2fe" stroke="#0369a1" stroke-width="1.25"/><g data-dediren-node-decorator="archimate_application_component" data-dediren-icon-kind="component" data-dediren-icon-size="22"><rect x="1225.0" y="660.0" width="18.0" height="15.8" rx="1.5" fill="#e0f2fe" stroke="#0369a1" stroke-width="1.25"/><rect x="1221.0" y="662.6" width="7.9" height="5.7" rx="1.2" fill="#e0f2fe" stroke="#0369a1" stroke-width="1.25"/><rect x="1221.0" y="669.7" width="7.9" height="5.7" rx="1.2" fill="#e0f2fe" stroke="#0369a1" stroke-width="1.25"/></g><text x="1169.0" y="706.5" text-anchor="middle" dominant-baseline="middle" fill="#0c4a6e" font-size="14.0" textLength="47.4" lengthAdjust="spacing">Lfm.Api</text></g><g data-dediren-node-id="lfm-contracts"><rect data-dediren-node-shape="archimate_rectangle" x="779.0" y="505.0" width="190.0" height="80.0" rx="0" fill="#e0f2fe" stroke="#0369a1" stroke-width="1.25"/><g data-dediren-node-decorator="archimate_application_component" data-dediren-icon-kind="component" data-dediren-icon-size="22"><rect x="945.0" y="514.0" width="18.0" height="15.8" rx="1.5" fill="#e0f2fe" stroke="#0369a1" stroke-width="1.25"/><rect x="941.0" y="516.6" width="7.9" height="5.7" rx="1.2" fill="#e0f2fe" stroke="#0369a1" stroke-width="1.25"/><rect x="941.0" y="523.7" width="7.9" height="5.7" rx="1.2" fill="#e0f2fe" stroke="#0369a1" stroke-width="1.25"/></g><text x="874.0" y="560.5" text-anchor="middle" dominant-baseline="middle" fill="#0c4a6e" font-size="14.0" textLength="87.1" lengthAdjust="spacing">Lfm.Contracts</text></g><g data-dediren-node-id="rest-api"><rect data-dediren-node-shape="archimate_rectangle" x="1374.0" y="797.0" width="170.0" height="80.0" rx="0" fill="#e0f2fe" stroke="#0369a1" stroke-width="1.25"/><g data-dediren-node-decorator="archimate_application_interface" data-dediren-icon-kind="interface" data-dediren-icon-size="22"><ellipse cx="1531.8" cy="812.2" rx="4.0" ry="4.0" fill="#e0f2fe" stroke="#0369a1" stroke-width="1.25"/><path d="M 1518.2 812.2 L 1527.9 812.2" fill="none" stroke="#0369a1" stroke-width="1.25"/></g><text x="1459.0" y="844.5" text-anchor="middle" dominant-baseline="middle" fill="#0c4a6e" font-size="14.0"><tspan x="1459.0" dy="0" textLength="63.7" lengthAdjust="spacing">REST API</tspan><tspan x="1459.0" dy="16.0" textLength="59.9" lengthAdjust="spacing">(/api/v1/*)</tspan></text></g><g data-dediren-node-id="battlenet-oauth"><rect data-dediren-node-shape="archimate_rounded_rectangle" x="363.0" y="320.0" width="160.0" height="80.0" rx="6" fill="#e0f2fe" stroke="#0369a1" stroke-width="1.25"/><g data-dediren-node-decorator="archimate_application_service" data-dediren-icon-kind="service" data-dediren-icon-size="22"><rect x="495.0" y="329.0" width="22.0" height="13.6" rx="4.0" fill="#e0f2fe" stroke="#0369a1" stroke-width="1.25"/></g><text x="443.0" y="367.5" text-anchor="middle" dominant-baseline="middle" fill="#0c4a6e" font-size="14.0"><tspan x="443.0" dy="0" textLength="59.1" lengthAdjust="spacing">Battle.net</tspan><tspan x="443.0" dy="16.0" textLength="63.0" lengthAdjust="spacing">OAuth 2.0</tspan></text></g><g data-dediren-node-id="blizzard-profile-api"><rect data-dediren-node-shape="archimate_rounded_rectangle" x="363.0" y="180.0" width="160.0" height="80.0" rx="6" fill="#e0f2fe" stroke="#0369a1" stroke-width="1.25"/><g data-dediren-node-decorator="archimate_application_service" data-dediren-icon-kind="service" data-dediren-icon-size="22"><rect x="495.0" y="189.0" width="22.0" height="13.6" rx="4.0" fill="#e0f2fe" stroke="#0369a1" stroke-width="1.25"/></g><text x="443.0" y="227.5" text-anchor="middle" dominant-baseline="middle" fill="#0c4a6e" font-size="14.0"><tspan x="443.0" dy="0" textLength="77.7" lengthAdjust="spacing">WoW Profile</tspan><tspan x="443.0" dy="16.0" textLength="22.5" lengthAdjust="spacing">API</tspan></text></g><g data-dediren-node-id="blizzard-game-data-api"><rect data-dediren-node-shape="archimate_rounded_rectangle" x="363.0" y="36.0" width="160.0" height="80.0" rx="6" fill="#e0f2fe" stroke="#0369a1" stroke-width="1.25"/><g data-dediren-node-decorator="archimate_application_service" data-dediren-icon-kind="service" data-dediren-icon-size="22"><rect x="495.0" y="45.0" width="22.0" height="13.6" rx="4.0" fill="#e0f2fe" stroke="#0369a1" stroke-width="1.25"/></g><text x="443.0" y="83.5" text-anchor="middle" dominant-baseline="middle" fill="#0c4a6e" font-size="14.0"><tspan x="443.0" dy="0" textLength="76.2" lengthAdjust="spacing">WoW Game</tspan><tspan x="443.0" dy="16.0" textLength="56.0" lengthAdjust="spacing">Data API</tspan></text></g><g data-dediren-node-id="static-web-apps"><rect data-dediren-node-shape="archimate_rectangle" x="363.0" y="644.0" width="160.0" height="80.0" rx="0" fill="#d5e8d4" stroke="#4d7c0f" stroke-width="1.25"/><g data-dediren-node-decorator="archimate_technology_node" data-dediren-icon-kind="node" data-dediren-icon-size="22"><rect x="495.0" y="657.0" width="18.0" height="12.8" rx="1.5" fill="#d5e8d4" stroke="#4d7c0f" stroke-width="1.25"/><path data-dediren-icon-part="node-3d-edges" d="M 495.0 657.0 L 499.0 653.0 L 517.0 653.0 L 513.0 657.0 M 513.0 657.0 L 517.0 653.0 M 513.0 669.7 L 517.0 665.8 M 517.0 653.0 L 517.0 665.8" fill="none" stroke="#4d7c0f" stroke-width="1.25" stroke-linejoin="round"/></g><text x="443.0" y="691.5" text-anchor="middle" dominant-baseline="middle" fill="#365314" font-size="14.0"><tspan x="443.0" dy="0" textLength="75.4" lengthAdjust="spacing">Azure Static</tspan><tspan x="443.0" dy="16.0" textLength="64.5" lengthAdjust="spacing">Web Apps</tspan></text></g><g data-dediren-node-id="function-app"><rect data-dediren-node-shape="archimate_rectangle" x="331.0" y="1224.0" width="192.0" height="80.0" rx="0" fill="#d5e8d4" stroke="#4d7c0f" stroke-width="1.25"/><g data-dediren-node-decorator="archimate_technology_node" data-dediren-icon-kind="node" data-dediren-icon-size="22"><rect x="495.0" y="1237.0" width="18.0" height="12.8" rx="1.5" fill="#d5e8d4" stroke="#4d7c0f" stroke-width="1.25"/><path data-dediren-icon-part="node-3d-edges" d="M 495.0 1237.0 L 499.0 1233.0 L 517.0 1233.0 L 513.0 1237.0 M 513.0 1237.0 L 517.0 1233.0 M 513.0 1249.7 L 517.0 1245.8 M 517.0 1233.0 L 517.0 1245.8" fill="none" stroke="#4d7c0f" stroke-width="1.25" stroke-linejoin="round"/></g><text x="427.0" y="1279.5" text-anchor="middle" dominant-baseline="middle" fill="#365314" font-size="14.0" textLength="122.9" lengthAdjust="spacing">Azure Function App</text></g><g data-dediren-node-id="cosmos-account"><rect data-dediren-node-shape="archimate_rectangle" x="41.0" y="643.0" width="160.0" height="80.0" rx="0" fill="#d5e8d4" stroke="#4d7c0f" stroke-width="1.25"/><g data-dediren-node-decorator="archimate_technology_node" data-dediren-icon-kind="node" data-dediren-icon-size="22"><rect x="173.0" y="656.0" width="18.0" height="12.8" rx="1.5" fill="#d5e8d4" stroke="#4d7c0f" stroke-width="1.25"/><path data-dediren-icon-part="node-3d-edges" d="M 173.0 656.0 L 177.0 652.0 L 195.0 652.0 L 191.0 656.0 M 191.0 656.0 L 195.0 652.0 M 191.0 668.7 L 195.0 664.8 M 195.0 652.0 L 195.0 664.8" fill="none" stroke="#4d7c0f" stroke-width="1.25" stroke-linejoin="round"/></g><text x="121.0" y="690.5" text-anchor="middle" dominant-baseline="middle" fill="#365314" font-size="14.0"><tspan x="121.0" dy="0" textLength="74.6" lengthAdjust="spacing">Cosmos DB</tspan><tspan x="121.0" dy="16.0" textLength="49.0" lengthAdjust="spacing">account</tspan></text></g><g data-dediren-node-id="storage-account"><rect data-dediren-node-shape="archimate_rectangle" x="41.0" y="1078.0" width="160.0" height="80.0" rx="0" fill="#d5e8d4" stroke="#4d7c0f" stroke-width="1.25"/><g data-dediren-node-decorator="archimate_technology_node" data-dediren-icon-kind="node" data-dediren-icon-size="22"><rect x="173.0" y="1091.0" width="18.0" height="12.8" rx="1.5" fill="#d5e8d4" stroke="#4d7c0f" stroke-width="1.25"/><path data-dediren-icon-part="node-3d-edges" d="M 173.0 1091.0 L 177.0 1087.0 L 195.0 1087.0 L 191.0 1091.0 M 191.0 1091.0 L 195.0 1087.0 M 191.0 1103.7 L 195.0 1099.8 M 195.0 1087.0 L 195.0 1099.8" fill="none" stroke="#4d7c0f" stroke-width="1.25" stroke-linejoin="round"/></g><text x="121.0" y="1125.5" text-anchor="middle" dominant-baseline="middle" fill="#365314" font-size="14.0"><tspan x="121.0" dy="0" textLength="49.0" lengthAdjust="spacing">Storage</tspan><tspan x="121.0" dy="16.0" textLength="49.0" lengthAdjust="spacing">account</tspan></text></g><g data-dediren-node-id="key-vault"><rect data-dediren-node-shape="archimate_rectangle" x="41.0" y="788.0" width="160.0" height="80.0" rx="0" fill="#d5e8d4" stroke="#4d7c0f" stroke-width="1.25"/><g data-dediren-node-decorator="archimate_technology_node" data-dediren-icon-kind="node" data-dediren-icon-size="22"><rect x="173.0" y="801.0" width="18.0" height="12.8" rx="1.5" fill="#d5e8d4" stroke="#4d7c0f" stroke-width="1.25"/><path data-dediren-icon-part="node-3d-edges" d="M 173.0 801.0 L 177.0 797.0 L 195.0 797.0 L 191.0 801.0 M 191.0 801.0 L 195.0 797.0 M 191.0 813.7 L 195.0 809.8 M 195.0 797.0 L 195.0 809.8" fill="none" stroke="#4d7c0f" stroke-width="1.25" stroke-linejoin="round"/></g><text x="121.0" y="843.5" text-anchor="middle" dominant-baseline="middle" fill="#365314" font-size="14.0" textLength="59.9" lengthAdjust="spacing">Key Vault</text></g><g data-dediren-node-id="application-insights"><rect data-dediren-node-shape="archimate_rectangle" x="36.0" y="933.0" width="170.0" height="80.0" rx="0" fill="#d5e8d4" stroke="#4d7c0f" stroke-width="1.25"/><g data-dediren-node-decorator="archimate_technology_node" data-dediren-icon-kind="node" data-dediren-icon-size="22"><rect x="178.0" y="946.0" width="18.0" height="12.8" rx="1.5" fill="#d5e8d4" stroke="#4d7c0f" stroke-width="1.25"/><path data-dediren-icon-part="node-3d-edges" d="M 178.0 946.0 L 182.0 942.0 L 200.0 942.0 L 196.0 946.0 M 196.0 946.0 L 200.0 942.0 M 196.0 958.7 L 200.0 954.8 M 200.0 942.0 L 200.0 954.8" fill="none" stroke="#4d7c0f" stroke-width="1.25" stroke-linejoin="round"/></g><text x="121.0" y="980.5" text-anchor="middle" dominant-baseline="middle" fill="#365314" font-size="14.0"><tspan x="121.0" dy="0" textLength="68.4" lengthAdjust="spacing">Application</tspan><tspan x="121.0" dy="16.0" textLength="48.2" lengthAdjust="spacing">Insights</tspan></text></g></g></svg>

