<svg xmlns="http://www.w3.org/2000/svg" width="1872" height="936" viewBox="-12.0 -12.0 1872.0 936.0"><rect x="-12.0" y="-12.0" width="1872.0" height="936.0" fill="#ffffff"/><g font-family="Inter, Arial, sans-serif" font-size="14.0"><g data-dediren-group-id="technology-observability-telemetry"><rect x="12.0" y="116.0" width="944.0" height="784.0" rx="4.0" fill="#f8fafc" stroke="#94a3b8" stroke-width="1.0"/><text x="20.0" y="132.0" fill="#374151" font-size="12.0">Telemetry pipeline</text></g><g data-dediren-group-id="technology-observability-cosmos-alerting"><rect x="1212.0" y="12.0" width="624.0" height="240.0" rx="4.0" fill="#f8fafc" stroke="#94a3b8" stroke-width="1.0"/><text x="1220.0" y="28.0" fill="#374151" font-size="12.0">Cosmos alerting</text></g><g data-dediren-edge-id="app-insights-serves-function-app"><defs><marker id="marker-end-app-insights-serves-function-app" data-dediren-edge-marker-end="open_arrow" markerWidth="9" markerHeight="9" refX="8" refY="4.5" orient="auto" markerUnits="strokeWidth"><path d="M 1 1 L 8 4.5 L 1 8" fill="none" stroke="#2563eb" stroke-width="1.3" stroke-linecap="round" stroke-linejoin="round"/></marker></defs><path d="M 484.0 652.0 L 484.0 716.0 L 836.0 716.0 L 836.0 780.0" fill="none" stroke="#2563eb" stroke-width="1.5" marker-end="url(#marker-end-app-insights-serves-function-app)"/><text x="660.0" y="732.8" text-anchor="middle" fill="#1e3a8a" stroke="#ffffff" stroke-width="4" stroke-linejoin="round" paint-order="stroke">telemetry</text></g><g data-dediren-edge-id="log-analytics-aggregates-app-insights"><defs><marker id="marker-start-log-analytics-aggregates-app-insights" data-dediren-edge-marker-start="hollow_diamond" markerWidth="10" markerHeight="10" refX="1" refY="5" orient="auto" markerUnits="strokeWidth"><path d="M 1 5 L 5 1 L 9 5 L 5 9 z" fill="#ffffff" stroke="#475569" stroke-width="1.1"/></marker></defs><path d="M 132.0 236.0 L 132.0 300.0 L 510.7 300.0 L 510.7 572.0" fill="none" stroke="#475569" stroke-width="1.5" marker-start="url(#marker-start-log-analytics-aggregates-app-insights)"/><text x="321.3" y="316.8" text-anchor="middle" fill="#334155" stroke="#ffffff" stroke-width="4" stroke-linejoin="round" paint-order="stroke">workspace</text></g><g data-dediren-edge-id="log-analytics-aggregates-diagnostics"><defs><marker id="marker-start-log-analytics-aggregates-diagnostics" data-dediren-edge-marker-start="hollow_diamond" markerWidth="10" markerHeight="10" refX="1" refY="5" orient="auto" markerUnits="strokeWidth"><path d="M 1 5 L 5 1 L 9 5 L 5 9 z" fill="#ffffff" stroke="#475569" stroke-width="1.1"/></marker></defs><path d="M 212.0 196.0 L 1524.0 196.0 L 1524.0 113.7 L 1636.0 113.7" fill="none" stroke="#475569" stroke-width="1.5" marker-start="url(#marker-start-log-analytics-aggregates-diagnostics)"/><text x="868.0" y="187.6" text-anchor="middle" fill="#334155" stroke="#ffffff" stroke-width="4" stroke-linejoin="round" paint-order="stroke">diagnostics</text></g><g data-dediren-edge-id="managed-identity-accesses-app-insights"><path d="M 132.0 444.0 L 132.0 508.0 L 457.3 508.0 L 457.3 572.0" fill="none" stroke="#64748b" stroke-width="1.5"/><text x="294.7" y="524.8" text-anchor="middle" fill="#374151" stroke="#ffffff" stroke-width="4" stroke-linejoin="round" paint-order="stroke">Metrics Publisher</text></g><g data-dediren-edge-id="cosmos-throttle-alert-monitors-cosmos"><path d="M 1412.0 92.0 L 1524.0 92.0 L 1524.0 87.0 L 1636.0 87.0" fill="none" stroke="#64748b" stroke-width="1.5"/><text x="1468.0" y="83.6" text-anchor="middle" fill="#374151" stroke="#ffffff" stroke-width="4" stroke-linejoin="round" paint-order="stroke">monitors 429s</text></g><g data-dediren-node-id="function-app"><rect data-dediren-node-shape="archimate_rectangle" x="756.0" y="780.0" width="160.0" height="80.0" rx="0" fill="#ecfdf3" stroke="#16a34a" stroke-width="1.5"/><g data-dediren-node-decorator="archimate_technology_node" data-dediren-icon-kind="node" data-dediren-icon-size="22"><rect x="888.0" y="793.0" width="18.0" height="12.8" rx="1.5" fill="#ecfdf3" stroke="#16a34a" stroke-width="1.5"/><path data-dediren-icon-part="node-3d-edges" d="M 888.0 793.0 L 892.0 789.0 L 910.0 789.0 L 906.0 793.0 M 906.0 793.0 L 910.0 789.0 M 906.0 805.7 L 910.0 801.8 M 910.0 789.0 L 910.0 801.8" fill="none" stroke="#16a34a" stroke-width="1.5" stroke-linejoin="round"/></g><text x="836.0" y="812.0" text-anchor="middle" dominant-baseline="middle" fill="#14532d" font-size="14.0"><tspan x="836.0" dy="0">Azure Function</tspan><tspan x="836.0" dy="16.0">App</tspan></text></g><g data-dediren-node-id="managed-identity"><rect data-dediren-node-shape="archimate_rounded_rectangle" x="52.0" y="364.0" width="160.0" height="80.0" rx="4.0" fill="#ecfdf3" stroke="#16a34a" stroke-width="1.5"/><g data-dediren-node-decorator="archimate_technology_service" data-dediren-icon-kind="service" data-dediren-icon-size="22"><rect x="184.0" y="375.6" width="22.0" height="11.0" rx="4.0" fill="#ecfdf3" stroke="#16a34a" stroke-width="1.5"/></g><text x="132.0" y="395.9" text-anchor="middle" dominant-baseline="middle" fill="#14532d" font-size="14.0"><tspan x="132.0" dy="0">Function App</tspan><tspan x="132.0" dy="16.0">managed identity</tspan></text></g><g data-dediren-node-id="application-insights"><rect data-dediren-node-shape="archimate_rectangle" x="404.0" y="572.0" width="160.0" height="80.0" rx="0" fill="#ecfdf3" stroke="#16a34a" stroke-width="1.5"/><g data-dediren-node-decorator="archimate_technology_node" data-dediren-icon-kind="node" data-dediren-icon-size="22"><rect x="536.0" y="585.0" width="18.0" height="12.8" rx="1.5" fill="#ecfdf3" stroke="#16a34a" stroke-width="1.5"/><path data-dediren-icon-part="node-3d-edges" d="M 536.0 585.0 L 540.0 581.0 L 558.0 581.0 L 554.0 585.0 M 554.0 585.0 L 558.0 581.0 M 554.0 597.7 L 558.0 593.8 M 558.0 581.0 L 558.0 593.8" fill="none" stroke="#16a34a" stroke-width="1.5" stroke-linejoin="round"/></g><text x="484.0" y="604.0" text-anchor="middle" dominant-baseline="middle" fill="#14532d" font-size="14.0"><tspan x="484.0" dy="0">Application</tspan><tspan x="484.0" dy="16.0">Insights</tspan></text></g><g data-dediren-node-id="log-analytics"><rect data-dediren-node-shape="archimate_rectangle" x="52.0" y="156.0" width="160.0" height="80.0" rx="0" fill="#ecfdf3" stroke="#16a34a" stroke-width="1.5"/><g data-dediren-node-decorator="archimate_technology_node" data-dediren-icon-kind="node" data-dediren-icon-size="22"><rect x="184.0" y="169.0" width="18.0" height="12.8" rx="1.5" fill="#ecfdf3" stroke="#16a34a" stroke-width="1.5"/><path data-dediren-icon-part="node-3d-edges" d="M 184.0 169.0 L 188.0 165.0 L 206.0 165.0 L 202.0 169.0 M 202.0 169.0 L 206.0 165.0 M 202.0 181.7 L 206.0 177.8 M 206.0 165.0 L 206.0 177.8" fill="none" stroke="#16a34a" stroke-width="1.5" stroke-linejoin="round"/></g><text x="132.0" y="187.9" text-anchor="middle" dominant-baseline="middle" fill="#14532d" font-size="14.0"><tspan x="132.0" dy="0">Log Analytics</tspan><tspan x="132.0" dy="16.0">workspace</tspan></text></g><g data-dediren-node-id="cosmos-account"><rect data-dediren-node-shape="archimate_rectangle" x="1636.0" y="60.3" width="160.0" height="80.0" rx="0" fill="#ecfdf3" stroke="#16a34a" stroke-width="1.5"/><g data-dediren-node-decorator="archimate_technology_node" data-dediren-icon-kind="node" data-dediren-icon-size="22"><rect x="1768.0" y="73.3" width="18.0" height="12.8" rx="1.5" fill="#ecfdf3" stroke="#16a34a" stroke-width="1.5"/><path data-dediren-icon-part="node-3d-edges" d="M 1768.0 73.3 L 1772.0 69.3 L 1790.0 69.3 L 1786.0 73.3 M 1786.0 73.3 L 1790.0 69.3 M 1786.0 86.1 L 1790.0 82.1 M 1790.0 69.3 L 1790.0 82.1" fill="none" stroke="#16a34a" stroke-width="1.5" stroke-linejoin="round"/></g><text x="1716.0" y="92.3" text-anchor="middle" dominant-baseline="middle" fill="#14532d" font-size="14.0"><tspan x="1716.0" dy="0">Cosmos DB</tspan><tspan x="1716.0" dy="16.0">account</tspan></text></g><g data-dediren-node-id="cosmos-throttle-alert"><rect data-dediren-node-shape="archimate_rounded_rectangle" x="1252.0" y="52.0" width="160.0" height="80.0" rx="4.0" fill="#ecfdf3" stroke="#16a34a" stroke-width="1.5"/><g data-dediren-node-decorator="archimate_technology_service" data-dediren-icon-kind="service" data-dediren-icon-size="22"><rect x="1384.0" y="63.6" width="22.0" height="11.0" rx="4.0" fill="#ecfdf3" stroke="#16a34a" stroke-width="1.5"/></g><text x="1332.0" y="84.0" text-anchor="middle" dominant-baseline="middle" fill="#14532d" font-size="14.0"><tspan x="1332.0" dy="0">Cosmos throttle</tspan><tspan x="1332.0" dy="16.0">alert</tspan></text></g></g></svg>

