<svg xmlns="http://www.w3.org/2000/svg" role="img" width="3235" height="1238" viewBox="-20 -52 3235 1270" data-arch-a11y="root" data-arch-a11y-viewbox="-20.0 -20.0 3235.0 1238.0"><title>LFM - Technology Usage Overview</title>
<desc>Which technology nodes and system software host the LFM applications?</desc>
<text data-arch-a11y="visible-title" x="-12" y="-32" font-family="sans-serif" font-size="16" font-weight="bold">LFM - Technology Usage Overview</text><rect x="-20.0" y="-20.0" width="3235.0" height="1238.0" fill="#ffffff"/><g font-family="Inter, &quot;Liberation Sans&quot;, &quot;Noto Sans&quot;, Arial, &quot;Helvetica Neue&quot;, &quot;Segoe UI&quot;, sans-serif" font-size="14"><g data-dediren-group-id="technology-usage-frontend-hosting"><rect x="381.5" y="12.0" width="594.0" height="160.0" rx="8" fill="#f8fafc" stroke="#94a3b8" stroke-width="1"/><text x="389.5" y="28.0" fill="#334155" font-size="12">Frontend hosting</text></g><g data-dediren-group-id="technology-usage-functions-hosting"><rect x="12.0" y="268.0" width="1301.0" height="918.0" rx="8" fill="#f8fafc" stroke="#94a3b8" stroke-width="1"/><text x="20.0" y="284.0" fill="#334155" font-size="12">Functions hosting and identity</text></g><g data-dediren-group-id="technology-usage-platform-dependencies"><rect x="1729.0" y="454.0" width="498.0" height="512.0" rx="8" fill="#f8fafc" stroke="#94a3b8" stroke-width="1"/><text x="1737.0" y="470.0" fill="#334155" font-size="12">Platform dependencies</text></g><g data-dediren-group-id="technology-usage-observability"><rect x="2547.0" y="662.0" width="636.0" height="524.0" rx="8" fill="#f8fafc" stroke="#94a3b8" stroke-width="1"/><text x="2555.0" y="678.0" fill="#334155" font-size="12">Observability and alerting</text></g><g data-dediren-edge-id="swa-hosts-app"><marker id="marker-end-swa-hosts-app" data-dediren-edge-marker-end="open_arrow" markerWidth="10" markerHeight="10" refX="9" refY="5" orient="auto"><path d="M 1 1 L 9 5 L 1 9" fill="none" stroke="#475569" stroke-width="1.5"/></marker><path d="M 582.5 92.0 L 774.5 92.0" fill="none" stroke="#475569" stroke-width="1.25" stroke-linecap="round" stroke-linejoin="round" marker-end="url(#marker-end-swa-hosts-app)"/><text x="678.5" y="110.0" text-anchor="middle" fill="none" font-size="15.4" font-weight="600" stroke="#ffffff" stroke-width="2">hosts</text><text x="678.5" y="110.0" text-anchor="middle" fill="#374151" font-size="15.4" font-weight="600">hosts</text></g><g data-dediren-edge-id="function-app-hosts-api"><marker id="marker-end-function-app-hosts-api" data-dediren-edge-marker-end="open_arrow" markerWidth="10" markerHeight="10" refX="9" refY="5" orient="auto"><path d="M 1 1 L 9 5 L 1 9" fill="none" stroke="#475569" stroke-width="1.5"/></marker><path d="M 567.0 613.0 L 623.0 613.0 Q 631.0 613.0 631.0 605.0 L 631.0 437.0 Q 631.0 429.0 639.0 429.0 L 935.0 429.0" fill="none" stroke="#475569" stroke-width="1.25" stroke-linecap="round" stroke-linejoin="round" marker-end="url(#marker-end-function-app-hosts-api)"/><text x="599.0" y="603.0" text-anchor="middle" fill="none" font-size="15.4" font-weight="600" stroke="#ffffff" stroke-width="2">hosts</text><text x="599.0" y="603.0" text-anchor="middle" fill="#374151" font-size="15.4" font-weight="600">hosts</text></g><g data-dediren-edge-id="plan-serves-function-app"><marker id="marker-end-plan-serves-function-app" data-dediren-edge-marker-end="open_arrow" markerWidth="10" markerHeight="10" refX="9" refY="5" orient="auto"><path d="M 1 1 L 9 5 L 1 9" fill="none" stroke="#475569" stroke-width="1.5"/></marker><path d="M 213.0 704.0 L 405.0 704.0" fill="none" stroke="#475569" stroke-width="1.25" stroke-linecap="round" stroke-linejoin="round" marker-end="url(#marker-end-plan-serves-function-app)"/><text x="309.0" y="722.0" text-anchor="middle" fill="none" font-size="15.4" font-weight="600" stroke="#ffffff" stroke-width="2">hosts plan</text><text x="309.0" y="722.0" text-anchor="middle" fill="#374151" font-size="15.4" font-weight="600">hosts plan</text></g><g data-dediren-edge-id="function-app-composes-runtime"><marker id="marker-start-function-app-composes-runtime" data-dediren-edge-marker-start="filled_diamond" markerWidth="10" markerHeight="10" refX="1" refY="5" orient="auto"><path d="M 1 5 L 5 1 L 9 5 L 5 9 Z" fill="#475569" stroke="#475569" stroke-width="1"/></marker><path d="M 567.0 643.0 L 935.0 643.0" fill="none" stroke="#475569" stroke-width="1.25" stroke-linecap="round" stroke-linejoin="round" marker-start="url(#marker-start-function-app-composes-runtime)"/><text x="917.0" y="717.0" text-anchor="middle" fill="none" font-size="15.4" font-weight="600" stroke="#ffffff" stroke-width="2">runtime</text><text x="917.0" y="717.0" text-anchor="middle" fill="#374151" font-size="15.4" font-weight="600">runtime</text></g><g data-dediren-edge-id="function-app-has-managed-identity"><path d="M 567.0 674.0 L 767.0 674.0 Q 775.0 674.0 775.0 682.0 L 775.0 845.0 Q 775.0 853.0 783.0 853.0 L 935.0 853.0" fill="none" stroke="#475569" stroke-width="1.25" stroke-linecap="round" stroke-linejoin="round"/><text x="781.0" y="763.5" text-anchor="start" fill="none" font-size="15.4" font-weight="600" stroke="#ffffff" stroke-width="2">identity</text><text x="781.0" y="763.5" text-anchor="start" fill="#374151" font-size="15.4" font-weight="600">identity</text></g><g data-dediren-edge-id="cosmos-serves-function-app"><marker id="marker-end-cosmos-serves-function-app" data-dediren-edge-marker-end="open_arrow" markerWidth="10" markerHeight="10" refX="9" refY="5" orient="auto"><path d="M 1 1 L 9 5 L 1 9" fill="none" stroke="#475569" stroke-width="1.5"/></marker><g data-dediren-line-jump-masks="cosmos-serves-function-app"><path d="M 679.0 423.0 Q 685.0 429.0 679.0 435.0" fill="none" stroke="#f8fafc" stroke-width="6"/><path d="M 679.0 637.0 Q 685.0 643.0 679.0 649.0" fill="none" stroke="#f8fafc" stroke-width="6"/><path d="M 679.0 668.0 Q 685.0 674.0 679.0 680.0" fill="none" stroke="#f8fafc" stroke-width="6"/></g><path d="M 1897.0 526.0 L 1697.0 526.0 L 1641.0 526.0 Q 1633.0 526.0 1633.0 518.0 L 1633.0 332.0 Q 1633.0 324.0 1625.0 324.0 L 1345.0 324.0 L 1016.0 324.0 L 839.0 324.0 L 687.0 324.0 Q 679.0 324.0 679.0 332.0 L 679.0 423.0 Q 685.0 429.0 679.0 435.0 L 679.0 637.0 Q 685.0 643.0 679.0 649.0 L 679.0 668.0 Q 685.0 674.0 679.0 680.0 L 679.0 696.0 Q 679.0 704.0 671.0 704.0 L 567.0 704.0" fill="none" stroke="#475569" stroke-width="1.25" stroke-linecap="round" stroke-linejoin="round" marker-end="url(#marker-end-cosmos-serves-function-app)"/><text x="1797.0" y="516.0" text-anchor="middle" fill="none" font-size="15.4" font-weight="600" stroke="#ffffff" stroke-width="2">data plane</text><text x="1797.0" y="516.0" text-anchor="middle" fill="#374151" font-size="15.4" font-weight="600">data plane</text></g><g data-dediren-edge-id="storage-serves-function-app"><marker id="marker-end-storage-serves-function-app" data-dediren-edge-marker-end="open_arrow" markerWidth="10" markerHeight="10" refX="9" refY="5" orient="auto"><path d="M 1 1 L 9 5 L 1 9" fill="none" stroke="#475569" stroke-width="1.5"/></marker><path d="M 1897.0 878.0 L 1841.0 878.0 Q 1833.0 878.0 1833.0 870.0 L 1833.0 855.0 Q 1833.0 847.0 1825.0 847.0 L 1697.0 847.0 L 1593.0 847.0 Q 1585.0 847.0 1585.0 855.0 L 1585.0 880.0 Q 1585.0 888.0 1577.0 888.0 L 1417.0 888.0 Q 1409.0 888.0 1409.0 896.0 L 1409.0 978.0 Q 1409.0 986.0 1401.0 986.0 L 1345.0 986.0 L 1016.0 986.0 L 839.0 986.0 L 687.0 986.0 Q 679.0 986.0 679.0 978.0 L 679.0 742.0 Q 679.0 734.0 671.0 734.0 L 567.0 734.0" fill="none" stroke="#475569" stroke-width="1.25" stroke-linecap="round" stroke-linejoin="round" marker-end="url(#marker-end-storage-serves-function-app)"/><text x="1851.0" y="868.0" text-anchor="middle" fill="none" font-size="15.4" font-weight="600" stroke="#ffffff" stroke-width="2">blob data</text><text x="1851.0" y="868.0" text-anchor="middle" fill="#374151" font-size="15.4" font-weight="600">blob data</text></g><g data-dediren-edge-id="key-vault-serves-function-app"><marker id="marker-end-key-vault-serves-function-app" data-dediren-edge-marker-end="open_arrow" markerWidth="10" markerHeight="10" refX="9" refY="5" orient="auto"><path d="M 1 1 L 9 5 L 1 9" fill="none" stroke="#475569" stroke-width="1.5"/></marker><g data-dediren-line-jump-masks="key-vault-serves-function-app"><path d="M 727.0 637.0 Q 733.0 643.0 727.0 649.0" fill="none" stroke="#f8fafc" stroke-width="6"/><path d="M 727.0 668.0 Q 733.0 674.0 727.0 680.0" fill="none" stroke="#f8fafc" stroke-width="6"/><path d="M 673.0 765.0 Q 679.0 759.0 685.0 765.0" fill="none" stroke="#f8fafc" stroke-width="6"/></g><path d="M 1897.0 702.0 L 1841.0 702.0 Q 1833.0 702.0 1833.0 694.0 L 1833.0 679.0 Q 1833.0 671.0 1825.0 671.0 L 1697.0 671.0 L 1417.0 671.0 Q 1409.0 671.0 1409.0 663.0 L 1409.0 541.0 Q 1409.0 533.0 1401.0 533.0 L 1345.0 533.0 L 1016.0 533.0 L 839.0 533.0 L 735.0 533.0 Q 727.0 533.0 727.0 541.0 L 727.0 637.0 Q 733.0 643.0 727.0 649.0 L 727.0 668.0 Q 733.0 674.0 727.0 680.0 L 727.0 757.0 Q 727.0 765.0 719.0 765.0 L 685.0 765.0 Q 679.0 759.0 673.0 765.0 L 567.0 765.0" fill="none" stroke="#475569" stroke-width="1.25" stroke-linecap="round" stroke-linejoin="round" marker-end="url(#marker-end-key-vault-serves-function-app)"/><text x="1865.0" y="692.0" text-anchor="middle" fill="none" font-size="15.4" font-weight="600" stroke="#ffffff" stroke-width="2">secrets</text><text x="1865.0" y="692.0" text-anchor="middle" fill="#374151" font-size="15.4" font-weight="600">secrets</text></g><g data-dediren-edge-id="app-insights-serves-function-app"><marker id="marker-end-app-insights-serves-function-app" data-dediren-edge-marker-end="open_arrow" markerWidth="10" markerHeight="10" refX="9" refY="5" orient="auto"><path d="M 1 1 L 9 5 L 1 9" fill="none" stroke="#475569" stroke-width="1.5"/></marker><path d="M 2972.0 1065.0 L 2844.0 1065.0 L 2667.5 1065.0 L 2515.0 1065.0 L 2387.0 1065.0 L 1521.0 1065.0 L 1417.0 1065.0 Q 1409.0 1065.0 1409.0 1073.0 L 1409.0 1074.0 Q 1409.0 1082.0 1401.0 1082.0 L 1345.0 1082.0 L 1016.0 1082.0 L 839.0 1082.0 L 639.0 1082.0 Q 631.0 1082.0 631.0 1074.0 L 631.0 803.0 Q 631.0 795.0 623.0 795.0 L 567.0 795.0" fill="none" stroke="#475569" stroke-width="1.25" stroke-linecap="round" stroke-linejoin="round" marker-end="url(#marker-end-app-insights-serves-function-app)"/><text x="2908.0" y="1055.0" text-anchor="middle" fill="none" font-size="15.4" font-weight="600" stroke="#ffffff" stroke-width="2">telemetry</text><text x="2908.0" y="1055.0" text-anchor="middle" fill="#374151" font-size="15.4" font-weight="600">telemetry</text></g><g data-dediren-edge-id="log-analytics-aggregates-app-insights"><marker id="marker-start-log-analytics-aggregates-app-insights" data-dediren-edge-marker-start="hollow_diamond" markerWidth="10" markerHeight="10" refX="1" refY="5" orient="auto"><path d="M 1 5 L 5 1 L 9 5 L 5 9 Z" fill="#ffffff" stroke="#475569" stroke-width="1"/></marker><path d="M 2668.0 793.0 L 2668.0 849.0 Q 2668.0 857.0 2676.0 857.0 L 3050.0 857.0 Q 3058.0 857.0 3058.0 865.0 L 3058.0 1032.0" fill="none" stroke="#475569" stroke-width="1.25" stroke-linecap="round" stroke-linejoin="round" marker-start="url(#marker-start-log-analytics-aggregates-app-insights)"/><text x="2863.0" y="875.0" text-anchor="middle" fill="none" font-size="15.4" font-weight="600" stroke="#ffffff" stroke-width="2">workspace</text><text x="2863.0" y="875.0" text-anchor="middle" fill="#374151" font-size="15.4" font-weight="600">workspace</text></g><g data-dediren-edge-id="log-analytics-aggregates-diagnostics"><marker id="marker-start-log-analytics-aggregates-diagnostics" data-dediren-edge-marker-start="hollow_diamond" markerWidth="10" markerHeight="10" refX="1" refY="5" orient="auto"><path d="M 1 5 L 5 1 L 9 5 L 5 9 Z" fill="#ffffff" stroke="#475569" stroke-width="1"/></marker><path d="M 2587.0 747.0 L 2515.0 747.0 L 2459.0 747.0 Q 2451.0 747.0 2451.0 739.0 L 2451.0 534.0 Q 2451.0 526.0 2443.0 526.0 L 2259.0 526.0 L 2059.0 526.0" fill="none" stroke="#475569" stroke-width="1.25" stroke-linecap="round" stroke-linejoin="round" marker-start="url(#marker-start-log-analytics-aggregates-diagnostics)"/><text x="2445.0" y="636.5" text-anchor="end" fill="none" font-size="15.4" font-weight="600" stroke="#ffffff" stroke-width="2">diagnostics</text><text x="2445.0" y="636.5" text-anchor="end" fill="#374151" font-size="15.4" font-weight="600">diagnostics</text></g><g data-dediren-edge-id="managed-identity-accesses-key-vault"><path d="M 1097.0 820.0 L 1345.0 820.0 L 1577.0 820.0 Q 1585.0 820.0 1585.0 812.0 L 1585.0 727.0 Q 1585.0 719.0 1593.0 719.0 L 1697.0 719.0 L 1897.0 719.0" fill="none" stroke="#475569" stroke-width="1.25" stroke-linecap="round" stroke-linejoin="round"/><text x="1221.0" y="838.0" text-anchor="middle" fill="none" font-size="15.4" font-weight="600" stroke="#ffffff" stroke-width="2">Secrets User</text><text x="1221.0" y="838.0" text-anchor="middle" fill="#374151" font-size="15.4" font-weight="600">Secrets User</text></g><g data-dediren-edge-id="managed-identity-accesses-cosmos"><g data-dediren-line-jump-masks="managed-identity-accesses-cosmos"><path d="M 1161.0 527.0 Q 1167.0 533.0 1161.0 539.0" fill="none" stroke="#f8fafc" stroke-width="6"/><path d="M 1161.0 814.0 Q 1167.0 820.0 1161.0 826.0" fill="none" stroke="#f8fafc" stroke-width="6"/></g><path d="M 1097.0 842.0 L 1153.0 842.0 Q 1161.0 842.0 1161.0 834.0 L 1161.0 826.0 Q 1167.0 820.0 1161.0 814.0 L 1161.0 539.0 Q 1167.0 533.0 1161.0 527.0 L 1161.0 493.0 Q 1161.0 485.0 1169.0 485.0 L 1345.0 485.0 L 1577.0 485.0 Q 1585.0 485.0 1585.0 493.0 L 1585.0 566.0 Q 1585.0 574.0 1593.0 574.0 L 1697.0 574.0 L 1825.0 574.0 Q 1833.0 574.0 1833.0 566.0 L 1833.0 551.0 Q 1833.0 543.0 1841.0 543.0 L 1897.0 543.0" fill="none" stroke="#475569" stroke-width="1.25" stroke-linecap="round" stroke-linejoin="round"/><text x="1167.0" y="663.5" text-anchor="start" fill="none" font-size="15.4" font-weight="600" stroke="#ffffff" stroke-width="2">Data Contributor</text><text x="1167.0" y="663.5" text-anchor="start" fill="#374151" font-size="15.4" font-weight="600">Data Contributor</text></g><g data-dediren-edge-id="managed-identity-accesses-storage"><g data-dediren-line-jump-masks="managed-identity-accesses-storage"><path d="M 1209.0 980.0 Q 1215.0 986.0 1209.0 992.0" fill="none" stroke="#f8fafc" stroke-width="6"/></g><path d="M 1097.0 864.0 L 1201.0 864.0 Q 1209.0 864.0 1209.0 872.0 L 1209.0 980.0 Q 1215.0 986.0 1209.0 992.0 L 1209.0 1026.0 Q 1209.0 1034.0 1217.0 1034.0 L 1345.0 1034.0 L 1449.0 1034.0 Q 1457.0 1034.0 1457.0 1026.0 L 1457.0 1005.0 Q 1457.0 997.0 1465.0 997.0 L 1625.0 997.0 Q 1633.0 997.0 1633.0 989.0 L 1633.0 903.0 Q 1633.0 895.0 1641.0 895.0 L 1697.0 895.0 L 1897.0 895.0" fill="none" stroke="#475569" stroke-width="1.25" stroke-linecap="round" stroke-linejoin="round"/><text x="1147.0" y="949.0" text-anchor="end" fill="none" font-size="15.4" font-weight="600" stroke="#ffffff" stroke-width="2">Blob/Queue/Table roles</text><text x="1147.0" y="949.0" text-anchor="end" fill="#374151" font-size="15.4" font-weight="600">Blob/Queue/Table roles</text></g><g data-dediren-edge-id="managed-identity-accesses-app-insights"><g data-dediren-line-jump-masks="managed-identity-accesses-app-insights"><path d="M 1161.0 980.0 Q 1167.0 986.0 1161.0 992.0" fill="none" stroke="#f8fafc" stroke-width="6"/><path d="M 1161.0 1076.0 Q 1167.0 1082.0 1161.0 1088.0" fill="none" stroke="#f8fafc" stroke-width="6"/></g><path d="M 1097.0 886.0 L 1153.0 886.0 Q 1161.0 886.0 1161.0 894.0 L 1161.0 980.0 Q 1167.0 986.0 1161.0 992.0 L 1161.0 1076.0 Q 1167.0 1082.0 1161.0 1088.0 L 1161.0 1122.0 Q 1161.0 1130.0 1169.0 1130.0 L 1345.0 1130.0 L 1521.0 1130.0 L 2387.0 1130.0 L 2515.0 1130.0 L 2667.5 1130.0 L 2844.0 1130.0 L 2900.0 1130.0 Q 2908.0 1130.0 2908.0 1122.0 L 2908.0 1090.0 Q 2908.0 1082.0 2916.0 1082.0 L 2972.0 1082.0" fill="none" stroke="#475569" stroke-width="1.25" stroke-linecap="round" stroke-linejoin="round"/><text x="2902.0" y="1106.0" text-anchor="end" fill="none" font-size="15.4" font-weight="600" stroke="#ffffff" stroke-width="2">Metrics Publisher</text><text x="2902.0" y="1106.0" text-anchor="end" fill="#374151" font-size="15.4" font-weight="600">Metrics Publisher</text></g><g data-dediren-edge-id="cosmos-throttle-alert-monitors-cosmos"><path d="M 2587.0 961.0 L 2515.0 961.0 L 2331.0 961.0 Q 2323.0 961.0 2323.0 953.0 L 2323.0 582.0 Q 2323.0 574.0 2315.0 574.0 L 2259.0 574.0 L 2131.0 574.0 Q 2123.0 574.0 2123.0 566.0 L 2123.0 551.0 Q 2123.0 543.0 2115.0 543.0 L 2059.0 543.0" fill="none" stroke="#475569" stroke-width="1.25" stroke-linecap="round" stroke-linejoin="round"/><text x="2329.0" y="767.5" text-anchor="start" fill="none" font-size="15.4" font-weight="600" stroke="#ffffff" stroke-width="2">monitors 429s</text><text x="2329.0" y="767.5" text-anchor="start" fill="#374151" font-size="15.4" font-weight="600">monitors 429s</text></g><g data-dediren-node-id="static-web-apps"><rect data-dediren-node-shape="archimate_rectangle" x="421.5" y="52.0" width="160.0" height="80.0" rx="0" fill="#d5e8d4" stroke="#4d7c0f" stroke-width="1.25"/><g data-dediren-node-decorator="archimate_technology_node" data-dediren-icon-kind="node" data-dediren-icon-size="22"><rect x="553.5" y="65.0" width="18.0" height="12.8" rx="1.5" fill="#d5e8d4" stroke="#4d7c0f" stroke-width="1.25"/><path data-dediren-icon-part="node-3d-edges" d="M 553.5 65.0 L 557.5 61.0 L 575.5 61.0 L 571.5 65.0 M 571.5 65.0 L 575.5 61.0 M 571.5 77.7 L 575.5 73.8 M 575.5 61.0 L 575.5 73.8" fill="none" stroke="#4d7c0f" stroke-width="1.25" stroke-linejoin="round"/></g><text x="501.5" y="99.5" text-anchor="middle" dominant-baseline="middle" fill="#365314" font-size="14.0"><tspan x="501.5" dy="0" textLength="75.4" lengthAdjust="spacing">Azure Static</tspan><tspan x="501.5" dy="16.0" textLength="64.5" lengthAdjust="spacing">Web Apps</tspan></text></g><g data-dediren-node-id="function-app"><rect data-dediren-node-shape="archimate_rectangle" x="406.0" y="568.0" width="160.0" height="272.0" rx="0" fill="#d5e8d4" stroke="#4d7c0f" stroke-width="1.25"/><g data-dediren-node-decorator="archimate_technology_node" data-dediren-icon-kind="node" data-dediren-icon-size="22"><rect x="538.0" y="581.0" width="18.0" height="12.8" rx="1.5" fill="#d5e8d4" stroke="#4d7c0f" stroke-width="1.25"/><path data-dediren-icon-part="node-3d-edges" d="M 538.0 581.0 L 542.0 577.0 L 560.0 577.0 L 556.0 581.0 M 556.0 581.0 L 560.0 577.0 M 556.0 593.7 L 560.0 589.8 M 560.0 577.0 L 560.0 589.8" fill="none" stroke="#4d7c0f" stroke-width="1.25" stroke-linejoin="round"/></g><text x="486.0" y="711.5" text-anchor="middle" dominant-baseline="middle" fill="#365314" font-size="14.0"><tspan x="486.0" dy="0" textLength="36.5" lengthAdjust="spacing">Azure</tspan><tspan x="486.0" dy="16.0" textLength="82.4" lengthAdjust="spacing">Function App</tspan></text></g><g data-dediren-node-id="app-service-plan"><rect data-dediren-node-shape="archimate_rectangle" x="52.0" y="664.0" width="160.0" height="80.0" rx="0" fill="#d5e8d4" stroke="#4d7c0f" stroke-width="1.25"/><g data-dediren-node-decorator="archimate_technology_node" data-dediren-icon-kind="node" data-dediren-icon-size="22"><rect x="184.0" y="677.0" width="18.0" height="12.8" rx="1.5" fill="#d5e8d4" stroke="#4d7c0f" stroke-width="1.25"/><path data-dediren-icon-part="node-3d-edges" d="M 184.0 677.0 L 188.0 673.0 L 206.0 673.0 L 202.0 677.0 M 202.0 677.0 L 206.0 673.0 M 202.0 689.7 L 206.0 685.8 M 206.0 673.0 L 206.0 685.8" fill="none" stroke="#4d7c0f" stroke-width="1.25" stroke-linejoin="round"/></g><text x="132.0" y="711.5" text-anchor="middle" dominant-baseline="middle" fill="#365314" font-size="14.0"><tspan x="132.0" dy="0" textLength="75.4" lengthAdjust="spacing">App Service</tspan><tspan x="132.0" dy="16.0" textLength="58.3" lengthAdjust="spacing">Plan (Y1)</tspan></text></g><g data-dediren-node-id="functions-runtime"><rect data-dediren-node-shape="archimate_rectangle" x="936.0" y="598.0" width="160.0" height="90.0" rx="0" fill="#d5e8d4" stroke="#4d7c0f" stroke-width="1.25"/><g data-dediren-node-decorator="archimate_system_software" data-dediren-icon-kind="system_software" data-dediren-icon-size="22"><ellipse data-dediren-icon-part="system-software-disks" cx="1080.8" cy="614.9" rx="5.7" ry="5.7" fill="none" stroke="#4d7c0f" stroke-width="1.25"/><ellipse data-dediren-icon-part="system-software-disks" cx="1076.4" cy="618.0" rx="5.7" ry="5.7" fill="#d5e8d4" stroke="#4d7c0f" stroke-width="1.25"/></g><text x="1016.0" y="642.4" text-anchor="middle" dominant-baseline="middle" fill="#365314" font-size="14.0"><tspan x="1016.0" dy="0" textLength="36.5" lengthAdjust="spacing">Azure</tspan><tspan x="1016.0" dy="16.0" textLength="60.6" lengthAdjust="spacing">Functions</tspan><tspan x="1016.0" dy="16.0" textLength="46.6" lengthAdjust="spacing">runtime</tspan></text></g><g data-dediren-node-id="managed-identity"><rect data-dediren-node-shape="archimate_rounded_rectangle" x="936.0" y="784.0" width="160.0" height="138.0" rx="6" fill="#d5e8d4" stroke="#4d7c0f" stroke-width="1.25"/><g data-dediren-node-decorator="archimate_technology_service" data-dediren-icon-kind="service" data-dediren-icon-size="22"><rect x="1068.0" y="795.6" width="22.0" height="11.0" rx="4.0" fill="#d5e8d4" stroke="#4d7c0f" stroke-width="1.25"/></g><text x="1016.0" y="852.4" text-anchor="middle" dominant-baseline="middle" fill="#365314" font-size="14.0"><tspan x="1016.0" dy="0" textLength="82.4" lengthAdjust="spacing">Function App</tspan><tspan x="1016.0" dy="16.0" textLength="58.3" lengthAdjust="spacing">managed</tspan><tspan x="1016.0" dy="16.0" textLength="44.3" lengthAdjust="spacing">identity</tspan></text></g><g data-dediren-node-id="cosmos-account"><rect data-dediren-node-shape="archimate_rectangle" x="1898.0" y="494.0" width="160.0" height="80.0" rx="0" fill="#d5e8d4" stroke="#4d7c0f" stroke-width="1.25"/><g data-dediren-node-decorator="archimate_technology_node" data-dediren-icon-kind="node" data-dediren-icon-size="22"><rect x="2030.0" y="507.0" width="18.0" height="12.8" rx="1.5" fill="#d5e8d4" stroke="#4d7c0f" stroke-width="1.25"/><path data-dediren-icon-part="node-3d-edges" d="M 2030.0 507.0 L 2034.0 503.0 L 2052.0 503.0 L 2048.0 507.0 M 2048.0 507.0 L 2052.0 503.0 M 2048.0 519.7 L 2052.0 515.8 M 2052.0 503.0 L 2052.0 515.8" fill="none" stroke="#4d7c0f" stroke-width="1.25" stroke-linejoin="round"/></g><text x="1978.0" y="541.5" text-anchor="middle" dominant-baseline="middle" fill="#365314" font-size="14.0"><tspan x="1978.0" dy="0" textLength="74.6" lengthAdjust="spacing">Cosmos DB</tspan><tspan x="1978.0" dy="16.0" textLength="49.0" lengthAdjust="spacing">account</tspan></text></g><g data-dediren-node-id="storage-account"><rect data-dediren-node-shape="archimate_rectangle" x="1898.0" y="846.0" width="160.0" height="80.0" rx="0" fill="#d5e8d4" stroke="#4d7c0f" stroke-width="1.25"/><g data-dediren-node-decorator="archimate_technology_node" data-dediren-icon-kind="node" data-dediren-icon-size="22"><rect x="2030.0" y="859.0" width="18.0" height="12.8" rx="1.5" fill="#d5e8d4" stroke="#4d7c0f" stroke-width="1.25"/><path data-dediren-icon-part="node-3d-edges" d="M 2030.0 859.0 L 2034.0 855.0 L 2052.0 855.0 L 2048.0 859.0 M 2048.0 859.0 L 2052.0 855.0 M 2048.0 871.7 L 2052.0 867.8 M 2052.0 855.0 L 2052.0 867.8" fill="none" stroke="#4d7c0f" stroke-width="1.25" stroke-linejoin="round"/></g><text x="1978.0" y="893.5" text-anchor="middle" dominant-baseline="middle" fill="#365314" font-size="14.0"><tspan x="1978.0" dy="0" textLength="49.0" lengthAdjust="spacing">Storage</tspan><tspan x="1978.0" dy="16.0" textLength="49.0" lengthAdjust="spacing">account</tspan></text></g><g data-dediren-node-id="key-vault"><rect data-dediren-node-shape="archimate_rectangle" x="1898.0" y="670.0" width="160.0" height="80.0" rx="0" fill="#d5e8d4" stroke="#4d7c0f" stroke-width="1.25"/><g data-dediren-node-decorator="archimate_technology_node" data-dediren-icon-kind="node" data-dediren-icon-size="22"><rect x="2030.0" y="683.0" width="18.0" height="12.8" rx="1.5" fill="#d5e8d4" stroke="#4d7c0f" stroke-width="1.25"/><path data-dediren-icon-part="node-3d-edges" d="M 2030.0 683.0 L 2034.0 679.0 L 2052.0 679.0 L 2048.0 683.0 M 2048.0 683.0 L 2052.0 679.0 M 2048.0 695.7 L 2052.0 691.8 M 2052.0 679.0 L 2052.0 691.8" fill="none" stroke="#4d7c0f" stroke-width="1.25" stroke-linejoin="round"/></g><text x="1978.0" y="725.5" text-anchor="middle" dominant-baseline="middle" fill="#365314" font-size="14.0" textLength="59.9" lengthAdjust="spacing">Key Vault</text></g><g data-dediren-node-id="application-insights"><rect data-dediren-node-shape="archimate_rectangle" x="2973.0" y="1033.0" width="170.0" height="80.0" rx="0" fill="#d5e8d4" stroke="#4d7c0f" stroke-width="1.25"/><g data-dediren-node-decorator="archimate_technology_node" data-dediren-icon-kind="node" data-dediren-icon-size="22"><rect x="3115.0" y="1046.0" width="18.0" height="12.8" rx="1.5" fill="#d5e8d4" stroke="#4d7c0f" stroke-width="1.25"/><path data-dediren-icon-part="node-3d-edges" d="M 3115.0 1046.0 L 3119.0 1042.0 L 3137.0 1042.0 L 3133.0 1046.0 M 3133.0 1046.0 L 3137.0 1042.0 M 3133.0 1058.7 L 3137.0 1054.8 M 3137.0 1042.0 L 3137.0 1054.8" fill="none" stroke="#4d7c0f" stroke-width="1.25" stroke-linejoin="round"/></g><text x="3058.0" y="1080.5" text-anchor="middle" dominant-baseline="middle" fill="#365314" font-size="14.0"><tspan x="3058.0" dy="0" textLength="68.4" lengthAdjust="spacing">Application</tspan><tspan x="3058.0" dy="16.0" textLength="48.2" lengthAdjust="spacing">Insights</tspan></text></g><g data-dediren-node-id="log-analytics"><rect data-dediren-node-shape="archimate_rectangle" x="2588.0" y="702.0" width="160.0" height="90.0" rx="0" fill="#d5e8d4" stroke="#4d7c0f" stroke-width="1.25"/><g data-dediren-node-decorator="archimate_technology_node" data-dediren-icon-kind="node" data-dediren-icon-size="22"><rect x="2720.0" y="715.0" width="18.0" height="12.8" rx="1.5" fill="#d5e8d4" stroke="#4d7c0f" stroke-width="1.25"/><path data-dediren-icon-part="node-3d-edges" d="M 2720.0 715.0 L 2724.0 711.0 L 2742.0 711.0 L 2738.0 715.0 M 2738.0 715.0 L 2742.0 711.0 M 2738.0 727.7 L 2742.0 723.8 M 2742.0 711.0 L 2742.0 723.8" fill="none" stroke="#4d7c0f" stroke-width="1.25" stroke-linejoin="round"/></g><text x="2668.0" y="754.5" text-anchor="middle" dominant-baseline="middle" fill="#365314" font-size="14.0"><tspan x="2668.0" dy="0" textLength="83.2" lengthAdjust="spacing">Log Analytics</tspan><tspan x="2668.0" dy="16.0" textLength="66.9" lengthAdjust="spacing">workspace</tspan></text></g><g data-dediren-node-id="cosmos-throttle-alert"><rect data-dediren-node-shape="archimate_rounded_rectangle" x="2588.0" y="921.0" width="160.0" height="80.0" rx="6" fill="#d5e8d4" stroke="#4d7c0f" stroke-width="1.25"/><g data-dediren-node-decorator="archimate_technology_service" data-dediren-icon-kind="service" data-dediren-icon-size="22"><rect x="2720.0" y="932.6" width="22.0" height="11.0" rx="4.0" fill="#d5e8d4" stroke="#4d7c0f" stroke-width="1.25"/></g><text x="2668.0" y="968.5" text-anchor="middle" dominant-baseline="middle" fill="#365314" font-size="14.0"><tspan x="2668.0" dy="0" textLength="51.3" lengthAdjust="spacing">Cosmos</tspan><tspan x="2668.0" dy="16.0" textLength="73.9" lengthAdjust="spacing">throttle alert</tspan></text></g><g data-dediren-node-id="lfm-app"><rect data-dediren-node-shape="archimate_rectangle" x="775.5" y="52.0" width="160.0" height="80.0" rx="0" fill="#e0f2fe" stroke="#0369a1" stroke-width="1.25"/><g data-dediren-node-decorator="archimate_application_component" data-dediren-icon-kind="component" data-dediren-icon-size="22"><rect x="911.5" y="61.0" width="18.0" height="15.8" rx="1.5" fill="#e0f2fe" stroke="#0369a1" stroke-width="1.25"/><rect x="907.5" y="63.6" width="7.9" height="5.7" rx="1.2" fill="#e0f2fe" stroke="#0369a1" stroke-width="1.25"/><rect x="907.5" y="70.7" width="7.9" height="5.7" rx="1.2" fill="#e0f2fe" stroke="#0369a1" stroke-width="1.25"/></g><text x="855.5" y="107.5" text-anchor="middle" dominant-baseline="middle" fill="#0c4a6e" font-size="14.0" textLength="52.1" lengthAdjust="spacing">Lfm.App</text></g><g data-dediren-node-id="lfm-api"><rect data-dediren-node-shape="archimate_rectangle" x="936.0" y="389.0" width="160.0" height="80.0" rx="0" fill="#e0f2fe" stroke="#0369a1" stroke-width="1.25"/><g data-dediren-node-decorator="archimate_application_component" data-dediren-icon-kind="component" data-dediren-icon-size="22"><rect x="1072.0" y="398.0" width="18.0" height="15.8" rx="1.5" fill="#e0f2fe" stroke="#0369a1" stroke-width="1.25"/><rect x="1068.0" y="400.6" width="7.9" height="5.7" rx="1.2" fill="#e0f2fe" stroke="#0369a1" stroke-width="1.25"/><rect x="1068.0" y="407.7" width="7.9" height="5.7" rx="1.2" fill="#e0f2fe" stroke="#0369a1" stroke-width="1.25"/></g><text x="1016.0" y="444.5" text-anchor="middle" dominant-baseline="middle" fill="#0c4a6e" font-size="14.0" textLength="47.4" lengthAdjust="spacing">Lfm.Api</text></g></g></svg>

