<svg xmlns="http://www.w3.org/2000/svg" width="3040" height="1548" viewBox="84.0 -12.0 3040.0 1548.0"><rect x="84.0" y="-12.0" width="3040.0" height="1548.0" fill="#ffffff"/><g font-family="Inter, Arial, sans-serif" font-size="14.0"><g data-dediren-group-id="technology-usage-frontend-hosting"><rect x="188.0" y="12.0" width="592.0" height="160.0" rx="4.0" fill="#f8fafc" stroke="#94a3b8" stroke-width="1.0"/><text x="196.0" y="28.0" fill="#374151" font-size="12.0">Frontend hosting</text></g><g data-dediren-group-id="technology-usage-functions-hosting"><rect x="1180.0" y="300.0" width="976.0" height="992.0" rx="4.0" fill="#f8fafc" stroke="#94a3b8" stroke-width="1.0"/><text x="1188.0" y="316.0" fill="#374151" font-size="12.0">Functions hosting and identity</text></g><g data-dediren-group-id="technology-usage-platform-dependencies"><rect x="2540.0" y="728.0" width="560.0" height="784.0" rx="4.0" fill="#f8fafc" stroke="#94a3b8" stroke-width="1.0"/><text x="2548.0" y="744.0" fill="#374151" font-size="12.0">Platform dependencies</text></g><g data-dediren-group-id="technology-usage-observability"><rect x="108.0" y="823.0" width="752.0" height="688.0" rx="4.0" fill="#f8fafc" stroke="#94a3b8" stroke-width="1.0"/><text x="116.0" y="839.0" fill="#374151" font-size="12.0">Observability and alerting</text></g><g data-dediren-edge-id="swa-hosts-app"><defs><marker id="marker-end-swa-hosts-app" data-dediren-edge-marker-end="open_arrow" markerWidth="9" markerHeight="9" refX="8" refY="4.5" orient="auto" markerUnits="strokeWidth"><path d="M 1 1 L 8 4.5 L 1 8" fill="none" stroke="#2563eb" stroke-width="1.3" stroke-linecap="round" stroke-linejoin="round"/></marker></defs><path d="M 388.0 92.0 L 580.0 92.0" fill="none" stroke="#2563eb" stroke-width="1.5" marker-end="url(#marker-end-swa-hosts-app)"/><text x="484.0" y="83.6" text-anchor="middle" fill="#1e3a8a" stroke="#ffffff" stroke-width="4" stroke-linejoin="round" paint-order="stroke">hosts</text></g><g data-dediren-edge-id="function-app-hosts-api"><defs><marker id="marker-end-function-app-hosts-api" data-dediren-edge-marker-end="open_arrow" markerWidth="9" markerHeight="9" refX="8" refY="4.5" orient="auto" markerUnits="strokeWidth"><path d="M 1 1 L 8 4.5 L 1 8" fill="none" stroke="#2563eb" stroke-width="1.3" stroke-linecap="round" stroke-linejoin="round"/></marker></defs><path d="M 1692.0 628.0 L 1692.0 692.0 L 2036.0 692.0 L 2036.0 756.0" fill="none" stroke="#2563eb" stroke-width="1.5" marker-end="url(#marker-end-function-app-hosts-api)"/><text x="1903.7" y="708.8" text-anchor="middle" fill="#1e3a8a" stroke="#ffffff" stroke-width="4" stroke-linejoin="round" paint-order="stroke">hosts</text></g><g data-dediren-edge-id="plan-serves-function-app"><defs><marker id="marker-end-plan-serves-function-app" data-dediren-edge-marker-end="open_arrow" markerWidth="9" markerHeight="9" refX="8" refY="4.5" orient="auto" markerUnits="strokeWidth"><path d="M 1 1 L 8 4.5 L 1 8" fill="none" stroke="#2563eb" stroke-width="1.3" stroke-linecap="round" stroke-linejoin="round"/></marker></defs><path d="M 1300.0 420.0 L 1300.0 484.0 L 1652.0 484.0 L 1652.0 548.0" fill="none" stroke="#2563eb" stroke-width="1.5" marker-end="url(#marker-end-plan-serves-function-app)"/><text x="1476.0" y="500.8" text-anchor="middle" fill="#1e3a8a" stroke="#ffffff" stroke-width="4" stroke-linejoin="round" paint-order="stroke">hosts plan</text></g><g data-dediren-edge-id="function-app-composes-runtime"><defs><marker id="marker-start-function-app-composes-runtime" data-dediren-edge-marker-start="filled_diamond" markerWidth="10" markerHeight="10" refX="1" refY="5" orient="auto" markerUnits="strokeWidth"><path d="M 1 5 L 5 1 L 9 5 L 5 9 z" fill="#475569" stroke="#475569" stroke-width="1.1"/></marker></defs><path d="M 1612.0 628.0 L 1612.0 1136.0 L 2036.0 1136.0 L 2036.0 1172.0" fill="none" stroke="#475569" stroke-width="1.5" marker-start="url(#marker-start-function-app-composes-runtime)"/><text x="1824.0" y="1152.8" text-anchor="middle" fill="#334155" stroke="#ffffff" stroke-width="4" stroke-linejoin="round" paint-order="stroke">runtime</text></g><g data-dediren-edge-id="function-app-has-managed-identity"><path d="M 1652.0 628.0 L 1652.0 915.0 L 2036.0 915.0 L 2036.0 964.0" fill="none" stroke="#64748b" stroke-width="1.5"/><text x="1896.7" y="931.8" text-anchor="middle" fill="#374151" stroke="#ffffff" stroke-width="4" stroke-linejoin="round" paint-order="stroke">identity</text></g><g data-dediren-edge-id="cosmos-serves-function-app"><defs><marker id="marker-end-cosmos-serves-function-app" data-dediren-edge-marker-end="open_arrow" markerWidth="9" markerHeight="9" refX="8" refY="4.5" orient="auto" markerUnits="strokeWidth"><path d="M 1 1 L 8 4.5 L 1 8" fill="none" stroke="#2563eb" stroke-width="1.3" stroke-linecap="round" stroke-linejoin="round"/></marker></defs><g data-dediren-line-jump-masks="cosmos-serves-function-app"><path d="M 1832.0 921.0 Q 1838.0 915.0 1832.0 909.0" fill="none" stroke="#ffffff" stroke-width="5.5" stroke-linecap="round" stroke-linejoin="round"/><path d="M 1832.0 698.0 Q 1838.0 692.0 1832.0 686.0" fill="none" stroke="#ffffff" stroke-width="5.5" stroke-linecap="round" stroke-linejoin="round"/></g><path d="M 2788.0 1248.0 L 2788.0 1112.0 L 1832.0 1112.0 L 1832.0 921.0 Q 1838.0 915.0 1832.0 909.0 L 1832.0 698.0 Q 1838.0 692.0 1832.0 686.0 L 1832.0 588.0 L 1732.0 588.0" fill="none" stroke="#2563eb" stroke-width="1.5" marker-end="url(#marker-end-cosmos-serves-function-app)"/><text x="2310.0" y="1103.6" text-anchor="middle" fill="#1e3a8a" stroke="#ffffff" stroke-width="4" stroke-linejoin="round" paint-order="stroke">data plane</text></g><g data-dediren-edge-id="storage-serves-function-app"><defs><marker id="marker-end-storage-serves-function-app" data-dediren-edge-marker-end="open_arrow" markerWidth="9" markerHeight="9" refX="8" refY="4.5" orient="auto" markerUnits="strokeWidth"><path d="M 1 1 L 8 4.5 L 1 8" fill="none" stroke="#2563eb" stroke-width="1.3" stroke-linecap="round" stroke-linejoin="round"/></marker></defs><g data-dediren-line-jump-masks="storage-serves-function-app"><path d="M 1856.0 698.0 Q 1862.0 692.0 1856.0 686.0" fill="none" stroke="#ffffff" stroke-width="5.5" stroke-linecap="round" stroke-linejoin="round"/></g><path d="M 2788.0 976.0 L 2788.0 891.0 L 1856.0 891.0 L 1856.0 698.0 Q 1862.0 692.0 1856.0 686.0 L 1856.0 588.0 L 1732.0 588.0" fill="none" stroke="#2563eb" stroke-width="1.5" marker-end="url(#marker-end-storage-serves-function-app)"/><text x="2322.0" y="882.6" text-anchor="middle" fill="#1e3a8a" stroke="#ffffff" stroke-width="4" stroke-linejoin="round" paint-order="stroke">blob data</text></g><g data-dediren-edge-id="key-vault-serves-function-app"><defs><marker id="marker-end-key-vault-serves-function-app" data-dediren-edge-marker-end="open_arrow" markerWidth="9" markerHeight="9" refX="8" refY="4.5" orient="auto" markerUnits="strokeWidth"><path d="M 1 1 L 8 4.5 L 1 8" fill="none" stroke="#2563eb" stroke-width="1.3" stroke-linecap="round" stroke-linejoin="round"/></marker></defs><path d="M 2788.0 768.0 L 2788.0 588.0 L 1732.0 588.0" fill="none" stroke="#2563eb" stroke-width="1.5" marker-end="url(#marker-end-key-vault-serves-function-app)"/><text x="2260.0" y="579.6" text-anchor="middle" fill="#1e3a8a" stroke="#ffffff" stroke-width="4" stroke-linejoin="round" paint-order="stroke">secrets</text></g><g data-dediren-edge-id="app-insights-serves-function-app"><defs><marker id="marker-end-app-insights-serves-function-app" data-dediren-edge-marker-end="open_arrow" markerWidth="9" markerHeight="9" refX="8" refY="4.5" orient="auto" markerUnits="strokeWidth"><path d="M 1 1 L 8 4.5 L 1 8" fill="none" stroke="#2563eb" stroke-width="1.3" stroke-linecap="round" stroke-linejoin="round"/></marker></defs><path d="M 660.0 1097.7 L 1196.0 1097.7 L 1196.0 588.0 L 1732.0 588.0" fill="none" stroke="#2563eb" stroke-width="1.5" marker-end="url(#marker-end-app-insights-serves-function-app)"/><text x="928.0" y="1089.3" text-anchor="middle" fill="#1e3a8a" stroke="#ffffff" stroke-width="4" stroke-linejoin="round" paint-order="stroke">telemetry</text></g><g data-dediren-edge-id="log-analytics-aggregates-app-insights"><defs><marker id="marker-start-log-analytics-aggregates-app-insights" data-dediren-edge-marker-start="hollow_diamond" markerWidth="10" markerHeight="10" refX="1" refY="5" orient="auto" markerUnits="strokeWidth"><path d="M 1 5 L 5 1 L 9 5 L 5 9 z" fill="#ffffff" stroke="#475569" stroke-width="1.1"/></marker></defs><path d="M 356.0 943.0 L 356.0 1019.0 L 740.0 1019.0 L 740.0 1071.0" fill="none" stroke="#475569" stroke-width="1.5" marker-start="url(#marker-start-log-analytics-aggregates-app-insights)"/><text x="548.0" y="1035.8" text-anchor="middle" fill="#334155" stroke="#ffffff" stroke-width="4" stroke-linejoin="round" paint-order="stroke">workspace</text></g><g data-dediren-edge-id="log-analytics-aggregates-diagnostics"><defs><marker id="marker-start-log-analytics-aggregates-diagnostics" data-dediren-edge-marker-start="hollow_diamond" markerWidth="10" markerHeight="10" refX="1" refY="5" orient="auto" markerUnits="strokeWidth"><path d="M 1 5 L 5 1 L 9 5 L 5 9 z" fill="#ffffff" stroke="#475569" stroke-width="1.1"/></marker></defs><path d="M 276.0 903.0 L 244.0 903.0 L 244.0 1335.0 L 2900.0 1335.0 L 2900.0 1274.7 L 2868.0 1274.7" fill="none" stroke="#475569" stroke-width="1.5" marker-start="url(#marker-start-log-analytics-aggregates-diagnostics)"/><text x="194.3" y="919.8" text-anchor="middle" fill="#334155" stroke="#ffffff" stroke-width="4" stroke-linejoin="round" paint-order="stroke">diagnostics</text></g><g data-dediren-edge-id="managed-identity-accesses-key-vault"><g data-dediren-line-jump-masks="managed-identity-accesses-key-vault"><path d="M 2412.0 897.0 Q 2418.0 891.0 2412.0 885.0" fill="none" stroke="#ffffff" stroke-width="5.5" stroke-linecap="round" stroke-linejoin="round"/></g><path d="M 2116.0 1004.0 L 2412.0 1004.0 L 2412.0 897.0 Q 2418.0 891.0 2412.0 885.0 L 2412.0 808.0 L 2708.0 808.0" fill="none" stroke="#64748b" stroke-width="1.5"/><text x="2560.0" y="799.6" text-anchor="middle" fill="#374151" stroke="#ffffff" stroke-width="4" stroke-linejoin="round" paint-order="stroke">Secrets User</text></g><g data-dediren-edge-id="managed-identity-accesses-cosmos"><g data-dediren-line-jump-masks="managed-identity-accesses-cosmos"><path d="M 2400.0 1106.0 Q 2406.0 1112.0 2400.0 1118.0" fill="none" stroke="#ffffff" stroke-width="5.5" stroke-linecap="round" stroke-linejoin="round"/></g><path d="M 2116.0 1004.0 L 2400.0 1004.0 L 2400.0 1106.0 Q 2406.0 1112.0 2400.0 1118.0 L 2400.0 1288.0 L 2708.0 1288.0" fill="none" stroke="#64748b" stroke-width="1.5"/><text x="2554.0" y="1322.8" text-anchor="middle" fill="#374151" stroke="#ffffff" stroke-width="4" stroke-linejoin="round" paint-order="stroke">Data Contributor</text></g><g data-dediren-edge-id="managed-identity-accesses-storage"><path d="M 2116.0 1004.0 L 2424.0 1004.0 L 2424.0 1016.0 L 2708.0 1016.0" fill="none" stroke="#64748b" stroke-width="1.5"/><text x="2566.0" y="1032.8" text-anchor="middle" fill="#374151" stroke="#ffffff" stroke-width="4" stroke-linejoin="round" paint-order="stroke">Blob/Queue/Table roles</text></g><g data-dediren-edge-id="managed-identity-accesses-app-insights"><g data-dediren-line-jump-masks="managed-identity-accesses-app-insights"><path d="M 1838.0 1004.0 Q 1832.0 998.0 1826.0 1004.0" fill="none" stroke="#ffffff" stroke-width="5.5" stroke-linecap="round" stroke-linejoin="round"/><path d="M 1618.0 1004.0 Q 1612.0 998.0 1606.0 1004.0" fill="none" stroke="#ffffff" stroke-width="5.5" stroke-linecap="round" stroke-linejoin="round"/></g><path d="M 2116.0 1004.0 L 1838.0 1004.0 Q 1832.0 998.0 1826.0 1004.0 L 1618.0 1004.0 Q 1612.0 998.0 1606.0 1004.0 L 1388.0 1004.0 L 1388.0 1124.3 L 660.0 1124.3" fill="none" stroke="#64748b" stroke-width="1.5"/><text x="1024.0" y="1141.1" text-anchor="middle" fill="#374151" stroke="#ffffff" stroke-width="4" stroke-linejoin="round" paint-order="stroke">Metrics Publisher</text></g><g data-dediren-edge-id="cosmos-throttle-alert-monitors-cosmos"><path d="M 660.0 1287.0 L 1148.0 1287.0 L 1148.0 1301.3 L 2868.0 1301.3" fill="none" stroke="#64748b" stroke-width="1.5"/><text x="904.0" y="1303.8" text-anchor="middle" fill="#374151" stroke="#ffffff" stroke-width="4" stroke-linejoin="round" paint-order="stroke">monitors 429s</text></g><g data-dediren-node-id="static-web-apps"><rect data-dediren-node-shape="archimate_rectangle" x="228.0" y="52.0" width="160.0" height="80.0" rx="0" fill="#ecfdf3" stroke="#16a34a" stroke-width="1.5"/><g data-dediren-node-decorator="archimate_technology_node" data-dediren-icon-kind="node" data-dediren-icon-size="22"><rect x="360.0" y="65.0" width="18.0" height="12.8" rx="1.5" fill="#ecfdf3" stroke="#16a34a" stroke-width="1.5"/><path data-dediren-icon-part="node-3d-edges" d="M 360.0 65.0 L 364.0 61.0 L 382.0 61.0 L 378.0 65.0 M 378.0 65.0 L 382.0 61.0 M 378.0 77.7 L 382.0 73.8 M 382.0 61.0 L 382.0 73.8" fill="none" stroke="#16a34a" stroke-width="1.5" stroke-linejoin="round"/></g><text x="308.0" y="84.0" text-anchor="middle" dominant-baseline="middle" fill="#14532d" font-size="14.0"><tspan x="308.0" dy="0">Azure Static Web</tspan><tspan x="308.0" dy="16.0">Apps</tspan></text></g><g data-dediren-node-id="function-app"><rect data-dediren-node-shape="archimate_rectangle" x="1572.0" y="548.0" width="160.0" height="80.0" rx="0" fill="#ecfdf3" stroke="#16a34a" stroke-width="1.5"/><g data-dediren-node-decorator="archimate_technology_node" data-dediren-icon-kind="node" data-dediren-icon-size="22"><rect x="1704.0" y="561.0" width="18.0" height="12.8" rx="1.5" fill="#ecfdf3" stroke="#16a34a" stroke-width="1.5"/><path data-dediren-icon-part="node-3d-edges" d="M 1704.0 561.0 L 1708.0 557.0 L 1726.0 557.0 L 1722.0 561.0 M 1722.0 561.0 L 1726.0 557.0 M 1722.0 573.7 L 1726.0 569.8 M 1726.0 557.0 L 1726.0 569.8" fill="none" stroke="#16a34a" stroke-width="1.5" stroke-linejoin="round"/></g><text x="1652.0" y="580.0" text-anchor="middle" dominant-baseline="middle" fill="#14532d" font-size="14.0"><tspan x="1652.0" dy="0">Azure Function</tspan><tspan x="1652.0" dy="16.0">App</tspan></text></g><g data-dediren-node-id="app-service-plan"><rect data-dediren-node-shape="archimate_rectangle" x="1220.0" y="340.0" width="160.0" height="80.0" rx="0" fill="#ecfdf3" stroke="#16a34a" stroke-width="1.5"/><g data-dediren-node-decorator="archimate_technology_node" data-dediren-icon-kind="node" data-dediren-icon-size="22"><rect x="1352.0" y="353.0" width="18.0" height="12.8" rx="1.5" fill="#ecfdf3" stroke="#16a34a" stroke-width="1.5"/><path data-dediren-icon-part="node-3d-edges" d="M 1352.0 353.0 L 1356.0 349.0 L 1374.0 349.0 L 1370.0 353.0 M 1370.0 353.0 L 1374.0 349.0 M 1370.0 365.7 L 1374.0 361.8 M 1374.0 349.0 L 1374.0 361.8" fill="none" stroke="#16a34a" stroke-width="1.5" stroke-linejoin="round"/></g><text x="1300.0" y="371.9" text-anchor="middle" dominant-baseline="middle" fill="#14532d" font-size="14.0"><tspan x="1300.0" dy="0">App Service Plan</tspan><tspan x="1300.0" dy="16.0">(Y1)</tspan></text></g><g data-dediren-node-id="functions-runtime"><rect data-dediren-node-shape="archimate_rectangle" x="1956.0" y="1172.0" width="160.0" height="80.0" rx="0" fill="#ecfdf3" stroke="#16a34a" stroke-width="1.5"/><g data-dediren-node-decorator="archimate_system_software" data-dediren-icon-kind="system_software" data-dediren-icon-size="22"><ellipse data-dediren-icon-part="system-software-disks" cx="2100.8" cy="1188.9" rx="5.7" ry="5.7" fill="none" stroke="#16a34a" stroke-width="1.5"/><ellipse data-dediren-icon-part="system-software-disks" cx="2096.4" cy="1192.0" rx="5.7" ry="5.7" fill="#ecfdf3" stroke="#16a34a" stroke-width="1.5"/></g><text x="2036.0" y="1204.0" text-anchor="middle" dominant-baseline="middle" fill="#14532d" font-size="14.0"><tspan x="2036.0" dy="0">Azure Functions</tspan><tspan x="2036.0" dy="16.0">runtime</tspan></text></g><g data-dediren-node-id="managed-identity"><rect data-dediren-node-shape="archimate_rounded_rectangle" x="1956.0" y="964.0" width="160.0" height="80.0" rx="4.0" fill="#ecfdf3" stroke="#16a34a" stroke-width="1.5"/><g data-dediren-node-decorator="archimate_technology_service" data-dediren-icon-kind="service" data-dediren-icon-size="22"><rect x="2088.0" y="975.6" width="22.0" height="11.0" rx="4.0" fill="#ecfdf3" stroke="#16a34a" stroke-width="1.5"/></g><text x="2036.0" y="996.0" text-anchor="middle" dominant-baseline="middle" fill="#14532d" font-size="14.0"><tspan x="2036.0" dy="0">Function App</tspan><tspan x="2036.0" dy="16.0">managed identity</tspan></text></g><g data-dediren-node-id="cosmos-account"><rect data-dediren-node-shape="archimate_rectangle" x="2708.0" y="1248.0" width="160.0" height="80.0" rx="0" fill="#ecfdf3" stroke="#16a34a" stroke-width="1.5"/><g data-dediren-node-decorator="archimate_technology_node" data-dediren-icon-kind="node" data-dediren-icon-size="22"><rect x="2840.0" y="1261.0" width="18.0" height="12.8" rx="1.5" fill="#ecfdf3" stroke="#16a34a" stroke-width="1.5"/><path data-dediren-icon-part="node-3d-edges" d="M 2840.0 1261.0 L 2844.0 1257.0 L 2862.0 1257.0 L 2858.0 1261.0 M 2858.0 1261.0 L 2862.0 1257.0 M 2858.0 1273.7 L 2862.0 1269.8 M 2862.0 1257.0 L 2862.0 1269.8" fill="none" stroke="#16a34a" stroke-width="1.5" stroke-linejoin="round"/></g><text x="2788.0" y="1280.0" text-anchor="middle" dominant-baseline="middle" fill="#14532d" font-size="14.0"><tspan x="2788.0" dy="0">Cosmos DB</tspan><tspan x="2788.0" dy="16.0">account</tspan></text></g><g data-dediren-node-id="storage-account"><rect data-dediren-node-shape="archimate_rectangle" x="2708.0" y="976.0" width="160.0" height="80.0" rx="0" fill="#ecfdf3" stroke="#16a34a" stroke-width="1.5"/><g data-dediren-node-decorator="archimate_technology_node" data-dediren-icon-kind="node" data-dediren-icon-size="22"><rect x="2840.0" y="989.0" width="18.0" height="12.8" rx="1.5" fill="#ecfdf3" stroke="#16a34a" stroke-width="1.5"/><path data-dediren-icon-part="node-3d-edges" d="M 2840.0 989.0 L 2844.0 985.0 L 2862.0 985.0 L 2858.0 989.0 M 2858.0 989.0 L 2862.0 985.0 M 2858.0 1001.7 L 2862.0 997.8 M 2862.0 985.0 L 2862.0 997.8" fill="none" stroke="#16a34a" stroke-width="1.5" stroke-linejoin="round"/></g><text x="2788.0" y="1016.0" text-anchor="middle" dominant-baseline="middle" fill="#14532d" font-size="14.0">Storage account</text></g><g data-dediren-node-id="key-vault"><rect data-dediren-node-shape="archimate_rectangle" x="2708.0" y="768.0" width="160.0" height="80.0" rx="0" fill="#ecfdf3" stroke="#16a34a" stroke-width="1.5"/><g data-dediren-node-decorator="archimate_technology_node" data-dediren-icon-kind="node" data-dediren-icon-size="22"><rect x="2840.0" y="781.0" width="18.0" height="12.8" rx="1.5" fill="#ecfdf3" stroke="#16a34a" stroke-width="1.5"/><path data-dediren-icon-part="node-3d-edges" d="M 2840.0 781.0 L 2844.0 777.0 L 2862.0 777.0 L 2858.0 781.0 M 2858.0 781.0 L 2862.0 777.0 M 2858.0 793.7 L 2862.0 789.8 M 2862.0 777.0 L 2862.0 789.8" fill="none" stroke="#16a34a" stroke-width="1.5" stroke-linejoin="round"/></g><text x="2788.0" y="808.0" text-anchor="middle" dominant-baseline="middle" fill="#14532d" font-size="14.0">Key Vault</text></g><g data-dediren-node-id="application-insights"><rect data-dediren-node-shape="archimate_rectangle" x="660.0" y="1071.0" width="160.0" height="80.0" rx="0" fill="#ecfdf3" stroke="#16a34a" stroke-width="1.5"/><g data-dediren-node-decorator="archimate_technology_node" data-dediren-icon-kind="node" data-dediren-icon-size="22"><rect x="792.0" y="1084.0" width="18.0" height="12.8" rx="1.5" fill="#ecfdf3" stroke="#16a34a" stroke-width="1.5"/><path data-dediren-icon-part="node-3d-edges" d="M 792.0 1084.0 L 796.0 1080.0 L 814.0 1080.0 L 810.0 1084.0 M 810.0 1084.0 L 814.0 1080.0 M 810.0 1096.7 L 814.0 1092.8 M 814.0 1080.0 L 814.0 1092.8" fill="none" stroke="#16a34a" stroke-width="1.5" stroke-linejoin="round"/></g><text x="740.0" y="1103.0" text-anchor="middle" dominant-baseline="middle" fill="#14532d" font-size="14.0"><tspan x="740.0" dy="0">Application</tspan><tspan x="740.0" dy="16.0">Insights</tspan></text></g><g data-dediren-node-id="log-analytics"><rect data-dediren-node-shape="archimate_rectangle" x="276.0" y="863.0" width="160.0" height="80.0" rx="0" fill="#ecfdf3" stroke="#16a34a" stroke-width="1.5"/><g data-dediren-node-decorator="archimate_technology_node" data-dediren-icon-kind="node" data-dediren-icon-size="22"><rect x="408.0" y="876.0" width="18.0" height="12.8" rx="1.5" fill="#ecfdf3" stroke="#16a34a" stroke-width="1.5"/><path data-dediren-icon-part="node-3d-edges" d="M 408.0 876.0 L 412.0 872.0 L 430.0 872.0 L 426.0 876.0 M 426.0 876.0 L 430.0 872.0 M 426.0 888.7 L 430.0 884.8 M 430.0 872.0 L 430.0 884.8" fill="none" stroke="#16a34a" stroke-width="1.5" stroke-linejoin="round"/></g><text x="356.0" y="895.0" text-anchor="middle" dominant-baseline="middle" fill="#14532d" font-size="14.0"><tspan x="356.0" dy="0">Log Analytics</tspan><tspan x="356.0" dy="16.0">workspace</tspan></text></g><g data-dediren-node-id="cosmos-throttle-alert"><rect data-dediren-node-shape="archimate_rounded_rectangle" x="660.0" y="1247.0" width="160.0" height="80.0" rx="4.0" fill="#ecfdf3" stroke="#16a34a" stroke-width="1.5"/><g data-dediren-node-decorator="archimate_technology_service" data-dediren-icon-kind="service" data-dediren-icon-size="22"><rect x="792.0" y="1258.6" width="22.0" height="11.0" rx="4.0" fill="#ecfdf3" stroke="#16a34a" stroke-width="1.5"/></g><text x="740.0" y="1279.0" text-anchor="middle" dominant-baseline="middle" fill="#14532d" font-size="14.0"><tspan x="740.0" dy="0">Cosmos throttle</tspan><tspan x="740.0" dy="16.0">alert</tspan></text></g><g data-dediren-node-id="lfm-app"><rect data-dediren-node-shape="archimate_rectangle" x="580.0" y="52.0" width="160.0" height="80.0" rx="0" fill="#e8f3ff" stroke="#2563eb" stroke-width="1.5"/><g data-dediren-node-decorator="archimate_application_component" data-dediren-icon-kind="component" data-dediren-icon-size="22"><rect x="716.0" y="61.0" width="18.0" height="15.8" rx="1.5" fill="#e8f3ff" stroke="#2563eb" stroke-width="1.5"/><rect x="712.0" y="63.6" width="7.9" height="5.7" rx="1.2" fill="#e8f3ff" stroke="#2563eb" stroke-width="1.5"/><rect x="712.0" y="70.7" width="7.9" height="5.7" rx="1.2" fill="#e8f3ff" stroke="#2563eb" stroke-width="1.5"/></g><text x="660.0" y="92.0" text-anchor="middle" dominant-baseline="middle" fill="#172554" font-size="14.0">Lfm.App</text></g><g data-dediren-node-id="lfm-api"><rect data-dediren-node-shape="archimate_rectangle" x="1956.0" y="756.0" width="160.0" height="80.0" rx="0" fill="#e8f3ff" stroke="#2563eb" stroke-width="1.5"/><g data-dediren-node-decorator="archimate_application_component" data-dediren-icon-kind="component" data-dediren-icon-size="22"><rect x="2092.0" y="765.0" width="18.0" height="15.8" rx="1.5" fill="#e8f3ff" stroke="#2563eb" stroke-width="1.5"/><rect x="2088.0" y="767.6" width="7.9" height="5.7" rx="1.2" fill="#e8f3ff" stroke="#2563eb" stroke-width="1.5"/><rect x="2088.0" y="774.7" width="7.9" height="5.7" rx="1.2" fill="#e8f3ff" stroke="#2563eb" stroke-width="1.5"/></g><text x="2036.0" y="796.0" text-anchor="middle" dominant-baseline="middle" fill="#172554" font-size="14.0">Lfm.Api</text></g></g></svg>

