<svg xmlns="http://www.w3.org/2000/svg" width="2288" height="2208" viewBox="84.0 55.0 2288.0 2208.0"><rect x="84.0" y="55.0" width="2288.0" height="2208.0" fill="#ffffff"/><g font-family="Inter, Arial, sans-serif" font-size="14.0"><g data-dediren-group-id="technology-data-plane-runtime-principal"><rect x="108.0" y="351.0" width="752.0" height="248.3" rx="4.0" fill="#f8fafc" stroke="#94a3b8" stroke-width="1.0"/><text x="116.0" y="367.0" fill="#374151" font-size="12.0">Runtime identity</text></g><g data-dediren-group-id="technology-data-plane-cosmos"><rect x="1244.0" y="895.0" width="1104.0" height="928.0" rx="4.0" fill="#f8fafc" stroke="#94a3b8" stroke-width="1.0"/><text x="1252.0" y="911.0" fill="#374151" font-size="12.0">Cosmos data store</text></g><g data-dediren-group-id="technology-data-plane-storage"><rect x="1244.0" y="79.0" width="752.0" height="720.0" rx="4.0" fill="#f8fafc" stroke="#94a3b8" stroke-width="1.0"/><text x="1252.0" y="95.0" fill="#374151" font-size="12.0">Blob storage</text></g><g data-dediren-group-id="technology-data-plane-secrets"><rect x="1244.0" y="1919.0" width="752.0" height="320.0" rx="4.0" fill="#f8fafc" stroke="#94a3b8" stroke-width="1.0"/><text x="1252.0" y="1935.0" fill="#374151" font-size="12.0">Secrets and cryptographic material</text></g><g data-dediren-edge-id="function-app-has-managed-identity"><path d="M 308.0 426.0 L 420.0 426.0 L 420.0 431.0 L 532.0 431.0" fill="none" stroke="#64748b" stroke-width="1.5"/><text x="364.0" y="442.8" text-anchor="middle" fill="#374151" stroke="#ffffff" stroke-width="4" stroke-linejoin="round" paint-order="stroke">identity</text></g><g data-dediren-edge-id="cosmos-serves-function-app"><defs><marker id="marker-end-cosmos-serves-function-app" data-dediren-edge-marker-end="open_arrow" markerWidth="9" markerHeight="9" refX="8" refY="4.5" orient="auto" markerUnits="strokeWidth"><path d="M 1 1 L 8 4.5 L 1 8" fill="none" stroke="#2563eb" stroke-width="1.3" stroke-linecap="round" stroke-linejoin="round"/></marker></defs><path d="M 1492.0 1207.0 L 1492.0 839.0 L 420.0 839.0 L 420.0 452.7 L 308.0 452.7" fill="none" stroke="#2563eb" stroke-width="1.5" marker-end="url(#marker-end-cosmos-serves-function-app)"/><text x="956.0" y="830.6" text-anchor="middle" fill="#1e3a8a" stroke="#ffffff" stroke-width="4" stroke-linejoin="round" paint-order="stroke">data plane</text></g><g data-dediren-edge-id="storage-serves-function-app"><defs><marker id="marker-end-storage-serves-function-app" data-dediren-edge-marker-end="open_arrow" markerWidth="9" markerHeight="9" refX="8" refY="4.5" orient="auto" markerUnits="strokeWidth"><path d="M 1 1 L 8 4.5 L 1 8" fill="none" stroke="#2563eb" stroke-width="1.3" stroke-linecap="round" stroke-linejoin="round"/></marker></defs><path d="M 1412.0 444.3 L 1380.0 444.3 L 1380.0 471.0 L 340.0 471.0 L 340.0 452.7 L 308.0 452.7" fill="none" stroke="#2563eb" stroke-width="1.5" marker-end="url(#marker-end-storage-serves-function-app)"/><text x="1338.9" y="461.1" text-anchor="middle" fill="#1e3a8a" stroke="#ffffff" stroke-width="4" stroke-linejoin="round" paint-order="stroke">blob data</text></g><g data-dediren-edge-id="key-vault-serves-function-app"><defs><marker id="marker-end-key-vault-serves-function-app" data-dediren-edge-marker-end="open_arrow" markerWidth="9" markerHeight="9" refX="8" refY="4.5" orient="auto" markerUnits="strokeWidth"><path d="M 1 1 L 8 4.5 L 1 8" fill="none" stroke="#2563eb" stroke-width="1.3" stroke-linecap="round" stroke-linejoin="round"/></marker></defs><path d="M 1492.0 2039.0 L 1492.0 2007.0 L 340.0 2007.0 L 340.0 452.7 L 308.0 452.7" fill="none" stroke="#2563eb" stroke-width="1.5" marker-end="url(#marker-end-key-vault-serves-function-app)"/><text x="916.0" y="1998.6" text-anchor="middle" fill="#1e3a8a" stroke="#ffffff" stroke-width="4" stroke-linejoin="round" paint-order="stroke">secrets</text></g><g data-dediren-edge-id="cosmos-composes-database"><path d="M 1492.0 1287.0 L 1492.0 1351.0 L 1844.0 1351.0 L 1844.0 1415.0" fill="none" stroke="#64748b" stroke-width="1.5"/><text x="1668.0" y="1367.8" text-anchor="middle" fill="#374151" stroke="#ffffff" stroke-width="4" stroke-linejoin="round" paint-order="stroke">database</text></g><g data-dediren-edge-id="database-composes-runs"><defs><marker id="marker-start-database-composes-runs" data-dediren-edge-marker-start="filled_diamond" markerWidth="10" markerHeight="10" refX="1" refY="5" orient="auto" markerUnits="strokeWidth"><path d="M 1 5 L 5 1 L 9 5 L 5 9 z" fill="#475569" stroke="#475569" stroke-width="1.1"/></marker></defs><path d="M 1844.0 1495.0 L 1844.0 1591.0 L 2228.0 1591.0 L 2228.0 1623.0" fill="none" stroke="#475569" stroke-width="1.5" marker-start="url(#marker-start-database-composes-runs)"/><text x="2036.0" y="1607.8" text-anchor="middle" fill="#334155" stroke="#ffffff" stroke-width="4" stroke-linejoin="round" paint-order="stroke">container</text></g><g data-dediren-edge-id="database-composes-raiders"><defs><marker id="marker-start-database-composes-raiders" data-dediren-edge-marker-start="filled_diamond" markerWidth="10" markerHeight="10" refX="1" refY="5" orient="auto" markerUnits="strokeWidth"><path d="M 1 5 L 5 1 L 9 5 L 5 9 z" fill="#475569" stroke="#475569" stroke-width="1.1"/></marker></defs><path d="M 1844.0 1495.0 L 1844.0 1421.0 Q 1850.0 1415.0 1850.0 1415.0 L 1850.0 1351.0 Q 1850.0 1345.0 1844.0 1345.0 L 1844.0 1135.0 L 2228.0 1135.0 L 2228.0 999.0" fill="none" stroke="#475569" stroke-width="1.5" marker-start="url(#marker-start-database-composes-raiders)"/><text x="2036.0" y="1126.6" text-anchor="middle" fill="#334155" stroke="#ffffff" stroke-width="4" stroke-linejoin="round" paint-order="stroke">container</text></g><g data-dediren-edge-id="database-composes-guilds"><defs><marker id="marker-start-database-composes-guilds" data-dediren-edge-marker-start="filled_diamond" markerWidth="10" markerHeight="10" refX="1" refY="5" orient="auto" markerUnits="strokeWidth"><path d="M 1 5 L 5 1 L 9 5 L 5 9 z" fill="#475569" stroke="#475569" stroke-width="1.1"/></marker></defs><path d="M 1844.0 1495.0 L 1844.0 1421.0 Q 1850.0 1415.0 1850.0 1415.0 L 1850.0 1351.0 Q 1850.0 1351.0 1850.0 1351.0 L 2228.0 1351.0 L 2228.0 1207.0" fill="none" stroke="#475569" stroke-width="1.5" marker-start="url(#marker-start-database-composes-guilds)"/><text x="2036.0" y="1342.6" text-anchor="middle" fill="#334155" stroke="#ffffff" stroke-width="4" stroke-linejoin="round" paint-order="stroke">container</text></g><g data-dediren-edge-id="database-composes-idempotency"><defs><marker id="marker-start-database-composes-idempotency" data-dediren-edge-marker-start="filled_diamond" markerWidth="10" markerHeight="10" refX="1" refY="5" orient="auto" markerUnits="strokeWidth"><path d="M 1 5 L 5 1 L 9 5 L 5 9 z" fill="#475569" stroke="#475569" stroke-width="1.1"/></marker></defs><path d="M 1844.0 1495.0 L 1844.0 1455.0 L 2228.0 1455.0 L 2228.0 1415.0" fill="none" stroke="#475569" stroke-width="1.5" marker-start="url(#marker-start-database-composes-idempotency)"/><text x="2036.0" y="1446.6" text-anchor="middle" fill="#334155" stroke="#ffffff" stroke-width="4" stroke-linejoin="round" paint-order="stroke">container</text></g><g data-dediren-edge-id="storage-composes-wow-reference"><path d="M 1492.0 471.0 L 1492.0 431.0 L 1876.0 431.0 L 1876.0 391.0" fill="none" stroke="#64748b" stroke-width="1.5"/><text x="1684.0" y="422.6" text-anchor="middle" fill="#374151" stroke="#ffffff" stroke-width="4" stroke-linejoin="round" paint-order="stroke">blob container</text></g><g data-dediren-edge-id="storage-composes-data-protection"><path d="M 1492.0 471.0 L 1492.0 543.0 L 1876.0 543.0 L 1876.0 599.0" fill="none" stroke="#64748b" stroke-width="1.5"/><text x="1684.0" y="559.8" text-anchor="middle" fill="#374151" stroke="#ffffff" stroke-width="4" stroke-linejoin="round" paint-order="stroke">blob container</text></g><g data-dediren-edge-id="storage-composes-deployments"><path d="M 1492.0 471.0 L 1492.0 327.0 L 1876.0 327.0 L 1876.0 183.0" fill="none" stroke="#64748b" stroke-width="1.5"/><text x="1684.0" y="318.6" text-anchor="middle" fill="#374151" stroke="#ffffff" stroke-width="4" stroke-linejoin="round" paint-order="stroke">blob container</text></g><g data-dediren-edge-id="key-vault-composes-data-protection-key"><path d="M 1572.0 2079.0 L 1684.0 2079.0 L 1684.0 2100.7 L 1796.0 2100.7" fill="none" stroke="#64748b" stroke-width="1.5"/><text x="1628.0" y="2095.8" text-anchor="middle" fill="#374151" stroke="#ffffff" stroke-width="4" stroke-linejoin="round" paint-order="stroke">key</text></g><g data-dediren-edge-id="managed-identity-accesses-key-vault"><g data-dediren-line-jump-masks="managed-identity-accesses-key-vault"><path d="M 1064.0 465.0 Q 1070.0 471.0 1064.0 477.0" fill="none" stroke="#ffffff" stroke-width="5.5" stroke-linecap="round" stroke-linejoin="round"/><path d="M 1064.0 833.0 Q 1070.0 839.0 1064.0 845.0" fill="none" stroke="#ffffff" stroke-width="5.5" stroke-linecap="round" stroke-linejoin="round"/><path d="M 1064.0 2001.0 Q 1070.0 2007.0 1064.0 2013.0" fill="none" stroke="#ffffff" stroke-width="5.5" stroke-linecap="round" stroke-linejoin="round"/></g><path d="M 692.0 417.7 L 1064.0 417.7 L 1064.0 465.0 Q 1070.0 471.0 1064.0 477.0 L 1064.0 833.0 Q 1070.0 839.0 1064.0 845.0 L 1064.0 2001.0 Q 1070.0 2007.0 1064.0 2013.0 L 1064.0 2079.0 L 1412.0 2079.0" fill="none" stroke="#64748b" stroke-width="1.5"/><text x="1238.0" y="2095.8" text-anchor="middle" fill="#374151" stroke="#ffffff" stroke-width="4" stroke-linejoin="round" paint-order="stroke">Secrets User</text></g><g data-dediren-edge-id="managed-identity-accesses-cosmos"><g data-dediren-line-jump-masks="managed-identity-accesses-cosmos"><path d="M 1088.0 465.0 Q 1094.0 471.0 1088.0 477.0" fill="none" stroke="#ffffff" stroke-width="5.5" stroke-linecap="round" stroke-linejoin="round"/><path d="M 1088.0 833.0 Q 1094.0 839.0 1088.0 845.0" fill="none" stroke="#ffffff" stroke-width="5.5" stroke-linecap="round" stroke-linejoin="round"/></g><path d="M 692.0 417.7 L 1088.0 417.7 L 1088.0 465.0 Q 1094.0 471.0 1088.0 477.0 L 1088.0 833.0 Q 1094.0 839.0 1088.0 845.0 L 1088.0 1247.0 L 1412.0 1247.0" fill="none" stroke="#64748b" stroke-width="1.5"/><text x="1250.0" y="1263.8" text-anchor="middle" fill="#374151" stroke="#ffffff" stroke-width="4" stroke-linejoin="round" paint-order="stroke">Data Contributor</text></g><g data-dediren-edge-id="managed-identity-accesses-storage"><path d="M 692.0 417.7 L 1412.0 417.7" fill="none" stroke="#64748b" stroke-width="1.5"/><text x="1052.0" y="409.3" text-anchor="middle" fill="#374151" stroke="#ffffff" stroke-width="4" stroke-linejoin="round" paint-order="stroke">Blob/Queue/Table roles</text></g><g data-dediren-edge-id="managed-identity-accesses-data-protection-key"><defs><marker id="marker-end-managed-identity-accesses-data-protection-key" data-dediren-edge-marker-end="open_arrow" markerWidth="9" markerHeight="9" refX="8" refY="4.5" orient="auto" markerUnits="strokeWidth"><path d="M 1 1 L 8 4.5 L 1 8" fill="none" stroke="#15803d" stroke-width="1.3" stroke-linecap="round" stroke-linejoin="round"/></marker></defs><g data-dediren-line-jump-masks="managed-identity-accesses-data-protection-key"><path d="M 724.0 465.0 Q 730.0 471.0 724.0 477.0" fill="none" stroke="#ffffff" stroke-width="5.5" stroke-linecap="round" stroke-linejoin="round"/><path d="M 724.0 833.0 Q 730.0 839.0 724.0 845.0" fill="none" stroke="#ffffff" stroke-width="5.5" stroke-linecap="round" stroke-linejoin="round"/><path d="M 1058.0 1959.0 Q 1064.0 1953.0 1070.0 1959.0" fill="none" stroke="#ffffff" stroke-width="5.5" stroke-linecap="round" stroke-linejoin="round"/></g><path d="M 692.0 444.3 L 724.0 444.3 L 724.0 465.0 Q 730.0 471.0 724.0 477.0 L 724.0 833.0 Q 730.0 839.0 724.0 845.0 L 724.0 1959.0 L 1058.0 1959.0 Q 1064.0 1953.0 1070.0 1959.0 L 1764.0 1959.0 L 1764.0 2074.0 L 1796.0 2074.0" fill="none" stroke="#15803d" stroke-width="1.5" stroke-dasharray="8 5" marker-end="url(#marker-end-managed-identity-accesses-data-protection-key)"/><text x="773.7" y="461.1" text-anchor="middle" fill="#166534" stroke="#ffffff" stroke-width="4" stroke-linejoin="round" paint-order="stroke">Crypto User</text></g><g data-dediren-node-id="function-app"><rect data-dediren-node-shape="archimate_rectangle" x="148.0" y="399.3" width="160.0" height="80.0" rx="0" fill="#ecfdf3" stroke="#16a34a" stroke-width="1.5"/><g data-dediren-node-decorator="archimate_technology_node" data-dediren-icon-kind="node" data-dediren-icon-size="22"><rect x="280.0" y="412.3" width="18.0" height="12.8" rx="1.5" fill="#ecfdf3" stroke="#16a34a" stroke-width="1.5"/><path data-dediren-icon-part="node-3d-edges" d="M 280.0 412.3 L 284.0 408.3 L 302.0 408.3 L 298.0 412.3 M 298.0 412.3 L 302.0 408.3 M 298.0 425.1 L 302.0 421.1 M 302.0 408.3 L 302.0 421.1" fill="none" stroke="#16a34a" stroke-width="1.5" stroke-linejoin="round"/></g><text x="228.0" y="431.3" text-anchor="middle" dominant-baseline="middle" fill="#14532d" font-size="14.0"><tspan x="228.0" dy="0">Azure Function</tspan><tspan x="228.0" dy="16.0">App</tspan></text></g><g data-dediren-node-id="managed-identity"><rect data-dediren-node-shape="archimate_rounded_rectangle" x="532.0" y="391.0" width="160.0" height="80.0" rx="4.0" fill="#ecfdf3" stroke="#16a34a" stroke-width="1.5"/><g data-dediren-node-decorator="archimate_technology_service" data-dediren-icon-kind="service" data-dediren-icon-size="22"><rect x="664.0" y="402.6" width="22.0" height="11.0" rx="4.0" fill="#ecfdf3" stroke="#16a34a" stroke-width="1.5"/></g><text x="612.0" y="422.9" text-anchor="middle" dominant-baseline="middle" fill="#14532d" font-size="14.0"><tspan x="612.0" dy="0">Function App</tspan><tspan x="612.0" dy="16.0">managed identity</tspan></text></g><g data-dediren-node-id="cosmos-account"><rect data-dediren-node-shape="archimate_rectangle" x="1412.0" y="1207.0" width="160.0" height="80.0" rx="0" fill="#ecfdf3" stroke="#16a34a" stroke-width="1.5"/><g data-dediren-node-decorator="archimate_technology_node" data-dediren-icon-kind="node" data-dediren-icon-size="22"><rect x="1544.0" y="1220.0" width="18.0" height="12.8" rx="1.5" fill="#ecfdf3" stroke="#16a34a" stroke-width="1.5"/><path data-dediren-icon-part="node-3d-edges" d="M 1544.0 1220.0 L 1548.0 1216.0 L 1566.0 1216.0 L 1562.0 1220.0 M 1562.0 1220.0 L 1566.0 1216.0 M 1562.0 1232.7 L 1566.0 1228.8 M 1566.0 1216.0 L 1566.0 1228.8" fill="none" stroke="#16a34a" stroke-width="1.5" stroke-linejoin="round"/></g><text x="1492.0" y="1239.0" text-anchor="middle" dominant-baseline="middle" fill="#14532d" font-size="14.0"><tspan x="1492.0" dy="0">Cosmos DB</tspan><tspan x="1492.0" dy="16.0">account</tspan></text></g><g data-dediren-node-id="cosmos-database"><rect data-dediren-node-shape="archimate_rectangle" x="1764.0" y="1415.0" width="160.0" height="80.0" rx="0" fill="#f7fee7" stroke="#65a30d" stroke-width="1.5"/><g data-dediren-node-decorator="archimate_artifact" data-dediren-icon-kind="artifact" data-dediren-icon-size="22"><path data-dediren-icon-part="artifact-document" d="M 1898.2 1423.0 L 1908.8 1423.0 L 1914.9 1429.2 L 1914.9 1442.8 L 1898.2 1442.8 Z M 1908.8 1423.0 L 1908.8 1429.2 L 1914.9 1429.2" fill="#f7fee7" stroke="#65a30d" stroke-width="1.5"/></g><text x="1844.0" y="1447.0" text-anchor="middle" dominant-baseline="middle" fill="#365314" font-size="14.0"><tspan x="1844.0" dy="0">Cosmos SQL</tspan><tspan x="1844.0" dy="16.0">database</tspan></text></g><g data-dediren-node-id="cosmos-runs"><rect data-dediren-node-shape="archimate_rectangle" x="2148.0" y="1623.0" width="160.0" height="80.0" rx="0" fill="#f7fee7" stroke="#65a30d" stroke-width="1.5"/><g data-dediren-node-decorator="archimate_artifact" data-dediren-icon-kind="artifact" data-dediren-icon-size="22"><path data-dediren-icon-part="artifact-document" d="M 2282.2 1631.0 L 2292.8 1631.0 L 2298.9 1637.2 L 2298.9 1650.8 L 2282.2 1650.8 Z M 2292.8 1631.0 L 2292.8 1637.2 L 2298.9 1637.2" fill="#f7fee7" stroke="#65a30d" stroke-width="1.5"/></g><text x="2228.0" y="1663.0" text-anchor="middle" dominant-baseline="middle" fill="#365314" font-size="14.0">runs container</text></g><g data-dediren-node-id="cosmos-raiders"><rect data-dediren-node-shape="archimate_rectangle" x="2148.0" y="999.0" width="160.0" height="80.0" rx="0" fill="#f7fee7" stroke="#65a30d" stroke-width="1.5"/><g data-dediren-node-decorator="archimate_artifact" data-dediren-icon-kind="artifact" data-dediren-icon-size="22"><path data-dediren-icon-part="artifact-document" d="M 2282.2 1007.0 L 2292.8 1007.0 L 2298.9 1013.2 L 2298.9 1026.8 L 2282.2 1026.8 Z M 2292.8 1007.0 L 2292.8 1013.2 L 2298.9 1013.2" fill="#f7fee7" stroke="#65a30d" stroke-width="1.5"/></g><text x="2228.0" y="1031.0" text-anchor="middle" dominant-baseline="middle" fill="#365314" font-size="14.0"><tspan x="2228.0" dy="0">raiders</tspan><tspan x="2228.0" dy="16.0">container</tspan></text></g><g data-dediren-node-id="cosmos-guilds"><rect data-dediren-node-shape="archimate_rectangle" x="2148.0" y="1207.0" width="160.0" height="80.0" rx="0" fill="#f7fee7" stroke="#65a30d" stroke-width="1.5"/><g data-dediren-node-decorator="archimate_artifact" data-dediren-icon-kind="artifact" data-dediren-icon-size="22"><path data-dediren-icon-part="artifact-document" d="M 2282.2 1215.0 L 2292.8 1215.0 L 2298.9 1221.2 L 2298.9 1234.8 L 2282.2 1234.8 Z M 2292.8 1215.0 L 2292.8 1221.2 L 2298.9 1221.2" fill="#f7fee7" stroke="#65a30d" stroke-width="1.5"/></g><text x="2228.0" y="1247.0" text-anchor="middle" dominant-baseline="middle" fill="#365314" font-size="14.0">guilds container</text></g><g data-dediren-node-id="cosmos-idempotency"><rect data-dediren-node-shape="archimate_rectangle" x="2148.0" y="1415.0" width="160.0" height="80.0" rx="0" fill="#f7fee7" stroke="#65a30d" stroke-width="1.5"/><g data-dediren-node-decorator="archimate_artifact" data-dediren-icon-kind="artifact" data-dediren-icon-size="22"><path data-dediren-icon-part="artifact-document" d="M 2282.2 1423.0 L 2292.8 1423.0 L 2298.9 1429.2 L 2298.9 1442.8 L 2282.2 1442.8 Z M 2292.8 1423.0 L 2292.8 1429.2 L 2298.9 1429.2" fill="#f7fee7" stroke="#65a30d" stroke-width="1.5"/></g><text x="2228.0" y="1447.0" text-anchor="middle" dominant-baseline="middle" fill="#365314" font-size="14.0"><tspan x="2228.0" dy="0">idempotency</tspan><tspan x="2228.0" dy="16.0">container</tspan></text></g><g data-dediren-node-id="storage-account"><rect data-dediren-node-shape="archimate_rectangle" x="1412.0" y="391.0" width="160.0" height="80.0" rx="0" fill="#ecfdf3" stroke="#16a34a" stroke-width="1.5"/><g data-dediren-node-decorator="archimate_technology_node" data-dediren-icon-kind="node" data-dediren-icon-size="22"><rect x="1544.0" y="404.0" width="18.0" height="12.8" rx="1.5" fill="#ecfdf3" stroke="#16a34a" stroke-width="1.5"/><path data-dediren-icon-part="node-3d-edges" d="M 1544.0 404.0 L 1548.0 400.0 L 1566.0 400.0 L 1562.0 404.0 M 1562.0 404.0 L 1566.0 400.0 M 1562.0 416.7 L 1566.0 412.8 M 1566.0 400.0 L 1566.0 412.8" fill="none" stroke="#16a34a" stroke-width="1.5" stroke-linejoin="round"/></g><text x="1492.0" y="431.0" text-anchor="middle" dominant-baseline="middle" fill="#14532d" font-size="14.0">Storage account</text></g><g data-dediren-node-id="wow-reference-container"><rect data-dediren-node-shape="archimate_rectangle" x="1796.0" y="391.0" width="160.0" height="80.0" rx="0" fill="#f7fee7" stroke="#65a30d" stroke-width="1.5"/><g data-dediren-node-decorator="archimate_artifact" data-dediren-icon-kind="artifact" data-dediren-icon-size="22"><path data-dediren-icon-part="artifact-document" d="M 1930.2 399.0 L 1940.8 399.0 L 1946.9 405.2 L 1946.9 418.8 L 1930.2 418.8 Z M 1940.8 399.0 L 1940.8 405.2 L 1946.9 405.2" fill="#f7fee7" stroke="#65a30d" stroke-width="1.5"/></g><text x="1876.0" y="422.9" text-anchor="middle" dominant-baseline="middle" fill="#365314" font-size="14.0"><tspan x="1876.0" dy="0">wow reference</tspan><tspan x="1876.0" dy="16.0">blobs</tspan></text></g><g data-dediren-node-id="data-protection-container"><rect data-dediren-node-shape="archimate_rectangle" x="1796.0" y="599.0" width="160.0" height="80.0" rx="0" fill="#f7fee7" stroke="#65a30d" stroke-width="1.5"/><g data-dediren-node-decorator="archimate_artifact" data-dediren-icon-kind="artifact" data-dediren-icon-size="22"><path data-dediren-icon-part="artifact-document" d="M 1930.2 607.0 L 1940.8 607.0 L 1946.9 613.2 L 1946.9 626.8 L 1930.2 626.8 Z M 1940.8 607.0 L 1940.8 613.2 L 1946.9 613.2" fill="#f7fee7" stroke="#65a30d" stroke-width="1.5"/></g><text x="1876.0" y="631.0" text-anchor="middle" dominant-baseline="middle" fill="#365314" font-size="14.0"><tspan x="1876.0" dy="0">data-protection</tspan><tspan x="1876.0" dy="16.0">key ring blob</tspan></text></g><g data-dediren-node-id="deployment-container"><rect data-dediren-node-shape="archimate_rectangle" x="1796.0" y="183.0" width="160.0" height="80.0" rx="0" fill="#f7fee7" stroke="#65a30d" stroke-width="1.5"/><g data-dediren-node-decorator="archimate_artifact" data-dediren-icon-kind="artifact" data-dediren-icon-size="22"><path data-dediren-icon-part="artifact-document" d="M 1930.2 191.0 L 1940.8 191.0 L 1946.9 197.2 L 1946.9 210.8 L 1930.2 210.8 Z M 1940.8 191.0 L 1940.8 197.2 L 1946.9 197.2" fill="#f7fee7" stroke="#65a30d" stroke-width="1.5"/></g><text x="1876.0" y="214.9" text-anchor="middle" dominant-baseline="middle" fill="#365314" font-size="14.0"><tspan x="1876.0" dy="0">deployments blob</tspan><tspan x="1876.0" dy="16.0">container</tspan></text></g><g data-dediren-node-id="key-vault"><rect data-dediren-node-shape="archimate_rectangle" x="1412.0" y="2039.0" width="160.0" height="80.0" rx="0" fill="#ecfdf3" stroke="#16a34a" stroke-width="1.5"/><g data-dediren-node-decorator="archimate_technology_node" data-dediren-icon-kind="node" data-dediren-icon-size="22"><rect x="1544.0" y="2052.0" width="18.0" height="12.8" rx="1.5" fill="#ecfdf3" stroke="#16a34a" stroke-width="1.5"/><path data-dediren-icon-part="node-3d-edges" d="M 1544.0 2052.0 L 1548.0 2048.0 L 1566.0 2048.0 L 1562.0 2052.0 M 1562.0 2052.0 L 1566.0 2048.0 M 1562.0 2064.7 L 1566.0 2060.8 M 1566.0 2048.0 L 1566.0 2060.8" fill="none" stroke="#16a34a" stroke-width="1.5" stroke-linejoin="round"/></g><text x="1492.0" y="2079.0" text-anchor="middle" dominant-baseline="middle" fill="#14532d" font-size="14.0">Key Vault</text></g><g data-dediren-node-id="data-protection-key"><rect data-dediren-node-shape="archimate_rectangle" x="1796.0" y="2047.3" width="160.0" height="80.0" rx="0" fill="#f7fee7" stroke="#65a30d" stroke-width="1.5"/><g data-dediren-node-decorator="archimate_artifact" data-dediren-icon-kind="artifact" data-dediren-icon-size="22"><path data-dediren-icon-part="artifact-document" d="M 1930.2 2055.3 L 1940.8 2055.3 L 1946.9 2061.5 L 1946.9 2075.1 L 1930.2 2075.1 Z M 1940.8 2055.3 L 1940.8 2061.5 L 1946.9 2061.5" fill="#f7fee7" stroke="#65a30d" stroke-width="1.5"/></g><text x="1876.0" y="2079.3" text-anchor="middle" dominant-baseline="middle" fill="#365314" font-size="14.0"><tspan x="1876.0" dy="0">Data Protection</tspan><tspan x="1876.0" dy="16.0">key</tspan></text></g></g></svg>

