<svg xmlns="http://www.w3.org/2000/svg" role="img" width="2706" height="2320" viewBox="-20 -49 2706 2352" data-arch-a11y="root" data-arch-a11y-viewbox="-20.0 -17.0 2706.0 2320.0"><title>LFM - Data Plane and Secrets</title>
<desc>Which data stores and secrets does the Function App access, and how?</desc>
<text data-arch-a11y="visible-title" x="-12" y="-29" font-family="sans-serif" font-size="16" font-weight="bold">LFM - Data Plane and Secrets</text><rect x="-20.0" y="-17.0" width="2706.0" height="2320.0" fill="#ffffff"/><g font-family="Inter, &quot;Liberation Sans&quot;, &quot;Noto Sans&quot;, Arial, &quot;Helvetica Neue&quot;, &quot;Segoe UI&quot;, sans-serif" font-size="14"><g data-dediren-group-id="technology-data-plane-runtime-principal"><rect x="108.0" y="211.4" width="755.0" height="253.5" rx="8" fill="#f8fafc" stroke="#94a3b8" stroke-width="1"/><text x="116.0" y="227.4" fill="#334155" font-size="12">Runtime identity</text></g><g data-dediren-group-id="technology-data-plane-cosmos"><rect x="1247.0" y="954.0" width="1247.0" height="769.0" rx="8" fill="#f8fafc" stroke="#94a3b8" stroke-width="1"/><text x="1255.0" y="970.0" fill="#334155" font-size="12">Cosmos data store</text></g><g data-dediren-group-id="technology-data-plane-storage"><rect x="1247.0" y="79.0" width="923.0" height="779.0" rx="8" fill="#f8fafc" stroke="#94a3b8" stroke-width="1"/><text x="1255.0" y="95.0" fill="#334155" font-size="12">Blob storage</text></g><g data-dediren-group-id="technology-data-plane-secrets"><rect x="1247.0" y="1819.0" width="755.0" height="320.0" rx="8" fill="#f8fafc" stroke="#94a3b8" stroke-width="1"/><text x="1255.0" y="1835.0" fill="#334155" font-size="12">Secrets and cryptographic material</text></g><g data-dediren-edge-id="function-app-has-managed-identity"><path d="M 309.0 296.4 L 533.0 296.4" fill="none" stroke="#475569" stroke-width="1.25" stroke-linecap="round" stroke-linejoin="round"/><text x="421.0" y="314.4" text-anchor="middle" fill="none" font-size="15.4" font-weight="600" stroke="#ffffff" stroke-width="2">identity</text><text x="421.0" y="314.4" text-anchor="middle" fill="#374151" font-size="15.4" font-weight="600">identity</text></g><g data-dediren-edge-id="cosmos-serves-function-app"><marker id="marker-end-cosmos-serves-function-app" data-dediren-edge-marker-end="open_arrow" markerWidth="10" markerHeight="10" refX="5" refY="5" orient="auto"><path d="M 1 1 L 9 5 L 1 9" fill="none" stroke="#475569" stroke-width="1.5"/></marker><path d="M 1415.0 1136.2 L 1359.0 1136.2 Q 1351.0 1136.2 1351.0 1128.2 L 1351.0 1018.0 Q 1351.0 1010.0 1359.0 1010.0 L 1496.0 1010.0 L 1673.0 1010.0 L 1850.0 1010.0 L 2187.0 1010.0 L 2368.5 1010.0 L 2526.0 1010.0 L 2646.0 1010.0 Q 2654.0 1010.0 2654.0 1018.0 L 2654.0 2263.0 Q 2654.0 2271.0 2646.0 2271.0 L 1870.5 2271.0 L 967.0 2271.0 Q 959.0 2271.0 959.0 2263.0 L 959.0 2211.0 Q 959.0 2203.0 951.0 2203.0 L 485.5 2203.0 L 20.0 2203.0 Q 12.0 2203.0 12.0 2195.0 L 12.0 416.9 Q 12.0 408.9 20.0 408.9 L 76.0 408.9 L 228.5 408.9 L 365.0 408.9 Q 373.0 408.9 373.0 400.9 L 373.0 321.4 Q 373.0 313.4 365.0 313.4 L 309.0 313.4" fill="none" stroke="#475569" stroke-width="1.25" stroke-linecap="round" stroke-linejoin="round" marker-end="url(#marker-end-cosmos-serves-function-app)"/><text x="1369.0" y="1126.2" text-anchor="middle" fill="none" font-size="15.4" font-weight="600" stroke="#ffffff" stroke-width="2">data plane</text><text x="1369.0" y="1126.2" text-anchor="middle" fill="#374151" font-size="15.4" font-weight="600">data plane</text></g><g data-dediren-edge-id="storage-serves-function-app"><marker id="marker-end-storage-serves-function-app" data-dediren-edge-marker-end="open_arrow" markerWidth="10" markerHeight="10" refX="5" refY="5" orient="auto"><path d="M 1 1 L 9 5 L 1 9" fill="none" stroke="#475569" stroke-width="1.5"/></marker><path d="M 1415.0 253.2 L 1359.0 253.2 Q 1351.0 253.2 1351.0 245.2 L 1351.0 143.0 Q 1351.0 135.0 1359.0 135.0 L 1496.0 135.0 L 1833.0 135.0 L 2029.5 135.0 L 2202.0 135.0 L 2582.0 135.0 Q 2590.0 135.0 2590.0 127.0 L 2590.0 23.0 Q 2590.0 15.0 2582.0 15.0 L 1870.5 15.0 L 485.5 15.0 L 20.0 15.0 Q 12.0 15.0 12.0 23.0 L 12.0 400.9 Q 12.0 408.9 20.0 408.9 L 76.0 408.9 L 228.5 408.9 L 365.0 408.9 Q 373.0 408.9 373.0 400.9 L 373.0 321.4 Q 373.0 313.4 365.0 313.4 L 309.0 313.4" fill="none" stroke="#475569" stroke-width="1.25" stroke-linecap="round" stroke-linejoin="round" marker-end="url(#marker-end-storage-serves-function-app)"/><text x="1369.0" y="243.2" text-anchor="middle" fill="none" font-size="15.4" font-weight="600" stroke="#ffffff" stroke-width="2">blob data</text><text x="1369.0" y="243.2" text-anchor="middle" fill="#374151" font-size="15.4" font-weight="600">blob data</text></g><g data-dediren-edge-id="key-vault-serves-function-app"><marker id="marker-end-key-vault-serves-function-app" data-dediren-edge-marker-end="open_arrow" markerWidth="10" markerHeight="10" refX="5" refY="5" orient="auto"><path d="M 1 1 L 9 5 L 1 9" fill="none" stroke="#475569" stroke-width="1.5"/></marker><path d="M 1415.0 1970.5 L 1359.0 1970.5 Q 1351.0 1970.5 1351.0 1962.5 L 1351.0 1883.0 Q 1351.0 1875.0 1359.0 1875.0 L 1496.0 1875.0 L 1673.0 1875.0 L 1881.5 1875.0 L 2034.0 1875.0 L 2582.0 1875.0 Q 2590.0 1875.0 2590.0 1883.0 L 2590.0 2195.0 Q 2590.0 2203.0 2582.0 2203.0 L 1870.5 2203.0 L 485.5 2203.0 L 20.0 2203.0 Q 12.0 2203.0 12.0 2195.0 L 12.0 416.9 Q 12.0 408.9 20.0 408.9 L 76.0 408.9 L 228.5 408.9 L 365.0 408.9 Q 373.0 408.9 373.0 400.9 L 373.0 321.4 Q 373.0 313.4 365.0 313.4 L 309.0 313.4" fill="none" stroke="#475569" stroke-width="1.25" stroke-linecap="round" stroke-linejoin="round" marker-end="url(#marker-end-key-vault-serves-function-app)"/><text x="1383.0" y="1960.5" text-anchor="middle" fill="none" font-size="15.4" font-weight="600" stroke="#ffffff" stroke-width="2">secrets</text><text x="1383.0" y="1960.5" text-anchor="middle" fill="#374151" font-size="15.4" font-weight="600">secrets</text></g><g data-dediren-edge-id="cosmos-composes-database"><path d="M 1577.0 1144.7 L 1769.0 1144.7" fill="none" stroke="#475569" stroke-width="1.25" stroke-linecap="round" stroke-linejoin="round"/><text x="1673.0" y="1162.7" text-anchor="middle" fill="none" font-size="15.4" font-weight="600" stroke="#ffffff" stroke-width="2">database</text><text x="1673.0" y="1162.7" text-anchor="middle" fill="#374151" font-size="15.4" font-weight="600">database</text></g><g data-dediren-edge-id="database-composes-runs"><marker id="marker-start-database-composes-runs" data-dediren-edge-marker-start="filled_diamond" markerWidth="10" markerHeight="10" refX="5" refY="5" orient="auto"><path d="M 1 5 L 5 1 L 9 5 L 5 9 Z" fill="#475569" stroke="#475569" stroke-width="1"/></marker><path d="M 1931.0 1115.0 L 2283.0 1115.0" fill="none" stroke="#475569" stroke-width="1.25" stroke-linecap="round" stroke-linejoin="round" marker-start="url(#marker-start-database-composes-runs)"/><text x="2107.0" y="1105.0" text-anchor="middle" fill="none" font-size="15.4" font-weight="600" stroke="#ffffff" stroke-width="2">container</text><text x="2107.0" y="1105.0" text-anchor="middle" fill="#374151" font-size="15.4" font-weight="600">container</text></g><g data-dediren-edge-id="database-composes-raiders"><marker id="marker-start-database-composes-raiders" data-dediren-edge-marker-start="filled_diamond" markerWidth="10" markerHeight="10" refX="5" refY="5" orient="auto"><path d="M 1 5 L 5 1 L 9 5 L 5 9 Z" fill="#475569" stroke="#475569" stroke-width="1"/></marker><path d="M 1931.0 1134.8 L 2115.0 1134.8 Q 2123.0 1134.8 2123.0 1142.8 L 2123.0 1283.0 Q 2123.0 1291.0 2131.0 1291.0 L 2283.0 1291.0" fill="none" stroke="#475569" stroke-width="1.25" stroke-linecap="round" stroke-linejoin="round" marker-start="url(#marker-start-database-composes-raiders)"/><text x="2027.0" y="1068.8" text-anchor="middle" fill="none" font-size="15.4" font-weight="600" stroke="#ffffff" stroke-width="2">container</text><text x="2027.0" y="1068.8" text-anchor="middle" fill="#374151" font-size="15.4" font-weight="600">container</text></g><g data-dediren-edge-id="database-composes-guilds"><marker id="marker-start-database-composes-guilds" data-dediren-edge-marker-start="filled_diamond" markerWidth="10" markerHeight="10" refX="5" refY="5" orient="auto"><path d="M 1 5 L 5 1 L 9 5 L 5 9 Z" fill="#475569" stroke="#475569" stroke-width="1"/></marker><path d="M 1931.0 1154.6 L 2051.0 1154.6 Q 2059.0 1154.6 2059.0 1162.6 L 2059.0 1459.0 Q 2059.0 1467.0 2067.0 1467.0 L 2283.0 1467.0" fill="none" stroke="#475569" stroke-width="1.25" stroke-linecap="round" stroke-linejoin="round" marker-start="url(#marker-start-database-composes-guilds)"/><text x="1995.0" y="1172.6" text-anchor="middle" fill="none" font-size="15.4" font-weight="600" stroke="#ffffff" stroke-width="2">container</text><text x="1995.0" y="1172.6" text-anchor="middle" fill="#374151" font-size="15.4" font-weight="600">container</text></g><g data-dediren-edge-id="database-composes-idempotency"><marker id="marker-start-database-composes-idempotency" data-dediren-edge-marker-start="filled_diamond" markerWidth="10" markerHeight="10" refX="5" refY="5" orient="auto"><path d="M 1 5 L 5 1 L 9 5 L 5 9 Z" fill="#475569" stroke="#475569" stroke-width="1"/></marker><path d="M 1931.0 1174.4 L 1987.0 1174.4 Q 1995.0 1174.4 1995.0 1182.4 L 1995.0 1635.0 Q 1995.0 1643.0 2003.0 1643.0 L 2283.0 1643.0" fill="none" stroke="#475569" stroke-width="1.25" stroke-linecap="round" stroke-linejoin="round" marker-start="url(#marker-start-database-composes-idempotency)"/><text x="1977.0" y="1220.4" text-anchor="middle" fill="none" font-size="15.4" font-weight="600" stroke="#ffffff" stroke-width="2">container</text><text x="1977.0" y="1220.4" text-anchor="middle" fill="#374151" font-size="15.4" font-weight="600">container</text></g><g data-dediren-edge-id="storage-composes-wow-reference"><path d="M 1577.0 240.0 L 1929.0 240.0" fill="none" stroke="#475569" stroke-width="1.25" stroke-linecap="round" stroke-linejoin="round"/><text x="1753.0" y="230.0" text-anchor="middle" fill="none" font-size="15.4" font-weight="600" stroke="#ffffff" stroke-width="2">blob path</text><text x="1753.0" y="230.0" text-anchor="middle" fill="#374151" font-size="15.4" font-weight="600">blob path</text></g><g data-dediren-edge-id="storage-composes-wow-media-cache"><path d="M 1577.0 259.8 L 1761.0 259.8 Q 1769.0 259.8 1769.0 267.8 L 1769.0 408.0 Q 1769.0 416.0 1777.0 416.0 L 1929.0 416.0" fill="none" stroke="#475569" stroke-width="1.25" stroke-linecap="round" stroke-linejoin="round"/><text x="1673.0" y="193.8" text-anchor="middle" fill="none" font-size="15.4" font-weight="600" stroke="#ffffff" stroke-width="2">blob path</text><text x="1673.0" y="193.8" text-anchor="middle" fill="#374151" font-size="15.4" font-weight="600">blob path</text></g><g data-dediren-edge-id="storage-composes-data-protection"><path d="M 1577.0 279.6 L 1697.0 279.6 Q 1705.0 279.6 1705.0 287.6 L 1705.0 584.0 Q 1705.0 592.0 1713.0 592.0 L 1929.0 592.0" fill="none" stroke="#475569" stroke-width="1.25" stroke-linecap="round" stroke-linejoin="round"/><text x="1641.0" y="297.6" text-anchor="middle" fill="none" font-size="15.4" font-weight="600" stroke="#ffffff" stroke-width="2">blob container</text><text x="1641.0" y="297.6" text-anchor="middle" fill="#374151" font-size="15.4" font-weight="600">blob container</text></g><g data-dediren-edge-id="storage-composes-deployments"><path d="M 1577.0 299.4 L 1633.0 299.4 Q 1641.0 299.4 1641.0 307.4 L 1641.0 765.0 Q 1641.0 773.0 1649.0 773.0 L 1929.0 773.0" fill="none" stroke="#475569" stroke-width="1.25" stroke-linecap="round" stroke-linejoin="round"/><text x="1609.0" y="373.4" text-anchor="middle" fill="none" font-size="15.4" font-weight="600" stroke="#ffffff" stroke-width="2">blob container</text><text x="1609.0" y="373.4" text-anchor="middle" fill="#374151" font-size="15.4" font-weight="600">blob container</text></g><g data-dediren-edge-id="key-vault-composes-data-protection-key"><path d="M 1577.0 1979.0 L 1801.0 1979.0" fill="none" stroke="#475569" stroke-width="1.25" stroke-linecap="round" stroke-linejoin="round"/><text x="1689.0" y="1997.0" text-anchor="middle" fill="none" font-size="15.4" font-weight="600" stroke="#ffffff" stroke-width="2">key</text><text x="1689.0" y="1997.0" text-anchor="middle" fill="#374151" font-size="15.4" font-weight="600">key</text></g><g data-dediren-edge-id="managed-identity-accesses-key-vault"><path d="M 695.0 286.2 L 895.0 286.2 L 1015.0 286.2 Q 1023.0 286.2 1023.0 294.2 L 1023.0 1979.5 Q 1023.0 1987.5 1031.0 1987.5 L 1215.0 1987.5 L 1415.0 1987.5" fill="none" stroke="#475569" stroke-width="1.25" stroke-linecap="round" stroke-linejoin="round"/><text x="1315.0" y="2005.5" text-anchor="middle" fill="none" font-size="15.4" font-weight="600" stroke="#ffffff" stroke-width="2">Secrets User</text><text x="1315.0" y="2005.5" text-anchor="middle" fill="#374151" font-size="15.4" font-weight="600">Secrets User</text></g><g data-dediren-edge-id="managed-identity-accesses-cosmos"><path d="M 695.0 286.2 L 895.0 286.2 L 1015.0 286.2 Q 1023.0 286.2 1023.0 294.2 L 1023.0 1145.2 Q 1023.0 1153.2 1031.0 1153.2 L 1215.0 1153.2 L 1415.0 1153.2" fill="none" stroke="#475569" stroke-width="1.25" stroke-linecap="round" stroke-linejoin="round"/><text x="1397.0" y="1227.2" text-anchor="middle" fill="none" font-size="15.4" font-weight="600" stroke="#ffffff" stroke-width="2">Data Contributor</text><text x="1397.0" y="1227.2" text-anchor="middle" fill="#374151" font-size="15.4" font-weight="600">Data Contributor</text></g><g data-dediren-edge-id="managed-identity-accesses-storage"><path d="M 695.0 286.2 L 895.0 286.2 L 1215.0 286.2 L 1415.0 286.2" fill="none" stroke="#475569" stroke-width="1.25" stroke-linecap="round" stroke-linejoin="round"/><text x="1397.0" y="360.2" text-anchor="middle" fill="none" font-size="15.4" font-weight="600" stroke="#ffffff" stroke-width="2">Blob/Queue/Table roles</text><text x="1397.0" y="360.2" text-anchor="middle" fill="#374151" font-size="15.4" font-weight="600">Blob/Queue/Table roles</text></g><g data-dediren-edge-id="managed-identity-accesses-data-protection-key"><marker id="marker-end-managed-identity-accesses-data-protection-key" data-dediren-edge-marker-end="open_arrow" markerWidth="10" markerHeight="10" refX="5" refY="5" orient="auto"><path d="M 1 1 L 9 5 L 1 9" fill="none" stroke="#475569" stroke-width="1.5"/></marker><path d="M 695.0 306.5 L 751.0 306.5 Q 759.0 306.5 759.0 314.5 L 759.0 326.2 Q 759.0 334.2 767.0 334.2 L 895.0 334.2 L 951.0 334.2 Q 959.0 334.2 959.0 342.2 L 959.0 2047.5 Q 959.0 2055.5 967.0 2055.5 L 1143.0 2055.5 Q 1151.0 2055.5 1151.0 2063.5 L 1151.0 2075.0 Q 1151.0 2083.0 1159.0 2083.0 L 1215.0 2083.0 L 1496.0 2083.0 L 1673.0 2083.0 L 1729.0 2083.0 Q 1737.0 2083.0 1737.0 2075.0 L 1737.0 2004.0 Q 1737.0 1996.0 1745.0 1996.0 L 1801.0 1996.0" fill="none" stroke="#475569" stroke-width="1.25" stroke-linecap="round" stroke-linejoin="round" stroke-dasharray="8 5" marker-end="url(#marker-end-managed-identity-accesses-data-protection-key)"/><text x="727.0" y="380.5" text-anchor="middle" fill="none" font-size="15.4" font-weight="600" stroke="#ffffff" stroke-width="2">Crypto User</text><text x="727.0" y="380.5" text-anchor="middle" fill="#374151" font-size="15.4" font-weight="600">Crypto User</text></g><g data-dediren-node-id="function-app"><rect data-dediren-node-shape="archimate_rectangle" x="148.0" y="264.9" width="160.0" height="80.0" rx="0" fill="#d5e8d4" stroke="#4d7c0f" stroke-width="1.25"/><g data-dediren-node-decorator="archimate_technology_node" data-dediren-icon-kind="node" data-dediren-icon-size="22"><rect x="280.0" y="277.8" width="18.0" height="12.8" rx="1.5" fill="#d5e8d4" stroke="#4d7c0f" stroke-width="1.25"/><path data-dediren-icon-part="node-3d-edges" d="M 280.0 277.8 L 284.0 273.9 L 302.0 273.9 L 298.0 277.8 M 298.0 277.8 L 302.0 273.9 M 298.0 290.6 L 302.0 286.6 M 302.0 273.9 L 302.0 286.6" fill="none" stroke="#4d7c0f" stroke-width="1.25" stroke-linejoin="round"/></g><text x="228.0" y="312.3" text-anchor="middle" dominant-baseline="middle" fill="#365314" font-size="14.0"><tspan x="228.0" dy="0" textLength="36.5" lengthAdjust="spacing">Azure</tspan><tspan x="228.0" dy="16.0" textLength="82.4" lengthAdjust="spacing">Function App</tspan></text></g><g data-dediren-node-id="managed-identity"><rect data-dediren-node-shape="archimate_rounded_rectangle" x="534.0" y="251.4" width="160.0" height="90.0" rx="6" fill="#d5e8d4" stroke="#4d7c0f" stroke-width="1.25"/><g data-dediren-node-decorator="archimate_technology_service" data-dediren-icon-kind="service" data-dediren-icon-size="22"><rect x="666.0" y="263.0" width="22.0" height="11.0" rx="4.0" fill="#d5e8d4" stroke="#4d7c0f" stroke-width="1.25"/></g><text x="614.0" y="295.8" text-anchor="middle" dominant-baseline="middle" fill="#365314" font-size="14.0"><tspan x="614.0" dy="0" textLength="82.4" lengthAdjust="spacing">Function App</tspan><tspan x="614.0" dy="16.0" textLength="58.3" lengthAdjust="spacing">managed</tspan><tspan x="614.0" dy="16.0" textLength="44.3" lengthAdjust="spacing">identity</tspan></text></g><g data-dediren-node-id="cosmos-account"><rect data-dediren-node-shape="archimate_rectangle" x="1416.0" y="1104.7" width="160.0" height="80.0" rx="0" fill="#d5e8d4" stroke="#4d7c0f" stroke-width="1.25"/><g data-dediren-node-decorator="archimate_technology_node" data-dediren-icon-kind="node" data-dediren-icon-size="22"><rect x="1548.0" y="1117.7" width="18.0" height="12.8" rx="1.5" fill="#d5e8d4" stroke="#4d7c0f" stroke-width="1.25"/><path data-dediren-icon-part="node-3d-edges" d="M 1548.0 1117.7 L 1552.0 1113.7 L 1570.0 1113.7 L 1566.0 1117.7 M 1566.0 1117.7 L 1570.0 1113.7 M 1566.0 1130.4 L 1570.0 1126.5 M 1570.0 1113.7 L 1570.0 1126.5" fill="none" stroke="#4d7c0f" stroke-width="1.25" stroke-linejoin="round"/></g><text x="1496.0" y="1152.2" text-anchor="middle" dominant-baseline="middle" fill="#365314" font-size="14.0"><tspan x="1496.0" dy="0" textLength="74.6" lengthAdjust="spacing">Cosmos DB</tspan><tspan x="1496.0" dy="16.0" textLength="49.0" lengthAdjust="spacing">account</tspan></text></g><g data-dediren-node-id="cosmos-database"><rect data-dediren-node-shape="archimate_rectangle" x="1770.0" y="1080.7" width="160.0" height="128.0" rx="0" fill="#d5e8d4" stroke="#4d7c0f" stroke-width="1.25"/><g data-dediren-node-decorator="archimate_artifact" data-dediren-icon-kind="artifact" data-dediren-icon-size="22"><path data-dediren-icon-part="artifact-document" d="M 1904.2 1088.7 L 1914.8 1088.7 L 1920.9 1094.9 L 1920.9 1108.5 L 1904.2 1108.5 Z M 1914.8 1088.7 L 1914.8 1094.9 L 1920.9 1094.9" fill="#d5e8d4" stroke="#4d7c0f" stroke-width="1.25"/></g><text x="1850.0" y="1152.2" text-anchor="middle" dominant-baseline="middle" fill="#365314" font-size="14.0"><tspan x="1850.0" dy="0" textLength="83.2" lengthAdjust="spacing">Cosmos SQL</tspan><tspan x="1850.0" dy="16.0" textLength="57.5" lengthAdjust="spacing">database</tspan></text></g><g data-dediren-node-id="cosmos-runs"><rect data-dediren-node-shape="archimate_rectangle" x="2284.0" y="1075.0" width="160.0" height="80.0" rx="0" fill="#d5e8d4" stroke="#4d7c0f" stroke-width="1.25"/><g data-dediren-node-decorator="archimate_artifact" data-dediren-icon-kind="artifact" data-dediren-icon-size="22"><path data-dediren-icon-part="artifact-document" d="M 2418.2 1083.0 L 2428.8 1083.0 L 2434.9 1089.2 L 2434.9 1102.8 L 2418.2 1102.8 Z M 2428.8 1083.0 L 2428.8 1089.2 L 2434.9 1089.2" fill="#d5e8d4" stroke="#4d7c0f" stroke-width="1.25"/></g><text x="2364.0" y="1130.5" text-anchor="middle" dominant-baseline="middle" fill="#365314" font-size="14.0" textLength="88.7" lengthAdjust="spacing">runs container</text></g><g data-dediren-node-id="cosmos-raiders"><rect data-dediren-node-shape="archimate_rectangle" x="2284.0" y="1251.0" width="160.0" height="80.0" rx="0" fill="#d5e8d4" stroke="#4d7c0f" stroke-width="1.25"/><g data-dediren-node-decorator="archimate_artifact" data-dediren-icon-kind="artifact" data-dediren-icon-size="22"><path data-dediren-icon-part="artifact-document" d="M 2418.2 1259.0 L 2428.8 1259.0 L 2434.9 1265.2 L 2434.9 1278.8 L 2418.2 1278.8 Z M 2428.8 1259.0 L 2428.8 1265.2 L 2434.9 1265.2" fill="#d5e8d4" stroke="#4d7c0f" stroke-width="1.25"/></g><text x="2364.0" y="1298.5" text-anchor="middle" dominant-baseline="middle" fill="#365314" font-size="14.0"><tspan x="2364.0" dy="0" textLength="42.7" lengthAdjust="spacing">raiders</tspan><tspan x="2364.0" dy="16.0" textLength="57.5" lengthAdjust="spacing">container</tspan></text></g><g data-dediren-node-id="cosmos-guilds"><rect data-dediren-node-shape="archimate_rectangle" x="2284.0" y="1427.0" width="160.0" height="80.0" rx="0" fill="#d5e8d4" stroke="#4d7c0f" stroke-width="1.25"/><g data-dediren-node-decorator="archimate_artifact" data-dediren-icon-kind="artifact" data-dediren-icon-size="22"><path data-dediren-icon-part="artifact-document" d="M 2418.2 1435.0 L 2428.8 1435.0 L 2434.9 1441.2 L 2434.9 1454.8 L 2418.2 1454.8 Z M 2428.8 1435.0 L 2428.8 1441.2 L 2434.9 1441.2" fill="#d5e8d4" stroke="#4d7c0f" stroke-width="1.25"/></g><text x="2364.0" y="1474.5" text-anchor="middle" dominant-baseline="middle" fill="#365314" font-size="14.0"><tspan x="2364.0" dy="0" textLength="36.5" lengthAdjust="spacing">guilds</tspan><tspan x="2364.0" dy="16.0" textLength="57.5" lengthAdjust="spacing">container</tspan></text></g><g data-dediren-node-id="cosmos-idempotency"><rect data-dediren-node-shape="archimate_rectangle" x="2284.0" y="1603.0" width="170.0" height="80.0" rx="0" fill="#d5e8d4" stroke="#4d7c0f" stroke-width="1.25"/><g data-dediren-node-decorator="archimate_artifact" data-dediren-icon-kind="artifact" data-dediren-icon-size="22"><path data-dediren-icon-part="artifact-document" d="M 2428.2 1611.0 L 2438.8 1611.0 L 2444.9 1617.2 L 2444.9 1630.8 L 2428.2 1630.8 Z M 2438.8 1611.0 L 2438.8 1617.2 L 2444.9 1617.2" fill="#d5e8d4" stroke="#4d7c0f" stroke-width="1.25"/></g><text x="2369.0" y="1650.5" text-anchor="middle" dominant-baseline="middle" fill="#365314" font-size="14.0"><tspan x="2369.0" dy="0" textLength="79.3" lengthAdjust="spacing">idempotency</tspan><tspan x="2369.0" dy="16.0" textLength="57.5" lengthAdjust="spacing">container</tspan></text></g><g data-dediren-node-id="storage-account"><rect data-dediren-node-shape="archimate_rectangle" x="1416.0" y="205.7" width="160.0" height="128.0" rx="0" fill="#d5e8d4" stroke="#4d7c0f" stroke-width="1.25"/><g data-dediren-node-decorator="archimate_technology_node" data-dediren-icon-kind="node" data-dediren-icon-size="22"><rect x="1548.0" y="218.7" width="18.0" height="12.8" rx="1.5" fill="#d5e8d4" stroke="#4d7c0f" stroke-width="1.25"/><path data-dediren-icon-part="node-3d-edges" d="M 1548.0 218.7 L 1552.0 214.7 L 1570.0 214.7 L 1566.0 218.7 M 1566.0 218.7 L 1570.0 214.7 M 1566.0 231.4 L 1570.0 227.5 M 1570.0 214.7 L 1570.0 227.5" fill="none" stroke="#4d7c0f" stroke-width="1.25" stroke-linejoin="round"/></g><text x="1496.0" y="277.2" text-anchor="middle" dominant-baseline="middle" fill="#365314" font-size="14.0"><tspan x="1496.0" dy="0" textLength="49.0" lengthAdjust="spacing">Storage</tspan><tspan x="1496.0" dy="16.0" textLength="49.0" lengthAdjust="spacing">account</tspan></text></g><g data-dediren-node-id="wow-reference-container"><rect data-dediren-node-shape="archimate_rectangle" x="1930.0" y="200.0" width="160.0" height="80.0" rx="0" fill="#d5e8d4" stroke="#4d7c0f" stroke-width="1.25"/><g data-dediren-node-decorator="archimate_artifact" data-dediren-icon-kind="artifact" data-dediren-icon-size="22"><path data-dediren-icon-part="artifact-document" d="M 2064.2 208.0 L 2074.8 208.0 L 2080.9 214.2 L 2080.9 227.8 L 2064.2 227.8 Z M 2074.8 208.0 L 2074.8 214.2 L 2080.9 214.2" fill="#d5e8d4" stroke="#4d7c0f" stroke-width="1.25"/></g><text x="2010.0" y="247.5" text-anchor="middle" dominant-baseline="middle" fill="#365314" font-size="14.0"><tspan x="2010.0" dy="0" textLength="91.0" lengthAdjust="spacing">wow reference</tspan><tspan x="2010.0" dy="16.0" textLength="33.4" lengthAdjust="spacing">blobs</tspan></text></g><g data-dediren-node-id="wow-media-cache-blobs"><rect data-dediren-node-shape="archimate_rectangle" x="1930.0" y="376.0" width="170.0" height="80.0" rx="0" fill="#d5e8d4" stroke="#4d7c0f" stroke-width="1.25"/><g data-dediren-node-decorator="archimate_artifact" data-dediren-icon-kind="artifact" data-dediren-icon-size="22"><path data-dediren-icon-part="artifact-document" d="M 2074.2 384.0 L 2084.8 384.0 L 2090.9 390.2 L 2090.9 403.8 L 2074.2 403.8 Z M 2084.8 384.0 L 2084.8 390.2 L 2090.9 390.2" fill="#d5e8d4" stroke="#4d7c0f" stroke-width="1.25"/></g><text x="2015.0" y="417.8" text-anchor="middle" dominant-baseline="middle" fill="#365314" font-size="11.8"><tspan x="2015.0" dy="0" textLength="23.7" lengthAdjust="spacing">wow</tspan><tspan x="2015.0" dy="13.6" textLength="68.0" lengthAdjust="spacing">media-cache</tspan><tspan x="2015.0" dy="13.6" textLength="28.4" lengthAdjust="spacing">blobs</tspan></text></g><g data-dediren-node-id="data-protection-container"><rect data-dediren-node-shape="archimate_rectangle" x="1930.0" y="552.0" width="200.0" height="80.0" rx="0" fill="#d5e8d4" stroke="#4d7c0f" stroke-width="1.25"/><g data-dediren-node-decorator="archimate_artifact" data-dediren-icon-kind="artifact" data-dediren-icon-size="22"><path data-dediren-icon-part="artifact-document" d="M 2104.2 560.0 L 2114.8 560.0 L 2120.9 566.2 L 2120.9 579.8 L 2104.2 579.8 Z M 2114.8 560.0 L 2114.8 566.2 L 2120.9 566.2" fill="#d5e8d4" stroke="#4d7c0f" stroke-width="1.25"/></g><text x="2030.0" y="599.5" text-anchor="middle" dominant-baseline="middle" fill="#365314" font-size="14.0"><tspan x="2030.0" dy="0" textLength="119.0" lengthAdjust="spacing">data-protection key</tspan><tspan x="2030.0" dy="16.0" textLength="53.6" lengthAdjust="spacing">ring blob</tspan></text></g><g data-dediren-node-id="deployment-container"><rect data-dediren-node-shape="archimate_rectangle" x="1930.0" y="728.0" width="170.0" height="90.0" rx="0" fill="#d5e8d4" stroke="#4d7c0f" stroke-width="1.25"/><g data-dediren-node-decorator="archimate_artifact" data-dediren-icon-kind="artifact" data-dediren-icon-size="22"><path data-dediren-icon-part="artifact-document" d="M 2074.2 736.0 L 2084.8 736.0 L 2090.9 742.2 L 2090.9 755.8 L 2074.2 755.8 Z M 2084.8 736.0 L 2084.8 742.2 L 2090.9 742.2" fill="#d5e8d4" stroke="#4d7c0f" stroke-width="1.25"/></g><text x="2015.0" y="780.5" text-anchor="middle" dominant-baseline="middle" fill="#365314" font-size="14.0"><tspan x="2015.0" dy="0" textLength="79.3" lengthAdjust="spacing">deployments</tspan><tspan x="2015.0" dy="16.0" textLength="87.9" lengthAdjust="spacing">blob container</tspan></text></g><g data-dediren-node-id="key-vault"><rect data-dediren-node-shape="archimate_rectangle" x="1416.0" y="1939.0" width="160.0" height="80.0" rx="0" fill="#d5e8d4" stroke="#4d7c0f" stroke-width="1.25"/><g data-dediren-node-decorator="archimate_technology_node" data-dediren-icon-kind="node" data-dediren-icon-size="22"><rect x="1548.0" y="1952.0" width="18.0" height="12.8" rx="1.5" fill="#d5e8d4" stroke="#4d7c0f" stroke-width="1.25"/><path data-dediren-icon-part="node-3d-edges" d="M 1548.0 1952.0 L 1552.0 1948.0 L 1570.0 1948.0 L 1566.0 1952.0 M 1566.0 1952.0 L 1570.0 1948.0 M 1566.0 1964.7 L 1570.0 1960.8 M 1570.0 1948.0 L 1570.0 1960.8" fill="none" stroke="#4d7c0f" stroke-width="1.25" stroke-linejoin="round"/></g><text x="1496.0" y="1994.5" text-anchor="middle" dominant-baseline="middle" fill="#365314" font-size="14.0" textLength="59.9" lengthAdjust="spacing">Key Vault</text></g><g data-dediren-node-id="data-protection-key"><rect data-dediren-node-shape="archimate_rectangle" x="1802.0" y="1947.5" width="160.0" height="80.0" rx="0" fill="#d5e8d4" stroke="#4d7c0f" stroke-width="1.25"/><g data-dediren-node-decorator="archimate_artifact" data-dediren-icon-kind="artifact" data-dediren-icon-size="22"><path data-dediren-icon-part="artifact-document" d="M 1936.2 1955.5 L 1946.8 1955.5 L 1952.9 1961.7 L 1952.9 1975.3 L 1936.2 1975.3 Z M 1946.8 1955.5 L 1946.8 1961.7 L 1952.9 1961.7" fill="#d5e8d4" stroke="#4d7c0f" stroke-width="1.25"/></g><text x="1882.0" y="1995.0" text-anchor="middle" dominant-baseline="middle" fill="#365314" font-size="14.0"><tspan x="1882.0" dy="0" textLength="29.5" lengthAdjust="spacing">Data</tspan><tspan x="1882.0" dy="16.0" textLength="88.7" lengthAdjust="spacing">Protection key</tspan></text></g></g></svg>

