<svg xmlns="http://www.w3.org/2000/svg" role="img" width="1933" height="931" viewBox="-20 -52 1933 963" data-arch-a11y="root" data-arch-a11y-viewbox="-20.0 -20.0 1933.0 931.0"><title>LFM - Observability and Alerting</title>
<desc>Which observability and alerting technology backs the platform?</desc>
<text data-arch-a11y="visible-title" x="-12" y="-32" font-family="sans-serif" font-size="16" font-weight="bold">LFM - Observability and Alerting</text><rect x="-20.0" y="-20.0" width="1933.0" height="931.0" fill="#ffffff"/><g font-family="Inter, &quot;Liberation Sans&quot;, &quot;Noto Sans&quot;, Arial, &quot;Helvetica Neue&quot;, &quot;Segoe UI&quot;, sans-serif" font-size="14"><g data-dediren-group-id="technology-observability-telemetry"><rect x="12.0" y="12.0" width="987.0" height="832.0" rx="8" fill="#f8fafc" stroke="#94a3b8" stroke-width="1"/><text x="20.0" y="28.0" fill="#334155" font-size="12">Telemetry pipeline</text></g><g data-dediren-group-id="technology-observability-cosmos-alerting"><rect x="1255.0" y="638.0" width="626.0" height="241.0" rx="8" fill="#f8fafc" stroke="#94a3b8" stroke-width="1"/><text x="1263.0" y="654.0" fill="#334155" font-size="12">Cosmos alerting</text></g><g data-dediren-edge-id="app-insights-serves-function-app"><marker id="marker-end-app-insights-serves-function-app" data-dediren-edge-marker-end="open_arrow" markerWidth="10" markerHeight="10" refX="5" refY="5" orient="auto"><path d="M 1 1 L 9 5 L 1 9" fill="none" stroke="#475569" stroke-width="1.5"/></marker><path d="M 522.0 421.0 L 522.0 477.0 Q 522.0 485.0 530.0 485.0 L 871.0 485.0 Q 879.0 485.0 879.0 493.0 L 879.0 549.0" fill="none" stroke="#475569" stroke-width="1.25" stroke-linecap="round" stroke-linejoin="round" marker-end="url(#marker-end-app-insights-serves-function-app)"/><text x="700.5" y="503.0" text-anchor="middle" fill="none" font-size="15.4" font-weight="600" stroke="#ffffff" stroke-width="2">telemetry</text><text x="700.5" y="503.0" text-anchor="middle" fill="#374151" font-size="15.4" font-weight="600">telemetry</text></g><g data-dediren-edge-id="log-analytics-aggregates-app-insights"><marker id="marker-start-log-analytics-aggregates-app-insights" data-dediren-edge-marker-start="hollow_diamond" markerWidth="10" markerHeight="10" refX="5" refY="5" orient="auto"><path d="M 1 5 L 5 1 L 9 5 L 5 9 Z" fill="#ffffff" stroke="#475569" stroke-width="1"/></marker><path d="M 132.0 740.0 L 132.0 796.0 Q 132.0 804.0 140.0 804.0 L 269.0 804.0 Q 277.0 804.0 277.0 796.0 L 277.0 283.0 Q 277.0 275.0 285.0 275.0 L 490.8 275.0 Q 498.8 275.0 498.8 283.0 L 498.8 339.0" fill="none" stroke="#475569" stroke-width="1.25" stroke-linecap="round" stroke-linejoin="round" marker-start="url(#marker-start-log-analytics-aggregates-app-insights)"/><text x="204.5" y="794.0" text-anchor="middle" fill="none" font-size="15.4" font-weight="600" stroke="#ffffff" stroke-width="2">workspace</text><text x="204.5" y="794.0" text-anchor="middle" fill="#374151" font-size="15.4" font-weight="600">workspace</text></g><g data-dediren-edge-id="log-analytics-aggregates-diagnostics"><marker id="marker-start-log-analytics-aggregates-diagnostics" data-dediren-edge-marker-start="hollow_diamond" markerWidth="10" markerHeight="10" refX="5" refY="5" orient="auto"><path d="M 1 5 L 5 1 L 9 5 L 5 9 Z" fill="#ffffff" stroke="#475569" stroke-width="1"/></marker><g data-dediren-line-jump-masks="log-analytics-aggregates-diagnostics"><path d="M 271.0 694.0 Q 277.0 688.0 283.0 694.0" fill="none" stroke="#f8fafc" stroke-width="6"/></g><path d="M 213.0 694.0 L 271.0 694.0 Q 277.0 688.0 283.0 694.0 L 341.0 694.0 L 522.0 694.0 L 703.0 694.0 L 879.0 694.0 L 1031.0 694.0 L 1223.0 694.0 L 1375.5 694.0 L 1552.0 694.0 L 1608.0 694.0 Q 1616.0 694.0 1616.0 702.0 L 1616.0 774.0 Q 1616.0 782.0 1624.0 782.0 L 1680.0 782.0" fill="none" stroke="#475569" stroke-width="1.25" stroke-linecap="round" stroke-linejoin="round" marker-start="url(#marker-start-log-analytics-aggregates-diagnostics)"/><text x="1610.0" y="738.0" text-anchor="end" fill="none" font-size="15.4" font-weight="600" stroke="#ffffff" stroke-width="2">diagnostics</text><text x="1610.0" y="738.0" text-anchor="end" fill="#374151" font-size="15.4" font-weight="600">diagnostics</text></g><g data-dediren-edge-id="managed-identity-accesses-app-insights"><path d="M 132.5 143.0 L 132.5 199.0 Q 132.5 207.0 140.5 207.0 L 537.2 207.0 Q 545.2 207.0 545.2 215.0 L 545.2 339.0" fill="none" stroke="#475569" stroke-width="1.25" stroke-linecap="round" stroke-linejoin="round"/><text x="338.8" y="225.0" text-anchor="middle" fill="none" font-size="15.4" font-weight="600" stroke="#ffffff" stroke-width="2">Metrics Publisher</text><text x="338.8" y="225.0" text-anchor="middle" fill="#374151" font-size="15.4" font-weight="600">Metrics Publisher</text></g><g data-dediren-edge-id="cosmos-throttle-alert-monitors-cosmos"><path d="M 1456.0 799.0 L 1680.0 799.0" fill="none" stroke="#475569" stroke-width="1.25" stroke-linecap="round" stroke-linejoin="round"/><text x="1568.0" y="817.0" text-anchor="middle" fill="none" font-size="15.4" font-weight="600" stroke="#ffffff" stroke-width="2">monitors 429s</text><text x="1568.0" y="817.0" text-anchor="middle" fill="#374151" font-size="15.4" font-weight="600">monitors 429s</text></g><g data-dediren-node-id="function-app"><rect data-dediren-node-shape="archimate_rectangle" x="799.0" y="550.0" width="160.0" height="80.0" rx="0" fill="#d5e8d4" stroke="#4d7c0f" stroke-width="1.25"/><g data-dediren-node-decorator="archimate_technology_node" data-dediren-icon-kind="node" data-dediren-icon-size="22"><rect x="931.0" y="563.0" width="18.0" height="12.8" rx="1.5" fill="#d5e8d4" stroke="#4d7c0f" stroke-width="1.25"/><path data-dediren-icon-part="node-3d-edges" d="M 931.0 563.0 L 935.0 559.0 L 953.0 559.0 L 949.0 563.0 M 949.0 563.0 L 953.0 559.0 M 949.0 575.7 L 953.0 571.8 M 953.0 559.0 L 953.0 571.8" fill="none" stroke="#4d7c0f" stroke-width="1.25" stroke-linejoin="round"/></g><text x="879.0" y="597.5" text-anchor="middle" dominant-baseline="middle" fill="#365314" font-size="14.0"><tspan x="879.0" dy="0" textLength="36.5" lengthAdjust="spacing">Azure</tspan><tspan x="879.0" dy="16.0" textLength="82.4" lengthAdjust="spacing">Function App</tspan></text></g><g data-dediren-node-id="managed-identity"><rect data-dediren-node-shape="archimate_rounded_rectangle" x="52.5" y="52.0" width="160.0" height="90.0" rx="6" fill="#d5e8d4" stroke="#4d7c0f" stroke-width="1.25"/><g data-dediren-node-decorator="archimate_technology_service" data-dediren-icon-kind="service" data-dediren-icon-size="22"><rect x="184.5" y="63.6" width="22.0" height="11.0" rx="4.0" fill="#d5e8d4" stroke="#4d7c0f" stroke-width="1.25"/></g><text x="132.5" y="96.4" text-anchor="middle" dominant-baseline="middle" fill="#365314" font-size="14.0"><tspan x="132.5" dy="0" textLength="82.4" lengthAdjust="spacing">Function App</tspan><tspan x="132.5" dy="16.0" textLength="58.3" lengthAdjust="spacing">managed</tspan><tspan x="132.5" dy="16.0" textLength="44.3" lengthAdjust="spacing">identity</tspan></text></g><g data-dediren-node-id="application-insights"><rect data-dediren-node-shape="archimate_rectangle" x="437.0" y="340.0" width="170.0" height="80.0" rx="0" fill="#d5e8d4" stroke="#4d7c0f" stroke-width="1.25"/><g data-dediren-node-decorator="archimate_technology_node" data-dediren-icon-kind="node" data-dediren-icon-size="22"><rect x="579.0" y="353.0" width="18.0" height="12.8" rx="1.5" fill="#d5e8d4" stroke="#4d7c0f" stroke-width="1.25"/><path data-dediren-icon-part="node-3d-edges" d="M 579.0 353.0 L 583.0 349.0 L 601.0 349.0 L 597.0 353.0 M 597.0 353.0 L 601.0 349.0 M 597.0 365.7 L 601.0 361.8 M 601.0 349.0 L 601.0 361.8" fill="none" stroke="#4d7c0f" stroke-width="1.25" stroke-linejoin="round"/></g><text x="522.0" y="387.5" text-anchor="middle" dominant-baseline="middle" fill="#365314" font-size="14.0"><tspan x="522.0" dy="0" textLength="68.4" lengthAdjust="spacing">Application</tspan><tspan x="522.0" dy="16.0" textLength="48.2" lengthAdjust="spacing">Insights</tspan></text></g><g data-dediren-node-id="log-analytics"><rect data-dediren-node-shape="archimate_rectangle" x="52.0" y="649.0" width="160.0" height="90.0" rx="0" fill="#d5e8d4" stroke="#4d7c0f" stroke-width="1.25"/><g data-dediren-node-decorator="archimate_technology_node" data-dediren-icon-kind="node" data-dediren-icon-size="22"><rect x="184.0" y="662.0" width="18.0" height="12.8" rx="1.5" fill="#d5e8d4" stroke="#4d7c0f" stroke-width="1.25"/><path data-dediren-icon-part="node-3d-edges" d="M 184.0 662.0 L 188.0 658.0 L 206.0 658.0 L 202.0 662.0 M 202.0 662.0 L 206.0 658.0 M 202.0 674.7 L 206.0 670.8 M 206.0 658.0 L 206.0 670.8" fill="none" stroke="#4d7c0f" stroke-width="1.25" stroke-linejoin="round"/></g><text x="132.0" y="701.5" text-anchor="middle" dominant-baseline="middle" fill="#365314" font-size="14.0"><tspan x="132.0" dy="0" textLength="83.2" lengthAdjust="spacing">Log Analytics</tspan><tspan x="132.0" dy="16.0" textLength="66.9" lengthAdjust="spacing">workspace</tspan></text></g><g data-dediren-node-id="cosmos-account"><rect data-dediren-node-shape="archimate_rectangle" x="1681.0" y="750.5" width="160.0" height="80.0" rx="0" fill="#d5e8d4" stroke="#4d7c0f" stroke-width="1.25"/><g data-dediren-node-decorator="archimate_technology_node" data-dediren-icon-kind="node" data-dediren-icon-size="22"><rect x="1813.0" y="763.5" width="18.0" height="12.8" rx="1.5" fill="#d5e8d4" stroke="#4d7c0f" stroke-width="1.25"/><path data-dediren-icon-part="node-3d-edges" d="M 1813.0 763.5 L 1817.0 759.5 L 1835.0 759.5 L 1831.0 763.5 M 1831.0 763.5 L 1835.0 759.5 M 1831.0 776.2 L 1835.0 772.3 M 1835.0 759.5 L 1835.0 772.3" fill="none" stroke="#4d7c0f" stroke-width="1.25" stroke-linejoin="round"/></g><text x="1761.0" y="798.0" text-anchor="middle" dominant-baseline="middle" fill="#365314" font-size="14.0"><tspan x="1761.0" dy="0" textLength="74.6" lengthAdjust="spacing">Cosmos DB</tspan><tspan x="1761.0" dy="16.0" textLength="49.0" lengthAdjust="spacing">account</tspan></text></g><g data-dediren-node-id="cosmos-throttle-alert"><rect data-dediren-node-shape="archimate_rounded_rectangle" x="1295.0" y="759.0" width="160.0" height="80.0" rx="6" fill="#d5e8d4" stroke="#4d7c0f" stroke-width="1.25"/><g data-dediren-node-decorator="archimate_technology_service" data-dediren-icon-kind="service" data-dediren-icon-size="22"><rect x="1427.0" y="770.6" width="22.0" height="11.0" rx="4.0" fill="#d5e8d4" stroke="#4d7c0f" stroke-width="1.25"/></g><text x="1375.0" y="806.5" text-anchor="middle" dominant-baseline="middle" fill="#365314" font-size="14.0"><tspan x="1375.0" dy="0" textLength="51.3" lengthAdjust="spacing">Cosmos</tspan><tspan x="1375.0" dy="16.0" textLength="73.9" lengthAdjust="spacing">throttle alert</tspan></text></g></g></svg>

