<svg xmlns="http://www.w3.org/2000/svg" width="2680" height="2118" viewBox="-12.0 -9.0 2680.0 2118.0"><rect x="-12.0" y="-9.0" width="2680.0" height="2118.0" fill="#ffffff"/><g font-family="Inter, Arial, sans-serif" font-size="14.0"><g data-dediren-group-id="technology-data-plane-runtime-principal"><rect x="108.0" y="189.8" width="755.0" height="248.5" rx="4.0" fill="#f8fafc" stroke="#94a3b8" stroke-width="1.0"/><text x="116.0" y="205.8" fill="#374151" font-size="12.0">Runtime identity</text></g><g data-dediren-group-id="technology-data-plane-cosmos"><rect x="1247.0" y="768.0" width="1237.0" height="769.0" rx="4.0" fill="#f8fafc" stroke="#94a3b8" stroke-width="1.0"/><text x="1255.0" y="784.0" fill="#374151" font-size="12.0">Cosmos data store</text></g><g data-dediren-group-id="technology-data-plane-storage"><rect x="1247.0" y="79.0" width="819.0" height="593.0" rx="4.0" fill="#f8fafc" stroke="#94a3b8" stroke-width="1.0"/><text x="1255.0" y="95.0" fill="#374151" font-size="12.0">Blob storage</text></g><g data-dediren-group-id="technology-data-plane-secrets"><rect x="1247.0" y="1633.0" width="755.0" height="320.0" rx="4.0" fill="#f8fafc" stroke="#94a3b8" stroke-width="1.0"/><text x="1255.0" y="1649.0" fill="#374151" font-size="12.0">Secrets and cryptographic material</text></g><g data-dediren-edge-id="function-app-has-managed-identity"><path d="M 309.0 269.8 L 533.0 269.8" fill="none" stroke="#64748b" stroke-width="1.5" stroke-linecap="round" stroke-linejoin="round"/><text x="421.0" y="261.4" text-anchor="middle" fill="#374151" stroke="#ffffff" stroke-width="4" stroke-linejoin="round" paint-order="stroke">identity</text></g><g data-dediren-edge-id="cosmos-serves-function-app"><defs><marker id="marker-end-cosmos-serves-function-app" data-dediren-edge-marker-end="open_arrow" markerWidth="9" markerHeight="9" refX="8" refY="4.5" orient="auto" markerUnits="strokeWidth"><path d="M 1 1 L 8 4.5 L 1 8" fill="none" stroke="#2563eb" stroke-width="1.3" stroke-linecap="round" stroke-linejoin="round"/></marker></defs><path d="M 1415.0 950.2 L 1359.0 950.2 Q 1351.0 950.2 1351.0 942.2 L 1351.0 832.0 Q 1351.0 824.0 1359.0 824.0 L 1496.0 824.0 L 1673.0 824.0 L 1850.0 824.0 L 2187.0 824.0 L 2363.5 824.0 L 2516.0 824.0 L 2636.0 824.0 Q 2644.0 824.0 2644.0 832.0 L 2644.0 2077.0 Q 2644.0 2085.0 2636.0 2085.0 L 1865.5 2085.0 L 967.0 2085.0 Q 959.0 2085.0 959.0 2077.0 L 959.0 2025.0 Q 959.0 2017.0 951.0 2017.0 L 485.5 2017.0 L 20.0 2017.0 Q 12.0 2017.0 12.0 2009.0 L 12.0 390.2 Q 12.0 382.2 20.0 382.2 L 76.0 382.2 L 228.5 382.2 L 365.0 382.2 Q 373.0 382.2 373.0 374.2 L 373.0 294.8 Q 373.0 286.8 365.0 286.8 L 309.0 286.8" fill="none" stroke="#2563eb" stroke-width="1.5" stroke-linecap="round" stroke-linejoin="round" marker-end="url(#marker-end-cosmos-serves-function-app)"/><text x="1321.6" y="941.8" text-anchor="middle" fill="#1e3a8a" stroke="#ffffff" stroke-width="4" stroke-linejoin="round" paint-order="stroke">data plane</text></g><g data-dediren-edge-id="storage-serves-function-app"><defs><marker id="marker-end-storage-serves-function-app" data-dediren-edge-marker-end="open_arrow" markerWidth="9" markerHeight="9" refX="8" refY="4.5" orient="auto" markerUnits="strokeWidth"><path d="M 1 1 L 8 4.5 L 1 8" fill="none" stroke="#2563eb" stroke-width="1.3" stroke-linecap="round" stroke-linejoin="round"/></marker></defs><path d="M 1415.0 244.2 L 1359.0 244.2 Q 1351.0 244.2 1351.0 236.2 L 1351.0 143.0 Q 1351.0 135.0 1359.0 135.0 L 1496.0 135.0 L 1769.0 135.0 L 1945.5 135.0 L 2098.0 135.0 L 2572.0 135.0 Q 2580.0 135.0 2580.0 127.0 L 2580.0 23.0 Q 2580.0 15.0 2572.0 15.0 L 1865.5 15.0 L 485.5 15.0 L 20.0 15.0 Q 12.0 15.0 12.0 23.0 L 12.0 374.2 Q 12.0 382.2 20.0 382.2 L 76.0 382.2 L 228.5 382.2 L 365.0 382.2 Q 373.0 382.2 373.0 374.2 L 373.0 294.8 Q 373.0 286.8 365.0 286.8 L 309.0 286.8" fill="none" stroke="#2563eb" stroke-width="1.5" stroke-linecap="round" stroke-linejoin="round" marker-end="url(#marker-end-storage-serves-function-app)"/><text x="1325.9" y="235.8" text-anchor="middle" fill="#1e3a8a" stroke="#ffffff" stroke-width="4" stroke-linejoin="round" paint-order="stroke">blob data</text></g><g data-dediren-edge-id="key-vault-serves-function-app"><defs><marker id="marker-end-key-vault-serves-function-app" data-dediren-edge-marker-end="open_arrow" markerWidth="9" markerHeight="9" refX="8" refY="4.5" orient="auto" markerUnits="strokeWidth"><path d="M 1 1 L 8 4.5 L 1 8" fill="none" stroke="#2563eb" stroke-width="1.3" stroke-linecap="round" stroke-linejoin="round"/></marker></defs><path d="M 1415.0 1784.5 L 1359.0 1784.5 Q 1351.0 1784.5 1351.0 1776.5 L 1351.0 1697.0 Q 1351.0 1689.0 1359.0 1689.0 L 1496.0 1689.0 L 1673.0 1689.0 L 1881.5 1689.0 L 2034.0 1689.0 L 2572.0 1689.0 Q 2580.0 1689.0 2580.0 1697.0 L 2580.0 2009.0 Q 2580.0 2017.0 2572.0 2017.0 L 1865.5 2017.0 L 485.5 2017.0 L 20.0 2017.0 Q 12.0 2017.0 12.0 2009.0 L 12.0 390.2 Q 12.0 382.2 20.0 382.2 L 76.0 382.2 L 228.5 382.2 L 365.0 382.2 Q 373.0 382.2 373.0 374.2 L 373.0 294.8 Q 373.0 286.8 365.0 286.8 L 309.0 286.8" fill="none" stroke="#2563eb" stroke-width="1.5" stroke-linecap="round" stroke-linejoin="round" marker-end="url(#marker-end-key-vault-serves-function-app)"/><text x="1383.0" y="1776.1" text-anchor="middle" fill="#1e3a8a" stroke="#ffffff" stroke-width="4" stroke-linejoin="round" paint-order="stroke">secrets</text></g><g data-dediren-edge-id="cosmos-composes-database"><path d="M 1577.0 958.7 L 1769.0 958.7" fill="none" stroke="#64748b" stroke-width="1.5" stroke-linecap="round" stroke-linejoin="round"/><text x="1673.0" y="950.3" text-anchor="middle" fill="#374151" stroke="#ffffff" stroke-width="4" stroke-linejoin="round" paint-order="stroke">database</text></g><g data-dediren-edge-id="database-composes-runs"><defs><marker id="marker-start-database-composes-runs" data-dediren-edge-marker-start="filled_diamond" markerWidth="10" markerHeight="10" refX="1" refY="5" orient="auto" markerUnits="strokeWidth"><path d="M 1 5 L 5 1 L 9 5 L 5 9 z" fill="#475569" stroke="#475569" stroke-width="1.1"/></marker></defs><path d="M 1931.0 929.0 L 2283.0 929.0" fill="none" stroke="#475569" stroke-width="1.5" stroke-linecap="round" stroke-linejoin="round" marker-start="url(#marker-start-database-composes-runs)"/><text x="2107.0" y="920.6" text-anchor="middle" fill="#334155" stroke="#ffffff" stroke-width="4" stroke-linejoin="round" paint-order="stroke">container</text></g><g data-dediren-edge-id="database-composes-raiders"><defs><marker id="marker-start-database-composes-raiders" data-dediren-edge-marker-start="filled_diamond" markerWidth="10" markerHeight="10" refX="1" refY="5" orient="auto" markerUnits="strokeWidth"><path d="M 1 5 L 5 1 L 9 5 L 5 9 z" fill="#475569" stroke="#475569" stroke-width="1.1"/></marker></defs><path d="M 1931.0 948.8 L 2115.0 948.8 Q 2123.0 948.8 2123.0 956.8 L 2123.0 1097.0 Q 2123.0 1105.0 2131.0 1105.0 L 2283.0 1105.0" fill="none" stroke="#475569" stroke-width="1.5" stroke-linecap="round" stroke-linejoin="round" marker-start="url(#marker-start-database-composes-raiders)"/><text x="2027.0" y="947.6" text-anchor="middle" fill="#334155" stroke="#ffffff" stroke-width="4" stroke-linejoin="round" paint-order="stroke">container</text></g><g data-dediren-edge-id="database-composes-guilds"><defs><marker id="marker-start-database-composes-guilds" data-dediren-edge-marker-start="filled_diamond" markerWidth="10" markerHeight="10" refX="1" refY="5" orient="auto" markerUnits="strokeWidth"><path d="M 1 5 L 5 1 L 9 5 L 5 9 z" fill="#475569" stroke="#475569" stroke-width="1.1"/></marker></defs><path d="M 1931.0 968.6 L 2051.0 968.6 Q 2059.0 968.6 2059.0 976.6 L 2059.0 1273.0 Q 2059.0 1281.0 2067.0 1281.0 L 2283.0 1281.0" fill="none" stroke="#475569" stroke-width="1.5" stroke-linecap="round" stroke-linejoin="round" marker-start="url(#marker-start-database-composes-guilds)"/><text x="2052.1" y="985.4" text-anchor="middle" fill="#334155" stroke="#ffffff" stroke-width="4" stroke-linejoin="round" paint-order="stroke">container</text></g><g data-dediren-edge-id="database-composes-idempotency"><defs><marker id="marker-start-database-composes-idempotency" data-dediren-edge-marker-start="filled_diamond" markerWidth="10" markerHeight="10" refX="1" refY="5" orient="auto" markerUnits="strokeWidth"><path d="M 1 5 L 5 1 L 9 5 L 5 9 z" fill="#475569" stroke="#475569" stroke-width="1.1"/></marker></defs><path d="M 1931.0 988.4 L 1987.0 988.4 Q 1995.0 988.4 1995.0 996.4 L 1995.0 1449.0 Q 1995.0 1457.0 2003.0 1457.0 L 2283.0 1457.0" fill="none" stroke="#475569" stroke-width="1.5" stroke-linecap="round" stroke-linejoin="round" marker-start="url(#marker-start-database-composes-idempotency)"/><text x="2020.1" y="1005.2" text-anchor="middle" fill="#334155" stroke="#ffffff" stroke-width="4" stroke-linejoin="round" paint-order="stroke">container</text></g><g data-dediren-edge-id="storage-composes-wow-reference"><path d="M 1577.0 240.0 L 1865.0 240.0" fill="none" stroke="#64748b" stroke-width="1.5" stroke-linecap="round" stroke-linejoin="round"/><text x="1721.0" y="231.6" text-anchor="middle" fill="#374151" stroke="#ffffff" stroke-width="4" stroke-linejoin="round" paint-order="stroke">blob container</text></g><g data-dediren-edge-id="storage-composes-data-protection"><path d="M 1577.0 252.8 L 1697.0 252.8 Q 1705.0 252.8 1705.0 260.8 L 1705.0 408.0 Q 1705.0 416.0 1713.0 416.0 L 1865.0 416.0" fill="none" stroke="#64748b" stroke-width="1.5" stroke-linecap="round" stroke-linejoin="round"/><text x="1719.8" y="269.6" text-anchor="middle" fill="#374151" stroke="#ffffff" stroke-width="4" stroke-linejoin="round" paint-order="stroke">blob container</text></g><g data-dediren-edge-id="storage-composes-deployments"><path d="M 1577.0 265.5 L 1633.0 265.5 Q 1641.0 265.5 1641.0 273.5 L 1641.0 584.0 Q 1641.0 592.0 1649.0 592.0 L 1865.0 592.0" fill="none" stroke="#64748b" stroke-width="1.5" stroke-linecap="round" stroke-linejoin="round"/><text x="1609.0" y="300.3" text-anchor="middle" fill="#374151" stroke="#ffffff" stroke-width="4" stroke-linejoin="round" paint-order="stroke">blob container</text></g><g data-dediren-edge-id="key-vault-composes-data-protection-key"><path d="M 1577.0 1793.0 L 1801.0 1793.0" fill="none" stroke="#64748b" stroke-width="1.5" stroke-linecap="round" stroke-linejoin="round"/><text x="1689.0" y="1784.6" text-anchor="middle" fill="#374151" stroke="#ffffff" stroke-width="4" stroke-linejoin="round" paint-order="stroke">key</text></g><g data-dediren-edge-id="managed-identity-accesses-key-vault"><path d="M 695.0 261.2 L 895.0 261.2 L 1015.0 261.2 Q 1023.0 261.2 1023.0 269.2 L 1023.0 1793.5 Q 1023.0 1801.5 1031.0 1801.5 L 1215.0 1801.5 L 1415.0 1801.5" fill="none" stroke="#64748b" stroke-width="1.5" stroke-linecap="round" stroke-linejoin="round"/><text x="1244.9" y="1793.1" text-anchor="middle" fill="#374151" stroke="#ffffff" stroke-width="4" stroke-linejoin="round" paint-order="stroke">Secrets User</text></g><g data-dediren-edge-id="managed-identity-accesses-cosmos"><path d="M 695.0 261.2 L 895.0 261.2 L 1015.0 261.2 Q 1023.0 261.2 1023.0 269.2 L 1023.0 959.2 Q 1023.0 967.2 1031.0 967.2 L 1215.0 967.2 L 1415.0 967.2" fill="none" stroke="#64748b" stroke-width="1.5" stroke-linecap="round" stroke-linejoin="round"/><text x="1315.0" y="976.8" text-anchor="middle" fill="#374151" stroke="#ffffff" stroke-width="4" stroke-linejoin="round" paint-order="stroke">Data Contributor</text></g><g data-dediren-edge-id="managed-identity-accesses-storage"><path d="M 695.0 261.2 L 895.0 261.2 L 1215.0 261.2 L 1415.0 261.2" fill="none" stroke="#64748b" stroke-width="1.5" stroke-linecap="round" stroke-linejoin="round"/><text x="1315.0" y="270.9" text-anchor="middle" fill="#374151" stroke="#ffffff" stroke-width="4" stroke-linejoin="round" paint-order="stroke">Blob/Queue/Table roles</text></g><g data-dediren-edge-id="managed-identity-accesses-data-protection-key"><defs><marker id="marker-end-managed-identity-accesses-data-protection-key" data-dediren-edge-marker-end="open_arrow" markerWidth="9" markerHeight="9" refX="8" refY="4.5" orient="auto" markerUnits="strokeWidth"><path d="M 1 1 L 8 4.5 L 1 8" fill="none" stroke="#15803d" stroke-width="1.3" stroke-linecap="round" stroke-linejoin="round"/></marker></defs><path d="M 695.0 278.2 L 751.0 278.2 Q 759.0 278.2 759.0 286.2 L 759.0 301.2 Q 759.0 309.2 767.0 309.2 L 895.0 309.2 L 951.0 309.2 Q 959.0 309.2 959.0 317.2 L 959.0 1861.5 Q 959.0 1869.5 967.0 1869.5 L 1143.0 1869.5 Q 1151.0 1869.5 1151.0 1877.5 L 1151.0 1889.0 Q 1151.0 1897.0 1159.0 1897.0 L 1215.0 1897.0 L 1496.0 1897.0 L 1673.0 1897.0 L 1729.0 1897.0 Q 1737.0 1897.0 1737.0 1889.0 L 1737.0 1818.0 Q 1737.0 1810.0 1745.0 1810.0 L 1801.0 1810.0" fill="none" stroke="#15803d" stroke-width="1.5" stroke-linecap="round" stroke-linejoin="round" stroke-dasharray="8 5" marker-end="url(#marker-end-managed-identity-accesses-data-protection-key)"/><text x="792.7" y="295.1" text-anchor="middle" fill="#166534" stroke="#ffffff" stroke-width="4" stroke-linejoin="round" paint-order="stroke">Crypto User</text></g><g data-dediren-node-id="function-app"><rect data-dediren-node-shape="archimate_rectangle" x="148.0" y="238.2" width="160.0" height="80.0" rx="0" fill="#ecfdf3" stroke="#16a34a" stroke-width="1.5"/><g data-dediren-node-decorator="archimate_technology_node" data-dediren-icon-kind="node" data-dediren-icon-size="22"><rect x="280.0" y="251.2" width="18.0" height="12.8" rx="1.5" fill="#ecfdf3" stroke="#16a34a" stroke-width="1.5"/><path data-dediren-icon-part="node-3d-edges" d="M 280.0 251.2 L 284.0 247.2 L 302.0 247.2 L 298.0 251.2 M 298.0 251.2 L 302.0 247.2 M 298.0 264.0 L 302.0 260.0 M 302.0 247.2 L 302.0 260.0" fill="none" stroke="#16a34a" stroke-width="1.5" stroke-linejoin="round"/></g><text x="228.0" y="270.2" text-anchor="middle" dominant-baseline="middle" fill="#14532d" font-size="14.0"><tspan x="228.0" dy="0">Azure Function</tspan><tspan x="228.0" dy="16.0">App</tspan></text></g><g data-dediren-node-id="managed-identity"><rect data-dediren-node-shape="archimate_rounded_rectangle" x="534.0" y="229.8" width="160.0" height="80.0" rx="4.0" fill="#ecfdf3" stroke="#16a34a" stroke-width="1.5"/><g data-dediren-node-decorator="archimate_technology_service" data-dediren-icon-kind="service" data-dediren-icon-size="22"><rect x="666.0" y="241.4" width="22.0" height="11.0" rx="4.0" fill="#ecfdf3" stroke="#16a34a" stroke-width="1.5"/></g><text x="614.0" y="261.7" text-anchor="middle" dominant-baseline="middle" fill="#14532d" font-size="14.0"><tspan x="614.0" dy="0">Function App</tspan><tspan x="614.0" dy="16.0">managed identity</tspan></text></g><g data-dediren-node-id="cosmos-account"><rect data-dediren-node-shape="archimate_rectangle" x="1416.0" y="918.7" width="160.0" height="80.0" rx="0" fill="#ecfdf3" stroke="#16a34a" stroke-width="1.5"/><g data-dediren-node-decorator="archimate_technology_node" data-dediren-icon-kind="node" data-dediren-icon-size="22"><rect x="1548.0" y="931.7" width="18.0" height="12.8" rx="1.5" fill="#ecfdf3" stroke="#16a34a" stroke-width="1.5"/><path data-dediren-icon-part="node-3d-edges" d="M 1548.0 931.7 L 1552.0 927.7 L 1570.0 927.7 L 1566.0 931.7 M 1566.0 931.7 L 1570.0 927.7 M 1566.0 944.4 L 1570.0 940.5 M 1570.0 927.7 L 1570.0 940.5" fill="none" stroke="#16a34a" stroke-width="1.5" stroke-linejoin="round"/></g><text x="1496.0" y="950.7" text-anchor="middle" dominant-baseline="middle" fill="#14532d" font-size="14.0"><tspan x="1496.0" dy="0">Cosmos DB</tspan><tspan x="1496.0" dy="16.0">account</tspan></text></g><g data-dediren-node-id="cosmos-database"><rect data-dediren-node-shape="archimate_rectangle" x="1770.0" y="894.7" width="160.0" height="128.0" rx="0" fill="#f7fee7" stroke="#65a30d" stroke-width="1.5"/><g data-dediren-node-decorator="archimate_artifact" data-dediren-icon-kind="artifact" data-dediren-icon-size="22"><path data-dediren-icon-part="artifact-document" d="M 1904.2 902.7 L 1914.8 902.7 L 1920.9 908.9 L 1920.9 922.5 L 1904.2 922.5 Z M 1914.8 902.7 L 1914.8 908.9 L 1920.9 908.9" fill="#f7fee7" stroke="#65a30d" stroke-width="1.5"/></g><text x="1850.0" y="950.7" text-anchor="middle" dominant-baseline="middle" fill="#365314" font-size="14.0"><tspan x="1850.0" dy="0">Cosmos SQL</tspan><tspan x="1850.0" dy="16.0">database</tspan></text></g><g data-dediren-node-id="cosmos-runs"><rect data-dediren-node-shape="archimate_rectangle" x="2284.0" y="889.0" width="160.0" height="80.0" rx="0" fill="#f7fee7" stroke="#65a30d" stroke-width="1.5"/><g data-dediren-node-decorator="archimate_artifact" data-dediren-icon-kind="artifact" data-dediren-icon-size="22"><path data-dediren-icon-part="artifact-document" d="M 2418.2 897.0 L 2428.8 897.0 L 2434.9 903.2 L 2434.9 916.8 L 2418.2 916.8 Z M 2428.8 897.0 L 2428.8 903.2 L 2434.9 903.2" fill="#f7fee7" stroke="#65a30d" stroke-width="1.5"/></g><text x="2364.0" y="929.0" text-anchor="middle" dominant-baseline="middle" fill="#365314" font-size="14.0">runs container</text></g><g data-dediren-node-id="cosmos-raiders"><rect data-dediren-node-shape="archimate_rectangle" x="2284.0" y="1065.0" width="160.0" height="80.0" rx="0" fill="#f7fee7" stroke="#65a30d" stroke-width="1.5"/><g data-dediren-node-decorator="archimate_artifact" data-dediren-icon-kind="artifact" data-dediren-icon-size="22"><path data-dediren-icon-part="artifact-document" d="M 2418.2 1073.0 L 2428.8 1073.0 L 2434.9 1079.2 L 2434.9 1092.8 L 2418.2 1092.8 Z M 2428.8 1073.0 L 2428.8 1079.2 L 2434.9 1079.2" fill="#f7fee7" stroke="#65a30d" stroke-width="1.5"/></g><text x="2364.0" y="1097.0" text-anchor="middle" dominant-baseline="middle" fill="#365314" font-size="14.0"><tspan x="2364.0" dy="0">raiders</tspan><tspan x="2364.0" dy="16.0">container</tspan></text></g><g data-dediren-node-id="cosmos-guilds"><rect data-dediren-node-shape="archimate_rectangle" x="2284.0" y="1241.0" width="160.0" height="80.0" rx="0" fill="#f7fee7" stroke="#65a30d" stroke-width="1.5"/><g data-dediren-node-decorator="archimate_artifact" data-dediren-icon-kind="artifact" data-dediren-icon-size="22"><path data-dediren-icon-part="artifact-document" d="M 2418.2 1249.0 L 2428.8 1249.0 L 2434.9 1255.2 L 2434.9 1268.8 L 2418.2 1268.8 Z M 2428.8 1249.0 L 2428.8 1255.2 L 2434.9 1255.2" fill="#f7fee7" stroke="#65a30d" stroke-width="1.5"/></g><text x="2364.0" y="1281.0" text-anchor="middle" dominant-baseline="middle" fill="#365314" font-size="14.0">guilds container</text></g><g data-dediren-node-id="cosmos-idempotency"><rect data-dediren-node-shape="archimate_rectangle" x="2284.0" y="1417.0" width="160.0" height="80.0" rx="0" fill="#f7fee7" stroke="#65a30d" stroke-width="1.5"/><g data-dediren-node-decorator="archimate_artifact" data-dediren-icon-kind="artifact" data-dediren-icon-size="22"><path data-dediren-icon-part="artifact-document" d="M 2418.2 1425.0 L 2428.8 1425.0 L 2434.9 1431.2 L 2434.9 1444.8 L 2418.2 1444.8 Z M 2428.8 1425.0 L 2428.8 1431.2 L 2434.9 1431.2" fill="#f7fee7" stroke="#65a30d" stroke-width="1.5"/></g><text x="2364.0" y="1449.0" text-anchor="middle" dominant-baseline="middle" fill="#365314" font-size="14.0"><tspan x="2364.0" dy="0">idempotency</tspan><tspan x="2364.0" dy="16.0">container</tspan></text></g><g data-dediren-node-id="storage-account"><rect data-dediren-node-shape="archimate_rectangle" x="1416.0" y="212.8" width="160.0" height="80.0" rx="0" fill="#ecfdf3" stroke="#16a34a" stroke-width="1.5"/><g data-dediren-node-decorator="archimate_technology_node" data-dediren-icon-kind="node" data-dediren-icon-size="22"><rect x="1548.0" y="225.7" width="18.0" height="12.8" rx="1.5" fill="#ecfdf3" stroke="#16a34a" stroke-width="1.5"/><path data-dediren-icon-part="node-3d-edges" d="M 1548.0 225.7 L 1552.0 221.8 L 1570.0 221.8 L 1566.0 225.7 M 1566.0 225.7 L 1570.0 221.8 M 1566.0 238.5 L 1570.0 234.5 M 1570.0 221.8 L 1570.0 234.5" fill="none" stroke="#16a34a" stroke-width="1.5" stroke-linejoin="round"/></g><text x="1496.0" y="252.8" text-anchor="middle" dominant-baseline="middle" fill="#14532d" font-size="14.0">Storage account</text></g><g data-dediren-node-id="wow-reference-container"><rect data-dediren-node-shape="archimate_rectangle" x="1866.0" y="200.0" width="160.0" height="80.0" rx="0" fill="#f7fee7" stroke="#65a30d" stroke-width="1.5"/><g data-dediren-node-decorator="archimate_artifact" data-dediren-icon-kind="artifact" data-dediren-icon-size="22"><path data-dediren-icon-part="artifact-document" d="M 2000.2 208.0 L 2010.8 208.0 L 2016.9 214.2 L 2016.9 227.8 L 2000.2 227.8 Z M 2010.8 208.0 L 2010.8 214.2 L 2016.9 214.2" fill="#f7fee7" stroke="#65a30d" stroke-width="1.5"/></g><text x="1946.0" y="231.9" text-anchor="middle" dominant-baseline="middle" fill="#365314" font-size="14.0"><tspan x="1946.0" dy="0">wow reference</tspan><tspan x="1946.0" dy="16.0">blobs</tspan></text></g><g data-dediren-node-id="data-protection-container"><rect data-dediren-node-shape="archimate_rectangle" x="1866.0" y="376.0" width="160.0" height="80.0" rx="0" fill="#f7fee7" stroke="#65a30d" stroke-width="1.5"/><g data-dediren-node-decorator="archimate_artifact" data-dediren-icon-kind="artifact" data-dediren-icon-size="22"><path data-dediren-icon-part="artifact-document" d="M 2000.2 384.0 L 2010.8 384.0 L 2016.9 390.2 L 2016.9 403.8 L 2000.2 403.8 Z M 2010.8 384.0 L 2010.8 390.2 L 2016.9 390.2" fill="#f7fee7" stroke="#65a30d" stroke-width="1.5"/></g><text x="1946.0" y="407.9" text-anchor="middle" dominant-baseline="middle" fill="#365314" font-size="14.0"><tspan x="1946.0" dy="0">data-protection</tspan><tspan x="1946.0" dy="16.0">key ring blob</tspan></text></g><g data-dediren-node-id="deployment-container"><rect data-dediren-node-shape="archimate_rectangle" x="1866.0" y="552.0" width="160.0" height="80.0" rx="0" fill="#f7fee7" stroke="#65a30d" stroke-width="1.5"/><g data-dediren-node-decorator="archimate_artifact" data-dediren-icon-kind="artifact" data-dediren-icon-size="22"><path data-dediren-icon-part="artifact-document" d="M 2000.2 560.0 L 2010.8 560.0 L 2016.9 566.2 L 2016.9 579.8 L 2000.2 579.8 Z M 2010.8 560.0 L 2010.8 566.2 L 2016.9 566.2" fill="#f7fee7" stroke="#65a30d" stroke-width="1.5"/></g><text x="1946.0" y="584.0" text-anchor="middle" dominant-baseline="middle" fill="#365314" font-size="14.0"><tspan x="1946.0" dy="0">deployments blob</tspan><tspan x="1946.0" dy="16.0">container</tspan></text></g><g data-dediren-node-id="key-vault"><rect data-dediren-node-shape="archimate_rectangle" x="1416.0" y="1753.0" width="160.0" height="80.0" rx="0" fill="#ecfdf3" stroke="#16a34a" stroke-width="1.5"/><g data-dediren-node-decorator="archimate_technology_node" data-dediren-icon-kind="node" data-dediren-icon-size="22"><rect x="1548.0" y="1766.0" width="18.0" height="12.8" rx="1.5" fill="#ecfdf3" stroke="#16a34a" stroke-width="1.5"/><path data-dediren-icon-part="node-3d-edges" d="M 1548.0 1766.0 L 1552.0 1762.0 L 1570.0 1762.0 L 1566.0 1766.0 M 1566.0 1766.0 L 1570.0 1762.0 M 1566.0 1778.7 L 1570.0 1774.8 M 1570.0 1762.0 L 1570.0 1774.8" fill="none" stroke="#16a34a" stroke-width="1.5" stroke-linejoin="round"/></g><text x="1496.0" y="1793.0" text-anchor="middle" dominant-baseline="middle" fill="#14532d" font-size="14.0">Key Vault</text></g><g data-dediren-node-id="data-protection-key"><rect data-dediren-node-shape="archimate_rectangle" x="1802.0" y="1761.5" width="160.0" height="80.0" rx="0" fill="#f7fee7" stroke="#65a30d" stroke-width="1.5"/><g data-dediren-node-decorator="archimate_artifact" data-dediren-icon-kind="artifact" data-dediren-icon-size="22"><path data-dediren-icon-part="artifact-document" d="M 1936.2 1769.5 L 1946.8 1769.5 L 1952.9 1775.7 L 1952.9 1789.3 L 1936.2 1789.3 Z M 1946.8 1769.5 L 1946.8 1775.7 L 1952.9 1775.7" fill="#f7fee7" stroke="#65a30d" stroke-width="1.5"/></g><text x="1882.0" y="1793.5" text-anchor="middle" dominant-baseline="middle" fill="#365314" font-size="14.0"><tspan x="1882.0" dy="0">Data Protection</tspan><tspan x="1882.0" dy="16.0">key</tspan></text></g></g></svg>
