<svg xmlns="http://www.w3.org/2000/svg" width="1917" height="915" viewBox="-12.0 -12.0 1917.0 915.0"><rect x="-12.0" y="-12.0" width="1917.0" height="915.0" fill="#ffffff"/><style>g.dediren-edge-highlighted &gt; path{stroke:#1f6feb;stroke-width:3;}</style><g font-family="Inter, Arial, sans-serif" font-size="14"><g data-dediren-group-id="technology-observability-telemetry"><rect x="12.0" y="12.0" width="987.0" height="832.0" rx="4" fill="#f8fafc" stroke="#94a3b8" stroke-width="1"/><text x="20.0" y="28.0" fill="#374151" font-size="12">Telemetry pipeline</text></g><g data-dediren-group-id="technology-observability-cosmos-alerting"><rect x="1255.0" y="638.0" width="626.0" height="241.0" rx="4" fill="#f8fafc" stroke="#94a3b8" stroke-width="1"/><text x="1263.0" y="654.0" fill="#374151" font-size="12">Cosmos alerting</text></g><g data-dediren-edge-id="app-insights-serves-function-app" data-dediren-edge-source="application-insights" data-dediren-edge-target="function-app"><marker id="marker-end-app-insights-serves-function-app" data-dediren-edge-marker-end="open_arrow" markerWidth="10" markerHeight="10" refX="5" refY="5" orient="auto"><path d="M 1 1 L 9 5 L 1 9" fill="none" stroke="#2563eb" stroke-width="1.5"/></marker><path d="M 522.0 421.0 L 522.0 477.0 Q 522.0 485.0 530.0 485.0 L 871.0 485.0 Q 879.0 485.0 879.0 493.0 L 879.0 549.0" fill="none" stroke="#2563eb" stroke-width="1.5" stroke-linecap="round" stroke-linejoin="round" marker-end="url(#marker-end-app-insights-serves-function-app)"/><text x="700.5" y="503.0" text-anchor="middle" fill="none" font-size="15.4" font-weight="600" stroke="#ffffff" stroke-width="2">telemetry</text><text x="700.5" y="503.0" text-anchor="middle" fill="#1e3a8a" font-size="15.4" font-weight="600">telemetry</text></g><g data-dediren-edge-id="log-analytics-aggregates-app-insights" data-dediren-edge-source="log-analytics" data-dediren-edge-target="application-insights"><marker id="marker-start-log-analytics-aggregates-app-insights" data-dediren-edge-marker-start="hollow_diamond" markerWidth="10" markerHeight="10" refX="5" refY="5" orient="auto"><path d="M 1 5 L 5 1 L 9 5 L 5 9 Z" fill="#ffffff" stroke="#475569" stroke-width="1"/></marker><path d="M 132.0 740.0 L 132.0 796.0 Q 132.0 804.0 140.0 804.0 L 269.0 804.0 Q 277.0 804.0 277.0 796.0 L 277.0 283.0 Q 277.0 275.0 285.0 275.0 L 490.8 275.0 Q 498.8 275.0 498.8 283.0 L 498.8 339.0" fill="none" stroke="#475569" stroke-width="1.5" stroke-linecap="round" stroke-linejoin="round" marker-start="url(#marker-start-log-analytics-aggregates-app-insights)"/><text x="204.5" y="794.0" text-anchor="middle" fill="none" font-size="15.4" font-weight="600" stroke="#ffffff" stroke-width="2">workspace</text><text x="204.5" y="794.0" text-anchor="middle" fill="#334155" font-size="15.4" font-weight="600">workspace</text></g><g data-dediren-edge-id="log-analytics-aggregates-diagnostics" data-dediren-edge-source="log-analytics" data-dediren-edge-target="cosmos-account"><marker id="marker-start-log-analytics-aggregates-diagnostics" data-dediren-edge-marker-start="hollow_diamond" markerWidth="10" markerHeight="10" refX="5" refY="5" orient="auto"><path d="M 1 5 L 5 1 L 9 5 L 5 9 Z" fill="#ffffff" stroke="#475569" stroke-width="1"/></marker><g data-dediren-line-jump-masks="log-analytics-aggregates-diagnostics"><path d="M 271.0 694.0 Q 277.0 688.0 283.0 694.0" fill="none" stroke="#ffffff" stroke-width="6"/></g><path d="M 213.0 694.0 L 271.0 694.0 Q 277.0 688.0 283.0 694.0 L 341.0 694.0 L 522.0 694.0 L 703.0 694.0 L 879.0 694.0 L 1031.0 694.0 L 1223.0 694.0 L 1375.5 694.0 L 1552.0 694.0 L 1608.0 694.0 Q 1616.0 694.0 1616.0 702.0 L 1616.0 774.0 Q 1616.0 782.0 1624.0 782.0 L 1680.0 782.0" fill="none" stroke="#475569" stroke-width="1.5" stroke-linecap="round" stroke-linejoin="round" marker-start="url(#marker-start-log-analytics-aggregates-diagnostics)"/><text x="277.0" y="712.0" text-anchor="middle" fill="none" font-size="15.4" font-weight="600" stroke="#ffffff" stroke-width="2">diagnostics</text><text x="277.0" y="712.0" text-anchor="middle" fill="#334155" font-size="15.4" font-weight="600">diagnostics</text></g><g data-dediren-edge-id="managed-identity-accesses-app-insights" data-dediren-edge-source="managed-identity" data-dediren-edge-target="application-insights"><path d="M 132.5 143.0 L 132.5 199.0 Q 132.5 207.0 140.5 207.0 L 537.2 207.0 Q 545.2 207.0 545.2 215.0 L 545.2 339.0" fill="none" stroke="#64748b" stroke-width="1.5" stroke-linecap="round" stroke-linejoin="round"/><text x="338.8" y="225.0" text-anchor="middle" fill="none" font-size="15.4" font-weight="600" stroke="#ffffff" stroke-width="2">Metrics Publisher</text><text x="338.8" y="225.0" text-anchor="middle" fill="#374151" font-size="15.4" font-weight="600">Metrics Publisher</text></g><g data-dediren-edge-id="cosmos-throttle-alert-monitors-cosmos" data-dediren-edge-source="cosmos-throttle-alert" data-dediren-edge-target="cosmos-account"><path d="M 1456.0 799.0 L 1680.0 799.0" fill="none" stroke="#64748b" stroke-width="1.5" stroke-linecap="round" stroke-linejoin="round"/><text x="1568.0" y="817.0" text-anchor="middle" fill="none" font-size="15.4" font-weight="600" stroke="#ffffff" stroke-width="2">monitors 429s</text><text x="1568.0" y="817.0" text-anchor="middle" fill="#374151" font-size="15.4" font-weight="600">monitors 429s</text></g><g data-dediren-node-id="function-app"><rect data-dediren-node-shape="archimate_rectangle" x="799.0" y="550.0" width="160.0" height="80.0" rx="0" fill="#ecfdf3" stroke="#16a34a" stroke-width="1.5"/><g data-dediren-node-decorator="archimate_technology_node" data-dediren-icon-kind="node" data-dediren-icon-size="22"><rect x="931.0" y="563.0" width="18.0" height="12.8" rx="1.5" fill="#ecfdf3" stroke="#16a34a" stroke-width="1.5"/><path data-dediren-icon-part="node-3d-edges" d="M 931.0 563.0 L 935.0 559.0 L 953.0 559.0 L 949.0 563.0 M 949.0 563.0 L 953.0 559.0 M 949.0 575.7 L 953.0 571.8 M 953.0 559.0 L 953.0 571.8" fill="none" stroke="#16a34a" stroke-width="1.5" stroke-linejoin="round"/></g><text x="879.0" y="573.9" text-anchor="middle" dominant-baseline="middle" fill="#14532d" font-size="14.0"><tspan x="879.0" dy="0">Azure</tspan><tspan x="879.0" dy="16.0">Function</tspan><tspan x="879.0" dy="16.0">App</tspan></text></g><g data-dediren-node-id="managed-identity"><rect data-dediren-node-shape="archimate_rounded_rectangle" x="52.5" y="52.0" width="160.0" height="90.0" rx="4" fill="#ecfdf3" stroke="#16a34a" stroke-width="1.5"/><g data-dediren-node-decorator="archimate_technology_service" data-dediren-icon-kind="service" data-dediren-icon-size="22"><rect x="184.5" y="63.6" width="22.0" height="11.0" rx="4.0" fill="#ecfdf3" stroke="#16a34a" stroke-width="1.5"/></g><text x="132.5" y="72.9" text-anchor="middle" dominant-baseline="middle" fill="#14532d" font-size="14.0"><tspan x="132.5" dy="0">Function</tspan><tspan x="132.5" dy="16.0">App</tspan><tspan x="132.5" dy="16.0">managed</tspan><tspan x="132.5" dy="16.0">identity</tspan></text></g><g data-dediren-node-id="application-insights"><rect data-dediren-node-shape="archimate_rectangle" x="437.0" y="340.0" width="170.0" height="80.0" rx="0" fill="#ecfdf3" stroke="#16a34a" stroke-width="1.5"/><g data-dediren-node-decorator="archimate_technology_node" data-dediren-icon-kind="node" data-dediren-icon-size="22"><rect x="579.0" y="353.0" width="18.0" height="12.8" rx="1.5" fill="#ecfdf3" stroke="#16a34a" stroke-width="1.5"/><path data-dediren-icon-part="node-3d-edges" d="M 579.0 353.0 L 583.0 349.0 L 601.0 349.0 L 597.0 353.0 M 597.0 353.0 L 601.0 349.0 M 597.0 365.7 L 601.0 361.8 M 601.0 349.0 L 601.0 361.8" fill="none" stroke="#16a34a" stroke-width="1.5" stroke-linejoin="round"/></g><text x="522.0" y="372.0" text-anchor="middle" dominant-baseline="middle" fill="#14532d" font-size="14.0"><tspan x="522.0" dy="0">Application</tspan><tspan x="522.0" dy="16.0">Insights</tspan></text></g><g data-dediren-node-id="log-analytics"><rect data-dediren-node-shape="archimate_rectangle" x="52.0" y="649.0" width="160.0" height="90.0" rx="0" fill="#ecfdf3" stroke="#16a34a" stroke-width="1.5"/><g data-dediren-node-decorator="archimate_technology_node" data-dediren-icon-kind="node" data-dediren-icon-size="22"><rect x="184.0" y="662.0" width="18.0" height="12.8" rx="1.5" fill="#ecfdf3" stroke="#16a34a" stroke-width="1.5"/><path data-dediren-icon-part="node-3d-edges" d="M 184.0 662.0 L 188.0 658.0 L 206.0 658.0 L 202.0 662.0 M 202.0 662.0 L 206.0 658.0 M 202.0 674.7 L 206.0 670.8 M 206.0 658.0 L 206.0 670.8" fill="none" stroke="#16a34a" stroke-width="1.5" stroke-linejoin="round"/></g><text x="132.0" y="677.9" text-anchor="middle" dominant-baseline="middle" fill="#14532d" font-size="14.0"><tspan x="132.0" dy="0">Log</tspan><tspan x="132.0" dy="16.0">Analytics</tspan><tspan x="132.0" dy="16.0">workspace</tspan></text></g><g data-dediren-node-id="cosmos-account"><rect data-dediren-node-shape="archimate_rectangle" x="1681.0" y="750.5" width="160.0" height="80.0" rx="0" fill="#ecfdf3" stroke="#16a34a" stroke-width="1.5"/><g data-dediren-node-decorator="archimate_technology_node" data-dediren-icon-kind="node" data-dediren-icon-size="22"><rect x="1813.0" y="763.5" width="18.0" height="12.8" rx="1.5" fill="#ecfdf3" stroke="#16a34a" stroke-width="1.5"/><path data-dediren-icon-part="node-3d-edges" d="M 1813.0 763.5 L 1817.0 759.5 L 1835.0 759.5 L 1831.0 763.5 M 1831.0 763.5 L 1835.0 759.5 M 1831.0 776.2 L 1835.0 772.3 M 1835.0 759.5 L 1835.0 772.3" fill="none" stroke="#16a34a" stroke-width="1.5" stroke-linejoin="round"/></g><text x="1761.0" y="782.5" text-anchor="middle" dominant-baseline="middle" fill="#14532d" font-size="14.0"><tspan x="1761.0" dy="0">Cosmos DB</tspan><tspan x="1761.0" dy="16.0">account</tspan></text></g><g data-dediren-node-id="cosmos-throttle-alert"><rect data-dediren-node-shape="archimate_rounded_rectangle" x="1295.0" y="759.0" width="160.0" height="80.0" rx="4" fill="#ecfdf3" stroke="#16a34a" stroke-width="1.5"/><g data-dediren-node-decorator="archimate_technology_service" data-dediren-icon-kind="service" data-dediren-icon-size="22"><rect x="1427.0" y="770.6" width="22.0" height="11.0" rx="4.0" fill="#ecfdf3" stroke="#16a34a" stroke-width="1.5"/></g><text x="1375.0" y="782.9" text-anchor="middle" dominant-baseline="middle" fill="#14532d" font-size="14.0"><tspan x="1375.0" dy="0">Cosmos</tspan><tspan x="1375.0" dy="16.0">throttle</tspan><tspan x="1375.0" dy="16.0">alert</tspan></text></g></g><script>//<![CDATA[
(function(){
var root=document.currentScript&&document.currentScript.closest?document.currentScript.closest('svg'):null;
if(!root){root=document.querySelector('svg');}
if(!root){return;}
var selected=null;
function clear(){var hl=root.querySelectorAll('.dediren-edge-highlighted');for(var i=0;i<hl.length;i++){hl[i].classList.remove('dediren-edge-highlighted');}selected=null;}
function select(id){clear();var edges=root.querySelectorAll('[data-dediren-edge-source]');for(var i=0;i<edges.length;i++){var e=edges[i];if(e.getAttribute('data-dediren-edge-source')===id||e.getAttribute('data-dediren-edge-target')===id){e.classList.add('dediren-edge-highlighted');}}selected=id;}
root.addEventListener('click',function(ev){var t=ev.target;var n=t.closest?t.closest('[data-dediren-node-id]'):null;if(n){var id=n.getAttribute('data-dediren-node-id');if(id===selected){clear();}else{select(id);}}else{clear();}});
document.addEventListener('keydown',function(ev){if(ev.key==='Escape'){clear();}});
})();
//]]></script></svg>

