<svg xmlns="http://www.w3.org/2000/svg" role="img" width="3011" height="964" viewBox="-20 -52 3011 996" data-arch-a11y="root" data-arch-a11y-viewbox="-20.0 -20.0 3011.0 964.0"><title>LFM - Technology Usage Overview</title>
<desc>Which technology nodes and system software host the LFM applications?</desc>
<text data-arch-a11y="visible-title" x="-12" y="-32" font-family="sans-serif" font-size="16" font-weight="bold">LFM - Technology Usage Overview</text><rect x="-20.0" y="-20.0" width="3011.0" height="964.0" fill="#ffffff"/><g font-family="Inter, &quot;Liberation Sans&quot;, &quot;Noto Sans&quot;, Arial, &quot;Helvetica Neue&quot;, &quot;Segoe UI&quot;, sans-serif" font-size="14"><g data-dediren-group-id="technology-usage-frontend-hosting"><rect x="285.5" y="720.0" width="594.0" height="160.0" rx="8" fill="#f8fafc" stroke="#94a3b8" stroke-width="1"/><text x="293.5" y="736.0" fill="#334155" font-size="12">Frontend hosting</text></g><g data-dediren-group-id="technology-usage-functions-hosting"><rect x="12.0" y="12.0" width="1109.0" height="612.0" rx="8" fill="#f8fafc" stroke="#94a3b8" stroke-width="1"/><text x="20.0" y="28.0" fill="#334155" font-size="12">Functions hosting and identity</text></g><g data-dediren-group-id="technology-usage-platform-dependencies"><rect x="1505.0" y="164.5" width="498.0" height="527.5" rx="8" fill="#f8fafc" stroke="#94a3b8" stroke-width="1"/><text x="1513.0" y="180.5" fill="#334155" font-size="12">Platform dependencies</text></g><g data-dediren-group-id="technology-usage-observability"><rect x="2323.0" y="388.0" width="636.0" height="524.0" rx="8" fill="#f8fafc" stroke="#94a3b8" stroke-width="1"/><text x="2331.0" y="404.0" fill="#334155" font-size="12">Observability and alerting</text></g><g data-dediren-edge-id="swa-hosts-app"><marker id="marker-end-swa-hosts-app" data-dediren-edge-marker-end="open_arrow" markerWidth="10" markerHeight="10" refX="9" refY="5" orient="auto"><path d="M 1 1 L 9 5 L 1 9" fill="none" stroke="#475569" stroke-width="1.5"/></marker><path d="M 486.5 800.0 L 678.5 800.0" fill="none" stroke="#475569" stroke-width="1.25" stroke-linecap="round" stroke-linejoin="round" marker-end="url(#marker-end-swa-hosts-app)"/><text x="582.5" y="818.0" text-anchor="middle" fill="none" font-size="15.4" font-weight="600" stroke="#ffffff" stroke-width="2">hosts</text><text x="582.5" y="818.0" text-anchor="middle" fill="#374151" font-size="15.4" font-weight="600">hosts</text></g><g data-dediren-edge-id="function-app-hosts-api"><marker id="marker-end-function-app-hosts-api" data-dediren-edge-marker-end="open_arrow" markerWidth="10" markerHeight="10" refX="9" refY="5" orient="auto"><path d="M 1 1 L 9 5 L 1 9" fill="none" stroke="#475569" stroke-width="1.5"/></marker><path d="M 567.0 92.0 L 919.0 92.0" fill="none" stroke="#475569" stroke-width="1.25" stroke-linecap="round" stroke-linejoin="round" marker-end="url(#marker-end-function-app-hosts-api)"/><text x="743.0" y="82.0" text-anchor="middle" fill="none" font-size="15.4" font-weight="600" stroke="#ffffff" stroke-width="2">hosts</text><text x="743.0" y="82.0" text-anchor="middle" fill="#374151" font-size="15.4" font-weight="600">hosts</text></g><g data-dediren-edge-id="plan-serves-function-app"><marker id="marker-end-plan-serves-function-app" data-dediren-edge-marker-end="open_arrow" markerWidth="10" markerHeight="10" refX="9" refY="5" orient="auto"><path d="M 1 1 L 9 5 L 1 9" fill="none" stroke="#475569" stroke-width="1.5"/></marker><path d="M 213.0 121.7 L 405.0 121.7" fill="none" stroke="#475569" stroke-width="1.25" stroke-linecap="round" stroke-linejoin="round" marker-end="url(#marker-end-plan-serves-function-app)"/><text x="309.0" y="139.7" text-anchor="middle" fill="none" font-size="15.4" font-weight="600" stroke="#ffffff" stroke-width="2">hosts plan</text><text x="309.0" y="139.7" text-anchor="middle" fill="#374151" font-size="15.4" font-weight="600">hosts plan</text></g><g data-dediren-edge-id="function-app-composes-runtime"><marker id="marker-start-function-app-composes-runtime" data-dediren-edge-marker-start="filled_diamond" markerWidth="10" markerHeight="10" refX="1" refY="5" orient="auto"><path d="M 1 5 L 5 1 L 9 5 L 5 9 Z" fill="#475569" stroke="#475569" stroke-width="1"/></marker><path d="M 567.0 111.8 L 751.0 111.8 Q 759.0 111.8 759.0 119.8 L 759.0 265.0 Q 759.0 273.0 767.0 273.0 L 919.0 273.0" fill="none" stroke="#475569" stroke-width="1.25" stroke-linecap="round" stroke-linejoin="round" marker-start="url(#marker-start-function-app-composes-runtime)"/><text x="741.0" y="129.8" text-anchor="middle" fill="none" font-size="15.4" font-weight="600" stroke="#ffffff" stroke-width="2">runtime</text><text x="741.0" y="129.8" text-anchor="middle" fill="#374151" font-size="15.4" font-weight="600">runtime</text></g><g data-dediren-edge-id="function-app-has-managed-identity"><path d="M 567.0 131.6 L 687.0 131.6 Q 695.0 131.6 695.0 139.6 L 695.0 451.0 Q 695.0 459.0 703.0 459.0 L 919.0 459.0" fill="none" stroke="#475569" stroke-width="1.25" stroke-linecap="round" stroke-linejoin="round"/><text x="677.0" y="177.6" text-anchor="middle" fill="none" font-size="15.4" font-weight="600" stroke="#ffffff" stroke-width="2">identity</text><text x="677.0" y="177.6" text-anchor="middle" fill="#374151" font-size="15.4" font-weight="600">identity</text></g><g data-dediren-edge-id="cosmos-serves-function-app"><marker id="marker-end-cosmos-serves-function-app" data-dediren-edge-marker-end="open_arrow" markerWidth="10" markerHeight="10" refX="9" refY="5" orient="auto"><path d="M 1 1 L 9 5 L 1 9" fill="none" stroke="#475569" stroke-width="1.5"/></marker><path d="M 1673.0 588.0 L 1473.0 588.0 L 1417.0 588.0 Q 1409.0 588.0 1409.0 580.0 L 1409.0 576.0 Q 1409.0 568.0 1401.0 568.0 L 1153.0 568.0 L 1000.0 568.0 L 823.0 568.0 L 639.0 568.0 Q 631.0 568.0 631.0 560.0 L 631.0 159.4 Q 631.0 151.4 623.0 151.4 L 567.0 151.4" fill="none" stroke="#475569" stroke-width="1.25" stroke-linecap="round" stroke-linejoin="round" marker-end="url(#marker-end-cosmos-serves-function-app)"/><text x="1573.0" y="578.0" text-anchor="middle" fill="none" font-size="15.4" font-weight="600" stroke="#ffffff" stroke-width="2">data plane</text><text x="1573.0" y="578.0" text-anchor="middle" fill="#374151" font-size="15.4" font-weight="600">data plane</text></g><g data-dediren-edge-id="storage-serves-function-app"><marker id="marker-end-storage-serves-function-app" data-dediren-edge-marker-end="open_arrow" markerWidth="10" markerHeight="10" refX="9" refY="5" orient="auto"><path d="M 1 1 L 9 5 L 1 9" fill="none" stroke="#475569" stroke-width="1.5"/></marker><path d="M 1673.0 412.0 L 1473.0 412.0 L 1417.0 412.0 Q 1409.0 412.0 1409.0 404.0 L 1409.0 400.0 Q 1409.0 392.0 1401.0 392.0 L 1225.0 392.0 Q 1217.0 392.0 1217.0 400.0 L 1217.0 560.0 Q 1217.0 568.0 1209.0 568.0 L 1153.0 568.0 L 1000.0 568.0 L 823.0 568.0 L 639.0 568.0 Q 631.0 568.0 631.0 560.0 L 631.0 159.4 Q 631.0 151.4 623.0 151.4 L 567.0 151.4" fill="none" stroke="#475569" stroke-width="1.25" stroke-linecap="round" stroke-linejoin="round" marker-end="url(#marker-end-storage-serves-function-app)"/><text x="1573.0" y="402.0" text-anchor="middle" fill="none" font-size="15.4" font-weight="600" stroke="#ffffff" stroke-width="2">blob data</text><text x="1573.0" y="402.0" text-anchor="middle" fill="#374151" font-size="15.4" font-weight="600">blob data</text></g><g data-dediren-edge-id="key-vault-serves-function-app"><marker id="marker-end-key-vault-serves-function-app" data-dediren-edge-marker-end="open_arrow" markerWidth="10" markerHeight="10" refX="9" refY="5" orient="auto"><path d="M 1 1 L 9 5 L 1 9" fill="none" stroke="#475569" stroke-width="1.5"/></marker><path d="M 1673.0 236.0 L 1473.0 236.0 L 1417.0 236.0 Q 1409.0 236.0 1409.0 228.0 L 1409.0 224.0 Q 1409.0 216.0 1401.0 216.0 L 1225.0 216.0 Q 1217.0 216.0 1217.0 224.0 L 1217.0 560.0 Q 1217.0 568.0 1209.0 568.0 L 1153.0 568.0 L 1000.0 568.0 L 823.0 568.0 L 639.0 568.0 Q 631.0 568.0 631.0 560.0 L 631.0 159.4 Q 631.0 151.4 623.0 151.4 L 567.0 151.4" fill="none" stroke="#475569" stroke-width="1.25" stroke-linecap="round" stroke-linejoin="round" marker-end="url(#marker-end-key-vault-serves-function-app)"/><text x="1573.0" y="226.0" text-anchor="middle" fill="none" font-size="15.4" font-weight="600" stroke="#ffffff" stroke-width="2">secrets</text><text x="1573.0" y="226.0" text-anchor="middle" fill="#374151" font-size="15.4" font-weight="600">secrets</text></g><g data-dediren-edge-id="app-insights-serves-function-app"><marker id="marker-end-app-insights-serves-function-app" data-dediren-edge-marker-end="open_arrow" markerWidth="10" markerHeight="10" refX="9" refY="5" orient="auto"><path d="M 1 1 L 9 5 L 1 9" fill="none" stroke="#475569" stroke-width="1.5"/></marker><path d="M 2748.0 791.0 L 2620.0 791.0 L 2443.5 791.0 L 2291.0 791.0 L 2163.0 791.0 L 1345.0 791.0 L 1225.0 791.0 Q 1217.0 791.0 1217.0 783.0 L 1217.0 576.0 Q 1217.0 568.0 1209.0 568.0 L 1153.0 568.0 L 1000.0 568.0 L 823.0 568.0 L 639.0 568.0 Q 631.0 568.0 631.0 560.0 L 631.0 159.4 Q 631.0 151.4 623.0 151.4 L 567.0 151.4" fill="none" stroke="#475569" stroke-width="1.25" stroke-linecap="round" stroke-linejoin="round" marker-end="url(#marker-end-app-insights-serves-function-app)"/><text x="2684.0" y="781.0" text-anchor="middle" fill="none" font-size="15.4" font-weight="600" stroke="#ffffff" stroke-width="2">telemetry</text><text x="2684.0" y="781.0" text-anchor="middle" fill="#374151" font-size="15.4" font-weight="600">telemetry</text></g><g data-dediren-edge-id="log-analytics-aggregates-app-insights"><marker id="marker-start-log-analytics-aggregates-app-insights" data-dediren-edge-marker-start="hollow_diamond" markerWidth="10" markerHeight="10" refX="1" refY="5" orient="auto"><path d="M 1 5 L 5 1 L 9 5 L 5 9 Z" fill="#ffffff" stroke="#475569" stroke-width="1"/></marker><path d="M 2444.0 519.0 L 2444.0 575.0 Q 2444.0 583.0 2452.0 583.0 L 2826.0 583.0 Q 2834.0 583.0 2834.0 591.0 L 2834.0 758.5" fill="none" stroke="#475569" stroke-width="1.25" stroke-linecap="round" stroke-linejoin="round" marker-start="url(#marker-start-log-analytics-aggregates-app-insights)"/><text x="2639.0" y="601.0" text-anchor="middle" fill="none" font-size="15.4" font-weight="600" stroke="#ffffff" stroke-width="2">workspace</text><text x="2639.0" y="601.0" text-anchor="middle" fill="#374151" font-size="15.4" font-weight="600">workspace</text></g><g data-dediren-edge-id="log-analytics-aggregates-diagnostics"><marker id="marker-start-log-analytics-aggregates-diagnostics" data-dediren-edge-marker-start="hollow_diamond" markerWidth="10" markerHeight="10" refX="1" refY="5" orient="auto"><path d="M 1 5 L 5 1 L 9 5 L 5 9 Z" fill="#ffffff" stroke="#475569" stroke-width="1"/></marker><path d="M 2363.0 473.0 L 2291.0 473.0 L 2107.0 473.0 Q 2099.0 473.0 2099.0 481.0 L 2099.0 580.0 Q 2099.0 588.0 2091.0 588.0 L 2035.0 588.0 L 1835.0 588.0" fill="none" stroke="#475569" stroke-width="1.25" stroke-linecap="round" stroke-linejoin="round" marker-start="url(#marker-start-log-analytics-aggregates-diagnostics)"/><text x="2105.0" y="530.5" text-anchor="start" fill="none" font-size="15.4" font-weight="600" stroke="#ffffff" stroke-width="2">diagnostics</text><text x="2105.0" y="530.5" text-anchor="start" fill="#374151" font-size="15.4" font-weight="600">diagnostics</text></g><g data-dediren-edge-id="managed-identity-accesses-key-vault"><g data-dediren-line-jump-masks="managed-identity-accesses-key-vault"><path d="M 1211.0 459.0 Q 1217.0 453.0 1223.0 459.0" fill="none" stroke="#ffffff" stroke-width="6"/><path d="M 1281.0 386.0 Q 1287.0 392.0 1281.0 398.0" fill="none" stroke="#ffffff" stroke-width="6"/></g><path d="M 1081.0 459.0 L 1153.0 459.0 L 1211.0 459.0 Q 1217.0 453.0 1223.0 459.0 L 1273.0 459.0 Q 1281.0 459.0 1281.0 451.0 L 1281.0 398.0 Q 1287.0 392.0 1281.0 386.0 L 1281.0 292.0 Q 1281.0 284.0 1289.0 284.0 L 1473.0 284.0 L 1601.0 284.0 Q 1609.0 284.0 1609.0 276.0 L 1609.0 261.0 Q 1609.0 253.0 1617.0 253.0 L 1673.0 253.0" fill="none" stroke="#475569" stroke-width="1.25" stroke-linecap="round" stroke-linejoin="round"/><text x="1287.0" y="371.5" text-anchor="start" fill="none" font-size="15.4" font-weight="600" stroke="#ffffff" stroke-width="2">Secrets User</text><text x="1287.0" y="371.5" text-anchor="start" fill="#374151" font-size="15.4" font-weight="600">Secrets User</text></g><g data-dediren-edge-id="managed-identity-accesses-cosmos"><g data-dediren-line-jump-masks="managed-identity-accesses-cosmos"><path d="M 1211.0 459.0 Q 1217.0 453.0 1223.0 459.0" fill="none" stroke="#ffffff" stroke-width="6"/><path d="M 1281.0 562.0 Q 1287.0 568.0 1281.0 574.0" fill="none" stroke="#ffffff" stroke-width="6"/></g><path d="M 1081.0 459.0 L 1153.0 459.0 L 1211.0 459.0 Q 1217.0 453.0 1223.0 459.0 L 1273.0 459.0 Q 1281.0 459.0 1281.0 467.0 L 1281.0 562.0 Q 1287.0 568.0 1281.0 574.0 L 1281.0 628.0 Q 1281.0 636.0 1289.0 636.0 L 1473.0 636.0 L 1601.0 636.0 Q 1609.0 636.0 1609.0 628.0 L 1609.0 613.0 Q 1609.0 605.0 1617.0 605.0 L 1673.0 605.0" fill="none" stroke="#475569" stroke-width="1.25" stroke-linecap="round" stroke-linejoin="round"/><text x="1315.0" y="547.5" text-anchor="start" fill="none" font-size="15.4" font-weight="600" stroke="#ffffff" stroke-width="2">Data Contributor</text><text x="1315.0" y="547.5" text-anchor="start" fill="#374151" font-size="15.4" font-weight="600">Data Contributor</text></g><g data-dediren-edge-id="managed-identity-accesses-storage"><g data-dediren-line-jump-masks="managed-identity-accesses-storage"><path d="M 1211.0 459.0 Q 1217.0 453.0 1223.0 459.0" fill="none" stroke="#ffffff" stroke-width="6"/></g><path d="M 1081.0 459.0 L 1153.0 459.0 L 1211.0 459.0 Q 1217.0 453.0 1223.0 459.0 L 1281.0 459.0 L 1281.0 460.0 L 1473.0 460.0 L 1601.0 460.0 Q 1609.0 460.0 1609.0 452.0 L 1609.0 437.0 Q 1609.0 429.0 1617.0 429.0 L 1673.0 429.0" fill="none" stroke="#475569" stroke-width="1.25" stroke-linecap="round" stroke-linejoin="round"/><text x="1641.0" y="503.0" text-anchor="middle" fill="none" font-size="15.4" font-weight="600" stroke="#ffffff" stroke-width="2">Blob/Queue/Table roles</text><text x="1641.0" y="503.0" text-anchor="middle" fill="#374151" font-size="15.4" font-weight="600">Blob/Queue/Table roles</text></g><g data-dediren-edge-id="managed-identity-accesses-app-insights"><g data-dediren-line-jump-masks="managed-identity-accesses-app-insights"><path d="M 1211.0 459.0 Q 1217.0 453.0 1223.0 459.0" fill="none" stroke="#ffffff" stroke-width="6"/><path d="M 1281.0 562.0 Q 1287.0 568.0 1281.0 574.0" fill="none" stroke="#ffffff" stroke-width="6"/><path d="M 1281.0 785.0 Q 1287.0 791.0 1281.0 797.0" fill="none" stroke="#ffffff" stroke-width="6"/></g><path d="M 1081.0 459.0 L 1153.0 459.0 L 1211.0 459.0 Q 1217.0 453.0 1223.0 459.0 L 1273.0 459.0 Q 1281.0 459.0 1281.0 467.0 L 1281.0 562.0 Q 1287.0 568.0 1281.0 574.0 L 1281.0 785.0 Q 1287.0 791.0 1281.0 797.0 L 1281.0 848.0 Q 1281.0 856.0 1289.0 856.0 L 1345.0 856.0 L 2163.0 856.0 L 2291.0 856.0 L 2443.5 856.0 L 2620.0 856.0 L 2676.0 856.0 Q 2684.0 856.0 2684.0 848.0 L 2684.0 816.0 Q 2684.0 808.0 2692.0 808.0 L 2748.0 808.0" fill="none" stroke="#475569" stroke-width="1.25" stroke-linecap="round" stroke-linejoin="round"/><text x="2678.0" y="832.0" text-anchor="end" fill="none" font-size="15.4" font-weight="600" stroke="#ffffff" stroke-width="2">Metrics Publisher</text><text x="2678.0" y="832.0" text-anchor="end" fill="#374151" font-size="15.4" font-weight="600">Metrics Publisher</text></g><g data-dediren-edge-id="cosmos-throttle-alert-monitors-cosmos"><path d="M 2363.0 687.0 L 2291.0 687.0 L 2235.0 687.0 Q 2227.0 687.0 2227.0 679.0 L 2227.0 644.0 Q 2227.0 636.0 2219.0 636.0 L 2035.0 636.0 L 1907.0 636.0 Q 1899.0 636.0 1899.0 628.0 L 1899.0 613.0 Q 1899.0 605.0 1891.0 605.0 L 1835.0 605.0" fill="none" stroke="#475569" stroke-width="1.25" stroke-linecap="round" stroke-linejoin="round"/><text x="2221.0" y="661.5" text-anchor="end" fill="none" font-size="15.4" font-weight="600" stroke="#ffffff" stroke-width="2">monitors 429s</text><text x="2221.0" y="661.5" text-anchor="end" fill="#374151" font-size="15.4" font-weight="600">monitors 429s</text></g><g data-dediren-node-id="static-web-apps"><rect data-dediren-node-shape="archimate_rectangle" x="325.5" y="760.0" width="160.0" height="80.0" rx="0" fill="#d5e8d4" stroke="#4d7c0f" stroke-width="1.25"/><g data-dediren-node-decorator="archimate_technology_node" data-dediren-icon-kind="node" data-dediren-icon-size="22"><rect x="457.5" y="773.0" width="18.0" height="12.8" rx="1.5" fill="#d5e8d4" stroke="#4d7c0f" stroke-width="1.25"/><path data-dediren-icon-part="node-3d-edges" d="M 457.5 773.0 L 461.5 769.0 L 479.5 769.0 L 475.5 773.0 M 475.5 773.0 L 479.5 769.0 M 475.5 785.7 L 479.5 781.8 M 479.5 769.0 L 479.5 781.8" fill="none" stroke="#4d7c0f" stroke-width="1.25" stroke-linejoin="round"/></g><text x="405.5" y="807.5" text-anchor="middle" dominant-baseline="middle" fill="#365314" font-size="14.0"><tspan x="405.5" dy="0" textLength="75.4" lengthAdjust="spacing">Azure Static</tspan><tspan x="405.5" dy="16.0" textLength="64.5" lengthAdjust="spacing">Web Apps</tspan></text></g><g data-dediren-node-id="function-app"><rect data-dediren-node-shape="archimate_rectangle" x="406.0" y="57.7" width="160.0" height="128.0" rx="0" fill="#d5e8d4" stroke="#4d7c0f" stroke-width="1.25"/><g data-dediren-node-decorator="archimate_technology_node" data-dediren-icon-kind="node" data-dediren-icon-size="22"><rect x="538.0" y="70.7" width="18.0" height="12.8" rx="1.5" fill="#d5e8d4" stroke="#4d7c0f" stroke-width="1.25"/><path data-dediren-icon-part="node-3d-edges" d="M 538.0 70.7 L 542.0 66.7 L 560.0 66.7 L 556.0 70.7 M 556.0 70.7 L 560.0 66.7 M 556.0 83.4 L 560.0 79.5 M 560.0 66.7 L 560.0 79.5" fill="none" stroke="#4d7c0f" stroke-width="1.25" stroke-linejoin="round"/></g><text x="486.0" y="129.1" text-anchor="middle" dominant-baseline="middle" fill="#365314" font-size="14.0"><tspan x="486.0" dy="0" textLength="36.5" lengthAdjust="spacing">Azure</tspan><tspan x="486.0" dy="16.0" textLength="82.4" lengthAdjust="spacing">Function App</tspan></text></g><g data-dediren-node-id="app-service-plan"><rect data-dediren-node-shape="archimate_rectangle" x="52.0" y="81.7" width="160.0" height="80.0" rx="0" fill="#d5e8d4" stroke="#4d7c0f" stroke-width="1.25"/><g data-dediren-node-decorator="archimate_technology_node" data-dediren-icon-kind="node" data-dediren-icon-size="22"><rect x="184.0" y="94.7" width="18.0" height="12.8" rx="1.5" fill="#d5e8d4" stroke="#4d7c0f" stroke-width="1.25"/><path data-dediren-icon-part="node-3d-edges" d="M 184.0 94.7 L 188.0 90.7 L 206.0 90.7 L 202.0 94.7 M 202.0 94.7 L 206.0 90.7 M 202.0 107.4 L 206.0 103.5 M 206.0 90.7 L 206.0 103.5" fill="none" stroke="#4d7c0f" stroke-width="1.25" stroke-linejoin="round"/></g><text x="132.0" y="129.1" text-anchor="middle" dominant-baseline="middle" fill="#365314" font-size="14.0"><tspan x="132.0" dy="0" textLength="75.4" lengthAdjust="spacing">App Service</tspan><tspan x="132.0" dy="16.0" textLength="58.3" lengthAdjust="spacing">Plan (Y1)</tspan></text></g><g data-dediren-node-id="functions-runtime"><rect data-dediren-node-shape="archimate_rectangle" x="920.0" y="228.0" width="160.0" height="90.0" rx="0" fill="#d5e8d4" stroke="#4d7c0f" stroke-width="1.25"/><g data-dediren-node-decorator="archimate_system_software" data-dediren-icon-kind="system_software" data-dediren-icon-size="22"><ellipse data-dediren-icon-part="system-software-disks" cx="1064.8" cy="244.9" rx="5.7" ry="5.7" fill="none" stroke="#4d7c0f" stroke-width="1.25"/><ellipse data-dediren-icon-part="system-software-disks" cx="1060.4" cy="248.0" rx="5.7" ry="5.7" fill="#d5e8d4" stroke="#4d7c0f" stroke-width="1.25"/></g><text x="1000.0" y="272.4" text-anchor="middle" dominant-baseline="middle" fill="#365314" font-size="14.0"><tspan x="1000.0" dy="0" textLength="36.5" lengthAdjust="spacing">Azure</tspan><tspan x="1000.0" dy="16.0" textLength="60.6" lengthAdjust="spacing">Functions</tspan><tspan x="1000.0" dy="16.0" textLength="46.6" lengthAdjust="spacing">runtime</tspan></text></g><g data-dediren-node-id="managed-identity"><rect data-dediren-node-shape="archimate_rounded_rectangle" x="920.0" y="414.0" width="160.0" height="90.0" rx="6" fill="#d5e8d4" stroke="#4d7c0f" stroke-width="1.25"/><g data-dediren-node-decorator="archimate_technology_service" data-dediren-icon-kind="service" data-dediren-icon-size="22"><rect x="1052.0" y="425.6" width="22.0" height="11.0" rx="4.0" fill="#d5e8d4" stroke="#4d7c0f" stroke-width="1.25"/></g><text x="1000.0" y="458.4" text-anchor="middle" dominant-baseline="middle" fill="#365314" font-size="14.0"><tspan x="1000.0" dy="0" textLength="82.4" lengthAdjust="spacing">Function App</tspan><tspan x="1000.0" dy="16.0" textLength="58.3" lengthAdjust="spacing">managed</tspan><tspan x="1000.0" dy="16.0" textLength="44.3" lengthAdjust="spacing">identity</tspan></text></g><g data-dediren-node-id="cosmos-account"><rect data-dediren-node-shape="archimate_rectangle" x="1674.0" y="556.5" width="160.0" height="80.0" rx="0" fill="#d5e8d4" stroke="#4d7c0f" stroke-width="1.25"/><g data-dediren-node-decorator="archimate_technology_node" data-dediren-icon-kind="node" data-dediren-icon-size="22"><rect x="1806.0" y="569.5" width="18.0" height="12.8" rx="1.5" fill="#d5e8d4" stroke="#4d7c0f" stroke-width="1.25"/><path data-dediren-icon-part="node-3d-edges" d="M 1806.0 569.5 L 1810.0 565.5 L 1828.0 565.5 L 1824.0 569.5 M 1824.0 569.5 L 1828.0 565.5 M 1824.0 582.2 L 1828.0 578.3 M 1828.0 565.5 L 1828.0 578.3" fill="none" stroke="#4d7c0f" stroke-width="1.25" stroke-linejoin="round"/></g><text x="1754.0" y="604.0" text-anchor="middle" dominant-baseline="middle" fill="#365314" font-size="14.0"><tspan x="1754.0" dy="0" textLength="74.6" lengthAdjust="spacing">Cosmos DB</tspan><tspan x="1754.0" dy="16.0" textLength="49.0" lengthAdjust="spacing">account</tspan></text></g><g data-dediren-node-id="storage-account"><rect data-dediren-node-shape="archimate_rectangle" x="1674.0" y="380.5" width="160.0" height="80.0" rx="0" fill="#d5e8d4" stroke="#4d7c0f" stroke-width="1.25"/><g data-dediren-node-decorator="archimate_technology_node" data-dediren-icon-kind="node" data-dediren-icon-size="22"><rect x="1806.0" y="393.5" width="18.0" height="12.8" rx="1.5" fill="#d5e8d4" stroke="#4d7c0f" stroke-width="1.25"/><path data-dediren-icon-part="node-3d-edges" d="M 1806.0 393.5 L 1810.0 389.5 L 1828.0 389.5 L 1824.0 393.5 M 1824.0 393.5 L 1828.0 389.5 M 1824.0 406.2 L 1828.0 402.3 M 1828.0 389.5 L 1828.0 402.3" fill="none" stroke="#4d7c0f" stroke-width="1.25" stroke-linejoin="round"/></g><text x="1754.0" y="428.0" text-anchor="middle" dominant-baseline="middle" fill="#365314" font-size="14.0"><tspan x="1754.0" dy="0" textLength="49.0" lengthAdjust="spacing">Storage</tspan><tspan x="1754.0" dy="16.0" textLength="49.0" lengthAdjust="spacing">account</tspan></text></g><g data-dediren-node-id="key-vault"><rect data-dediren-node-shape="archimate_rectangle" x="1674.0" y="204.5" width="160.0" height="80.0" rx="0" fill="#d5e8d4" stroke="#4d7c0f" stroke-width="1.25"/><g data-dediren-node-decorator="archimate_technology_node" data-dediren-icon-kind="node" data-dediren-icon-size="22"><rect x="1806.0" y="217.5" width="18.0" height="12.8" rx="1.5" fill="#d5e8d4" stroke="#4d7c0f" stroke-width="1.25"/><path data-dediren-icon-part="node-3d-edges" d="M 1806.0 217.5 L 1810.0 213.5 L 1828.0 213.5 L 1824.0 217.5 M 1824.0 217.5 L 1828.0 213.5 M 1824.0 230.2 L 1828.0 226.3 M 1828.0 213.5 L 1828.0 226.3" fill="none" stroke="#4d7c0f" stroke-width="1.25" stroke-linejoin="round"/></g><text x="1754.0" y="260.0" text-anchor="middle" dominant-baseline="middle" fill="#365314" font-size="14.0" textLength="59.9" lengthAdjust="spacing">Key Vault</text></g><g data-dediren-node-id="application-insights"><rect data-dediren-node-shape="archimate_rectangle" x="2749.0" y="759.5" width="170.0" height="80.0" rx="0" fill="#d5e8d4" stroke="#4d7c0f" stroke-width="1.25"/><g data-dediren-node-decorator="archimate_technology_node" data-dediren-icon-kind="node" data-dediren-icon-size="22"><rect x="2891.0" y="772.5" width="18.0" height="12.8" rx="1.5" fill="#d5e8d4" stroke="#4d7c0f" stroke-width="1.25"/><path data-dediren-icon-part="node-3d-edges" d="M 2891.0 772.5 L 2895.0 768.5 L 2913.0 768.5 L 2909.0 772.5 M 2909.0 772.5 L 2913.0 768.5 M 2909.0 785.2 L 2913.0 781.3 M 2913.0 768.5 L 2913.0 781.3" fill="none" stroke="#4d7c0f" stroke-width="1.25" stroke-linejoin="round"/></g><text x="2834.0" y="807.0" text-anchor="middle" dominant-baseline="middle" fill="#365314" font-size="14.0"><tspan x="2834.0" dy="0" textLength="68.4" lengthAdjust="spacing">Application</tspan><tspan x="2834.0" dy="16.0" textLength="48.2" lengthAdjust="spacing">Insights</tspan></text></g><g data-dediren-node-id="log-analytics"><rect data-dediren-node-shape="archimate_rectangle" x="2364.0" y="428.0" width="160.0" height="90.0" rx="0" fill="#d5e8d4" stroke="#4d7c0f" stroke-width="1.25"/><g data-dediren-node-decorator="archimate_technology_node" data-dediren-icon-kind="node" data-dediren-icon-size="22"><rect x="2496.0" y="441.0" width="18.0" height="12.8" rx="1.5" fill="#d5e8d4" stroke="#4d7c0f" stroke-width="1.25"/><path data-dediren-icon-part="node-3d-edges" d="M 2496.0 441.0 L 2500.0 437.0 L 2518.0 437.0 L 2514.0 441.0 M 2514.0 441.0 L 2518.0 437.0 M 2514.0 453.7 L 2518.0 449.8 M 2518.0 437.0 L 2518.0 449.8" fill="none" stroke="#4d7c0f" stroke-width="1.25" stroke-linejoin="round"/></g><text x="2444.0" y="480.5" text-anchor="middle" dominant-baseline="middle" fill="#365314" font-size="14.0"><tspan x="2444.0" dy="0" textLength="83.2" lengthAdjust="spacing">Log Analytics</tspan><tspan x="2444.0" dy="16.0" textLength="66.9" lengthAdjust="spacing">workspace</tspan></text></g><g data-dediren-node-id="cosmos-throttle-alert"><rect data-dediren-node-shape="archimate_rounded_rectangle" x="2364.0" y="647.0" width="160.0" height="80.0" rx="6" fill="#d5e8d4" stroke="#4d7c0f" stroke-width="1.25"/><g data-dediren-node-decorator="archimate_technology_service" data-dediren-icon-kind="service" data-dediren-icon-size="22"><rect x="2496.0" y="658.6" width="22.0" height="11.0" rx="4.0" fill="#d5e8d4" stroke="#4d7c0f" stroke-width="1.25"/></g><text x="2444.0" y="694.5" text-anchor="middle" dominant-baseline="middle" fill="#365314" font-size="14.0"><tspan x="2444.0" dy="0" textLength="51.3" lengthAdjust="spacing">Cosmos</tspan><tspan x="2444.0" dy="16.0" textLength="73.9" lengthAdjust="spacing">throttle alert</tspan></text></g><g data-dediren-node-id="lfm-app"><rect data-dediren-node-shape="archimate_rectangle" x="679.5" y="760.0" width="160.0" height="80.0" rx="0" fill="#e0f2fe" stroke="#0369a1" stroke-width="1.25"/><g data-dediren-node-decorator="archimate_application_component" data-dediren-icon-kind="component" data-dediren-icon-size="22"><rect x="815.5" y="769.0" width="18.0" height="15.8" rx="1.5" fill="#e0f2fe" stroke="#0369a1" stroke-width="1.25"/><rect x="811.5" y="771.6" width="7.9" height="5.7" rx="1.2" fill="#e0f2fe" stroke="#0369a1" stroke-width="1.25"/><rect x="811.5" y="778.7" width="7.9" height="5.7" rx="1.2" fill="#e0f2fe" stroke="#0369a1" stroke-width="1.25"/></g><text x="759.5" y="815.5" text-anchor="middle" dominant-baseline="middle" fill="#0c4a6e" font-size="14.0" textLength="52.1" lengthAdjust="spacing">Lfm.App</text></g><g data-dediren-node-id="lfm-api"><rect data-dediren-node-shape="archimate_rectangle" x="920.0" y="52.0" width="160.0" height="80.0" rx="0" fill="#e0f2fe" stroke="#0369a1" stroke-width="1.25"/><g data-dediren-node-decorator="archimate_application_component" data-dediren-icon-kind="component" data-dediren-icon-size="22"><rect x="1056.0" y="61.0" width="18.0" height="15.8" rx="1.5" fill="#e0f2fe" stroke="#0369a1" stroke-width="1.25"/><rect x="1052.0" y="63.6" width="7.9" height="5.7" rx="1.2" fill="#e0f2fe" stroke="#0369a1" stroke-width="1.25"/><rect x="1052.0" y="70.7" width="7.9" height="5.7" rx="1.2" fill="#e0f2fe" stroke="#0369a1" stroke-width="1.25"/></g><text x="1000.0" y="107.5" text-anchor="middle" dominant-baseline="middle" fill="#0c4a6e" font-size="14.0" textLength="47.4" lengthAdjust="spacing">Lfm.Api</text></g></g></svg>

