<svg xmlns="http://www.w3.org/2000/svg" width="2680" height="2294" viewBox="-12.0 -9.0 2680.0 2294.0"><rect x="-12.0" y="-9.0" width="2680.0" height="2294.0" fill="#ffffff"/><g font-family="Inter, Arial, sans-serif" font-size="14"><g data-dediren-group-id="technology-data-plane-runtime-principal"><rect x="108.0" y="214.7" width="755.0" height="248.5" rx="4" fill="#f8fafc" stroke="#94a3b8" stroke-width="1"/><text x="116.0" y="230.7" fill="#374151" font-size="12">Runtime identity</text></g><g data-dediren-group-id="technology-data-plane-cosmos"><rect x="1247.0" y="944.0" width="1237.0" height="769.0" rx="4" fill="#f8fafc" stroke="#94a3b8" stroke-width="1"/><text x="1255.0" y="960.0" fill="#374151" font-size="12">Cosmos data store</text></g><g data-dediren-group-id="technology-data-plane-storage"><rect x="1247.0" y="79.0" width="883.0" height="769.0" rx="4" fill="#f8fafc" stroke="#94a3b8" stroke-width="1"/><text x="1255.0" y="95.0" fill="#374151" font-size="12">Blob storage</text></g><g data-dediren-group-id="technology-data-plane-secrets"><rect x="1247.0" y="1809.0" width="755.0" height="320.0" rx="4" fill="#f8fafc" stroke="#94a3b8" stroke-width="1"/><text x="1255.0" y="1825.0" fill="#374151" font-size="12">Secrets and cryptographic material</text></g><g data-dediren-edge-id="function-app-has-managed-identity"><path d="M 309.0 294.7 L 533.0 294.7" fill="none" stroke="#64748b" stroke-width="1.5" stroke-linecap="round" stroke-linejoin="round"/><text x="421.0" y="312.7" text-anchor="middle" fill="none" font-size="15.4" font-weight="600" stroke="#ffffff" stroke-width="2">identity</text><text x="421.0" y="312.7" text-anchor="middle" fill="#374151" font-size="15.4" font-weight="600">identity</text></g><g data-dediren-edge-id="cosmos-serves-function-app"><marker id="marker-end-cosmos-serves-function-app" data-dediren-edge-marker-end="open_arrow" markerWidth="10" markerHeight="10" refX="5" refY="5" orient="auto"><path d="M 1 1 L 9 5 L 1 9" fill="none" stroke="#2563eb" stroke-width="1.5"/></marker><path d="M 1415.0 1126.2 L 1359.0 1126.2 Q 1351.0 1126.2 1351.0 1118.2 L 1351.0 1008.0 Q 1351.0 1000.0 1359.0 1000.0 L 1496.0 1000.0 L 1673.0 1000.0 L 1850.0 1000.0 L 2187.0 1000.0 L 2363.5 1000.0 L 2516.0 1000.0 L 2636.0 1000.0 Q 2644.0 1000.0 2644.0 1008.0 L 2644.0 2253.0 Q 2644.0 2261.0 2636.0 2261.0 L 1865.5 2261.0 L 967.0 2261.0 Q 959.0 2261.0 959.0 2253.0 L 959.0 2201.0 Q 959.0 2193.0 951.0 2193.0 L 485.5 2193.0 L 20.0 2193.0 Q 12.0 2193.0 12.0 2185.0 L 12.0 415.2 Q 12.0 407.2 20.0 407.2 L 76.0 407.2 L 228.5 407.2 L 365.0 407.2 Q 373.0 407.2 373.0 399.2 L 373.0 319.7 Q 373.0 311.7 365.0 311.7 L 309.0 311.7" fill="none" stroke="#2563eb" stroke-width="1.5" stroke-linecap="round" stroke-linejoin="round" marker-end="url(#marker-end-cosmos-serves-function-app)"/><text x="1369.0" y="1116.2" text-anchor="middle" fill="none" font-size="15.4" font-weight="600" stroke="#ffffff" stroke-width="2">data plane</text><text x="1369.0" y="1116.2" text-anchor="middle" fill="#1e3a8a" font-size="15.4" font-weight="600">data plane</text></g><g data-dediren-edge-id="storage-serves-function-app"><marker id="marker-end-storage-serves-function-app" data-dediren-edge-marker-end="open_arrow" markerWidth="10" markerHeight="10" refX="5" refY="5" orient="auto"><path d="M 1 1 L 9 5 L 1 9" fill="none" stroke="#2563eb" stroke-width="1.5"/></marker><path d="M 1415.0 253.2 L 1359.0 253.2 Q 1351.0 253.2 1351.0 245.2 L 1351.0 143.0 Q 1351.0 135.0 1359.0 135.0 L 1496.0 135.0 L 1833.0 135.0 L 2009.5 135.0 L 2162.0 135.0 L 2572.0 135.0 Q 2580.0 135.0 2580.0 127.0 L 2580.0 23.0 Q 2580.0 15.0 2572.0 15.0 L 1865.5 15.0 L 485.5 15.0 L 20.0 15.0 Q 12.0 15.0 12.0 23.0 L 12.0 399.2 Q 12.0 407.2 20.0 407.2 L 76.0 407.2 L 228.5 407.2 L 365.0 407.2 Q 373.0 407.2 373.0 399.2 L 373.0 319.7 Q 373.0 311.7 365.0 311.7 L 309.0 311.7" fill="none" stroke="#2563eb" stroke-width="1.5" stroke-linecap="round" stroke-linejoin="round" marker-end="url(#marker-end-storage-serves-function-app)"/><text x="1369.0" y="243.2" text-anchor="middle" fill="none" font-size="15.4" font-weight="600" stroke="#ffffff" stroke-width="2">blob data</text><text x="1369.0" y="243.2" text-anchor="middle" fill="#1e3a8a" font-size="15.4" font-weight="600">blob data</text></g><g data-dediren-edge-id="key-vault-serves-function-app"><marker id="marker-end-key-vault-serves-function-app" data-dediren-edge-marker-end="open_arrow" markerWidth="10" markerHeight="10" refX="5" refY="5" orient="auto"><path d="M 1 1 L 9 5 L 1 9" fill="none" stroke="#2563eb" stroke-width="1.5"/></marker><path d="M 1415.0 1960.5 L 1359.0 1960.5 Q 1351.0 1960.5 1351.0 1952.5 L 1351.0 1873.0 Q 1351.0 1865.0 1359.0 1865.0 L 1496.0 1865.0 L 1673.0 1865.0 L 1881.5 1865.0 L 2034.0 1865.0 L 2572.0 1865.0 Q 2580.0 1865.0 2580.0 1873.0 L 2580.0 2185.0 Q 2580.0 2193.0 2572.0 2193.0 L 1865.5 2193.0 L 485.5 2193.0 L 20.0 2193.0 Q 12.0 2193.0 12.0 2185.0 L 12.0 415.2 Q 12.0 407.2 20.0 407.2 L 76.0 407.2 L 228.5 407.2 L 365.0 407.2 Q 373.0 407.2 373.0 399.2 L 373.0 319.7 Q 373.0 311.7 365.0 311.7 L 309.0 311.7" fill="none" stroke="#2563eb" stroke-width="1.5" stroke-linecap="round" stroke-linejoin="round" marker-end="url(#marker-end-key-vault-serves-function-app)"/><text x="1383.0" y="1950.5" text-anchor="middle" fill="none" font-size="15.4" font-weight="600" stroke="#ffffff" stroke-width="2">secrets</text><text x="1383.0" y="1950.5" text-anchor="middle" fill="#1e3a8a" font-size="15.4" font-weight="600">secrets</text></g><g data-dediren-edge-id="cosmos-composes-database"><path d="M 1577.0 1134.7 L 1769.0 1134.7" fill="none" stroke="#64748b" stroke-width="1.5" stroke-linecap="round" stroke-linejoin="round"/><text x="1673.0" y="1152.7" text-anchor="middle" fill="none" font-size="15.4" font-weight="600" stroke="#ffffff" stroke-width="2">database</text><text x="1673.0" y="1152.7" text-anchor="middle" fill="#374151" font-size="15.4" font-weight="600">database</text></g><g data-dediren-edge-id="database-composes-runs"><marker id="marker-start-database-composes-runs" data-dediren-edge-marker-start="filled_diamond" markerWidth="10" markerHeight="10" refX="5" refY="5" orient="auto"><path d="M 1 5 L 5 1 L 9 5 L 5 9 Z" fill="#475569" stroke="#475569" stroke-width="1"/></marker><path d="M 1931.0 1105.0 L 2283.0 1105.0" fill="none" stroke="#475569" stroke-width="1.5" stroke-linecap="round" stroke-linejoin="round" marker-start="url(#marker-start-database-composes-runs)"/><text x="2107.0" y="1123.0" text-anchor="middle" fill="none" font-size="15.4" font-weight="600" stroke="#ffffff" stroke-width="2">container</text><text x="2107.0" y="1123.0" text-anchor="middle" fill="#334155" font-size="15.4" font-weight="600">container</text></g><g data-dediren-edge-id="database-composes-raiders"><marker id="marker-start-database-composes-raiders" data-dediren-edge-marker-start="filled_diamond" markerWidth="10" markerHeight="10" refX="5" refY="5" orient="auto"><path d="M 1 5 L 5 1 L 9 5 L 5 9 Z" fill="#475569" stroke="#475569" stroke-width="1"/></marker><path d="M 1931.0 1124.8 L 2115.0 1124.8 Q 2123.0 1124.8 2123.0 1132.8 L 2123.0 1273.0 Q 2123.0 1281.0 2131.0 1281.0 L 2283.0 1281.0" fill="none" stroke="#475569" stroke-width="1.5" stroke-linecap="round" stroke-linejoin="round" marker-start="url(#marker-start-database-composes-raiders)"/><text x="2027.0" y="1170.8" text-anchor="middle" fill="none" font-size="15.4" font-weight="600" stroke="#ffffff" stroke-width="2">container</text><text x="2027.0" y="1170.8" text-anchor="middle" fill="#334155" font-size="15.4" font-weight="600">container</text></g><g data-dediren-edge-id="database-composes-guilds"><marker id="marker-start-database-composes-guilds" data-dediren-edge-marker-start="filled_diamond" markerWidth="10" markerHeight="10" refX="5" refY="5" orient="auto"><path d="M 1 5 L 5 1 L 9 5 L 5 9 Z" fill="#475569" stroke="#475569" stroke-width="1"/></marker><path d="M 1931.0 1144.6 L 2051.0 1144.6 Q 2059.0 1144.6 2059.0 1152.6 L 2059.0 1449.0 Q 2059.0 1457.0 2067.0 1457.0 L 2283.0 1457.0" fill="none" stroke="#475569" stroke-width="1.5" stroke-linecap="round" stroke-linejoin="round" marker-start="url(#marker-start-database-composes-guilds)"/><text x="1995.0" y="1134.6" text-anchor="middle" fill="none" font-size="15.4" font-weight="600" stroke="#ffffff" stroke-width="2">container</text><text x="1995.0" y="1134.6" text-anchor="middle" fill="#334155" font-size="15.4" font-weight="600">container</text></g><g data-dediren-edge-id="database-composes-idempotency"><marker id="marker-start-database-composes-idempotency" data-dediren-edge-marker-start="filled_diamond" markerWidth="10" markerHeight="10" refX="5" refY="5" orient="auto"><path d="M 1 5 L 5 1 L 9 5 L 5 9 Z" fill="#475569" stroke="#475569" stroke-width="1"/></marker><path d="M 1931.0 1164.4 L 1987.0 1164.4 Q 1995.0 1164.4 1995.0 1172.4 L 1995.0 1625.0 Q 1995.0 1633.0 2003.0 1633.0 L 2283.0 1633.0" fill="none" stroke="#475569" stroke-width="1.5" stroke-linecap="round" stroke-linejoin="round" marker-start="url(#marker-start-database-composes-idempotency)"/><text x="1977.0" y="1210.4" text-anchor="middle" fill="none" font-size="15.4" font-weight="600" stroke="#ffffff" stroke-width="2">container</text><text x="1977.0" y="1210.4" text-anchor="middle" fill="#334155" font-size="15.4" font-weight="600">container</text></g><g data-dediren-edge-id="storage-composes-wow-reference"><path d="M 1577.0 240.0 L 1929.0 240.0" fill="none" stroke="#64748b" stroke-width="1.5" stroke-linecap="round" stroke-linejoin="round"/><text x="1753.0" y="258.0" text-anchor="middle" fill="none" font-size="15.4" font-weight="600" stroke="#ffffff" stroke-width="2">blob container</text><text x="1753.0" y="258.0" text-anchor="middle" fill="#374151" font-size="15.4" font-weight="600">blob container</text></g><g data-dediren-edge-id="storage-composes-wow-media-cache"><path d="M 1577.0 259.8 L 1761.0 259.8 Q 1769.0 259.8 1769.0 267.8 L 1769.0 408.0 Q 1769.0 416.0 1777.0 416.0 L 1929.0 416.0" fill="none" stroke="#64748b" stroke-width="1.5" stroke-linecap="round" stroke-linejoin="round"/><text x="1673.0" y="305.8" text-anchor="middle" fill="none" font-size="15.4" font-weight="600" stroke="#ffffff" stroke-width="2">media cache path</text><text x="1673.0" y="305.8" text-anchor="middle" fill="#374151" font-size="15.4" font-weight="600">media cache path</text></g><g data-dediren-edge-id="storage-composes-data-protection"><path d="M 1577.0 279.6 L 1697.0 279.6 Q 1705.0 279.6 1705.0 287.6 L 1705.0 584.0 Q 1705.0 592.0 1713.0 592.0 L 1929.0 592.0" fill="none" stroke="#64748b" stroke-width="1.5" stroke-linecap="round" stroke-linejoin="round"/><text x="1641.0" y="353.6" text-anchor="middle" fill="none" font-size="15.4" font-weight="600" stroke="#ffffff" stroke-width="2">blob container</text><text x="1641.0" y="353.6" text-anchor="middle" fill="#374151" font-size="15.4" font-weight="600">blob container</text></g><g data-dediren-edge-id="storage-composes-deployments"><path d="M 1577.0 299.4 L 1633.0 299.4 Q 1641.0 299.4 1641.0 307.4 L 1641.0 760.0 Q 1641.0 768.0 1649.0 768.0 L 1929.0 768.0" fill="none" stroke="#64748b" stroke-width="1.5" stroke-linecap="round" stroke-linejoin="round"/><text x="1609.0" y="317.4" text-anchor="middle" fill="none" font-size="15.4" font-weight="600" stroke="#ffffff" stroke-width="2">blob container</text><text x="1609.0" y="317.4" text-anchor="middle" fill="#374151" font-size="15.4" font-weight="600">blob container</text></g><g data-dediren-edge-id="key-vault-composes-data-protection-key"><path d="M 1577.0 1969.0 L 1801.0 1969.0" fill="none" stroke="#64748b" stroke-width="1.5" stroke-linecap="round" stroke-linejoin="round"/><text x="1689.0" y="1987.0" text-anchor="middle" fill="none" font-size="15.4" font-weight="600" stroke="#ffffff" stroke-width="2">key</text><text x="1689.0" y="1987.0" text-anchor="middle" fill="#374151" font-size="15.4" font-weight="600">key</text></g><g data-dediren-edge-id="managed-identity-accesses-key-vault"><path d="M 695.0 286.2 L 895.0 286.2 L 1015.0 286.2 Q 1023.0 286.2 1023.0 294.2 L 1023.0 1969.5 Q 1023.0 1977.5 1031.0 1977.5 L 1215.0 1977.5 L 1415.0 1977.5" fill="none" stroke="#64748b" stroke-width="1.5" stroke-linecap="round" stroke-linejoin="round"/><text x="1315.0" y="1995.5" text-anchor="middle" fill="none" font-size="15.4" font-weight="600" stroke="#ffffff" stroke-width="2">Secrets User</text><text x="1315.0" y="1995.5" text-anchor="middle" fill="#374151" font-size="15.4" font-weight="600">Secrets User</text></g><g data-dediren-edge-id="managed-identity-accesses-cosmos"><path d="M 695.0 286.2 L 895.0 286.2 L 1015.0 286.2 Q 1023.0 286.2 1023.0 294.2 L 1023.0 1135.2 Q 1023.0 1143.2 1031.0 1143.2 L 1215.0 1143.2 L 1415.0 1143.2" fill="none" stroke="#64748b" stroke-width="1.5" stroke-linecap="round" stroke-linejoin="round"/><text x="1315.0" y="1161.2" text-anchor="middle" fill="none" font-size="15.4" font-weight="600" stroke="#ffffff" stroke-width="2">Data Contributor</text><text x="1315.0" y="1161.2" text-anchor="middle" fill="#374151" font-size="15.4" font-weight="600">Data Contributor</text></g><g data-dediren-edge-id="managed-identity-accesses-storage"><path d="M 695.0 286.2 L 895.0 286.2 L 1215.0 286.2 L 1415.0 286.2" fill="none" stroke="#64748b" stroke-width="1.5" stroke-linecap="round" stroke-linejoin="round"/><text x="1315.0" y="304.2" text-anchor="middle" fill="none" font-size="15.4" font-weight="600" stroke="#ffffff" stroke-width="2">Blob/Queue/Table roles</text><text x="1315.0" y="304.2" text-anchor="middle" fill="#374151" font-size="15.4" font-weight="600">Blob/Queue/Table roles</text></g><g data-dediren-edge-id="managed-identity-accesses-data-protection-key"><marker id="marker-end-managed-identity-accesses-data-protection-key" data-dediren-edge-marker-end="open_arrow" markerWidth="10" markerHeight="10" refX="5" refY="5" orient="auto"><path d="M 1 1 L 9 5 L 1 9" fill="none" stroke="#15803d" stroke-width="1.5"/></marker><path d="M 695.0 303.2 L 751.0 303.2 Q 759.0 303.2 759.0 311.2 L 759.0 326.2 Q 759.0 334.2 767.0 334.2 L 895.0 334.2 L 951.0 334.2 Q 959.0 334.2 959.0 342.2 L 959.0 2037.5 Q 959.0 2045.5 967.0 2045.5 L 1143.0 2045.5 Q 1151.0 2045.5 1151.0 2053.5 L 1151.0 2065.0 Q 1151.0 2073.0 1159.0 2073.0 L 1215.0 2073.0 L 1496.0 2073.0 L 1673.0 2073.0 L 1729.0 2073.0 Q 1737.0 2073.0 1737.0 2065.0 L 1737.0 1994.0 Q 1737.0 1986.0 1745.0 1986.0 L 1801.0 1986.0" fill="none" stroke="#15803d" stroke-width="1.5" stroke-linecap="round" stroke-linejoin="round" stroke-dasharray="8 5" marker-end="url(#marker-end-managed-identity-accesses-data-protection-key)"/><text x="727.0" y="377.2" text-anchor="middle" fill="none" font-size="15.4" font-weight="600" stroke="#ffffff" stroke-width="2">Crypto User</text><text x="727.0" y="377.2" text-anchor="middle" fill="#166534" font-size="15.4" font-weight="600">Crypto User</text></g><g data-dediren-node-id="function-app"><rect data-dediren-node-shape="archimate_rectangle" x="148.0" y="263.2" width="160.0" height="80.0" rx="0" fill="#ecfdf3" stroke="#16a34a" stroke-width="1.5"/><g data-dediren-node-decorator="archimate_technology_node" data-dediren-icon-kind="node" data-dediren-icon-size="22"><rect x="280.0" y="274.8" width="18.0" height="13.6" fill="#ecfdf3" stroke="#16a34a" stroke-width="1.5"/><path data-dediren-icon-part="node-3d-edges" d="M 294.1 272.2 L 302.0 272.2 L 302.0 285.0 M 298.0 274.8 L 302.0 272.2" fill="none" stroke="#16a34a" stroke-width="1.5"/></g><text x="228.0" y="307.9" text-anchor="middle" fill="#14532d">Azure Function App</text></g><g data-dediren-node-id="managed-identity"><rect data-dediren-node-shape="archimate_rounded_rectangle" x="534.0" y="254.7" width="160.0" height="80.0" rx="4" fill="#ecfdf3" stroke="#16a34a" stroke-width="1.5"/><g data-dediren-node-decorator="archimate_technology_service" data-dediren-icon-kind="service" data-dediren-icon-size="22"><rect x="666.0" y="266.3" width="22.0" height="11.0" rx="4.0" fill="#ecfdf3" stroke="#16a34a" stroke-width="1.5"/></g><text x="614.0" y="299.4" text-anchor="middle" fill="#14532d">Function App managed identity</text></g><g data-dediren-node-id="cosmos-account"><rect data-dediren-node-shape="archimate_rectangle" x="1416.0" y="1094.7" width="160.0" height="80.0" rx="0" fill="#ecfdf3" stroke="#16a34a" stroke-width="1.5"/><g data-dediren-node-decorator="archimate_technology_node" data-dediren-icon-kind="node" data-dediren-icon-size="22"><rect x="1548.0" y="1106.3" width="18.0" height="13.6" fill="#ecfdf3" stroke="#16a34a" stroke-width="1.5"/><path data-dediren-icon-part="node-3d-edges" d="M 1562.1 1103.7 L 1570.0 1103.7 L 1570.0 1116.5 M 1566.0 1106.3 L 1570.0 1103.7" fill="none" stroke="#16a34a" stroke-width="1.5"/></g><text x="1496.0" y="1139.4" text-anchor="middle" fill="#14532d">Cosmos DB account</text></g><g data-dediren-node-id="cosmos-database"><rect data-dediren-node-shape="archimate_rectangle" x="1770.0" y="1070.7" width="160.0" height="128.0" rx="0" fill="#f7fee7" stroke="#65a30d" stroke-width="1.5"/><g data-dediren-node-decorator="archimate_artifact" data-dediren-icon-kind="artifact" data-dediren-icon-size="22"><path data-dediren-icon-part="artifact" d="M 1902 1079.7 L 1924 1079.7 L 1913 1095.54 Z" fill="#f7fee7" stroke="#65a30d" stroke-width="1.5"/></g><text x="1850.0" y="1139.4" text-anchor="middle" fill="#365314">Cosmos SQL database</text></g><g data-dediren-node-id="cosmos-runs"><rect data-dediren-node-shape="archimate_rectangle" x="2284.0" y="1065.0" width="160.0" height="80.0" rx="0" fill="#f7fee7" stroke="#65a30d" stroke-width="1.5"/><g data-dediren-node-decorator="archimate_artifact" data-dediren-icon-kind="artifact" data-dediren-icon-size="22"><path data-dediren-icon-part="artifact" d="M 2416 1074 L 2438 1074 L 2427 1089.84 Z" fill="#f7fee7" stroke="#65a30d" stroke-width="1.5"/></g><text x="2364.0" y="1109.7" text-anchor="middle" fill="#365314">runs container</text></g><g data-dediren-node-id="cosmos-raiders"><rect data-dediren-node-shape="archimate_rectangle" x="2284.0" y="1241.0" width="160.0" height="80.0" rx="0" fill="#f7fee7" stroke="#65a30d" stroke-width="1.5"/><g data-dediren-node-decorator="archimate_artifact" data-dediren-icon-kind="artifact" data-dediren-icon-size="22"><path data-dediren-icon-part="artifact" d="M 2416 1250 L 2438 1250 L 2427 1265.84 Z" fill="#f7fee7" stroke="#65a30d" stroke-width="1.5"/></g><text x="2364.0" y="1285.7" text-anchor="middle" fill="#365314">raiders container</text></g><g data-dediren-node-id="cosmos-guilds"><rect data-dediren-node-shape="archimate_rectangle" x="2284.0" y="1417.0" width="160.0" height="80.0" rx="0" fill="#f7fee7" stroke="#65a30d" stroke-width="1.5"/><g data-dediren-node-decorator="archimate_artifact" data-dediren-icon-kind="artifact" data-dediren-icon-size="22"><path data-dediren-icon-part="artifact" d="M 2416 1426 L 2438 1426 L 2427 1441.84 Z" fill="#f7fee7" stroke="#65a30d" stroke-width="1.5"/></g><text x="2364.0" y="1461.7" text-anchor="middle" fill="#365314">guilds container</text></g><g data-dediren-node-id="cosmos-idempotency"><rect data-dediren-node-shape="archimate_rectangle" x="2284.0" y="1593.0" width="160.0" height="80.0" rx="0" fill="#f7fee7" stroke="#65a30d" stroke-width="1.5"/><g data-dediren-node-decorator="archimate_artifact" data-dediren-icon-kind="artifact" data-dediren-icon-size="22"><path data-dediren-icon-part="artifact" d="M 2416 1602 L 2438 1602 L 2427 1617.84 Z" fill="#f7fee7" stroke="#65a30d" stroke-width="1.5"/></g><text x="2364.0" y="1637.7" text-anchor="middle" fill="#365314">idempotency container</text></g><g data-dediren-node-id="storage-account"><rect data-dediren-node-shape="archimate_rectangle" x="1416.0" y="205.7" width="160.0" height="128.0" rx="0" fill="#ecfdf3" stroke="#16a34a" stroke-width="1.5"/><g data-dediren-node-decorator="archimate_technology_node" data-dediren-icon-kind="node" data-dediren-icon-size="22"><rect x="1548.0" y="217.3" width="18.0" height="13.6" fill="#ecfdf3" stroke="#16a34a" stroke-width="1.5"/><path data-dediren-icon-part="node-3d-edges" d="M 1562.1 214.7 L 1570.0 214.7 L 1570.0 227.5 M 1566.0 217.3 L 1570.0 214.7" fill="none" stroke="#16a34a" stroke-width="1.5"/></g><text x="1496.0" y="274.4" text-anchor="middle" fill="#14532d">Storage account</text></g><g data-dediren-node-id="wow-reference-container"><rect data-dediren-node-shape="archimate_rectangle" x="1930.0" y="200.0" width="160.0" height="80.0" rx="0" fill="#f7fee7" stroke="#65a30d" stroke-width="1.5"/><g data-dediren-node-decorator="archimate_artifact" data-dediren-icon-kind="artifact" data-dediren-icon-size="22"><path data-dediren-icon-part="artifact" d="M 2062 209 L 2084 209 L 2073 224.84 Z" fill="#f7fee7" stroke="#65a30d" stroke-width="1.5"/></g><text x="2010.0" y="244.7" text-anchor="middle" fill="#365314">wow reference blobs</text></g><g data-dediren-node-id="wow-media-cache-blobs"><rect data-dediren-node-shape="archimate_rectangle" x="1930.0" y="376.0" width="160.0" height="80.0" rx="0" fill="#f7fee7" stroke="#65a30d" stroke-width="1.5"/><g data-dediren-node-decorator="archimate_artifact" data-dediren-icon-kind="artifact" data-dediren-icon-size="22"><path data-dediren-icon-part="artifact" d="M 2062 385 L 2084 385 L 2073 400.84 Z" fill="#f7fee7" stroke="#65a30d" stroke-width="1.5"/></g><text x="2010.0" y="420.7" text-anchor="middle" fill="#365314">wow media-cache blobs</text></g><g data-dediren-node-id="data-protection-container"><rect data-dediren-node-shape="archimate_rectangle" x="1930.0" y="552.0" width="160.0" height="80.0" rx="0" fill="#f7fee7" stroke="#65a30d" stroke-width="1.5"/><g data-dediren-node-decorator="archimate_artifact" data-dediren-icon-kind="artifact" data-dediren-icon-size="22"><path data-dediren-icon-part="artifact" d="M 2062 561 L 2084 561 L 2073 576.84 Z" fill="#f7fee7" stroke="#65a30d" stroke-width="1.5"/></g><text x="2010.0" y="596.7" text-anchor="middle" fill="#365314">data-protection key ring blob</text></g><g data-dediren-node-id="deployment-container"><rect data-dediren-node-shape="archimate_rectangle" x="1930.0" y="728.0" width="160.0" height="80.0" rx="0" fill="#f7fee7" stroke="#65a30d" stroke-width="1.5"/><g data-dediren-node-decorator="archimate_artifact" data-dediren-icon-kind="artifact" data-dediren-icon-size="22"><path data-dediren-icon-part="artifact" d="M 2062 737 L 2084 737 L 2073 752.84 Z" fill="#f7fee7" stroke="#65a30d" stroke-width="1.5"/></g><text x="2010.0" y="772.7" text-anchor="middle" fill="#365314">deployments blob container</text></g><g data-dediren-node-id="key-vault"><rect data-dediren-node-shape="archimate_rectangle" x="1416.0" y="1929.0" width="160.0" height="80.0" rx="0" fill="#ecfdf3" stroke="#16a34a" stroke-width="1.5"/><g data-dediren-node-decorator="archimate_technology_node" data-dediren-icon-kind="node" data-dediren-icon-size="22"><rect x="1548.0" y="1940.6" width="18.0" height="13.6" fill="#ecfdf3" stroke="#16a34a" stroke-width="1.5"/><path data-dediren-icon-part="node-3d-edges" d="M 1562.1 1938.0 L 1570.0 1938.0 L 1570.0 1950.8 M 1566.0 1940.6 L 1570.0 1938.0" fill="none" stroke="#16a34a" stroke-width="1.5"/></g><text x="1496.0" y="1973.7" text-anchor="middle" fill="#14532d">Key Vault</text></g><g data-dediren-node-id="data-protection-key"><rect data-dediren-node-shape="archimate_rectangle" x="1802.0" y="1937.5" width="160.0" height="80.0" rx="0" fill="#f7fee7" stroke="#65a30d" stroke-width="1.5"/><g data-dediren-node-decorator="archimate_artifact" data-dediren-icon-kind="artifact" data-dediren-icon-size="22"><path data-dediren-icon-part="artifact" d="M 1934 1946.5 L 1956 1946.5 L 1945 1962.34 Z" fill="#f7fee7" stroke="#65a30d" stroke-width="1.5"/></g><text x="1882.0" y="1982.2" text-anchor="middle" fill="#365314">Data Protection key</text></g></g></svg>
