<svg xmlns="http://www.w3.org/2000/svg" width="1907" height="905" viewBox="-12.0 -12.0 1907.0 905.0"><rect x="-12.0" y="-12.0" width="1907.0" height="905.0" fill="#ffffff"/><g font-family="Inter, Arial, sans-serif" font-size="14"><g data-dediren-group-id="technology-observability-telemetry"><rect x="12.0" y="12.0" width="977.0" height="817.0" rx="4" fill="#f8fafc" stroke="#94a3b8" stroke-width="1"/><text x="20.0" y="28.0" fill="#374151" font-size="12">Telemetry pipeline</text></g><g data-dediren-group-id="technology-observability-cosmos-alerting"><rect x="1245.0" y="628.0" width="626.0" height="241.0" rx="4" fill="#f8fafc" stroke="#94a3b8" stroke-width="1"/><text x="1253.0" y="644.0" fill="#374151" font-size="12">Cosmos alerting</text></g><g data-dediren-edge-id="app-insights-serves-function-app"><marker id="marker-end-app-insights-serves-function-app" data-dediren-edge-marker-end="open_arrow" markerWidth="10" markerHeight="10" refX="5" refY="5" orient="auto"><path d="M 1 1 L 9 5 L 1 9" fill="none" stroke="#2563eb" stroke-width="1.5"/></marker><path d="M 517.0 411.0 L 517.0 467.0 Q 517.0 475.0 525.0 475.0 L 861.0 475.0 Q 869.0 475.0 869.0 483.0 L 869.0 539.0" fill="none" stroke="#2563eb" stroke-width="1.5" stroke-linecap="round" stroke-linejoin="round" marker-end="url(#marker-end-app-insights-serves-function-app)"/><text x="693.0" y="493.0" text-anchor="middle" fill="none" font-size="15.4" font-weight="600" stroke="#ffffff" stroke-width="2">telemetry</text><text x="693.0" y="493.0" text-anchor="middle" fill="#1e3a8a" font-size="15.4" font-weight="600">telemetry</text></g><g data-dediren-edge-id="log-analytics-aggregates-app-insights"><marker id="marker-start-log-analytics-aggregates-app-insights" data-dediren-edge-marker-start="hollow_diamond" markerWidth="10" markerHeight="10" refX="5" refY="5" orient="auto"><path d="M 1 5 L 5 1 L 9 5 L 5 9 Z" fill="#ffffff" stroke="#475569" stroke-width="1"/></marker><path d="M 132.0 725.0 L 132.0 781.0 Q 132.0 789.0 140.0 789.0 L 269.0 789.0 Q 277.0 789.0 277.0 781.0 L 277.0 273.0 Q 277.0 265.0 285.0 265.0 L 487.5 265.0 Q 495.5 265.0 495.5 273.0 L 495.5 329.0" fill="none" stroke="#475569" stroke-width="1.5" stroke-linecap="round" stroke-linejoin="round" marker-start="url(#marker-start-log-analytics-aggregates-app-insights)"/><text x="204.5" y="779.0" text-anchor="middle" fill="none" font-size="15.4" font-weight="600" stroke="#ffffff" stroke-width="2">workspace</text><text x="204.5" y="779.0" text-anchor="middle" fill="#334155" font-size="15.4" font-weight="600">workspace</text></g><g data-dediren-edge-id="log-analytics-aggregates-diagnostics"><marker id="marker-start-log-analytics-aggregates-diagnostics" data-dediren-edge-marker-start="hollow_diamond" markerWidth="10" markerHeight="10" refX="5" refY="5" orient="auto"><path d="M 1 5 L 5 1 L 9 5 L 5 9 Z" fill="#ffffff" stroke="#475569" stroke-width="1"/></marker><g data-dediren-line-jump-masks="log-analytics-aggregates-diagnostics"><path d="M 271.0 684.0 Q 277.0 678.0 283.0 684.0" fill="none" stroke="#ffffff" stroke-width="6"/></g><path d="M 213.0 684.0 L 271.0 684.0 Q 277.0 678.0 283.0 684.0 L 341.0 684.0 L 517.0 684.0 L 693.0 684.0 L 869.0 684.0 L 1021.0 684.0 L 1213.0 684.0 L 1365.5 684.0 L 1542.0 684.0 L 1598.0 684.0 Q 1606.0 684.0 1606.0 692.0 L 1606.0 764.0 Q 1606.0 772.0 1614.0 772.0 L 1670.0 772.0" fill="none" stroke="#475569" stroke-width="1.5" stroke-linecap="round" stroke-linejoin="round" marker-start="url(#marker-start-log-analytics-aggregates-diagnostics)"/><text x="277.0" y="702.0" text-anchor="middle" fill="none" font-size="15.4" font-weight="600" stroke="#ffffff" stroke-width="2">diagnostics</text><text x="277.0" y="702.0" text-anchor="middle" fill="#334155" font-size="15.4" font-weight="600">diagnostics</text></g><g data-dediren-edge-id="managed-identity-accesses-app-insights"><path d="M 132.5 133.0 L 132.5 189.0 Q 132.5 197.0 140.5 197.0 L 530.5 197.0 Q 538.5 197.0 538.5 205.0 L 538.5 329.0" fill="none" stroke="#64748b" stroke-width="1.5" stroke-linecap="round" stroke-linejoin="round"/><text x="335.5" y="215.0" text-anchor="middle" fill="none" font-size="15.4" font-weight="600" stroke="#ffffff" stroke-width="2">Metrics Publisher</text><text x="335.5" y="215.0" text-anchor="middle" fill="#374151" font-size="15.4" font-weight="600">Metrics Publisher</text></g><g data-dediren-edge-id="cosmos-throttle-alert-monitors-cosmos"><path d="M 1446.0 789.0 L 1670.0 789.0" fill="none" stroke="#64748b" stroke-width="1.5" stroke-linecap="round" stroke-linejoin="round"/><text x="1558.0" y="807.0" text-anchor="middle" fill="none" font-size="15.4" font-weight="600" stroke="#ffffff" stroke-width="2">monitors 429s</text><text x="1558.0" y="807.0" text-anchor="middle" fill="#374151" font-size="15.4" font-weight="600">monitors 429s</text></g><g data-dediren-node-id="function-app"><rect data-dediren-node-shape="archimate_rectangle" x="789.0" y="540.0" width="160.0" height="80.0" rx="0" fill="#ecfdf3" stroke="#16a34a" stroke-width="1.5"/><g data-dediren-node-decorator="archimate_technology_node" data-dediren-icon-kind="node" data-dediren-icon-size="22"><rect x="921.0" y="551.6" width="18.0" height="13.6" fill="#ecfdf3" stroke="#16a34a" stroke-width="1.5"/><path data-dediren-icon-part="node-3d-edges" d="M 935.1 549.0 L 943.0 549.0 L 943.0 561.8 M 939.0 551.6 L 943.0 549.0" fill="none" stroke="#16a34a" stroke-width="1.5"/></g><text x="869.0" y="584.7" text-anchor="middle" fill="#14532d">Azure Function App</text></g><g data-dediren-node-id="managed-identity"><rect data-dediren-node-shape="archimate_rounded_rectangle" x="52.5" y="52.0" width="160.0" height="80.0" rx="4" fill="#ecfdf3" stroke="#16a34a" stroke-width="1.5"/><g data-dediren-node-decorator="archimate_technology_service" data-dediren-icon-kind="service" data-dediren-icon-size="22"><rect x="184.5" y="63.6" width="22.0" height="11.0" rx="4.0" fill="#ecfdf3" stroke="#16a34a" stroke-width="1.5"/></g><text x="132.5" y="96.7" text-anchor="middle" fill="#14532d">Function App managed identity</text></g><g data-dediren-node-id="application-insights"><rect data-dediren-node-shape="archimate_rectangle" x="437.0" y="330.0" width="160.0" height="80.0" rx="0" fill="#ecfdf3" stroke="#16a34a" stroke-width="1.5"/><g data-dediren-node-decorator="archimate_technology_node" data-dediren-icon-kind="node" data-dediren-icon-size="22"><rect x="569.0" y="341.6" width="18.0" height="13.6" fill="#ecfdf3" stroke="#16a34a" stroke-width="1.5"/><path data-dediren-icon-part="node-3d-edges" d="M 583.1 339.0 L 591.0 339.0 L 591.0 351.8 M 587.0 341.6 L 591.0 339.0" fill="none" stroke="#16a34a" stroke-width="1.5"/></g><text x="517.0" y="374.7" text-anchor="middle" fill="#14532d">Application Insights</text></g><g data-dediren-node-id="log-analytics"><rect data-dediren-node-shape="archimate_rectangle" x="52.0" y="644.0" width="160.0" height="80.0" rx="0" fill="#ecfdf3" stroke="#16a34a" stroke-width="1.5"/><g data-dediren-node-decorator="archimate_technology_node" data-dediren-icon-kind="node" data-dediren-icon-size="22"><rect x="184.0" y="655.6" width="18.0" height="13.6" fill="#ecfdf3" stroke="#16a34a" stroke-width="1.5"/><path data-dediren-icon-part="node-3d-edges" d="M 198.1 653.0 L 206.0 653.0 L 206.0 665.8 M 202.0 655.6 L 206.0 653.0" fill="none" stroke="#16a34a" stroke-width="1.5"/></g><text x="132.0" y="688.7" text-anchor="middle" fill="#14532d">Log Analytics workspace</text></g><g data-dediren-node-id="cosmos-account"><rect data-dediren-node-shape="archimate_rectangle" x="1671.0" y="740.5" width="160.0" height="80.0" rx="0" fill="#ecfdf3" stroke="#16a34a" stroke-width="1.5"/><g data-dediren-node-decorator="archimate_technology_node" data-dediren-icon-kind="node" data-dediren-icon-size="22"><rect x="1803.0" y="752.1" width="18.0" height="13.6" fill="#ecfdf3" stroke="#16a34a" stroke-width="1.5"/><path data-dediren-icon-part="node-3d-edges" d="M 1817.1 749.5 L 1825.0 749.5 L 1825.0 762.3 M 1821.0 752.1 L 1825.0 749.5" fill="none" stroke="#16a34a" stroke-width="1.5"/></g><text x="1751.0" y="785.2" text-anchor="middle" fill="#14532d">Cosmos DB account</text></g><g data-dediren-node-id="cosmos-throttle-alert"><rect data-dediren-node-shape="archimate_rounded_rectangle" x="1285.0" y="749.0" width="160.0" height="80.0" rx="4" fill="#ecfdf3" stroke="#16a34a" stroke-width="1.5"/><g data-dediren-node-decorator="archimate_technology_service" data-dediren-icon-kind="service" data-dediren-icon-size="22"><rect x="1417.0" y="760.6" width="22.0" height="11.0" rx="4.0" fill="#ecfdf3" stroke="#16a34a" stroke-width="1.5"/></g><text x="1365.0" y="793.7" text-anchor="middle" fill="#14532d">Cosmos throttle alert</text></g></g></svg>
