<svg xmlns="http://www.w3.org/2000/svg" width="3497" height="1191" viewBox="-12.0 -12.0 3497.0 1191.3"><rect x="-12.0" y="-12.0" width="3497.0" height="1191.3" fill="#ffffff"/><g font-family="Inter, Arial, sans-serif" font-size="14.0"><g data-dediren-group-id="technology-usage-frontend-hosting"><rect x="188.0" y="76.0" width="594.0" height="160.0" rx="4.0" fill="#f8fafc" stroke="#94a3b8" stroke-width="1.0"/><text x="196.0" y="92.0" fill="#374151" font-size="12.0">Frontend hosting</text></g><g data-dediren-group-id="technology-usage-functions-hosting"><rect x="1246.0" y="183.3" width="1109.0" height="512.0" rx="4.0" fill="#f8fafc" stroke="#94a3b8" stroke-width="1.0"/><text x="1254.0" y="199.3" fill="#374151" font-size="12.0">Functions hosting and identity</text></g><g data-dediren-group-id="technology-usage-platform-dependencies"><rect x="2739.0" y="355.3" width="498.0" height="800.0" rx="4.0" fill="#f8fafc" stroke="#94a3b8" stroke-width="1.0"/><text x="2747.0" y="371.3" fill="#374151" font-size="12.0">Platform dependencies</text></g><g data-dediren-group-id="technology-usage-observability"><rect x="108.0" y="332.0" width="754.0" height="659.0" rx="4.0" fill="#f8fafc" stroke="#94a3b8" stroke-width="1.0"/><text x="116.0" y="348.0" fill="#374151" font-size="12.0">Observability and alerting</text></g><g data-dediren-edge-id="swa-hosts-app"><defs><marker id="marker-end-swa-hosts-app" data-dediren-edge-marker-end="open_arrow" markerWidth="9" markerHeight="9" refX="8" refY="4.5" orient="auto" markerUnits="strokeWidth"><path d="M 1 1 L 8 4.5 L 1 8" fill="none" stroke="#2563eb" stroke-width="1.3" stroke-linecap="round" stroke-linejoin="round"/></marker></defs><path d="M 389.0 156.0 L 581.0 156.0" fill="none" stroke="#2563eb" stroke-width="1.5" stroke-linecap="round" stroke-linejoin="round" marker-end="url(#marker-end-swa-hosts-app)"/><text x="485.0" y="147.6" text-anchor="middle" fill="#1e3a8a" stroke="#ffffff" stroke-width="4" stroke-linejoin="round" paint-order="stroke">hosts</text></g><g data-dediren-edge-id="function-app-hosts-api"><defs><marker id="marker-end-function-app-hosts-api" data-dediren-edge-marker-end="open_arrow" markerWidth="9" markerHeight="9" refX="8" refY="4.5" orient="auto" markerUnits="strokeWidth"><path d="M 1 1 L 8 4.5 L 1 8" fill="none" stroke="#2563eb" stroke-width="1.3" stroke-linecap="round" stroke-linejoin="round"/></marker></defs><path d="M 1801.0 263.3 L 2153.0 263.3" fill="none" stroke="#2563eb" stroke-width="1.5" stroke-linecap="round" stroke-linejoin="round" marker-end="url(#marker-end-function-app-hosts-api)"/><text x="1977.0" y="254.9" text-anchor="middle" fill="#1e3a8a" stroke="#ffffff" stroke-width="4" stroke-linejoin="round" paint-order="stroke">hosts</text></g><g data-dediren-edge-id="plan-serves-function-app"><defs><marker id="marker-end-plan-serves-function-app" data-dediren-edge-marker-end="open_arrow" markerWidth="9" markerHeight="9" refX="8" refY="4.5" orient="auto" markerUnits="strokeWidth"><path d="M 1 1 L 8 4.5 L 1 8" fill="none" stroke="#2563eb" stroke-width="1.3" stroke-linecap="round" stroke-linejoin="round"/></marker></defs><path d="M 1447.0 293.0 L 1639.0 293.0" fill="none" stroke="#2563eb" stroke-width="1.5" stroke-linecap="round" stroke-linejoin="round" marker-end="url(#marker-end-plan-serves-function-app)"/><text x="1543.0" y="284.6" text-anchor="middle" fill="#1e3a8a" stroke="#ffffff" stroke-width="4" stroke-linejoin="round" paint-order="stroke">hosts plan</text></g><g data-dediren-edge-id="function-app-composes-runtime"><defs><marker id="marker-start-function-app-composes-runtime" data-dediren-edge-marker-start="filled_diamond" markerWidth="10" markerHeight="10" refX="1" refY="5" orient="auto" markerUnits="strokeWidth"><path d="M 1 5 L 5 1 L 9 5 L 5 9 z" fill="#475569" stroke="#475569" stroke-width="1.1"/></marker></defs><path d="M 1801.0 283.1 L 1985.0 283.1 Q 1993.0 283.1 1993.0 291.1 L 1993.0 431.3 Q 1993.0 439.3 2001.0 439.3 L 2153.0 439.3" fill="none" stroke="#475569" stroke-width="1.5" stroke-linecap="round" stroke-linejoin="round" marker-start="url(#marker-start-function-app-composes-runtime)"/><text x="1897.0" y="281.9" text-anchor="middle" fill="#334155" stroke="#ffffff" stroke-width="4" stroke-linejoin="round" paint-order="stroke">runtime</text></g><g data-dediren-edge-id="function-app-has-managed-identity"><path d="M 1801.0 302.9 L 1921.0 302.9 Q 1929.0 302.9 1929.0 310.9 L 1929.0 607.3 Q 1929.0 615.3 1937.0 615.3 L 2153.0 615.3" fill="none" stroke="#64748b" stroke-width="1.5" stroke-linecap="round" stroke-linejoin="round"/><text x="1917.7" y="319.7" text-anchor="middle" fill="#374151" stroke="#ffffff" stroke-width="4" stroke-linejoin="round" paint-order="stroke">identity</text></g><g data-dediren-edge-id="cosmos-serves-function-app"><defs><marker id="marker-end-cosmos-serves-function-app" data-dediren-edge-marker-end="open_arrow" markerWidth="9" markerHeight="9" refX="8" refY="4.5" orient="auto" markerUnits="strokeWidth"><path d="M 1 1 L 8 4.5 L 1 8" fill="none" stroke="#2563eb" stroke-width="1.3" stroke-linecap="round" stroke-linejoin="round"/></marker></defs><path d="M 2907.0 922.8 L 2851.0 922.8 Q 2843.0 922.8 2843.0 930.8 L 2843.0 1091.3 Q 2843.0 1099.3 2851.0 1099.3 L 2988.0 1099.3 L 3269.0 1099.3 L 3453.0 1099.3 Q 3461.0 1099.3 3461.0 1091.3 L 3461.0 95.3 Q 3461.0 87.3 3453.0 87.3 L 2988.0 87.3 L 1800.5 87.3 L 1158.0 87.3 Q 1150.0 87.3 1150.0 95.3 L 1150.0 413.0 Q 1150.0 421.0 1158.0 421.0 L 1214.0 421.0 L 1366.5 421.0 L 1543.0 421.0 L 1720.0 421.0 L 1857.0 421.0 Q 1865.0 421.0 1865.0 413.0 L 1865.0 330.7 Q 1865.0 322.7 1857.0 322.7 L 1801.0 322.7" fill="none" stroke="#2563eb" stroke-width="1.5" stroke-linecap="round" stroke-linejoin="round" marker-end="url(#marker-end-cosmos-serves-function-app)"/><text x="2813.6" y="903.6" text-anchor="middle" fill="#1e3a8a" stroke="#ffffff" stroke-width="4" stroke-linejoin="round" paint-order="stroke">data plane</text></g><g data-dediren-edge-id="storage-serves-function-app"><defs><marker id="marker-end-storage-serves-function-app" data-dediren-edge-marker-end="open_arrow" markerWidth="9" markerHeight="9" refX="8" refY="4.5" orient="auto" markerUnits="strokeWidth"><path d="M 1 1 L 8 4.5 L 1 8" fill="none" stroke="#2563eb" stroke-width="1.3" stroke-linecap="round" stroke-linejoin="round"/></marker></defs><path d="M 2907.0 506.8 L 2851.0 506.8 Q 2843.0 506.8 2843.0 498.8 L 2843.0 419.3 Q 2843.0 411.3 2851.0 411.3 L 2988.0 411.3 L 3269.0 411.3 L 3325.0 411.3 Q 3333.0 411.3 3333.0 403.3 L 3333.0 231.3 Q 3333.0 223.3 3325.0 223.3 L 2988.0 223.3 L 2459.0 223.3 Q 2451.0 223.3 2451.0 215.3 L 2451.0 95.3 Q 2451.0 87.3 2443.0 87.3 L 1800.5 87.3 L 1158.0 87.3 Q 1150.0 87.3 1150.0 95.3 L 1150.0 413.0 Q 1150.0 421.0 1158.0 421.0 L 1214.0 421.0 L 1366.5 421.0 L 1543.0 421.0 L 1720.0 421.0 L 1857.0 421.0 Q 1865.0 421.0 1865.0 413.0 L 1865.0 330.7 Q 1865.0 322.7 1857.0 322.7 L 1801.0 322.7" fill="none" stroke="#2563eb" stroke-width="1.5" stroke-linecap="round" stroke-linejoin="round" marker-end="url(#marker-end-storage-serves-function-app)"/><text x="2817.9" y="498.4" text-anchor="middle" fill="#1e3a8a" stroke="#ffffff" stroke-width="4" stroke-linejoin="round" paint-order="stroke">blob data</text></g><g data-dediren-edge-id="key-vault-serves-function-app"><defs><marker id="marker-end-key-vault-serves-function-app" data-dediren-edge-marker-end="open_arrow" markerWidth="9" markerHeight="9" refX="8" refY="4.5" orient="auto" markerUnits="strokeWidth"><path d="M 1 1 L 8 4.5 L 1 8" fill="none" stroke="#2563eb" stroke-width="1.3" stroke-linecap="round" stroke-linejoin="round"/></marker></defs><path d="M 2907.0 714.8 L 2851.0 714.8 Q 2843.0 714.8 2843.0 706.8 L 2843.0 627.3 Q 2843.0 619.3 2851.0 619.3 L 2988.0 619.3 L 3269.0 619.3 L 3389.0 619.3 Q 3397.0 619.3 3397.0 611.3 L 3397.0 163.3 Q 3397.0 155.3 3389.0 155.3 L 2988.0 155.3 L 2459.0 155.3 Q 2451.0 155.3 2451.0 147.3 L 2451.0 95.3 Q 2451.0 87.3 2443.0 87.3 L 1800.5 87.3 L 1158.0 87.3 Q 1150.0 87.3 1150.0 95.3 L 1150.0 413.0 Q 1150.0 421.0 1158.0 421.0 L 1214.0 421.0 L 1366.5 421.0 L 1543.0 421.0 L 1720.0 421.0 L 1857.0 421.0 Q 1865.0 421.0 1865.0 413.0 L 1865.0 330.7 Q 1865.0 322.7 1857.0 322.7 L 1801.0 322.7" fill="none" stroke="#2563eb" stroke-width="1.5" stroke-linecap="round" stroke-linejoin="round" marker-end="url(#marker-end-key-vault-serves-function-app)"/><text x="2875.0" y="706.4" text-anchor="middle" fill="#1e3a8a" stroke="#ffffff" stroke-width="4" stroke-linejoin="round" paint-order="stroke">secrets</text></g><g data-dediren-edge-id="app-insights-serves-function-app"><defs><marker id="marker-end-app-insights-serves-function-app" data-dediren-edge-marker-end="open_arrow" markerWidth="9" markerHeight="9" refX="8" refY="4.5" orient="auto" markerUnits="strokeWidth"><path d="M 1 1 L 8 4.5 L 1 8" fill="none" stroke="#2563eb" stroke-width="1.3" stroke-linecap="round" stroke-linejoin="round"/></marker></defs><path d="M 661.0 613.5 L 605.0 613.5 Q 597.0 613.5 597.0 605.5 L 597.0 429.0 Q 597.0 421.0 605.0 421.0 L 741.5 421.0 L 894.0 421.0 L 1214.0 421.0 L 1366.5 421.0 L 1543.0 421.0 L 1720.0 421.0 L 1857.0 421.0 Q 1865.0 421.0 1865.0 413.0 L 1865.0 330.7 Q 1865.0 322.7 1857.0 322.7 L 1801.0 322.7" fill="none" stroke="#2563eb" stroke-width="1.5" stroke-linecap="round" stroke-linejoin="round" marker-end="url(#marker-end-app-insights-serves-function-app)"/><text x="571.9" y="605.1" text-anchor="middle" fill="#1e3a8a" stroke="#ffffff" stroke-width="4" stroke-linejoin="round" paint-order="stroke">telemetry</text></g><g data-dediren-edge-id="log-analytics-aggregates-app-insights"><defs><marker id="marker-start-log-analytics-aggregates-app-insights" data-dediren-edge-marker-start="hollow_diamond" markerWidth="10" markerHeight="10" refX="1" refY="5" orient="auto" markerUnits="strokeWidth"><path d="M 1 5 L 5 1 L 9 5 L 5 9 z" fill="#ffffff" stroke="#475569" stroke-width="1.1"/></marker></defs><g data-dediren-line-jump-masks="log-analytics-aggregates-app-insights"><path d="M 591.0 517.0 Q 597.0 511.0 603.0 517.0" fill="none" stroke="#ffffff" stroke-width="5.5" stroke-linecap="round" stroke-linejoin="round"/></g><path d="M 357.0 453.0 L 357.0 509.0 Q 357.0 517.0 365.0 517.0 L 591.0 517.0 Q 597.0 511.0 603.0 517.0 L 742.0 517.0 L 742.0 581.0" fill="none" stroke="#475569" stroke-width="1.5" stroke-linecap="round" stroke-linejoin="round" marker-start="url(#marker-start-log-analytics-aggregates-app-insights)"/><text x="549.5" y="533.8" text-anchor="middle" fill="#334155" stroke="#ffffff" stroke-width="4" stroke-linejoin="round" paint-order="stroke">workspace</text></g><g data-dediren-edge-id="log-analytics-aggregates-diagnostics"><defs><marker id="marker-start-log-analytics-aggregates-diagnostics" data-dediren-edge-marker-start="hollow_diamond" markerWidth="10" markerHeight="10" refX="1" refY="5" orient="auto" markerUnits="strokeWidth"><path d="M 1 5 L 5 1 L 9 5 L 5 9 z" fill="#ffffff" stroke="#475569" stroke-width="1.1"/></marker></defs><path d="M 276.0 412.0 L 220.0 412.0 Q 212.0 412.0 212.0 420.0 L 212.0 718.0 Q 212.0 726.0 220.0 726.0 L 356.5 726.0 L 533.0 726.0 L 741.5 726.0 L 894.0 726.0 L 950.0 726.0 Q 958.0 726.0 958.0 734.0 L 958.0 819.3 Q 958.0 827.3 966.0 827.3 L 1086.0 827.3 L 2515.0 827.3 L 2707.0 827.3 L 2988.0 827.3 L 3125.0 827.3 Q 3133.0 827.3 3133.0 835.3 L 3133.0 914.8 Q 3133.0 922.8 3125.0 922.8 L 3069.0 922.8" fill="none" stroke="#475569" stroke-width="1.5" stroke-linecap="round" stroke-linejoin="round" marker-start="url(#marker-start-log-analytics-aggregates-diagnostics)"/><text x="178.3" y="428.8" text-anchor="middle" fill="#334155" stroke="#ffffff" stroke-width="4" stroke-linejoin="round" paint-order="stroke">diagnostics</text></g><g data-dediren-edge-id="managed-identity-accesses-key-vault"><path d="M 2315.0 615.3 L 2387.0 615.3 L 2443.0 615.3 Q 2451.0 615.3 2451.0 623.3 L 2451.0 675.3 Q 2451.0 683.3 2459.0 683.3 L 2571.0 683.3 Q 2579.0 683.3 2579.0 691.3 L 2579.0 723.8 Q 2579.0 731.8 2587.0 731.8 L 2707.0 731.8 L 2907.0 731.8" fill="none" stroke="#64748b" stroke-width="1.5" stroke-linecap="round" stroke-linejoin="round"/><text x="2736.9" y="723.4" text-anchor="middle" fill="#374151" stroke="#ffffff" stroke-width="4" stroke-linejoin="round" paint-order="stroke">Secrets User</text></g><g data-dediren-edge-id="managed-identity-accesses-cosmos"><g data-dediren-line-jump-masks="managed-identity-accesses-cosmos"><path d="M 2451.0 821.3 Q 2457.0 827.3 2451.0 833.3" fill="none" stroke="#ffffff" stroke-width="5.5" stroke-linecap="round" stroke-linejoin="round"/><path d="M 2837.0 939.8 Q 2843.0 933.8 2849.0 939.8" fill="none" stroke="#ffffff" stroke-width="5.5" stroke-linecap="round" stroke-linejoin="round"/></g><path d="M 2315.0 615.3 L 2387.0 615.3 L 2443.0 615.3 Q 2451.0 615.3 2451.0 623.3 L 2451.0 821.3 Q 2457.0 827.3 2451.0 833.3 L 2451.0 892.3 L 2635.0 892.3 Q 2643.0 892.3 2643.0 900.3 L 2643.0 931.8 Q 2643.0 939.8 2651.0 939.8 L 2707.0 939.8 L 2837.0 939.8 Q 2843.0 933.8 2849.0 939.8 L 2907.0 939.8" fill="none" stroke="#64748b" stroke-width="1.5" stroke-linecap="round" stroke-linejoin="round"/><text x="2719.6" y="931.4" text-anchor="middle" fill="#374151" stroke="#ffffff" stroke-width="4" stroke-linejoin="round" paint-order="stroke">Data Contributor</text></g><g data-dediren-edge-id="managed-identity-accesses-storage"><path d="M 2315.0 615.3 L 2387.0 615.3 L 2571.0 615.3 Q 2579.0 615.3 2579.0 607.3 L 2579.0 531.8 Q 2579.0 523.8 2587.0 523.8 L 2707.0 523.8 L 2907.0 523.8" fill="none" stroke="#64748b" stroke-width="1.5" stroke-linecap="round" stroke-linejoin="round"/><text x="2807.0" y="533.4" text-anchor="middle" fill="#374151" stroke="#ffffff" stroke-width="4" stroke-linejoin="round" paint-order="stroke">Blob/Queue/Table roles</text></g><g data-dediren-edge-id="managed-identity-accesses-app-insights"><g data-dediren-line-jump-masks="managed-identity-accesses-app-insights"><path d="M 1022.0 427.0 Q 1028.0 421.0 1022.0 415.0" fill="none" stroke="#ffffff" stroke-width="5.5" stroke-linecap="round" stroke-linejoin="round"/><path d="M 206.0 630.5 Q 212.0 624.5 218.0 630.5" fill="none" stroke="#ffffff" stroke-width="5.5" stroke-linecap="round" stroke-linejoin="round"/></g><path d="M 2315.0 615.3 L 2387.0 615.3 L 2443.0 615.3 Q 2451.0 615.3 2451.0 623.3 L 2451.0 751.3 Q 2451.0 759.3 2443.0 759.3 L 1800.5 759.3 L 1030.0 759.3 Q 1022.0 759.3 1022.0 751.3 L 1022.0 427.0 Q 1028.0 421.0 1022.0 415.0 L 1022.0 12.0 L 485.0 12.0 L 20.0 12.0 Q 12.0 12.0 12.0 20.0 L 12.0 622.5 Q 12.0 630.5 20.0 630.5 L 76.0 630.5 L 206.0 630.5 Q 212.0 624.5 218.0 630.5 L 356.5 630.5 L 533.0 630.5 L 661.0 630.5" fill="none" stroke="#64748b" stroke-width="1.5" stroke-linecap="round" stroke-linejoin="round"/><text x="597.0" y="676.1" text-anchor="middle" fill="#374151" stroke="#ffffff" stroke-width="4" stroke-linejoin="round" paint-order="stroke">Metrics Publisher</text></g><g data-dediren-edge-id="cosmos-throttle-alert-monitors-cosmos"><g data-dediren-line-jump-masks="cosmos-throttle-alert-monitors-cosmos"><path d="M 2837.0 1035.3 Q 2843.0 1029.3 2849.0 1035.3" fill="none" stroke="#ffffff" stroke-width="5.5" stroke-linecap="round" stroke-linejoin="round"/></g><path d="M 661.0 831.0 L 605.0 831.0 Q 597.0 831.0 597.0 839.0 L 597.0 927.0 Q 597.0 935.0 605.0 935.0 L 741.5 935.0 L 894.0 935.0 L 950.0 935.0 Q 958.0 935.0 958.0 943.0 L 958.0 952.3 Q 958.0 960.3 966.0 960.3 L 1086.0 960.3 L 2515.0 960.3 L 2571.0 960.3 Q 2579.0 960.3 2579.0 968.3 L 2579.0 1027.3 Q 2579.0 1035.3 2587.0 1035.3 L 2707.0 1035.3 L 2837.0 1035.3 Q 2843.0 1029.3 2849.0 1035.3 L 2988.0 1035.3 L 3125.0 1035.3 Q 3133.0 1035.3 3133.0 1027.3 L 3133.0 947.8 Q 3133.0 939.8 3125.0 939.8 L 3069.0 939.8" fill="none" stroke="#64748b" stroke-width="1.5" stroke-linecap="round" stroke-linejoin="round"/><text x="554.6" y="847.8" text-anchor="middle" fill="#374151" stroke="#ffffff" stroke-width="4" stroke-linejoin="round" paint-order="stroke">monitors 429s</text></g><g data-dediren-node-id="static-web-apps"><rect data-dediren-node-shape="archimate_rectangle" x="228.0" y="116.0" width="160.0" height="80.0" rx="0" fill="#ecfdf3" stroke="#16a34a" stroke-width="1.5"/><g data-dediren-node-decorator="archimate_technology_node" data-dediren-icon-kind="node" data-dediren-icon-size="22"><rect x="360.0" y="129.0" width="18.0" height="12.8" rx="1.5" fill="#ecfdf3" stroke="#16a34a" stroke-width="1.5"/><path data-dediren-icon-part="node-3d-edges" d="M 360.0 129.0 L 364.0 125.0 L 382.0 125.0 L 378.0 129.0 M 378.0 129.0 L 382.0 125.0 M 378.0 141.7 L 382.0 137.8 M 382.0 125.0 L 382.0 137.8" fill="none" stroke="#16a34a" stroke-width="1.5" stroke-linejoin="round"/></g><text x="308.0" y="147.9" text-anchor="middle" dominant-baseline="middle" fill="#14532d" font-size="14.0"><tspan x="308.0" dy="0">Azure Static Web</tspan><tspan x="308.0" dy="16.0">Apps</tspan></text></g><g data-dediren-node-id="function-app"><rect data-dediren-node-shape="archimate_rectangle" x="1640.0" y="229.0" width="160.0" height="128.0" rx="0" fill="#ecfdf3" stroke="#16a34a" stroke-width="1.5"/><g data-dediren-node-decorator="archimate_technology_node" data-dediren-icon-kind="node" data-dediren-icon-size="22"><rect x="1772.0" y="242.0" width="18.0" height="12.8" rx="1.5" fill="#ecfdf3" stroke="#16a34a" stroke-width="1.5"/><path data-dediren-icon-part="node-3d-edges" d="M 1772.0 242.0 L 1776.0 238.0 L 1794.0 238.0 L 1790.0 242.0 M 1790.0 242.0 L 1794.0 238.0 M 1790.0 254.7 L 1794.0 250.8 M 1794.0 238.0 L 1794.0 250.8" fill="none" stroke="#16a34a" stroke-width="1.5" stroke-linejoin="round"/></g><text x="1720.0" y="284.9" text-anchor="middle" dominant-baseline="middle" fill="#14532d" font-size="14.0"><tspan x="1720.0" dy="0">Azure Function</tspan><tspan x="1720.0" dy="16.0">App</tspan></text></g><g data-dediren-node-id="app-service-plan"><rect data-dediren-node-shape="archimate_rectangle" x="1286.0" y="253.0" width="160.0" height="80.0" rx="0" fill="#ecfdf3" stroke="#16a34a" stroke-width="1.5"/><g data-dediren-node-decorator="archimate_technology_node" data-dediren-icon-kind="node" data-dediren-icon-size="22"><rect x="1418.0" y="266.0" width="18.0" height="12.8" rx="1.5" fill="#ecfdf3" stroke="#16a34a" stroke-width="1.5"/><path data-dediren-icon-part="node-3d-edges" d="M 1418.0 266.0 L 1422.0 262.0 L 1440.0 262.0 L 1436.0 266.0 M 1436.0 266.0 L 1440.0 262.0 M 1436.0 278.7 L 1440.0 274.8 M 1440.0 262.0 L 1440.0 274.8" fill="none" stroke="#16a34a" stroke-width="1.5" stroke-linejoin="round"/></g><text x="1366.0" y="284.9" text-anchor="middle" dominant-baseline="middle" fill="#14532d" font-size="14.0"><tspan x="1366.0" dy="0">App Service Plan</tspan><tspan x="1366.0" dy="16.0">(Y1)</tspan></text></g><g data-dediren-node-id="functions-runtime"><rect data-dediren-node-shape="archimate_rectangle" x="2154.0" y="399.3" width="160.0" height="80.0" rx="0" fill="#ecfdf3" stroke="#16a34a" stroke-width="1.5"/><g data-dediren-node-decorator="archimate_system_software" data-dediren-icon-kind="system_software" data-dediren-icon-size="22"><ellipse data-dediren-icon-part="system-software-disks" cx="2298.8" cy="416.2" rx="5.7" ry="5.7" fill="none" stroke="#16a34a" stroke-width="1.5"/><ellipse data-dediren-icon-part="system-software-disks" cx="2294.4" cy="419.3" rx="5.7" ry="5.7" fill="#ecfdf3" stroke="#16a34a" stroke-width="1.5"/></g><text x="2234.0" y="431.2" text-anchor="middle" dominant-baseline="middle" fill="#14532d" font-size="14.0"><tspan x="2234.0" dy="0">Azure Functions</tspan><tspan x="2234.0" dy="16.0">runtime</tspan></text></g><g data-dediren-node-id="managed-identity"><rect data-dediren-node-shape="archimate_rounded_rectangle" x="2154.0" y="575.3" width="160.0" height="80.0" rx="4.0" fill="#ecfdf3" stroke="#16a34a" stroke-width="1.5"/><g data-dediren-node-decorator="archimate_technology_service" data-dediren-icon-kind="service" data-dediren-icon-size="22"><rect x="2286.0" y="586.9" width="22.0" height="11.0" rx="4.0" fill="#ecfdf3" stroke="#16a34a" stroke-width="1.5"/></g><text x="2234.0" y="607.2" text-anchor="middle" dominant-baseline="middle" fill="#14532d" font-size="14.0"><tspan x="2234.0" dy="0">Function App</tspan><tspan x="2234.0" dy="16.0">managed identity</tspan></text></g><g data-dediren-node-id="cosmos-account"><rect data-dediren-node-shape="archimate_rectangle" x="2908.0" y="891.3" width="160.0" height="80.0" rx="0" fill="#ecfdf3" stroke="#16a34a" stroke-width="1.5"/><g data-dediren-node-decorator="archimate_technology_node" data-dediren-icon-kind="node" data-dediren-icon-size="22"><rect x="3040.0" y="904.3" width="18.0" height="12.8" rx="1.5" fill="#ecfdf3" stroke="#16a34a" stroke-width="1.5"/><path data-dediren-icon-part="node-3d-edges" d="M 3040.0 904.3 L 3044.0 900.3 L 3062.0 900.3 L 3058.0 904.3 M 3058.0 904.3 L 3062.0 900.3 M 3058.0 917.0 L 3062.0 913.1 M 3062.0 900.3 L 3062.0 913.1" fill="none" stroke="#16a34a" stroke-width="1.5" stroke-linejoin="round"/></g><text x="2988.0" y="923.2" text-anchor="middle" dominant-baseline="middle" fill="#14532d" font-size="14.0"><tspan x="2988.0" dy="0">Cosmos DB</tspan><tspan x="2988.0" dy="16.0">account</tspan></text></g><g data-dediren-node-id="storage-account"><rect data-dediren-node-shape="archimate_rectangle" x="2908.0" y="475.3" width="160.0" height="80.0" rx="0" fill="#ecfdf3" stroke="#16a34a" stroke-width="1.5"/><g data-dediren-node-decorator="archimate_technology_node" data-dediren-icon-kind="node" data-dediren-icon-size="22"><rect x="3040.0" y="488.3" width="18.0" height="12.8" rx="1.5" fill="#ecfdf3" stroke="#16a34a" stroke-width="1.5"/><path data-dediren-icon-part="node-3d-edges" d="M 3040.0 488.3 L 3044.0 484.3 L 3062.0 484.3 L 3058.0 488.3 M 3058.0 488.3 L 3062.0 484.3 M 3058.0 501.0 L 3062.0 497.1 M 3062.0 484.3 L 3062.0 497.1" fill="none" stroke="#16a34a" stroke-width="1.5" stroke-linejoin="round"/></g><text x="2988.0" y="515.3" text-anchor="middle" dominant-baseline="middle" fill="#14532d" font-size="14.0">Storage account</text></g><g data-dediren-node-id="key-vault"><rect data-dediren-node-shape="archimate_rectangle" x="2908.0" y="683.3" width="160.0" height="80.0" rx="0" fill="#ecfdf3" stroke="#16a34a" stroke-width="1.5"/><g data-dediren-node-decorator="archimate_technology_node" data-dediren-icon-kind="node" data-dediren-icon-size="22"><rect x="3040.0" y="696.3" width="18.0" height="12.8" rx="1.5" fill="#ecfdf3" stroke="#16a34a" stroke-width="1.5"/><path data-dediren-icon-part="node-3d-edges" d="M 3040.0 696.3 L 3044.0 692.3 L 3062.0 692.3 L 3058.0 696.3 M 3058.0 696.3 L 3062.0 692.3 M 3058.0 709.0 L 3062.0 705.1 M 3062.0 692.3 L 3062.0 705.1" fill="none" stroke="#16a34a" stroke-width="1.5" stroke-linejoin="round"/></g><text x="2988.0" y="723.3" text-anchor="middle" dominant-baseline="middle" fill="#14532d" font-size="14.0">Key Vault</text></g><g data-dediren-node-id="application-insights"><rect data-dediren-node-shape="archimate_rectangle" x="662.0" y="582.0" width="160.0" height="80.0" rx="0" fill="#ecfdf3" stroke="#16a34a" stroke-width="1.5"/><g data-dediren-node-decorator="archimate_technology_node" data-dediren-icon-kind="node" data-dediren-icon-size="22"><rect x="794.0" y="595.0" width="18.0" height="12.8" rx="1.5" fill="#ecfdf3" stroke="#16a34a" stroke-width="1.5"/><path data-dediren-icon-part="node-3d-edges" d="M 794.0 595.0 L 798.0 591.0 L 816.0 591.0 L 812.0 595.0 M 812.0 595.0 L 816.0 591.0 M 812.0 607.7 L 816.0 603.8 M 816.0 591.0 L 816.0 603.8" fill="none" stroke="#16a34a" stroke-width="1.5" stroke-linejoin="round"/></g><text x="742.0" y="614.0" text-anchor="middle" dominant-baseline="middle" fill="#14532d" font-size="14.0"><tspan x="742.0" dy="0">Application</tspan><tspan x="742.0" dy="16.0">Insights</tspan></text></g><g data-dediren-node-id="log-analytics"><rect data-dediren-node-shape="archimate_rectangle" x="277.0" y="372.0" width="160.0" height="80.0" rx="0" fill="#ecfdf3" stroke="#16a34a" stroke-width="1.5"/><g data-dediren-node-decorator="archimate_technology_node" data-dediren-icon-kind="node" data-dediren-icon-size="22"><rect x="409.0" y="385.0" width="18.0" height="12.8" rx="1.5" fill="#ecfdf3" stroke="#16a34a" stroke-width="1.5"/><path data-dediren-icon-part="node-3d-edges" d="M 409.0 385.0 L 413.0 381.0 L 431.0 381.0 L 427.0 385.0 M 427.0 385.0 L 431.0 381.0 M 427.0 397.7 L 431.0 393.8 M 431.0 381.0 L 431.0 393.8" fill="none" stroke="#16a34a" stroke-width="1.5" stroke-linejoin="round"/></g><text x="357.0" y="403.9" text-anchor="middle" dominant-baseline="middle" fill="#14532d" font-size="14.0"><tspan x="357.0" dy="0">Log Analytics</tspan><tspan x="357.0" dy="16.0">workspace</tspan></text></g><g data-dediren-node-id="cosmos-throttle-alert"><rect data-dediren-node-shape="archimate_rounded_rectangle" x="662.0" y="791.0" width="160.0" height="80.0" rx="4.0" fill="#ecfdf3" stroke="#16a34a" stroke-width="1.5"/><g data-dediren-node-decorator="archimate_technology_service" data-dediren-icon-kind="service" data-dediren-icon-size="22"><rect x="794.0" y="802.6" width="22.0" height="11.0" rx="4.0" fill="#ecfdf3" stroke="#16a34a" stroke-width="1.5"/></g><text x="742.0" y="823.0" text-anchor="middle" dominant-baseline="middle" fill="#14532d" font-size="14.0"><tspan x="742.0" dy="0">Cosmos throttle</tspan><tspan x="742.0" dy="16.0">alert</tspan></text></g><g data-dediren-node-id="lfm-app"><rect data-dediren-node-shape="archimate_rectangle" x="582.0" y="116.0" width="160.0" height="80.0" rx="0" fill="#e8f3ff" stroke="#2563eb" stroke-width="1.5"/><g data-dediren-node-decorator="archimate_application_component" data-dediren-icon-kind="component" data-dediren-icon-size="22"><rect x="718.0" y="125.0" width="18.0" height="15.8" rx="1.5" fill="#e8f3ff" stroke="#2563eb" stroke-width="1.5"/><rect x="714.0" y="127.6" width="7.9" height="5.7" rx="1.2" fill="#e8f3ff" stroke="#2563eb" stroke-width="1.5"/><rect x="714.0" y="134.7" width="7.9" height="5.7" rx="1.2" fill="#e8f3ff" stroke="#2563eb" stroke-width="1.5"/></g><text x="662.0" y="156.0" text-anchor="middle" dominant-baseline="middle" fill="#172554" font-size="14.0">Lfm.App</text></g><g data-dediren-node-id="lfm-api"><rect data-dediren-node-shape="archimate_rectangle" x="2154.0" y="223.3" width="160.0" height="80.0" rx="0" fill="#e8f3ff" stroke="#2563eb" stroke-width="1.5"/><g data-dediren-node-decorator="archimate_application_component" data-dediren-icon-kind="component" data-dediren-icon-size="22"><rect x="2290.0" y="232.3" width="18.0" height="15.8" rx="1.5" fill="#e8f3ff" stroke="#2563eb" stroke-width="1.5"/><rect x="2286.0" y="234.9" width="7.9" height="5.7" rx="1.2" fill="#e8f3ff" stroke="#2563eb" stroke-width="1.5"/><rect x="2286.0" y="242.0" width="7.9" height="5.7" rx="1.2" fill="#e8f3ff" stroke="#2563eb" stroke-width="1.5"/></g><text x="2234.0" y="263.3" text-anchor="middle" dominant-baseline="middle" fill="#172554" font-size="14.0">Lfm.Api</text></g></g></svg>
