<svg xmlns="http://www.w3.org/2000/svg" role="img" width="3523" height="1237" viewBox="-20 -52 3523 1269.3" data-arch-a11y="root" data-arch-a11y-viewbox="-20.0 -20.0 3523.0 1237.3"><title>LFM - Technology Usage Overview</title>
<desc>Which technology nodes and system software host the LFM applications?</desc>
<text data-arch-a11y="visible-title" x="-12" y="-32" font-family="sans-serif" font-size="16" font-weight="bold">LFM - Technology Usage Overview</text><rect x="-20.0" y="-20.0" width="3523.0" height="1237.3" fill="#ffffff"/><g font-family="Inter, &quot;Liberation Sans&quot;, &quot;Noto Sans&quot;, Arial, &quot;Helvetica Neue&quot;, &quot;Segoe UI&quot;, sans-serif" font-size="14"><g data-dediren-group-id="technology-usage-frontend-hosting"><rect x="193.0" y="76.0" width="594.0" height="160.0" rx="8" fill="#f8fafc" stroke="#94a3b8" stroke-width="1"/><text x="201.0" y="92.0" fill="#334155" font-size="12">Frontend hosting</text></g><g data-dediren-group-id="technology-usage-functions-hosting"><rect x="1256.0" y="193.3" width="1109.0" height="532.0" rx="8" fill="#f8fafc" stroke="#94a3b8" stroke-width="1"/><text x="1264.0" y="209.3" fill="#334155" font-size="12">Functions hosting and identity</text></g><g data-dediren-group-id="technology-usage-platform-dependencies"><rect x="2749.0" y="385.3" width="498.0" height="800.0" rx="8" fill="#f8fafc" stroke="#94a3b8" stroke-width="1"/><text x="2757.0" y="401.3" fill="#334155" font-size="12">Platform dependencies</text></g><g data-dediren-group-id="technology-usage-observability"><rect x="108.0" y="332.0" width="764.0" height="669.0" rx="8" fill="#f8fafc" stroke="#94a3b8" stroke-width="1"/><text x="116.0" y="348.0" fill="#334155" font-size="12">Observability and alerting</text></g><g data-dediren-edge-id="swa-hosts-app"><marker id="marker-end-swa-hosts-app" data-dediren-edge-marker-end="open_arrow" markerWidth="10" markerHeight="10" refX="5" refY="5" orient="auto"><path d="M 1 1 L 9 5 L 1 9" fill="none" stroke="#475569" stroke-width="1.5"/></marker><path d="M 394.0 156.0 L 586.0 156.0" fill="none" stroke="#475569" stroke-width="1.25" stroke-linecap="round" stroke-linejoin="round" marker-end="url(#marker-end-swa-hosts-app)"/><text x="490.0" y="174.0" text-anchor="middle" fill="none" font-size="15.4" font-weight="600" stroke="#ffffff" stroke-width="2">hosts</text><text x="490.0" y="174.0" text-anchor="middle" fill="#374151" font-size="15.4" font-weight="600">hosts</text></g><g data-dediren-edge-id="function-app-hosts-api"><marker id="marker-end-function-app-hosts-api" data-dediren-edge-marker-end="open_arrow" markerWidth="10" markerHeight="10" refX="5" refY="5" orient="auto"><path d="M 1 1 L 9 5 L 1 9" fill="none" stroke="#475569" stroke-width="1.5"/></marker><path d="M 1811.0 273.3 L 2163.0 273.3" fill="none" stroke="#475569" stroke-width="1.25" stroke-linecap="round" stroke-linejoin="round" marker-end="url(#marker-end-function-app-hosts-api)"/><text x="1987.0" y="263.3" text-anchor="middle" fill="none" font-size="15.4" font-weight="600" stroke="#ffffff" stroke-width="2">hosts</text><text x="1987.0" y="263.3" text-anchor="middle" fill="#374151" font-size="15.4" font-weight="600">hosts</text></g><g data-dediren-edge-id="plan-serves-function-app"><marker id="marker-end-plan-serves-function-app" data-dediren-edge-marker-end="open_arrow" markerWidth="10" markerHeight="10" refX="5" refY="5" orient="auto"><path d="M 1 1 L 9 5 L 1 9" fill="none" stroke="#475569" stroke-width="1.5"/></marker><path d="M 1457.0 303.0 L 1649.0 303.0" fill="none" stroke="#475569" stroke-width="1.25" stroke-linecap="round" stroke-linejoin="round" marker-end="url(#marker-end-plan-serves-function-app)"/><text x="1553.0" y="321.0" text-anchor="middle" fill="none" font-size="15.4" font-weight="600" stroke="#ffffff" stroke-width="2">hosts plan</text><text x="1553.0" y="321.0" text-anchor="middle" fill="#374151" font-size="15.4" font-weight="600">hosts plan</text></g><g data-dediren-edge-id="function-app-composes-runtime"><marker id="marker-start-function-app-composes-runtime" data-dediren-edge-marker-start="filled_diamond" markerWidth="10" markerHeight="10" refX="5" refY="5" orient="auto"><path d="M 1 5 L 5 1 L 9 5 L 5 9 Z" fill="#475569" stroke="#475569" stroke-width="1"/></marker><path d="M 1811.0 293.1 L 1995.0 293.1 Q 2003.0 293.1 2003.0 301.1 L 2003.0 446.3 Q 2003.0 454.3 2011.0 454.3 L 2163.0 454.3" fill="none" stroke="#475569" stroke-width="1.25" stroke-linecap="round" stroke-linejoin="round" marker-start="url(#marker-start-function-app-composes-runtime)"/><text x="1985.0" y="311.1" text-anchor="middle" fill="none" font-size="15.4" font-weight="600" stroke="#ffffff" stroke-width="2">runtime</text><text x="1985.0" y="311.1" text-anchor="middle" fill="#374151" font-size="15.4" font-weight="600">runtime</text></g><g data-dediren-edge-id="function-app-has-managed-identity"><path d="M 1811.0 312.9 L 1931.0 312.9 Q 1939.0 312.9 1939.0 320.9 L 1939.0 632.3 Q 1939.0 640.3 1947.0 640.3 L 2163.0 640.3" fill="none" stroke="#475569" stroke-width="1.25" stroke-linecap="round" stroke-linejoin="round"/><text x="1921.0" y="358.9" text-anchor="middle" fill="none" font-size="15.4" font-weight="600" stroke="#ffffff" stroke-width="2">identity</text><text x="1921.0" y="358.9" text-anchor="middle" fill="#374151" font-size="15.4" font-weight="600">identity</text></g><g data-dediren-edge-id="cosmos-serves-function-app"><marker id="marker-end-cosmos-serves-function-app" data-dediren-edge-marker-end="open_arrow" markerWidth="10" markerHeight="10" refX="5" refY="5" orient="auto"><path d="M 1 1 L 9 5 L 1 9" fill="none" stroke="#475569" stroke-width="1.5"/></marker><path d="M 2917.0 952.8 L 2861.0 952.8 Q 2853.0 952.8 2853.0 960.8 L 2853.0 1121.3 Q 2853.0 1129.3 2861.0 1129.3 L 2998.0 1129.3 L 3279.0 1129.3 L 3463.0 1129.3 Q 3471.0 1129.3 3471.0 1121.3 L 3471.0 105.3 Q 3471.0 97.3 3463.0 97.3 L 2998.0 97.3 L 1810.5 97.3 L 1168.0 97.3 Q 1160.0 97.3 1160.0 105.3 L 1160.0 423.0 Q 1160.0 431.0 1168.0 431.0 L 1224.0 431.0 L 1376.5 431.0 L 1553.0 431.0 L 1730.0 431.0 L 1867.0 431.0 Q 1875.0 431.0 1875.0 423.0 L 1875.0 340.7 Q 1875.0 332.7 1867.0 332.7 L 1811.0 332.7" fill="none" stroke="#475569" stroke-width="1.25" stroke-linecap="round" stroke-linejoin="round" marker-end="url(#marker-end-cosmos-serves-function-app)"/><text x="2871.0" y="942.8" text-anchor="middle" fill="none" font-size="15.4" font-weight="600" stroke="#ffffff" stroke-width="2">data plane</text><text x="2871.0" y="942.8" text-anchor="middle" fill="#374151" font-size="15.4" font-weight="600">data plane</text></g><g data-dediren-edge-id="storage-serves-function-app"><marker id="marker-end-storage-serves-function-app" data-dediren-edge-marker-end="open_arrow" markerWidth="10" markerHeight="10" refX="5" refY="5" orient="auto"><path d="M 1 1 L 9 5 L 1 9" fill="none" stroke="#475569" stroke-width="1.5"/></marker><path d="M 2917.0 536.8 L 2861.0 536.8 Q 2853.0 536.8 2853.0 528.8 L 2853.0 449.3 Q 2853.0 441.3 2861.0 441.3 L 2998.0 441.3 L 3279.0 441.3 L 3335.0 441.3 Q 3343.0 441.3 3343.0 433.3 L 3343.0 241.3 Q 3343.0 233.3 3335.0 233.3 L 2998.0 233.3 L 2469.0 233.3 Q 2461.0 233.3 2461.0 225.3 L 2461.0 105.3 Q 2461.0 97.3 2453.0 97.3 L 1810.5 97.3 L 1168.0 97.3 Q 1160.0 97.3 1160.0 105.3 L 1160.0 423.0 Q 1160.0 431.0 1168.0 431.0 L 1224.0 431.0 L 1376.5 431.0 L 1553.0 431.0 L 1730.0 431.0 L 1867.0 431.0 Q 1875.0 431.0 1875.0 423.0 L 1875.0 340.7 Q 1875.0 332.7 1867.0 332.7 L 1811.0 332.7" fill="none" stroke="#475569" stroke-width="1.25" stroke-linecap="round" stroke-linejoin="round" marker-end="url(#marker-end-storage-serves-function-app)"/><text x="2871.0" y="526.8" text-anchor="middle" fill="none" font-size="15.4" font-weight="600" stroke="#ffffff" stroke-width="2">blob data</text><text x="2871.0" y="526.8" text-anchor="middle" fill="#374151" font-size="15.4" font-weight="600">blob data</text></g><g data-dediren-edge-id="key-vault-serves-function-app"><marker id="marker-end-key-vault-serves-function-app" data-dediren-edge-marker-end="open_arrow" markerWidth="10" markerHeight="10" refX="5" refY="5" orient="auto"><path d="M 1 1 L 9 5 L 1 9" fill="none" stroke="#475569" stroke-width="1.5"/></marker><path d="M 2917.0 744.8 L 2861.0 744.8 Q 2853.0 744.8 2853.0 736.8 L 2853.0 657.3 Q 2853.0 649.3 2861.0 649.3 L 2998.0 649.3 L 3279.0 649.3 L 3399.0 649.3 Q 3407.0 649.3 3407.0 641.3 L 3407.0 173.3 Q 3407.0 165.3 3399.0 165.3 L 2998.0 165.3 L 2469.0 165.3 Q 2461.0 165.3 2461.0 157.3 L 2461.0 105.3 Q 2461.0 97.3 2453.0 97.3 L 1810.5 97.3 L 1168.0 97.3 Q 1160.0 97.3 1160.0 105.3 L 1160.0 423.0 Q 1160.0 431.0 1168.0 431.0 L 1224.0 431.0 L 1376.5 431.0 L 1553.0 431.0 L 1730.0 431.0 L 1867.0 431.0 Q 1875.0 431.0 1875.0 423.0 L 1875.0 340.7 Q 1875.0 332.7 1867.0 332.7 L 1811.0 332.7" fill="none" stroke="#475569" stroke-width="1.25" stroke-linecap="round" stroke-linejoin="round" marker-end="url(#marker-end-key-vault-serves-function-app)"/><text x="2885.0" y="734.8" text-anchor="middle" fill="none" font-size="15.4" font-weight="600" stroke="#ffffff" stroke-width="2">secrets</text><text x="2885.0" y="734.8" text-anchor="middle" fill="#374151" font-size="15.4" font-weight="600">secrets</text></g><g data-dediren-edge-id="app-insights-serves-function-app"><marker id="marker-end-app-insights-serves-function-app" data-dediren-edge-marker-end="open_arrow" markerWidth="10" markerHeight="10" refX="5" refY="5" orient="auto"><path d="M 1 1 L 9 5 L 1 9" fill="none" stroke="#475569" stroke-width="1.5"/></marker><path d="M 661.0 623.5 L 605.0 623.5 Q 597.0 623.5 597.0 615.5 L 597.0 439.0 Q 597.0 431.0 605.0 431.0 L 746.5 431.0 L 904.0 431.0 L 1224.0 431.0 L 1376.5 431.0 L 1553.0 431.0 L 1730.0 431.0 L 1867.0 431.0 Q 1875.0 431.0 1875.0 423.0 L 1875.0 340.7 Q 1875.0 332.7 1867.0 332.7 L 1811.0 332.7" fill="none" stroke="#475569" stroke-width="1.25" stroke-linecap="round" stroke-linejoin="round" marker-end="url(#marker-end-app-insights-serves-function-app)"/><text x="615.0" y="613.5" text-anchor="middle" fill="none" font-size="15.4" font-weight="600" stroke="#ffffff" stroke-width="2">telemetry</text><text x="615.0" y="613.5" text-anchor="middle" fill="#374151" font-size="15.4" font-weight="600">telemetry</text></g><g data-dediren-edge-id="log-analytics-aggregates-app-insights"><marker id="marker-start-log-analytics-aggregates-app-insights" data-dediren-edge-marker-start="hollow_diamond" markerWidth="10" markerHeight="10" refX="5" refY="5" orient="auto"><path d="M 1 5 L 5 1 L 9 5 L 5 9 Z" fill="#ffffff" stroke="#475569" stroke-width="1"/></marker><g data-dediren-line-jump-masks="log-analytics-aggregates-app-insights"><path d="M 591.0 527.0 Q 597.0 521.0 603.0 527.0" fill="none" stroke="#f8fafc" stroke-width="6"/></g><path d="M 357.0 463.0 L 357.0 519.0 Q 357.0 527.0 365.0 527.0 L 591.0 527.0 Q 597.0 521.0 603.0 527.0 L 739.0 527.0 Q 747.0 527.0 747.0 535.0 L 747.0 591.0" fill="none" stroke="#475569" stroke-width="1.25" stroke-linecap="round" stroke-linejoin="round" marker-start="url(#marker-start-log-analytics-aggregates-app-insights)"/><text x="375.0" y="545.0" text-anchor="middle" fill="none" font-size="15.4" font-weight="600" stroke="#ffffff" stroke-width="2">workspace</text><text x="375.0" y="545.0" text-anchor="middle" fill="#374151" font-size="15.4" font-weight="600">workspace</text></g><g data-dediren-edge-id="log-analytics-aggregates-diagnostics"><marker id="marker-start-log-analytics-aggregates-diagnostics" data-dediren-edge-marker-start="hollow_diamond" markerWidth="10" markerHeight="10" refX="5" refY="5" orient="auto"><path d="M 1 5 L 5 1 L 9 5 L 5 9 Z" fill="#ffffff" stroke="#475569" stroke-width="1"/></marker><path d="M 276.0 417.0 L 220.0 417.0 Q 212.0 417.0 212.0 425.0 L 212.0 728.0 Q 212.0 736.0 220.0 736.0 L 356.5 736.0 L 533.0 736.0 L 746.5 736.0 L 904.0 736.0 L 960.0 736.0 Q 968.0 736.0 968.0 744.0 L 968.0 849.3 Q 968.0 857.3 976.0 857.3 L 1096.0 857.3 L 2525.0 857.3 L 2717.0 857.3 L 2998.0 857.3 L 3135.0 857.3 Q 3143.0 857.3 3143.0 865.3 L 3143.0 944.8 Q 3143.0 952.8 3135.0 952.8 L 3079.0 952.8" fill="none" stroke="#475569" stroke-width="1.25" stroke-linecap="round" stroke-linejoin="round" marker-start="url(#marker-start-log-analytics-aggregates-diagnostics)"/><text x="244.0" y="491.0" text-anchor="middle" fill="none" font-size="15.4" font-weight="600" stroke="#ffffff" stroke-width="2">diagnostics</text><text x="244.0" y="491.0" text-anchor="middle" fill="#374151" font-size="15.4" font-weight="600">diagnostics</text></g><g data-dediren-edge-id="managed-identity-accesses-key-vault"><path d="M 2325.0 640.3 L 2397.0 640.3 L 2453.0 640.3 Q 2461.0 640.3 2461.0 648.3 L 2461.0 700.3 Q 2461.0 708.3 2469.0 708.3 L 2581.0 708.3 Q 2589.0 708.3 2589.0 716.3 L 2589.0 753.8 Q 2589.0 761.8 2597.0 761.8 L 2717.0 761.8 L 2917.0 761.8" fill="none" stroke="#475569" stroke-width="1.25" stroke-linecap="round" stroke-linejoin="round"/><text x="2817.0" y="779.8" text-anchor="middle" fill="none" font-size="15.4" font-weight="600" stroke="#ffffff" stroke-width="2">Secrets User</text><text x="2817.0" y="779.8" text-anchor="middle" fill="#374151" font-size="15.4" font-weight="600">Secrets User</text></g><g data-dediren-edge-id="managed-identity-accesses-cosmos"><g data-dediren-line-jump-masks="managed-identity-accesses-cosmos"><path d="M 2461.0 851.3 Q 2467.0 857.3 2461.0 863.3" fill="none" stroke="#ffffff" stroke-width="6"/><path d="M 2847.0 969.8 Q 2853.0 963.8 2859.0 969.8" fill="none" stroke="#f8fafc" stroke-width="6"/></g><path d="M 2325.0 640.3 L 2397.0 640.3 L 2453.0 640.3 Q 2461.0 640.3 2461.0 648.3 L 2461.0 851.3 Q 2467.0 857.3 2461.0 863.3 L 2461.0 914.3 Q 2461.0 922.3 2469.0 922.3 L 2645.0 922.3 Q 2653.0 922.3 2653.0 930.3 L 2653.0 961.8 Q 2653.0 969.8 2661.0 969.8 L 2717.0 969.8 L 2847.0 969.8 Q 2853.0 963.8 2859.0 969.8 L 2917.0 969.8" fill="none" stroke="#475569" stroke-width="1.25" stroke-linecap="round" stroke-linejoin="round"/><text x="2899.0" y="903.8" text-anchor="middle" fill="none" font-size="15.4" font-weight="600" stroke="#ffffff" stroke-width="2">Data Contributor</text><text x="2899.0" y="903.8" text-anchor="middle" fill="#374151" font-size="15.4" font-weight="600">Data Contributor</text></g><g data-dediren-edge-id="managed-identity-accesses-storage"><path d="M 2325.0 640.3 L 2397.0 640.3 L 2581.0 640.3 Q 2589.0 640.3 2589.0 632.3 L 2589.0 561.8 Q 2589.0 553.8 2597.0 553.8 L 2717.0 553.8 L 2917.0 553.8" fill="none" stroke="#475569" stroke-width="1.25" stroke-linecap="round" stroke-linejoin="round"/><text x="2899.0" y="627.8" text-anchor="middle" fill="none" font-size="15.4" font-weight="600" stroke="#ffffff" stroke-width="2">Blob/Queue/Table roles</text><text x="2899.0" y="627.8" text-anchor="middle" fill="#374151" font-size="15.4" font-weight="600">Blob/Queue/Table roles</text></g><g data-dediren-edge-id="managed-identity-accesses-app-insights"><g data-dediren-line-jump-masks="managed-identity-accesses-app-insights"><path d="M 1032.0 425.0 Q 1038.0 431.0 1032.0 437.0" fill="none" stroke="#ffffff" stroke-width="6"/><path d="M 206.0 640.5 Q 212.0 634.5 218.0 640.5" fill="none" stroke="#f8fafc" stroke-width="6"/></g><path d="M 2325.0 640.3 L 2397.0 640.3 L 2453.0 640.3 Q 2461.0 640.3 2461.0 648.3 L 2461.0 781.3 Q 2461.0 789.3 2453.0 789.3 L 1810.5 789.3 L 1040.0 789.3 Q 1032.0 789.3 1032.0 781.3 L 1032.0 437.0 Q 1038.0 431.0 1032.0 425.0 L 1032.0 20.0 Q 1032.0 12.0 1024.0 12.0 L 490.0 12.0 L 20.0 12.0 Q 12.0 12.0 12.0 20.0 L 12.0 632.5 Q 12.0 640.5 20.0 640.5 L 76.0 640.5 L 206.0 640.5 Q 212.0 634.5 218.0 640.5 L 356.5 640.5 L 533.0 640.5 L 661.0 640.5" fill="none" stroke="#475569" stroke-width="1.25" stroke-linecap="round" stroke-linejoin="round"/><text x="551.0" y="658.5" text-anchor="middle" fill="none" font-size="15.4" font-weight="600" stroke="#ffffff" stroke-width="2">Metrics Publisher</text><text x="551.0" y="658.5" text-anchor="middle" fill="#374151" font-size="15.4" font-weight="600">Metrics Publisher</text></g><g data-dediren-edge-id="cosmos-throttle-alert-monitors-cosmos"><g data-dediren-line-jump-masks="cosmos-throttle-alert-monitors-cosmos"><path d="M 2847.0 1065.3 Q 2853.0 1059.3 2859.0 1065.3" fill="none" stroke="#f8fafc" stroke-width="6"/></g><path d="M 671.0 841.0 L 605.0 841.0 Q 597.0 841.0 597.0 849.0 L 597.0 937.0 Q 597.0 945.0 605.0 945.0 L 746.5 945.0 L 904.0 945.0 L 960.0 945.0 Q 968.0 945.0 968.0 953.0 L 968.0 982.3 Q 968.0 990.3 976.0 990.3 L 1096.0 990.3 L 2525.0 990.3 L 2581.0 990.3 Q 2589.0 990.3 2589.0 998.3 L 2589.0 1057.3 Q 2589.0 1065.3 2597.0 1065.3 L 2717.0 1065.3 L 2847.0 1065.3 Q 2853.0 1059.3 2859.0 1065.3 L 2998.0 1065.3 L 3135.0 1065.3 Q 3143.0 1065.3 3143.0 1057.3 L 3143.0 977.8 Q 3143.0 969.8 3135.0 969.8 L 3079.0 969.8" fill="none" stroke="#475569" stroke-width="1.25" stroke-linecap="round" stroke-linejoin="round"/><text x="634.0" y="915.0" text-anchor="middle" fill="none" font-size="15.4" font-weight="600" stroke="#ffffff" stroke-width="2">monitors 429s</text><text x="634.0" y="915.0" text-anchor="middle" fill="#374151" font-size="15.4" font-weight="600">monitors 429s</text></g><g data-dediren-node-id="static-web-apps"><rect data-dediren-node-shape="archimate_rectangle" x="233.0" y="116.0" width="160.0" height="80.0" rx="0" fill="#d5e8d4" stroke="#4d7c0f" stroke-width="1.25"/><g data-dediren-node-decorator="archimate_technology_node" data-dediren-icon-kind="node" data-dediren-icon-size="22"><rect x="365.0" y="129.0" width="18.0" height="12.8" rx="1.5" fill="#d5e8d4" stroke="#4d7c0f" stroke-width="1.25"/><path data-dediren-icon-part="node-3d-edges" d="M 365.0 129.0 L 369.0 125.0 L 387.0 125.0 L 383.0 129.0 M 383.0 129.0 L 387.0 125.0 M 383.0 141.7 L 387.0 137.8 M 387.0 125.0 L 387.0 137.8" fill="none" stroke="#4d7c0f" stroke-width="1.25" stroke-linejoin="round"/></g><text x="313.0" y="163.5" text-anchor="middle" dominant-baseline="middle" fill="#365314" font-size="14.0"><tspan x="313.0" dy="0" textLength="75.4" lengthAdjust="spacing">Azure Static</tspan><tspan x="313.0" dy="16.0" textLength="64.5" lengthAdjust="spacing">Web Apps</tspan></text></g><g data-dediren-node-id="function-app"><rect data-dediren-node-shape="archimate_rectangle" x="1650.0" y="239.0" width="160.0" height="128.0" rx="0" fill="#d5e8d4" stroke="#4d7c0f" stroke-width="1.25"/><g data-dediren-node-decorator="archimate_technology_node" data-dediren-icon-kind="node" data-dediren-icon-size="22"><rect x="1782.0" y="252.0" width="18.0" height="12.8" rx="1.5" fill="#d5e8d4" stroke="#4d7c0f" stroke-width="1.25"/><path data-dediren-icon-part="node-3d-edges" d="M 1782.0 252.0 L 1786.0 248.0 L 1804.0 248.0 L 1800.0 252.0 M 1800.0 252.0 L 1804.0 248.0 M 1800.0 264.7 L 1804.0 260.8 M 1804.0 248.0 L 1804.0 260.8" fill="none" stroke="#4d7c0f" stroke-width="1.25" stroke-linejoin="round"/></g><text x="1730.0" y="310.5" text-anchor="middle" dominant-baseline="middle" fill="#365314" font-size="14.0"><tspan x="1730.0" dy="0" textLength="36.5" lengthAdjust="spacing">Azure</tspan><tspan x="1730.0" dy="16.0" textLength="82.4" lengthAdjust="spacing">Function App</tspan></text></g><g data-dediren-node-id="app-service-plan"><rect data-dediren-node-shape="archimate_rectangle" x="1296.0" y="263.0" width="160.0" height="80.0" rx="0" fill="#d5e8d4" stroke="#4d7c0f" stroke-width="1.25"/><g data-dediren-node-decorator="archimate_technology_node" data-dediren-icon-kind="node" data-dediren-icon-size="22"><rect x="1428.0" y="276.0" width="18.0" height="12.8" rx="1.5" fill="#d5e8d4" stroke="#4d7c0f" stroke-width="1.25"/><path data-dediren-icon-part="node-3d-edges" d="M 1428.0 276.0 L 1432.0 272.0 L 1450.0 272.0 L 1446.0 276.0 M 1446.0 276.0 L 1450.0 272.0 M 1446.0 288.7 L 1450.0 284.8 M 1450.0 272.0 L 1450.0 284.8" fill="none" stroke="#4d7c0f" stroke-width="1.25" stroke-linejoin="round"/></g><text x="1376.0" y="310.5" text-anchor="middle" dominant-baseline="middle" fill="#365314" font-size="14.0"><tspan x="1376.0" dy="0" textLength="75.4" lengthAdjust="spacing">App Service</tspan><tspan x="1376.0" dy="16.0" textLength="58.3" lengthAdjust="spacing">Plan (Y1)</tspan></text></g><g data-dediren-node-id="functions-runtime"><rect data-dediren-node-shape="archimate_rectangle" x="2164.0" y="409.3" width="160.0" height="90.0" rx="0" fill="#d5e8d4" stroke="#4d7c0f" stroke-width="1.25"/><g data-dediren-node-decorator="archimate_system_software" data-dediren-icon-kind="system_software" data-dediren-icon-size="22"><ellipse data-dediren-icon-part="system-software-disks" cx="2308.8" cy="426.2" rx="5.7" ry="5.7" fill="none" stroke="#4d7c0f" stroke-width="1.25"/><ellipse data-dediren-icon-part="system-software-disks" cx="2304.4" cy="429.3" rx="5.7" ry="5.7" fill="#d5e8d4" stroke="#4d7c0f" stroke-width="1.25"/></g><text x="2244.0" y="453.7" text-anchor="middle" dominant-baseline="middle" fill="#365314" font-size="14.0"><tspan x="2244.0" dy="0" textLength="36.5" lengthAdjust="spacing">Azure</tspan><tspan x="2244.0" dy="16.0" textLength="60.6" lengthAdjust="spacing">Functions</tspan><tspan x="2244.0" dy="16.0" textLength="46.6" lengthAdjust="spacing">runtime</tspan></text></g><g data-dediren-node-id="managed-identity"><rect data-dediren-node-shape="archimate_rounded_rectangle" x="2164.0" y="595.3" width="160.0" height="90.0" rx="6" fill="#d5e8d4" stroke="#4d7c0f" stroke-width="1.25"/><g data-dediren-node-decorator="archimate_technology_service" data-dediren-icon-kind="service" data-dediren-icon-size="22"><rect x="2296.0" y="606.9" width="22.0" height="11.0" rx="4.0" fill="#d5e8d4" stroke="#4d7c0f" stroke-width="1.25"/></g><text x="2244.0" y="639.7" text-anchor="middle" dominant-baseline="middle" fill="#365314" font-size="14.0"><tspan x="2244.0" dy="0" textLength="82.4" lengthAdjust="spacing">Function App</tspan><tspan x="2244.0" dy="16.0" textLength="58.3" lengthAdjust="spacing">managed</tspan><tspan x="2244.0" dy="16.0" textLength="44.3" lengthAdjust="spacing">identity</tspan></text></g><g data-dediren-node-id="cosmos-account"><rect data-dediren-node-shape="archimate_rectangle" x="2918.0" y="921.3" width="160.0" height="80.0" rx="0" fill="#d5e8d4" stroke="#4d7c0f" stroke-width="1.25"/><g data-dediren-node-decorator="archimate_technology_node" data-dediren-icon-kind="node" data-dediren-icon-size="22"><rect x="3050.0" y="934.3" width="18.0" height="12.8" rx="1.5" fill="#d5e8d4" stroke="#4d7c0f" stroke-width="1.25"/><path data-dediren-icon-part="node-3d-edges" d="M 3050.0 934.3 L 3054.0 930.3 L 3072.0 930.3 L 3068.0 934.3 M 3068.0 934.3 L 3072.0 930.3 M 3068.0 947.0 L 3072.0 943.1 M 3072.0 930.3 L 3072.0 943.1" fill="none" stroke="#4d7c0f" stroke-width="1.25" stroke-linejoin="round"/></g><text x="2998.0" y="968.8" text-anchor="middle" dominant-baseline="middle" fill="#365314" font-size="14.0"><tspan x="2998.0" dy="0" textLength="74.6" lengthAdjust="spacing">Cosmos DB</tspan><tspan x="2998.0" dy="16.0" textLength="49.0" lengthAdjust="spacing">account</tspan></text></g><g data-dediren-node-id="storage-account"><rect data-dediren-node-shape="archimate_rectangle" x="2918.0" y="505.3" width="160.0" height="80.0" rx="0" fill="#d5e8d4" stroke="#4d7c0f" stroke-width="1.25"/><g data-dediren-node-decorator="archimate_technology_node" data-dediren-icon-kind="node" data-dediren-icon-size="22"><rect x="3050.0" y="518.3" width="18.0" height="12.8" rx="1.5" fill="#d5e8d4" stroke="#4d7c0f" stroke-width="1.25"/><path data-dediren-icon-part="node-3d-edges" d="M 3050.0 518.3 L 3054.0 514.3 L 3072.0 514.3 L 3068.0 518.3 M 3068.0 518.3 L 3072.0 514.3 M 3068.0 531.0 L 3072.0 527.1 M 3072.0 514.3 L 3072.0 527.1" fill="none" stroke="#4d7c0f" stroke-width="1.25" stroke-linejoin="round"/></g><text x="2998.0" y="552.8" text-anchor="middle" dominant-baseline="middle" fill="#365314" font-size="14.0"><tspan x="2998.0" dy="0" textLength="49.0" lengthAdjust="spacing">Storage</tspan><tspan x="2998.0" dy="16.0" textLength="49.0" lengthAdjust="spacing">account</tspan></text></g><g data-dediren-node-id="key-vault"><rect data-dediren-node-shape="archimate_rectangle" x="2918.0" y="713.3" width="160.0" height="80.0" rx="0" fill="#d5e8d4" stroke="#4d7c0f" stroke-width="1.25"/><g data-dediren-node-decorator="archimate_technology_node" data-dediren-icon-kind="node" data-dediren-icon-size="22"><rect x="3050.0" y="726.3" width="18.0" height="12.8" rx="1.5" fill="#d5e8d4" stroke="#4d7c0f" stroke-width="1.25"/><path data-dediren-icon-part="node-3d-edges" d="M 3050.0 726.3 L 3054.0 722.3 L 3072.0 722.3 L 3068.0 726.3 M 3068.0 726.3 L 3072.0 722.3 M 3068.0 739.0 L 3072.0 735.1 M 3072.0 722.3 L 3072.0 735.1" fill="none" stroke="#4d7c0f" stroke-width="1.25" stroke-linejoin="round"/></g><text x="2998.0" y="768.8" text-anchor="middle" dominant-baseline="middle" fill="#365314" font-size="14.0" textLength="59.9" lengthAdjust="spacing">Key Vault</text></g><g data-dediren-node-id="application-insights"><rect data-dediren-node-shape="archimate_rectangle" x="662.0" y="592.0" width="170.0" height="80.0" rx="0" fill="#d5e8d4" stroke="#4d7c0f" stroke-width="1.25"/><g data-dediren-node-decorator="archimate_technology_node" data-dediren-icon-kind="node" data-dediren-icon-size="22"><rect x="804.0" y="605.0" width="18.0" height="12.8" rx="1.5" fill="#d5e8d4" stroke="#4d7c0f" stroke-width="1.25"/><path data-dediren-icon-part="node-3d-edges" d="M 804.0 605.0 L 808.0 601.0 L 826.0 601.0 L 822.0 605.0 M 822.0 605.0 L 826.0 601.0 M 822.0 617.7 L 826.0 613.8 M 826.0 601.0 L 826.0 613.8" fill="none" stroke="#4d7c0f" stroke-width="1.25" stroke-linejoin="round"/></g><text x="747.0" y="639.5" text-anchor="middle" dominant-baseline="middle" fill="#365314" font-size="14.0"><tspan x="747.0" dy="0" textLength="68.4" lengthAdjust="spacing">Application</tspan><tspan x="747.0" dy="16.0" textLength="48.2" lengthAdjust="spacing">Insights</tspan></text></g><g data-dediren-node-id="log-analytics"><rect data-dediren-node-shape="archimate_rectangle" x="277.0" y="372.0" width="160.0" height="90.0" rx="0" fill="#d5e8d4" stroke="#4d7c0f" stroke-width="1.25"/><g data-dediren-node-decorator="archimate_technology_node" data-dediren-icon-kind="node" data-dediren-icon-size="22"><rect x="409.0" y="385.0" width="18.0" height="12.8" rx="1.5" fill="#d5e8d4" stroke="#4d7c0f" stroke-width="1.25"/><path data-dediren-icon-part="node-3d-edges" d="M 409.0 385.0 L 413.0 381.0 L 431.0 381.0 L 427.0 385.0 M 427.0 385.0 L 431.0 381.0 M 427.0 397.7 L 431.0 393.8 M 431.0 381.0 L 431.0 393.8" fill="none" stroke="#4d7c0f" stroke-width="1.25" stroke-linejoin="round"/></g><text x="357.0" y="424.5" text-anchor="middle" dominant-baseline="middle" fill="#365314" font-size="14.0"><tspan x="357.0" dy="0" textLength="83.2" lengthAdjust="spacing">Log Analytics</tspan><tspan x="357.0" dy="16.0" textLength="66.9" lengthAdjust="spacing">workspace</tspan></text></g><g data-dediren-node-id="cosmos-throttle-alert"><rect data-dediren-node-shape="archimate_rounded_rectangle" x="672.0" y="801.0" width="160.0" height="80.0" rx="6" fill="#d5e8d4" stroke="#4d7c0f" stroke-width="1.25"/><g data-dediren-node-decorator="archimate_technology_service" data-dediren-icon-kind="service" data-dediren-icon-size="22"><rect x="804.0" y="812.6" width="22.0" height="11.0" rx="4.0" fill="#d5e8d4" stroke="#4d7c0f" stroke-width="1.25"/></g><text x="752.0" y="848.5" text-anchor="middle" dominant-baseline="middle" fill="#365314" font-size="14.0"><tspan x="752.0" dy="0" textLength="51.3" lengthAdjust="spacing">Cosmos</tspan><tspan x="752.0" dy="16.0" textLength="73.9" lengthAdjust="spacing">throttle alert</tspan></text></g><g data-dediren-node-id="lfm-app"><rect data-dediren-node-shape="archimate_rectangle" x="587.0" y="116.0" width="160.0" height="80.0" rx="0" fill="#e0f2fe" stroke="#0369a1" stroke-width="1.25"/><g data-dediren-node-decorator="archimate_application_component" data-dediren-icon-kind="component" data-dediren-icon-size="22"><rect x="723.0" y="125.0" width="18.0" height="15.8" rx="1.5" fill="#e0f2fe" stroke="#0369a1" stroke-width="1.25"/><rect x="719.0" y="127.6" width="7.9" height="5.7" rx="1.2" fill="#e0f2fe" stroke="#0369a1" stroke-width="1.25"/><rect x="719.0" y="134.7" width="7.9" height="5.7" rx="1.2" fill="#e0f2fe" stroke="#0369a1" stroke-width="1.25"/></g><text x="667.0" y="171.5" text-anchor="middle" dominant-baseline="middle" fill="#0c4a6e" font-size="14.0" textLength="52.1" lengthAdjust="spacing">Lfm.App</text></g><g data-dediren-node-id="lfm-api"><rect data-dediren-node-shape="archimate_rectangle" x="2164.0" y="233.3" width="160.0" height="80.0" rx="0" fill="#e0f2fe" stroke="#0369a1" stroke-width="1.25"/><g data-dediren-node-decorator="archimate_application_component" data-dediren-icon-kind="component" data-dediren-icon-size="22"><rect x="2300.0" y="242.3" width="18.0" height="15.8" rx="1.5" fill="#e0f2fe" stroke="#0369a1" stroke-width="1.25"/><rect x="2296.0" y="244.9" width="7.9" height="5.7" rx="1.2" fill="#e0f2fe" stroke="#0369a1" stroke-width="1.25"/><rect x="2296.0" y="252.0" width="7.9" height="5.7" rx="1.2" fill="#e0f2fe" stroke="#0369a1" stroke-width="1.25"/></g><text x="2244.0" y="288.8" text-anchor="middle" dominant-baseline="middle" fill="#0c4a6e" font-size="14.0" textLength="47.4" lengthAdjust="spacing">Lfm.Api</text></g></g></svg>

