<svg xmlns="http://www.w3.org/2000/svg" width="1907" height="905" viewBox="-12.0 -12.0 1907.0 905.0"><rect x="-12.0" y="-12.0" width="1907.0" height="905.0" fill="#ffffff"/><g font-family="Inter, Arial, sans-serif" font-size="14.0"><g data-dediren-group-id="technology-observability-telemetry"><rect x="12.0" y="12.0" width="977.0" height="817.0" rx="4.0" fill="#f8fafc" stroke="#94a3b8" stroke-width="1.0"/><text x="20.0" y="28.0" fill="#374151" font-size="12.0">Telemetry pipeline</text></g><g data-dediren-group-id="technology-observability-cosmos-alerting"><rect x="1245.0" y="628.0" width="626.0" height="241.0" rx="4.0" fill="#f8fafc" stroke="#94a3b8" stroke-width="1.0"/><text x="1253.0" y="644.0" fill="#374151" font-size="12.0">Cosmos alerting</text></g><g data-dediren-edge-id="app-insights-serves-function-app"><defs><marker id="marker-end-app-insights-serves-function-app" data-dediren-edge-marker-end="open_arrow" markerWidth="9" markerHeight="9" refX="8" refY="4.5" orient="auto" markerUnits="strokeWidth"><path d="M 1 1 L 8 4.5 L 1 8" fill="none" stroke="#2563eb" stroke-width="1.3" stroke-linecap="round" stroke-linejoin="round"/></marker></defs><path d="M 517.0 411.0 L 517.0 467.0 Q 517.0 475.0 525.0 475.0 L 861.0 475.0 Q 869.0 475.0 869.0 483.0 L 869.0 539.0" fill="none" stroke="#2563eb" stroke-width="1.5" stroke-linecap="round" stroke-linejoin="round" marker-end="url(#marker-end-app-insights-serves-function-app)"/><text x="693.0" y="491.8" text-anchor="middle" fill="#1e3a8a" stroke="#ffffff" stroke-width="4" stroke-linejoin="round" paint-order="stroke">telemetry</text></g><g data-dediren-edge-id="log-analytics-aggregates-app-insights"><defs><marker id="marker-start-log-analytics-aggregates-app-insights" data-dediren-edge-marker-start="hollow_diamond" markerWidth="10" markerHeight="10" refX="1" refY="5" orient="auto" markerUnits="strokeWidth"><path d="M 1 5 L 5 1 L 9 5 L 5 9 z" fill="#ffffff" stroke="#475569" stroke-width="1.1"/></marker></defs><path d="M 132.0 725.0 L 132.0 781.0 Q 132.0 789.0 140.0 789.0 L 269.0 789.0 Q 277.0 789.0 277.0 781.0 L 277.0 273.0 Q 277.0 265.0 285.0 265.0 L 487.5 265.0 Q 495.5 265.0 495.5 273.0 L 495.5 329.0" fill="none" stroke="#475569" stroke-width="1.5" stroke-linecap="round" stroke-linejoin="round" marker-start="url(#marker-start-log-analytics-aggregates-app-insights)"/><text x="204.5" y="780.6" text-anchor="middle" fill="#334155" stroke="#ffffff" stroke-width="4" stroke-linejoin="round" paint-order="stroke">workspace</text></g><g data-dediren-edge-id="log-analytics-aggregates-diagnostics"><defs><marker id="marker-start-log-analytics-aggregates-diagnostics" data-dediren-edge-marker-start="hollow_diamond" markerWidth="10" markerHeight="10" refX="1" refY="5" orient="auto" markerUnits="strokeWidth"><path d="M 1 5 L 5 1 L 9 5 L 5 9 z" fill="#ffffff" stroke="#475569" stroke-width="1.1"/></marker></defs><g data-dediren-line-jump-masks="log-analytics-aggregates-diagnostics"><path d="M 271.0 684.0 Q 277.0 678.0 283.0 684.0" fill="none" stroke="#ffffff" stroke-width="5.5" stroke-linecap="round" stroke-linejoin="round"/></g><path d="M 213.0 684.0 L 271.0 684.0 Q 277.0 678.0 283.0 684.0 L 341.0 684.0 L 517.0 684.0 L 693.0 684.0 L 869.0 684.0 L 1021.0 684.0 L 1213.0 684.0 L 1365.5 684.0 L 1542.0 684.0 L 1598.0 684.0 Q 1606.0 684.0 1606.0 692.0 L 1606.0 764.0 Q 1606.0 772.0 1614.0 772.0 L 1670.0 772.0" fill="none" stroke="#475569" stroke-width="1.5" stroke-linecap="round" stroke-linejoin="round" marker-start="url(#marker-start-log-analytics-aggregates-diagnostics)"/><text x="342.7" y="675.6" text-anchor="middle" fill="#334155" stroke="#ffffff" stroke-width="4" stroke-linejoin="round" paint-order="stroke">diagnostics</text></g><g data-dediren-edge-id="managed-identity-accesses-app-insights"><path d="M 132.5 133.0 L 132.5 189.0 Q 132.5 197.0 140.5 197.0 L 530.5 197.0 Q 538.5 197.0 538.5 205.0 L 538.5 329.0" fill="none" stroke="#64748b" stroke-width="1.5" stroke-linecap="round" stroke-linejoin="round"/><text x="335.5" y="213.8" text-anchor="middle" fill="#374151" stroke="#ffffff" stroke-width="4" stroke-linejoin="round" paint-order="stroke">Metrics Publisher</text></g><g data-dediren-edge-id="cosmos-throttle-alert-monitors-cosmos"><path d="M 1446.0 789.0 L 1670.0 789.0" fill="none" stroke="#64748b" stroke-width="1.5" stroke-linecap="round" stroke-linejoin="round"/><text x="1558.0" y="798.6" text-anchor="middle" fill="#374151" stroke="#ffffff" stroke-width="4" stroke-linejoin="round" paint-order="stroke">monitors 429s</text></g><g data-dediren-node-id="function-app"><rect data-dediren-node-shape="archimate_rectangle" x="789.0" y="540.0" width="160.0" height="80.0" rx="0" fill="#ecfdf3" stroke="#16a34a" stroke-width="1.5"/><g data-dediren-node-decorator="archimate_technology_node" data-dediren-icon-kind="node" data-dediren-icon-size="22"><rect x="921.0" y="553.0" width="18.0" height="12.8" rx="1.5" fill="#ecfdf3" stroke="#16a34a" stroke-width="1.5"/><path data-dediren-icon-part="node-3d-edges" d="M 921.0 553.0 L 925.0 549.0 L 943.0 549.0 L 939.0 553.0 M 939.0 553.0 L 943.0 549.0 M 939.0 565.7 L 943.0 561.8 M 943.0 549.0 L 943.0 561.8" fill="none" stroke="#16a34a" stroke-width="1.5" stroke-linejoin="round"/></g><text x="869.0" y="572.0" text-anchor="middle" dominant-baseline="middle" fill="#14532d" font-size="14.0"><tspan x="869.0" dy="0">Azure Function</tspan><tspan x="869.0" dy="16.0">App</tspan></text></g><g data-dediren-node-id="managed-identity"><rect data-dediren-node-shape="archimate_rounded_rectangle" x="52.5" y="52.0" width="160.0" height="80.0" rx="4.0" fill="#ecfdf3" stroke="#16a34a" stroke-width="1.5"/><g data-dediren-node-decorator="archimate_technology_service" data-dediren-icon-kind="service" data-dediren-icon-size="22"><rect x="184.5" y="63.6" width="22.0" height="11.0" rx="4.0" fill="#ecfdf3" stroke="#16a34a" stroke-width="1.5"/></g><text x="132.5" y="84.0" text-anchor="middle" dominant-baseline="middle" fill="#14532d" font-size="14.0"><tspan x="132.5" dy="0">Function App</tspan><tspan x="132.5" dy="16.0">managed identity</tspan></text></g><g data-dediren-node-id="application-insights"><rect data-dediren-node-shape="archimate_rectangle" x="437.0" y="330.0" width="160.0" height="80.0" rx="0" fill="#ecfdf3" stroke="#16a34a" stroke-width="1.5"/><g data-dediren-node-decorator="archimate_technology_node" data-dediren-icon-kind="node" data-dediren-icon-size="22"><rect x="569.0" y="343.0" width="18.0" height="12.8" rx="1.5" fill="#ecfdf3" stroke="#16a34a" stroke-width="1.5"/><path data-dediren-icon-part="node-3d-edges" d="M 569.0 343.0 L 573.0 339.0 L 591.0 339.0 L 587.0 343.0 M 587.0 343.0 L 591.0 339.0 M 587.0 355.7 L 591.0 351.8 M 591.0 339.0 L 591.0 351.8" fill="none" stroke="#16a34a" stroke-width="1.5" stroke-linejoin="round"/></g><text x="517.0" y="361.9" text-anchor="middle" dominant-baseline="middle" fill="#14532d" font-size="14.0"><tspan x="517.0" dy="0">Application</tspan><tspan x="517.0" dy="16.0">Insights</tspan></text></g><g data-dediren-node-id="log-analytics"><rect data-dediren-node-shape="archimate_rectangle" x="52.0" y="644.0" width="160.0" height="80.0" rx="0" fill="#ecfdf3" stroke="#16a34a" stroke-width="1.5"/><g data-dediren-node-decorator="archimate_technology_node" data-dediren-icon-kind="node" data-dediren-icon-size="22"><rect x="184.0" y="657.0" width="18.0" height="12.8" rx="1.5" fill="#ecfdf3" stroke="#16a34a" stroke-width="1.5"/><path data-dediren-icon-part="node-3d-edges" d="M 184.0 657.0 L 188.0 653.0 L 206.0 653.0 L 202.0 657.0 M 202.0 657.0 L 206.0 653.0 M 202.0 669.7 L 206.0 665.8 M 206.0 653.0 L 206.0 665.8" fill="none" stroke="#16a34a" stroke-width="1.5" stroke-linejoin="round"/></g><text x="132.0" y="676.0" text-anchor="middle" dominant-baseline="middle" fill="#14532d" font-size="14.0"><tspan x="132.0" dy="0">Log Analytics</tspan><tspan x="132.0" dy="16.0">workspace</tspan></text></g><g data-dediren-node-id="cosmos-account"><rect data-dediren-node-shape="archimate_rectangle" x="1671.0" y="740.5" width="160.0" height="80.0" rx="0" fill="#ecfdf3" stroke="#16a34a" stroke-width="1.5"/><g data-dediren-node-decorator="archimate_technology_node" data-dediren-icon-kind="node" data-dediren-icon-size="22"><rect x="1803.0" y="753.5" width="18.0" height="12.8" rx="1.5" fill="#ecfdf3" stroke="#16a34a" stroke-width="1.5"/><path data-dediren-icon-part="node-3d-edges" d="M 1803.0 753.5 L 1807.0 749.5 L 1825.0 749.5 L 1821.0 753.5 M 1821.0 753.5 L 1825.0 749.5 M 1821.0 766.2 L 1825.0 762.3 M 1825.0 749.5 L 1825.0 762.3" fill="none" stroke="#16a34a" stroke-width="1.5" stroke-linejoin="round"/></g><text x="1751.0" y="772.5" text-anchor="middle" dominant-baseline="middle" fill="#14532d" font-size="14.0"><tspan x="1751.0" dy="0">Cosmos DB</tspan><tspan x="1751.0" dy="16.0">account</tspan></text></g><g data-dediren-node-id="cosmos-throttle-alert"><rect data-dediren-node-shape="archimate_rounded_rectangle" x="1285.0" y="749.0" width="160.0" height="80.0" rx="4.0" fill="#ecfdf3" stroke="#16a34a" stroke-width="1.5"/><g data-dediren-node-decorator="archimate_technology_service" data-dediren-icon-kind="service" data-dediren-icon-size="22"><rect x="1417.0" y="760.6" width="22.0" height="11.0" rx="4.0" fill="#ecfdf3" stroke="#16a34a" stroke-width="1.5"/></g><text x="1365.0" y="781.0" text-anchor="middle" dominant-baseline="middle" fill="#14532d" font-size="14.0"><tspan x="1365.0" dy="0">Cosmos throttle</tspan><tspan x="1365.0" dy="16.0">alert</tspan></text></g></g></svg>
