<svg xmlns="http://www.w3.org/2000/svg" role="img" width="2947" height="975" viewBox="-20 -52 2947 1007" data-arch-a11y="root" data-arch-a11y-viewbox="-20.0 -20.0 2947.0 975.0"><title>LFM - Technology Usage Overview</title>
<desc>Which technology nodes and system software host the LFM applications?</desc>
<text data-arch-a11y="visible-title" x="-12" y="-32" font-family="sans-serif" font-size="16" font-weight="bold">LFM - Technology Usage Overview</text><rect x="-20.0" y="-20.0" width="2947.0" height="975.0" fill="#ffffff"/><g font-family="Inter, &quot;Liberation Sans&quot;, &quot;Noto Sans&quot;, Arial, &quot;Helvetica Neue&quot;, &quot;Segoe UI&quot;, sans-serif" font-size="14"><g data-dediren-group-id="technology-usage-frontend-hosting"><rect x="253.5" y="720.0" width="594.0" height="160.0" rx="8" fill="#f8fafc" stroke="#94a3b8" stroke-width="1"/><text x="261.5" y="736.0" fill="#334155" font-size="12">Frontend hosting</text></g><g data-dediren-group-id="technology-usage-functions-hosting"><rect x="12.0" y="12.0" width="1045.0" height="612.0" rx="8" fill="#f8fafc" stroke="#94a3b8" stroke-width="1"/><text x="20.0" y="28.0" fill="#334155" font-size="12">Functions hosting and identity</text></g><g data-dediren-group-id="technology-usage-platform-dependencies"><rect x="1441.0" y="175.0" width="498.0" height="528.0" rx="8" fill="#f8fafc" stroke="#94a3b8" stroke-width="1"/><text x="1449.0" y="191.0" fill="#334155" font-size="12">Platform dependencies</text></g><g data-dediren-group-id="technology-usage-observability"><rect x="2259.0" y="399.0" width="636.0" height="524.0" rx="8" fill="#f8fafc" stroke="#94a3b8" stroke-width="1"/><text x="2267.0" y="415.0" fill="#334155" font-size="12">Observability and alerting</text></g><g data-dediren-edge-id="swa-hosts-app"><marker id="marker-end-swa-hosts-app" data-dediren-edge-marker-end="open_arrow" markerWidth="10" markerHeight="10" refX="9" refY="5" orient="auto"><path d="M 1 1 L 9 5 L 1 9" fill="none" stroke="#475569" stroke-width="1.5"/></marker><path d="M 454.5 800.0 L 646.5 800.0" fill="none" stroke="#475569" stroke-width="1.25" stroke-linecap="round" stroke-linejoin="round" marker-end="url(#marker-end-swa-hosts-app)"/><text x="550.5" y="818.0" text-anchor="middle" fill="none" font-size="15.4" font-weight="600" stroke="#ffffff" stroke-width="2">hosts</text><text x="550.5" y="818.0" text-anchor="middle" fill="#374151" font-size="15.4" font-weight="600">hosts</text></g><g data-dediren-edge-id="function-app-hosts-api"><marker id="marker-end-function-app-hosts-api" data-dediren-edge-marker-end="open_arrow" markerWidth="10" markerHeight="10" refX="9" refY="5" orient="auto"><path d="M 1 1 L 9 5 L 1 9" fill="none" stroke="#475569" stroke-width="1.5"/></marker><path d="M 567.0 419.0 L 623.0 419.0 Q 631.0 419.0 631.0 411.0 L 631.0 100.0 Q 631.0 92.0 639.0 92.0 L 855.0 92.0" fill="none" stroke="#475569" stroke-width="1.25" stroke-linecap="round" stroke-linejoin="round" marker-end="url(#marker-end-function-app-hosts-api)"/><text x="599.0" y="409.0" text-anchor="middle" fill="none" font-size="15.4" font-weight="600" stroke="#ffffff" stroke-width="2">hosts</text><text x="599.0" y="409.0" text-anchor="middle" fill="#374151" font-size="15.4" font-weight="600">hosts</text></g><g data-dediren-edge-id="plan-serves-function-app"><marker id="marker-end-plan-serves-function-app" data-dediren-edge-marker-end="open_arrow" markerWidth="10" markerHeight="10" refX="9" refY="5" orient="auto"><path d="M 1 1 L 9 5 L 1 9" fill="none" stroke="#475569" stroke-width="1.5"/></marker><path d="M 213.0 449.0 L 405.0 449.0" fill="none" stroke="#475569" stroke-width="1.25" stroke-linecap="round" stroke-linejoin="round" marker-end="url(#marker-end-plan-serves-function-app)"/><text x="309.0" y="467.0" text-anchor="middle" fill="none" font-size="15.4" font-weight="600" stroke="#ffffff" stroke-width="2">hosts plan</text><text x="309.0" y="467.0" text-anchor="middle" fill="#374151" font-size="15.4" font-weight="600">hosts plan</text></g><g data-dediren-edge-id="function-app-composes-runtime"><marker id="marker-start-function-app-composes-runtime" data-dediren-edge-marker-start="filled_diamond" markerWidth="10" markerHeight="10" refX="1" refY="5" orient="auto"><path d="M 1 5 L 5 1 L 9 5 L 5 9 Z" fill="#475569" stroke="#475569" stroke-width="1"/></marker><path d="M 567.0 439.0 L 687.0 439.0 Q 695.0 439.0 695.0 431.0 L 695.0 281.0 Q 695.0 273.0 703.0 273.0 L 855.0 273.0" fill="none" stroke="#475569" stroke-width="1.25" stroke-linecap="round" stroke-linejoin="round" marker-start="url(#marker-start-function-app-composes-runtime)"/><text x="677.0" y="429.0" text-anchor="middle" fill="none" font-size="15.4" font-weight="600" stroke="#ffffff" stroke-width="2">runtime</text><text x="677.0" y="429.0" text-anchor="middle" fill="#374151" font-size="15.4" font-weight="600">runtime</text></g><g data-dediren-edge-id="function-app-has-managed-identity"><path d="M 567.0 459.0 L 855.0 459.0" fill="none" stroke="#475569" stroke-width="1.25" stroke-linecap="round" stroke-linejoin="round"/><text x="711.0" y="477.0" text-anchor="middle" fill="none" font-size="15.4" font-weight="600" stroke="#ffffff" stroke-width="2">identity</text><text x="711.0" y="477.0" text-anchor="middle" fill="#374151" font-size="15.4" font-weight="600">identity</text></g><g data-dediren-edge-id="cosmos-serves-function-app"><marker id="marker-end-cosmos-serves-function-app" data-dediren-edge-marker-end="open_arrow" markerWidth="10" markerHeight="10" refX="9" refY="5" orient="auto"><path d="M 1 1 L 9 5 L 1 9" fill="none" stroke="#475569" stroke-width="1.5"/></marker><path d="M 1609.0 599.0 L 1553.0 599.0 Q 1545.0 599.0 1545.0 591.0 L 1545.0 576.0 Q 1545.0 568.0 1537.0 568.0 L 1409.0 568.0 L 1089.0 568.0 L 936.0 568.0 L 759.0 568.0 L 639.0 568.0 Q 631.0 568.0 631.0 560.0 L 631.0 487.0 Q 631.0 479.0 623.0 479.0 L 567.0 479.0" fill="none" stroke="#475569" stroke-width="1.25" stroke-linecap="round" stroke-linejoin="round" marker-end="url(#marker-end-cosmos-serves-function-app)"/><text x="1563.0" y="589.0" text-anchor="middle" fill="none" font-size="15.4" font-weight="600" stroke="#ffffff" stroke-width="2">data plane</text><text x="1563.0" y="589.0" text-anchor="middle" fill="#374151" font-size="15.4" font-weight="600">data plane</text></g><g data-dediren-edge-id="storage-serves-function-app"><marker id="marker-end-storage-serves-function-app" data-dediren-edge-marker-end="open_arrow" markerWidth="10" markerHeight="10" refX="9" refY="5" orient="auto"><path d="M 1 1 L 9 5 L 1 9" fill="none" stroke="#475569" stroke-width="1.5"/></marker><path d="M 1609.0 423.0 L 1553.0 423.0 Q 1545.0 423.0 1545.0 415.0 L 1545.0 400.0 Q 1545.0 392.0 1537.0 392.0 L 1409.0 392.0 L 1161.0 392.0 Q 1153.0 392.0 1153.0 400.0 L 1153.0 560.0 Q 1153.0 568.0 1145.0 568.0 L 1089.0 568.0 L 936.0 568.0 L 759.0 568.0 L 639.0 568.0 Q 631.0 568.0 631.0 560.0 L 631.0 487.0 Q 631.0 479.0 623.0 479.0 L 567.0 479.0" fill="none" stroke="#475569" stroke-width="1.25" stroke-linecap="round" stroke-linejoin="round" marker-end="url(#marker-end-storage-serves-function-app)"/><text x="1563.0" y="413.0" text-anchor="middle" fill="none" font-size="15.4" font-weight="600" stroke="#ffffff" stroke-width="2">blob data</text><text x="1563.0" y="413.0" text-anchor="middle" fill="#374151" font-size="15.4" font-weight="600">blob data</text></g><g data-dediren-edge-id="key-vault-serves-function-app"><marker id="marker-end-key-vault-serves-function-app" data-dediren-edge-marker-end="open_arrow" markerWidth="10" markerHeight="10" refX="9" refY="5" orient="auto"><path d="M 1 1 L 9 5 L 1 9" fill="none" stroke="#475569" stroke-width="1.5"/></marker><path d="M 1609.0 247.0 L 1409.0 247.0 L 1161.0 247.0 Q 1153.0 247.0 1153.0 255.0 L 1153.0 560.0 Q 1153.0 568.0 1145.0 568.0 L 1089.0 568.0 L 936.0 568.0 L 759.0 568.0 L 639.0 568.0 Q 631.0 568.0 631.0 560.0 L 631.0 487.0 Q 631.0 479.0 623.0 479.0 L 567.0 479.0" fill="none" stroke="#475569" stroke-width="1.25" stroke-linecap="round" stroke-linejoin="round" marker-end="url(#marker-end-key-vault-serves-function-app)"/><text x="1509.0" y="237.0" text-anchor="middle" fill="none" font-size="15.4" font-weight="600" stroke="#ffffff" stroke-width="2">secrets</text><text x="1509.0" y="237.0" text-anchor="middle" fill="#374151" font-size="15.4" font-weight="600">secrets</text></g><g data-dediren-edge-id="app-insights-serves-function-app"><marker id="marker-end-app-insights-serves-function-app" data-dediren-edge-marker-end="open_arrow" markerWidth="10" markerHeight="10" refX="9" refY="5" orient="auto"><path d="M 1 1 L 9 5 L 1 9" fill="none" stroke="#475569" stroke-width="1.5"/></marker><path d="M 2684.0 802.0 L 2556.0 802.0 L 2379.5 802.0 L 2227.0 802.0 L 2099.0 802.0 L 1281.0 802.0 L 1161.0 802.0 Q 1153.0 802.0 1153.0 794.0 L 1153.0 576.0 Q 1153.0 568.0 1145.0 568.0 L 1089.0 568.0 L 936.0 568.0 L 759.0 568.0 L 639.0 568.0 Q 631.0 568.0 631.0 560.0 L 631.0 487.0 Q 631.0 479.0 623.0 479.0 L 567.0 479.0" fill="none" stroke="#475569" stroke-width="1.25" stroke-linecap="round" stroke-linejoin="round" marker-end="url(#marker-end-app-insights-serves-function-app)"/><text x="2620.0" y="792.0" text-anchor="middle" fill="none" font-size="15.4" font-weight="600" stroke="#ffffff" stroke-width="2">telemetry</text><text x="2620.0" y="792.0" text-anchor="middle" fill="#374151" font-size="15.4" font-weight="600">telemetry</text></g><g data-dediren-edge-id="log-analytics-aggregates-app-insights"><marker id="marker-start-log-analytics-aggregates-app-insights" data-dediren-edge-marker-start="hollow_diamond" markerWidth="10" markerHeight="10" refX="1" refY="5" orient="auto"><path d="M 1 5 L 5 1 L 9 5 L 5 9 Z" fill="#ffffff" stroke="#475569" stroke-width="1"/></marker><path d="M 2380.0 530.0 L 2380.0 586.0 Q 2380.0 594.0 2388.0 594.0 L 2762.0 594.0 Q 2770.0 594.0 2770.0 602.0 L 2770.0 769.0" fill="none" stroke="#475569" stroke-width="1.25" stroke-linecap="round" stroke-linejoin="round" marker-start="url(#marker-start-log-analytics-aggregates-app-insights)"/><text x="2575.0" y="612.0" text-anchor="middle" fill="none" font-size="15.4" font-weight="600" stroke="#ffffff" stroke-width="2">workspace</text><text x="2575.0" y="612.0" text-anchor="middle" fill="#374151" font-size="15.4" font-weight="600">workspace</text></g><g data-dediren-edge-id="log-analytics-aggregates-diagnostics"><marker id="marker-start-log-analytics-aggregates-diagnostics" data-dediren-edge-marker-start="hollow_diamond" markerWidth="10" markerHeight="10" refX="1" refY="5" orient="auto"><path d="M 1 5 L 5 1 L 9 5 L 5 9 Z" fill="#ffffff" stroke="#475569" stroke-width="1"/></marker><path d="M 2299.0 484.0 L 2227.0 484.0 L 2043.0 484.0 Q 2035.0 484.0 2035.0 492.0 L 2035.0 591.0 Q 2035.0 599.0 2027.0 599.0 L 1971.0 599.0 L 1771.0 599.0" fill="none" stroke="#475569" stroke-width="1.25" stroke-linecap="round" stroke-linejoin="round" marker-start="url(#marker-start-log-analytics-aggregates-diagnostics)"/><text x="2041.0" y="541.5" text-anchor="start" fill="none" font-size="15.4" font-weight="600" stroke="#ffffff" stroke-width="2">diagnostics</text><text x="2041.0" y="541.5" text-anchor="start" fill="#374151" font-size="15.4" font-weight="600">diagnostics</text></g><g data-dediren-edge-id="managed-identity-accesses-key-vault"><g data-dediren-line-jump-masks="managed-identity-accesses-key-vault"><path d="M 1147.0 459.0 Q 1153.0 453.0 1159.0 459.0" fill="none" stroke="#ffffff" stroke-width="6"/><path d="M 1217.0 386.0 Q 1223.0 392.0 1217.0 398.0" fill="none" stroke="#ffffff" stroke-width="6"/></g><path d="M 1017.0 459.0 L 1089.0 459.0 L 1147.0 459.0 Q 1153.0 453.0 1159.0 459.0 L 1209.0 459.0 Q 1217.0 459.0 1217.0 451.0 L 1217.0 398.0 Q 1223.0 392.0 1217.0 386.0 L 1217.0 332.0 Q 1217.0 324.0 1225.0 324.0 L 1337.0 324.0 Q 1345.0 324.0 1345.0 316.0 L 1345.0 303.0 Q 1345.0 295.0 1353.0 295.0 L 1409.0 295.0 L 1537.0 295.0 Q 1545.0 295.0 1545.0 287.0 L 1545.0 272.0 Q 1545.0 264.0 1553.0 264.0 L 1609.0 264.0" fill="none" stroke="#475569" stroke-width="1.25" stroke-linecap="round" stroke-linejoin="round"/><text x="1339.0" y="309.5" text-anchor="end" fill="none" font-size="15.4" font-weight="600" stroke="#ffffff" stroke-width="2">Secrets User</text><text x="1339.0" y="309.5" text-anchor="end" fill="#374151" font-size="15.4" font-weight="600">Secrets User</text></g><g data-dediren-edge-id="managed-identity-accesses-cosmos"><g data-dediren-line-jump-masks="managed-identity-accesses-cosmos"><path d="M 1147.0 459.0 Q 1153.0 453.0 1159.0 459.0" fill="none" stroke="#ffffff" stroke-width="6"/><path d="M 1217.0 562.0 Q 1223.0 568.0 1217.0 574.0" fill="none" stroke="#ffffff" stroke-width="6"/></g><path d="M 1017.0 459.0 L 1089.0 459.0 L 1147.0 459.0 Q 1153.0 453.0 1159.0 459.0 L 1209.0 459.0 Q 1217.0 459.0 1217.0 467.0 L 1217.0 562.0 Q 1223.0 568.0 1217.0 574.0 L 1217.0 628.0 Q 1217.0 636.0 1225.0 636.0 L 1337.0 636.0 Q 1345.0 636.0 1345.0 628.0 L 1345.0 624.0 Q 1345.0 616.0 1353.0 616.0 L 1409.0 616.0 L 1609.0 616.0" fill="none" stroke="#475569" stroke-width="1.25" stroke-linecap="round" stroke-linejoin="round"/><text x="1251.0" y="547.5" text-anchor="start" fill="none" font-size="15.4" font-weight="600" stroke="#ffffff" stroke-width="2">Data Contributor</text><text x="1251.0" y="547.5" text-anchor="start" fill="#374151" font-size="15.4" font-weight="600">Data Contributor</text></g><g data-dediren-edge-id="managed-identity-accesses-storage"><g data-dediren-line-jump-masks="managed-identity-accesses-storage"><path d="M 1147.0 459.0 Q 1153.0 453.0 1159.0 459.0" fill="none" stroke="#ffffff" stroke-width="6"/></g><path d="M 1017.0 459.0 L 1089.0 459.0 L 1147.0 459.0 Q 1153.0 453.0 1159.0 459.0 L 1217.0 459.0 L 1217.0 460.0 L 1337.0 460.0 Q 1345.0 460.0 1345.0 452.0 L 1345.0 448.0 Q 1345.0 440.0 1353.0 440.0 L 1409.0 440.0 L 1609.0 440.0" fill="none" stroke="#475569" stroke-width="1.25" stroke-linecap="round" stroke-linejoin="round"/><text x="1591.0" y="514.0" text-anchor="middle" fill="none" font-size="15.4" font-weight="600" stroke="#ffffff" stroke-width="2">Blob/Queue/Table roles</text><text x="1591.0" y="514.0" text-anchor="middle" fill="#374151" font-size="15.4" font-weight="600">Blob/Queue/Table roles</text></g><g data-dediren-edge-id="managed-identity-accesses-app-insights"><g data-dediren-line-jump-masks="managed-identity-accesses-app-insights"><path d="M 1147.0 459.0 Q 1153.0 453.0 1159.0 459.0" fill="none" stroke="#ffffff" stroke-width="6"/><path d="M 1217.0 562.0 Q 1223.0 568.0 1217.0 574.0" fill="none" stroke="#ffffff" stroke-width="6"/><path d="M 1217.0 796.0 Q 1223.0 802.0 1217.0 808.0" fill="none" stroke="#ffffff" stroke-width="6"/></g><path d="M 1017.0 459.0 L 1089.0 459.0 L 1147.0 459.0 Q 1153.0 453.0 1159.0 459.0 L 1209.0 459.0 Q 1217.0 459.0 1217.0 467.0 L 1217.0 562.0 Q 1223.0 568.0 1217.0 574.0 L 1217.0 796.0 Q 1223.0 802.0 1217.0 808.0 L 1217.0 859.0 Q 1217.0 867.0 1225.0 867.0 L 1281.0 867.0 L 2099.0 867.0 L 2227.0 867.0 L 2379.5 867.0 L 2556.0 867.0 L 2612.0 867.0 Q 2620.0 867.0 2620.0 859.0 L 2620.0 827.0 Q 2620.0 819.0 2628.0 819.0 L 2684.0 819.0" fill="none" stroke="#475569" stroke-width="1.25" stroke-linecap="round" stroke-linejoin="round"/><text x="1223.0" y="663.0" text-anchor="start" fill="none" font-size="15.4" font-weight="600" stroke="#ffffff" stroke-width="2">Metrics Publisher</text><text x="1223.0" y="663.0" text-anchor="start" fill="#374151" font-size="15.4" font-weight="600">Metrics Publisher</text></g><g data-dediren-edge-id="cosmos-throttle-alert-monitors-cosmos"><path d="M 2299.0 698.0 L 2227.0 698.0 L 2171.0 698.0 Q 2163.0 698.0 2163.0 690.0 L 2163.0 655.0 Q 2163.0 647.0 2155.0 647.0 L 1971.0 647.0 L 1843.0 647.0 Q 1835.0 647.0 1835.0 639.0 L 1835.0 624.0 Q 1835.0 616.0 1827.0 616.0 L 1771.0 616.0" fill="none" stroke="#475569" stroke-width="1.25" stroke-linecap="round" stroke-linejoin="round"/><text x="2157.0" y="672.5" text-anchor="end" fill="none" font-size="15.4" font-weight="600" stroke="#ffffff" stroke-width="2">monitors 429s</text><text x="2157.0" y="672.5" text-anchor="end" fill="#374151" font-size="15.4" font-weight="600">monitors 429s</text></g><g data-dediren-node-id="static-web-apps"><rect data-dediren-node-shape="archimate_rectangle" x="293.5" y="760.0" width="160.0" height="80.0" rx="0" fill="#d5e8d4" stroke="#4d7c0f" stroke-width="1.25"/><g data-dediren-node-decorator="archimate_technology_node" data-dediren-icon-kind="node" data-dediren-icon-size="22"><rect x="425.5" y="773.0" width="18.0" height="12.8" rx="1.5" fill="#d5e8d4" stroke="#4d7c0f" stroke-width="1.25"/><path data-dediren-icon-part="node-3d-edges" d="M 425.5 773.0 L 429.5 769.0 L 447.5 769.0 L 443.5 773.0 M 443.5 773.0 L 447.5 769.0 M 443.5 785.7 L 447.5 781.8 M 447.5 769.0 L 447.5 781.8" fill="none" stroke="#4d7c0f" stroke-width="1.25" stroke-linejoin="round"/></g><text x="373.5" y="807.5" text-anchor="middle" dominant-baseline="middle" fill="#365314" font-size="14.0"><tspan x="373.5" dy="0" textLength="75.4" lengthAdjust="spacing">Azure Static</tspan><tspan x="373.5" dy="16.0" textLength="64.5" lengthAdjust="spacing">Web Apps</tspan></text></g><g data-dediren-node-id="function-app"><rect data-dediren-node-shape="archimate_rectangle" x="406.0" y="385.0" width="160.0" height="128.0" rx="0" fill="#d5e8d4" stroke="#4d7c0f" stroke-width="1.25"/><g data-dediren-node-decorator="archimate_technology_node" data-dediren-icon-kind="node" data-dediren-icon-size="22"><rect x="538.0" y="398.0" width="18.0" height="12.8" rx="1.5" fill="#d5e8d4" stroke="#4d7c0f" stroke-width="1.25"/><path data-dediren-icon-part="node-3d-edges" d="M 538.0 398.0 L 542.0 394.0 L 560.0 394.0 L 556.0 398.0 M 556.0 398.0 L 560.0 394.0 M 556.0 410.7 L 560.0 406.8 M 560.0 394.0 L 560.0 406.8" fill="none" stroke="#4d7c0f" stroke-width="1.25" stroke-linejoin="round"/></g><text x="486.0" y="456.5" text-anchor="middle" dominant-baseline="middle" fill="#365314" font-size="14.0"><tspan x="486.0" dy="0" textLength="36.5" lengthAdjust="spacing">Azure</tspan><tspan x="486.0" dy="16.0" textLength="82.4" lengthAdjust="spacing">Function App</tspan></text></g><g data-dediren-node-id="app-service-plan"><rect data-dediren-node-shape="archimate_rectangle" x="52.0" y="409.0" width="160.0" height="80.0" rx="0" fill="#d5e8d4" stroke="#4d7c0f" stroke-width="1.25"/><g data-dediren-node-decorator="archimate_technology_node" data-dediren-icon-kind="node" data-dediren-icon-size="22"><rect x="184.0" y="422.0" width="18.0" height="12.8" rx="1.5" fill="#d5e8d4" stroke="#4d7c0f" stroke-width="1.25"/><path data-dediren-icon-part="node-3d-edges" d="M 184.0 422.0 L 188.0 418.0 L 206.0 418.0 L 202.0 422.0 M 202.0 422.0 L 206.0 418.0 M 202.0 434.7 L 206.0 430.8 M 206.0 418.0 L 206.0 430.8" fill="none" stroke="#4d7c0f" stroke-width="1.25" stroke-linejoin="round"/></g><text x="132.0" y="456.5" text-anchor="middle" dominant-baseline="middle" fill="#365314" font-size="14.0"><tspan x="132.0" dy="0" textLength="75.4" lengthAdjust="spacing">App Service</tspan><tspan x="132.0" dy="16.0" textLength="58.3" lengthAdjust="spacing">Plan (Y1)</tspan></text></g><g data-dediren-node-id="functions-runtime"><rect data-dediren-node-shape="archimate_rectangle" x="856.0" y="228.0" width="160.0" height="90.0" rx="0" fill="#d5e8d4" stroke="#4d7c0f" stroke-width="1.25"/><g data-dediren-node-decorator="archimate_system_software" data-dediren-icon-kind="system_software" data-dediren-icon-size="22"><ellipse data-dediren-icon-part="system-software-disks" cx="1000.8" cy="244.9" rx="5.7" ry="5.7" fill="none" stroke="#4d7c0f" stroke-width="1.25"/><ellipse data-dediren-icon-part="system-software-disks" cx="996.4" cy="248.0" rx="5.7" ry="5.7" fill="#d5e8d4" stroke="#4d7c0f" stroke-width="1.25"/></g><text x="936.0" y="272.4" text-anchor="middle" dominant-baseline="middle" fill="#365314" font-size="14.0"><tspan x="936.0" dy="0" textLength="36.5" lengthAdjust="spacing">Azure</tspan><tspan x="936.0" dy="16.0" textLength="60.6" lengthAdjust="spacing">Functions</tspan><tspan x="936.0" dy="16.0" textLength="46.6" lengthAdjust="spacing">runtime</tspan></text></g><g data-dediren-node-id="managed-identity"><rect data-dediren-node-shape="archimate_rounded_rectangle" x="856.0" y="414.0" width="160.0" height="90.0" rx="6" fill="#d5e8d4" stroke="#4d7c0f" stroke-width="1.25"/><g data-dediren-node-decorator="archimate_technology_service" data-dediren-icon-kind="service" data-dediren-icon-size="22"><rect x="988.0" y="425.6" width="22.0" height="11.0" rx="4.0" fill="#d5e8d4" stroke="#4d7c0f" stroke-width="1.25"/></g><text x="936.0" y="458.4" text-anchor="middle" dominant-baseline="middle" fill="#365314" font-size="14.0"><tspan x="936.0" dy="0" textLength="82.4" lengthAdjust="spacing">Function App</tspan><tspan x="936.0" dy="16.0" textLength="58.3" lengthAdjust="spacing">managed</tspan><tspan x="936.0" dy="16.0" textLength="44.3" lengthAdjust="spacing">identity</tspan></text></g><g data-dediren-node-id="cosmos-account"><rect data-dediren-node-shape="archimate_rectangle" x="1610.0" y="567.0" width="160.0" height="80.0" rx="0" fill="#d5e8d4" stroke="#4d7c0f" stroke-width="1.25"/><g data-dediren-node-decorator="archimate_technology_node" data-dediren-icon-kind="node" data-dediren-icon-size="22"><rect x="1742.0" y="580.0" width="18.0" height="12.8" rx="1.5" fill="#d5e8d4" stroke="#4d7c0f" stroke-width="1.25"/><path data-dediren-icon-part="node-3d-edges" d="M 1742.0 580.0 L 1746.0 576.0 L 1764.0 576.0 L 1760.0 580.0 M 1760.0 580.0 L 1764.0 576.0 M 1760.0 592.7 L 1764.0 588.8 M 1764.0 576.0 L 1764.0 588.8" fill="none" stroke="#4d7c0f" stroke-width="1.25" stroke-linejoin="round"/></g><text x="1690.0" y="614.5" text-anchor="middle" dominant-baseline="middle" fill="#365314" font-size="14.0"><tspan x="1690.0" dy="0" textLength="74.6" lengthAdjust="spacing">Cosmos DB</tspan><tspan x="1690.0" dy="16.0" textLength="49.0" lengthAdjust="spacing">account</tspan></text></g><g data-dediren-node-id="storage-account"><rect data-dediren-node-shape="archimate_rectangle" x="1610.0" y="391.0" width="160.0" height="80.0" rx="0" fill="#d5e8d4" stroke="#4d7c0f" stroke-width="1.25"/><g data-dediren-node-decorator="archimate_technology_node" data-dediren-icon-kind="node" data-dediren-icon-size="22"><rect x="1742.0" y="404.0" width="18.0" height="12.8" rx="1.5" fill="#d5e8d4" stroke="#4d7c0f" stroke-width="1.25"/><path data-dediren-icon-part="node-3d-edges" d="M 1742.0 404.0 L 1746.0 400.0 L 1764.0 400.0 L 1760.0 404.0 M 1760.0 404.0 L 1764.0 400.0 M 1760.0 416.7 L 1764.0 412.8 M 1764.0 400.0 L 1764.0 412.8" fill="none" stroke="#4d7c0f" stroke-width="1.25" stroke-linejoin="round"/></g><text x="1690.0" y="438.5" text-anchor="middle" dominant-baseline="middle" fill="#365314" font-size="14.0"><tspan x="1690.0" dy="0" textLength="49.0" lengthAdjust="spacing">Storage</tspan><tspan x="1690.0" dy="16.0" textLength="49.0" lengthAdjust="spacing">account</tspan></text></g><g data-dediren-node-id="key-vault"><rect data-dediren-node-shape="archimate_rectangle" x="1610.0" y="215.0" width="160.0" height="80.0" rx="0" fill="#d5e8d4" stroke="#4d7c0f" stroke-width="1.25"/><g data-dediren-node-decorator="archimate_technology_node" data-dediren-icon-kind="node" data-dediren-icon-size="22"><rect x="1742.0" y="228.0" width="18.0" height="12.8" rx="1.5" fill="#d5e8d4" stroke="#4d7c0f" stroke-width="1.25"/><path data-dediren-icon-part="node-3d-edges" d="M 1742.0 228.0 L 1746.0 224.0 L 1764.0 224.0 L 1760.0 228.0 M 1760.0 228.0 L 1764.0 224.0 M 1760.0 240.7 L 1764.0 236.8 M 1764.0 224.0 L 1764.0 236.8" fill="none" stroke="#4d7c0f" stroke-width="1.25" stroke-linejoin="round"/></g><text x="1690.0" y="270.5" text-anchor="middle" dominant-baseline="middle" fill="#365314" font-size="14.0" textLength="59.9" lengthAdjust="spacing">Key Vault</text></g><g data-dediren-node-id="application-insights"><rect data-dediren-node-shape="archimate_rectangle" x="2685.0" y="770.0" width="170.0" height="80.0" rx="0" fill="#d5e8d4" stroke="#4d7c0f" stroke-width="1.25"/><g data-dediren-node-decorator="archimate_technology_node" data-dediren-icon-kind="node" data-dediren-icon-size="22"><rect x="2827.0" y="783.0" width="18.0" height="12.8" rx="1.5" fill="#d5e8d4" stroke="#4d7c0f" stroke-width="1.25"/><path data-dediren-icon-part="node-3d-edges" d="M 2827.0 783.0 L 2831.0 779.0 L 2849.0 779.0 L 2845.0 783.0 M 2845.0 783.0 L 2849.0 779.0 M 2845.0 795.7 L 2849.0 791.8 M 2849.0 779.0 L 2849.0 791.8" fill="none" stroke="#4d7c0f" stroke-width="1.25" stroke-linejoin="round"/></g><text x="2770.0" y="817.5" text-anchor="middle" dominant-baseline="middle" fill="#365314" font-size="14.0"><tspan x="2770.0" dy="0" textLength="68.4" lengthAdjust="spacing">Application</tspan><tspan x="2770.0" dy="16.0" textLength="48.2" lengthAdjust="spacing">Insights</tspan></text></g><g data-dediren-node-id="log-analytics"><rect data-dediren-node-shape="archimate_rectangle" x="2300.0" y="439.0" width="160.0" height="90.0" rx="0" fill="#d5e8d4" stroke="#4d7c0f" stroke-width="1.25"/><g data-dediren-node-decorator="archimate_technology_node" data-dediren-icon-kind="node" data-dediren-icon-size="22"><rect x="2432.0" y="452.0" width="18.0" height="12.8" rx="1.5" fill="#d5e8d4" stroke="#4d7c0f" stroke-width="1.25"/><path data-dediren-icon-part="node-3d-edges" d="M 2432.0 452.0 L 2436.0 448.0 L 2454.0 448.0 L 2450.0 452.0 M 2450.0 452.0 L 2454.0 448.0 M 2450.0 464.7 L 2454.0 460.8 M 2454.0 448.0 L 2454.0 460.8" fill="none" stroke="#4d7c0f" stroke-width="1.25" stroke-linejoin="round"/></g><text x="2380.0" y="491.5" text-anchor="middle" dominant-baseline="middle" fill="#365314" font-size="14.0"><tspan x="2380.0" dy="0" textLength="83.2" lengthAdjust="spacing">Log Analytics</tspan><tspan x="2380.0" dy="16.0" textLength="66.9" lengthAdjust="spacing">workspace</tspan></text></g><g data-dediren-node-id="cosmos-throttle-alert"><rect data-dediren-node-shape="archimate_rounded_rectangle" x="2300.0" y="658.0" width="160.0" height="80.0" rx="6" fill="#d5e8d4" stroke="#4d7c0f" stroke-width="1.25"/><g data-dediren-node-decorator="archimate_technology_service" data-dediren-icon-kind="service" data-dediren-icon-size="22"><rect x="2432.0" y="669.6" width="22.0" height="11.0" rx="4.0" fill="#d5e8d4" stroke="#4d7c0f" stroke-width="1.25"/></g><text x="2380.0" y="705.5" text-anchor="middle" dominant-baseline="middle" fill="#365314" font-size="14.0"><tspan x="2380.0" dy="0" textLength="51.3" lengthAdjust="spacing">Cosmos</tspan><tspan x="2380.0" dy="16.0" textLength="73.9" lengthAdjust="spacing">throttle alert</tspan></text></g><g data-dediren-node-id="lfm-app"><rect data-dediren-node-shape="archimate_rectangle" x="647.5" y="760.0" width="160.0" height="80.0" rx="0" fill="#e0f2fe" stroke="#0369a1" stroke-width="1.25"/><g data-dediren-node-decorator="archimate_application_component" data-dediren-icon-kind="component" data-dediren-icon-size="22"><rect x="783.5" y="769.0" width="18.0" height="15.8" rx="1.5" fill="#e0f2fe" stroke="#0369a1" stroke-width="1.25"/><rect x="779.5" y="771.6" width="7.9" height="5.7" rx="1.2" fill="#e0f2fe" stroke="#0369a1" stroke-width="1.25"/><rect x="779.5" y="778.7" width="7.9" height="5.7" rx="1.2" fill="#e0f2fe" stroke="#0369a1" stroke-width="1.25"/></g><text x="727.5" y="815.5" text-anchor="middle" dominant-baseline="middle" fill="#0c4a6e" font-size="14.0" textLength="52.1" lengthAdjust="spacing">Lfm.App</text></g><g data-dediren-node-id="lfm-api"><rect data-dediren-node-shape="archimate_rectangle" x="856.0" y="52.0" width="160.0" height="80.0" rx="0" fill="#e0f2fe" stroke="#0369a1" stroke-width="1.25"/><g data-dediren-node-decorator="archimate_application_component" data-dediren-icon-kind="component" data-dediren-icon-size="22"><rect x="992.0" y="61.0" width="18.0" height="15.8" rx="1.5" fill="#e0f2fe" stroke="#0369a1" stroke-width="1.25"/><rect x="988.0" y="63.6" width="7.9" height="5.7" rx="1.2" fill="#e0f2fe" stroke="#0369a1" stroke-width="1.25"/><rect x="988.0" y="70.7" width="7.9" height="5.7" rx="1.2" fill="#e0f2fe" stroke="#0369a1" stroke-width="1.25"/></g><text x="936.0" y="107.5" text-anchor="middle" dominant-baseline="middle" fill="#0c4a6e" font-size="14.0" textLength="47.4" lengthAdjust="spacing">Lfm.Api</text></g></g></svg>

