<svg xmlns="http://www.w3.org/2000/svg" role="img" width="2450" height="1922" viewBox="-20 -91.6 2450 1953.6" data-arch-a11y="root" data-arch-a11y-viewbox="-20.0 -59.6 2450.0 1921.6"><title>LFM - Data Plane and Secrets</title>
<desc>Which data stores and secrets does the Function App access, and how?</desc>
<text data-arch-a11y="visible-title" x="-12" y="-71.6" font-family="sans-serif" font-size="16" font-weight="bold">LFM - Data Plane and Secrets</text><rect x="-20.0" y="-59.6" width="2450.0" height="1921.6" fill="#ffffff"/><g font-family="Inter, &quot;Liberation Sans&quot;, &quot;Noto Sans&quot;, Arial, &quot;Helvetica Neue&quot;, &quot;Segoe UI&quot;, sans-serif" font-size="14"><g data-dediren-group-id="technology-data-plane-runtime-principal"><rect x="12.0" y="57.2" width="755.0" height="254.5" rx="8" fill="#f8fafc" stroke="#94a3b8" stroke-width="1"/><text x="20.0" y="73.2" fill="#334155" font-size="12">Runtime identity</text></g><g data-dediren-group-id="technology-data-plane-cosmos"><rect x="1183.0" y="12.0" width="1215.0" height="688.0" rx="8" fill="#f8fafc" stroke="#94a3b8" stroke-width="1"/><text x="1191.0" y="28.0" fill="#334155" font-size="12">Cosmos data store</text></g><g data-dediren-group-id="technology-data-plane-storage"><rect x="1183.0" y="796.0" width="891.0" height="698.0" rx="8" fill="#f8fafc" stroke="#94a3b8" stroke-width="1"/><text x="1191.0" y="812.0" fill="#334155" font-size="12">Blob storage</text></g><g data-dediren-group-id="technology-data-plane-secrets"><rect x="1183.0" y="1590.0" width="755.0" height="240.0" rx="8" fill="#f8fafc" stroke="#94a3b8" stroke-width="1"/><text x="1191.0" y="1606.0" fill="#334155" font-size="12">Secrets and cryptographic material</text></g><g data-dediren-edge-id="function-app-has-managed-identity"><path d="M 213.0 223.2 L 437.0 223.2" fill="none" stroke="#475569" stroke-width="1.25" stroke-linecap="round" stroke-linejoin="round"/><text x="325.0" y="241.2" text-anchor="middle" fill="none" font-size="15.4" font-weight="600" stroke="#ffffff" stroke-width="2">identity</text><text x="325.0" y="241.2" text-anchor="middle" fill="#374151" font-size="15.4" font-weight="600">identity</text></g><g data-dediren-edge-id="cosmos-serves-function-app"><marker id="marker-end-cosmos-serves-function-app" data-dediren-edge-marker-end="open_arrow" markerWidth="10" markerHeight="10" refX="9" refY="5" orient="auto"><path d="M 1 1 L 9 5 L 1 9" fill="none" stroke="#475569" stroke-width="1.5"/></marker><g data-dediren-line-jump-masks="cosmos-serves-function-app"><path d="M 277.0 217.2 Q 283.0 223.2 277.0 229.2" fill="none" stroke="#f8fafc" stroke-width="6"/></g><path d="M 1351.0 113.2 L 1151.0 113.2 L 799.0 113.2 L 518.0 113.2 L 341.0 113.2 L 285.0 113.2 Q 277.0 113.2 277.0 121.2 L 277.0 217.2 Q 283.0 223.2 277.0 229.2 L 277.0 232.2 Q 277.0 240.2 269.0 240.2 L 213.0 240.2" fill="none" stroke="#475569" stroke-width="1.25" stroke-linecap="round" stroke-linejoin="round" marker-end="url(#marker-end-cosmos-serves-function-app)"/><text x="1251.0" y="103.2" text-anchor="middle" fill="none" font-size="15.4" font-weight="600" stroke="#ffffff" stroke-width="2">data plane</text><text x="1251.0" y="103.2" text-anchor="middle" fill="#374151" font-size="15.4" font-weight="600">data plane</text></g><g data-dediren-edge-id="storage-serves-function-app"><marker id="marker-end-storage-serves-function-app" data-dediren-edge-marker-end="open_arrow" markerWidth="10" markerHeight="10" refX="9" refY="5" orient="auto"><path d="M 1 1 L 9 5 L 1 9" fill="none" stroke="#475569" stroke-width="1.5"/></marker><g data-dediren-line-jump-masks="storage-serves-function-app"><path d="M 277.0 217.2 Q 283.0 223.2 277.0 229.2" fill="none" stroke="#f8fafc" stroke-width="6"/></g><path d="M 1351.0 889.2 L 1151.0 889.2 L 967.0 889.2 Q 959.0 889.2 959.0 881.2 L 959.0 121.2 Q 959.0 113.2 951.0 113.2 L 799.0 113.2 L 518.0 113.2 L 341.0 113.2 L 285.0 113.2 Q 277.0 113.2 277.0 121.2 L 277.0 217.2 Q 283.0 223.2 277.0 229.2 L 277.0 232.2 Q 277.0 240.2 269.0 240.2 L 213.0 240.2" fill="none" stroke="#475569" stroke-width="1.25" stroke-linecap="round" stroke-linejoin="round" marker-end="url(#marker-end-storage-serves-function-app)"/><text x="1251.0" y="907.2" text-anchor="middle" fill="none" font-size="15.4" font-weight="600" stroke="#ffffff" stroke-width="2">blob data</text><text x="1251.0" y="907.2" text-anchor="middle" fill="#374151" font-size="15.4" font-weight="600">blob data</text></g><g data-dediren-edge-id="key-vault-serves-function-app"><marker id="marker-end-key-vault-serves-function-app" data-dediren-edge-marker-end="open_arrow" markerWidth="10" markerHeight="10" refX="9" refY="5" orient="auto"><path d="M 1 1 L 9 5 L 1 9" fill="none" stroke="#475569" stroke-width="1.5"/></marker><g data-dediren-line-jump-masks="key-vault-serves-function-app"><path d="M 277.0 217.2 Q 283.0 223.2 277.0 229.2" fill="none" stroke="#f8fafc" stroke-width="6"/></g><path d="M 1351.0 1661.5 L 1151.0 1661.5 L 1095.0 1661.5 Q 1087.0 1661.5 1087.0 1653.5 L 1087.0 1030.2 Q 1087.0 1022.2 1079.0 1022.2 L 967.0 1022.2 Q 959.0 1022.2 959.0 1014.2 L 959.0 121.2 Q 959.0 113.2 951.0 113.2 L 799.0 113.2 L 518.0 113.2 L 341.0 113.2 L 285.0 113.2 Q 277.0 113.2 277.0 121.2 L 277.0 217.2 Q 283.0 223.2 277.0 229.2 L 277.0 232.2 Q 277.0 240.2 269.0 240.2 L 213.0 240.2" fill="none" stroke="#475569" stroke-width="1.25" stroke-linecap="round" stroke-linejoin="round" marker-end="url(#marker-end-key-vault-serves-function-app)"/><text x="1251.0" y="1651.5" text-anchor="middle" fill="none" font-size="15.4" font-weight="600" stroke="#ffffff" stroke-width="2">secrets</text><text x="1251.0" y="1651.5" text-anchor="middle" fill="#374151" font-size="15.4" font-weight="600">secrets</text></g><g data-dediren-edge-id="cosmos-composes-database"><path d="M 1513.0 121.7 L 1705.0 121.7" fill="none" stroke="#475569" stroke-width="1.25" stroke-linecap="round" stroke-linejoin="round"/><text x="1609.0" y="139.7" text-anchor="middle" fill="none" font-size="15.4" font-weight="600" stroke="#ffffff" stroke-width="2">database</text><text x="1609.0" y="139.7" text-anchor="middle" fill="#374151" font-size="15.4" font-weight="600">database</text></g><g data-dediren-edge-id="database-composes-runs"><marker id="marker-start-database-composes-runs" data-dediren-edge-marker-start="filled_diamond" markerWidth="10" markerHeight="10" refX="1" refY="5" orient="auto"><path d="M 1 5 L 5 1 L 9 5 L 5 9 Z" fill="#475569" stroke="#475569" stroke-width="1"/></marker><path d="M 1867.0 92.0 L 2187.0 92.0" fill="none" stroke="#475569" stroke-width="1.25" stroke-linecap="round" stroke-linejoin="round" marker-start="url(#marker-start-database-composes-runs)"/><text x="2027.0" y="82.0" text-anchor="middle" fill="none" font-size="15.4" font-weight="600" stroke="#ffffff" stroke-width="2">container</text><text x="2027.0" y="82.0" text-anchor="middle" fill="#374151" font-size="15.4" font-weight="600">container</text></g><g data-dediren-edge-id="database-composes-raiders"><marker id="marker-start-database-composes-raiders" data-dediren-edge-marker-start="filled_diamond" markerWidth="10" markerHeight="10" refX="1" refY="5" orient="auto"><path d="M 1 5 L 5 1 L 9 5 L 5 9 Z" fill="#475569" stroke="#475569" stroke-width="1"/></marker><path d="M 1867.0 111.8 L 2019.0 111.8 Q 2027.0 111.8 2027.0 119.8 L 2027.0 436.0 Q 2027.0 444.0 2035.0 444.0 L 2187.0 444.0" fill="none" stroke="#475569" stroke-width="1.25" stroke-linecap="round" stroke-linejoin="round" marker-start="url(#marker-start-database-composes-raiders)"/><text x="1947.0" y="-10.2" text-anchor="middle" fill="none" font-size="15.4" font-weight="600" stroke="#ffffff" stroke-width="2">container</text><text x="1947.0" y="-10.2" text-anchor="middle" fill="#374151" font-size="15.4" font-weight="600">container</text></g><g data-dediren-edge-id="database-composes-guilds"><marker id="marker-start-database-composes-guilds" data-dediren-edge-marker-start="filled_diamond" markerWidth="10" markerHeight="10" refX="1" refY="5" orient="auto"><path d="M 1 5 L 5 1 L 9 5 L 5 9 Z" fill="#475569" stroke="#475569" stroke-width="1"/></marker><g data-dediren-line-jump-masks="database-composes-guilds"><path d="M 2021.0 268.0 Q 2027.0 262.0 2033.0 268.0" fill="none" stroke="#f8fafc" stroke-width="6"/></g><path d="M 1867.0 131.6 L 1971.0 131.6 Q 1979.0 131.6 1979.0 139.6 L 1979.0 260.0 Q 1979.0 268.0 1987.0 268.0 L 2021.0 268.0 Q 2027.0 262.0 2033.0 268.0 L 2187.0 268.0" fill="none" stroke="#475569" stroke-width="1.25" stroke-linecap="round" stroke-linejoin="round" marker-start="url(#marker-start-database-composes-guilds)"/><text x="2041.0" y="199.8" text-anchor="start" fill="none" font-size="15.4" font-weight="600" stroke="#ffffff" stroke-width="2">container</text><text x="2041.0" y="199.8" text-anchor="start" fill="#374151" font-size="15.4" font-weight="600">container</text></g><g data-dediren-edge-id="database-composes-idempotency"><marker id="marker-start-database-composes-idempotency" data-dediren-edge-marker-start="filled_diamond" markerWidth="10" markerHeight="10" refX="1" refY="5" orient="auto"><path d="M 1 5 L 5 1 L 9 5 L 5 9 Z" fill="#475569" stroke="#475569" stroke-width="1"/></marker><path d="M 1867.0 151.4 L 1923.0 151.4 Q 1931.0 151.4 1931.0 159.4 L 1931.0 612.0 Q 1931.0 620.0 1939.0 620.0 L 2187.0 620.0" fill="none" stroke="#475569" stroke-width="1.25" stroke-linecap="round" stroke-linejoin="round" marker-start="url(#marker-start-database-composes-idempotency)"/><text x="1913.0" y="169.4" text-anchor="middle" fill="none" font-size="15.4" font-weight="600" stroke="#ffffff" stroke-width="2">container</text><text x="1913.0" y="169.4" text-anchor="middle" fill="#374151" font-size="15.4" font-weight="600">container</text></g><g data-dediren-edge-id="storage-composes-wow-reference"><path d="M 1513.0 876.0 L 1833.0 876.0" fill="none" stroke="#475569" stroke-width="1.25" stroke-linecap="round" stroke-linejoin="round"/><text x="1673.0" y="866.0" text-anchor="middle" fill="none" font-size="15.4" font-weight="600" stroke="#ffffff" stroke-width="2">blob path</text><text x="1673.0" y="866.0" text-anchor="middle" fill="#374151" font-size="15.4" font-weight="600">blob path</text></g><g data-dediren-edge-id="storage-composes-wow-media-cache"><path d="M 1513.0 895.8 L 1665.0 895.8 Q 1673.0 895.8 1673.0 903.8 L 1673.0 1230.0 Q 1673.0 1238.0 1681.0 1238.0 L 1833.0 1238.0" fill="none" stroke="#475569" stroke-width="1.25" stroke-linecap="round" stroke-linejoin="round"/><text x="1655.0" y="913.8" text-anchor="middle" fill="none" font-size="15.4" font-weight="600" stroke="#ffffff" stroke-width="2">blob path</text><text x="1655.0" y="913.8" text-anchor="middle" fill="#374151" font-size="15.4" font-weight="600">blob path</text></g><g data-dediren-edge-id="storage-composes-data-protection"><path d="M 1513.0 915.6 L 1569.0 915.6 Q 1577.0 915.6 1577.0 923.6 L 1577.0 1406.0 Q 1577.0 1414.0 1585.0 1414.0 L 1833.0 1414.0" fill="none" stroke="#475569" stroke-width="1.25" stroke-linecap="round" stroke-linejoin="round"/><text x="1571.0" y="1164.8" text-anchor="end" fill="none" font-size="15.4" font-weight="600" stroke="#ffffff" stroke-width="2">blob container</text><text x="1571.0" y="1164.8" text-anchor="end" fill="#374151" font-size="15.4" font-weight="600">blob container</text></g><g data-dediren-edge-id="storage-composes-deployments"><g data-dediren-line-jump-masks="storage-composes-deployments"><path d="M 1571.0 935.4 Q 1577.0 929.4 1583.0 935.4" fill="none" stroke="#f8fafc" stroke-width="6"/><path d="M 1667.0 1057.0 Q 1673.0 1051.0 1679.0 1057.0" fill="none" stroke="#f8fafc" stroke-width="6"/></g><path d="M 1513.0 935.4 L 1571.0 935.4 Q 1577.0 929.4 1583.0 935.4 L 1617.0 935.4 Q 1625.0 935.4 1625.0 943.4 L 1625.0 1049.0 Q 1625.0 1057.0 1633.0 1057.0 L 1667.0 1057.0 Q 1673.0 1051.0 1679.0 1057.0 L 1833.0 1057.0" fill="none" stroke="#475569" stroke-width="1.25" stroke-linecap="round" stroke-linejoin="round"/><text x="1563.0" y="996.2" text-anchor="end" fill="none" font-size="15.4" font-weight="600" stroke="#ffffff" stroke-width="2">blob container</text><text x="1563.0" y="996.2" text-anchor="end" fill="#374151" font-size="15.4" font-weight="600">blob container</text></g><g data-dediren-edge-id="key-vault-composes-data-protection-key"><path d="M 1513.0 1670.0 L 1737.0 1670.0" fill="none" stroke="#475569" stroke-width="1.25" stroke-linecap="round" stroke-linejoin="round"/><text x="1625.0" y="1688.0" text-anchor="middle" fill="none" font-size="15.4" font-weight="600" stroke="#ffffff" stroke-width="2">key</text><text x="1625.0" y="1688.0" text-anchor="middle" fill="#374151" font-size="15.4" font-weight="600">key</text></g><g data-dediren-edge-id="managed-identity-accesses-key-vault"><path d="M 599.0 213.0 L 655.0 213.0 Q 663.0 213.0 663.0 205.0 L 663.0 193.4 Q 663.0 185.4 671.0 185.4 L 799.0 185.4 L 903.0 185.4 Q 911.0 185.4 911.0 193.4 L 911.0 1701.5 Q 911.0 1709.5 919.0 1709.5 L 1151.0 1709.5 L 1279.0 1709.5 Q 1287.0 1709.5 1287.0 1701.5 L 1287.0 1686.5 Q 1287.0 1678.5 1295.0 1678.5 L 1351.0 1678.5" fill="none" stroke="#475569" stroke-width="1.25" stroke-linecap="round" stroke-linejoin="round"/><text x="849.0" y="947.4" text-anchor="end" fill="none" font-size="15.4" font-weight="600" stroke="#ffffff" stroke-width="2">Secrets User</text><text x="849.0" y="947.4" text-anchor="end" fill="#374151" font-size="15.4" font-weight="600">Secrets User</text></g><g data-dediren-edge-id="managed-identity-accesses-cosmos"><g data-dediren-line-jump-masks="managed-identity-accesses-cosmos"><path d="M 953.0 185.4 Q 959.0 179.4 965.0 185.4" fill="none" stroke="#ffffff" stroke-width="6"/></g><path d="M 599.0 213.0 L 655.0 213.0 Q 663.0 213.0 663.0 205.0 L 663.0 193.4 Q 663.0 185.4 671.0 185.4 L 799.0 185.4 L 953.0 185.4 Q 959.0 179.4 965.0 185.4 L 1079.0 185.4 Q 1087.0 185.4 1087.0 177.4 L 1087.0 169.2 Q 1087.0 161.2 1095.0 161.2 L 1151.0 161.2 L 1279.0 161.2 Q 1287.0 161.2 1287.0 153.2 L 1287.0 138.2 Q 1287.0 130.2 1295.0 130.2 L 1351.0 130.2" fill="none" stroke="#475569" stroke-width="1.25" stroke-linecap="round" stroke-linejoin="round"/><text x="1319.0" y="204.2" text-anchor="middle" fill="none" font-size="15.4" font-weight="600" stroke="#ffffff" stroke-width="2">Data Contributor</text><text x="1319.0" y="204.2" text-anchor="middle" fill="#374151" font-size="15.4" font-weight="600">Data Contributor</text></g><g data-dediren-edge-id="managed-identity-accesses-storage"><g data-dediren-line-jump-masks="managed-identity-accesses-storage"><path d="M 953.0 954.2 Q 959.0 948.2 965.0 954.2" fill="none" stroke="#ffffff" stroke-width="6"/></g><path d="M 599.0 213.0 L 655.0 213.0 Q 663.0 213.0 663.0 205.0 L 663.0 193.4 Q 663.0 185.4 671.0 185.4 L 799.0 185.4 L 903.0 185.4 Q 911.0 185.4 911.0 193.4 L 911.0 946.2 Q 911.0 954.2 919.0 954.2 L 953.0 954.2 Q 959.0 948.2 965.0 954.2 L 1079.0 954.2 Q 1087.0 954.2 1087.0 946.2 L 1087.0 945.2 Q 1087.0 937.2 1095.0 937.2 L 1151.0 937.2 L 1279.5 937.2 Q 1287.0 937.2 1287.0 929.7 L 1287.0 929.7 Q 1287.0 922.2 1294.5 922.2 L 1351.0 922.2" fill="none" stroke="#475569" stroke-width="1.25" stroke-linecap="round" stroke-linejoin="round"/><text x="849.0" y="569.8" text-anchor="end" fill="none" font-size="15.4" font-weight="600" stroke="#ffffff" stroke-width="2">Blob/Queue/Table roles</text><text x="849.0" y="569.8" text-anchor="end" fill="#374151" font-size="15.4" font-weight="600">Blob/Queue/Table roles</text></g><g data-dediren-edge-id="managed-identity-accesses-data-protection-key"><marker id="marker-end-managed-identity-accesses-data-protection-key" data-dediren-edge-marker-end="open_arrow" markerWidth="10" markerHeight="10" refX="9" refY="5" orient="auto"><path d="M 1 1 L 9 5 L 1 9" fill="none" stroke="#475569" stroke-width="1.5"/></marker><path d="M 599.0 233.4 L 799.0 233.4 L 855.0 233.4 Q 863.0 233.4 863.0 241.4 L 863.0 1769.5 Q 863.0 1777.5 871.0 1777.5 L 1087.0 1777.5 L 1087.0 1774.0 L 1151.0 1774.0 L 1432.0 1774.0 L 1609.0 1774.0 L 1665.0 1774.0 Q 1673.0 1774.0 1673.0 1766.0 L 1673.0 1695.0 Q 1673.0 1687.0 1681.0 1687.0 L 1737.0 1687.0" fill="none" stroke="#475569" stroke-width="1.25" stroke-linecap="round" stroke-linejoin="round" stroke-dasharray="8 5" marker-end="url(#marker-end-managed-identity-accesses-data-protection-key)"/><text x="699.0" y="251.4" text-anchor="middle" fill="none" font-size="15.4" font-weight="600" stroke="#ffffff" stroke-width="2">Crypto User</text><text x="699.0" y="251.4" text-anchor="middle" fill="#374151" font-size="15.4" font-weight="600">Crypto User</text></g><g data-dediren-node-id="function-app"><rect data-dediren-node-shape="archimate_rectangle" x="52.0" y="191.7" width="160.0" height="80.0" rx="0" fill="#d5e8d4" stroke="#4d7c0f" stroke-width="1.25"/><g data-dediren-node-decorator="archimate_technology_node" data-dediren-icon-kind="node" data-dediren-icon-size="22"><rect x="184.0" y="204.7" width="18.0" height="12.8" rx="1.5" fill="#d5e8d4" stroke="#4d7c0f" stroke-width="1.25"/><path data-dediren-icon-part="node-3d-edges" d="M 184.0 204.7 L 188.0 200.7 L 206.0 200.7 L 202.0 204.7 M 202.0 204.7 L 206.0 200.7 M 202.0 217.4 L 206.0 213.5 M 206.0 200.7 L 206.0 213.5" fill="none" stroke="#4d7c0f" stroke-width="1.25" stroke-linejoin="round"/></g><text x="132.0" y="239.1" text-anchor="middle" dominant-baseline="middle" fill="#365314" font-size="14.0"><tspan x="132.0" dy="0" textLength="36.5" lengthAdjust="spacing">Azure</tspan><tspan x="132.0" dy="16.0" textLength="82.4" lengthAdjust="spacing">Function App</tspan></text></g><g data-dediren-node-id="managed-identity"><rect data-dediren-node-shape="archimate_rounded_rectangle" x="438.0" y="178.2" width="160.0" height="90.0" rx="6" fill="#d5e8d4" stroke="#4d7c0f" stroke-width="1.25"/><g data-dediren-node-decorator="archimate_technology_service" data-dediren-icon-kind="service" data-dediren-icon-size="22"><rect x="570.0" y="189.8" width="22.0" height="11.0" rx="4.0" fill="#d5e8d4" stroke="#4d7c0f" stroke-width="1.25"/></g><text x="518.0" y="222.6" text-anchor="middle" dominant-baseline="middle" fill="#365314" font-size="14.0"><tspan x="518.0" dy="0" textLength="82.4" lengthAdjust="spacing">Function App</tspan><tspan x="518.0" dy="16.0" textLength="58.3" lengthAdjust="spacing">managed</tspan><tspan x="518.0" dy="16.0" textLength="44.3" lengthAdjust="spacing">identity</tspan></text></g><g data-dediren-node-id="cosmos-account"><rect data-dediren-node-shape="archimate_rectangle" x="1352.0" y="81.7" width="160.0" height="80.0" rx="0" fill="#d5e8d4" stroke="#4d7c0f" stroke-width="1.25"/><g data-dediren-node-decorator="archimate_technology_node" data-dediren-icon-kind="node" data-dediren-icon-size="22"><rect x="1484.0" y="94.7" width="18.0" height="12.8" rx="1.5" fill="#d5e8d4" stroke="#4d7c0f" stroke-width="1.25"/><path data-dediren-icon-part="node-3d-edges" d="M 1484.0 94.7 L 1488.0 90.7 L 1506.0 90.7 L 1502.0 94.7 M 1502.0 94.7 L 1506.0 90.7 M 1502.0 107.4 L 1506.0 103.5 M 1506.0 90.7 L 1506.0 103.5" fill="none" stroke="#4d7c0f" stroke-width="1.25" stroke-linejoin="round"/></g><text x="1432.0" y="129.1" text-anchor="middle" dominant-baseline="middle" fill="#365314" font-size="14.0"><tspan x="1432.0" dy="0" textLength="74.6" lengthAdjust="spacing">Cosmos DB</tspan><tspan x="1432.0" dy="16.0" textLength="49.0" lengthAdjust="spacing">account</tspan></text></g><g data-dediren-node-id="cosmos-database"><rect data-dediren-node-shape="archimate_rectangle" x="1706.0" y="57.7" width="160.0" height="128.0" rx="0" fill="#d5e8d4" stroke="#4d7c0f" stroke-width="1.25"/><g data-dediren-node-decorator="archimate_artifact" data-dediren-icon-kind="artifact" data-dediren-icon-size="22"><path data-dediren-icon-part="artifact-document" d="M 1840.2 65.7 L 1850.8 65.7 L 1856.9 71.9 L 1856.9 85.5 L 1840.2 85.5 Z M 1850.8 65.7 L 1850.8 71.9 L 1856.9 71.9" fill="#d5e8d4" stroke="#4d7c0f" stroke-width="1.25"/></g><text x="1786.0" y="129.1" text-anchor="middle" dominant-baseline="middle" fill="#365314" font-size="14.0"><tspan x="1786.0" dy="0" textLength="83.2" lengthAdjust="spacing">Cosmos SQL</tspan><tspan x="1786.0" dy="16.0" textLength="57.5" lengthAdjust="spacing">database</tspan></text></g><g data-dediren-node-id="cosmos-runs"><rect data-dediren-node-shape="archimate_rectangle" x="2188.0" y="52.0" width="160.0" height="80.0" rx="0" fill="#d5e8d4" stroke="#4d7c0f" stroke-width="1.25"/><g data-dediren-node-decorator="archimate_artifact" data-dediren-icon-kind="artifact" data-dediren-icon-size="22"><path data-dediren-icon-part="artifact-document" d="M 2322.2 60.0 L 2332.8 60.0 L 2338.9 66.2 L 2338.9 79.8 L 2322.2 79.8 Z M 2332.8 60.0 L 2332.8 66.2 L 2338.9 66.2" fill="#d5e8d4" stroke="#4d7c0f" stroke-width="1.25"/></g><text x="2268.0" y="107.5" text-anchor="middle" dominant-baseline="middle" fill="#365314" font-size="14.0" textLength="88.7" lengthAdjust="spacing">runs container</text></g><g data-dediren-node-id="cosmos-raiders"><rect data-dediren-node-shape="archimate_rectangle" x="2188.0" y="404.0" width="160.0" height="80.0" rx="0" fill="#d5e8d4" stroke="#4d7c0f" stroke-width="1.25"/><g data-dediren-node-decorator="archimate_artifact" data-dediren-icon-kind="artifact" data-dediren-icon-size="22"><path data-dediren-icon-part="artifact-document" d="M 2322.2 412.0 L 2332.8 412.0 L 2338.9 418.2 L 2338.9 431.8 L 2322.2 431.8 Z M 2332.8 412.0 L 2332.8 418.2 L 2338.9 418.2" fill="#d5e8d4" stroke="#4d7c0f" stroke-width="1.25"/></g><text x="2268.0" y="451.5" text-anchor="middle" dominant-baseline="middle" fill="#365314" font-size="14.0"><tspan x="2268.0" dy="0" textLength="42.7" lengthAdjust="spacing">raiders</tspan><tspan x="2268.0" dy="16.0" textLength="57.5" lengthAdjust="spacing">container</tspan></text></g><g data-dediren-node-id="cosmos-guilds"><rect data-dediren-node-shape="archimate_rectangle" x="2188.0" y="228.0" width="160.0" height="80.0" rx="0" fill="#d5e8d4" stroke="#4d7c0f" stroke-width="1.25"/><g data-dediren-node-decorator="archimate_artifact" data-dediren-icon-kind="artifact" data-dediren-icon-size="22"><path data-dediren-icon-part="artifact-document" d="M 2322.2 236.0 L 2332.8 236.0 L 2338.9 242.2 L 2338.9 255.8 L 2322.2 255.8 Z M 2332.8 236.0 L 2332.8 242.2 L 2338.9 242.2" fill="#d5e8d4" stroke="#4d7c0f" stroke-width="1.25"/></g><text x="2268.0" y="275.5" text-anchor="middle" dominant-baseline="middle" fill="#365314" font-size="14.0"><tspan x="2268.0" dy="0" textLength="36.5" lengthAdjust="spacing">guilds</tspan><tspan x="2268.0" dy="16.0" textLength="57.5" lengthAdjust="spacing">container</tspan></text></g><g data-dediren-node-id="cosmos-idempotency"><rect data-dediren-node-shape="archimate_rectangle" x="2188.0" y="580.0" width="170.0" height="80.0" rx="0" fill="#d5e8d4" stroke="#4d7c0f" stroke-width="1.25"/><g data-dediren-node-decorator="archimate_artifact" data-dediren-icon-kind="artifact" data-dediren-icon-size="22"><path data-dediren-icon-part="artifact-document" d="M 2332.2 588.0 L 2342.8 588.0 L 2348.9 594.2 L 2348.9 607.8 L 2332.2 607.8 Z M 2342.8 588.0 L 2342.8 594.2 L 2348.9 594.2" fill="#d5e8d4" stroke="#4d7c0f" stroke-width="1.25"/></g><text x="2273.0" y="627.5" text-anchor="middle" dominant-baseline="middle" fill="#365314" font-size="14.0"><tspan x="2273.0" dy="0" textLength="79.3" lengthAdjust="spacing">idempotency</tspan><tspan x="2273.0" dy="16.0" textLength="57.5" lengthAdjust="spacing">container</tspan></text></g><g data-dediren-node-id="storage-account"><rect data-dediren-node-shape="archimate_rectangle" x="1352.0" y="841.7" width="160.0" height="128.0" rx="0" fill="#d5e8d4" stroke="#4d7c0f" stroke-width="1.25"/><g data-dediren-node-decorator="archimate_technology_node" data-dediren-icon-kind="node" data-dediren-icon-size="22"><rect x="1484.0" y="854.7" width="18.0" height="12.8" rx="1.5" fill="#d5e8d4" stroke="#4d7c0f" stroke-width="1.25"/><path data-dediren-icon-part="node-3d-edges" d="M 1484.0 854.7 L 1488.0 850.7 L 1506.0 850.7 L 1502.0 854.7 M 1502.0 854.7 L 1506.0 850.7 M 1502.0 867.4 L 1506.0 863.5 M 1506.0 850.7 L 1506.0 863.5" fill="none" stroke="#4d7c0f" stroke-width="1.25" stroke-linejoin="round"/></g><text x="1432.0" y="913.2" text-anchor="middle" dominant-baseline="middle" fill="#365314" font-size="14.0"><tspan x="1432.0" dy="0" textLength="49.0" lengthAdjust="spacing">Storage</tspan><tspan x="1432.0" dy="16.0" textLength="49.0" lengthAdjust="spacing">account</tspan></text></g><g data-dediren-node-id="wow-reference-container"><rect data-dediren-node-shape="archimate_rectangle" x="1834.0" y="836.0" width="160.0" height="80.0" rx="0" fill="#d5e8d4" stroke="#4d7c0f" stroke-width="1.25"/><g data-dediren-node-decorator="archimate_artifact" data-dediren-icon-kind="artifact" data-dediren-icon-size="22"><path data-dediren-icon-part="artifact-document" d="M 1968.2 844.0 L 1978.8 844.0 L 1984.9 850.2 L 1984.9 863.8 L 1968.2 863.8 Z M 1978.8 844.0 L 1978.8 850.2 L 1984.9 850.2" fill="#d5e8d4" stroke="#4d7c0f" stroke-width="1.25"/></g><text x="1914.0" y="883.5" text-anchor="middle" dominant-baseline="middle" fill="#365314" font-size="14.0"><tspan x="1914.0" dy="0" textLength="91.0" lengthAdjust="spacing">wow reference</tspan><tspan x="1914.0" dy="16.0" textLength="33.4" lengthAdjust="spacing">blobs</tspan></text></g><g data-dediren-node-id="wow-media-cache-blobs"><rect data-dediren-node-shape="archimate_rectangle" x="1834.0" y="1198.0" width="170.0" height="80.0" rx="0" fill="#d5e8d4" stroke="#4d7c0f" stroke-width="1.25"/><g data-dediren-node-decorator="archimate_artifact" data-dediren-icon-kind="artifact" data-dediren-icon-size="22"><path data-dediren-icon-part="artifact-document" d="M 1978.2 1206.0 L 1988.8 1206.0 L 1994.9 1212.2 L 1994.9 1225.8 L 1978.2 1225.8 Z M 1988.8 1206.0 L 1988.8 1212.2 L 1994.9 1212.2" fill="#d5e8d4" stroke="#4d7c0f" stroke-width="1.25"/></g><text x="1919.0" y="1239.8" text-anchor="middle" dominant-baseline="middle" fill="#365314" font-size="11.8"><tspan x="1919.0" dy="0" textLength="23.7" lengthAdjust="spacing">wow</tspan><tspan x="1919.0" dy="13.6" textLength="68.0" lengthAdjust="spacing">media-cache</tspan><tspan x="1919.0" dy="13.6" textLength="28.4" lengthAdjust="spacing">blobs</tspan></text></g><g data-dediren-node-id="data-protection-container"><rect data-dediren-node-shape="archimate_rectangle" x="1834.0" y="1374.0" width="200.0" height="80.0" rx="0" fill="#d5e8d4" stroke="#4d7c0f" stroke-width="1.25"/><g data-dediren-node-decorator="archimate_artifact" data-dediren-icon-kind="artifact" data-dediren-icon-size="22"><path data-dediren-icon-part="artifact-document" d="M 2008.2 1382.0 L 2018.8 1382.0 L 2024.9 1388.2 L 2024.9 1401.8 L 2008.2 1401.8 Z M 2018.8 1382.0 L 2018.8 1388.2 L 2024.9 1388.2" fill="#d5e8d4" stroke="#4d7c0f" stroke-width="1.25"/></g><text x="1934.0" y="1421.5" text-anchor="middle" dominant-baseline="middle" fill="#365314" font-size="14.0"><tspan x="1934.0" dy="0" textLength="119.0" lengthAdjust="spacing">data-protection key</tspan><tspan x="1934.0" dy="16.0" textLength="53.6" lengthAdjust="spacing">ring blob</tspan></text></g><g data-dediren-node-id="deployment-container"><rect data-dediren-node-shape="archimate_rectangle" x="1834.0" y="1012.0" width="170.0" height="90.0" rx="0" fill="#d5e8d4" stroke="#4d7c0f" stroke-width="1.25"/><g data-dediren-node-decorator="archimate_artifact" data-dediren-icon-kind="artifact" data-dediren-icon-size="22"><path data-dediren-icon-part="artifact-document" d="M 1978.2 1020.0 L 1988.8 1020.0 L 1994.9 1026.2 L 1994.9 1039.8 L 1978.2 1039.8 Z M 1988.8 1020.0 L 1988.8 1026.2 L 1994.9 1026.2" fill="#d5e8d4" stroke="#4d7c0f" stroke-width="1.25"/></g><text x="1919.0" y="1064.5" text-anchor="middle" dominant-baseline="middle" fill="#365314" font-size="14.0"><tspan x="1919.0" dy="0" textLength="79.3" lengthAdjust="spacing">deployments</tspan><tspan x="1919.0" dy="16.0" textLength="87.9" lengthAdjust="spacing">blob container</tspan></text></g><g data-dediren-node-id="key-vault"><rect data-dediren-node-shape="archimate_rectangle" x="1352.0" y="1630.0" width="160.0" height="80.0" rx="0" fill="#d5e8d4" stroke="#4d7c0f" stroke-width="1.25"/><g data-dediren-node-decorator="archimate_technology_node" data-dediren-icon-kind="node" data-dediren-icon-size="22"><rect x="1484.0" y="1643.0" width="18.0" height="12.8" rx="1.5" fill="#d5e8d4" stroke="#4d7c0f" stroke-width="1.25"/><path data-dediren-icon-part="node-3d-edges" d="M 1484.0 1643.0 L 1488.0 1639.0 L 1506.0 1639.0 L 1502.0 1643.0 M 1502.0 1643.0 L 1506.0 1639.0 M 1502.0 1655.7 L 1506.0 1651.8 M 1506.0 1639.0 L 1506.0 1651.8" fill="none" stroke="#4d7c0f" stroke-width="1.25" stroke-linejoin="round"/></g><text x="1432.0" y="1685.5" text-anchor="middle" dominant-baseline="middle" fill="#365314" font-size="14.0" textLength="59.9" lengthAdjust="spacing">Key Vault</text></g><g data-dediren-node-id="data-protection-key"><rect data-dediren-node-shape="archimate_rectangle" x="1738.0" y="1638.5" width="160.0" height="80.0" rx="0" fill="#d5e8d4" stroke="#4d7c0f" stroke-width="1.25"/><g data-dediren-node-decorator="archimate_artifact" data-dediren-icon-kind="artifact" data-dediren-icon-size="22"><path data-dediren-icon-part="artifact-document" d="M 1872.2 1646.5 L 1882.8 1646.5 L 1888.9 1652.7 L 1888.9 1666.3 L 1872.2 1666.3 Z M 1882.8 1646.5 L 1882.8 1652.7 L 1888.9 1652.7" fill="#d5e8d4" stroke="#4d7c0f" stroke-width="1.25"/></g><text x="1818.0" y="1686.0" text-anchor="middle" dominant-baseline="middle" fill="#365314" font-size="14.0"><tspan x="1818.0" dy="0" textLength="29.5" lengthAdjust="spacing">Data</tspan><tspan x="1818.0" dy="16.0" textLength="88.7" lengthAdjust="spacing">Protection key</tspan></text></g></g></svg>

