<svg xmlns="http://www.w3.org/2000/svg" role="img" width="2514" height="1922" viewBox="-20 -91.6 2514 1953.6" data-arch-a11y="root" data-arch-a11y-viewbox="-20.0 -59.6 2514.0 1921.6"><title>LFM - Data Plane and Secrets</title>
<desc>Which data stores and secrets does the Function App access, and how?</desc>
<text data-arch-a11y="visible-title" x="-12" y="-71.6" font-family="sans-serif" font-size="16" font-weight="bold">LFM - Data Plane and Secrets</text><rect x="-20.0" y="-59.6" width="2514.0" height="1921.6" fill="#ffffff"/><g font-family="Inter, &quot;Liberation Sans&quot;, &quot;Noto Sans&quot;, Arial, &quot;Helvetica Neue&quot;, &quot;Segoe UI&quot;, sans-serif" font-size="14"><g data-dediren-group-id="technology-data-plane-runtime-principal"><rect x="12.0" y="57.2" width="755.0" height="254.5" rx="8" fill="#f8fafc" stroke="#94a3b8" stroke-width="1"/><text x="20.0" y="73.2" fill="#334155" font-size="12">Runtime identity</text></g><g data-dediren-group-id="technology-data-plane-cosmos"><rect x="1215.0" y="12.0" width="1247.0" height="688.0" rx="8" fill="#f8fafc" stroke="#94a3b8" stroke-width="1"/><text x="1223.0" y="28.0" fill="#334155" font-size="12">Cosmos data store</text></g><g data-dediren-group-id="technology-data-plane-storage"><rect x="1215.0" y="796.0" width="923.0" height="698.0" rx="8" fill="#f8fafc" stroke="#94a3b8" stroke-width="1"/><text x="1223.0" y="812.0" fill="#334155" font-size="12">Blob storage</text></g><g data-dediren-group-id="technology-data-plane-secrets"><rect x="1215.0" y="1590.0" width="755.0" height="240.0" rx="8" fill="#f8fafc" stroke="#94a3b8" stroke-width="1"/><text x="1223.0" y="1606.0" fill="#334155" font-size="12">Secrets and cryptographic material</text></g><g data-dediren-edge-id="function-app-has-managed-identity"><path d="M 213.0 223.2 L 437.0 223.2" fill="none" stroke="#475569" stroke-width="1.25" stroke-linecap="round" stroke-linejoin="round"/><text x="325.0" y="241.2" text-anchor="middle" fill="none" font-size="15.4" font-weight="600" stroke="#ffffff" stroke-width="2">identity</text><text x="325.0" y="241.2" text-anchor="middle" fill="#374151" font-size="15.4" font-weight="600">identity</text></g><g data-dediren-edge-id="cosmos-serves-function-app"><marker id="marker-end-cosmos-serves-function-app" data-dediren-edge-marker-end="open_arrow" markerWidth="10" markerHeight="10" refX="9" refY="5" orient="auto"><path d="M 1 1 L 9 5 L 1 9" fill="none" stroke="#475569" stroke-width="1.5"/></marker><g data-dediren-line-jump-masks="cosmos-serves-function-app"><path d="M 277.0 217.2 Q 283.0 223.2 277.0 229.2" fill="none" stroke="#f8fafc" stroke-width="6"/></g><path d="M 1383.0 113.2 L 1183.0 113.2 L 799.0 113.2 L 518.0 113.2 L 341.0 113.2 L 285.0 113.2 Q 277.0 113.2 277.0 121.2 L 277.0 217.2 Q 283.0 223.2 277.0 229.2 L 277.0 232.2 Q 277.0 240.2 269.0 240.2 L 213.0 240.2" fill="none" stroke="#475569" stroke-width="1.25" stroke-linecap="round" stroke-linejoin="round" marker-end="url(#marker-end-cosmos-serves-function-app)"/><text x="1283.0" y="103.2" text-anchor="middle" fill="none" font-size="15.4" font-weight="600" stroke="#ffffff" stroke-width="2">data plane</text><text x="1283.0" y="103.2" text-anchor="middle" fill="#374151" font-size="15.4" font-weight="600">data plane</text></g><g data-dediren-edge-id="storage-serves-function-app"><marker id="marker-end-storage-serves-function-app" data-dediren-edge-marker-end="open_arrow" markerWidth="10" markerHeight="10" refX="9" refY="5" orient="auto"><path d="M 1 1 L 9 5 L 1 9" fill="none" stroke="#475569" stroke-width="1.5"/></marker><g data-dediren-line-jump-masks="storage-serves-function-app"><path d="M 277.0 217.2 Q 283.0 223.2 277.0 229.2" fill="none" stroke="#f8fafc" stroke-width="6"/></g><path d="M 1383.0 889.2 L 1183.0 889.2 L 999.0 889.2 Q 991.0 889.2 991.0 881.2 L 991.0 121.2 Q 991.0 113.2 983.0 113.2 L 799.0 113.2 L 518.0 113.2 L 341.0 113.2 L 285.0 113.2 Q 277.0 113.2 277.0 121.2 L 277.0 217.2 Q 283.0 223.2 277.0 229.2 L 277.0 232.2 Q 277.0 240.2 269.0 240.2 L 213.0 240.2" fill="none" stroke="#475569" stroke-width="1.25" stroke-linecap="round" stroke-linejoin="round" marker-end="url(#marker-end-storage-serves-function-app)"/><text x="1283.0" y="907.2" text-anchor="middle" fill="none" font-size="15.4" font-weight="600" stroke="#ffffff" stroke-width="2">blob data</text><text x="1283.0" y="907.2" text-anchor="middle" fill="#374151" font-size="15.4" font-weight="600">blob data</text></g><g data-dediren-edge-id="key-vault-serves-function-app"><marker id="marker-end-key-vault-serves-function-app" data-dediren-edge-marker-end="open_arrow" markerWidth="10" markerHeight="10" refX="9" refY="5" orient="auto"><path d="M 1 1 L 9 5 L 1 9" fill="none" stroke="#475569" stroke-width="1.5"/></marker><g data-dediren-line-jump-masks="key-vault-serves-function-app"><path d="M 277.0 217.2 Q 283.0 223.2 277.0 229.2" fill="none" stroke="#f8fafc" stroke-width="6"/></g><path d="M 1383.0 1661.5 L 1183.0 1661.5 L 1127.0 1661.5 Q 1119.0 1661.5 1119.0 1653.5 L 1119.0 1030.2 Q 1119.0 1022.2 1111.0 1022.2 L 999.0 1022.2 Q 991.0 1022.2 991.0 1014.2 L 991.0 121.2 Q 991.0 113.2 983.0 113.2 L 799.0 113.2 L 518.0 113.2 L 341.0 113.2 L 285.0 113.2 Q 277.0 113.2 277.0 121.2 L 277.0 217.2 Q 283.0 223.2 277.0 229.2 L 277.0 232.2 Q 277.0 240.2 269.0 240.2 L 213.0 240.2" fill="none" stroke="#475569" stroke-width="1.25" stroke-linecap="round" stroke-linejoin="round" marker-end="url(#marker-end-key-vault-serves-function-app)"/><text x="1283.0" y="1651.5" text-anchor="middle" fill="none" font-size="15.4" font-weight="600" stroke="#ffffff" stroke-width="2">secrets</text><text x="1283.0" y="1651.5" text-anchor="middle" fill="#374151" font-size="15.4" font-weight="600">secrets</text></g><g data-dediren-edge-id="cosmos-composes-database"><path d="M 1545.0 121.7 L 1737.0 121.7" fill="none" stroke="#475569" stroke-width="1.25" stroke-linecap="round" stroke-linejoin="round"/><text x="1641.0" y="139.7" text-anchor="middle" fill="none" font-size="15.4" font-weight="600" stroke="#ffffff" stroke-width="2">database</text><text x="1641.0" y="139.7" text-anchor="middle" fill="#374151" font-size="15.4" font-weight="600">database</text></g><g data-dediren-edge-id="database-composes-runs"><marker id="marker-start-database-composes-runs" data-dediren-edge-marker-start="filled_diamond" markerWidth="10" markerHeight="10" refX="1" refY="5" orient="auto"><path d="M 1 5 L 5 1 L 9 5 L 5 9 Z" fill="#475569" stroke="#475569" stroke-width="1"/></marker><path d="M 1899.0 92.0 L 2251.0 92.0" fill="none" stroke="#475569" stroke-width="1.25" stroke-linecap="round" stroke-linejoin="round" marker-start="url(#marker-start-database-composes-runs)"/><text x="2075.0" y="82.0" text-anchor="middle" fill="none" font-size="15.4" font-weight="600" stroke="#ffffff" stroke-width="2">container</text><text x="2075.0" y="82.0" text-anchor="middle" fill="#374151" font-size="15.4" font-weight="600">container</text></g><g data-dediren-edge-id="database-composes-raiders"><marker id="marker-start-database-composes-raiders" data-dediren-edge-marker-start="filled_diamond" markerWidth="10" markerHeight="10" refX="1" refY="5" orient="auto"><path d="M 1 5 L 5 1 L 9 5 L 5 9 Z" fill="#475569" stroke="#475569" stroke-width="1"/></marker><path d="M 1899.0 111.8 L 2083.0 111.8 Q 2091.0 111.8 2091.0 119.8 L 2091.0 436.0 Q 2091.0 444.0 2099.0 444.0 L 2251.0 444.0" fill="none" stroke="#475569" stroke-width="1.25" stroke-linecap="round" stroke-linejoin="round" marker-start="url(#marker-start-database-composes-raiders)"/><text x="1995.0" y="-10.2" text-anchor="middle" fill="none" font-size="15.4" font-weight="600" stroke="#ffffff" stroke-width="2">container</text><text x="1995.0" y="-10.2" text-anchor="middle" fill="#374151" font-size="15.4" font-weight="600">container</text></g><g data-dediren-edge-id="database-composes-guilds"><marker id="marker-start-database-composes-guilds" data-dediren-edge-marker-start="filled_diamond" markerWidth="10" markerHeight="10" refX="1" refY="5" orient="auto"><path d="M 1 5 L 5 1 L 9 5 L 5 9 Z" fill="#475569" stroke="#475569" stroke-width="1"/></marker><g data-dediren-line-jump-masks="database-composes-guilds"><path d="M 2085.0 268.0 Q 2091.0 262.0 2097.0 268.0" fill="none" stroke="#f8fafc" stroke-width="6"/></g><path d="M 1899.0 131.6 L 2019.0 131.6 Q 2027.0 131.6 2027.0 139.6 L 2027.0 260.0 Q 2027.0 268.0 2035.0 268.0 L 2085.0 268.0 Q 2091.0 262.0 2097.0 268.0 L 2251.0 268.0" fill="none" stroke="#475569" stroke-width="1.25" stroke-linecap="round" stroke-linejoin="round" marker-start="url(#marker-start-database-composes-guilds)"/><text x="1963.0" y="65.6" text-anchor="middle" fill="none" font-size="15.4" font-weight="600" stroke="#ffffff" stroke-width="2">container</text><text x="1963.0" y="65.6" text-anchor="middle" fill="#374151" font-size="15.4" font-weight="600">container</text></g><g data-dediren-edge-id="database-composes-idempotency"><marker id="marker-start-database-composes-idempotency" data-dediren-edge-marker-start="filled_diamond" markerWidth="10" markerHeight="10" refX="1" refY="5" orient="auto"><path d="M 1 5 L 5 1 L 9 5 L 5 9 Z" fill="#475569" stroke="#475569" stroke-width="1"/></marker><path d="M 1899.0 151.4 L 1955.0 151.4 Q 1963.0 151.4 1963.0 159.4 L 1963.0 612.0 Q 1963.0 620.0 1971.0 620.0 L 2251.0 620.0" fill="none" stroke="#475569" stroke-width="1.25" stroke-linecap="round" stroke-linejoin="round" marker-start="url(#marker-start-database-composes-idempotency)"/><text x="1945.0" y="169.4" text-anchor="middle" fill="none" font-size="15.4" font-weight="600" stroke="#ffffff" stroke-width="2">container</text><text x="1945.0" y="169.4" text-anchor="middle" fill="#374151" font-size="15.4" font-weight="600">container</text></g><g data-dediren-edge-id="storage-composes-wow-reference"><path d="M 1545.0 876.0 L 1897.0 876.0" fill="none" stroke="#475569" stroke-width="1.25" stroke-linecap="round" stroke-linejoin="round"/><text x="1721.0" y="866.0" text-anchor="middle" fill="none" font-size="15.4" font-weight="600" stroke="#ffffff" stroke-width="2">blob path</text><text x="1721.0" y="866.0" text-anchor="middle" fill="#374151" font-size="15.4" font-weight="600">blob path</text></g><g data-dediren-edge-id="storage-composes-wow-media-cache"><path d="M 1545.0 895.8 L 1729.0 895.8 Q 1737.0 895.8 1737.0 903.8 L 1737.0 1230.0 Q 1737.0 1238.0 1745.0 1238.0 L 1897.0 1238.0" fill="none" stroke="#475569" stroke-width="1.25" stroke-linecap="round" stroke-linejoin="round"/><text x="1719.0" y="913.8" text-anchor="middle" fill="none" font-size="15.4" font-weight="600" stroke="#ffffff" stroke-width="2">blob path</text><text x="1719.0" y="913.8" text-anchor="middle" fill="#374151" font-size="15.4" font-weight="600">blob path</text></g><g data-dediren-edge-id="storage-composes-data-protection"><path d="M 1545.0 915.6 L 1601.0 915.6 Q 1609.0 915.6 1609.0 923.6 L 1609.0 1406.0 Q 1609.0 1414.0 1617.0 1414.0 L 1897.0 1414.0" fill="none" stroke="#475569" stroke-width="1.25" stroke-linecap="round" stroke-linejoin="round"/><text x="1603.0" y="1164.8" text-anchor="end" fill="none" font-size="15.4" font-weight="600" stroke="#ffffff" stroke-width="2">blob container</text><text x="1603.0" y="1164.8" text-anchor="end" fill="#374151" font-size="15.4" font-weight="600">blob container</text></g><g data-dediren-edge-id="storage-composes-deployments"><g data-dediren-line-jump-masks="storage-composes-deployments"><path d="M 1603.0 935.4 Q 1609.0 929.4 1615.0 935.4" fill="none" stroke="#f8fafc" stroke-width="6"/><path d="M 1731.0 1057.0 Q 1737.0 1051.0 1743.0 1057.0" fill="none" stroke="#f8fafc" stroke-width="6"/></g><path d="M 1545.0 935.4 L 1603.0 935.4 Q 1609.0 929.4 1615.0 935.4 L 1665.0 935.4 Q 1673.0 935.4 1673.0 943.4 L 1673.0 1049.0 Q 1673.0 1057.0 1681.0 1057.0 L 1731.0 1057.0 Q 1737.0 1051.0 1743.0 1057.0 L 1897.0 1057.0" fill="none" stroke="#475569" stroke-width="1.25" stroke-linecap="round" stroke-linejoin="round"/><text x="1609.0" y="841.4" text-anchor="middle" fill="none" font-size="15.4" font-weight="600" stroke="#ffffff" stroke-width="2">blob container</text><text x="1609.0" y="841.4" text-anchor="middle" fill="#374151" font-size="15.4" font-weight="600">blob container</text></g><g data-dediren-edge-id="key-vault-composes-data-protection-key"><path d="M 1545.0 1670.0 L 1769.0 1670.0" fill="none" stroke="#475569" stroke-width="1.25" stroke-linecap="round" stroke-linejoin="round"/><text x="1657.0" y="1688.0" text-anchor="middle" fill="none" font-size="15.4" font-weight="600" stroke="#ffffff" stroke-width="2">key</text><text x="1657.0" y="1688.0" text-anchor="middle" fill="#374151" font-size="15.4" font-weight="600">key</text></g><g data-dediren-edge-id="managed-identity-accesses-key-vault"><path d="M 599.0 213.0 L 655.0 213.0 Q 663.0 213.0 663.0 205.0 L 663.0 193.4 Q 663.0 185.4 671.0 185.4 L 799.0 185.4 L 919.0 185.4 Q 927.0 185.4 927.0 193.4 L 927.0 1701.5 Q 927.0 1709.5 935.0 1709.5 L 1183.0 1709.5 L 1311.0 1709.5 Q 1319.0 1709.5 1319.0 1701.5 L 1319.0 1686.5 Q 1319.0 1678.5 1327.0 1678.5 L 1383.0 1678.5" fill="none" stroke="#475569" stroke-width="1.25" stroke-linecap="round" stroke-linejoin="round"/><text x="1351.0" y="1752.5" text-anchor="middle" fill="none" font-size="15.4" font-weight="600" stroke="#ffffff" stroke-width="2">Secrets User</text><text x="1351.0" y="1752.5" text-anchor="middle" fill="#374151" font-size="15.4" font-weight="600">Secrets User</text></g><g data-dediren-edge-id="managed-identity-accesses-cosmos"><g data-dediren-line-jump-masks="managed-identity-accesses-cosmos"><path d="M 985.0 185.4 Q 991.0 179.4 997.0 185.4" fill="none" stroke="#ffffff" stroke-width="6"/></g><path d="M 599.0 213.0 L 655.0 213.0 Q 663.0 213.0 663.0 205.0 L 663.0 193.4 Q 663.0 185.4 671.0 185.4 L 799.0 185.4 L 985.0 185.4 Q 991.0 179.4 997.0 185.4 L 1111.0 185.4 Q 1119.0 185.4 1119.0 177.4 L 1119.0 169.2 Q 1119.0 161.2 1127.0 161.2 L 1183.0 161.2 L 1311.0 161.2 Q 1319.0 161.2 1319.0 153.2 L 1319.0 138.2 Q 1319.0 130.2 1327.0 130.2 L 1383.0 130.2" fill="none" stroke="#475569" stroke-width="1.25" stroke-linecap="round" stroke-linejoin="round"/><text x="1351.0" y="204.2" text-anchor="middle" fill="none" font-size="15.4" font-weight="600" stroke="#ffffff" stroke-width="2">Data Contributor</text><text x="1351.0" y="204.2" text-anchor="middle" fill="#374151" font-size="15.4" font-weight="600">Data Contributor</text></g><g data-dediren-edge-id="managed-identity-accesses-storage"><g data-dediren-line-jump-masks="managed-identity-accesses-storage"><path d="M 985.0 954.2 Q 991.0 948.2 997.0 954.2" fill="none" stroke="#ffffff" stroke-width="6"/></g><path d="M 599.0 213.0 L 655.0 213.0 Q 663.0 213.0 663.0 205.0 L 663.0 193.4 Q 663.0 185.4 671.0 185.4 L 799.0 185.4 L 919.0 185.4 Q 927.0 185.4 927.0 193.4 L 927.0 946.2 Q 927.0 954.2 935.0 954.2 L 985.0 954.2 Q 991.0 948.2 997.0 954.2 L 1111.0 954.2 Q 1119.0 954.2 1119.0 946.2 L 1119.0 945.2 Q 1119.0 937.2 1127.0 937.2 L 1183.0 937.2 L 1311.5 937.2 Q 1319.0 937.2 1319.0 929.7 L 1319.0 929.7 Q 1319.0 922.2 1326.5 922.2 L 1383.0 922.2" fill="none" stroke="#475569" stroke-width="1.25" stroke-linecap="round" stroke-linejoin="round"/><text x="1351.0" y="996.2" text-anchor="middle" fill="none" font-size="15.4" font-weight="600" stroke="#ffffff" stroke-width="2">Blob/Queue/Table roles</text><text x="1351.0" y="996.2" text-anchor="middle" fill="#374151" font-size="15.4" font-weight="600">Blob/Queue/Table roles</text></g><g data-dediren-edge-id="managed-identity-accesses-data-protection-key"><marker id="marker-end-managed-identity-accesses-data-protection-key" data-dediren-edge-marker-end="open_arrow" markerWidth="10" markerHeight="10" refX="9" refY="5" orient="auto"><path d="M 1 1 L 9 5 L 1 9" fill="none" stroke="#475569" stroke-width="1.5"/></marker><path d="M 599.0 233.4 L 799.0 233.4 L 855.0 233.4 Q 863.0 233.4 863.0 241.4 L 863.0 1769.5 Q 863.0 1777.5 871.0 1777.5 L 1119.0 1777.5 L 1119.0 1774.0 L 1183.0 1774.0 L 1464.0 1774.0 L 1641.0 1774.0 L 1697.0 1774.0 Q 1705.0 1774.0 1705.0 1766.0 L 1705.0 1695.0 Q 1705.0 1687.0 1713.0 1687.0 L 1769.0 1687.0" fill="none" stroke="#475569" stroke-width="1.25" stroke-linecap="round" stroke-linejoin="round" stroke-dasharray="8 5" marker-end="url(#marker-end-managed-identity-accesses-data-protection-key)"/><text x="699.0" y="251.4" text-anchor="middle" fill="none" font-size="15.4" font-weight="600" stroke="#ffffff" stroke-width="2">Crypto User</text><text x="699.0" y="251.4" text-anchor="middle" fill="#374151" font-size="15.4" font-weight="600">Crypto User</text></g><g data-dediren-node-id="function-app"><rect data-dediren-node-shape="archimate_rectangle" x="52.0" y="191.7" width="160.0" height="80.0" rx="0" fill="#d5e8d4" stroke="#4d7c0f" stroke-width="1.25"/><g data-dediren-node-decorator="archimate_technology_node" data-dediren-icon-kind="node" data-dediren-icon-size="22"><rect x="184.0" y="204.7" width="18.0" height="12.8" rx="1.5" fill="#d5e8d4" stroke="#4d7c0f" stroke-width="1.25"/><path data-dediren-icon-part="node-3d-edges" d="M 184.0 204.7 L 188.0 200.7 L 206.0 200.7 L 202.0 204.7 M 202.0 204.7 L 206.0 200.7 M 202.0 217.4 L 206.0 213.5 M 206.0 200.7 L 206.0 213.5" fill="none" stroke="#4d7c0f" stroke-width="1.25" stroke-linejoin="round"/></g><text x="132.0" y="239.1" text-anchor="middle" dominant-baseline="middle" fill="#365314" font-size="14.0"><tspan x="132.0" dy="0" textLength="36.5" lengthAdjust="spacing">Azure</tspan><tspan x="132.0" dy="16.0" textLength="82.4" lengthAdjust="spacing">Function App</tspan></text></g><g data-dediren-node-id="managed-identity"><rect data-dediren-node-shape="archimate_rounded_rectangle" x="438.0" y="178.2" width="160.0" height="90.0" rx="6" fill="#d5e8d4" stroke="#4d7c0f" stroke-width="1.25"/><g data-dediren-node-decorator="archimate_technology_service" data-dediren-icon-kind="service" data-dediren-icon-size="22"><rect x="570.0" y="189.8" width="22.0" height="11.0" rx="4.0" fill="#d5e8d4" stroke="#4d7c0f" stroke-width="1.25"/></g><text x="518.0" y="222.6" text-anchor="middle" dominant-baseline="middle" fill="#365314" font-size="14.0"><tspan x="518.0" dy="0" textLength="82.4" lengthAdjust="spacing">Function App</tspan><tspan x="518.0" dy="16.0" textLength="58.3" lengthAdjust="spacing">managed</tspan><tspan x="518.0" dy="16.0" textLength="44.3" lengthAdjust="spacing">identity</tspan></text></g><g data-dediren-node-id="cosmos-account"><rect data-dediren-node-shape="archimate_rectangle" x="1384.0" y="81.7" width="160.0" height="80.0" rx="0" fill="#d5e8d4" stroke="#4d7c0f" stroke-width="1.25"/><g data-dediren-node-decorator="archimate_technology_node" data-dediren-icon-kind="node" data-dediren-icon-size="22"><rect x="1516.0" y="94.7" width="18.0" height="12.8" rx="1.5" fill="#d5e8d4" stroke="#4d7c0f" stroke-width="1.25"/><path data-dediren-icon-part="node-3d-edges" d="M 1516.0 94.7 L 1520.0 90.7 L 1538.0 90.7 L 1534.0 94.7 M 1534.0 94.7 L 1538.0 90.7 M 1534.0 107.4 L 1538.0 103.5 M 1538.0 90.7 L 1538.0 103.5" fill="none" stroke="#4d7c0f" stroke-width="1.25" stroke-linejoin="round"/></g><text x="1464.0" y="129.1" text-anchor="middle" dominant-baseline="middle" fill="#365314" font-size="14.0"><tspan x="1464.0" dy="0" textLength="74.6" lengthAdjust="spacing">Cosmos DB</tspan><tspan x="1464.0" dy="16.0" textLength="49.0" lengthAdjust="spacing">account</tspan></text></g><g data-dediren-node-id="cosmos-database"><rect data-dediren-node-shape="archimate_rectangle" x="1738.0" y="57.7" width="160.0" height="128.0" rx="0" fill="#d5e8d4" stroke="#4d7c0f" stroke-width="1.25"/><g data-dediren-node-decorator="archimate_artifact" data-dediren-icon-kind="artifact" data-dediren-icon-size="22"><path data-dediren-icon-part="artifact-document" d="M 1872.2 65.7 L 1882.8 65.7 L 1888.9 71.9 L 1888.9 85.5 L 1872.2 85.5 Z M 1882.8 65.7 L 1882.8 71.9 L 1888.9 71.9" fill="#d5e8d4" stroke="#4d7c0f" stroke-width="1.25"/></g><text x="1818.0" y="129.1" text-anchor="middle" dominant-baseline="middle" fill="#365314" font-size="14.0"><tspan x="1818.0" dy="0" textLength="83.2" lengthAdjust="spacing">Cosmos SQL</tspan><tspan x="1818.0" dy="16.0" textLength="57.5" lengthAdjust="spacing">database</tspan></text></g><g data-dediren-node-id="cosmos-runs"><rect data-dediren-node-shape="archimate_rectangle" x="2252.0" y="52.0" width="160.0" height="80.0" rx="0" fill="#d5e8d4" stroke="#4d7c0f" stroke-width="1.25"/><g data-dediren-node-decorator="archimate_artifact" data-dediren-icon-kind="artifact" data-dediren-icon-size="22"><path data-dediren-icon-part="artifact-document" d="M 2386.2 60.0 L 2396.8 60.0 L 2402.9 66.2 L 2402.9 79.8 L 2386.2 79.8 Z M 2396.8 60.0 L 2396.8 66.2 L 2402.9 66.2" fill="#d5e8d4" stroke="#4d7c0f" stroke-width="1.25"/></g><text x="2332.0" y="107.5" text-anchor="middle" dominant-baseline="middle" fill="#365314" font-size="14.0" textLength="88.7" lengthAdjust="spacing">runs container</text></g><g data-dediren-node-id="cosmos-raiders"><rect data-dediren-node-shape="archimate_rectangle" x="2252.0" y="404.0" width="160.0" height="80.0" rx="0" fill="#d5e8d4" stroke="#4d7c0f" stroke-width="1.25"/><g data-dediren-node-decorator="archimate_artifact" data-dediren-icon-kind="artifact" data-dediren-icon-size="22"><path data-dediren-icon-part="artifact-document" d="M 2386.2 412.0 L 2396.8 412.0 L 2402.9 418.2 L 2402.9 431.8 L 2386.2 431.8 Z M 2396.8 412.0 L 2396.8 418.2 L 2402.9 418.2" fill="#d5e8d4" stroke="#4d7c0f" stroke-width="1.25"/></g><text x="2332.0" y="451.5" text-anchor="middle" dominant-baseline="middle" fill="#365314" font-size="14.0"><tspan x="2332.0" dy="0" textLength="42.7" lengthAdjust="spacing">raiders</tspan><tspan x="2332.0" dy="16.0" textLength="57.5" lengthAdjust="spacing">container</tspan></text></g><g data-dediren-node-id="cosmos-guilds"><rect data-dediren-node-shape="archimate_rectangle" x="2252.0" y="228.0" width="160.0" height="80.0" rx="0" fill="#d5e8d4" stroke="#4d7c0f" stroke-width="1.25"/><g data-dediren-node-decorator="archimate_artifact" data-dediren-icon-kind="artifact" data-dediren-icon-size="22"><path data-dediren-icon-part="artifact-document" d="M 2386.2 236.0 L 2396.8 236.0 L 2402.9 242.2 L 2402.9 255.8 L 2386.2 255.8 Z M 2396.8 236.0 L 2396.8 242.2 L 2402.9 242.2" fill="#d5e8d4" stroke="#4d7c0f" stroke-width="1.25"/></g><text x="2332.0" y="275.5" text-anchor="middle" dominant-baseline="middle" fill="#365314" font-size="14.0"><tspan x="2332.0" dy="0" textLength="36.5" lengthAdjust="spacing">guilds</tspan><tspan x="2332.0" dy="16.0" textLength="57.5" lengthAdjust="spacing">container</tspan></text></g><g data-dediren-node-id="cosmos-idempotency"><rect data-dediren-node-shape="archimate_rectangle" x="2252.0" y="580.0" width="170.0" height="80.0" rx="0" fill="#d5e8d4" stroke="#4d7c0f" stroke-width="1.25"/><g data-dediren-node-decorator="archimate_artifact" data-dediren-icon-kind="artifact" data-dediren-icon-size="22"><path data-dediren-icon-part="artifact-document" d="M 2396.2 588.0 L 2406.8 588.0 L 2412.9 594.2 L 2412.9 607.8 L 2396.2 607.8 Z M 2406.8 588.0 L 2406.8 594.2 L 2412.9 594.2" fill="#d5e8d4" stroke="#4d7c0f" stroke-width="1.25"/></g><text x="2337.0" y="627.5" text-anchor="middle" dominant-baseline="middle" fill="#365314" font-size="14.0"><tspan x="2337.0" dy="0" textLength="79.3" lengthAdjust="spacing">idempotency</tspan><tspan x="2337.0" dy="16.0" textLength="57.5" lengthAdjust="spacing">container</tspan></text></g><g data-dediren-node-id="storage-account"><rect data-dediren-node-shape="archimate_rectangle" x="1384.0" y="841.7" width="160.0" height="128.0" rx="0" fill="#d5e8d4" stroke="#4d7c0f" stroke-width="1.25"/><g data-dediren-node-decorator="archimate_technology_node" data-dediren-icon-kind="node" data-dediren-icon-size="22"><rect x="1516.0" y="854.7" width="18.0" height="12.8" rx="1.5" fill="#d5e8d4" stroke="#4d7c0f" stroke-width="1.25"/><path data-dediren-icon-part="node-3d-edges" d="M 1516.0 854.7 L 1520.0 850.7 L 1538.0 850.7 L 1534.0 854.7 M 1534.0 854.7 L 1538.0 850.7 M 1534.0 867.4 L 1538.0 863.5 M 1538.0 850.7 L 1538.0 863.5" fill="none" stroke="#4d7c0f" stroke-width="1.25" stroke-linejoin="round"/></g><text x="1464.0" y="913.2" text-anchor="middle" dominant-baseline="middle" fill="#365314" font-size="14.0"><tspan x="1464.0" dy="0" textLength="49.0" lengthAdjust="spacing">Storage</tspan><tspan x="1464.0" dy="16.0" textLength="49.0" lengthAdjust="spacing">account</tspan></text></g><g data-dediren-node-id="wow-reference-container"><rect data-dediren-node-shape="archimate_rectangle" x="1898.0" y="836.0" width="160.0" height="80.0" rx="0" fill="#d5e8d4" stroke="#4d7c0f" stroke-width="1.25"/><g data-dediren-node-decorator="archimate_artifact" data-dediren-icon-kind="artifact" data-dediren-icon-size="22"><path data-dediren-icon-part="artifact-document" d="M 2032.2 844.0 L 2042.8 844.0 L 2048.9 850.2 L 2048.9 863.8 L 2032.2 863.8 Z M 2042.8 844.0 L 2042.8 850.2 L 2048.9 850.2" fill="#d5e8d4" stroke="#4d7c0f" stroke-width="1.25"/></g><text x="1978.0" y="883.5" text-anchor="middle" dominant-baseline="middle" fill="#365314" font-size="14.0"><tspan x="1978.0" dy="0" textLength="91.0" lengthAdjust="spacing">wow reference</tspan><tspan x="1978.0" dy="16.0" textLength="33.4" lengthAdjust="spacing">blobs</tspan></text></g><g data-dediren-node-id="wow-media-cache-blobs"><rect data-dediren-node-shape="archimate_rectangle" x="1898.0" y="1198.0" width="170.0" height="80.0" rx="0" fill="#d5e8d4" stroke="#4d7c0f" stroke-width="1.25"/><g data-dediren-node-decorator="archimate_artifact" data-dediren-icon-kind="artifact" data-dediren-icon-size="22"><path data-dediren-icon-part="artifact-document" d="M 2042.2 1206.0 L 2052.8 1206.0 L 2058.9 1212.2 L 2058.9 1225.8 L 2042.2 1225.8 Z M 2052.8 1206.0 L 2052.8 1212.2 L 2058.9 1212.2" fill="#d5e8d4" stroke="#4d7c0f" stroke-width="1.25"/></g><text x="1983.0" y="1239.8" text-anchor="middle" dominant-baseline="middle" fill="#365314" font-size="11.8"><tspan x="1983.0" dy="0" textLength="23.7" lengthAdjust="spacing">wow</tspan><tspan x="1983.0" dy="13.6" textLength="68.0" lengthAdjust="spacing">media-cache</tspan><tspan x="1983.0" dy="13.6" textLength="28.4" lengthAdjust="spacing">blobs</tspan></text></g><g data-dediren-node-id="data-protection-container"><rect data-dediren-node-shape="archimate_rectangle" x="1898.0" y="1374.0" width="200.0" height="80.0" rx="0" fill="#d5e8d4" stroke="#4d7c0f" stroke-width="1.25"/><g data-dediren-node-decorator="archimate_artifact" data-dediren-icon-kind="artifact" data-dediren-icon-size="22"><path data-dediren-icon-part="artifact-document" d="M 2072.2 1382.0 L 2082.8 1382.0 L 2088.9 1388.2 L 2088.9 1401.8 L 2072.2 1401.8 Z M 2082.8 1382.0 L 2082.8 1388.2 L 2088.9 1388.2" fill="#d5e8d4" stroke="#4d7c0f" stroke-width="1.25"/></g><text x="1998.0" y="1421.5" text-anchor="middle" dominant-baseline="middle" fill="#365314" font-size="14.0"><tspan x="1998.0" dy="0" textLength="119.0" lengthAdjust="spacing">data-protection key</tspan><tspan x="1998.0" dy="16.0" textLength="53.6" lengthAdjust="spacing">ring blob</tspan></text></g><g data-dediren-node-id="deployment-container"><rect data-dediren-node-shape="archimate_rectangle" x="1898.0" y="1012.0" width="170.0" height="90.0" rx="0" fill="#d5e8d4" stroke="#4d7c0f" stroke-width="1.25"/><g data-dediren-node-decorator="archimate_artifact" data-dediren-icon-kind="artifact" data-dediren-icon-size="22"><path data-dediren-icon-part="artifact-document" d="M 2042.2 1020.0 L 2052.8 1020.0 L 2058.9 1026.2 L 2058.9 1039.8 L 2042.2 1039.8 Z M 2052.8 1020.0 L 2052.8 1026.2 L 2058.9 1026.2" fill="#d5e8d4" stroke="#4d7c0f" stroke-width="1.25"/></g><text x="1983.0" y="1064.5" text-anchor="middle" dominant-baseline="middle" fill="#365314" font-size="14.0"><tspan x="1983.0" dy="0" textLength="79.3" lengthAdjust="spacing">deployments</tspan><tspan x="1983.0" dy="16.0" textLength="87.9" lengthAdjust="spacing">blob container</tspan></text></g><g data-dediren-node-id="key-vault"><rect data-dediren-node-shape="archimate_rectangle" x="1384.0" y="1630.0" width="160.0" height="80.0" rx="0" fill="#d5e8d4" stroke="#4d7c0f" stroke-width="1.25"/><g data-dediren-node-decorator="archimate_technology_node" data-dediren-icon-kind="node" data-dediren-icon-size="22"><rect x="1516.0" y="1643.0" width="18.0" height="12.8" rx="1.5" fill="#d5e8d4" stroke="#4d7c0f" stroke-width="1.25"/><path data-dediren-icon-part="node-3d-edges" d="M 1516.0 1643.0 L 1520.0 1639.0 L 1538.0 1639.0 L 1534.0 1643.0 M 1534.0 1643.0 L 1538.0 1639.0 M 1534.0 1655.7 L 1538.0 1651.8 M 1538.0 1639.0 L 1538.0 1651.8" fill="none" stroke="#4d7c0f" stroke-width="1.25" stroke-linejoin="round"/></g><text x="1464.0" y="1685.5" text-anchor="middle" dominant-baseline="middle" fill="#365314" font-size="14.0" textLength="59.9" lengthAdjust="spacing">Key Vault</text></g><g data-dediren-node-id="data-protection-key"><rect data-dediren-node-shape="archimate_rectangle" x="1770.0" y="1638.5" width="160.0" height="80.0" rx="0" fill="#d5e8d4" stroke="#4d7c0f" stroke-width="1.25"/><g data-dediren-node-decorator="archimate_artifact" data-dediren-icon-kind="artifact" data-dediren-icon-size="22"><path data-dediren-icon-part="artifact-document" d="M 1904.2 1646.5 L 1914.8 1646.5 L 1920.9 1652.7 L 1920.9 1666.3 L 1904.2 1666.3 Z M 1914.8 1646.5 L 1914.8 1652.7 L 1920.9 1652.7" fill="#d5e8d4" stroke="#4d7c0f" stroke-width="1.25"/></g><text x="1850.0" y="1686.0" text-anchor="middle" dominant-baseline="middle" fill="#365314" font-size="14.0"><tspan x="1850.0" dy="0" textLength="29.5" lengthAdjust="spacing">Data</tspan><tspan x="1850.0" dy="16.0" textLength="88.7" lengthAdjust="spacing">Protection key</tspan></text></g></g></svg>

