<svg xmlns="http://www.w3.org/2000/svg" width="1436" height="1809" viewBox="-20.0 -20.0 1436.0 1809.0"><rect x="-20.0" y="-20.0" width="1436.0" height="1809.0" fill="#ffffff"/><g font-family="Inter, Arial, sans-serif" font-size="14"><g data-dediren-group-id="run-signup-contracts-boundary" data-dediren-group-type="Package" data-dediren-group-source-id="pkg-contracts-runs"><rect x="234.0" y="12.0" width="928.0" height="836.0" rx="0" fill="#ffffff" stroke="#000000" stroke-width="1"/><text x="242.0" y="28.0" fill="#000000" font-size="12">Wire contracts</text></g><g data-dediren-group-id="run-signup-store-boundary" data-dediren-group-type="Package" data-dediren-group-source-id="pkg-api-repositories"><rect x="12.0" y="920.0" width="1372.0" height="837.0" rx="0" fill="#ffffff" stroke="#000000" stroke-width="1"/><text x="20.0" y="936.0" fill="#000000" font-size="12">Stored documents</text></g><g data-dediren-edge-id="signup-request-uses-attendance"><marker id="marker-end-signup-request-uses-attendance" data-dediren-edge-marker-end="open_arrow" markerWidth="10" markerHeight="10" refX="5" refY="5" orient="auto"><path d="M 1 1 L 9 5 L 1 9" fill="none" stroke="#000000" stroke-width="1.5"/></marker><path d="M 446.0 382.0 L 446.0 422.0 Q 446.0 430.0 454.0 430.0 L 942.0 430.0 Q 950.0 430.0 950.0 438.0 L 950.0 478.0" fill="none" stroke="#000000" stroke-width="1.25" stroke-linecap="round" stroke-linejoin="round" stroke-dasharray="8 5" marker-end="url(#marker-end-signup-request-uses-attendance)"/><text x="698.0" y="448.0" text-anchor="middle" fill="none" font-size="15.4" font-weight="600" stroke="#ffffff" stroke-width="2">attendance</text><text x="698.0" y="448.0" text-anchor="middle" fill="#000000" font-size="15.4" font-weight="600">attendance</text></g><g data-dediren-edge-id="options-has-characters"><marker id="marker-start-options-has-characters" data-dediren-edge-marker-start="filled_diamond" markerWidth="10" markerHeight="10" refX="5" refY="5" orient="auto"><path d="M 1 5 L 5 1 L 9 5 L 5 9 Z" fill="#000000" stroke="#000000" stroke-width="1"/></marker><path d="M 446.0 599.0 L 446.0 639.0 Q 446.0 647.0 454.0 647.0 L 942.0 647.0 Q 950.0 647.0 950.0 655.0 L 950.0 695.0" fill="none" stroke="#000000" stroke-width="1.25" stroke-linecap="round" stroke-linejoin="round" marker-start="url(#marker-start-options-has-characters)"/><text x="698.0" y="665.0" text-anchor="middle" fill="none" font-size="15.4" font-weight="600" stroke="#ffffff" stroke-width="2">characters</text><text x="698.0" y="665.0" text-anchor="middle" fill="#000000" font-size="15.4" font-weight="600">characters</text></g><g data-dediren-edge-id="detail-has-run-characters"><marker id="marker-start-detail-has-run-characters" data-dediren-edge-marker-start="filled_diamond" markerWidth="10" markerHeight="10" refX="5" refY="5" orient="auto"><path d="M 1 5 L 5 1 L 9 5 L 5 9 Z" fill="#000000" stroke="#000000" stroke-width="1"/></marker><path d="M 446.0 165.0 L 446.0 205.0 Q 446.0 213.0 454.0 213.0 L 942.0 213.0 Q 950.0 213.0 950.0 221.0 L 950.0 261.0" fill="none" stroke="#000000" stroke-width="1.25" stroke-linecap="round" stroke-linejoin="round" marker-start="url(#marker-start-detail-has-run-characters)"/><text x="698.0" y="231.0" text-anchor="middle" fill="none" font-size="15.4" font-weight="600" stroke="#ffffff" stroke-width="2">runCharacters</text><text x="698.0" y="231.0" text-anchor="middle" fill="#000000" font-size="15.4" font-weight="600">runCharacters</text></g><g data-dediren-edge-id="run-document-has-entries"><marker id="marker-start-run-document-has-entries" data-dediren-edge-marker-start="filled_diamond" markerWidth="10" markerHeight="10" refX="5" refY="5" orient="auto"><path d="M 1 5 L 5 1 L 9 5 L 5 9 Z" fill="#000000" stroke="#000000" stroke-width="1"/></marker><path d="M 214.0 1073.0 L 214.0 1113.0 Q 214.0 1121.0 222.0 1121.0 L 700.0 1121.0 Q 708.0 1121.0 708.0 1129.0 L 708.0 1169.0" fill="none" stroke="#000000" stroke-width="1.25" stroke-linecap="round" stroke-linejoin="round" marker-start="url(#marker-start-run-document-has-entries)"/><text x="461.0" y="1139.0" text-anchor="middle" fill="none" font-size="15.4" font-weight="600" stroke="#ffffff" stroke-width="2">runCharacters</text><text x="461.0" y="1139.0" text-anchor="middle" fill="#000000" font-size="15.4" font-weight="600">runCharacters</text></g><g data-dediren-edge-id="raider-document-has-characters"><marker id="marker-start-raider-document-has-characters" data-dediren-edge-marker-start="filled_diamond" markerWidth="10" markerHeight="10" refX="5" refY="5" orient="auto"><path d="M 1 5 L 5 1 L 9 5 L 5 9 Z" fill="#000000" stroke="#000000" stroke-width="1"/></marker><path d="M 708.0 1508.0 L 708.0 1548.0 Q 708.0 1556.0 716.0 1556.0 L 1135.8 1556.0 Q 1143.8 1556.0 1143.8 1564.0 L 1143.8 1604.0" fill="none" stroke="#000000" stroke-width="1.25" stroke-linecap="round" stroke-linejoin="round" marker-start="url(#marker-start-raider-document-has-characters)"/><text x="925.9" y="1574.0" text-anchor="middle" fill="none" font-size="15.4" font-weight="600" stroke="#ffffff" stroke-width="2">characters</text><text x="925.9" y="1574.0" text-anchor="middle" fill="#000000" font-size="15.4" font-weight="600">characters</text></g><g data-dediren-edge-id="entry-copies-stored-character"><path d="M 708.0 1291.0 L 708.0 1331.0 Q 708.0 1339.0 716.0 1339.0 L 1232.2 1339.0 Q 1240.2 1339.0 1240.2 1347.0 L 1240.2 1604.0" fill="none" stroke="#000000" stroke-width="1.25" stroke-linecap="round" stroke-linejoin="round"/><text x="974.1" y="1357.0" text-anchor="middle" fill="none" font-size="15.4" font-weight="600" stroke="#ffffff" stroke-width="2">copied from</text><text x="974.1" y="1357.0" text-anchor="middle" fill="#000000" font-size="15.4" font-weight="600">copied from</text></g><g data-dediren-node-id="datatype-signup-request"><rect data-dediren-node-shape="uml_data_type" x="266.0" y="261.0" width="360.0" height="120.0" rx="0" fill="#ffffff" stroke="#000000" stroke-width="1.25"/><g data-dediren-node-decorator="uml_data_type"><line x1="266.0" y1="299.0" x2="626.0" y2="299.0" stroke="#000000" stroke-width="1.25"/><text x="446.0" y="276.0" text-anchor="middle" fill="#000000" font-size="12">&#171;dataType&#187;</text><text x="446.0" y="291.0" text-anchor="middle" fill="#000000" font-size="12">SignupRequest</text><text x="274.0" y="314.0" fill="#000000" font-size="12">+ CharacterId : String?</text><text x="274.0" y="328.0" fill="#000000" font-size="12">+ DesiredAttendance : DesiredAttendance?</text><text x="274.0" y="342.0" fill="#000000" font-size="12">+ SpecId : Integer?</text></g></g><g data-dediren-node-id="datatype-run-signup-options-dto"><rect data-dediren-node-shape="uml_data_type" x="316.0" y="478.0" width="260.0" height="120.0" rx="0" fill="#ffffff" stroke="#000000" stroke-width="1.25"/><g data-dediren-node-decorator="uml_data_type"><line x1="316.0" y1="516.0" x2="576.0" y2="516.0" stroke="#000000" stroke-width="1.25"/><text x="446.0" y="493.0" text-anchor="middle" fill="#000000" font-size="12">&#171;dataType&#187;</text><text x="446.0" y="508.0" text-anchor="middle" fill="#000000" font-size="12">RunSignupOptionsDto</text><text x="324.0" y="531.0" fill="#000000" font-size="12">+ Characters : CharacterDto</text></g></g><g data-dediren-node-id="datatype-character-dto"><rect data-dediren-node-shape="uml_data_type" x="840.0" y="696.0" width="220.0" height="120.0" rx="0" fill="#ffffff" stroke="#000000" stroke-width="1.25"/><g data-dediren-node-decorator="uml_data_type"><line x1="840.0" y1="734.0" x2="1060.0" y2="734.0" stroke="#000000" stroke-width="1.25"/><text x="950.0" y="711.0" text-anchor="middle" fill="#000000" font-size="12">&#171;dataType&#187;</text><text x="950.0" y="726.0" text-anchor="middle" fill="#000000" font-size="12">CharacterDto</text><text x="848.0" y="749.0" fill="#000000" font-size="12">+ Id : String</text><text x="848.0" y="763.0" fill="#000000" font-size="12">+ Name : String</text><text x="848.0" y="777.0" fill="#000000" font-size="12">+ Realm : String</text><text x="848.0" y="791.0" fill="#000000" font-size="12">+ ClassId : Integer</text></g></g><g data-dediren-node-id="datatype-run-detail-dto"><rect data-dediren-node-shape="uml_data_type" x="296.0" y="44.0" width="300.0" height="120.0" rx="0" fill="#ffffff" stroke="#000000" stroke-width="1.25"/><g data-dediren-node-decorator="uml_data_type"><line x1="296.0" y1="82.0" x2="596.0" y2="82.0" stroke="#000000" stroke-width="1.25"/><text x="446.0" y="59.0" text-anchor="middle" fill="#000000" font-size="12">&#171;dataType&#187;</text><text x="446.0" y="74.0" text-anchor="middle" fill="#000000" font-size="12">RunDetailDto</text><text x="304.0" y="97.0" fill="#000000" font-size="12">+ Id : String</text><text x="304.0" y="111.0" fill="#000000" font-size="12">+ RunCharacters : RunCharacterDto</text><text x="304.0" y="125.0" fill="#000000" font-size="12">+ Visibility : String</text></g></g><g data-dediren-node-id="datatype-run-character-dto"><rect data-dediren-node-shape="uml_data_type" x="770.0" y="262.0" width="360.0" height="120.0" rx="0" fill="#ffffff" stroke="#000000" stroke-width="1.25"/><g data-dediren-node-decorator="uml_data_type"><line x1="770.0" y1="300.0" x2="1130.0" y2="300.0" stroke="#000000" stroke-width="1.25"/><text x="950.0" y="277.0" text-anchor="middle" fill="#000000" font-size="12">&#171;dataType&#187;</text><text x="950.0" y="292.0" text-anchor="middle" fill="#000000" font-size="12">RunCharacterDto</text><text x="778.0" y="315.0" fill="#000000" font-size="12">+ CharacterId : String?</text><text x="778.0" y="329.0" fill="#000000" font-size="12">+ CharacterName : String</text><text x="778.0" y="343.0" fill="#000000" font-size="12">+ DesiredAttendance : DesiredAttendance</text><text x="778.0" y="357.0" fill="#000000" font-size="12">+ ReviewedAttendance : DesiredAttendance</text><text x="778.0" y="371.0" fill="#000000" font-size="12">+ IsCurrentUser : Boolean</text></g></g><g data-dediren-node-id="enum-desired-attendance"><rect data-dediren-node-shape="uml_enumeration" x="840.0" y="479.0" width="220.0" height="120.0" rx="0" fill="#ffffff" stroke="#000000" stroke-width="1.25"/><g data-dediren-node-decorator="uml_enumeration"><line x1="840.0" y1="517.0" x2="1060.0" y2="517.0" stroke="#000000" stroke-width="1.25"/><text x="950.0" y="494.0" text-anchor="middle" fill="#000000" font-size="12">&#171;enumeration&#187;</text><text x="950.0" y="509.0" text-anchor="middle" fill="#000000" font-size="12">DesiredAttendance</text><text x="848.0" y="532.0" fill="#000000" font-size="12">IN</text><text x="848.0" y="546.0" fill="#000000" font-size="12">OUT</text><text x="848.0" y="560.0" fill="#000000" font-size="12">BENCH</text><text x="848.0" y="574.0" fill="#000000" font-size="12">LATE</text><text x="848.0" y="588.0" fill="#000000" font-size="12">AWAY</text></g></g><g data-dediren-node-id="class-run-document"><rect data-dediren-node-shape="uml_class" x="44.0" y="952.0" width="340.0" height="120.0" rx="0" fill="#ffffff" stroke="#000000" stroke-width="1.25"/><g data-dediren-node-decorator="uml_class"><line x1="44.0" y1="980.0" x2="384.0" y2="980.0" stroke="#000000" stroke-width="1.25"/><text x="214.0" y="967.0" text-anchor="middle" fill="#000000" font-size="12">RunDocument</text><text x="52.0" y="995.0" fill="#000000" font-size="12">+ Id : String</text><text x="52.0" y="1009.0" fill="#000000" font-size="12">+ RunCharacters : RunCharacterEntry</text><text x="52.0" y="1023.0" fill="#000000" font-size="12">+ CreatorBattleNetId : String?</text><text x="52.0" y="1037.0" fill="#000000" font-size="12">+ RejectedRaiderBattleNetIds : String</text><text x="52.0" y="1051.0" fill="#000000" font-size="12">+ ETag : String?</text></g></g><g data-dediren-node-id="class-run-character-entry"><rect data-dediren-node-shape="uml_class" x="528.0" y="1170.0" width="360.0" height="120.0" rx="0" fill="#ffffff" stroke="#000000" stroke-width="1.25"/><g data-dediren-node-decorator="uml_class"><line x1="528.0" y1="1198.0" x2="888.0" y2="1198.0" stroke="#000000" stroke-width="1.25"/><text x="708.0" y="1185.0" text-anchor="middle" fill="#000000" font-size="12">RunCharacterEntry</text><text x="536.0" y="1213.0" fill="#000000" font-size="12">+ CharacterId : String</text><text x="536.0" y="1227.0" fill="#000000" font-size="12">+ RaiderBattleNetId : String</text><text x="536.0" y="1241.0" fill="#000000" font-size="12">+ DesiredAttendance : DesiredAttendance</text><text x="536.0" y="1255.0" fill="#000000" font-size="12">+ ReviewedAttendance : DesiredAttendance</text><text x="536.0" y="1269.0" fill="#000000" font-size="12">+ SpecId : Integer?</text></g></g><g data-dediren-node-id="class-raider-document"><rect data-dediren-node-shape="uml_class" x="538.0" y="1387.0" width="340.0" height="120.0" rx="0" fill="#ffffff" stroke="#000000" stroke-width="1.25"/><g data-dediren-node-decorator="uml_class"><line x1="538.0" y1="1415.0" x2="878.0" y2="1415.0" stroke="#000000" stroke-width="1.25"/><text x="708.0" y="1402.0" text-anchor="middle" fill="#000000" font-size="12">RaiderDocument</text><text x="546.0" y="1430.0" fill="#000000" font-size="12">+ BattleNetId : String</text><text x="546.0" y="1444.0" fill="#000000" font-size="12">+ Characters : StoredSelectedCharacter</text><text x="546.0" y="1458.0" fill="#000000" font-size="12">+ AccountProfileSummary : Object?</text></g></g><g data-dediren-node-id="class-stored-selected-character"><rect data-dediren-node-shape="uml_class" x="1032.0" y="1605.0" width="320.0" height="120.0" rx="0" fill="#ffffff" stroke="#000000" stroke-width="1.25"/><g data-dediren-node-decorator="uml_class"><line x1="1032.0" y1="1633.0" x2="1352.0" y2="1633.0" stroke="#000000" stroke-width="1.25"/><text x="1192.0" y="1620.0" text-anchor="middle" fill="#000000" font-size="12">StoredSelectedCharacter</text><text x="1040.0" y="1648.0" fill="#000000" font-size="12">+ Id : String</text><text x="1040.0" y="1662.0" fill="#000000" font-size="12">+ Realm : String</text><text x="1040.0" y="1676.0" fill="#000000" font-size="12">+ GuildId : Integer?</text><text x="1040.0" y="1690.0" fill="#000000" font-size="12">+ SpecializationsSummary : Object?</text></g></g></g></svg>
