<svg xmlns="http://www.w3.org/2000/svg" width="5051" height="1751" viewBox="-20.0 -20.0 5051.0 1750.8"><rect x="-20.0" y="-20.0" width="5051.0" height="1750.8" fill="#ffffff"/><g font-family="Inter, Arial, sans-serif" font-size="14"><g data-dediren-group-id="class-boundary-app-core" data-dediren-group-type="Package" data-dediren-group-source-id="pkg-app-core"><rect x="12.0" y="12.0" width="1408.0" height="619.0" rx="0" fill="#ffffff" stroke="#000000" stroke-width="1"/><text x="20.0" y="28.0" fill="#000000" font-size="12">App client</text></g><g data-dediren-group-id="class-boundary-functions" data-dediren-group-type="Package" data-dediren-group-source-id="pkg-api-functions"><rect x="775.0" y="703.0" width="621.0" height="568.0" rx="0" fill="#ffffff" stroke="#000000" stroke-width="1"/><text x="783.0" y="719.0" fill="#000000" font-size="12">HTTP adapters</text></g><g data-dediren-group-id="class-boundary-policy" data-dediren-group-type="Package" data-dediren-group-source-id="pkg-api-runs"><rect x="1684.0" y="426.8" width="2170.0" height="1272.0" rx="0" fill="#ffffff" stroke="#000000" stroke-width="1"/><text x="1692.0" y="442.8" fill="#000000" font-size="12">Run policy</text></g><g data-dediren-group-id="class-boundary-repositories" data-dediren-group-type="Package" data-dediren-group-source-id="pkg-api-repositories"><rect x="4142.0" y="355.8" width="857.0" height="448.0" rx="0" fill="#ffffff" stroke="#000000" stroke-width="1"/><text x="4150.0" y="371.8" fill="#000000" font-size="12">Repositories</text></g><g data-dediren-edge-id="runs-client-realizes-interface"><marker id="marker-end-runs-client-realizes-interface" data-dediren-edge-marker-end="hollow_triangle" markerWidth="10" markerHeight="10" refX="5" refY="5" orient="auto"><path d="M 1 1 L 9 5 L 1 9 Z" fill="#ffffff" stroke="#000000" stroke-width="1"/></marker><path d="M 344.0 382.0 L 344.0 422.0 Q 344.0 430.0 352.0 430.0 L 985.2 430.0 Q 993.2 430.0 993.2 438.0 L 993.2 478.0" fill="none" stroke="#000000" stroke-width="1.25" stroke-linecap="round" stroke-linejoin="round" stroke-dasharray="8 5" marker-end="url(#marker-end-runs-client-realizes-interface)"/><text x="668.6" y="448.0" text-anchor="middle" fill="none" font-size="15.4" font-weight="600" stroke="#ffffff" stroke-width="2">implements</text><text x="668.6" y="448.0" text-anchor="middle" fill="#000000" font-size="15.4" font-weight="600">implements</text></g><g data-dediren-edge-id="runs-page-uses-client"><marker id="marker-end-runs-page-uses-client" data-dediren-edge-marker-end="open_arrow" markerWidth="10" markerHeight="10" refX="5" refY="5" orient="auto"><path d="M 1 1 L 9 5 L 1 9" fill="none" stroke="#000000" stroke-width="1.5"/></marker><path d="M 344.0 165.0 L 344.0 205.0 Q 344.0 213.0 352.0 213.0 L 1174.8 213.0 Q 1182.8 213.0 1182.8 221.0 L 1182.8 478.0" fill="none" stroke="#000000" stroke-width="1.25" stroke-linecap="round" stroke-linejoin="round" stroke-dasharray="8 5" marker-end="url(#marker-end-runs-page-uses-client)"/><text x="763.4" y="231.0" text-anchor="middle" fill="none" font-size="15.4" font-weight="600" stroke="#ffffff" stroke-width="2">uses</text><text x="763.4" y="231.0" text-anchor="middle" fill="#000000" font-size="15.4" font-weight="600">uses</text></g><g data-dediren-edge-id="signup-function-uses-service"><marker id="marker-end-signup-function-uses-service" data-dediren-edge-marker-end="open_arrow" markerWidth="10" markerHeight="10" refX="5" refY="5" orient="auto"><path d="M 1 1 L 9 5 L 1 9" fill="none" stroke="#000000" stroke-width="1.5"/></marker><path d="M 1268.0 987.0 L 1420.0 987.0 L 1604.0 987.0 Q 1612.0 987.0 1612.0 979.0 L 1612.0 493.0 Q 1612.0 485.0 1620.0 485.0 L 1660.0 485.0 L 2146.5 485.0 L 2769.0 485.0 L 2809.0 485.0 Q 2817.0 485.0 2817.0 493.0 L 2817.0 495.7 Q 2817.0 503.7 2825.0 503.7 L 2961.0 503.7" fill="none" stroke="#000000" stroke-width="1.25" stroke-linecap="round" stroke-linejoin="round" stroke-dasharray="8 5" marker-end="url(#marker-end-signup-function-uses-service)"/><text x="1344.0" y="1005.0" text-anchor="middle" fill="none" font-size="15.4" font-weight="600" stroke="#ffffff" stroke-width="2">delegates</text><text x="1344.0" y="1005.0" text-anchor="middle" fill="#000000" font-size="15.4" font-weight="600">delegates</text></g><g data-dediren-edge-id="signup-options-function-uses-service"><marker id="marker-end-signup-options-function-uses-service" data-dediren-edge-marker-end="open_arrow" markerWidth="10" markerHeight="10" refX="5" refY="5" orient="auto"><path d="M 1 1 L 9 5 L 1 9" fill="none" stroke="#000000" stroke-width="1.5"/></marker><path d="M 1268.0 1179.0 L 1420.0 1179.0 L 1660.0 1179.0 L 2146.5 1179.0 L 2769.0 1179.0 L 2905.0 1179.0 Q 2913.0 1179.0 2913.0 1187.0 L 2913.0 1189.7 Q 2913.0 1197.7 2921.0 1197.7 L 2961.0 1197.7" fill="none" stroke="#000000" stroke-width="1.25" stroke-linecap="round" stroke-linejoin="round" stroke-dasharray="8 5" marker-end="url(#marker-end-signup-options-function-uses-service)"/><text x="1344.0" y="1197.0" text-anchor="middle" fill="none" font-size="15.4" font-weight="600" stroke="#ffffff" stroke-width="2">delegates</text><text x="1344.0" y="1197.0" text-anchor="middle" fill="#000000" font-size="15.4" font-weight="600">delegates</text></g><g data-dediren-edge-id="cancel-function-uses-runs-repo"><marker id="marker-end-cancel-function-uses-runs-repo" data-dediren-edge-marker-end="open_arrow" markerWidth="10" markerHeight="10" refX="5" refY="5" orient="auto"><path d="M 1 1 L 9 5 L 1 9" fill="none" stroke="#000000" stroke-width="1.5"/></marker><path d="M 1268.0 779.8 L 1420.0 779.8 L 1460.0 779.8 Q 1468.0 779.8 1468.0 771.8 L 1468.0 309.8 Q 1468.0 301.8 1476.0 301.8 L 1564.0 301.8 L 3974.0 301.8 L 4062.0 301.8 Q 4070.0 301.8 4070.0 309.8 L 4070.0 395.8 Q 4070.0 403.8 4078.0 403.8 L 4118.0 403.8 L 4262.0 403.8 Q 4270.0 403.8 4270.0 411.8 L 4270.0 453.1 Q 4270.0 461.1 4278.0 461.1 L 4366.0 461.1" fill="none" stroke="#000000" stroke-width="1.25" stroke-linecap="round" stroke-linejoin="round" stroke-dasharray="8 5" marker-end="url(#marker-end-cancel-function-uses-runs-repo)"/><text x="1344.0" y="797.8" text-anchor="middle" fill="none" font-size="15.4" font-weight="600" stroke="#ffffff" stroke-width="2">loads/writes run</text><text x="1344.0" y="797.8" text-anchor="middle" fill="#000000" font-size="15.4" font-weight="600">loads/writes run</text></g><g data-dediren-edge-id="cancel-function-uses-raiders-repo"><marker id="marker-end-cancel-function-uses-raiders-repo" data-dediren-edge-marker-end="open_arrow" markerWidth="10" markerHeight="10" refX="5" refY="5" orient="auto"><path d="M 1 1 L 9 5 L 1 9" fill="none" stroke="#000000" stroke-width="1.5"/></marker><path d="M 1268.0 810.2 L 1311.2 810.2 Q 1316.0 810.2 1316.0 815.0 L 1316.0 815.0 Q 1316.0 819.8 1320.8 819.8 L 1420.0 819.8 L 1508.0 819.8 Q 1516.0 819.8 1516.0 811.8 L 1516.0 358.8 Q 1516.0 350.8 1524.0 350.8 L 1564.0 350.8 L 3974.0 350.8 L 4014.0 350.8 Q 4022.0 350.8 4022.0 358.8 L 4022.0 435.8 Q 4022.0 443.8 4030.0 443.8 L 4118.0 443.8 L 4214.0 443.8 Q 4222.0 443.8 4222.0 451.8 L 4222.0 645.1 Q 4222.0 653.1 4230.0 653.1 L 4366.0 653.1" fill="none" stroke="#000000" stroke-width="1.25" stroke-linecap="round" stroke-linejoin="round" stroke-dasharray="8 5" marker-end="url(#marker-end-cancel-function-uses-raiders-repo)"/><text x="1292.0" y="884.2" text-anchor="middle" fill="none" font-size="15.4" font-weight="600" stroke="#ffffff" stroke-width="2">loads raider</text><text x="1292.0" y="884.2" text-anchor="middle" fill="#000000" font-size="15.4" font-weight="600">loads raider</text></g><g data-dediren-edge-id="run-signup-service-realizes-interface"><marker id="marker-end-run-signup-service-realizes-interface" data-dediren-edge-marker-end="hollow_triangle" markerWidth="10" markerHeight="10" refX="5" refY="5" orient="auto"><path d="M 1 1 L 9 5 L 1 9 Z" fill="#ffffff" stroke="#000000" stroke-width="1"/></marker><path d="M 2577.0 634.4 L 2617.0 634.4 Q 2625.0 634.4 2625.0 626.4 L 2625.0 542.0 Q 2625.0 534.0 2633.0 534.0 L 2961.0 534.0" fill="none" stroke="#000000" stroke-width="1.25" stroke-linecap="round" stroke-linejoin="round" stroke-dasharray="8 5" marker-end="url(#marker-end-run-signup-service-realizes-interface)"/><text x="2601.0" y="568.4" text-anchor="middle" fill="none" font-size="15.4" font-weight="600" stroke="#ffffff" stroke-width="2">implements</text><text x="2601.0" y="568.4" text-anchor="middle" fill="#000000" font-size="15.4" font-weight="600">implements</text></g><g data-dediren-edge-id="run-signup-options-service-realizes-interface"><marker id="marker-end-run-signup-options-service-realizes-interface" data-dediren-edge-marker-end="hollow_triangle" markerWidth="10" markerHeight="10" refX="5" refY="5" orient="auto"><path d="M 1 1 L 9 5 L 1 9 Z" fill="#ffffff" stroke="#000000" stroke-width="1"/></marker><path d="M 2577.0 1504.8 L 2617.0 1504.8 Q 2625.0 1504.8 2625.0 1496.8 L 2625.0 1236.0 Q 2625.0 1228.0 2633.0 1228.0 L 2961.0 1228.0" fill="none" stroke="#000000" stroke-width="1.25" stroke-linecap="round" stroke-linejoin="round" stroke-dasharray="8 5" marker-end="url(#marker-end-run-signup-options-service-realizes-interface)"/><text x="2601.0" y="1438.8" text-anchor="middle" fill="none" font-size="15.4" font-weight="600" stroke="#ffffff" stroke-width="2">implements</text><text x="2601.0" y="1438.8" text-anchor="middle" fill="#000000" font-size="15.4" font-weight="600">implements</text></g><g data-dediren-edge-id="run-signup-service-uses-runs-repo"><marker id="marker-end-run-signup-service-uses-runs-repo" data-dediren-edge-marker-end="open_arrow" markerWidth="10" markerHeight="10" refX="5" refY="5" orient="auto"><path d="M 1 1 L 9 5 L 1 9" fill="none" stroke="#000000" stroke-width="1.5"/></marker><g data-dediren-line-jump-masks="run-signup-service-uses-runs-repo"><path d="M 4216.0 483.8 Q 4222.0 477.8 4228.0 483.8" fill="none" stroke="#ffffff" stroke-width="6"/></g><path d="M 2577.0 664.5 L 2665.0 664.5 Q 2673.0 664.5 2673.0 656.5 L 2673.0 634.8 Q 2673.0 626.8 2681.0 626.8 L 2769.0 626.8 L 3391.5 626.8 L 3878.0 626.8 L 3926.0 626.8 L 3926.0 623.8 L 4014.0 623.8 Q 4022.0 623.8 4022.0 615.8 L 4022.0 491.8 Q 4022.0 483.8 4030.0 483.8 L 4118.0 483.8 L 4216.0 483.8 Q 4222.0 477.8 4228.0 483.8 L 4366.0 483.8" fill="none" stroke="#000000" stroke-width="1.25" stroke-linecap="round" stroke-linejoin="round" stroke-dasharray="8 5" marker-end="url(#marker-end-run-signup-service-uses-runs-repo)"/><text x="2655.0" y="654.5" text-anchor="middle" fill="none" font-size="15.4" font-weight="600" stroke="#ffffff" stroke-width="2">read/modify/write</text><text x="2655.0" y="654.5" text-anchor="middle" fill="#000000" font-size="15.4" font-weight="600">read/modify/write</text></g><g data-dediren-edge-id="run-signup-service-uses-raiders-repo"><marker id="marker-end-run-signup-service-uses-raiders-repo" data-dediren-edge-marker-end="open_arrow" markerWidth="10" markerHeight="10" refX="5" refY="5" orient="auto"><path d="M 1 1 L 9 5 L 1 9" fill="none" stroke="#000000" stroke-width="1.5"/></marker><path d="M 2577.0 694.7 L 2713.0 694.7 Q 2721.0 694.7 2721.0 686.7 L 2721.0 683.8 Q 2721.0 675.8 2729.0 675.8 L 2769.0 675.8 L 3391.5 675.8 L 3878.0 675.8 L 4118.0 675.8 L 4366.0 675.8" fill="none" stroke="#000000" stroke-width="1.25" stroke-linecap="round" stroke-linejoin="round" stroke-dasharray="8 5" marker-end="url(#marker-end-run-signup-service-uses-raiders-repo)"/><text x="2649.0" y="684.7" text-anchor="middle" fill="none" font-size="15.4" font-weight="600" stroke="#ffffff" stroke-width="2">loads caller</text><text x="2649.0" y="684.7" text-anchor="middle" fill="#000000" font-size="15.4" font-weight="600">loads caller</text></g><g data-dediren-edge-id="run-signup-service-uses-guild-permissions"><marker id="marker-end-run-signup-service-uses-guild-permissions" data-dediren-edge-marker-end="open_arrow" markerWidth="10" markerHeight="10" refX="5" refY="5" orient="auto"><path d="M 1 1 L 9 5 L 1 9" fill="none" stroke="#000000" stroke-width="1.5"/></marker><path d="M 2577.0 724.8 L 2857.0 724.8 Q 2865.0 724.8 2865.0 732.8 L 2865.0 997.7 Q 2865.0 1005.7 2873.0 1005.7 L 2961.0 1005.7" fill="none" stroke="#000000" stroke-width="1.25" stroke-linecap="round" stroke-linejoin="round" stroke-dasharray="8 5" marker-end="url(#marker-end-run-signup-service-uses-guild-permissions)"/><text x="2721.0" y="742.8" text-anchor="middle" fill="none" font-size="15.4" font-weight="600" stroke="#ffffff" stroke-width="2">rank gate</text><text x="2721.0" y="742.8" text-anchor="middle" fill="#000000" font-size="15.4" font-weight="600">rank gate</text></g><g data-dediren-edge-id="run-signup-service-uses-site-admin"><marker id="marker-end-run-signup-service-uses-site-admin" data-dediren-edge-marker-end="open_arrow" markerWidth="10" markerHeight="10" refX="5" refY="5" orient="auto"><path d="M 1 1 L 9 5 L 1 9" fill="none" stroke="#000000" stroke-width="1.5"/></marker><g data-dediren-line-jump-masks="run-signup-service-uses-site-admin"><path d="M 2817.0 1173.0 Q 2823.0 1179.0 2817.0 1185.0" fill="none" stroke="#ffffff" stroke-width="6"/><path d="M 2817.0 1222.0 Q 2823.0 1228.0 2817.0 1234.0" fill="none" stroke="#ffffff" stroke-width="6"/></g><path d="M 2577.0 755.0 L 2665.0 755.0 Q 2673.0 755.0 2673.0 763.0 L 2673.0 768.8 Q 2673.0 776.8 2681.0 776.8 L 2809.0 776.8 Q 2817.0 776.8 2817.0 784.8 L 2817.0 1173.0 Q 2823.0 1179.0 2817.0 1185.0 L 2817.0 1222.0 Q 2823.0 1228.0 2817.0 1234.0 L 2817.0 1381.7 Q 2817.0 1389.7 2825.0 1389.7 L 2961.0 1389.7" fill="none" stroke="#000000" stroke-width="1.25" stroke-linecap="round" stroke-linejoin="round" stroke-dasharray="8 5" marker-end="url(#marker-end-run-signup-service-uses-site-admin)"/><text x="2625.0" y="773.0" text-anchor="middle" fill="none" font-size="15.4" font-weight="600" stroke="#ffffff" stroke-width="2">override</text><text x="2625.0" y="773.0" text-anchor="middle" fill="#000000" font-size="15.4" font-weight="600">override</text></g><g data-dediren-edge-id="run-signup-service-uses-eligibility"><marker id="marker-end-run-signup-service-uses-eligibility" data-dediren-edge-marker-end="open_arrow" markerWidth="10" markerHeight="10" refX="5" refY="5" orient="auto"><path d="M 1 1 L 9 5 L 1 9" fill="none" stroke="#000000" stroke-width="1.5"/></marker><g data-dediren-line-jump-masks="run-signup-service-uses-eligibility"><path d="M 2859.0 828.8 Q 2865.0 822.8 2871.0 828.8" fill="none" stroke="#ffffff" stroke-width="6"/><path d="M 2811.0 828.8 Q 2817.0 822.8 2823.0 828.8" fill="none" stroke="#ffffff" stroke-width="6"/></g><path d="M 2577.0 785.1 L 2617.0 785.1 Q 2625.0 785.1 2625.0 793.1 L 2625.0 820.8 Q 2625.0 828.8 2633.0 828.8 L 2811.0 828.8 Q 2817.0 822.8 2823.0 828.8 L 2859.0 828.8 Q 2865.0 822.8 2871.0 828.8 L 2961.0 828.8" fill="none" stroke="#000000" stroke-width="1.25" stroke-linecap="round" stroke-linejoin="round" stroke-dasharray="8 5" marker-end="url(#marker-end-run-signup-service-uses-eligibility)"/><text x="2601.0" y="859.1" text-anchor="middle" fill="none" font-size="15.4" font-weight="600" stroke="#ffffff" stroke-width="2">roster gate</text><text x="2601.0" y="859.1" text-anchor="middle" fill="#000000" font-size="15.4" font-weight="600">roster gate</text></g><g data-dediren-edge-id="run-signup-options-service-uses-runs-repo"><marker id="marker-end-run-signup-options-service-uses-runs-repo" data-dediren-edge-marker-end="open_arrow" markerWidth="10" markerHeight="10" refX="5" refY="5" orient="auto"><path d="M 1 1 L 9 5 L 1 9" fill="none" stroke="#000000" stroke-width="1.5"/></marker><g data-dediren-line-jump-masks="run-signup-options-service-uses-runs-repo"><path d="M 4270.0 647.1 Q 4276.0 653.1 4270.0 659.1" fill="none" stroke="#ffffff" stroke-width="6"/><path d="M 4270.0 669.8 Q 4276.0 675.8 4270.0 681.8" fill="none" stroke="#ffffff" stroke-width="6"/></g><path d="M 2577.0 1533.3 L 2665.0 1533.3 Q 2673.0 1533.3 2673.0 1525.3 L 2673.0 1520.8 Q 2673.0 1512.8 2681.0 1512.8 L 2769.0 1512.8 L 3391.5 1512.8 L 3878.0 1512.8 L 3926.0 1512.8 L 3926.0 1509.8 L 4014.0 1509.8 Q 4022.0 1509.8 4022.0 1501.8 L 4022.0 723.8 Q 4022.0 715.8 4030.0 715.8 L 4118.0 715.8 L 4262.0 715.8 Q 4270.0 715.8 4270.0 707.8 L 4270.0 681.8 Q 4276.0 675.8 4270.0 669.8 L 4270.0 659.1 Q 4276.0 653.1 4270.0 647.1 L 4270.0 514.6 Q 4270.0 506.6 4278.0 506.6 L 4366.0 506.6" fill="none" stroke="#000000" stroke-width="1.25" stroke-linecap="round" stroke-linejoin="round" stroke-dasharray="8 5" marker-end="url(#marker-end-run-signup-options-service-uses-runs-repo)"/><text x="2625.0" y="1523.3" text-anchor="middle" fill="none" font-size="15.4" font-weight="600" stroke="#ffffff" stroke-width="2">loads run</text><text x="2625.0" y="1523.3" text-anchor="middle" fill="#000000" font-size="15.4" font-weight="600">loads run</text></g><g data-dediren-edge-id="run-signup-options-service-uses-raiders-repo"><marker id="marker-end-run-signup-options-service-uses-raiders-repo" data-dediren-edge-marker-end="open_arrow" markerWidth="10" markerHeight="10" refX="5" refY="5" orient="auto"><path d="M 1 1 L 9 5 L 1 9" fill="none" stroke="#000000" stroke-width="1.5"/></marker><path d="M 2577.0 1561.8 L 2769.0 1561.8 L 3391.5 1561.8 L 3878.0 1561.8 L 4062.0 1561.8 Q 4070.0 1561.8 4070.0 1553.8 L 4070.0 763.8 Q 4070.0 755.8 4078.0 755.8 L 4118.0 755.8 L 4310.0 755.8 Q 4318.0 755.8 4318.0 747.8 L 4318.0 706.6 Q 4318.0 698.6 4326.0 698.6 L 4366.0 698.6" fill="none" stroke="#000000" stroke-width="1.25" stroke-linecap="round" stroke-linejoin="round" stroke-dasharray="8 5" marker-end="url(#marker-end-run-signup-options-service-uses-raiders-repo)"/><text x="2673.0" y="1579.8" text-anchor="middle" fill="none" font-size="15.4" font-weight="600" stroke="#ffffff" stroke-width="2">loads caller</text><text x="2673.0" y="1579.8" text-anchor="middle" fill="#000000" font-size="15.4" font-weight="600">loads caller</text></g><g data-dediren-edge-id="run-signup-options-service-uses-guild-permissions"><marker id="marker-end-run-signup-options-service-uses-guild-permissions" data-dediren-edge-marker-end="open_arrow" markerWidth="10" markerHeight="10" refX="5" refY="5" orient="auto"><path d="M 1 1 L 9 5 L 1 9" fill="none" stroke="#000000" stroke-width="1.5"/></marker><g data-dediren-line-jump-masks="run-signup-options-service-uses-guild-permissions"><path d="M 2865.0 1173.0 Q 2871.0 1179.0 2865.0 1185.0" fill="none" stroke="#ffffff" stroke-width="6"/><path d="M 2865.0 1222.0 Q 2871.0 1228.0 2865.0 1234.0" fill="none" stroke="#ffffff" stroke-width="6"/><path d="M 2865.0 1383.7 Q 2871.0 1389.7 2865.0 1395.7" fill="none" stroke="#ffffff" stroke-width="6"/><path d="M 2865.0 1506.8 Q 2871.0 1512.8 2865.0 1518.8" fill="none" stroke="#ffffff" stroke-width="6"/><path d="M 2865.0 1555.8 Q 2871.0 1561.8 2865.0 1567.8" fill="none" stroke="#ffffff" stroke-width="6"/></g><path d="M 2577.0 1590.3 L 2665.0 1590.3 Q 2673.0 1590.3 2673.0 1598.3 L 2673.0 1602.8 Q 2673.0 1610.8 2681.0 1610.8 L 2857.0 1610.8 Q 2865.0 1610.8 2865.0 1602.8 L 2865.0 1567.8 Q 2871.0 1561.8 2865.0 1555.8 L 2865.0 1518.8 Q 2871.0 1512.8 2865.0 1506.8 L 2865.0 1395.7 Q 2871.0 1389.7 2865.0 1383.7 L 2865.0 1234.0 Q 2871.0 1228.0 2865.0 1222.0 L 2865.0 1185.0 Q 2871.0 1179.0 2865.0 1173.0 L 2865.0 1044.0 Q 2865.0 1036.0 2873.0 1036.0 L 2961.0 1036.0" fill="none" stroke="#000000" stroke-width="1.25" stroke-linecap="round" stroke-linejoin="round" stroke-dasharray="8 5" marker-end="url(#marker-end-run-signup-options-service-uses-guild-permissions)"/><text x="2625.0" y="1608.3" text-anchor="middle" fill="none" font-size="15.4" font-weight="600" stroke="#ffffff" stroke-width="2">rank gate</text><text x="2625.0" y="1608.3" text-anchor="middle" fill="#000000" font-size="15.4" font-weight="600">rank gate</text></g><g data-dediren-edge-id="run-signup-options-service-uses-site-admin"><marker id="marker-end-run-signup-options-service-uses-site-admin" data-dediren-edge-marker-end="open_arrow" markerWidth="10" markerHeight="10" refX="5" refY="5" orient="auto"><path d="M 1 1 L 9 5 L 1 9" fill="none" stroke="#000000" stroke-width="1.5"/></marker><g data-dediren-line-jump-masks="run-signup-options-service-uses-site-admin"><path d="M 2913.0 1506.8 Q 2919.0 1512.8 2913.0 1518.8" fill="none" stroke="#ffffff" stroke-width="6"/><path d="M 2913.0 1555.8 Q 2919.0 1561.8 2913.0 1567.8" fill="none" stroke="#ffffff" stroke-width="6"/></g><path d="M 2577.0 1618.8 L 2617.0 1618.8 Q 2625.0 1618.8 2625.0 1626.8 L 2625.0 1654.8 Q 2625.0 1662.8 2633.0 1662.8 L 2905.0 1662.8 Q 2913.0 1662.8 2913.0 1654.8 L 2913.0 1567.8 Q 2919.0 1561.8 2913.0 1555.8 L 2913.0 1518.8 Q 2919.0 1512.8 2913.0 1506.8 L 2913.0 1428.0 Q 2913.0 1420.0 2921.0 1420.0 L 2961.0 1420.0" fill="none" stroke="#000000" stroke-width="1.25" stroke-linecap="round" stroke-linejoin="round" stroke-dasharray="8 5" marker-end="url(#marker-end-run-signup-options-service-uses-site-admin)"/><text x="2601.0" y="1692.8" text-anchor="middle" fill="none" font-size="15.4" font-weight="600" stroke="#ffffff" stroke-width="2">override</text><text x="2601.0" y="1692.8" text-anchor="middle" fill="#000000" font-size="15.4" font-weight="600">override</text></g><g data-dediren-node-id="class-runs-page"><rect data-dediren-node-shape="uml_class" x="144.0" y="44.0" width="400.0" height="120.0" rx="0" fill="#ffffff" stroke="#000000" stroke-width="1.25"/><g data-dediren-node-decorator="uml_class"><line x1="144.0" y1="72.0" x2="544.0" y2="72.0" stroke="#000000" stroke-width="1.25"/><line x1="144.0" y1="72.0" x2="544.0" y2="72.0" stroke="#000000" stroke-width="1.25"/><text x="344.0" y="59.0" text-anchor="middle" fill="#000000" font-size="12">RunsPage</text><text x="152.0" y="87.0" fill="#000000" font-size="12">- EnsureSignupOptionsLoaded() : Task</text><text x="152.0" y="101.0" fill="#000000" font-size="12">- SubmitSignup(request : SignupRequest) : Task</text><text x="152.0" y="115.0" fill="#000000" font-size="12">- CancelSignup() : Task</text></g></g><g data-dediren-node-id="interface-iruns-client"><rect data-dediren-node-shape="uml_interface" x="788.0" y="479.0" width="600.0" height="120.0" rx="0" fill="#ffffff" stroke="#000000" stroke-width="1.25"/><g data-dediren-node-decorator="uml_interface"><line x1="788.0" y1="517.0" x2="1388.0" y2="517.0" stroke="#000000" stroke-width="1.25"/><line x1="788.0" y1="517.0" x2="1388.0" y2="517.0" stroke="#000000" stroke-width="1.25"/><text x="1088.0" y="494.0" text-anchor="middle" fill="#000000" font-size="12">&#171;interface&#187;</text><text x="1088.0" y="509.0" text-anchor="middle" fill="#000000" font-size="12">IRunsClient</text><text x="796.0" y="532.0" fill="#000000" font-size="12">+ SignupAsync(runId : String, request : SignupRequest) : RunDetailDto?</text><text x="796.0" y="546.0" fill="#000000" font-size="12">+ GetSignupOptionsAsync(runId : String) : CharactersFetchResult</text><text x="796.0" y="560.0" fill="#000000" font-size="12">+ CancelSignupAsync(runId : String) : RunDetailDto?</text></g></g><g data-dediren-node-id="class-runs-client"><rect data-dediren-node-shape="uml_class" x="44.0" y="261.0" width="600.0" height="120.0" rx="0" fill="#ffffff" stroke="#000000" stroke-width="1.25"/><g data-dediren-node-decorator="uml_class"><line x1="44.0" y1="289.0" x2="644.0" y2="289.0" stroke="#000000" stroke-width="1.25"/><line x1="44.0" y1="289.0" x2="644.0" y2="289.0" stroke="#000000" stroke-width="1.25"/><text x="344.0" y="276.0" text-anchor="middle" fill="#000000" font-size="12">RunsClient</text><text x="52.0" y="304.0" fill="#000000" font-size="12">+ SignupAsync(runId : String, request : SignupRequest) : RunDetailDto?</text><text x="52.0" y="318.0" fill="#000000" font-size="12">+ GetSignupOptionsAsync(runId : String) : CharactersFetchResult</text><text x="52.0" y="332.0" fill="#000000" font-size="12">+ CancelSignupAsync(runId : String) : RunDetailDto?</text></g></g><g data-dediren-node-id="class-runs-signup-function"><rect data-dediren-node-shape="uml_class" x="807.0" y="927.0" width="460.0" height="120.0" rx="0" fill="#ffffff" stroke="#000000" stroke-width="1.25"/><g data-dediren-node-decorator="uml_class"><line x1="807.0" y1="955.0" x2="1267.0" y2="955.0" stroke="#000000" stroke-width="1.25"/><line x1="807.0" y1="955.0" x2="1267.0" y2="955.0" stroke="#000000" stroke-width="1.25"/><text x="1037.0" y="942.0" text-anchor="middle" fill="#000000" font-size="12">RunsSignupFunction</text><text x="815.0" y="970.0" fill="#000000" font-size="12">+ Run(req : HttpRequest, id : String) : IActionResult</text></g></g><g data-dediren-node-id="class-runs-signup-options-function"><rect data-dediren-node-shape="uml_class" x="807.0" y="1119.0" width="460.0" height="120.0" rx="0" fill="#ffffff" stroke="#000000" stroke-width="1.25"/><g data-dediren-node-decorator="uml_class"><line x1="807.0" y1="1147.0" x2="1267.0" y2="1147.0" stroke="#000000" stroke-width="1.25"/><line x1="807.0" y1="1147.0" x2="1267.0" y2="1147.0" stroke="#000000" stroke-width="1.25"/><text x="1037.0" y="1134.0" text-anchor="middle" fill="#000000" font-size="12">RunsSignupOptionsFunction</text><text x="815.0" y="1162.0" fill="#000000" font-size="12">+ Run(req : HttpRequest, id : String) : IActionResult</text></g></g><g data-dediren-node-id="class-runs-cancel-signup-function"><rect data-dediren-node-shape="uml_class" x="807.0" y="735.0" width="460.0" height="120.0" rx="0" fill="#ffffff" stroke="#000000" stroke-width="1.25"/><g data-dediren-node-decorator="uml_class"><line x1="807.0" y1="763.0" x2="1267.0" y2="763.0" stroke="#000000" stroke-width="1.25"/><line x1="807.0" y1="763.0" x2="1267.0" y2="763.0" stroke="#000000" stroke-width="1.25"/><text x="1037.0" y="750.0" text-anchor="middle" fill="#000000" font-size="12">RunsCancelSignupFunction</text><text x="815.0" y="778.0" fill="#000000" font-size="12">+ Run(req : HttpRequest, id : String) : IActionResult</text></g></g><g data-dediren-node-id="interface-irun-signup-service"><rect data-dediren-node-shape="uml_interface" x="2962.0" y="458.8" width="860.0" height="120.0" rx="0" fill="#ffffff" stroke="#000000" stroke-width="1.25"/><g data-dediren-node-decorator="uml_interface"><line x1="2962.0" y1="496.8" x2="3822.0" y2="496.8" stroke="#000000" stroke-width="1.25"/><line x1="2962.0" y1="496.8" x2="3822.0" y2="496.8" stroke="#000000" stroke-width="1.25"/><text x="3392.0" y="473.8" text-anchor="middle" fill="#000000" font-size="12">&#171;interface&#187;</text><text x="3392.0" y="488.8" text-anchor="middle" fill="#000000" font-size="12">IRunSignupService</text><text x="2970.0" y="511.8" fill="#000000" font-size="12">+ SignupAsync(runId : String, body : SignupRequest, principal : SessionPrincipal) : RunOperationResult</text></g></g><g data-dediren-node-id="class-run-signup-service"><rect data-dediren-node-shape="uml_class" x="1716.0" y="589.8" width="860.0" height="240.0" rx="0" fill="#ffffff" stroke="#000000" stroke-width="1.25"/><g data-dediren-node-decorator="uml_class"><line x1="1716.0" y1="617.8" x2="2576.0" y2="617.8" stroke="#000000" stroke-width="1.25"/><line x1="1716.0" y1="617.8" x2="2576.0" y2="617.8" stroke="#000000" stroke-width="1.25"/><text x="2146.0" y="604.8" text-anchor="middle" fill="#000000" font-size="12">RunSignupService</text><text x="1724.0" y="632.8" fill="#000000" font-size="12">+ SignupAsync(runId : String, body : SignupRequest, principal : SessionPrincipal) : RunOperationResult</text></g></g><g data-dediren-node-id="interface-irun-signup-options-service"><rect data-dediren-node-shape="uml_interface" x="2962.0" y="1152.8" width="680.0" height="120.0" rx="0" fill="#ffffff" stroke="#000000" stroke-width="1.25"/><g data-dediren-node-decorator="uml_interface"><line x1="2962.0" y1="1190.8" x2="3642.0" y2="1190.8" stroke="#000000" stroke-width="1.25"/><line x1="2962.0" y1="1190.8" x2="3642.0" y2="1190.8" stroke="#000000" stroke-width="1.25"/><text x="3302.0" y="1167.8" text-anchor="middle" fill="#000000" font-size="12">&#171;interface&#187;</text><text x="3302.0" y="1182.8" text-anchor="middle" fill="#000000" font-size="12">IRunSignupOptionsService</text><text x="2970.0" y="1205.8" fill="#000000" font-size="12">+ GetAsync(runId : String, principal : SessionPrincipal) : RunSignupOptionsResult</text></g></g><g data-dediren-node-id="class-run-signup-options-service"><rect data-dediren-node-shape="uml_class" x="1896.0" y="1461.8" width="680.0" height="200.0" rx="0" fill="#ffffff" stroke="#000000" stroke-width="1.25"/><g data-dediren-node-decorator="uml_class"><line x1="1896.0" y1="1489.8" x2="2576.0" y2="1489.8" stroke="#000000" stroke-width="1.25"/><line x1="1896.0" y1="1489.8" x2="2576.0" y2="1489.8" stroke="#000000" stroke-width="1.25"/><text x="2236.0" y="1476.8" text-anchor="middle" fill="#000000" font-size="12">RunSignupOptionsService</text><text x="1904.0" y="1504.8" fill="#000000" font-size="12">+ GetAsync(runId : String, principal : SessionPrincipal) : RunSignupOptionsResult</text></g></g><g data-dediren-node-id="interface-iruns-repository"><rect data-dediren-node-shape="uml_interface" x="4367.0" y="423.8" width="600.0" height="120.0" rx="0" fill="#ffffff" stroke="#000000" stroke-width="1.25"/><g data-dediren-node-decorator="uml_interface"><line x1="4367.0" y1="461.8" x2="4967.0" y2="461.8" stroke="#000000" stroke-width="1.25"/><line x1="4367.0" y1="461.8" x2="4967.0" y2="461.8" stroke="#000000" stroke-width="1.25"/><text x="4667.0" y="438.8" text-anchor="middle" fill="#000000" font-size="12">&#171;interface&#187;</text><text x="4667.0" y="453.8" text-anchor="middle" fill="#000000" font-size="12">IRunsRepository</text><text x="4375.0" y="476.8" fill="#000000" font-size="12">+ GetByIdAsync(id : String) : RunDocument?</text><text x="4375.0" y="490.8" fill="#000000" font-size="12">+ UpdateAsync(run : RunDocument, ifMatchEtag : String?) : RunDocument</text></g></g><g data-dediren-node-id="interface-iraiders-repository"><rect data-dediren-node-shape="uml_interface" x="4367.0" y="615.8" width="540.0" height="120.0" rx="0" fill="#ffffff" stroke="#000000" stroke-width="1.25"/><g data-dediren-node-decorator="uml_interface"><line x1="4367.0" y1="653.8" x2="4907.0" y2="653.8" stroke="#000000" stroke-width="1.25"/><line x1="4367.0" y1="653.8" x2="4907.0" y2="653.8" stroke="#000000" stroke-width="1.25"/><text x="4637.0" y="630.8" text-anchor="middle" fill="#000000" font-size="12">&#171;interface&#187;</text><text x="4637.0" y="645.8" text-anchor="middle" fill="#000000" font-size="12">IRaidersRepository</text><text x="4375.0" y="668.8" fill="#000000" font-size="12">+ GetByBattleNetIdAsync(battleNetId : String) : RaiderDocument?</text></g></g><g data-dediren-node-id="interface-iguild-permissions"><rect data-dediren-node-shape="uml_interface" x="2962.0" y="960.8" width="520.0" height="120.0" rx="0" fill="#ffffff" stroke="#000000" stroke-width="1.25"/><g data-dediren-node-decorator="uml_interface"><line x1="2962.0" y1="998.8" x2="3482.0" y2="998.8" stroke="#000000" stroke-width="1.25"/><line x1="2962.0" y1="998.8" x2="3482.0" y2="998.8" stroke="#000000" stroke-width="1.25"/><text x="3222.0" y="975.8" text-anchor="middle" fill="#000000" font-size="12">&#171;interface&#187;</text><text x="3222.0" y="990.8" text-anchor="middle" fill="#000000" font-size="12">IGuildPermissions</text><text x="2970.0" y="1013.8" fill="#000000" font-size="12">+ CanSignupGuildRunsAsync(raider : RaiderDocument) : Boolean</text></g></g><g data-dediren-node-id="interface-isite-admin-service"><rect data-dediren-node-shape="uml_interface" x="2962.0" y="1344.8" width="400.0" height="120.0" rx="0" fill="#ffffff" stroke="#000000" stroke-width="1.25"/><g data-dediren-node-decorator="uml_interface"><line x1="2962.0" y1="1382.8" x2="3362.0" y2="1382.8" stroke="#000000" stroke-width="1.25"/><line x1="2962.0" y1="1382.8" x2="3362.0" y2="1382.8" stroke="#000000" stroke-width="1.25"/><text x="3162.0" y="1359.8" text-anchor="middle" fill="#000000" font-size="12">&#171;interface&#187;</text><text x="3162.0" y="1374.8" text-anchor="middle" fill="#000000" font-size="12">ISiteAdminService</text><text x="2970.0" y="1397.8" fill="#000000" font-size="12">+ IsAdminAsync(battleNetId : String) : Boolean</text></g></g><g data-dediren-node-id="interface-irun-signup-eligibility"><rect data-dediren-node-shape="uml_interface" x="2962.0" y="768.8" width="840.0" height="120.0" rx="0" fill="#ffffff" stroke="#000000" stroke-width="1.25"/><g data-dediren-node-decorator="uml_interface"><line x1="2962.0" y1="806.8" x2="3802.0" y2="806.8" stroke="#000000" stroke-width="1.25"/><line x1="2962.0" y1="806.8" x2="3802.0" y2="806.8" stroke="#000000" stroke-width="1.25"/><text x="3382.0" y="783.8" text-anchor="middle" fill="#000000" font-size="12">&#171;interface&#187;</text><text x="3382.0" y="798.8" text-anchor="middle" fill="#000000" font-size="12">IRunSignupEligibility</text><text x="2970.0" y="821.8" fill="#000000" font-size="12">+ IsSignupCharacterInRunGuildAsync(run : RunDocument, character : StoredSelectedCharacter) : Boolean</text></g></g></g></svg>
