<svg xmlns="http://www.w3.org/2000/svg" width="3018" height="763" viewBox="-20.0 -20.0 3018.0 763.0"><rect x="-20.0" y="-20.0" width="3018.0" height="763.0" fill="#ffffff"/><g font-family="Inter, Arial, sans-serif" font-size="14.0"><g data-dediren-group-id="group-class-ui" data-dediren-group-type="Package" data-dediren-group-source-id="pkg-ui-pages"><rect x="12.0" y="12.0" width="875.0" height="200.0" rx="0" fill="#ffffff" stroke="#000000" stroke-width="1.0"/><text x="20.0" y="28.0" fill="#000000" font-size="12.0">UI and clients</text></g><g data-dediren-group-id="group-class-api" data-dediren-group-type="Package" data-dediren-group-source-id="pkg-api-functions"><rect x="1143.0" y="12.0" width="1042.0" height="699.0" rx="0" fill="#ffffff" stroke="#000000" stroke-width="1.0"/><text x="1151.0" y="28.0" fill="#000000" font-size="12.0">API boundary</text></g><g data-dediren-group-id="group-class-data" data-dediren-group-type="Package" data-dediren-group-source-id="pkg-api-repositories"><rect x="2505.0" y="246.8" width="461.0" height="416.0" rx="0" fill="#ffffff" stroke="#000000" stroke-width="1.0"/><text x="2513.0" y="262.8" fill="#000000" font-size="12.0">Data and external ports</text></g><g data-dediren-edge-id="dep-ui-clients"><defs><marker id="marker-end-dep-ui-clients" data-dediren-edge-marker-end="open_arrow" markerWidth="9" markerHeight="9" refX="8" refY="4.5" orient="auto" markerUnits="strokeWidth"><path d="M 1 1 L 8 4.5 L 1 8" fill="none" stroke="#000000" stroke-width="1.3" stroke-linecap="round" stroke-linejoin="round"/></marker></defs><path d="M 373.0 112.0 L 565.0 112.0" fill="none" stroke="#000000" stroke-width="1.25" stroke-linecap="round" stroke-linejoin="round" stroke-dasharray="8 5" marker-end="url(#marker-end-dep-ui-clients)"/><text x="469.0" y="103.6" text-anchor="middle" fill="#000000" stroke="#ffffff" stroke-width="4" stroke-linejoin="round" paint-order="stroke">calls</text></g><g data-dediren-edge-id="realize-clients-http"><defs><marker id="marker-end-realize-clients-http" data-dediren-edge-marker-end="hollow_triangle" markerWidth="10" markerHeight="10" refX="9" refY="5" orient="auto" markerUnits="strokeWidth"><path d="M 1 1 L 9 5 L 1 9 z" fill="#ffffff" stroke="#000000" stroke-width="1.2"/></marker></defs><path d="M 847.0 112.0 L 919.0 112.0 L 1111.0 112.0 L 1183.0 112.0" fill="none" stroke="#000000" stroke-width="1.25" stroke-linecap="round" stroke-linejoin="round" stroke-dasharray="8 5" marker-end="url(#marker-end-realize-clients-http)"/><text x="883.0" y="103.6" text-anchor="middle" fill="#000000" stroke="#ffffff" stroke-width="4" stroke-linejoin="round" paint-order="stroke">HTTP</text></g><g data-dediren-edge-id="dep-functions-services"><defs><marker id="marker-end-dep-functions-services" data-dediren-edge-marker-end="open_arrow" markerWidth="9" markerHeight="9" refX="8" refY="4.5" orient="auto" markerUnits="strokeWidth"><path d="M 1 1 L 8 4.5 L 1 8" fill="none" stroke="#000000" stroke-width="1.3" stroke-linecap="round" stroke-linejoin="round"/></marker></defs><path d="M 1392.2 173.0 L 1392.2 229.0 Q 1392.2 237.0 1400.2 237.0 L 1848.0 237.0 Q 1856.0 237.0 1856.0 245.0 L 1856.0 301.0" fill="none" stroke="#000000" stroke-width="1.25" stroke-linecap="round" stroke-linejoin="round" stroke-dasharray="8 5" marker-end="url(#marker-end-dep-functions-services)"/><text x="1624.1" y="253.8" text-anchor="middle" fill="#000000" stroke="#ffffff" stroke-width="4" stroke-linejoin="round" paint-order="stroke">uses</text></g><g data-dediren-edge-id="dep-services-repositories"><defs><marker id="marker-end-dep-services-repositories" data-dediren-edge-marker-end="open_arrow" markerWidth="9" markerHeight="9" refX="8" refY="4.5" orient="auto" markerUnits="strokeWidth"><path d="M 1 1 L 8 4.5 L 1 8" fill="none" stroke="#000000" stroke-width="1.3" stroke-linecap="round" stroke-linejoin="round"/></marker></defs><path d="M 2017.0 346.8 L 2217.0 346.8 L 2473.0 346.8 L 2545.0 346.8" fill="none" stroke="#000000" stroke-width="1.25" stroke-linecap="round" stroke-linejoin="round" stroke-dasharray="8 5" marker-end="url(#marker-end-dep-services-repositories)"/><text x="2117.0" y="338.4" text-anchor="middle" fill="#000000" stroke="#ffffff" stroke-width="4" stroke-linejoin="round" paint-order="stroke">persists</text></g><g data-dediren-edge-id="dep-services-external"><defs><marker id="marker-end-dep-services-external" data-dediren-edge-marker-end="open_arrow" markerWidth="9" markerHeight="9" refX="8" refY="4.5" orient="auto" markerUnits="strokeWidth"><path d="M 1 1 L 8 4.5 L 1 8" fill="none" stroke="#000000" stroke-width="1.3" stroke-linecap="round" stroke-linejoin="round"/></marker></defs><path d="M 2017.0 377.2 L 2073.0 377.2 Q 2081.0 377.2 2081.0 385.2 L 2081.0 390.0 Q 2081.0 394.8 2085.8 394.8 L 2217.0 394.8 L 2273.0 394.8 Q 2281.0 394.8 2281.0 402.8 L 2281.0 407.3 Q 2281.0 411.8 2285.5 411.8 L 2401.0 411.8 Q 2409.0 411.8 2409.0 419.8 L 2409.0 554.8 Q 2409.0 562.8 2417.0 562.8 L 2473.0 562.8 L 2545.0 562.8" fill="none" stroke="#000000" stroke-width="1.25" stroke-linecap="round" stroke-linejoin="round" stroke-dasharray="8 5" marker-end="url(#marker-end-dep-services-external)"/><text x="2049.0" y="394.0" text-anchor="middle" fill="#000000" stroke="#ffffff" stroke-width="4" stroke-linejoin="round" paint-order="stroke">fetches</text></g><g data-dediren-edge-id="dep-functions-idempotency"><defs><marker id="marker-end-dep-functions-idempotency" data-dediren-edge-marker-end="open_arrow" markerWidth="9" markerHeight="9" refX="8" refY="4.5" orient="auto" markerUnits="strokeWidth"><path d="M 1 1 L 8 4.5 L 1 8" fill="none" stroke="#000000" stroke-width="1.3" stroke-linecap="round" stroke-linejoin="round"/></marker></defs><path d="M 1295.8 173.0 L 1295.8 478.0 Q 1295.8 486.0 1303.8 486.0 L 1848.5 486.0 Q 1856.5 486.0 1856.5 494.0 L 1856.5 550.0" fill="none" stroke="#000000" stroke-width="1.25" stroke-linecap="round" stroke-linejoin="round" stroke-dasharray="8 5" marker-end="url(#marker-end-dep-functions-idempotency)"/><text x="1576.2" y="502.8" text-anchor="middle" fill="#000000" stroke="#ffffff" stroke-width="4" stroke-linejoin="round" paint-order="stroke">mutations</text></g><g data-dediren-node-id="class-ui-pages"><rect data-dediren-node-shape="uml_class" x="52.0" y="52.0" width="320.0" height="120.0" rx="0" fill="#ffffff" stroke="#000000" stroke-width="1.25"/><g data-dediren-node-decorator="uml_class"><line x1="52.0" y1="80.0" x2="372.0" y2="80.0" stroke="#000000" stroke-width="1.25"/><line x1="52.0" y1="80.0" x2="372.0" y2="80.0" stroke="#000000" stroke-width="1.25"/><text x="212.0" y="67.0" text-anchor="middle" fill="#000000" font-size="12">Blazor pages</text><text x="60.0" y="95.0" fill="#000000" font-size="12">+ render flow state() : Component UI</text></g></g><g data-dediren-node-id="interface-app-clients"><rect data-dediren-node-shape="uml_interface" x="566.0" y="52.0" width="280.0" height="120.0" rx="0" fill="#ffffff" stroke="#000000" stroke-width="1.25"/><g data-dediren-node-decorator="uml_interface"><line x1="566.0" y1="90.0" x2="846.0" y2="90.0" stroke="#000000" stroke-width="1.25"/><line x1="566.0" y1="90.0" x2="846.0" y2="90.0" stroke="#000000" stroke-width="1.25"/><text x="706.0" y="67.0" text-anchor="middle" fill="#000000" font-size="12">«interface»</text><text x="706.0" y="82.0" text-anchor="middle" fill="#000000" font-size="12">App Core service clients</text><text x="574.0" y="105.0" fill="#000000" font-size="12">+ call API endpoints() : DTOs</text></g></g><g data-dediren-node-id="class-function-adapters"><rect data-dediren-node-shape="uml_class" x="1184.0" y="52.0" width="320.0" height="120.0" rx="0" fill="#ffffff" stroke="#000000" stroke-width="1.25"/><g data-dediren-node-decorator="uml_class"><line x1="1184.0" y1="80.0" x2="1504.0" y2="80.0" stroke="#000000" stroke-width="1.25"/><line x1="1184.0" y1="80.0" x2="1504.0" y2="80.0" stroke="#000000" stroke-width="1.25"/><text x="1344.0" y="67.0" text-anchor="middle" fill="#000000" font-size="12">HTTP Function adapters</text><text x="1192.0" y="95.0" fill="#000000" font-size="12">+ map HTTP request() : HTTP response</text></g></g><g data-dediren-node-id="class-domain-services"><rect data-dediren-node-shape="uml_class" x="1696.0" y="302.0" width="320.0" height="120.0" rx="0" fill="#ffffff" stroke="#000000" stroke-width="1.25"/><g data-dediren-node-decorator="uml_class"><line x1="1696.0" y1="330.0" x2="2016.0" y2="330.0" stroke="#000000" stroke-width="1.25"/><line x1="1696.0" y1="330.0" x2="2016.0" y2="330.0" stroke="#000000" stroke-width="1.25"/><text x="1856.0" y="317.0" text-anchor="middle" fill="#000000" font-size="12">Domain services and policies</text><text x="1704.0" y="345.0" fill="#000000" font-size="12">+ enforce policy() : Domain result</text></g></g><g data-dediren-node-id="interface-repositories"><rect data-dediren-node-shape="uml_interface" x="2546.0" y="286.8" width="300.0" height="120.0" rx="0" fill="#ffffff" stroke="#000000" stroke-width="1.25"/><g data-dediren-node-decorator="uml_interface"><line x1="2546.0" y1="324.8" x2="2846.0" y2="324.8" stroke="#000000" stroke-width="1.25"/><line x1="2546.0" y1="324.8" x2="2846.0" y2="324.8" stroke="#000000" stroke-width="1.25"/><text x="2696.0" y="301.8" text-anchor="middle" fill="#000000" font-size="12">«interface»</text><text x="2696.0" y="316.8" text-anchor="middle" fill="#000000" font-size="12">Repository interfaces</text><text x="2554.0" y="339.8" fill="#000000" font-size="12">+ load and persist() : Documents</text></g></g><g data-dediren-node-id="interface-external-clients"><rect data-dediren-node-shape="uml_interface" x="2546.0" y="502.8" width="380.0" height="120.0" rx="0" fill="#ffffff" stroke="#000000" stroke-width="1.25"/><g data-dediren-node-decorator="uml_interface"><line x1="2546.0" y1="540.8" x2="2926.0" y2="540.8" stroke="#000000" stroke-width="1.25"/><line x1="2546.0" y1="540.8" x2="2926.0" y2="540.8" stroke="#000000" stroke-width="1.25"/><text x="2736.0" y="517.8" text-anchor="middle" fill="#000000" font-size="12">«interface»</text><text x="2736.0" y="532.8" text-anchor="middle" fill="#000000" font-size="12">Blizzard and blob clients</text><text x="2554.0" y="555.8" fill="#000000" font-size="12">+ fetch external data() : External payloads</text></g></g><g data-dediren-node-id="interface-idempotency-store"><rect data-dediren-node-shape="uml_interface" x="1696.5" y="551.0" width="320.0" height="120.0" rx="0" fill="#ffffff" stroke="#000000" stroke-width="1.25"/><g data-dediren-node-decorator="uml_interface"><line x1="1696.5" y1="589.0" x2="2016.5" y2="589.0" stroke="#000000" stroke-width="1.25"/><line x1="1696.5" y1="589.0" x2="2016.5" y2="589.0" stroke="#000000" stroke-width="1.25"/><text x="1856.5" y="566.0" text-anchor="middle" fill="#000000" font-size="12">«interface»</text><text x="1856.5" y="581.0" text-anchor="middle" fill="#000000" font-size="12">IIdempotencyStore</text><text x="1704.5" y="604.0" fill="#000000" font-size="12">+ TryGetAsync() : IdempotencyEntry?</text><text x="1704.5" y="618.0" fill="#000000" font-size="12">+ PutAsync() : void</text></g></g></g></svg>
