<svg xmlns="http://www.w3.org/2000/svg" width="3418" height="763" viewBox="-20.0 -20.0 3418.0 763.0"><rect x="-20.0" y="-20.0" width="3418.0" height="763.0" fill="#ffffff"/><g font-family="Inter, Arial, sans-serif" font-size="14"><g data-dediren-group-id="group-class-ui" data-dediren-group-type="Package" data-dediren-group-source-id="pkg-ui-pages"><rect x="12.0" y="12.0" width="1275.0" height="200.0" rx="0" fill="#ffffff" stroke="#000000" stroke-width="1"/><text x="20.0" y="28.0" fill="#000000" font-size="12">UI and clients</text></g><g data-dediren-group-id="group-class-api" data-dediren-group-type="Package" data-dediren-group-source-id="pkg-api-functions"><rect x="1543.0" y="12.0" width="1042.0" height="699.0" rx="0" fill="#ffffff" stroke="#000000" stroke-width="1"/><text x="1551.0" y="28.0" fill="#000000" font-size="12">API boundary</text></g><g data-dediren-group-id="group-class-data" data-dediren-group-type="Package" data-dediren-group-source-id="pkg-api-repositories"><rect x="2905.0" y="246.8" width="461.0" height="416.0" rx="0" fill="#ffffff" stroke="#000000" stroke-width="1"/><text x="2913.0" y="262.8" fill="#000000" font-size="12">Data and external ports</text></g><g data-dediren-edge-id="dep-ui-clients"><marker id="marker-end-dep-ui-clients" data-dediren-edge-marker-end="open_arrow" markerWidth="10" markerHeight="10" refX="5" refY="5" orient="auto"><path d="M 1 1 L 9 5 L 1 9" fill="none" stroke="#000000" stroke-width="1.5"/></marker><path d="M 593.0 112.0 L 785.0 112.0" fill="none" stroke="#000000" stroke-width="1.25" stroke-linecap="round" stroke-linejoin="round" stroke-dasharray="8 5" marker-end="url(#marker-end-dep-ui-clients)"/><text x="689.0" y="130.0" text-anchor="middle" fill="none" font-size="15.4" font-weight="600" stroke="#ffffff" stroke-width="2">calls</text><text x="689.0" y="130.0" text-anchor="middle" fill="#000000" font-size="15.4" font-weight="600">calls</text></g><g data-dediren-edge-id="realize-clients-http"><marker id="marker-end-realize-clients-http" data-dediren-edge-marker-end="hollow_triangle" markerWidth="10" markerHeight="10" refX="5" refY="5" orient="auto"><path d="M 1 1 L 9 5 L 1 9 Z" fill="#ffffff" stroke="#000000" stroke-width="1"/></marker><path d="M 1247.0 112.0 L 1319.0 112.0 L 1511.0 112.0 L 1583.0 112.0" fill="none" stroke="#000000" stroke-width="1.25" stroke-linecap="round" stroke-linejoin="round" stroke-dasharray="8 5" marker-end="url(#marker-end-realize-clients-http)"/><text x="1283.0" y="130.0" text-anchor="middle" fill="none" font-size="15.4" font-weight="600" stroke="#ffffff" stroke-width="2">HTTP</text><text x="1283.0" y="130.0" text-anchor="middle" fill="#000000" font-size="15.4" font-weight="600">HTTP</text></g><g data-dediren-edge-id="dep-functions-services"><marker id="marker-end-dep-functions-services" data-dediren-edge-marker-end="open_arrow" markerWidth="10" markerHeight="10" refX="5" refY="5" orient="auto"><path d="M 1 1 L 9 5 L 1 9" fill="none" stroke="#000000" stroke-width="1.5"/></marker><path d="M 1792.2 173.0 L 1792.2 229.0 Q 1792.2 237.0 1800.2 237.0 L 2248.0 237.0 Q 2256.0 237.0 2256.0 245.0 L 2256.0 301.0" fill="none" stroke="#000000" stroke-width="1.25" stroke-linecap="round" stroke-linejoin="round" stroke-dasharray="8 5" marker-end="url(#marker-end-dep-functions-services)"/><text x="2024.1" y="255.0" text-anchor="middle" fill="none" font-size="15.4" font-weight="600" stroke="#ffffff" stroke-width="2">uses</text><text x="2024.1" y="255.0" text-anchor="middle" fill="#000000" font-size="15.4" font-weight="600">uses</text></g><g data-dediren-edge-id="dep-services-repositories"><marker id="marker-end-dep-services-repositories" data-dediren-edge-marker-end="open_arrow" markerWidth="10" markerHeight="10" refX="5" refY="5" orient="auto"><path d="M 1 1 L 9 5 L 1 9" fill="none" stroke="#000000" stroke-width="1.5"/></marker><path d="M 2417.0 346.8 L 2617.0 346.8 L 2873.0 346.8 L 2945.0 346.8" fill="none" stroke="#000000" stroke-width="1.25" stroke-linecap="round" stroke-linejoin="round" stroke-dasharray="8 5" marker-end="url(#marker-end-dep-services-repositories)"/><text x="2517.0" y="364.8" text-anchor="middle" fill="none" font-size="15.4" font-weight="600" stroke="#ffffff" stroke-width="2">persists</text><text x="2517.0" y="364.8" text-anchor="middle" fill="#000000" font-size="15.4" font-weight="600">persists</text></g><g data-dediren-edge-id="dep-services-external"><marker id="marker-end-dep-services-external" data-dediren-edge-marker-end="open_arrow" markerWidth="10" markerHeight="10" refX="5" refY="5" orient="auto"><path d="M 1 1 L 9 5 L 1 9" fill="none" stroke="#000000" stroke-width="1.5"/></marker><path d="M 2417.0 377.2 L 2473.0 377.2 Q 2481.0 377.2 2481.0 385.2 L 2481.0 386.8 Q 2481.0 394.8 2489.0 394.8 L 2617.0 394.8 L 2673.0 394.8 Q 2681.0 394.8 2681.0 402.8 L 2681.0 403.8 Q 2681.0 411.8 2689.0 411.8 L 2801.0 411.8 Q 2809.0 411.8 2809.0 419.8 L 2809.0 554.8 Q 2809.0 562.8 2817.0 562.8 L 2873.0 562.8 L 2945.0 562.8" fill="none" stroke="#000000" stroke-width="1.25" stroke-linecap="round" stroke-linejoin="round" stroke-dasharray="8 5" marker-end="url(#marker-end-dep-services-external)"/><text x="2449.0" y="395.2" text-anchor="middle" fill="none" font-size="15.4" font-weight="600" stroke="#ffffff" stroke-width="2">fetches</text><text x="2449.0" y="395.2" text-anchor="middle" fill="#000000" font-size="15.4" font-weight="600">fetches</text></g><g data-dediren-edge-id="dep-functions-idempotency"><marker id="marker-end-dep-functions-idempotency" data-dediren-edge-marker-end="open_arrow" markerWidth="10" markerHeight="10" refX="5" refY="5" orient="auto"><path d="M 1 1 L 9 5 L 1 9" fill="none" stroke="#000000" stroke-width="1.5"/></marker><path d="M 1695.8 173.0 L 1695.8 478.0 Q 1695.8 486.0 1703.8 486.0 L 2248.5 486.0 Q 2256.5 486.0 2256.5 494.0 L 2256.5 550.0" fill="none" stroke="#000000" stroke-width="1.25" stroke-linecap="round" stroke-linejoin="round" stroke-dasharray="8 5" marker-end="url(#marker-end-dep-functions-idempotency)"/><text x="1976.2" y="504.0" text-anchor="middle" fill="none" font-size="15.4" font-weight="600" stroke="#ffffff" stroke-width="2">mutations</text><text x="1976.2" y="504.0" text-anchor="middle" fill="#000000" font-size="15.4" font-weight="600">mutations</text></g><g data-dediren-node-id="class-ui-pages"><rect data-dediren-node-shape="uml_class" x="52.0" y="52.0" width="540.0" height="120.0" rx="0" fill="#ffffff" stroke="#000000" stroke-width="1.25"/><g data-dediren-node-decorator="uml_class"><line x1="52.0" y1="80.0" x2="592.0" y2="80.0" stroke="#000000" stroke-width="1.25"/><line x1="52.0" y1="80.0" x2="592.0" y2="80.0" stroke="#000000" stroke-width="1.25"/><text x="322.0" y="67.0" text-anchor="middle" fill="#000000" font-size="12">Blazor pages</text><text x="60.0" y="95.0" fill="#000000" font-size="12">+ render flow state and monitor session expiry() : Component UI</text></g></g><g data-dediren-node-id="interface-app-clients"><rect data-dediren-node-shape="uml_interface" x="786.0" y="52.0" width="460.0" height="120.0" rx="0" fill="#ffffff" stroke="#000000" stroke-width="1.25"/><g data-dediren-node-decorator="uml_interface"><line x1="786.0" y1="90.0" x2="1246.0" y2="90.0" stroke="#000000" stroke-width="1.25"/><line x1="786.0" y1="90.0" x2="1246.0" y2="90.0" stroke="#000000" stroke-width="1.25"/><text x="1016.0" y="67.0" text-anchor="middle" fill="#000000" font-size="12">&#171;interface&#187;</text><text x="1016.0" y="82.0" text-anchor="middle" fill="#000000" font-size="12">App Core service clients</text><text x="794.0" y="105.0" fill="#000000" font-size="12">+ call API endpoints and refresh auth state() : DTOs</text></g></g><g data-dediren-node-id="class-function-adapters"><rect data-dediren-node-shape="uml_class" x="1584.0" y="52.0" width="320.0" height="120.0" rx="0" fill="#ffffff" stroke="#000000" stroke-width="1.25"/><g data-dediren-node-decorator="uml_class"><line x1="1584.0" y1="80.0" x2="1904.0" y2="80.0" stroke="#000000" stroke-width="1.25"/><line x1="1584.0" y1="80.0" x2="1904.0" y2="80.0" stroke="#000000" stroke-width="1.25"/><text x="1744.0" y="67.0" text-anchor="middle" fill="#000000" font-size="12">HTTP Function adapters</text><text x="1592.0" y="95.0" fill="#000000" font-size="12">+ map HTTP request() : HTTP response</text></g></g><g data-dediren-node-id="class-domain-services"><rect data-dediren-node-shape="uml_class" x="2096.0" y="302.0" width="320.0" height="120.0" rx="0" fill="#ffffff" stroke="#000000" stroke-width="1.25"/><g data-dediren-node-decorator="uml_class"><line x1="2096.0" y1="330.0" x2="2416.0" y2="330.0" stroke="#000000" stroke-width="1.25"/><line x1="2096.0" y1="330.0" x2="2416.0" y2="330.0" stroke="#000000" stroke-width="1.25"/><text x="2256.0" y="317.0" text-anchor="middle" fill="#000000" font-size="12">Domain services and policies</text><text x="2104.0" y="345.0" fill="#000000" font-size="12">+ enforce policy() : Domain result</text></g></g><g data-dediren-node-id="interface-repositories"><rect data-dediren-node-shape="uml_interface" x="2946.0" y="286.8" width="300.0" height="120.0" rx="0" fill="#ffffff" stroke="#000000" stroke-width="1.25"/><g data-dediren-node-decorator="uml_interface"><line x1="2946.0" y1="324.8" x2="3246.0" y2="324.8" stroke="#000000" stroke-width="1.25"/><line x1="2946.0" y1="324.8" x2="3246.0" y2="324.8" stroke="#000000" stroke-width="1.25"/><text x="3096.0" y="301.8" text-anchor="middle" fill="#000000" font-size="12">&#171;interface&#187;</text><text x="3096.0" y="316.8" text-anchor="middle" fill="#000000" font-size="12">Repository interfaces</text><text x="2954.0" y="339.8" fill="#000000" font-size="12">+ load and persist() : Documents</text></g></g><g data-dediren-node-id="interface-external-clients"><rect data-dediren-node-shape="uml_interface" x="2946.0" y="502.8" width="380.0" height="120.0" rx="0" fill="#ffffff" stroke="#000000" stroke-width="1.25"/><g data-dediren-node-decorator="uml_interface"><line x1="2946.0" y1="540.8" x2="3326.0" y2="540.8" stroke="#000000" stroke-width="1.25"/><line x1="2946.0" y1="540.8" x2="3326.0" y2="540.8" stroke="#000000" stroke-width="1.25"/><text x="3136.0" y="517.8" text-anchor="middle" fill="#000000" font-size="12">&#171;interface&#187;</text><text x="3136.0" y="532.8" text-anchor="middle" fill="#000000" font-size="12">Blizzard and blob clients</text><text x="2954.0" y="555.8" fill="#000000" font-size="12">+ fetch external data() : External payloads</text></g></g><g data-dediren-node-id="interface-idempotency-store"><rect data-dediren-node-shape="uml_interface" x="2096.5" y="551.0" width="320.0" height="120.0" rx="0" fill="#ffffff" stroke="#000000" stroke-width="1.25"/><g data-dediren-node-decorator="uml_interface"><line x1="2096.5" y1="589.0" x2="2416.5" y2="589.0" stroke="#000000" stroke-width="1.25"/><line x1="2096.5" y1="589.0" x2="2416.5" y2="589.0" stroke="#000000" stroke-width="1.25"/><text x="2256.5" y="566.0" text-anchor="middle" fill="#000000" font-size="12">&#171;interface&#187;</text><text x="2256.5" y="581.0" text-anchor="middle" fill="#000000" font-size="12">IIdempotencyStore</text><text x="2104.5" y="604.0" fill="#000000" font-size="12">+ TryGetAsync() : IdempotencyEntry?</text><text x="2104.5" y="618.0" fill="#000000" font-size="12">+ PutAsync() : void</text></g></g></g></svg>
