<svg xmlns="http://www.w3.org/2000/svg" width="2774" height="556" viewBox="-20.0 -20.0 2774.0 556.0"><rect x="-20.0" y="-20.0" width="2774.0" height="556.0" fill="#ffffff"/><g font-family="Inter, Arial, sans-serif" font-size="14"><g data-dediren-edge-id="flow-media-receive"><marker id="marker-end-flow-media-receive" data-dediren-edge-marker-end="open_arrow" markerWidth="10" markerHeight="10" refX="5" refY="5" orient="auto"><path d="M 1 1 L 9 5 L 1 9" fill="none" stroke="#000000" stroke-width="1.5"/></marker><path d="M 45.0 464.0 L 141.0 464.0" fill="none" stroke="#000000" stroke-width="1.25" stroke-linecap="round" stroke-linejoin="round" marker-end="url(#marker-end-flow-media-receive)"/></g><g data-dediren-edge-id="flow-media-decode"><marker id="marker-end-flow-media-decode" data-dediren-edge-marker-end="open_arrow" markerWidth="10" markerHeight="10" refX="5" refY="5" orient="auto"><path d="M 1 1 L 9 5 L 1 9" fill="none" stroke="#000000" stroke-width="1.5"/></marker><path d="M 303.0 464.0 L 399.0 464.0" fill="none" stroke="#000000" stroke-width="1.25" stroke-linecap="round" stroke-linejoin="round" marker-end="url(#marker-end-flow-media-decode)"/></g><g data-dediren-edge-id="flow-media-source-decision"><marker id="marker-end-flow-media-source-decision" data-dediren-edge-marker-end="open_arrow" markerWidth="10" markerHeight="10" refX="5" refY="5" orient="auto"><path d="M 1 1 L 9 5 L 1 9" fill="none" stroke="#000000" stroke-width="1.5"/></marker><path d="M 561.0 464.0 L 657.0 464.0" fill="none" stroke="#000000" stroke-width="1.25" stroke-linecap="round" stroke-linejoin="round" marker-end="url(#marker-end-flow-media-source-decision)"/></g><g data-dediren-edge-id="flow-media-source-valid"><marker id="marker-end-flow-media-source-valid" data-dediren-edge-marker-end="open_arrow" markerWidth="10" markerHeight="10" refX="5" refY="5" orient="auto"><path d="M 1 1 L 9 5 L 1 9" fill="none" stroke="#000000" stroke-width="1.5"/></marker><path d="M 691.0 464.0 L 883.0 464.0" fill="none" stroke="#000000" stroke-width="1.25" stroke-linecap="round" stroke-linejoin="round" marker-end="url(#marker-end-flow-media-source-valid)"/><text x="787.0" y="482.0" text-anchor="middle" fill="none" font-size="15.4" font-weight="600" stroke="#ffffff" stroke-width="2">valid</text><text x="787.0" y="482.0" text-anchor="middle" fill="#000000" font-size="15.4" font-weight="600">valid</text></g><g data-dediren-edge-id="flow-media-source-invalid"><marker id="marker-end-flow-media-source-invalid" data-dediren-edge-marker-end="open_arrow" markerWidth="10" markerHeight="10" refX="5" refY="5" orient="auto"><path d="M 1 1 L 9 5 L 1 9" fill="none" stroke="#000000" stroke-width="1.5"/></marker><path d="M 674.5 447.0 L 674.5 168.5 Q 674.5 160.5 682.5 160.5 L 787.0 160.5 L 964.0 160.5 L 1158.0 160.5 L 1448.0 160.5 L 1706.0 160.5 L 1900.0 160.5 L 2013.0 160.5 L 2141.0 160.5" fill="none" stroke="#000000" stroke-width="1.25" stroke-linecap="round" stroke-linejoin="round" marker-end="url(#marker-end-flow-media-source-invalid)"/><text x="730.8" y="178.5" text-anchor="middle" fill="none" font-size="15.4" font-weight="600" stroke="#ffffff" stroke-width="2">invalid</text><text x="730.8" y="178.5" text-anchor="middle" fill="#000000" font-size="15.4" font-weight="600">invalid</text></g><g data-dediren-edge-id="flow-media-cache-decision"><marker id="marker-end-flow-media-cache-decision" data-dediren-edge-marker-end="open_arrow" markerWidth="10" markerHeight="10" refX="5" refY="5" orient="auto"><path d="M 1 1 L 9 5 L 1 9" fill="none" stroke="#000000" stroke-width="1.5"/></marker><path d="M 1045.0 464.0 L 1141.0 464.0" fill="none" stroke="#000000" stroke-width="1.25" stroke-linecap="round" stroke-linejoin="round" marker-end="url(#marker-end-flow-media-cache-decision)"/></g><g data-dediren-edge-id="flow-media-cache-hit"><marker id="marker-end-flow-media-cache-hit" data-dediren-edge-marker-end="open_arrow" markerWidth="10" markerHeight="10" refX="5" refY="5" orient="auto"><path d="M 1 1 L 9 5 L 1 9" fill="none" stroke="#000000" stroke-width="1.5"/></marker><path d="M 1175.0 464.0 L 1271.0 464.0 L 1448.0 464.0 L 1900.0 464.0 L 2013.0 464.0 L 2222.0 464.0 L 2359.0 464.0 Q 2367.0 464.0 2367.0 456.0 L 2367.0 353.0 Q 2367.0 345.0 2375.0 345.0 L 2431.0 345.0" fill="none" stroke="#000000" stroke-width="1.25" stroke-linecap="round" stroke-linejoin="round" marker-end="url(#marker-end-flow-media-cache-hit)"/><text x="1223.0" y="482.0" text-anchor="middle" fill="none" font-size="15.4" font-weight="600" stroke="#ffffff" stroke-width="2">hit</text><text x="1223.0" y="482.0" text-anchor="middle" fill="#000000" font-size="15.4" font-weight="600">hit</text></g><g data-dediren-edge-id="flow-media-cache-miss"><marker id="marker-end-flow-media-cache-miss" data-dediren-edge-marker-end="open_arrow" markerWidth="10" markerHeight="10" refX="5" refY="5" orient="auto"><path d="M 1 1 L 9 5 L 1 9" fill="none" stroke="#000000" stroke-width="1.5"/></marker><path d="M 1158.5 447.0 L 1158.5 336.0 Q 1158.5 328.0 1166.5 328.0 L 1367.0 328.0" fill="none" stroke="#000000" stroke-width="1.25" stroke-linecap="round" stroke-linejoin="round" marker-end="url(#marker-end-flow-media-cache-miss)"/><text x="1262.8" y="346.0" text-anchor="middle" fill="none" font-size="15.4" font-weight="600" stroke="#ffffff" stroke-width="2">miss</text><text x="1262.8" y="346.0" text-anchor="middle" fill="#000000" font-size="15.4" font-weight="600">miss</text></g><g data-dediren-edge-id="flow-media-validate"><marker id="marker-end-flow-media-validate" data-dediren-edge-marker-end="open_arrow" markerWidth="10" markerHeight="10" refX="5" refY="5" orient="auto"><path d="M 1 1 L 9 5 L 1 9" fill="none" stroke="#000000" stroke-width="1.5"/></marker><path d="M 1529.0 328.0 L 1625.0 328.0" fill="none" stroke="#000000" stroke-width="1.25" stroke-linecap="round" stroke-linejoin="round" marker-end="url(#marker-end-flow-media-validate)"/></g><g data-dediren-edge-id="flow-media-response-decision"><marker id="marker-end-flow-media-response-decision" data-dediren-edge-marker-end="open_arrow" markerWidth="10" markerHeight="10" refX="5" refY="5" orient="auto"><path d="M 1 1 L 9 5 L 1 9" fill="none" stroke="#000000" stroke-width="1.5"/></marker><path d="M 1787.0 328.0 L 1883.0 328.0" fill="none" stroke="#000000" stroke-width="1.25" stroke-linecap="round" stroke-linejoin="round" marker-end="url(#marker-end-flow-media-response-decision)"/></g><g data-dediren-edge-id="flow-media-response-valid"><marker id="marker-end-flow-media-response-valid" data-dediren-edge-marker-end="open_arrow" markerWidth="10" markerHeight="10" refX="5" refY="5" orient="auto"><path d="M 1 1 L 9 5 L 1 9" fill="none" stroke="#000000" stroke-width="1.5"/></marker><path d="M 1917.0 328.0 L 2141.0 328.0" fill="none" stroke="#000000" stroke-width="1.25" stroke-linecap="round" stroke-linejoin="round" marker-end="url(#marker-end-flow-media-response-valid)"/><text x="2029.0" y="346.0" text-anchor="middle" fill="none" font-size="15.4" font-weight="600" stroke="#ffffff" stroke-width="2">image &lt;= 5 MiB</text><text x="2029.0" y="346.0" text-anchor="middle" fill="#000000" font-size="15.4" font-weight="600">image &lt;= 5 MiB</text></g><g data-dediren-edge-id="flow-media-response-invalid"><marker id="marker-end-flow-media-response-invalid" data-dediren-edge-marker-end="open_arrow" markerWidth="10" markerHeight="10" refX="5" refY="5" orient="auto"><path d="M 1 1 L 9 5 L 1 9" fill="none" stroke="#000000" stroke-width="1.5"/></marker><g data-dediren-line-jump-masks="flow-media-response-invalid"><path d="M 2077.0 154.5 Q 2083.0 160.5 2077.0 166.5" fill="none" stroke="#ffffff" stroke-width="6"/></g><path d="M 1900.5 311.0 L 1900.5 233.5 Q 1900.5 225.5 1908.5 225.5 L 2069.0 225.5 Q 2077.0 225.5 2077.0 217.5 L 2077.0 166.5 Q 2083.0 160.5 2077.0 154.5 L 2077.0 151.5 Q 2077.0 143.5 2085.0 143.5 L 2141.0 143.5" fill="none" stroke="#000000" stroke-width="1.25" stroke-linecap="round" stroke-linejoin="round" marker-end="url(#marker-end-flow-media-response-invalid)"/><text x="1988.8" y="215.5" text-anchor="middle" fill="none" font-size="15.4" font-weight="600" stroke="#ffffff" stroke-width="2">reject</text><text x="1988.8" y="215.5" text-anchor="middle" fill="#000000" font-size="15.4" font-weight="600">reject</text></g><g data-dediren-edge-id="flow-media-write-return"><marker id="marker-end-flow-media-write-return" data-dediren-edge-marker-end="open_arrow" markerWidth="10" markerHeight="10" refX="5" refY="5" orient="auto"><path d="M 1 1 L 9 5 L 1 9" fill="none" stroke="#000000" stroke-width="1.5"/></marker><path d="M 2303.0 328.0 L 2431.0 328.0" fill="none" stroke="#000000" stroke-width="1.25" stroke-linecap="round" stroke-linejoin="round" marker-end="url(#marker-end-flow-media-write-return)"/></g><g data-dediren-edge-id="flow-media-content-final"><marker id="marker-end-flow-media-content-final" data-dediren-edge-marker-end="open_arrow" markerWidth="10" markerHeight="10" refX="5" refY="5" orient="auto"><path d="M 1 1 L 9 5 L 1 9" fill="none" stroke="#000000" stroke-width="1.5"/></marker><path d="M 2593.0 336.5 L 2689.0 336.5" fill="none" stroke="#000000" stroke-width="1.25" stroke-linecap="round" stroke-linejoin="round" marker-end="url(#marker-end-flow-media-content-final)"/></g><g data-dediren-edge-id="flow-media-problem-final"><marker id="marker-end-flow-media-problem-final" data-dediren-edge-marker-end="open_arrow" markerWidth="10" markerHeight="10" refX="5" refY="5" orient="auto"><path d="M 1 1 L 9 5 L 1 9" fill="none" stroke="#000000" stroke-width="1.5"/></marker><path d="M 2303.0 152.0 L 2512.0 152.0 L 2698.5 152.0 Q 2706.5 152.0 2706.5 160.0 L 2706.5 319.5" fill="none" stroke="#000000" stroke-width="1.25" stroke-linecap="round" stroke-linejoin="round" marker-end="url(#marker-end-flow-media-problem-final)"/></g><g data-dediren-node-id="activity-wow-media-cache"><rect data-dediren-node-shape="uml_activity" x="12.0" y="12.0" width="160.0" height="80.0" rx="12" fill="#ffffff" stroke="#000000" stroke-width="1.25"/><g data-dediren-node-decorator="uml_activity"></g><text x="92.0" y="56.7" text-anchor="middle" fill="#000000">WoW media cache</text></g><g data-dediren-node-id="initial-wow-media-cache"><circle data-dediren-node-shape="uml_initial_node" cx="28.0" cy="464.0" r="14.8" fill="#000000" stroke="#000000" stroke-width="1.25"/><g data-dediren-node-decorator="uml_initial_node"></g><text x="28.0" y="468.7" text-anchor="middle" fill="#000000"></text></g><g data-dediren-node-id="action-receive-media-cache-request"><rect data-dediren-node-shape="uml_action" x="142.0" y="424.0" width="160.0" height="80.0" rx="12" fill="#ffffff" stroke="#000000" stroke-width="1.25"/><g data-dediren-node-decorator="uml_action"></g><text x="222.0" y="468.7" text-anchor="middle" fill="#000000">GET media cache</text></g><g data-dediren-node-id="action-decode-media-source"><rect data-dediren-node-shape="uml_action" x="400.0" y="424.0" width="160.0" height="80.0" rx="12" fill="#ffffff" stroke="#000000" stroke-width="1.25"/><g data-dediren-node-decorator="uml_action"></g><text x="480.0" y="468.7" text-anchor="middle" fill="#000000">Decode source URL</text></g><g data-dediren-node-id="decision-media-source-valid"><path data-dediren-node-shape="uml_decision_node" d="M 674.0 448.0 L 690.0 464.0 L 674.0 480.0 L 658.0 464.0 Z" fill="#ffffff" stroke="#000000" stroke-width="1.25"/><g data-dediren-node-decorator="uml_decision_node"></g><text x="674.0" y="468.7" text-anchor="middle" fill="#000000"></text></g><g data-dediren-node-id="action-read-media-cache-blob"><rect data-dediren-node-shape="uml_action" x="884.0" y="424.0" width="160.0" height="80.0" rx="12" fill="#ffffff" stroke="#000000" stroke-width="1.25"/><g data-dediren-node-decorator="uml_action"></g><text x="964.0" y="468.7" text-anchor="middle" fill="#000000">Read cached image blob</text></g><g data-dediren-node-id="decision-media-cache-hit"><path data-dediren-node-shape="uml_decision_node" d="M 1158.0 448.0 L 1174.0 464.0 L 1158.0 480.0 L 1142.0 464.0 Z" fill="#ffffff" stroke="#000000" stroke-width="1.25"/><g data-dediren-node-decorator="uml_decision_node"></g><text x="1158.0" y="468.7" text-anchor="middle" fill="#000000"></text></g><g data-dediren-node-id="action-fetch-render-cdn-image"><rect data-dediren-node-shape="uml_action" x="1368.0" y="288.0" width="160.0" height="80.0" rx="12" fill="#ffffff" stroke="#000000" stroke-width="1.25"/><g data-dediren-node-decorator="uml_action"></g><text x="1448.0" y="332.7" text-anchor="middle" fill="#000000">Fetch render-CDN image</text></g><g data-dediren-node-id="action-validate-media-response"><rect data-dediren-node-shape="uml_action" x="1626.0" y="288.0" width="160.0" height="80.0" rx="12" fill="#ffffff" stroke="#000000" stroke-width="1.25"/><g data-dediren-node-decorator="uml_action"></g><text x="1706.0" y="332.7" text-anchor="middle" fill="#000000">Validate image type and size</text></g><g data-dediren-node-id="decision-media-response-valid"><path data-dediren-node-shape="uml_decision_node" d="M 1900.0 312.0 L 1916.0 328.0 L 1900.0 344.0 L 1884.0 328.0 Z" fill="#ffffff" stroke="#000000" stroke-width="1.25"/><g data-dediren-node-decorator="uml_decision_node"></g><text x="1900.0" y="332.7" text-anchor="middle" fill="#000000"></text></g><g data-dediren-node-id="action-write-media-cache-blob"><rect data-dediren-node-shape="uml_action" x="2142.0" y="288.0" width="160.0" height="80.0" rx="12" fill="#ffffff" stroke="#000000" stroke-width="1.25"/><g data-dediren-node-decorator="uml_action"></g><text x="2222.0" y="332.7" text-anchor="middle" fill="#000000">Write cached image blob</text></g><g data-dediren-node-id="action-return-media-content"><rect data-dediren-node-shape="uml_action" x="2432.0" y="296.5" width="160.0" height="80.0" rx="12" fill="#ffffff" stroke="#000000" stroke-width="1.25"/><g data-dediren-node-decorator="uml_action"></g><text x="2512.0" y="341.2" text-anchor="middle" fill="#000000">Return image content</text></g><g data-dediren-node-id="action-return-media-problem"><rect data-dediren-node-shape="uml_action" x="2142.0" y="112.0" width="160.0" height="80.0" rx="12" fill="#ffffff" stroke="#000000" stroke-width="1.25"/><g data-dediren-node-decorator="uml_action"></g><text x="2222.0" y="156.7" text-anchor="middle" fill="#000000">Return media problem</text></g><g data-dediren-node-id="final-wow-media-cache"><g data-dediren-node-shape="uml_activity_final_node"><circle cx="2706.0" cy="336.5" r="14.8" fill="#ffffff" stroke="#000000" stroke-width="1.25"/><circle cx="2706.0" cy="336.5" r="7.1" fill="#000000"/></g><g data-dediren-node-decorator="uml_activity_final_node"></g><text x="2706.0" y="341.2" text-anchor="middle" fill="#000000"></text></g></g></svg>
